<?xml version="1.0" encoding="UTF-8"?>
<!DOCTYPE svg PUBLIC "-//W3C//DTD SVG 1.1//EN" "http://www.w3.org/Graphics/SVG/1.1/DTD/svg11.dtd">
<!-- Creator: CorelDRAW X8 -->
<svg xmlns="http://www.w3.org/2000/svg" xml:space="preserve" width="381mm" height="381mm" version="1.1" style="shape-rendering:geometricPrecision; text-rendering:geometricPrecision; image-rendering:optimizeQuality; fill-rule:evenodd; clip-rule:evenodd"
viewBox="0 0 38100 38100"
 xmlns:xlink="http://www.w3.org/1999/xlink">
 <defs>
  <style type="text/css">
   <![CDATA[
    .str0 {stroke:#DADADA;stroke-width:33.86}
    .str3 {stroke:#DADADA;stroke-width:33.86}
    .str5 {stroke:#DADADA;stroke-width:33.86}
    .str2 {stroke:#DADADA;stroke-width:33.86}
    .str1 {stroke:#DADADA;stroke-width:33.86}
    .str4 {stroke:#DADADA;stroke-width:33.86}
    .fil0 {fill:none;fill-rule:nonzero}
    .fil1 {fill:#DADADA}
   ]]>
  </style>
 </defs>
 <g id="Warstwa_x0020_1">
  <metadata id="CorelCorpID_0Corel-Layer"/>
  <path class="fil0 str0" d="M9907 12830c61,170 -63,285 32,407 11,13 59,75 125,76 86,2 106,-100 224,-128 67,-17 77,13 179,0 54,-7 124,-15 178,-55 121,-88 52,-242 165,-319 67,-46 108,-2 196,-49 98,-53 90,-130 164,-222 72,-89 229,-138 540,-234 218,-66 256,-66 289,-116 88,-136 -38,-378 -169,-504 -49,-47 -115,-110 -202,-108 -101,2 -157,89 -206,64 -43,-23 -5,-93 -56,-176 -50,-80 -114,-57 -179,-147 -51,-71 -24,-104 -71,-146 -44,-40 -90,-31 -247,-39 -219,-10 -235,-34 -283,-6 -88,52 -118,182 -107,275 11,101 67,116 53,173 -28,113 -255,78 -322,222 -38,79 -2,161 -63,201 -30,20 -44,5 -83,21 -80,32 -62,112 -144,206 -66,77 -109,59 -191,156 -42,50 -63,75 -68,108 -19,123 182,160 246,340z"/>
  <path class="fil0 str0" d="M11333 10184c26,23 59,-8 115,8 51,15 66,52 88,43 24,-9 10,-60 39,-78 24,-14 69,-2 88,24 41,56 -57,155 -24,191 23,26 107,10 155,-39 65,-67 47,-183 59,-183 12,0 7,104 40,113 27,7 80,-49 95,-113 16,-64 -10,-117 13,-129 14,-7 27,14 51,12 63,-4 83,-158 116,-156 18,2 39,55 31,106 -13,82 -94,101 -87,152 6,47 84,89 122,70 37,-17 12,-78 56,-113 37,-28 68,1 135,-27 21,-9 75,-30 88,-74 16,-55 -48,-99 -28,-133 19,-31 84,-7 100,-35 21,-38 -90,-109 -72,-160 18,-49 137,-23 155,-70 22,-55 -108,-169 -150,-148 -18,9 -10,37 -36,62 -6,6 -30,27 -92,27 -113,0 -144,-74 -226,-74 -21,0 -47,5 -183,117 -155,128 -150,145 -234,202 -87,59 -183,102 -235,125 -107,47 -191,73 -202,132 -5,24 1,63 3,82 6,37 8,56 20,66z"/>
  <path class="fil0 str0" d="M12107 10369c-15,-21 -55,-15 -103,-8 -28,4 -216,31 -250,152 -2,6 -13,46 3,89 19,51 72,98 123,94 20,-1 44,-11 112,-101 77,-103 142,-190 115,-226z"/>
  <path class="fil0 str0" d="M12810 10089c30,-9 51,-63 32,-101 -27,-56 -127,-48 -143,-20 -18,34 64,135 111,121z"/>
  <path class="fil0 str0" d="M12919 9395c31,21 117,-19 123,-66 3,-21 -12,-25 -28,-67 -24,-62 -5,-89 -27,-109 -32,-29 -113,-12 -127,23 -11,27 26,43 43,109 17,65 -5,95 16,110z"/>
  <path class="fil0 str1" d="M13486 9462c-32,-50 -79,-61 -75,-78 5,-19 65,-12 121,-14 39,-2 76,-8 90,-33 16,-29 -7,-80 -40,-105 -8,-6 -17,-11 -30,-14 -29,-6 -78,-3 -176,22 -158,40 -237,60 -286,120 -15,17 -80,98 -56,199 14,61 59,122 122,144 28,10 36,4 215,-27 86,-14 103,-16 119,-34 3,-4 5,-8 8,-12 18,-28 22,-67 14,-105 -5,-22 -14,-44 -26,-63z"/>
  <path class="fil0 str0" d="M16165 6754c18,22 -51,88 -31,118 24,34 139,-24 162,8 26,37 -102,149 -78,181 15,20 71,-12 179,-23 79,-8 183,-4 187,18 8,38 -285,75 -295,178 -8,83 171,200 274,161 59,-22 90,-94 110,-84 17,8 -11,59 12,91 40,54 227,37 316,-64 47,-54 58,-120 86,-117 28,2 26,64 63,76 14,4 43,5 176,-134 71,-75 106,-113 122,-149 41,-97 18,-190 39,-194 14,-2 18,41 57,65 55,34 125,-4 134,12 15,28 -205,152 -185,201 10,28 86,10 95,36 7,20 -35,57 -203,163 -141,90 -211,128 -209,181 1,20 12,35 24,50 129,164 248,251 232,287 -8,18 -45,20 -66,18 -100,-10 -108,-134 -229,-217 -90,-63 -227,-91 -312,-36 -44,28 -85,86 -72,129 17,55 116,64 113,97 -2,23 -52,23 -63,52 -13,36 44,88 122,153 198,161 254,171 274,243 23,84 -36,131 0,175 59,73 269,3 276,30 4,13 -49,27 -56,67 -7,37 31,65 20,79 -10,15 -58,-3 -83,-11 -109,-39 -180,-64 -229,-59 -108,9 -184,169 -209,271 -37,154 8,325 59,331 49,6 104,-143 125,-134 18,7 -24,109 9,131 25,17 81,-16 116,-49 72,-68 68,-153 90,-152 22,0 58,83 32,155 -29,82 -125,114 -116,134 9,20 102,-9 113,15 7,15 -23,30 -33,62 -21,70 72,187 146,181 68,-5 87,-115 131,-108 40,6 78,105 44,164 -41,74 -180,63 -256,41 -75,-22 -125,-67 -148,-88 -108,-98 -99,-184 -161,-196 -62,-13 -149,56 -164,131 -17,83 56,168 116,237 62,72 101,88 95,117 -11,52 -142,21 -236,108 -79,74 -80,186 -80,225 -1,92 32,201 77,205 29,3 54,-39 74,-29 14,7 6,28 18,50 24,43 106,63 149,35 30,-20 23,-52 51,-61 33,-11 58,31 89,21 37,-13 26,-84 57,-94 30,-10 55,56 122,94 99,56 244,24 259,-23 10,-33 -47,-59 -42,-123 1,-7 5,-54 33,-64 41,-17 90,62 128,47 31,-14 22,-78 45,-82 25,-5 44,69 86,70 21,1 42,-18 51,-35 28,-52 -33,-117 -12,-137 13,-13 42,2 92,20 140,50 190,31 212,71 28,51 -40,113 -18,134 27,27 175,-26 226,-137 43,-92 5,-198 36,-208 21,-6 39,39 69,36 39,-5 71,-93 62,-170 -13,-117 -123,-217 -172,-199 -42,15 -24,116 -75,131 -32,10 -69,-22 -77,-29 -66,-58 -48,-156 -77,-161 -27,-5 -41,76 -93,85 -49,8 -71,-60 -125,-56 -62,4 -82,99 -131,93 -27,-3 -53,-38 -50,-64 4,-39 67,-50 65,-82 -1,-24 -36,-28 -38,-56 -2,-23 20,-51 45,-58 47,-14 77,57 151,85 85,31 200,-4 268,-76 82,-85 84,-207 54,-286 -29,-79 -84,-96 -74,-135 21,-78 253,-49 274,-131 9,-33 -19,-74 -41,-94 -41,-37 -94,-30 -95,-47 -2,-20 75,-22 107,-76 24,-40 18,-103 -15,-132 -49,-43 -150,0 -154,-15 -4,-10 51,-27 107,-75 34,-30 103,-88 89,-147 -11,-49 -78,-87 -133,-85 -57,3 -78,47 -120,35 -42,-11 -41,-62 -71,-64 -39,-3 -49,86 -131,137 -41,25 -101,43 -113,26 -23,-29 81,-197 235,-239 90,-25 165,1 179,-32 11,-27 -21,-77 -59,-85 -47,-11 -70,46 -146,67 -83,22 -177,-11 -179,-38 -2,-22 54,-32 143,-73 50,-24 303,-142 292,-257 -5,-55 -66,-91 -71,-94 -71,-41 -154,-6 -161,-27 -5,-13 27,-43 66,-55 65,-21 96,24 172,21 80,-5 162,-61 164,-112 2,-27 -21,-30 -32,-76 -16,-64 17,-115 3,-122 -12,-7 -31,32 -69,35 -29,1 -66,-19 -71,-45 -11,-54 137,-98 128,-157 -6,-45 -92,-57 -89,-85 4,-29 94,-17 140,-62 62,-61 -2,-186 5,-310 19,-339 83,-624 59,-632 -11,-3 -38,75 -116,202 -52,84 -163,265 -227,245 -20,-6 -32,-31 -36,-49 -16,-95 170,-174 147,-240 -8,-23 -32,-18 -42,-44 -16,-43 34,-94 93,-170 12,-15 78,-100 113,-163 10,-18 112,-208 37,-395 -17,-42 -49,-121 -122,-150 -54,-20 -79,5 -197,6 -126,1 -133,-29 -190,-12 -120,34 -162,181 -194,169 -31,-11 18,-148 -33,-178 -34,-21 -71,36 -181,49 -75,9 -119,-10 -140,18 -23,30 9,77 -9,90 -21,14 -58,-39 -117,-38 -46,1 -100,35 -104,73 -8,68 148,127 137,152 -8,18 -87,0 -98,-3 -97,-22 -117,-62 -173,-58 -53,3 -112,43 -113,81 -2,65 161,109 151,141 -4,12 -31,16 -50,14 -50,-4 -60,-49 -110,-82 -54,-34 -133,-43 -191,-12 -5,3 -71,40 -72,94 0,59 77,91 66,117 -13,30 -124,0 -134,26 -10,26 84,78 74,97 -6,11 -42,-6 -80,6 -52,15 -103,82 -90,128 21,79 213,36 327,173 10,12 54,67 39,88 -24,33 -180,-17 -304,-88 -107,-62 -160,-123 -197,-103 -27,15 -9,52 -49,121 -33,56 -64,62 -66,98 -1,49 53,70 44,96 -9,24 -58,18 -174,36 -111,17 -134,33 -148,48 -31,35 -9,58 -37,96 -46,63 -128,28 -179,89 -34,42 -41,110 -15,132 41,35 155,-50 177,-23z"/>
  <path class="fil0 str0" d="M15639 8175c75,51 199,-14 205,0 7,17 -166,64 -176,152 -8,69 82,148 125,135 31,-9 28,-64 60,-70 28,-5 39,39 80,53 81,27 184,-103 211,-82 13,10 -10,38 3,68 25,55 141,51 140,61 0,10 -95,-2 -193,35 -70,26 -158,84 -153,137 4,34 40,34 63,88 24,58 -4,87 21,114 28,31 71,0 145,27 57,20 106,64 99,85 -9,25 -93,-2 -111,29 -20,37 60,141 167,176 70,23 163,20 181,-17 13,-26 -12,-62 1,-70 13,-10 44,33 71,26 35,-10 33,-93 48,-94 16,0 14,105 44,112 31,6 100,-87 81,-161 -11,-42 -43,-56 -36,-82 11,-37 79,-28 93,-65 16,-44 -68,-95 -51,-131 12,-25 55,-8 96,-35 50,-33 35,-92 66,-181 43,-127 111,-122 119,-205 10,-105 -88,-229 -175,-232 -75,-1 -118,86 -149,71 -51,-26 48,-260 -27,-308 -23,-15 -38,3 -65,-12 -80,-44 -16,-243 -59,-257 -22,-7 -67,35 -75,82 -10,60 45,108 33,119 -11,11 -64,-12 -104,-55 -67,-71 -36,-127 -83,-194 -69,-96 -177,-41 -244,-132 -47,-63 -3,-102 -48,-248 -24,-80 -51,-172 -118,-188 -67,-15 -154,48 -152,97 1,43 74,47 83,93 15,83 -211,144 -209,249 2,83 146,135 131,170 -15,32 -142,-19 -185,34 -39,49 15,153 23,170 44,85 109,118 98,138 -14,29 -151,-39 -187,5 -20,25 4,78 50,185 28,63 42,94 63,108z"/>
  <path class="fil0 str0" d="M15237 8189c46,-20 40,-155 -9,-246 -12,-22 -48,-88 -92,-85 -45,3 -81,76 -81,135 0,113 131,218 182,196z"/>
  <path class="fil0 str0" d="M15375 9161c59,70 161,80 157,120 -2,29 -53,29 -71,70 -25,60 36,166 101,173 47,5 55,-46 155,-102 89,-50 143,-43 155,-82 10,-34 -29,-46 -48,-117 -21,-81 17,-110 -11,-155 -27,-43 -66,-24 -128,-73 -60,-49 -46,-85 -98,-126 -51,-41 -140,-68 -197,-36 -88,50 -93,235 -15,328z"/>
  <path class="fil0 str0" d="M15681 9726c10,26 88,14 175,9 193,-11 241,23 268,-14 38,-50 -7,-173 -86,-205 -14,-6 -28,-8 -131,9 -175,28 -198,43 -205,64 -9,23 9,39 -3,84 -9,34 -23,42 -18,53z"/>
  <path class="fil0 str0" d="M16562 9590c-10,-5 -91,-49 -125,-18 -29,27 -5,92 6,120 12,32 52,138 125,135 47,-2 93,-50 98,-99 9,-77 -81,-126 -104,-138z"/>
  <path class="fil0 str0" d="M14319 8653c29,16 52,10 59,26 14,32 -66,74 -54,114 6,21 35,38 60,35 58,-4 88,-116 104,-111 13,5 -16,71 18,118 24,32 66,36 65,55 -1,16 -29,16 -38,38 -15,34 35,71 23,91 -12,19 -63,-9 -143,6 -31,5 -59,11 -71,32 -21,35 13,93 47,123 8,6 54,47 101,35 31,-8 30,-31 66,-47 45,-20 105,-10 116,15 8,19 -17,35 -9,50 12,24 78,-8 149,15 51,16 97,60 116,108 20,52 -6,72 18,123 2,6 32,68 89,82 74,18 155,-54 188,-122 40,-85 22,-194 -36,-246 -34,-31 -63,-25 -77,-56 -22,-49 40,-85 33,-158 -5,-57 -50,-113 -101,-135 -58,-25 -97,5 -125,-23 -37,-37 8,-109 -21,-129 -35,-25 -122,77 -173,52 -39,-19 -6,-92 -53,-178 -49,-91 -145,-121 -155,-124 -107,-31 -251,7 -268,79 -10,43 24,107 72,132z"/>
  <path class="fil0 str0" d="M14865 9649c27,-28 29,-76 9,-103 -40,-55 -175,-30 -191,18 -10,30 27,75 66,93 28,14 83,26 116,-8z"/>
  <path class="fil0 str0" d="M14287 10028c49,15 125,-39 128,-90 2,-54 -80,-60 -113,-144 -35,-87 25,-153 -18,-193 -26,-25 -78,-28 -104,-6 -20,17 -22,47 26,237 44,168 57,189 81,196z"/>
  <path class="fil0 str0" d="M14336 10567c18,10 27,3 110,0 85,-4 97,2 105,-9 25,-33 -39,-152 -137,-178 -14,-4 -63,-18 -95,8 -50,40 -33,149 17,179z"/>
  <path class="fil0 str0" d="M14315 10751c40,57 140,42 146,41 68,-10 142,-58 137,-99 -3,-23 -30,-37 -45,-44 -42,-22 -87,-12 -175,8 -53,13 -68,21 -75,35 -11,25 10,55 12,59z"/>
  <path class="fil0 str0" d="M14428 10912c2,43 50,91 98,88 51,-3 78,-62 87,-82 16,-36 31,-102 3,-123 -43,-31 -192,39 -188,117z"/>
  <path class="fil0 str0" d="M14314 11483c41,-16 73,-55 77,-97 10,-78 -72,-161 -151,-146 -73,13 -126,108 -90,181 28,57 103,85 164,62z"/>
  <path class="fil0 str0" d="M14711 10930c-72,29 -124,139 -93,190 33,55 166,54 253,9 58,-29 73,-66 140,-81 53,-12 116,-6 123,15 9,34 -148,67 -171,175 -6,33 8,32 6,105 -2,93 -25,115 -6,146 25,41 93,50 137,45 61,-8 64,-42 122,-53 84,-16 116,46 173,24 55,-22 87,-105 83,-170 -3,-59 -36,-93 -17,-117 19,-24 61,2 89,-23 31,-27 29,-96 -3,-132 -27,-30 -66,-24 -74,-50 -6,-18 11,-34 27,-58 50,-80 43,-197 3,-264 -7,-12 -13,-18 -23,-38 -25,-46 -21,-70 -33,-102 -19,-50 -68,-101 -122,-109 -40,-5 -48,18 -89,12 -54,-8 -63,-49 -110,-67 -79,-31 -199,29 -203,81 -4,56 128,95 116,147 -5,21 -28,19 -39,43 -26,60 76,147 65,159 -7,8 -70,-21 -125,-83 -84,-94 -75,-180 -127,-190 -37,-7 -84,28 -87,58 -2,35 54,49 57,97 1,28 -17,29 -24,64 -15,68 42,112 20,144 -12,19 -35,10 -68,23z"/>
  <path class="fil0 str0" d="M16090 10950c28,-27 12,-91 -24,-123 -18,-16 -55,-35 -83,-21 -35,18 -40,75 -18,112 26,44 96,59 125,32z"/>
  <path class="fil0 str0" d="M15734 11450c7,82 104,137 214,199 72,41 109,61 155,59 77,-4 160,-58 185,-131 21,-64 -21,-83 -77,-282 -30,-106 -29,-139 -68,-184 -40,-46 -113,-95 -170,-76 -35,11 -31,38 -74,58 -62,29 -104,-10 -131,14 -37,33 29,106 5,226 -14,71 -42,71 -39,117z"/>
  <path class="fil0 str0" d="M17026 11625c107,-61 125,-191 153,-185 29,7 -11,156 62,208 32,24 74,18 107,12 240,-38 393,-88 530,-122 153,-38 210,-39 236,-90 33,-68 -24,-154 24,-193 28,-24 72,-13 74,-12 73,20 60,117 128,158 88,54 240,-27 316,-101 30,-30 78,-77 72,-132 -6,-51 -55,-81 -42,-105 13,-26 68,-4 92,-35 18,-23 12,-65 -8,-88 -31,-35 -77,-10 -107,-36 -49,-41 29,-145 6,-228 -41,-148 -412,-255 -682,-141 -210,88 -343,268 -343,268 -65,88 -84,157 -149,167 -103,16 -167,-138 -274,-115 -62,14 -69,72 -155,85 -42,6 -100,1 -113,-27 -12,-26 28,-46 27,-90 -1,-56 -69,-115 -137,-129 -71,-15 -133,21 -146,-1 -7,-13 14,-26 12,-55 -3,-47 -64,-66 -59,-85 8,-31 173,18 223,-49 17,-23 23,-61 7,-82 -42,-55 -200,33 -248,-24 -25,-31 9,-67 -17,-103 -42,-55 -170,-27 -200,-20 -142,30 -199,108 -235,84 -43,-28 27,-142 -30,-202 -36,-39 -83,-11 -190,-30 -167,-28 -205,-120 -280,-94 -70,25 -113,133 -90,208 17,52 55,55 143,126 155,126 155,213 238,220 79,6 105,-71 194,-61 61,6 103,49 140,88 43,46 115,140 148,322 36,201 -27,229 23,383 37,114 115,237 187,232 44,-3 67,-52 99,-41 37,13 17,84 62,123 47,41 141,27 202,-8z"/>
  <path class="fil0 str0" d="M16639 10114c-30,17 -22,94 9,146 22,38 68,82 95,71 33,-14 40,-114 -9,-173 -24,-30 -71,-58 -95,-44z"/>
  <path class="fil0 str0" d="M18678 10325c43,-60 -5,-163 -50,-170 -47,-7 -105,89 -107,164 -1,17 2,27 8,35 27,30 114,21 149,-29z"/>
  <path class="fil0 str0" d="M18852 11838c-42,50 -27,153 23,211 62,71 145,38 196,114 30,45 9,66 45,129 12,22 53,93 113,106 64,13 89,-54 200,-114 143,-78 225,-31 378,-131 55,-36 65,-55 69,-70 21,-89 -135,-192 -211,-243 -105,-70 -204,-136 -328,-124 -90,9 -84,49 -211,79 -159,38 -231,-9 -274,43z"/>
  <path class="fil0 str0" d="M19714 12290c-103,18 -233,86 -232,155 1,85 199,145 187,176 -7,19 -81,-12 -125,26 -52,45 -21,152 -36,155 -15,3 -19,-100 -86,-143 -63,-41 -175,-25 -226,34 -72,84 -9,236 -37,243 -14,4 -41,-35 -62,-82 -61,-137 -5,-205 -35,-360 -10,-51 -33,-167 -125,-255 -70,-66 -109,-50 -166,-117 -84,-99 -39,-185 -104,-223 -78,-45 -217,37 -286,96 -68,58 -50,78 -134,164 -107,109 -183,126 -179,175 5,66 142,101 133,126 -7,23 -118,1 -125,24 -7,25 118,75 110,99 -6,20 -93,-15 -140,24 -62,51 -41,226 47,281 55,33 98,-2 149,38 58,44 75,143 42,173 -29,25 -78,-15 -119,11 -41,25 -58,103 -36,161 52,145 326,135 342,252 3,26 -8,45 -1,106 6,46 16,61 24,99 18,86 1,176 -18,178 -21,3 -24,-106 -74,-120 -83,-21 -198,236 -263,214 -21,-8 -29,-42 -29,-62 -6,-129 247,-183 241,-286 -3,-61 -90,-62 -223,-188 -32,-31 -118,-114 -172,-234 -51,-114 -22,-145 -59,-346 -49,-261 -108,-258 -86,-363 31,-145 151,-174 168,-345 4,-46 11,-120 -30,-155 -79,-67 -313,30 -459,163 -154,141 -190,483 -255,1162 -9,98 -24,275 86,409 21,27 61,76 131,103 141,56 229,-45 363,6 100,39 167,141 148,173 -9,17 -43,13 -235,-9 -141,-16 -212,-24 -232,3 -5,6 -23,35 30,134 29,56 167,318 365,314 133,-2 158,-122 268,-105 135,21 176,212 283,200 48,-6 42,-45 107,-70 120,-48 195,63 328,26 84,-23 89,-76 158,-72 70,4 88,61 166,61 7,0 79,-1 120,-49 41,-50 14,-108 42,-120 39,-18 96,103 190,100 38,-2 83,-24 86,-50 9,-66 -243,-138 -235,-164 7,-21 162,16 388,15 198,-1 231,-29 244,-52 27,-50 -10,-131 -59,-179 -85,-82 -191,-47 -215,-106 -21,-52 38,-146 93,-149 85,-3 123,212 226,211 55,0 77,-63 116,-52 59,17 21,163 101,220 82,57 232,-18 241,6 6,15 -62,39 -60,70 4,40 122,38 253,109 88,46 195,132 179,184 -16,52 -141,21 -182,94 -35,63 8,178 74,196 27,7 58,-1 107,-35 177,-121 195,-296 260,-292 52,3 49,116 175,202 27,18 77,52 116,35 56,-24 49,-134 72,-134 23,-1 14,105 80,152 59,42 112,-9 173,30 68,43 34,129 110,193 39,33 62,21 125,47 134,54 248,196 246,325 -1,53 -20,59 -51,143 -82,231 19,315 -54,480 -69,157 -211,194 -188,263 13,38 58,36 185,91 22,10 257,115 243,167 -4,20 -36,10 -77,38 -81,56 -50,153 -117,187 -53,28 -103,-18 -137,15 -32,32 2,91 -32,117 -26,19 -53,-5 -96,11 -40,16 -51,51 -68,73 -86,112 -370,-17 -429,73 -24,37 19,63 5,155 -14,97 -69,112 -83,184 -22,112 79,242 187,305 11,6 167,93 339,24 8,-3 164,-68 215,-213 25,-71 6,-105 39,-132 69,-56 195,54 271,0 67,-47 35,-178 69,-184 36,-6 83,148 119,141 33,-6 25,-148 56,-152 28,-4 53,104 96,102 23,-1 23,-34 50,-46 62,-28 140,115 322,190 62,27 115,35 154,42 176,28 304,-10 310,12 7,24 -160,57 -164,125 -4,70 165,161 318,156 36,-1 31,-6 78,-9 150,-8 176,44 274,33 108,-12 129,-80 217,-64 44,8 61,29 104,56 153,96 332,82 369,79 126,-10 104,-54 280,-93 106,-23 125,-9 343,-37 199,-26 235,-44 238,-64 4,-25 -41,-49 -74,-68 -200,-114 -200,-166 -327,-234 -197,-107 -261,-17 -575,-101 -234,-62 -455,-181 -443,-229 8,-30 112,-53 194,-35 40,9 67,26 113,18 39,-6 47,-23 80,-26 47,-4 67,25 113,44 95,38 141,-33 247,-5 85,21 74,71 143,82 112,18 161,-107 269,-91 88,14 120,110 169,91 29,-11 48,-57 39,-90 -11,-42 -60,-45 -63,-76 -3,-44 89,-64 87,-103 -2,-37 -92,-39 -176,-102 -92,-71 -136,-187 -115,-205 30,-28 209,148 241,120 18,-17 -26,-91 -89,-196 -108,-180 -155,-199 -179,-205 -49,-14 -54,11 -140,5 -24,-1 -177,-11 -208,-88 -16,-39 16,-56 9,-105 -16,-109 -205,-211 -300,-165 -37,18 -49,53 -93,56 -37,2 -50,-22 -92,-30 -59,-10 -88,30 -131,38 -145,30 -306,-317 -402,-284 -40,14 -48,86 -71,82 -19,-4 -8,-51 -39,-88 -45,-56 -139,-36 -143,-56 -6,-31 214,-65 221,-134 9,-85 -307,-184 -298,-211 7,-19 156,31 185,-15 26,-40 -64,-115 -41,-146 27,-39 205,7 351,91 73,42 99,71 146,65 93,-13 124,-146 167,-138 58,12 19,258 118,299 51,21 93,-28 152,3 49,26 39,71 86,97 44,24 78,0 170,-11 147,-18 199,26 230,-9 41,-46 -17,-165 -60,-228 -87,-131 -220,-190 -211,-205 5,-9 41,16 93,14 105,-2 216,-115 199,-184 -13,-53 -96,-57 -101,-111 -3,-42 47,-59 42,-94 -9,-60 -164,-52 -181,-114 -20,-68 145,-154 119,-216 -12,-28 -51,-29 -56,-62 -5,-30 27,-43 27,-67 -2,-54 -170,-142 -319,-100 -135,38 -180,163 -247,143 -64,-19 -56,-142 -110,-150 -56,-8 -82,121 -158,126 -89,6 -116,-166 -250,-185 -63,-8 -99,24 -158,-6 -51,-26 -53,-65 -89,-70 -49,-7 -70,59 -143,108 -83,55 -210,71 -298,29 -92,-45 -77,-120 -161,-147 -74,-24 -106,28 -238,44 -107,12 -258,-2 -277,-59 -23,-71 168,-168 144,-220 -22,-44 -181,-9 -185,-29 -2,-11 39,-29 113,-56 181,-66 231,-69 236,-96 7,-40 -88,-115 -191,-126 -117,-13 -195,62 -253,17 -18,-13 -35,-39 -30,-61 12,-48 120,-31 155,-91 26,-43 0,-100 -11,-126 -59,-132 -238,-203 -280,-164 -30,28 30,91 0,196 -19,64 -64,120 -87,114 -34,-9 -2,-146 -50,-167 -50,-21 -130,105 -170,85 -27,-14 -21,-86 -3,-141 43,-128 153,-157 141,-198 -16,-50 -200,-81 -298,-1 -47,38 -68,97 -99,91 -29,-6 -29,-67 -56,-71 -37,-5 -58,101 -105,105 -72,7 -140,-235 -184,-225 -35,7 -5,167 -75,199 -28,12 -68,3 -80,-18 -17,-30 36,-64 51,-135 12,-60 -6,-140 -59,-187 -85,-74 -213,-30 -239,-21 -62,22 -162,80 -167,158 -4,60 49,108 33,123 -11,10 -43,-3 -66,-18 -108,-69 -91,-221 -139,-228 -50,-8 -91,148 -143,140 -30,-5 -57,-61 -48,-105 10,-48 55,-56 57,-97 2,-31 -23,-68 -53,-82 -81,-37 -186,87 -230,55 -29,-21 14,-78 -20,-149 -32,-64 -104,-89 -119,-94 -55,-17 -82,0 -179,9 -124,11 -127,-13 -203,-1z"/>
  <path class="fil0 str0" d="M18064 14608c5,45 212,80 235,36 13,-25 -28,-82 -83,-100 -76,-25 -156,34 -152,64z"/>
  <path class="fil0 str0" d="M19696 14426c-12,70 79,154 122,141 16,-5 18,-22 42,-79 47,-116 74,-136 62,-152 -25,-35 -211,0 -226,90z"/>
  <path class="fil0 str0" d="M20191 14281c-84,19 -141,138 -108,196 9,15 27,32 48,32 20,0 35,-18 77,-82 69,-104 72,-118 66,-128 -12,-22 -55,-25 -83,-18z"/>
  <path class="fil0 str0" d="M20273 14524c-24,-5 -52,18 -65,41 -25,42 10,68 0,126 -14,74 -80,84 -84,158 -1,22 3,62 24,70 33,13 95,-61 125,-108 18,-29 74,-119 48,-217 -5,-18 -17,-64 -48,-70z"/>
  <path class="fil0 str0" d="M20577 14598c51,-2 124,-160 63,-220 -34,-33 -108,-33 -140,0 -56,59 25,221 77,220z"/>
  <path class="fil0 str0" d="M20281 15250c-16,34 40,99 75,91 29,-8 56,-72 27,-103 -27,-29 -89,-15 -102,12z"/>
  <path class="fil0 str0" d="M21226 14847c76,24 97,49 110,39 19,-16 -5,-95 -59,-141 -12,-9 -83,-67 -131,-35 -32,21 -43,74 -24,102 15,22 38,15 104,35z"/>
  <path class="fil0 str0" d="M20870 15491c-2,89 76,187 173,219 118,40 231,-32 325,-93 83,-54 128,-82 143,-137 23,-85 -56,-127 -155,-349 -50,-113 -47,-141 -86,-164 -99,-58 -302,15 -348,134 -33,85 33,141 -10,276 -20,64 -40,69 -42,114z"/>
  <path class="fil0 str0" d="M21604 15164c80,15 178,-37 184,-105 5,-47 -35,-103 -74,-105 -38,-3 -60,46 -95,37 -24,-5 -23,-29 -48,-38 -34,-12 -88,15 -101,50 -21,54 48,145 134,161z"/>
  <path class="fil0 str0" d="M25826 17098c46,-22 48,-127 4,-152 -40,-22 -126,21 -127,74 -1,53 81,99 123,78z"/>
  <path class="fil0 str0" d="M25821 17418c-17,23 0,76 36,98 58,35 142,-27 139,-58 -3,-39 -144,-78 -175,-40z"/>
  <path class="fil0 str0" d="M25916 17614c0,64 141,129 191,90 41,-33 38,-148 -32,-180 -68,-31 -158,38 -159,90z"/>
  <path class="fil0 str0" d="M24145 17798c-61,-14 -157,-27 -286,-16 37,10 89,29 134,72 37,35 42,59 72,68 62,18 154,-57 144,-94 -4,-14 -24,-22 -64,-30z"/>
  <path class="fil0 str0" d="M20841 18538c33,-23 18,-51 55,-117 56,-100 142,-131 132,-156 -12,-27 -108,18 -167,-32 -42,-35 -22,-81 -55,-101 -68,-39 -194,118 -267,81 -31,-15 -20,-51 -47,-128 -9,-25 -74,-208 -210,-258 -83,-31 -116,16 -210,-8 -112,-29 -96,-120 -203,-161 -105,-40 -149,27 -254,-16 -110,-44 -143,-150 -178,-137 -42,16 5,163 -36,180 -40,16 -154,-93 -143,-188 4,-32 19,-40 16,-66 -8,-68 -124,-134 -190,-106 -61,27 -65,127 -68,215 -8,219 73,253 82,472 7,167 -38,198 0,328 33,113 81,136 67,203 -24,114 -186,123 -199,234 -6,51 21,118 67,136 103,40 229,-189 342,-151 50,16 75,77 107,156 52,126 23,185 63,207 64,34 221,-65 271,-199 22,-60 0,-66 24,-125 53,-132 179,-136 187,-226 5,-63 -56,-79 -48,-156 7,-64 58,-126 92,-121 33,6 21,73 71,102 64,37 151,-35 187,0 21,22 -7,52 11,82 31,50 129,3 282,24 124,18 171,64 219,32z"/>
  <path class="fil0 str0" d="M19401 17427c22,-14 -4,-113 -71,-171 -33,-29 -88,-58 -103,-44 -20,19 25,107 87,164 12,11 68,64 87,51z"/>
  <path class="fil0 str0" d="M19751 17319c8,-18 -31,-51 -68,-82 -97,-84 -238,-147 -262,-118 -16,21 31,87 72,125 95,88 244,104 258,75z"/>
  <path class="fil0 str0" d="M20546 18978c-84,66 -70,116 -131,152 -91,55 -175,-24 -235,27 -49,42 -33,131 -16,226 7,40 39,219 119,231 21,3 27,-8 91,-31 76,-27 102,-24 131,-35 33,-13 79,-48 140,-289 45,-178 78,-310 32,-335 -36,-20 -104,33 -131,54z"/>
  <path class="fil0 str0" d="M21593 19628c60,-29 44,-168 25,-332 -19,-160 -49,-183 -64,-191 -64,-38 -176,5 -226,77 -89,130 50,313 59,324 49,63 149,149 206,122z"/>
  <path class="fil0 str0" d="M21554 18330c-7,77 131,172 238,147 11,-3 64,-17 89,-64 34,-63 2,-151 -53,-188 -96,-64 -268,24 -274,105z"/>
  <path class="fil0 str0" d="M21721 17909c25,-29 22,-80 0,-94 -37,-23 -139,48 -131,82 7,27 93,56 131,12z"/>
  <path class="fil0 str0" d="M21959 18138c62,22 145,13 155,-18 10,-32 -65,-96 -143,-105 -40,-5 -99,2 -107,29 -10,29 44,75 95,94z"/>
  <path class="fil0 str0" d="M25466 18705c-61,24 -60,228 0,252 40,16 139,-39 137,-129 -2,-86 -97,-139 -137,-123z"/>
  <path class="fil0 str0" d="M16166 15351c16,-44 -12,-108 -57,-137 -78,-51 -153,43 -280,22 -160,-25 -248,-208 -279,-187 -25,16 45,123 -1,175 -32,38 -89,5 -125,41 -52,53 35,156 -12,222 -50,72 -189,12 -226,76 -34,58 40,176 86,173 27,-2 32,-46 59,-47 46,-1 74,116 107,112 24,-4 20,-65 48,-74 35,-10 60,75 149,127 63,37 79,10 184,50 118,43 127,87 176,76 65,-15 73,-98 164,-120 26,-6 34,-1 53,-11 47,-24 77,-87 66,-138 -7,-34 -28,-42 -92,-102 -89,-84 -137,-129 -128,-167 11,-45 87,-37 108,-91z"/>
  <path class="fil0 str0" d="M16472 15767c56,-3 103,-55 101,-105 -2,-71 -103,-125 -161,-94 -48,26 -64,108 -27,158 19,25 52,43 87,41z"/>
  <path class="fil0 str0" d="M15015 15853c38,-19 40,-84 24,-126 -23,-63 -101,-109 -139,-88 -39,21 -39,110 2,164 25,32 77,67 113,50z"/>
  <path class="fil0 str0" d="M14464 15843c-10,45 40,96 93,97 37,0 80,-25 86,-65 6,-43 -37,-82 -80,-88 -42,-5 -90,18 -99,56z"/>
  <path class="fil0 str0" d="M13762 15912c-12,32 29,76 71,91 43,15 101,3 110,-23 12,-35 -53,-107 -119,-103 -22,1 -54,12 -62,35z"/>
  <path class="fil0 str0" d="M15008 14618c17,-24 -83,-134 -109,-120 -16,7 -13,55 11,87 31,40 89,47 98,33z"/>
  <path class="fil0 str0" d="M13883 12699c45,87 15,151 68,182 42,24 93,4 96,3 92,-38 134,-207 86,-337 -34,-94 -118,-171 -217,-193 -63,-14 -170,-14 -202,43 -20,35 -3,78 9,109 40,105 111,97 160,193z"/>
  <path class="fil0 str0" d="M15847 13273c35,-76 -7,-189 -62,-202 -37,-9 -53,35 -89,29 -81,-12 -73,-237 -166,-261 -55,-13 -107,49 -129,29 -17,-15 2,-68 24,-105 69,-113 196,-126 194,-190 0,-27 -24,-31 -23,-61 2,-58 87,-73 89,-117 2,-43 -72,-99 -152,-109 -132,-16 -192,108 -300,79 -77,-21 -110,-101 -146,-85 -31,13 -12,72 -54,102 -45,32 -107,-6 -122,17 -11,17 15,47 62,118 61,90 91,136 86,167 -11,70 -119,82 -116,137 2,49 90,61 92,117 1,35 -32,62 -57,82 -10,8 -95,76 -175,52 -96,-28 -84,-158 -161,-173 -65,-12 -154,66 -161,143 -3,32 10,44 65,141 87,151 92,184 140,208 54,27 69,-5 134,15 76,23 92,79 220,246 94,123 91,100 143,176 93,139 99,211 151,217 56,6 127,-67 137,-141 12,-84 -61,-147 -41,-166 24,-25 122,87 223,64 92,-20 173,-149 164,-257 -6,-82 -62,-125 -35,-190 17,-42 46,-38 65,-82z"/>
  <path class="fil0 str0" d="M14747 12584c-22,59 92,160 140,140 41,-17 64,-139 0,-178 -48,-29 -126,-3 -140,38z"/>
  <path class="fil0 str0" d="M15361 12157c-94,42 -142,38 -149,67 -5,23 19,50 42,62 57,29 128,-29 140,-38 57,-46 88,-123 71,-137 -10,-9 -33,15 -104,46z"/>
  <path class="fil0 str0" d="M15670 12778c-25,32 60,152 83,144 20,-8 14,-131 -42,-150 -12,-4 -33,-5 -41,6z"/>
  <path class="fil0 str0" d="M16913 12107c-39,-42 -110,19 -274,11 -191,-9 -223,-98 -364,-76 -120,18 -241,104 -244,187 -2,56 53,103 35,123 -18,21 -82,-29 -113,-6 -32,23 10,99 24,210 20,173 -57,198 -25,351 15,71 46,134 77,200 50,101 59,88 78,140 55,156 -29,281 29,322 27,19 67,7 89,0 113,-34 175,-182 173,-298 -1,-82 -35,-170 -41,-187 -29,-77 -53,-97 -41,-117 29,-53 202,52 351,-23 97,-49 137,-151 149,-181 41,-105 2,-147 13,-287 17,-222 131,-316 84,-369z"/>
  <path class="fil0 str2" d="M14829 14916c-93,-136 -257,-77 -351,-226 -34,-55 -54,-129 -95,-129 -28,0 -36,37 -68,41 -20,3 -59,-6 -131,-123 -52,-84 -96,-156 -119,-278 -25,-138 9,-165 4,-319 -6,-191 -59,-181 -92,-422 -29,-215 8,-258 -47,-415 -20,-59 -49,-111 -107,-214 -92,-166 -128,-190 -160,-191 -44,0 -52,45 -102,47 -80,4 -129,-112 -157,-100 -30,13 40,133 -7,269 -23,68 -54,80 -53,135 1,74 70,80 83,161 19,124 -66,177 -40,298 19,86 72,106 57,161 -18,66 -115,118 -155,94 -55,-33 38,-181 -26,-357 -8,-21 -22,-53 -27,-100 -8,-75 12,-122 18,-158 18,-108 -77,-240 -168,-307 -46,-35 -92,-53 -120,-41 -38,15 -46,82 -48,105 -12,116 70,195 47,216 -18,17 -64,-38 -143,-41 -103,-3 -181,87 -193,73 -13,-14 87,-89 71,-167 -5,-27 -22,-45 -89,-93 -147,-108 -220,-162 -262,-141 -50,25 -18,109 -77,146 -54,33 -150,7 -164,-36 -18,-54 111,-94 140,-213 20,-83 -10,-194 -80,-246 -32,-24 -101,-57 -661,178 -184,77 -326,143 -322,219 3,54 80,74 74,125 -7,62 -120,59 -217,158 -63,64 -122,174 -87,231 47,78 255,35 256,62 0,28 -134,45 -134,88 0,18 25,33 41,41 162,80 446,28 459,68 7,22 -70,66 -128,90 -63,26 -116,32 -203,38 -235,17 -269,5 -292,35 -46,57 18,191 83,272 124,153 348,233 545,214 111,-10 137,-45 238,-31 106,14 177,67 280,143 39,30 265,200 232,264 -16,29 -78,26 -126,23 -117,-6 -202,-52 -244,-73 -41,-22 -211,-110 -378,-150 -29,-7 -196,-46 -402,-7 -45,9 -93,18 -134,33 -46,16 -83,39 -95,75 -13,38 13,59 62,232 20,68 17,68 27,93 2,7 47,113 142,185 143,107 240,18 375,117 7,6 139,105 131,229 -6,91 -83,121 -75,184 7,51 67,100 268,159 286,84 618,181 887,30 67,-37 88,-66 167,-93 176,-59 299,5 361,-70 36,-44 4,-82 54,-146 28,-36 88,-90 137,-76 62,18 32,125 115,197 79,67 199,52 200,79 0,18 -56,21 -66,55 -8,30 22,72 57,91 74,42 137,-38 265,-40 135,-3 149,85 283,85 139,0 279,-95 280,-172 0,-41 -40,-52 -51,-126 -9,-61 14,-83 -5,-111 -26,-37 -99,-48 -149,-24 -75,35 -94,143 -102,140 -8,-3 42,-107 -2,-164 -14,-17 -27,-18 -39,-41 -17,-32 -20,-81 0,-93 40,-26 160,108 185,88 16,-14 -40,-75 -15,-129 17,-37 70,-64 113,-55 64,13 77,102 125,99 26,-1 30,-29 60,-32 49,-5 78,65 101,59 31,-9 62,-164 -15,-275z"/>
  <path class="fil0 str3" d="M13757 9049c30,-38 -36,-139 -87,-191 -12,-13 -35,-36 -64,-56 -33,-24 -75,-42 -118,-34 -49,8 -46,42 -116,85 -103,64 -192,42 -206,90 -7,20 3,47 19,58 26,18 52,-12 92,0 42,13 43,58 83,67 30,7 55,-11 72,-20 45,-24 96,-23 144,-15 82,13 156,47 181,16z"/>
  <path class="fil0 str4" d="M13328 11479c76,-17 95,-104 135,-97 41,6 36,98 84,109 42,10 67,-58 123,-54 47,3 52,53 111,82 75,36 190,13 218,-43 25,-48 -35,-85 -23,-168 10,-75 65,-81 103,-159 55,-112 31,-275 -63,-352 -38,-31 -113,-68 -162,-43 -36,18 -45,61 -72,59 -27,-3 -43,-49 -44,-51 -11,-33 8,-46 -3,-67 -28,-50 -108,-36 -120,-70 -14,-43 101,-84 100,-164 0,-46 -40,-49 -55,-109 -25,-96 58,-156 28,-199 -28,-40 -133,-37 -187,11 -44,41 -11,75 -64,149 -11,15 -22,27 -33,39 -22,22 -42,43 -62,85 -17,36 -15,50 -12,59 7,21 28,25 50,34 16,5 32,13 45,28 41,48 19,128 16,141 -16,59 -47,60 -48,97 -3,75 118,106 111,160 -8,56 -144,77 -155,78 -11,2 -22,3 -35,3 -70,4 -166,-7 -199,-66 -27,-48 15,-82 -16,-136 -34,-59 -108,-58 -111,-98 -2,-34 52,-48 48,-82 -4,-29 -46,-27 -84,-66 -54,-57 -17,-116 -63,-152 -51,-41 -129,3 -151,-32 -17,-28 30,-60 16,-101 -17,-51 -111,-70 -178,-59 -13,2 -89,14 -99,54 -10,38 43,70 31,90 -13,22 -77,-17 -143,8 -51,19 -98,75 -91,120 10,71 148,99 142,118 -6,23 -220,-43 -250,11 -14,26 14,81 56,102 63,30 130,-35 174,0 21,16 31,49 20,70 -7,14 -29,34 -210,31 -126,-2 -168,-12 -203,19 -23,21 -44,61 -32,90 25,56 153,16 195,82 28,46 -11,99 19,121 35,26 106,-30 127,-8 18,19 -24,67 -8,86 18,20 96,3 151,-46 75,-67 54,-146 120,-176 44,-20 102,-7 111,16 12,33 -86,69 -80,125 5,40 61,79 107,74 49,-5 61,-56 104,-54 36,1 40,40 83,58 80,35 182,-50 190,-38 6,8 -37,62 -111,97 -110,52 -162,2 -266,46 -71,31 -141,95 -155,176 -2,10 -15,82 27,121 28,25 64,24 120,23 239,-4 232,-1 238,-3 148,-49 162,-200 274,-199 17,1 30,4 41,8 22,9 39,19 70,12z"/>
  <path class="fil0 str0" d="M22533 25427c9,54 153,71 309,90 155,19 290,35 322,-23 33,-61 -55,-197 -171,-246 -201,-85 -474,100 -460,179z"/>
  <path class="fil0 str0" d="M23838 25897c43,-28 24,-138 -20,-152 -39,-12 -116,47 -103,101 12,48 89,74 123,51z"/>
  <path class="fil0 str0" d="M22606 23093c10,33 54,59 89,53 78,-14 109,-192 72,-214 -37,-22 -184,87 -161,161z"/>
  <path class="fil0 str0" d="M22802 23082c-64,150 -49,202 -39,225 10,21 28,46 42,44 27,-5 17,-106 54,-117 31,-10 68,54 92,44 27,-12 0,-102 27,-114 21,-9 46,39 68,32 36,-10 48,-157 -17,-275 -45,-81 -125,-146 -149,-132 -15,9 5,44 0,105 -4,66 -30,77 -78,188z"/>
  <path class="fil0 str0" d="M23109 23044c32,10 78,-18 90,-53 23,-67 -88,-153 -122,-137 -37,17 -28,171 32,190z"/>
  <path class="fil0 str0" d="M2386 22521c-74,-53 -73,-79 -151,-132 -58,-40 -112,-77 -145,-59 -42,23 -5,102 -66,205 -29,48 -40,37 -54,70 -44,107 82,206 41,281 -22,41 -81,15 -101,53 -25,48 54,99 71,216 8,54 -8,53 -12,147 -6,112 15,132 23,263 10,166 -17,233 18,252 45,24 142,-24 149,-76 7,-61 -114,-100 -103,-171 4,-21 18,-45 33,-46 21,-1 30,41 51,41 26,1 64,-63 47,-109 -15,-43 -67,-40 -80,-85 -6,-24 0,-55 18,-68 26,-17 57,18 85,5 39,-18 54,-118 11,-173 -38,-48 -96,-31 -107,-61 -16,-44 89,-107 243,-246 171,-153 176,-194 168,-217 -11,-36 -51,-27 -139,-90z"/>
  <path class="fil0 str0" d="M3040 22900c-13,-27 -86,-43 -118,-2 -27,37 -4,95 24,104 39,12 110,-68 94,-102z"/>
  <path class="fil0 str0" d="M2859 23212c-5,0 -35,-4 -49,12 -22,25 9,82 15,92 28,52 54,45 70,81 27,63 -35,125 -8,152 16,15 50,11 72,-3 54,-34 40,-137 25,-189 -16,-54 -59,-136 -125,-145z"/>
  <path class="fil0 str0" d="M3014 23879c-11,7 -6,26 -2,84 6,82 0,101 18,115 17,14 48,15 67,2 42,-29 30,-133 -23,-180 -16,-14 -45,-30 -60,-21z"/>
  <path class="fil0 str0" d="M3182 24131c-39,-4 -74,52 -79,97 -1,5 -7,59 18,71 33,15 125,-49 115,-111 -4,-27 -27,-55 -54,-57z"/>
  <path class="fil0 str0" d="M2117 23891c-17,0 -38,31 -32,61 7,39 58,55 71,45 20,-16 -12,-105 -39,-106z"/>
  <path class="fil0 str0" d="M3213 24704c34,1 65,-68 68,-122 1,-19 4,-59 -16,-69 -27,-13 -101,36 -105,100 -3,42 26,91 53,91z"/>
  <path class="fil0 str0" d="M3116 24810c-34,14 -40,66 -32,99 5,21 21,59 42,59 35,0 84,-111 47,-149 -13,-14 -39,-17 -57,-9z"/>
  <path class="fil0 str0" d="M4240 27379c-12,-30 14,-48 3,-79 -7,-22 -23,-22 -38,-44 -23,-33 -13,-70 -12,-97 2,-55 -39,-100 -122,-187 -120,-127 -163,-120 -190,-188 -26,-65 -1,-106 12,-202 3,-18 34,-264 -68,-442 -20,-36 -19,-22 -327,-272 -171,-140 -212,-177 -255,-244 -55,-82 -50,-114 -110,-173 -15,-14 -134,-127 -271,-105 -23,3 -74,11 -93,49 -16,34 -1,81 27,109 47,45 107,10 161,58 27,25 42,62 32,74 -15,18 -81,-39 -128,-15 -35,18 -44,72 -41,108 7,100 120,167 145,182 57,33 119,50 116,61 -2,9 -37,-1 -62,21 -18,15 -27,42 -21,64 9,39 57,40 116,79 9,7 115,79 113,155 -3,75 -106,83 -114,155 -5,45 31,62 184,241 85,98 97,119 104,146 21,74 -3,128 36,158 17,14 26,6 95,21 66,14 106,22 113,44 8,26 -39,44 -57,82 -50,109 180,311 253,375 122,107 340,271 393,226 36,-31 -44,-129 12,-229 14,-25 43,-60 30,-90 -9,-20 -27,-19 -36,-41z"/>
  <path class="fil0 str0" d="M3122 26338c31,-8 46,-58 33,-93 -16,-44 -74,-70 -101,-53 -28,17 -24,84 9,120 3,3 31,34 59,26z"/>
  <path class="fil0 str5" d="M23924 26065c-31,37 -47,104 -57,146 -28,119 5,176 -32,201 -49,33 -123,-52 -220,-16 -43,16 -61,44 -82,35 -29,-13 -18,-80 -22,-123 -11,-119 -153,-194 -295,-274 -338,-191 -510,-289 -648,-451 -61,-71 -116,-135 -155,-238 -76,-202 -9,-328 -116,-512 -49,-84 -62,-54 -113,-140 -130,-218 -27,-366 -144,-486 -70,-72 -170,-85 -262,-96 -81,-11 -164,5 -328,36 -362,69 -403,78 -478,70 -116,-14 -109,-45 -296,-106 -281,-92 -354,-40 -573,-112 -164,-55 -118,-82 -435,-253 -206,-111 -339,-182 -503,-226 -28,-8 -56,-15 -86,-21 -166,-33 -185,-6 -403,-53 -160,-34 -207,-61 -286,-36 -102,34 -107,106 -254,181 -59,30 -160,82 -211,45 -47,-35 -2,-114 -15,-246 -14,-145 -87,-250 -190,-398 -118,-170 -178,-184 -192,-291 -10,-76 13,-130 -30,-187 -44,-61 -124,-74 -142,-77 -143,-22 -198,88 -290,58 -99,-31 -136,-187 -143,-265 -9,-104 31,-104 32,-226 2,-174 -78,-205 -53,-350 13,-72 37,-91 34,-164 0,-8 -1,-15 -2,-22 -8,-70 -42,-91 -53,-151 -26,-148 147,-193 191,-412 28,-137 -28,-181 29,-265 56,-84 142,-82 167,-162 21,-70 -38,-99 -42,-173 -10,-208 432,-343 400,-487 -13,-61 -100,-83 -89,-117 9,-29 71,-25 185,-41 156,-22 234,-32 272,-82 50,-65 33,-187 -26,-255 -59,-70 -117,-31 -252,-127 -50,-37 -73,-64 -119,-65 -59,-1 -82,46 -131,39 -52,-8 -49,-64 -105,-106 -110,-83 -271,25 -335,-53 -18,-22 -27,-56 -14,-74 18,-25 74,-13 99,-8 194,42 290,63 379,93 174,57 327,108 475,51 78,-30 183,-101 183,-181 0,-60 -60,-98 -42,-133 15,-28 68,-27 131,-27 190,1 284,1 320,-17 75,-37 64,-117 130,-376 78,-310 153,-428 94,-482 -13,-11 -27,-16 -209,-6 -206,11 -227,19 -292,9 -46,-7 -139,-27 -232,-92 -27,-19 -164,-116 -140,-189 13,-41 71,-65 119,-68 118,-10 155,103 341,187 75,35 163,74 270,54 108,-22 210,-101 250,-199 32,-76 -5,-88 27,-220 27,-117 70,-170 42,-207 -20,-25 -47,-9 -123,-41 -17,-7 -113,-47 -109,-86 1,-12 11,-25 53,-43 45,-19 154,-65 280,-19 81,29 78,63 183,100 26,9 124,43 151,10 20,-26 -12,-75 4,-84 18,-12 65,58 105,47 22,-7 37,-37 40,-63 8,-97 -171,-144 -161,-236 3,-28 23,-59 48,-64 71,-14 139,198 214,185 31,-5 22,-41 80,-101 70,-74 131,-70 149,-128 10,-34 -9,-38 0,-88 7,-40 23,-66 60,-121 72,-110 75,-110 83,-125 56,-101 -5,-236 -27,-287 -84,-187 -250,-273 -404,-492 -12,-16 -51,-73 -32,-99 20,-29 84,11 131,-20 59,-38 68,-170 10,-228 -42,-42 -104,-29 -113,-63 -7,-29 41,-44 56,-99 14,-49 0,-119 -43,-148 -60,-41 -152,13 -179,-28 -8,-13 0,-20 -10,-33 -25,-33 -91,9 -141,-18 -58,-31 -34,-122 -83,-142 -36,-15 -77,22 -117,46 -196,119 -442,-28 -492,58 -6,10 -3,13 25,150 33,157 30,160 41,178 58,93 170,101 167,154 -2,32 -44,40 -44,80 0,40 43,58 36,80 -9,30 -86,5 -127,39 -61,50 13,176 11,400 0,19 -2,205 -46,212 -46,8 -94,-185 -145,-177 -29,4 -56,78 -40,140 21,78 93,74 139,166 35,69 39,162 0,191 -24,18 -45,1 -64,20 -32,32 22,96 -10,158 -13,24 -41,51 -68,48 -44,-3 -55,-85 -97,-171 -90,-186 -221,-172 -283,-348 -23,-64 -36,-154 2,-182 30,-21 75,5 100,-21 8,-8 24,-32 0,-101 -38,-109 -249,-554 -434,-506 -104,26 -184,203 -142,286 17,32 51,51 50,90 -1,36 -31,52 -56,86 -66,93 -15,222 -26,224 -10,2 -50,-108 -79,-258 -28,-144 -16,-175 -55,-228 -55,-74 -126,-78 -129,-131 -3,-60 86,-101 70,-138 -9,-21 -44,-25 -54,-26 -79,-8 -134,70 -157,55 -19,-14 22,-70 -6,-111 -18,-28 -62,-43 -93,-32 -40,15 -34,65 -67,74 -36,11 -101,-33 -109,-84 -15,-82 118,-161 93,-201 -9,-14 -28,-7 -49,-31 -19,-21 -31,-56 -18,-70 23,-26 106,47 153,18 37,-24 41,-103 8,-151 -26,-36 -60,-32 -121,-58 -100,-43 -170,-123 -204,-186 -32,-58 -12,-63 -50,-209 -14,-57 -35,-134 -75,-218 -57,-123 -91,-194 -172,-237 -121,-63 -251,-13 -286,2 -30,13 -143,61 -147,136 -4,75 104,123 85,164 -15,32 -91,29 -97,29 -50,-2 -62,-24 -86,-20 -77,14 -152,275 -52,381 34,35 75,41 99,96 21,48 13,97 10,111 -10,50 -32,64 -44,101 -19,59 6,115 34,174 64,138 215,336 345,312 29,-5 38,-18 69,-15 76,7 88,94 153,102 68,8 114,-80 149,-61 26,15 17,71 16,82 -6,40 -31,94 -64,96 -29,2 -40,-39 -68,-37 -31,2 -67,55 -63,103 6,78 112,75 174,182 45,76 49,178 12,249 -22,41 -36,33 -86,90 -102,117 -83,195 -157,228 -59,26 -87,-16 -143,12 -95,46 -100,208 -100,216 -3,179 138,293 101,332 -22,22 -82,-2 -111,-14 -20,-8 -105,-46 -129,-121 -16,-52 10,-75 46,-199 33,-114 60,-214 12,-264 -19,-20 -53,-35 -77,-25 -33,14 -31,69 -52,72 -18,2 -35,-36 -47,-59 -54,-95 -167,-154 -256,-164 -24,-2 -122,-13 -173,49 -48,57 -25,139 -12,183 16,58 64,162 133,166 46,3 62,-42 101,-35 57,11 104,122 69,164 -29,35 -112,22 -167,-8 -90,-49 -88,-138 -178,-164 -34,-10 -70,-8 -76,4 -7,17 58,44 58,86 0,36 -50,63 -60,68 -105,56 -200,-47 -373,-57 -196,-12 -219,112 -397,83 -142,-24 -262,-125 -286,-145 -98,-83 -109,-141 -184,-153 -89,-13 -167,54 -213,14 -12,-11 -6,-16 -23,-45 -23,-37 -44,-48 -117,-106 -70,-55 -84,-72 -85,-93 -2,-24 12,-28 18,-57 8,-41 -13,-68 -60,-158 -50,-97 -47,-109 -69,-121 -42,-23 -92,0 -159,27 -204,81 -190,43 -392,134 -169,75 -190,107 -197,136 -16,72 54,138 59,143 50,45 135,72 178,41 41,-31 17,-98 55,-113 37,-16 79,42 121,22 25,-12 26,-41 50,-43 21,-3 30,20 50,19 25,-1 32,-40 54,-64 72,-79 115,-125 155,-117 50,11 87,105 59,141 -20,26 -62,1 -125,17 -85,22 -84,87 -179,164 -113,91 -175,48 -265,145 -25,27 -73,80 -72,150 1,49 25,55 45,128 24,91 -7,104 14,188 25,94 79,133 59,161 -20,29 -83,-7 -125,29 -45,39 -23,131 -30,131 -4,1 -2,-48 -23,-99 -30,-71 -75,-69 -84,-111 -17,-81 136,-137 120,-217 -9,-44 -60,-37 -104,-117 -29,-52 -29,-94 -51,-97 -28,-3 -52,72 -71,68 -24,-6 13,-126 -42,-170 -40,-33 -92,10 -133,-24 -51,-40 -11,-129 -57,-158 -31,-20 -80,4 -95,12 -102,48 -227,41 -477,28 -200,-10 -333,-65 -556,-147 -144,-53 -225,-96 -229,-156 -5,-64 83,-122 98,-131 110,-71 190,-17 242,-70 74,-76 10,-290 -113,-410 -29,-28 -110,-108 -217,-106 -84,2 -95,53 -173,56 -108,4 -240,-86 -286,-200 -34,-85 -14,-171 -85,-222 -17,-12 -32,-17 -42,-21 -120,-43 -266,-156 -351,-267 -65,-84 -61,-124 -83,-171 -10,-19 -24,-40 -51,-66 -63,-62 -131,-89 -241,-132 -125,-50 -188,-74 -235,-47 -72,42 -29,153 -104,196 -60,34 -161,7 -191,-47 -10,-20 -17,-51 -3,-68 20,-22 58,5 96,-17 28,-16 47,-56 41,-88 -10,-55 -87,-56 -95,-105 -6,-41 43,-56 45,-114 1,-35 -14,-80 -41,-88 -44,-13 -133,67 -150,155 -5,29 -1,53 -21,70 -26,22 -56,0 -92,14 -66,26 -50,134 -92,143 -38,9 -100,-65 -125,-146 -22,-70 -8,-118 6,-211 14,-95 36,-251 4,-406 -17,-82 -61,-220 -113,-220 -29,0 -60,42 -66,82 -11,75 72,127 54,155 -18,28 -94,-28 -173,5 -63,27 -58,80 -140,114 -16,7 -68,28 -99,6 -20,-15 -13,-36 -26,-56 -44,-64 -226,-15 -238,-12 -144,40 -159,101 -245,91 -60,-8 -78,-41 -149,-39 -50,2 -63,19 -119,35 -145,42 -236,-25 -274,23 -31,40 9,110 -18,123 -13,6 -25,-8 -59,-23 -72,-33 -113,-14 -122,-33 -16,-32 80,-128 202,-181 91,-39 174,-45 242,-49 61,-4 65,1 229,3 102,1 153,2 185,-3 121,-16 123,-48 232,-58 92,-8 134,11 161,-20 27,-31 22,-91 -6,-111 -23,-17 -46,8 -101,6 -75,-4 -85,-52 -140,-48 -66,6 -75,77 -140,79 -47,2 -52,-34 -113,-44 -66,-11 -80,27 -158,29 -89,3 -98,-45 -176,-38 -72,7 -76,50 -158,64 -89,16 -178,-19 -178,-41 -1,-13 29,-13 56,-41 39,-40 52,-117 18,-155 -23,-26 -60,-26 -101,-27 -73,0 -81,25 -158,32 -87,9 -108,-20 -160,6 -36,17 -41,38 -72,41 -45,3 -61,-40 -95,-36 -39,6 -71,70 -75,126 -6,93 65,161 50,173 -7,6 -33,-6 -74,-41 -85,-73 -79,-154 -120,-240 -9,-18 -19,-35 -32,-52 -81,-109 -134,-93 -175,-173 -37,-72 -35,-62 -59,-218 -28,-189 -46,-293 -124,-342 -44,-28 -79,-20 -128,-65 -42,-37 -61,-83 -72,-117l-3832 4980 -4 105c90,152 190,222 266,258 90,43 197,61 198,106 1,9 -4,17 -11,24 -19,19 -56,35 -72,77 -20,54 18,91 43,172 42,134 -24,153 4,351 14,106 37,125 23,191 -13,61 -41,89 -36,156 2,23 5,78 44,106 28,21 59,14 115,12 134,-6 134,25 202,12 96,-19 91,-79 219,-133 54,-23 115,-48 186,-34 110,20 209,124 210,222 2,74 -52,90 -51,184 0,64 26,67 43,152 25,124 -23,151 4,253 23,93 67,92 91,176 26,95 -15,154 -41,261 -31,130 5,136 23,500 10,196 15,295 4,363 -38,230 -134,290 -96,425 28,101 81,68 170,234 71,132 54,183 143,324 49,79 66,82 71,121 12,97 -82,123 -144,293 -30,85 -22,120 -67,179 -42,54 -92,82 -120,98 -123,67 -206,38 -242,101 -20,33 -17,79 0,89 29,17 87,-81 175,-74 33,3 67,20 67,36 0,22 -75,22 -151,62 -84,44 -181,142 -179,245 2,96 86,124 67,196 -18,67 -99,61 -135,144 -19,44 -1,57 4,171 6,160 -27,234 15,262 31,20 60,-11 99,12 56,31 56,126 56,144 0,119 -76,143 -64,234 8,65 57,132 115,145 56,13 111,-28 119,-16 7,13 -57,43 -56,90 1,41 52,52 51,90 0,49 -90,73 -83,101 6,24 71,7 119,51 29,27 50,74 39,113 -11,47 -56,46 -99,101 -30,39 -19,52 -52,153 -41,126 -83,177 -60,202 22,24 77,-3 88,16 10,20 -42,58 -80,109 -43,58 -81,153 -68,222 33,171 382,215 373,333 -2,27 -22,34 -20,70 2,57 52,94 107,141 134,113 91,103 198,187 88,69 151,118 250,157 108,42 151,29 167,62 39,87 -223,228 -188,339 28,88 210,64 246,173 26,76 -51,129 -16,191 40,71 162,33 202,109 13,24 9,67 0,152 -5,50 -11,90 -16,117l139 110c1336,466 2504,792 3429,1020 151,37 299,73 444,107 677,158 1284,279 1814,373 1244,218 2068,281 2406,304 108,7 197,13 258,16l1585 -6 2731 -10c5,1 10,3 16,4 73,19 179,51 301,102 210,87 224,128 337,145 207,30 254,-93 421,-42 134,40 157,135 294,140 88,4 100,-34 183,-23 132,19 157,125 242,114 89,-12 104,-139 194,-144 50,-3 68,34 127,66 95,52 201,33 409,-7 205,-39 307,-59 350,-132 46,-79 6,-162 60,-195 58,-35 140,41 179,8 46,-40 -40,-188 -4,-210 24,-15 61,50 127,51 84,1 103,-105 219,-164 82,-42 103,-3 262,-31 198,-34 216,-104 306,-85 105,22 99,124 265,293 100,102 210,214 341,207 132,-6 208,-126 262,-93 41,26 -4,93 40,180 56,111 179,91 214,191 26,74 -30,117 8,172 40,59 120,32 150,86 37,65 -53,151 -20,191 34,41 132,-39 218,4 93,46 74,181 147,196 41,8 55,-34 139,-66 83,-33 117,-10 226,-23 130,-17 123,-55 243,-74 122,-20 136,18 305,16 185,-2 279,-48 290,-23 12,27 -79,126 -194,144 -98,16 -174,-33 -235,15 -27,22 -16,35 -43,55 -62,44 -129,-14 -223,11 -75,20 -137,85 -127,113 9,26 80,24 194,20 97,-3 166,-12 191,-15 276,-33 374,68 449,0 77,-69 -8,-189 84,-296 71,-83 189,-89 206,-89 146,-6 195,100 472,301 193,139 334,206 317,270 -13,51 -118,52 -123,101 -5,60 151,102 143,152 -6,37 -98,52 -116,55 -125,19 -324,-1 -495,-142 -124,-102 -160,-205 -238,-195 -36,4 -78,32 -88,70 -26,102 212,163 242,340 17,100 -55,109 -84,281 -25,149 7,278 43,421 49,198 89,211 71,289 -31,129 -150,119 -231,288 -18,37 -89,187 -28,308 41,83 124,114 111,153 -10,30 -61,19 -135,58 -68,36 -146,109 -132,156 13,43 103,61 167,59 178,-6 309,-165 386,-261 191,-240 156,-381 302,-440 117,-48 171,29 302,-31 117,-54 96,-124 238,-226 74,-52 151,-82 306,-140 168,-63 228,-68 247,-121 23,-64 -27,-165 -99,-191 -111,-39 -222,117 -294,74 -53,-32 -38,-140 -35,-160 5,-46 29,-146 202,-293 108,-90 126,-75 374,-229 213,-133 218,-155 306,-179 128,-35 196,-9 262,-70 66,-61 25,-112 88,-207 67,-101 133,-72 282,-206 64,-57 121,-109 152,-195 27,-77 7,-106 28,-183 8,-30 33,-110 163,-230 70,-65 141,-115 208,-155 68,-40 131,-70 185,-94 283,-128 508,-210 529,-218 388,-140 677,-221 683,-354 2,-37 -19,-85 12,-132 26,-39 59,-34 115,-70 62,-40 132,-115 136,-195 3,-59 -31,-74 -52,-141 -33,-111 23,-195 49,-288 42,-150 -38,-165 -87,-512 0,0 -32,-223 33,-565 8,-43 23,-116 71,-133 41,-14 79,22 121,53 32,24 66,46 105,41 113,-13 107,-217 235,-257 146,-45 329,161 349,184 22,25 49,60 139,254 150,323 153,394 245,445 87,48 135,12 211,78 81,72 78,160 142,172 44,9 60,-29 143,-54 81,-24 126,4 179,-11 72,-21 156,-66 310,-261 53,-67 123,-164 247,-378 26,-45 84,-187 134,-274 7,-16 17,-30 28,-42 6,-46 22,-114 64,-186 36,-63 81,-109 119,-140 -19,1 -30,-1 -32,-6 -5,-11 46,-32 42,-54 -5,-24 -68,-35 -117,-37 -161,-7 -195,79 -279,56 -96,-27 -91,-153 -227,-198 -35,-11 -38,-4 -68,-17 -100,-44 -105,-148 -163,-143 -59,5 -98,82 -127,68 -19,-9 -19,-52 -13,-78 10,-50 42,-60 53,-97 14,-48 -24,-87 -47,-133 -76,-150 31,-312 -7,-330 -33,-15 -127,94 -215,197 -84,97 -125,160 -181,156 -37,-4 -41,-32 -83,-53 -123,-61 -282,86 -312,52 -7,-8 -7,-26 0,-49 17,-48 65,-118 137,-158 97,-53 154,-7 266,-68 75,-40 117,-97 139,-128 57,-77 70,-144 96,-275 38,-189 1,-218 -7,-224 -23,-16 -53,-9 -70,-34 -16,-24 1,-47 -6,-66 -18,-50 -196,-55 -393,-2 -163,43 -292,115 -399,188 -257,177 -404,380 -505,524 -121,171 -55,120 -283,495 -176,290 -244,367 -247,517 -2,63 9,140 -18,259 -23,101 -44,104 -74,213 -44,157 -10,186 -52,325 -33,110 -100,243 -142,236 -22,-4 -35,-46 -35,-78 -1,-62 50,-72 73,-140 30,-84 -29,-122 -3,-229 11,-47 24,-42 48,-103 38,-96 37,-183 34,-291 -4,-151 -30,-174 0,-232 26,-49 64,-68 66,-121 2,-45 -26,-52 -30,-99 -6,-75 62,-96 74,-176 13,-81 -52,-97 -49,-177 2,-83 72,-95 173,-238 95,-134 60,-163 145,-253 90,-96 148,-84 185,-164 31,-66 9,-115 -5,-234 -8,-65 -29,-235 0,-351 39,-152 172,-236 410,-386 239,-150 309,-127 469,-274 71,-66 97,-108 177,-142 130,-56 228,-15 296,-89 42,-47 12,-72 51,-135 45,-72 112,-84 366,-175 177,-63 207,-79 240,-103 90,-64 78,-96 171,-187 160,-156 273,-137 340,-265 22,-41 13,-49 32,-198 51,-397 122,-412 101,-595 -5,-45 -17,-104 8,-176 20,-61 49,-79 99,-150 95,-133 60,-158 130,-240 24,-27 46,-45 67,-59 62,-40 114,-39 158,-110 41,-67 4,-83 34,-246 32,-180 101,-298 46,-353 -12,-11 -29,-20 -46,-47 -21,-35 -13,-56 -27,-91 -14,-34 -47,-81 -92,-92 -56,-14 -80,41 -138,29 -49,-11 -88,-62 -92,-108 -2,-33 15,-42 20,-72 15,-86 -100,-185 -190,-230 -85,-43 -160,-45 -240,-47 -122,-4 -243,-7 -300,65 -60,78 -9,194 -52,209 -22,8 -58,-18 -73,-47 -28,-52 20,-93 4,-142 -22,-68 -143,-96 -228,-92 -146,6 -277,110 -264,155 6,23 46,15 59,43 23,51 -102,104 -145,230 -38,110 29,152 -19,267 -28,68 -51,52 -99,137 -78,137 -63,256 -118,267 -15,3 -34,-3 -43,-14 -23,-25 11,-67 8,-127 -3,-61 -41,-74 -58,-130 -20,-70 13,-135 47,-199 96,-189 214,-185 240,-324 12,-59 -5,-86 20,-156 19,-50 44,-82 90,-140 93,-117 148,-145 139,-193 -6,-31 -35,-56 -61,-65 -53,-17 -80,32 -151,33 -86,2 -118,-69 -161,-51 -55,24 -10,145 -78,193 -52,38 -146,15 -200,-14 -67,-34 -104,-93 -137,-80 -18,8 -14,28 -34,35 -38,15 -85,-47 -103,-35 -20,13 25,97 2,113 -16,11 -48,-24 -79,-10 -20,9 -17,26 -34,33 -30,12 -55,-31 -92,-37 -80,-12 -155,171 -193,158 -19,-7 -2,-55 -23,-127 -25,-86 -92,-168 -137,-160 -38,7 -37,75 -78,82 -44,7 -65,-78 -120,-83 -78,-6 -127,155 -185,145 -52,-10 -40,-147 -107,-168 -64,-20 -143,80 -169,60 -15,-13 15,-47 2,-80 -30,-79 -265,-49 -270,-83 -2,-16 57,-19 98,-68 58,-69 35,-181 6,-244 -14,-29 -41,-88 -87,-93 -47,-6 -75,48 -107,37 -38,-14 -20,-94 -58,-110 -43,-18 -103,67 -133,51 -24,-14 12,-71 -10,-135 -26,-76 -117,-108 -228,-147 -53,-18 -91,-24 -129,-13 -34,9 -35,21 -53,21 -74,-2 -92,-219 -167,-227 -54,-5 -101,102 -125,90 -14,-7 6,-46 -6,-102 -9,-48 -42,-108 -95,-130 -61,-27 -89,24 -151,3 -83,-29 -84,-142 -154,-148 -36,-3 -50,25 -84,15 -36,-11 -38,-48 -73,-80 -38,-35 -74,-25 -139,-39 -151,-34 -261,-158 -291,-194 -29,-34 -36,-52 -70,-78 -8,-6 -17,-12 -26,-18 -62,-37 -133,-50 -148,-29 -12,17 24,38 41,101 24,86 -22,116 2,205 15,54 34,53 37,96 6,73 -49,94 -40,144 13,71 127,65 149,143 16,57 -40,81 -24,150 15,64 71,70 75,127 4,50 -38,57 -49,119 -19,97 63,184 45,197 -8,5 -22,-12 -58,-22 -27,-7 -64,-8 -83,0 -58,27 -5,166 -52,338 -29,106 -93,208 -138,202 -35,-4 -32,-70 -83,-88 -54,-19 -86,47 -159,49 -101,2 -122,-124 -240,-137 -85,-9 -162,49 -184,66 -90,68 -111,161 -146,154 -16,-3 -26,-26 -35,-66 -45,-180 8,-274 -43,-322 -42,-40 -91,11 -147,-28 -89,-61 -18,-221 -109,-285 -55,-38 -128,-13 -141,-49 -9,-26 26,-40 32,-82 8,-61 -60,-90 -127,-199 -27,-44 -58,-95 -67,-164 -15,-109 35,-169 0,-201 -26,-24 -84,-18 -119,8 -67,49 -47,164 -76,167 -22,3 -29,-69 -79,-88 -41,-15 -83,18 -127,41 -118,63 -293,82 -381,21 -85,-58 -30,-148 -115,-205 -102,-69 -231,30 -325,-51 -44,-38 -33,-74 -84,-102 -54,-30 -84,1 -176,-6 -138,-10 -196,-89 -258,-53 -8,4 -13,9 -46,62 -90,145 -103,186 -139,191 -43,6 -58,-45 -103,-39 -48,7 -55,68 -102,109 -52,45 -115,32 -276,21 -212,-14 -320,-21 -397,17 -111,54 -157,157 -163,171 -73,171 13,392 140,447 72,32 153,9 169,49 10,26 -21,44 -36,94 -27,86 37,125 45,242 9,122 -53,167 -18,211 44,54 155,-2 204,60 27,34 2,57 20,117 27,91 98,87 172,192 28,38 88,123 70,213 -16,74 -70,76 -84,152 -16,86 52,106 45,195 -7,86 -72,93 -127,238 -22,57 -34,88 -28,130 12,95 100,168 182,196 62,20 106,10 155,8 140,-5 246,65 391,160 293,194 435,464 465,524 56,109 150,332 146,624 0,72 -17,705 -448,1008 -147,104 -289,131 -304,246 -20,146 184,319 206,337 95,80 155,86 200,172 41,81 6,110 55,194 54,92 115,88 139,170 20,70 -16,102 16,144 36,49 100,22 140,70 34,41 6,80 18,147 25,136 173,135 200,250 29,124 -125,195 -84,310 25,68 86,62 133,158 36,74 44,168 13,184 -46,24 -148,-164 -235,-139 -15,4 -27,13 -37,25z"/>
  <path class="fil0 str0" d="M32827 25717c-13,-21 -117,12 -226,70 -199,107 -215,196 -387,263 -61,23 -182,70 -257,17 -37,-27 -32,-56 -101,-129 -44,-47 -86,-91 -130,-82 -38,7 -59,49 -66,64 -45,91 -4,228 71,258 48,18 90,-16 137,17 27,20 21,37 48,53 40,24 76,-3 136,0 76,5 76,52 137,59 108,12 148,-131 292,-140 52,-3 59,15 119,6 15,-2 137,-19 162,-87 19,-56 -48,-84 -48,-164 0,-112 130,-180 113,-205z"/>
  <path class="fil0 str0" d="M33811 25338c-43,-28 -101,-16 -203,6 -91,19 -120,40 -143,23 -33,-26 13,-84 -11,-170 -31,-106 -142,-156 -161,-164 -48,-22 -103,-46 -137,-24 -59,39 25,164 18,398 -6,171 -54,229 -7,340 6,15 39,89 119,146 18,14 151,107 279,59 34,-12 63,-39 120,-93 63,-59 113,-107 149,-187 13,-28 36,-81 36,-152 0,-44 1,-142 -59,-182z"/>
  <path class="fil0 str0" d="M33593 26276c-3,-13 -13,-72 -60,-113 -87,-76 -200,-1 -353,-77 -66,-33 -74,-61 -107,-55 -82,17 -60,198 -179,267 -56,33 -70,-1 -189,19 -135,24 -153,75 -346,134 -66,21 -118,32 -150,35 -38,31 -83,77 -119,140 -42,72 -58,140 -64,186 20,-21 39,-33 39,-31 12,6 -94,205 -70,249 21,38 69,64 111,59 67,-8 85,-89 148,-164 134,-160 378,-178 389,-155 8,19 -139,55 -187,187 -25,68 -15,140 -52,152 -23,8 -38,-16 -64,-20 -82,-10 -178,222 -266,441 -155,382 -167,421 -160,495 19,201 153,380 218,367 33,-6 36,-59 75,-62 53,-5 70,88 143,102 53,9 117,-27 139,-74 24,-51 -16,-83 -3,-145 15,-74 82,-77 143,-152 87,-107 92,-279 60,-394 -25,-92 -81,-172 -47,-207 19,-19 50,-7 67,-31 26,-35 -23,-92 -3,-113 19,-21 76,26 126,28 130,5 169,-291 371,-565 195,-266 417,-341 390,-503z"/>
  <path class="fil0 str0" d="M31794 24038c-17,-46 -161,-34 -278,-24 -177,14 -277,48 -508,108 -300,78 -432,98 -429,124 1,20 81,17 262,55 196,42 194,65 285,71 165,11 294,-55 398,-109 99,-50 291,-168 270,-225z"/>
  <path class="fil0 str0" d="M36013 22486c-99,-138 -208,-289 -241,-273 -35,18 54,215 15,234 -27,14 -104,-65 -155,-143 -86,-135 -83,-250 -106,-249 -25,1 -59,129 -40,266 22,147 92,216 66,240 -29,27 -152,-20 -191,-105 -21,-47 6,-67 -9,-161 -15,-98 -35,-111 -44,-185 -16,-137 42,-208 9,-231 -31,-22 -120,18 -161,85 -46,76 -14,164 -41,172 -23,7 -38,-53 -101,-79 -72,-29 -122,19 -161,-12 -16,-12 -25,-32 -24,-152 2,-152 18,-196 -9,-217 -24,-19 -65,-3 -163,38 -192,80 -287,120 -304,137 -131,128 -103,334 -159,330 -37,-2 -43,-82 -98,-93 -90,-19 -199,166 -232,146 -12,-8 2,-31 -15,-50 -31,-35 -110,5 -125,-18 -10,-16 25,-42 48,-96 29,-70 24,-157 -3,-167 -22,-9 -38,38 -104,76 -89,49 -140,11 -185,55 -38,37 -36,98 -33,187 3,104 31,170 8,182 -16,9 -48,-19 -53,-24 -87,-76 -37,-184 -86,-369 -40,-151 -97,-169 -77,-254 14,-58 51,-99 36,-167 -7,-31 -15,-27 -39,-82 -39,-94 -18,-117 -53,-164 -36,-49 -73,-44 -80,-79 -9,-46 54,-67 48,-117 -12,-88 -127,-136 -149,-117 -19,16 32,85 6,111 -17,16 -46,-3 -78,0 -87,7 -175,179 -179,350 -3,117 36,114 71,317 30,175 1,179 35,336 34,156 62,150 80,287 16,116 1,161 45,214 44,54 103,61 119,123 6,27 1,51 -7,85 -19,84 -57,102 -48,131 19,60 188,40 197,83 8,38 -129,73 -128,137 0,36 44,41 83,91 84,108 10,259 62,284 41,19 105,-67 131,-50 21,14 -2,84 -66,249 -82,212 -100,241 -90,295 18,97 110,196 202,199 92,4 129,-88 290,-248 75,-74 223,-221 429,-333 188,-101 357,-137 370,-245 5,-42 -18,-66 0,-117 28,-82 129,-139 164,-117 42,27 -10,175 5,179 11,3 20,-70 75,-100 50,-26 87,10 137,-20 33,-19 61,-59 54,-93 -10,-47 -81,-59 -77,-85 2,-17 32,-21 71,-35 105,-37 155,-95 164,-85 10,10 -62,54 -78,135 -19,105 82,154 56,243 -18,66 -83,60 -113,146 -18,52 -20,126 15,146 38,22 107,-32 137,-55 38,-30 116,-92 131,-187 21,-133 -101,-210 -56,-296 22,-42 55,-32 84,-85 6,-12 29,-57 12,-172 -21,-142 -71,-185 -44,-220 28,-37 114,-29 172,0 58,30 85,79 113,132 135,254 171,359 202,355 31,-5 40,-113 42,-132 9,-108 -23,-183 -12,-187 11,-4 34,51 84,120 58,80 102,141 154,143 76,4 166,-111 176,-225 4,-46 -4,-102 -181,-348z"/>
  <path class="fil0 str0" d="M33078 23733c40,23 162,-63 146,-125 -10,-38 -71,-68 -113,-53 -68,24 -70,158 -33,178z"/>
  <circle class="fil1" cx="25289" cy="31541" r="191"/>
 </g>
</svg>
