<?xml version="1.0" encoding="UTF-8"?>
<!DOCTYPE svg PUBLIC "-//W3C//DTD SVG 1.1//EN" "http://www.w3.org/Graphics/SVG/1.1/DTD/svg11.dtd">
<!-- Creator: CorelDRAW X8 -->
<svg xmlns="http://www.w3.org/2000/svg" xml:space="preserve" width="220.133mm" height="220.133mm" version="1.1" style="shape-rendering:geometricPrecision; text-rendering:geometricPrecision; image-rendering:optimizeQuality; fill-rule:evenodd; clip-rule:evenodd"
viewBox="0 0 22013 22013"
 xmlns:xlink="http://www.w3.org/1999/xlink">
 <defs>
  <style type="text/css">
   <![CDATA[
    .str0 {stroke:#DADADA;stroke-width:380.99}
    .fil1 {fill:none}
    .fil0 {fill:#DADADA;fill-rule:nonzero}
   ]]>
  </style>
 </defs>
 <g id="Warstwa_x0020_1">
  <metadata id="CorelCorpID_0Corel-Layer"/>
  <g id="_2401687051424">
   <g>
    <path class="fil0" d="M9101 14436c-79,-69 -86,-188 -17,-267 69,-78 189,-86 267,-17l-250 284zm1862 325l0 379 0 0 -66 -1 -67 -2 -65 -4 -66 -6 -65 -6 -65 -9 -64 -9 -64 -12 -63 -12 -63 -14 -62 -16 -62 -16 -61 -19 -60 -19 -60 -21 -60 -22 -58 -23 -58 -25 -57 -26 -57 -27 -56 -28 -55 -30 -55 -30 -53 -32 -53 -33 -52 -34 -52 -36 -50 -36 -50 -37 -49 -39 -47 -39 -47 -41 250 -284 41 35 41 35 42 33 43 32 44 32 45 30 45 30 45 28 47 28 47 26 48 26 48 24 49 24 50 22 50 22 51 20 51 19 52 18 52 17 53 15 53 15 54 13 54 12 55 11 55 10 56 8 56 8 56 5 57 5 57 3 58 2 57 1 0 0zm0 0c105,0 190,85 190,189 0,105 -85,190 -190,190l0 -379zm0 189l0 0 0 0 0 0 0 -189 0 189zm0 -189c105,0 190,85 190,189 0,105 -85,190 -190,190l0 -379zm1606 -603l250 285 -47 40 -48 39 -49 38 -49 37 -51 36 -51 35 -52 34 -52 33 -54 31 -54 31 -55 29 -56 28 -56 27 -57 25 -58 25 -58 23 -59 22 -60 20 -60 20 -61 18 -62 16 -62 15 -62 14 -63 13 -63 11 -64 10 -65 8 -64 7 -66 5 -65 4 -66 2 -67 1 0 -379 58 -1 57 -2 57 -3 57 -4 56 -6 56 -7 55 -9 55 -9 54 -11 54 -12 54 -13 53 -15 52 -15 52 -17 52 -18 51 -19 51 -20 50 -21 49 -22 49 -23 48 -24 47 -26 47 -26 47 -27 45 -28 45 -30 45 -30 43 -31 43 -32 42 -33 42 -34 40 -35zm0 0c79,-69 199,-61 267,18 69,79 61,198 -17,267l-250 -285z"/>
   </g>
   <g>
    <path class="fil0" d="M12070 11699c72,-76 192,-80 268,-9 76,71 80,191 9,267l-277 -258zm-1083 851l0 -379 0 0 40 0 39 -2 40 -2 39 -4 38 -5 39 -5 38 -7 38 -8 37 -8 37 -10 37 -10 36 -12 36 -12 35 -13 36 -14 34 -15 34 -16 34 -16 33 -18 33 -18 32 -19 32 -20 31 -20 31 -22 30 -22 30 -23 29 -23 28 -24 28 -25 27 -26 26 -26 26 -27 277 258 -33 34 -33 33 -34 32 -34 31 -36 31 -36 29 -37 29 -38 27 -38 27 -39 26 -40 25 -41 24 -41 23 -42 21 -42 21 -43 20 -43 19 -44 17 -45 17 -45 15 -46 15 -46 13 -47 12 -47 10 -47 10 -48 8 -48 7 -49 6 -49 5 -49 3 -50 2 -50 1 0 0zm0 0c-105,0 -189,-85 -189,-189 0,-105 84,-190 189,-190l0 379zm0 -189l0 0 0 0 0 0 0 189 0 -189zm0 189c-105,0 -189,-85 -189,-189 0,-105 84,-190 189,-190l0 379zm-1412 -651l287 -247 26 30 26 29 28 28 28 27 29 26 30 26 30 25 31 24 32 24 32 23 33 21 33 21 34 20 34 19 35 19 36 17 36 16 37 16 37 14 37 14 38 12 39 12 38 10 40 10 39 8 40 8 40 6 41 5 41 4 41 3 42 2 42 0 0 379 -53 -1 -52 -2 -52 -4 -51 -5 -51 -6 -51 -8 -50 -9 -50 -11 -50 -12 -48 -13 -49 -14 -47 -16 -47 -17 -47 -18 -46 -20 -45 -20 -45 -22 -44 -23 -43 -24 -43 -25 -42 -27 -41 -27 -40 -28 -40 -29 -38 -31 -38 -31 -37 -32 -36 -34 -36 -34 -34 -35 -34 -36 -32 -37zm0 0c-68,-79 -59,-198 20,-267 79,-68 199,-59 267,20l-287 247z"/>
   </g>
   <g>
    <path class="fil0" d="M8202 11287c-10,-104 66,-197 170,-207 104,-11 196,65 207,169l-377 38zm2805 2159l0 379 0 0 -136 -3 -135 -10 -133 -16 -131 -22 -128 -27 -127 -34 -124 -39 -122 -45 -118 -50 -116 -56 -113 -60 -110 -65 -107 -70 -103 -75 -99 -79 -96 -84 -92 -87 -88 -92 -84 -95 -79 -100 -75 -103 -71 -106 -65 -109 -61 -113 -56 -116 -50 -119 -45 -121 -40 -124 -34 -126 -28 -129 -23 -131 -16 -132 377 -38 14 115 19 113 25 112 29 109 34 107 39 105 44 103 48 100 53 97 57 95 61 92 65 89 68 86 73 83 76 80 80 75 83 73 86 68 89 65 93 61 95 56 97 52 101 48 103 44 105 38 107 34 109 30 112 24 113 19 115 13 117 9 118 2 0 0zm0 0c104,0 189,85 189,190 0,104 -85,189 -189,189l0 -379zm0 190l0 0 0 0 0 0 0 -190 0 190zm0 -190c104,0 189,85 189,190 0,104 -85,189 -189,189l0 -379zm2428 -2197l376 38 -16 132 -22 131 -29 129 -34 126 -39 124 -45 121 -51 119 -56 116 -60 113 -66 109 -70 106 -75 103 -80 100 -84 95 -88 92 -91 87 -96 84 -100 79 -103 75 -106 70 -110 65 -113 60 -116 56 -119 50 -122 45 -124 39 -126 34 -129 27 -131 22 -133 16 -134 10 -136 3 0 -379 118 -2 116 -9 115 -13 114 -19 111 -24 109 -30 108 -34 105 -38 103 -44 100 -48 98 -52 95 -56 92 -61 89 -65 87 -68 83 -73 79 -75 76 -80 73 -83 69 -86 65 -89 61 -92 56 -95 53 -97 48 -100 44 -103 39 -105 34 -107 30 -109 24 -112 20 -113 14 -115zm0 0c10,-104 103,-180 207,-169 104,10 180,103 169,207l-376 -38z"/>
   </g>
   <g>
    <path class="fil0" d="M8646 10554l1383 0 0 379 -1383 0 0 0 0 -379zm0 379c-105,0 -189,-85 -189,-189 0,-105 84,-190 189,-190l0 379zm-458 -458l379 0 0 0 0 5 0 4 1 4 0 4 1 3 1 4 2 4 1 3 2 4 1 3 2 3 2 3 2 4 3 3 2 2 3 3 3 3 3 2 3 3 3 2 3 2 3 2 4 2 3 1 4 2 3 1 4 1 4 1 4 1 4 0 4 0 4 0 0 379 -23 -1 -24 -1 -22 -3 -23 -4 -22 -5 -22 -7 -21 -7 -21 -8 -21 -9 -19 -10 -20 -11 -18 -12 -18 -13 -17 -14 -17 -14 -16 -15 -15 -16 -14 -16 -14 -18 -13 -18 -11 -18 -11 -19 -11 -20 -9 -20 -8 -21 -7 -22 -6 -21 -5 -23 -5 -22 -2 -23 -2 -23 -1 -24 0 0zm0 0c0,-104 85,-189 190,-189 104,0 189,85 189,189l-379 0zm379 -777l0 777 -379 0 0 -777 0 0 379 0zm-379 0c0,-105 85,-190 190,-190 104,0 189,85 189,190l-379 0zm458 -458l0 378 0 0 -4 1 -4 0 -4 0 -4 1 -4 1 -4 1 -3 1 -4 2 -3 1 -4 2 -3 2 -3 2 -3 2 -3 2 -3 3 -3 3 -3 2 -2 3 -3 3 -2 3 -2 4 -2 3 -1 3 -2 4 -1 3 -2 4 -1 4 -1 3 0 4 -1 4 0 4 0 5 -379 0 1 -24 2 -23 2 -23 5 -22 5 -23 6 -21 7 -22 8 -21 9 -20 11 -20 11 -19 12 -19 12 -17 14 -18 14 -16 15 -16 16 -15 17 -15 17 -13 18 -13 18 -12 20 -11 19 -10 21 -9 21 -8 21 -8 22 -6 22 -5 23 -4 22 -3 24 -2 23 0 0 0zm0 0c105,0 189,85 189,189 0,105 -84,189 -189,189l0 -378zm1567 378l-1567 0 0 -378 1567 0 0 0 0 378zm0 -378c104,0 189,85 189,189 0,105 -85,189 -189,189l0 -378zm457 458l-378 0 0 0 -1 -5 0 -4 0 -4 -1 -4 -1 -3 -1 -4 -1 -4 -2 -3 -1 -4 -2 -3 -2 -3 -2 -4 -2 -3 -2 -3 -3 -3 -3 -2 -2 -3 -3 -3 -3 -2 -3 -2 -4 -2 -3 -2 -3 -2 -4 -1 -3 -2 -4 -1 -4 -1 -3 -1 -4 -1 -4 0 -4 0 -4 -1 0 -378 23 0 23 2 23 3 23 4 22 5 21 6 22 8 21 8 20 9 20 10 19 11 18 12 18 13 18 13 16 15 16 15 15 16 15 16 13 18 13 18 12 18 11 19 10 20 9 20 8 21 8 22 6 21 5 23 4 22 3 23 2 23 0 24 0 0zm0 0c0,104 -85,189 -189,189 -105,0 -189,-85 -189,-189l378 0zm-378 594l0 -594 378 0 0 594 0 0 -378 0zm378 0c0,104 -85,189 -189,189 -105,0 -189,-85 -189,-189l378 0zm-641 641l0 -379 0 0 13 0 14 -1 13 -2 13 -2 13 -3 12 -3 12 -4 12 -5 12 -5 11 -6 11 -7 10 -6 11 -8 10 -8 9 -8 10 -9 8 -9 9 -9 7 -10 8 -11 7 -10 6 -11 6 -12 5 -11 5 -12 4 -12 3 -13 3 -12 2 -13 2 -13 1 -14 1 -13 378 0 -1 32 -2 33 -4 32 -6 32 -7 31 -9 30 -10 30 -11 29 -13 29 -14 27 -16 27 -17 26 -17 25 -19 25 -21 23 -21 22 -22 21 -23 20 -24 19 -26 18 -26 17 -26 16 -28 14 -29 13 -29 11 -30 10 -30 9 -31 7 -32 6 -32 4 -33 2 -32 1 0 0zm0 0c-105,0 -190,-85 -190,-189 0,-105 85,-190 190,-190l0 379z"/>
   </g>
   <g>
    <path class="fil0" d="M11985 10554l1382 0 0 379 -1382 0 0 0 0 -379zm0 379c-105,0 -190,-85 -190,-189 0,-105 85,-190 190,-190l0 379zm-642 -641l379 0 0 0 0 13 1 14 2 13 2 13 3 12 4 13 4 12 4 12 6 11 5 12 7 11 7 10 7 11 8 10 8 9 9 9 9 9 10 8 10 8 10 8 10 6 11 7 12 6 11 5 12 5 12 4 13 3 12 3 13 2 14 2 13 1 14 0 0 379 -33 -1 -33 -2 -32 -4 -31 -6 -31 -7 -31 -9 -30 -10 -29 -11 -29 -13 -27 -14 -27 -16 -26 -17 -25 -18 -24 -19 -24 -20 -22 -21 -21 -22 -20 -23 -19 -25 -18 -25 -17 -26 -15 -27 -14 -27 -13 -29 -12 -29 -10 -30 -9 -30 -7 -31 -5 -32 -4 -32 -3 -33 -1 -32 0 0zm0 0c0,-105 85,-190 190,-190 104,0 189,85 189,190l-379 0zm379 -594l0 594 -379 0 0 -594 0 0 379 0zm-379 0c0,-105 85,-190 190,-190 104,0 189,85 189,190l-379 0zm458 -458l0 378 0 0 -4 1 -4 0 -4 0 -4 1 -4 1 -4 1 -3 1 -4 2 -3 1 -4 2 -3 2 -3 2 -3 2 -3 2 -3 3 -3 3 -3 2 -2 3 -3 3 -2 3 -2 4 -2 3 -1 3 -2 4 -1 3 -2 4 -1 4 -1 3 0 4 -1 4 0 4 0 5 -379 0 1 -24 2 -23 2 -23 5 -22 5 -23 6 -21 7 -22 8 -21 9 -20 11 -20 11 -19 12 -19 12 -17 14 -18 14 -16 15 -16 16 -15 17 -15 17 -13 18 -13 19 -12 19 -11 19 -10 21 -9 21 -8 21 -8 22 -6 22 -5 23 -4 22 -3 24 -2 23 0 0 0zm0 0c104,0 189,85 189,189 0,105 -85,189 -189,189l0 -378zm1566 378l-1566 0 0 -378 1566 0 0 0 0 378zm0 -378c105,0 190,85 190,189 0,105 -85,189 -190,189l0 -378zm458 458l-379 0 0 0 0 -5 0 -4 0 -4 -1 -4 -1 -3 -1 -4 -1 -4 -2 -3 -1 -4 -2 -3 -2 -3 -2 -4 -2 -3 -2 -3 -3 -3 -3 -2 -2 -3 -3 -3 -3 -2 -3 -2 -4 -2 -3 -2 -3 -2 -4 -1 -3 -2 -4 -1 -4 -1 -3 -1 -4 -1 -4 0 -4 0 -5 -1 0 -378 24 0 23 2 23 3 22 4 23 5 21 6 22 8 21 8 20 9 20 10 19 11 18 12 18 13 18 13 16 15 16 15 15 16 15 16 13 18 13 18 12 18 11 19 10 20 9 20 8 21 8 22 6 21 5 23 4 22 3 23 1 23 1 24 0 0zm0 0c0,104 -85,189 -189,189 -105,0 -190,-85 -190,-189l379 0zm-379 777l0 -777 379 0 0 777 0 0 -379 0zm379 0c0,105 -85,190 -189,190 -105,0 -190,-85 -190,-190l379 0zm-458 458l0 -379 0 0 5 0 4 0 4 0 4 -1 3 -1 4 -1 4 -1 3 -2 4 -1 3 -2 3 -2 4 -2 3 -2 3 -3 3 -2 2 -3 3 -3 3 -2 2 -3 2 -4 2 -3 2 -3 2 -3 1 -4 2 -3 1 -4 1 -4 1 -3 1 -4 0 -4 0 -4 0 -5 379 0 -1 24 -1 23 -3 23 -4 22 -5 23 -6 21 -8 22 -8 21 -9 20 -10 20 -11 19 -12 18 -13 18 -13 18 -15 16 -15 16 -16 15 -16 14 -18 14 -18 13 -18 12 -19 11 -20 10 -20 9 -21 8 -22 7 -21 7 -23 5 -22 4 -23 3 -23 1 -24 1 0 0zm0 0c-104,0 -189,-85 -189,-189 0,-105 85,-190 189,-190l0 379z"/>
   </g>
   <g>
    <path class="fil0" d="M10481 10144c-105,0 -189,-84 -189,-189 0,-105 84,-189 189,-189l0 378zm1052 0l-1052 0 0 -378 1052 0 0 378zm0 -378c104,0 189,84 189,189 0,105 -85,189 -189,189l0 -378z"/>
   </g>
   <g>
    <path class="fil0" d="M9240 13110c0,-105 85,-189 189,-189 105,0 189,84 189,189l-378 0zm0 556l0 -556 378 0 0 556 0 0 -378 0zm378 0c0,105 -84,190 -189,190 -104,0 -189,-85 -189,-190l378 0zm-947 948l0 -379 0 0 30 -1 29 -2 28 -3 28 -5 27 -7 27 -7 27 -9 25 -10 26 -12 24 -12 24 -14 23 -15 22 -16 22 -17 20 -18 20 -18 19 -20 18 -21 17 -21 16 -23 15 -23 13 -24 13 -24 11 -25 10 -26 9 -26 8 -27 6 -28 5 -28 4 -28 2 -29 1 -30 378 0 -1 49 -3 48 -6 47 -9 47 -10 46 -13 45 -15 44 -17 43 -19 42 -21 41 -23 40 -24 38 -27 37 -28 36 -30 34 -31 33 -33 32 -34 29 -36 29 -37 26 -39 25 -39 22 -41 21 -42 19 -43 17 -44 15 -45 13 -46 11 -47 8 -47 6 -48 4 -49 1 0 0zm0 0c-104,0 -189,-85 -189,-189 0,-105 85,-190 189,-190l0 379zm-819 -379l819 0 0 379 -819 0 0 0 0 -379zm0 379c-105,0 -190,-85 -190,-189 0,-105 85,-190 190,-190l0 379zm-1388 1388l-379 0 2 -91 7 -89 11 -89 16 -87 20 -85 23 -84 28 -82 32 -81 35 -78 39 -76 43 -74 46 -72 49 -69 52 -67 56 -64 58 -61 62 -59 64 -55 67 -53 69 -49 71 -46 74 -42 77 -39 78 -36 80 -32 82 -27 84 -24 86 -20 87 -15 88 -12 90 -7 91 -2 0 379 -72 2 -70 5 -70 9 -68 12 -67 16 -66 18 -65 22 -63 25 -61 28 -60 30 -58 34 -56 36 -55 39 -52 41 -51 43 -48 46 -46 49 -44 50 -41 53 -38 54 -37 56 -33 58 -31 60 -27 62 -25 63 -22 64 -19 66 -15 67 -12 68 -9 70 -6 70 -1 72zm0 0c0,105 -85,189 -190,189 -104,0 -189,-84 -189,-189l379 0z"/>
   </g>
   <g>
    <path class="fil0" d="M15928 16002c0,105 -84,189 -189,189 -104,0 -189,-84 -189,-189l378 0zm-1766 -1388l0 -379 0 0 90 2 90 7 88 12 87 15 86 20 84 24 82 27 80 32 79 36 76 39 74 42 72 46 69 49 66 53 65 55 61 59 58 61 56 64 52 67 50 69 45 72 43 74 39 76 35 78 32 81 28 82 24 84 19 85 16 87 11 89 7 89 2 91 -378 0 -2 -72 -5 -70 -9 -70 -12 -68 -16 -67 -19 -66 -21 -64 -25 -63 -28 -62 -31 -60 -33 -58 -36 -56 -39 -54 -41 -53 -44 -50 -46 -49 -48 -46 -50 -43 -53 -41 -54 -39 -57 -36 -58 -34 -60 -30 -61 -28 -63 -25 -65 -22 -65 -18 -67 -16 -69 -12 -69 -9 -71 -5 -71 -2 0 0zm0 0c-105,0 -190,-85 -190,-189 0,-105 85,-190 190,-190l0 379zm-820 -379l820 0 0 379 -820 0 0 0 0 -379zm0 379c-104,0 -189,-85 -189,-189 0,-105 85,-190 189,-190l0 379zm-947 -948l378 0 0 0 1 30 2 29 4 28 5 28 6 28 8 27 9 26 10 26 11 25 13 24 14 24 14 23 16 23 17 21 18 21 19 20 20 18 21 18 21 17 22 16 23 15 24 14 25 12 25 12 26 10 26 9 27 7 27 7 28 5 29 3 29 2 29 1 0 379 -48 -1 -48 -4 -48 -6 -46 -8 -46 -11 -45 -13 -44 -15 -44 -17 -42 -19 -40 -21 -40 -22 -39 -25 -37 -26 -35 -29 -35 -29 -33 -32 -31 -33 -30 -34 -28 -36 -26 -37 -25 -38 -23 -40 -21 -41 -19 -42 -17 -43 -15 -44 -12 -45 -11 -46 -8 -47 -6 -47 -4 -48 -1 -49 0 0zm0 0c0,-104 85,-189 189,-189 105,0 189,85 189,189l-378 0zm378 -556l0 556 -378 0 0 -556 378 0zm-378 0c0,-105 85,-189 189,-189 105,0 189,84 189,189l-378 0z"/>
   </g>
   <g>
    <path class="fil0" d="M10292 14950c0,-104 84,-189 189,-189 104,0 189,85 189,189l-378 0zm0 1052l0 -1052 378 0 0 1052 -378 0zm378 0c0,105 -85,189 -189,189 -105,0 -189,-84 -189,-189l378 0z"/>
   </g>
   <g>
    <path class="fil0" d="M11343 14950c0,-104 85,-189 190,-189 104,0 189,85 189,189l-379 0zm0 1052l0 -1052 379 0 0 1052 -379 0zm379 0c0,105 -85,189 -189,189 -105,0 -190,-84 -190,-189l379 0z"/>
   </g>
   <g>
    <path class="fil0" d="M8378 9240c104,0 189,85 189,189 0,105 -85,189 -189,189l0 -378zm-568 0l568 0 0 378 -568 0 0 0 0 -378zm0 378c-104,0 -189,-84 -189,-189 0,-104 85,-189 189,-189l0 378zm-32 33l-378 0 0 0 0 -21 2 -21 2 -21 4 -20 4 -20 6 -19 6 -19 8 -19 8 -18 9 -18 10 -17 11 -17 11 -16 12 -16 13 -15 14 -14 14 -13 15 -13 15 -12 17 -12 16 -11 17 -9 18 -10 19 -8 18 -7 19 -7 20 -5 20 -5 20 -3 21 -3 21 -2 20 0 0 378 -1 1 -2 0 -2 0 -1 0 -2 0 -1 1 -2 0 -1 1 -2 1 -1 0 -1 1 -2 1 -1 1 -1 1 -1 1 -1 1 -2 1 -1 1 -1 2 0 1 -1 1 -1 1 -1 2 0 1 -1 2 0 1 -1 2 0 1 0 2 -1 1 0 2 0 2 0 0zm0 0c0,104 -85,189 -189,189 -105,0 -189,-85 -189,-189l378 0zm-378 1392l0 -1392 378 0 0 1392 0 0 -378 0zm378 0c0,105 -85,190 -189,190 -105,0 -189,-85 -189,-190l378 0zm300 300l0 379 0 0 -35 -1 -34 -3 -34 -4 -33 -6 -33 -8 -33 -9 -31 -10 -31 -13 -30 -13 -29 -15 -29 -17 -27 -17 -27 -19 -26 -20 -24 -22 -24 -22 -22 -24 -21 -24 -21 -26 -18 -26 -18 -28 -16 -28 -15 -30 -14 -30 -12 -30 -11 -32 -9 -32 -8 -33 -6 -34 -4 -34 -3 -34 0 -35 378 0 1 16 1 15 2 15 2 15 4 14 4 15 4 13 6 14 6 13 6 13 7 13 8 12 9 12 9 11 9 11 10 10 10 10 11 10 12 9 11 8 13 8 12 7 13 7 13 6 14 5 14 5 14 4 14 3 15 3 15 2 15 1 16 0 0 0zm0 0c105,0 189,85 189,189 0,105 -84,190 -189,190l0 -379zm300 379l-300 0 0 -379 300 0 0 379zm0 -379c104,0 189,85 189,189 0,105 -85,190 -189,190l0 -379z"/>
   </g>
   <g>
    <path class="fil0" d="M13636 9618c-105,0 -190,-84 -190,-189 0,-104 85,-189 190,-189l0 378zm567 0l-567 0 0 -378 567 0 0 0 0 378zm0 -378c104,0 189,85 189,189 0,105 -85,189 -189,189l0 -378zm411 411l-379 0 0 0 0 -2 0 -2 0 -1 0 -2 -1 -1 0 -2 -1 -1 0 -2 -1 -1 -1 -2 0 -1 -1 -1 -1 -1 -1 -2 -1 -1 -1 -1 -1 -1 -2 -1 -1 -1 -1 -1 -1 -1 -2 -1 -1 0 -2 -1 -1 -1 -1 0 -2 -1 -1 0 -2 0 -2 0 -1 0 -2 -1 0 -378 21 0 21 2 20 3 20 3 20 5 20 5 19 7 19 7 18 8 18 10 17 9 17 11 16 12 15 12 15 13 14 13 14 14 13 15 12 16 12 16 10 17 10 17 9 18 8 18 8 19 6 19 6 19 4 20 4 20 3 21 1 21 1 21 0 0zm0 0c0,104 -85,189 -190,189 -104,0 -189,-85 -189,-189l379 0zm-379 1392l0 -1392 379 0 0 1392 0 0 -379 0zm379 0c0,105 -85,190 -190,190 -104,0 -189,-85 -189,-190l379 0zm-679 679l0 -379 0 0 16 0 15 -1 15 -2 15 -3 14 -3 15 -4 13 -5 14 -5 13 -6 13 -7 13 -7 12 -8 12 -8 11 -9 11 -10 10 -10 10 -10 10 -11 9 -11 8 -12 8 -12 7 -13 7 -13 6 -13 5 -14 5 -13 4 -15 3 -14 3 -15 2 -15 1 -15 0 -16 379 0 -1 35 -3 34 -4 34 -6 34 -8 33 -9 32 -10 32 -13 30 -13 30 -15 30 -17 28 -17 28 -19 26 -20 26 -22 24 -22 24 -24 22 -24 22 -26 20 -26 19 -28 17 -28 17 -29 15 -31 13 -30 13 -32 10 -32 9 -33 8 -34 6 -34 4 -34 3 -35 1 0 0zm0 0c-104,0 -189,-85 -189,-190 0,-104 85,-189 189,-189l0 379zm-299 -379l299 0 0 379 -299 0 0 -379zm0 379c-105,0 -190,-85 -190,-190 0,-104 85,-189 190,-189l0 379z"/>
   </g>
   <g>
    <path class="fil0" d="M8567 9955c0,105 -85,189 -189,189 -105,0 -190,-84 -190,-189l379 0zm0 -2366l0 2366 -379 0 0 -2366 0 0 379 0zm-379 0c0,-105 85,-189 190,-189 104,0 189,84 189,189l-379 0zm1767 -1767l0 379 0 0 -72 1 -70 6 -70 9 -68 12 -67 15 -66 19 -64 22 -63 25 -62 27 -60 31 -58 33 -56 37 -54 38 -53 42 -50 43 -49 46 -46 48 -43 51 -41 52 -39 55 -36 56 -34 58 -30 60 -28 62 -25 62 -22 65 -18 66 -16 67 -12 68 -9 70 -5 70 -2 72 -379 0 3 -91 6 -90 12 -88 15 -87 20 -86 24 -83 27 -83 32 -80 36 -78 39 -76 42 -74 46 -72 49 -69 53 -67 55 -64 59 -61 61 -59 64 -55 67 -53 69 -49 72 -46 74 -43 76 -39 78 -35 81 -32 82 -28 84 -23 85 -20 87 -16 89 -11 89 -7 91 -2 0 0zm0 0c105,0 189,85 189,189 0,105 -84,190 -189,190l0 -379zm2103 379l-2103 0 0 -379 2103 0 0 0 0 379zm0 -379c105,0 190,85 190,189 0,105 -85,190 -190,190l0 -379zm1767 1767l-379 0 0 0 -1 -72 -6 -70 -9 -70 -12 -68 -15 -67 -19 -66 -22 -65 -25 -62 -27 -62 -31 -60 -33 -58 -36 -56 -39 -55 -41 -52 -44 -51 -46 -48 -48 -46 -51 -43 -52 -42 -55 -38 -56 -37 -58 -33 -60 -31 -61 -27 -63 -25 -65 -22 -66 -19 -67 -15 -68 -12 -70 -9 -70 -6 -72 -1 0 -379 91 2 90 7 88 11 87 16 86 20 84 23 82 28 80 32 78 35 77 39 74 43 71 46 69 49 67 53 64 55 62 59 58 61 56 64 52 67 49 69 46 72 43 74 39 76 35 78 32 80 28 83 23 83 20 86 16 87 11 88 7 90 2 91 0 0zm0 0c0,104 -85,189 -189,189 -105,0 -190,-85 -190,-189l379 0zm-379 2366l0 -2366 379 0 0 2366 -379 0zm379 0c0,105 -85,189 -189,189 -105,0 -190,-84 -190,-189l379 0z"/>
   </g>
   <g>
    <path class="fil0" d="M13636 8451c104,0 189,85 189,189 0,105 -85,190 -189,190l0 -379zm-3155 0l3155 0 0 379 -3155 0 0 0 0 -379zm0 379c-105,0 -189,-85 -189,-190 0,-104 84,-189 189,-189l0 379zm-1241 -1241l378 0 2 44 3 44 5 43 8 43 10 41 11 41 14 40 15 39 17 39 19 37 21 36 23 35 24 34 25 32 27 32 29 30 30 28 31 27 33 26 34 24 35 22 36 21 37 19 38 17 39 16 40 13 41 12 42 10 42 7 43 6 44 3 45 1 0 379 -64 -2 -63 -5 -62 -8 -61 -10 -60 -14 -59 -17 -58 -20 -56 -22 -55 -25 -54 -27 -52 -30 -50 -32 -49 -35 -47 -37 -45 -39 -43 -41 -41 -43 -39 -45 -36 -47 -35 -48 -32 -51 -30 -52 -28 -53 -25 -55 -22 -57 -19 -57 -17 -59 -14 -60 -11 -61 -8 -63 -5 -63 -1 -63zm0 0c0,-105 85,-189 189,-189 105,0 189,84 189,189l-378 0zm189 0l0 0 0 0 0 0zm-189 0c0,-105 85,-189 189,-189 105,0 189,84 189,189l-378 0z"/>
   </g>
  </g>
  <rect class="fil1" width="22013" height="22013"/>
  <path class="fil1 str0" d="M11007 1693c5143,0 9313,4170 9313,9314 0,5143 -4170,9313 -9313,9313 -5144,0 -9314,-4170 -9314,-9313 0,-5144 4170,-9314 9314,-9314zm0 1917c4085,0 7396,3312 7396,7397 0,4085 -3311,7396 -7396,7396 -4085,0 -7397,-3311 -7397,-7396 0,-4085 3312,-7397 7397,-7397z"/>
 </g>
</svg>
