<?xml version="1.0" encoding="UTF-8"?>
<!DOCTYPE svg PUBLIC "-//W3C//DTD SVG 1.1//EN" "http://www.w3.org/Graphics/SVG/1.1/DTD/svg11.dtd">
<!-- Creator: CorelDRAW 2020 (64-Bit) -->
<svg xmlns="http://www.w3.org/2000/svg" xml:space="preserve" width="381mm" height="381mm" version="1.1" style="shape-rendering:geometricPrecision; text-rendering:geometricPrecision; image-rendering:optimizeQuality; fill-rule:evenodd; clip-rule:evenodd"
viewBox="0 0 38099.98 38099.98"
 xmlns:xlink="http://www.w3.org/1999/xlink"
 xmlns:xodm="http://www.corel.com/coreldraw/odm/2003">
 <defs>
  <style type="text/css">
   <![CDATA[
    .str0 {stroke:#DADADA;stroke-width:33.86;stroke-linecap:round;stroke-linejoin:round;stroke-miterlimit:10}
    .str1 {stroke:#DADADA;stroke-width:33.86;stroke-linecap:round;stroke-linejoin:round;stroke-miterlimit:4}
    .fil0 {fill:none;fill-rule:nonzero}
    .fil1 {fill:#DADADA}
   ]]>
  </style>
 </defs>
 <g id="Warstwa_x0020_1">
  <metadata id="CorelCorpID_0Corel-Layer"/>
  <g id="_2528421088592">
   <path class="fil0 str0" d="M27241.7 23114.41l4.38 61.56 -57.58 75.75 -61.52 4.33 -66.64 71.58 -57.47 132.79 -119.7 71.33 67.28 62.09 -57.89 70.91 -141.5 -56.83 -62.51 4.41 -65.8 71.5 -49.03 70.17 -128.66 70.98 -176.5 212.97 -75.28 5.33 -9.38 -133.03 -128.31 75.95 -43.85 199.53 -66.46 4.69 4.69 66.47 -62.58 4.44 -4.7 -66.5 -199.42 14.11 -61.52 4.34 -57.9 70.91 -79.97 -61.17 -57.75 4.09 4.73 66.46 -57.29 133.85 -61.49 74.96 -75.71 -195.05 -66.78 71.58 -66.32 4.69 -114.9 71.05 -195.3 142.45 -128.2 -48.96 -137.9 -60.89 -4.45 -62.58 -4.69 -66.57 -4.69 -66.47 132.93 -9.38 -80.44 -123.93 -4.69 -66.46 -66.32 -62.2 -71.65 -123.65 9.07 128.06 4.69 66.53 8.78 124.15 -70.34 4.97 -4.09 -57.64 -62.66 4.41 -123.75 138.39 -128.31 75.85 -62.26 -62.41 -66.57 4.73 -61.03 137.97 13.51 190.64 -62.48 4.41 -65.79 -53.41 -71.44 -65.58 -61.45 74.97 -62.58 4.44 4.09 57.75 133.07 48.51 66.46 -4.69 66.78 67.09 9.03 127.96 -61.73 4.34 -66.47 4.72 -61.7 71.19 -124.11 8.75 -61.77 71.23 -4.69 -66.5 -66.57 4.69 -61.84 71.19 4.73 66.54 70.94 57.85 4.69 66.39 4.45 62.66 18.17 6.49 96.52 114.05 41.66 -106.11 18.52 262 -57.15 137.73 -66.46 4.69 4.69 66.36 -61.81 71.22 -61.56 4.34 -9.38 -132.85 -76.03 -61.53 -61.84 71.26 4.69 66.36 -52.56 133.46 4.69 66.46 61.7 -4.37 66.54 -4.7 -61.84 71.23 -57.33 65.9 5.04 71.33 9.07 128.09 66.71 66.96 -52.63 132.54 4.44 62.48 -6.53 25.64 55.64 113.32 -56.84 70.83 -132.85 9.42 -133 9.39 9.1 129.11 9.39 132.89 -66.5 4.7 9.03 128.05 71.23 61.78 -62.09 67.31 4.97 70.41 -66.46 4.69 -58.03 67.03 4.69 66.39 9.38 133 57.75 -70.94 133 -9.42 4.73 66.53 70.8 56.83 66.53 -4.69 9.42 133.03 4.41 62.45 22.4 -1.59 70.84 57.01 4.69 66.36 4.41 62.58 128.1 -9.03 147.28 123.26 61.52 -4.38 137.69 57.01 66.54 -4.69 9.42 133 -61.85 71.19 -66.49 4.69 -128.06 9.03 -137.87 9.77 -61.66 4.34 -128.8 67.06 -61.42 76.13 -62.05 66.26 -129.02 80.82 -57.18 65.86 4.69 66.53 -128.3 75.89 -61.95 67.31 -190.57 84.1 -61.99 67.24 -70.97 -57.86 123.54 -142.27 62.55 -4.41 -4.73 -66.47 -4.69 -66.56 -57.82 70.97 -66.4 4.7 -133.06 9.38 -71.19 -61.84 3.95 -4.2 -61.81 4.37 -71.23 -61.66 -199.39 14.11 -137.72 -57.15 -124.11 8.78 -66.5 4.7 71.19 61.84 -61.77 71.05 -137.9 9.73 -66.29 -61.98 -71.15 -61.84 -61.63 71.23 4.69 66.35 4.38 61.7 -66.57 4.7 -195.58 13.82 -66.4 4.7 4.7 66.35 71.08 61.85 67.31 62.05 137.69 57.11 137.3 53.2 66.46 -4.69 -61.49 74.97 -128.79 67.06 -133.04 9.38 -9.03 -127.91 -62.58 4.41 -66.39 4.69 71.36 65.58 71.72 124.67 70.42 -4.97 4.69 66.35 -204.12 -52.24 -71.51 -66.75 -65.68 -53.3 -76.31 -65.23 4.98 70.27 4.09 57.65 76.37 66.39 132.75 57.33 4.38 61.73 -132.43 -52.67 -137.73 -56.97 -80.43 -124.07 -70.95 -128.52 -76.09 -61.45 -9.38 -133 -66.4 4.69 -124.39 75.64 -56.9 70.83 66.32 62.16 4.41 62.59 4.98 70.27 9.13 129.12 71.16 61.66 133.35 52.6 80.79 127.85 208.38 181.85 71.33 -5.04 -61.94 137.9 -61.67 4.34 -4.73 -66.39 -4.69 -66.47 -76.02 -61.49 -132.93 9.39 -66.39 4.69 -57.89 70.98 71.96 128.45 66.4 -4.7 4.72 66.47 -61.7 71.22 -58.17 67 67.27 62.05 137.8 -9.74 137.58 57.01 137.69 57.08 61.6 -4.37 75.53 123.4 133.42 53.48 70.41 -5.01 9.39 132.89 9.41 133 4.7 66.53 4.69 66.39 -137.69 -57 -75.53 -124.36 -66.46 4.69 -123.83 138.47 -56.97 70.77 4.34 61.66 66.74 66.89 71.33 -5.01 123.02 -80.33 9.45 133.85 -123.36 75.6 -128.31 75.81 -71.33 5.01 -66.22 -62.02 -4.72 -66.57 -75.82 -57.54 -66.39 4.69 9.14 129.16 71.08 61.7 80.44 123.01 61.56 -4.34 9.38 133 76.02 61.42 4.73 66.53 137.41 53.13 4.69 66.39 -265.85 18.8 -71.41 5.05 -9.13 -128.91 -66.4 4.7 -9.38 -133 -57.89 70.87 4.69 66.54 4.41 62.51 9.42 132.96 -66.5 4.69 -70.98 -128.59 -71.33 5.05 -66.11 -58.17 -4.69 -66.54 -4.69 -66.46 -4.7 -66.54 -76.05 -61.41 -53.03 70.52 4.69 66.57 62.45 62.37 -53.03 70.62 -70.34 4.98 -66.46 4.69 -75.96 -128.31 -4.69 -66.53 -4.73 -66.46 -70.66 -56.94 61.63 -71.16 -9.38 -132.92 -4.45 -62.59 -71.36 -66.6 -66.92 -57.22 -66.57 4.69 -70.91 -128.59 -4.45 -62.51 56.59 -74.82 66.53 -4.73 62.59 -4.41 66.32 -4.69 66.53 -4.69 62.05 -67.24 70.35 -4.98 57.75 -4.05 71.33 -5.05 61.67 -4.37 4.41 62.51 128.51 -71.9 70.88 57.82 4.97 70.49 67.03 58.1 61.98 -67.24 71.4 -5.04 56.55 -74.83 -137.33 -53.13 -71.41 -65.65 -66.99 -58.17 -128.09 9.06 4.44 62.59 -75.74 -57.54 -66.04 -57.19 -129.08 9.14 -70.34 4.98 -66.47 4.69 -128.51 70.91 -4.34 -61.53 -62.59 4.41 -66.53 4.73 -57.22 65.86 -137.34 -52.1 -71.33 5.04 -4.69 -66.57 -4.73 -66.46 -66.39 -62.02 57.01 -70.84 71.33 -5.04 133.03 -9.42 -4.44 -62.58 -4.69 -66.54 -71.48 5.05 -61.52 4.37 -71.33 5.01 -57.01 70.91 -76.03 -61.49 -9.38 -132.86 -4.69 -66.46 -129.12 9.1 -71.05 -61.84 -70.69 -124.71c106.64,-7.52 27.93,31.78 -67.14,-128.8l-4.37 -61.73 -132.89 9.42 -67.28 -61.95 -133 9.38 -9.13 -129.08 66.53 -4.69 -4.97 -70.27 -66.5 4.69 -4.45 -62.58 61.81 -71.23 -71.19 -61.81 -4.69 -66.5 -4.69 -66.35 62.12 -66.4 -9.38 -132.92 -4.7 -66.47 -4.72 -66.53 -4.41 -62.55 -4.69 -66.36 -4.7 -66.56 66.5 -4.7 -4.69 -66.46 -4.44 -62.58 -20.81 -19.11 3.87 59.29 -147.18 3.7 -67.77 5.4 -4.37 -70.41 -131.09 9.38 -9.56 -136.24 -71.44 5.32 -62.69 -60.21 -4.97 -75.78 -76.66 -59.76 -67.81 5.4 -135.53 10.05 -72 -70.34 -62.62 3.98 -77.44 -125.52 -67.77 4.66 -139.8 -64.17 -76.55 -131.62 -130.43 10.19 -77.22 -135.46 -143.62 -125.42 -140.58 -130.7 -67.77 4.66 -130.45 80.5 -139.88 -60.36 -4.37 -70.41 -144.36 -126.23 -62.62 4.77 -81.63 -134.77 -68.44 -65.68 -72.21 -61.21 204.01 -14.68 -77.93 -68.93 -67.17 -56.51 -67.77 4.65 -4.97 -75 -135.54 10.06 -8.82 -135.51 -5.01 -75 58.95 -140.15 -77.33 -131.59 -66.96 -65.69 -72.14 -64.98 -72.14 -65.02 -67.77 4.66 4.37 70.41 -57.57 145.49 -63.32 70.49 -58.32 145.48 -68.44 -65.69 -4.37 -69.63 -72.21 -61.21 -9.46 -140.05 -4.37 -70.45 -72.11 -65.76 62.55 -69.71 67.77 -4.66 59.01 -75.92 -4.37 -70.41 -5.08 -70.45 -4.37 -70.41 -58.99 75.17 -4.96 -1.54 2.1 29.7 15.07 4.44 -13.48 17.99 -62.44 4.41 9.03 128.1 -75.11 -61.53 -4.33 -61.56 -62.62 4.41 -71.3 5.05 4.34 61.55 -61.52 4.34 -61.81 71.23 -66.5 4.69 -66.5 4.69 -66.53 4.73 -132.89 9.38 9.13 129.09 -62.61 4.44 -61.46 75.99 66.5 -4.69 4.37 61.56 67.28 62.09 70.45 -5.01 4.69 66.53 -65.72 71.47 -58.17 66.89 4.69 66.5 4.69 66.5 -61.81 71.19 75.57 123.4 5.04 71.33 66.68 53.16 4.97 70.49 137.3 53.13 66.54 -4.69 137.69 57.11 132.99 61.24 71.33 -5.04 8.79 124.18 67.27 62.05 4.73 66.53 79.87 128.87 71.51 123.65 -57.75 70.98 9.38 133 133.56 124.07 80.08 119.1 142.42 123.61 66.6 66.99 80.37 123.02 132.78 57.46 133 -9.41 195.47 -13.83 61.56 -4.34 208.74 48.15 9.39 132.89 -66.61 71.51 -61.7 4.38 -66.6 71.57 71.29 -5.04 137.73 56.97 70.91 57.86 129.08 -9.14 66.39 -4.69 71.23 61.84 66.21 62.13 209.06 52.1 66.25 61.98 70.87 57.01 133 -9.38 133.67 57.26 75.1 61.52 67.07 128.9 142.24 52.85 4.97 70.31 9.14 129.08 9.03 128.09 -61.35 75.96 -71.44 5.04 -57.64 4.09 -75.46 -66.28 -4.37 -61.74 -67.14 -61.95 -5.04 -71.43 -4.09 -57.68 -66.5 4.72 -66.5 4.7 -66.5 4.69 -66.5 4.69 -137.86 -60.85 -4.45 -62.62 -61.52 4.37 -71.48 5.05 -57.11 66.95 -61.56 74.97 66.53 -4.73 -62.47 62.37 5.04 71.44 -66.36 4.69 -15.02 108.13 34.78 171.45 74.19 105.76 123.72 -70.59 75.81 56.48 4.73 66.57 4.69 66.46 9.38 132.86 4.69 66.53 4.45 62.59 4.69 66.46 -71.47 5.08 -61.53 4.34 -66.56 4.69 -61.67 71.09 -57.89 70.9 -61.81 71.23 8.79 124.14 4.97 70.35 -133.38 72.24 5 70.49 -61.73 4.37 -66.85 67.56 -61.6 4.38 -66.5 4.69 -62.58 4.41 -70.8 -57.82 -4.98 -70.49 61.95 -67.2 57.61 -74.79 -4.41 -62.58 -4.34 -61.53 -4.73 -66.53 -4.69 -66.5 66.5 -4.69 61.6 -4.34 66.6 -71.44 -13.83 -195.61 -85.41 -194.28 -75.38 -191.28 -70.84 -56.9 -5.05 -71.26 -66.95 -57.29 -141.5 -56.69 -62.59 4.41 -66.49 4.69 -137.94 -62.05 -4.09 -57.65 -4.98 -70.27 -9.1 -129.08 -66.29 -62.16 -71.43 5.04 -142.24 -123.47 -61.7 4.34 -66.82 -57.29 -75.11 -61.39 -209.58 -185.73 -61.77 71.26 -75.64 -124.39 -133 9.38 -71.86 -128.48 -70.45 4.98 -422.87 -367.03 -208.32 -180.7 -67.52 -67.06 -74.51 -52.67 -71.96 -128.55 -142.42 -123.51 -66.39 4.69 -156.14 -318.13 -71.3 -62.69 -80.61 -252.77 -89.5 -264.83 -138.18 -119.84 62.12 -66.25 -71.19 -61.8 -4.69 -66.5 61.81 -71.23 -66.54 4.69 -66.49 4.73 -61.67 71.19 4.73 66.5 -208.81 -118.92 -56.97 70.87 -142.32 -123.61 -67.52 4.76 -132.85 9.38 -61.81 71.23 -56.87 70.84 4.69 66.5 -61.8 71.22 -128.66 70.95 -66.36 4.69 -66.5 4.73 -61.45 76.02 -56.2 29.99 -1.06 0.56 -110.63 123.75 -4.69 -66.53 -61.66 4.37 -71.34 5.05 4.7 66.53 -66.5 4.7 -61.56 4.33 -66.5 4.73 4.69 66.46 4.69 66.54 -57.85 70.77 -70.31 4.97 -62.62 4.41 -70.38 5.01 -66.5 4.69 -62.62 4.41 -71.04 -61.66 -4.7 -66.54 -71.22 -61.77 -71.19 -61.84 -61.7 71.22 -4.7 -66.53 -4.44 -62.55 -66.46 4.69 -62.62 4.45 -4.69 -66.39 -4.7 -66.54 -66.49 4.73 -61.81 71.23 -66.5 4.69 -61.67 71.05 -9.41 -132.89 -133 9.38 -61.56 4.37 -71.19 -61.77 -67.31 -62.09 -70.31 4.94 -61.81 71.26 -61.8 71.16 -67.38 4.76 -61.56 4.34 -66.54 4.69 -61.77 71.26 -66.5 4.7 -61.7 71.08 4.45 62.55 -57.12 137.69 71.23 61.84 -61.85 71.05c69.72,158.05 58.68,10.38 75.53,249.17l4.7 66.53 -57.86 70.87 4.38 61.6 -61.81 71.19 -61.7 71.08 -66.54 4.7 -61.77 71.19 -66.53 4.69 -132.86 9.38 -57.29 66.96 -71.3 5.04 -124.28 75.67 -66.5 4.7 -61.66 4.37 -71.33 5.01 -128.06 9.07 -137.83 9.73 -124.15 8.79 -66.53 4.69 -61.52 74.96 4.41 62.62 -66.33 4.69 4.34 61.67 -127.95 80.72 -57.22 65.89 -123.61 142.46 -66.64 71.4 -66.5 4.69 -119.84 138.22 -128.31 75.92 -56.86 70.73 -66.61 71.51 9.39 132.99 9.13 129.12 4.34 61.56 5.05 71.33 75.63 56.48 4.73 66.57 66.25 62.09 -123.47 142.31 -133 9.38 -61.56 4.38 -128.59 71.93 4.7 66.57 -57.75 70.87 -70.45 4.98 -58.21 66.04 9.38 132.85 -123.36 75.6 -66.54 72.46 -137.79 -58.03 -62.59 4.45 -132.99 9.38 -56.76 71.79 -132.93 9.42 4.69 66.53 -128.66 70.95 4.73 66.39 4.69 66.53 -66.64 71.51 -61.52 4.34 -4.73 -66.46 -62.58 4.41 -75.11 -61.56 -132.89 9.42 -57.89 70.94 -137.73 -57.11 -66.49 4.69 -199.36 14.07 -128.97 9.14 -70.75 -123.58 -137.79 9.74 -71.22 -61.84 -137.67 -58.07 -128.07 9.07 -57.02 138.67 -66.51 4.7 -133.65 -57.4 -66.52 4.69 -61.79 71.23 -132.88 9.38 -128.65 70.94 4.69 66.43 -57.89 70.95 -75.89 -128.24 -70.71 -56.83 -66.54 4.69 -71.22 -61.84 -9.47 -133.99 -70.71 -56.86 132.86 -9.42 -5.03 -71.3 57.48 -132.75 -66.53 4.69 -66.51 4.69 61.8 -71.22 -4.43 -62.59 -71.46 -65.58 -137.3 -53.2 -4.7 -66.49 -66.37 -62.16 -70.74 -56.84 -71.55 -66.64 -65.65 4.63 -183.16 75.84 -66.5 4.73 -4.7 -66.53 -56.86 70.87 -76 -61.49 -137.7 -57.08 -67.31 -62.12 -66.36 4.69 -61.71 4.37 -4.42 -62.54 -71.08 -61.67 -66.73 71.4 -61.55 4.34 -71.35 5.05 -4.68 -66.36 66.63 -71.58 52.45 -133.42 -4.98 -70.31 66.99 -67.63 66.39 -4.69 -4.7 -66.5 52.66 -132.43 -66.76 -66.99 57.36 -65.9 -5.05 -71.47 62.29 -62.31 57.89 -70.94 -4.7 -66.5 -9.38 -132.89 -62.6 4.41 -71.06 -61.77 -128.11 9.07 -4.7 -66.54 -4.36 -61.52 61.7 -71.26 57.02 -70.81 -4.77 -67.38 -4.69 -66.57 -4.7 -66.46 62.01 -66.29 133.98 -9.45 61.62 -4.38 61.9 -137.9 56.87 -70.87 -4.43 -62.55 61.54 -75.14 62.42 -62.33 57.11 -137.59 61.69 -71.19 -9.4 -133.03 57.87 -70.91 65.99 -67.45 -9.4 -133 57.89 -70.91 62.15 -66.28 -9.46 -133.88 -4.69 -66.5 56.86 -70.87 -4.36 -61.56 -5.02 -71.3 -4.1 -57.82 -8.74 0.64 -9.05 -128.06 61.94 -67.17 70.92 57.75 62.12 -67.14 -4.96 -70.41 -66.55 4.69 61.85 -71.19 -4.42 -62.58 61.37 -75.04 -4.08 -57.71 -132.89 9.38 61.5 -76.02 -4.36 -61.56 -62.19 66.25 -4.35 -61.56 -71.19 -61.81 61.79 -71.19 61.85 -71.08 71.06 61.66 57.11 -137.58 67.29 62.13 66.5 -4.7 66.51 -4.72 71.2 61.66 4.7 66.5 61.67 -71.19 61.8 -71.05 -71.22 -61.84 66.52 -4.69 66.51 -4.73 62.59 -4.41 -4.43 -62.55 70.78 57.86 66.5 -4.69 128.59 -71.97 4.42 62.55 4.7 66.53 66.27 62.02 80.72 127.99 123.38 -75.57 71.21 61.81 75.63 56.51 128.1 -9.06 62.58 -4.41 71.54 66.64 132.87 -9.39 4.09 57.72 134.05 61.24 70.41 -5.01 137.34 53.16 62.58 -4.41 75.11 61.53 67.59 66 61.53 -4.37 71.33 -5.05 66.11 58.11 71.33 -5.05 132.89 -9.38 61.52 -4.34 71.23 61.84 129.08 -9.14 75.57 123.37 71.19 61.77 128.94 -9.1 70.45 -5.01 62.58 -4.41 75.14 61.56 137.55 56.97 124.18 -8.78 88.76 61.56 115.46 -132.89 123.4 -143.3 -4.69 -66.5 62.83 -71.26 66.5 -4.73 -9.03 -128.06 61.56 -4.37 -4.69 -66.5 66.6 -71.44 -4.44 -62.54 -4.98 -70.45 133.03 -9.39 53.24 -66.64 -133.81 -57.39 71.47 -5.05 -9.06 -128.06 52.59 -75.42 -4.37 -61.53 -13.79 -195.61 65.72 -71.37 4.66 66.4 70.83 57.92 4.7 66.46 71.22 61.85 4.34 61.52 5.05 71.33 70.87 56.98 -4.38 -61.67 -9.38 -132.89 -4.69 -66.53 -71.23 -61.78 -4.41 -62.58 -4.69 -66.39 -66.5 4.69 -4.69 -66.46 61.77 -71.23 -4.41 -62.62 -9.38 -132.85 61.8 -71.19 -66.49 4.69 61.77 -71.19 -4.69 -66.54 -4.7 -66.35 -61.8 71.08 -137.59 -56.97 -4.37 -61.56 -75.11 -61.56 -9.38 -133 -57.65 4.09 -80.57 -123.96 -4.69 -66.47 119.7 -142.13 -4.38 -61.6 -57.61 4.06 -4.69 -66.46 -76.2 -61.46 -61.56 4.34 52.11 -138.21 -65.94 -57.26 -71.29 5.04 66.6 -71.5 -132.86 9.38 -134.05 9.49 -4.69 -66.53 -4.7 -66.36 -61.56 4.34 -4.69 -66.5 -71.29 5.04 -142.14 -119.66 -4.69 -66.39 -61.56 4.34 4.69 66.39 -133.81 -57.26 4.7 66.4 -75.75 -128.2 -70.87 -56.91 -66.5 4.73 61.46 -76.13 66.5 -4.72 66.35 -4.7 -4.05 -57.61 57.75 -4.09 -4.98 -70.45 -4.69 -66.5 -57.75 4.1 -66.39 4.69 -66.5 4.69 -4.41 -62.44 66.5 -4.69 66.35 -4.7 57.79 -4.09 66.36 -75.46 66.53 66.08 71.3 -5.05 132.99 -9.42 4.45 62.45 129.08 -9.11 -4.41 -62.44 61.53 -75.14 137.83 61.03 4.41 62.44 61.59 -4.34 71.47 -5.04 9.67 136.95 4.06 57.61 128.06 -9.03 -4.06 -57.65 70.45 52.95 133 -9.42 129.11 -9.1 -57.54 75.85 62.59 -4.44 61.52 -4.34 75.71 56.55 132.99 -9.42 -4.37 -61.56 -76.48 -66.4 -4.06 -57.64 -4.97 -70.41 66.71 -71.58 -80.82 -127.81 -4.41 -62.59 -9.07 -128.09 66.74 -71.54 -4.76 -67.38 66.36 -4.7 71.3 62.69 61.56 -4.34 67.52 -4.79 -62.83 71.29 4.34 61.56 72.21 61.74 -63.08 67.38 139 60.92 -4.98 -70.41 137.87 61.03 132.5 53.37 133 -9.38 4.69 66.5 132.89 -9.38 133 -9.42 134.09 61.31 -5.01 -70.42 66.4 -4.69 -71.09 -61.84 -133.49 -53.3 -66.53 4.69 -4.98 -70.42 129.12 -9.13 132.85 -9.39 128.59 -71.96 123.37 -75.57 67.38 -4.76 62.16 -66.29 66.5 -4.69 70.31 -4.97 -4.7 -66.5 -9.45 -133.88 -4.69 -66.54 57.89 -70.76 -4.38 -61.7 -4.69 -66.36 61.81 -71.26 61.56 -4.34 66.5 -4.69 66.53 -4.73 66.36 -4.69 133 -9.39 5.85 12.35 123.69 -70.63 -5.01 -71.29 71.4 66.6 61.49 -76.02 66.5 -4.69 5.04 71.29 67.38 -4.76 70.84 56.87 4.73 66.53 61.56 -4.37 66.49 -4.69 133 -9.42 -4.69 -66.5 62.05 -66.25 54.33 -3.85 -62.83 -62.41 -71.44 5.05 -9.13 -129.05 -4.7 -66.39 -4.33 -61.56 71.43 -5.08 9.03 127.99 123.26 -75.46 -4.37 -61.56 -66.36 4.69 -9.42 -133 132.9 -9.41 57.89 -70.91 -4.7 -66.4 70.42 -4.97 -4.45 -62.55 57.65 -74.89 -9.14 -129.05 60.93 -137.83 129.04 -9.14 71.23 61.78 4.69 66.39 -61.81 71.22 -62.09 67.24 66.5 -4.69 -61.52 75.14 9.1 128.94 66.53 -4.69 66.5 -4.69 118.96 -138.01 -9.42 -132.99 -4.69 -66.5 -4.69 -66.4 -4.7 -66.49 -4.37 -61.6 61.81 -71.15 129.47 -72.08 66.49 -4.69 61.6 -4.37 66.29 -76.34 5.04 71.33 4.41 62.58 128.45 -72 56.65 -75.67 66.36 -4.69 66.5 -4.7 18.55 261.98 62.59 -4.41 66.04 -66.61 4.23 -9.17 -4.8 -67.42 -66.39 4.7 -4.69 -66.47 61.7 -71.22 -4.69 -66.47 66.5 -4.72 132.99 -9.39 128.1 -9.06 138.57 57 -57.89 70.98 4.69 66.47 62.58 -4.45 -4.69 -66.46 66.5 -4.69 4.73 66.46 4.76 67.42 75.1 118.56 -4.37 -61.7 62.16 -66.25 -4.76 -67.41 -9.42 -133.04 -4.69 -66.46 128.09 -9.03 133 -9.42 0 0 -66.25 -62.05 57.18 -66.01 -137.69 -57.01 -5.04 -71.43 -4.38 -61.56 -61.56 4.33 -4.69 -66.49 61.56 -4.34 128.34 -75.78 -4.73 -66.53 -65.97 -58.21 -4.72 -66.5 -9.39 -132.86 13.41 -59.05 -9.07 -128.06 -4.41 -62.55 -4.97 -70.31 -70.84 -57.92 -4.69 -66.47 -66.5 4.7 -71.19 -61.85 61.81 -71.04 -4.7 -66.5 -4.44 -62.59 -4.69 -66.46 -4.7 -66.53 -4.69 -66.4 -9.06 -128.05 -4.7 -66.5 61.81 -71.23 -4.69 -66.5 66.39 -4.69 4.69 66.5 61.67 -4.34 76.06 61.45 66.5 -4.69 -4.73 -66.53 52.95 -70.56 70.45 -4.97 4.69 66.5 4.7 66.5 61.66 -71.2 72.21 61.74 -4.69 -66.5 -72.21 -61.73 63.11 -67.38 61.56 -4.34 137.8 -9.74 -4.98 -70.27 61.7 -4.38 66.36 -4.69 4.97 70.27 70.95 57.93 -66.5 4.69 -61.67 71.19 4.7 66.5 66.35 -4.69 4.7 66.5 66.53 -4.69 66.5 -4.7 66.92 57.12 4.73 66.5 4.69 66.39 -57.89 70.94 -66.54 4.7 -4.69 -66.54 -66.5 4.73 -61.66 71.22 71.05 61.78 -57.22 133.77 -123.51 75.42 4.69 66.54 -71.3 5.04 -56.86 70.84 -67.52 4.76 4.41 62.58 4.97 70.31 -66.36 4.7 4.41 62.54 71.09 61.88 -66.4 4.69 -66.07 66.5 75.14 61.56 71.05 61.77 -66.36 4.69c-60.42,65.75 -94.14,-2.4 -17.46,59.2l71.23 61.81 74.71 57.57 -65.61 71.51 4.69 66.36 70.31 -4.98 62.58 -4.41 4.69 66.5 70.45 -4.97 62.55 -4.41 75.81 128.3 56.62 -75.81 71.33 -5.05 62.55 -4.41 5.05 71.44 4.69 66.4 -62.55 4.4 4.37 61.71 -71.33 5.04 138.57 56.9 66.5 -4.69 132.93 -9.38 66.46 -4.69 -4.69 -66.4 66.29 62.02 128.3 -75.78 128.52 -71.08 62.58 -4.41 70.42 -4.97 57.89 -70.84 70.31 -4.98 4.69 66.43 66.92 57.22 4.69 66.43 70.45 -4.97 129.08 -9.14 9.39 133 9.45 133.91 199.43 -14.11 10.51 149.08 0.88 -56.55 76.98 87.85 97.79 -6.92 18.2 7.66 -5.04 -71.34 -65.87 -57.32 57.15 -65.94 57.05 -138.6 128.2 -75.92 66.5 -4.69 132.89 -9.39 62.58 -4.44 -4.69 -66.46 66.5 -4.7 61.8 -71.12 66.5 -4.69 62.05 -66.36 61.81 -71.12 56.48 -75.77 71.58 66.74 62.34 -76.2 66.49 -4.69 -4.33 -61.59 66.49 -4.7 61.81 -71.19 132.79 57.44 66.49 -4.7 61.67 -71.19 199.5 -14.11 4.72 66.5 66.93 57.15 5.04 71.44 4.69 66.39 4.38 61.7 75 61.42 190.74 -80.22 66.64 -4.69 4.66 66.39 66.43 -4.69 133 -9.42 -4.7 -66.39 -4.37 -61.67 -4.69 -66.39 62.58 -4.45 61.35 -76.13 -4.38 -61.56 -118.11 -31.89 108.73 -100.96 -4.69 -66.54 190.39 -143.19 4.69 66.53 4.41 62.55 4.7 66.54 128.09 -9.03 61.66 -71.27 57.33 -133.73 -66.46 4.69 -4.34 -61.56 66.46 -4.69 96.52 -25.54 58.18 72.49 22.29 51.58 17.53 -1.27 79.24 -5.58 129.11 -9.13 3.84 -4.91 -31.97 2.24 -77.49 -62.48 -62.63 4.44 -63.39 -63.49 -4.16 -58.62 -140.2 9.91 -14.35 -202.87 -81.9 -197.99 -4.51 -63.64 -4.77 -67.62 -13.99 -197.56 39.21 -406.63 63.96 -127.31 58.4 -135.03 -9.94 -140.16 49.44 -134.39 62.67 -4.44 68.16 -68.73 130.25 -77.2 130.26 -9.23 4.77 67.67 68.13 59.12 62.67 -4.41 144.39 120.67 9.9 140.16 68.05 58.08 144.46 121.71 67.62 -4.76 59.13 -68.13 62.74 -72.43 -9.54 -135.09 -4.77 -67.67 -9.22 -130.22 -4.49 -63.6 -4.81 -67.69 -4.77 -67.59 70.35 -23.32 -3.52 -49.39 -9.18 -130.08 63.39 -136.4 -77.45 -62.53 -62.56 4.42 -67.91 72.83 4.12 58.58 -58.61 4.16 -144.04 -116.7 -14.67 -207.78 -4.44 -62.6 67.51 -4.77 -4.77 -67.62 -3.85 -54.64 -135.13 9.58 -4.77 -67.66 -4.77 -67.62 -4.45 -62.6 62.81 -72.43 67.52 -4.77 67.58 -4.77 58.66 -4.13 -5.13 -72.49 -4.41 -62.64 72.68 -5.17 62.56 -4.41 72.68 -5.13 130.07 -9.22 63.61 -4.48 62.89 -72.36 71.68 -5.06 63.42 -4.49 58.76 -4.15 135.14 -9.54 4.77 67.58 130.47 -77.16 62.57 -4.42 72.42 62.82 63.68 -4.53 194.83 6.84 107.9 -125.65 -4.7 -66.54 -4.69 -66.35 61.77 -71.23 75.92 128.2 53.69 -3.81 -4.65 -66.36 -4.73 -66.53 -4.34 -61.53 65.72 -71.5 4.7 66.53 62.58 -4.45 -4.69 -66.53 194.45 -13.72 129.08 -9.14 136.81 -9.67 66.46 -4.69 -9.1 -129.08 -66.5 4.69 -61.98 -57.46 -79.17 5.57 -129.04 9.14 -53.34 65.65 -141.15 -51.9 -67.91 -70.83 -124.11 8.78 -4.72 -66.53 44.59 -132.89 -4.69 -66.36 -53.7 3.81 -128.34 75.74 -128.06 9.07 -5.1 -72.09 -53.37 128.65 -63.06 68.29 -58.43 4.15 -138.89 9.81 -72.01 -58.76 -58.18 135.78 -130.51 72.04 -58.37 76.83 -77.05 -130.12 -63.12 67.33 5.11 72.35 4.76 67.5 -67.31 4.76 -67.45 4.77 -192.75 81.45 -131.45 72.12 -63.05 68.28 -62.48 76.13 -76.94 -130.12 -58.05 67.96 -57.96 139.64 -67.44 4.76 -202.51 14.32 -67.82 -59.08 -72.58 -66.56 -8.91 -126 -77.05 -130.23 -67.46 4.77 -134.88 9.52 -72.65 -67.57 -198.37 14.04 -148.63 -184.01 -4.8 -67.49 -9.52 -134.88 130.19 -77.03 -9.52 -134.98 -13.68 -193.53 -9.89 -139.9 -4.43 -62.48 -139.72 -57.93 -4.51 -63.52 62.48 -76.12 -9.28 -131.06 -72.25 -62.72 -4.44 -62.48 -9.53 -134.85 125.36 -145.59 -9.2 -130.01 67.39 -4.77 72.97 57.84 125.57 -71.86 -9.52 -134.85 -4.8 -67.5 62.55 -72.29 63.06 -68.24 129.94 -80.92 -4.48 -63.53 -4.4 -62.47 121.27 -144.23 62.45 -77.17 58.25 -134.77 -4.47 -63.52 120.63 -211.9 -4.76 -67.49 67.52 -4.77 62.53 -4.43 67.38 -4.77 -4.76 -67.5 -71.9 -58.71 -4.76 -67.53 -9.53 -134.89 -4.76 -67.48 -4.8 -67.5 -66.64 -54.11 -5.04 -71.46 -134.95 9.52 -72.01 -58.62 -60.13 13.08 -57.33 66.81 -66.78 -58.03 -66.57 4.69 -66.53 4.73 -71.44 -65.72 -123.47 142.24 -70.98 -57.75 -61.52 4.37 4.41 62.44 9.06 128.06 9.42 133.03 -133.95 9.46 -61.77 71.19 4.69 66.36 4.73 66.53 -62.09 67.28 9.39 132.99 9.41 132.93 4.7 66.46 70.9 57.89 -61.8 71.19 -57.08 137.62 -61.6 4.34 -57.11 137.73 4.37 61.52 4.41 62.58 9.39 132.86 -128.2 75.92 -66.47 4.72 -57.89 70.91 67.28 62.09 -128.31 75.78 -67.31 -61.95 -57.29 132.75 -133.03 9.42 71.23 61.67 -123.55 143.44 71.19 61.7 -123.36 75.49 -71.3 5.05 -57.22 65.93 -67.52 4.76 -61.81 71.19 -137.62 -57.11 -61.8 71.22 9.13 129.09 199.39 -14.08 9.42 132.89 -61.7 71.16 9.07 128.09 -61.49 76.02 70.87 56.98 -66.5 4.69 9.1 129.01 4.73 66.46 9.39 133 -61.81 71.08 -61.56 4.38 66.25 62.16 4.69 66.5 70.95 57.89 9.03 128.06 71.58 66.6 71.08 61.81 129.33 -75.99 4.69 66.5 4.69 66.5 65.94 57.25 75.7 57.54 4.98 70.27 4.44 62.59 123.65 -71.65 9.1 129.11 71.51 65.73 -119.56 200.06 -61.56 4.34 -66.6 71.4 4.69 66.53 137.59 57.08 -128.13 76.77 -57.22 65.97 -58.11 137.76 -71.22 -61.81 -66.39 4.69 -66.5 4.69 4.69 66.54 4.73 66.46 -118.71 141.96 -66.5 4.69 -137.83 -60.89 -61.53 75 203.8 48.47 -128.16 75.92 75.39 123.37 5.04 71.33 4.38 61.7 -57.26 133.6 4.69 66.53 -61.52 75.14 4.44 62.58 4.69 66.36 71.2 61.81 -62.16 66.25 -57.01 138.75 66.5 -4.69 4.33 61.56 -61.45 75.98 -61.81 71.26 9.07 128.06 -115.15 204.58 4.7 66.46 9.06 128.06 -66.5 4.73 -133.03 9.38 -66.39 4.69 -4.34 -61.52 -133.77 -57.43 -128.31 75.95 -62.05 66.22 66.42 -4.7 -61.38 76.03 -66.5 4.69 -66.5 4.73 -57.22 65.9 9.39 133.03 9.42 132.89 4.41 62.55 -71.3 5.04 -61.7 4.38 -70.77 -57.86 -191.2 76.34 -70.91 -57.85 -61.95 67.27 -70.94 -57.85 61.84 -71.12 -9.42 -133 -4.69 -66.5 -70.88 -56.87 -5 -71.33 -74.83 -56.55 -4.69 -66.53 -4.69 -66.5 66 -67.56 -4.69 -66.5 66.5 -4.69 -4.69 -66.36 -4.7 -66.57 -141.32 -51.82 -14.07 -199.42 -62.55 4.4 -76.03 -61.45 -9.13 -129.08 66.65 -71.54 -76.07 -61.32 -4.41 -62.61 -9.67 -136.95 -4.44 -62.55 -4.69 -66.36 -4.34 -61.73 61.94 -137.9 -76.05 -61.46 -52.96 70.59 -9.38 -133.07 -66.53 4.73 -4.41 -62.58 -4.98 -70.31 -4.41 -62.58 -4.69 -66.47 -9.42 -132.99 -4.34 -61.63 -9.45 -133.85 4.82 -0.34 109.94 -141.33 -200.06 -119.52 -66.5 4.69 -9.07 -128.06 66.5 -4.69 61.81 -71.23 -9.39 -132.89 -66.5 4.73 -61.56 74.96 -61.91 67.31 -123.33 146.34 70.56 52.91 9.42 133 -118.68 141.96 9.46 133.88 -128.66 71.01 -70.73 -56.94 -4.77 -67.38 -133.03 9.42 -57.79 71.79 4.34 61.6 -194.69 80.57 -66.74 71.58 -52.43 133.42 -66.32 75.35 -119.77 71.33 -4.41 -62.54 -128.59 71.93 -132.86 9.42 -199.42 14.07 -9.39 -132.85 -56.69 74.64 -142.8 -60.54 128.69 -138.81 -204.11 -52.46 -138.08 -118.92 -4.76 -67.38 -9.42 -133.03 -4.7 -66.36 58.21 -66.11 4.34 61.7 62.16 -66.43 -9.1 -128.9 61.56 -4.38 -9.7 -136.95 -4.41 -62.58 -128.05 9.07 -118.79 208.91 -67.56 -66 53.45 -133.53 -4.94 -70.27 61.52 -129.15 62.55 -4.41 70.87 56.86 57.19 -65.93 71.44 -5.04 66.43 -4.7 -147.25 -123.26 66.39 -76.34 62.05 -66.28 123.9 -138.47 -128.59 72 -137.86 9.74 -65.97 -58.24 -71.19 -61.81 -4.73 -66.5 66.5 -4.69 61.59 -4.38 -132.78 -57.32 -4.7 -66.47 61.81 -71.26 66.25 62.2 66.75 -71.58 -76.13 -61.42 -70.7 -124.64 -4.34 -61.7 -5.04 -71.33 138.04 61.95 66.39 -4.69 -5.04 -71.33 -137.83 9.73 -70.63 -123.72 -4.69 -66.46 -4.41 -62.58 137.41 53.16 -4.41 -62.58 -76.41 -65.27 -4.44 -62.58 137.86 -9.74 56.97 -70.87 71.33 -5.04 -4.73 -66.5 -71.29 5.04 -66.04 -57.22 -4.69 -66.46 -4.7 -66.39 61.67 -4.38 71.33 -5.04 66.25 62.05 61.81 -71.08 62.55 -4.45 9.42 132.89 60.92 -137.83 133 -9.42 66.5 -4.69 -4.7 -66.5 -71.29 -62.83 61.8 -71.08 57.68 -4.06 137.55 56.97 71.44 -5.04 62.58 -4.45 -71.61 -123.64 -4.69 -66.36 62.58 -4.41 70.31 -4.98 66.5 -4.69 57.85 -70.94 71.19 61.81 66.57 -4.7 -4.73 -66.49 -71.22 -61.81 66.53 -4.73 71.05 61.84 -9.38 -133.03 61.66 -4.37 66.93 -67.6 56.58 -74.68 71.47 65.62 61.56 -75 61.92 -67.28 70.94 57.86 -8.78 -124.11 -5.05 -71.47 66.5 -4.69 66.5 -4.73 48.26 -136.91 66.99 -66.61 -9.14 -129.12 62.59 -4.41 70.45 -4.97 61.8 -71.19 61.39 -75.04 71.47 65.66 4.69 66.46 133.53 53.48 62.09 -67.31 -4.73 -66.46 -4.98 -70.35 -66.49 4.7 -4.41 -62.55 66.5 -4.69 61.66 -71.19 -9.1 -129.09 61.7 -4.34 66.57 -71.57 -9.38 -132.9 -71.3 5.05 -4.69 -66.5 62.51 -129.19 4.09 57.65 66.25 62.16 61.81 -71.19 -4.06 -57.68 -71.51 -65.73 62.09 -67.13 61.53 -75.11 66.43 -4.69 61.8 -71.26 -70.94 -57.85 -4.69 -66.36 66.5 -4.69 133.98 -9.49 -9.03 -128.2 -62.79 71.26 -71.23 -61.81 -71.19 -61.7 133 -9.38 62.79 -71.23 -72.53 -66.57 63.15 -66.46 61.56 -4.34 -4.41 -62.58 -4.7 -66.4 61.71 -71.15 137.68 57.04 61.81 -71.15 61.67 -71.26 62.58 -4.41 66.5 -4.69 -9.1 -129.05 -129.12 9.1 -4.69 -66.39 57.89 -70.91 66.5 -4.73 133.03 -9.38 -4.37 -61.56 -71.55 -66.75 -190.53 85.27 57.53 -75.88 -9.38 -132.89 66.5 -4.7 71.54 66.61 61.46 -76.03 71.4 66.64 -5.05 -71.33 -70.69 -56.83 -66.54 4.69 62.09 -67.27 66.36 -4.69 66.53 -4.73 61.53 -75.11 4.97 70.42 8.75 124.14 9.42 132.89 52.18 -137.27 -4.38 -61.52 -9.38 -133 -4.45 -62.62 61.56 -74.99 4.98 70.3 199.39 -14.07 62.54 -75.07 -71.93 -57.79 -4.69 -66.57 63.15 -66.29 56.87 -70.87 -66.61 -66.96 57.15 -66.92 71.3 -5.04 61.56 -4.34 -13.76 -194.63 62.09 -67.24 8.78 124.14 71.19 61.78 57.47 -132.75 -9.38 -132.9 75.74 128.2 66.96 57.15 -4.38 -61.59 -71.97 -128.45 -9.42 -133 57.9 -70.9 80.15 131.95 52.88 -141.37 66.5 -4.69 71.08 61.8 71.47 65.72 -9.66 -136.9 -70.91 -57.86 -9.07 -128.1 61.46 -76.02 66.5 -4.69 -4.34 -61.6 56.86 -70.84 66.5 -4.69 71.19 61.82 -4.69 -66.55 66.47 -4.69 71.12 61.81 62.83 -71.26 -4.73 -66.5 -4.41 -62.58 56.83 -70.74 75.67 124.25 123.76 -138.32 -71.27 -61.81 66.54 -4.72 -9.39 -133 61.78 -71.19 71.22 61.77 190.78 -80.29 -133.63 -57.29 -4.41 -62.59 57.68 -70.87 71.23 61.74 190 -147.04 71.23 61.8 -63.74 69.23 1.93 1.93 66.54 -4.69 4.41 62.59 4.69 66.38 4.69 66.5 66.32 62.16 4.69 66.5 71.09 61.81 -4.69 -66.5 -14.11 -199.5 128.41 -75.81 -4.41 -62.62 124.42 -142.41 66.54 -4.69 9.41 132.96 4.41 62.58 -61.84 71.12 4.69 66.5 75.96 128.3 56.83 -70.87 -4.69 -66.5 123.61 -142.31 71.02 61.74 133.06 -9.42 9.42 132.99 124.22 -75.6 132.99 -9.38 4.7 66.46 66.53 -4.69 4.73 66.5 4.69 66.53 -61.84 71.09 -66.47 4.69 70.88 57.87 9.42 133.02 -62.13 66.25 66.46 -4.69 133 -9.42 12.07 -9.63 -34.12 202.81 105.87 -7.48 71.19 61.77 133.92 -9.45 -14.11 -199.5 61.52 -4.34 75.95 128.31 66.47 -4.69 57.15 -137.73 53.72 -3.77 79.8 128.02 62.59 -4.44 79.41 124.1 62.12 -67.31 62.05 58.53 4.98 70.31 124.1 -79.45 84.11 64.74 57.68 -4.06 452.72 -32.03 136.77 -80.29 186.76 57.43 213.75 118.57 190.57 -13.48 140.76 102.09 66.42 62.02 -4.65 -66.39 137.54 57.01 71.51 65.72 61.67 53.59 128.94 -67.07 199.6 43.86 5.05 71.4 70.34 -4.98 124.18 -8.78 9.42 132.89 75.67 56.52 53.23 -65.62 9.07 128.06 66.53 -4.69 9.1 129.08 70.95 128.51 -43.04 266.32 -66.54 4.69 4.73 66.53 4.69 66.5 -57.57 4.06 -66.64 71.54 4.34 61.6 -57.54 61.94 -128.52 72 -62.65 4.41 -123.47 142.42 -133 9.42 -124.11 8.75 -132.89 9.38 -4.69 -66.5 -66.46 -62.12 -61.74 71.19 -61.7 71.19 -195.3 -53.02 -133.1 9.42 -133.84 9.45 -66.22 -62.16 -57.68 4.1 -75.42 5.32 -133.32 -53.48 -128.2 -48.86 4.06 57.61 -75.35 5.33 -61.74 -53.55 -142.06 -118.64 -57.65 4.05 -79.16 5.61 -57.65 4.06 62.34 62.44 79.16 -5.61 -70.73 124.78 88.3 123.51 62.34 62.44 133.03 -9.42 4.69 66.43 57.65 -4.1 75.35 -5.32 4.37 61.66 -75.35 5.33 80.36 66.01 57.61 -4.06 66.54 -4.69 204.33 -14.47 62.65 66.36 65.58 53.3 4.44 62.55 67.56 66.04 9.1 128.91 -57.85 70.98 4.69 66.46 66.99 58.17 80.68 127.81 4.34 61.6 71.58 66.74 4.37 61.56 4.7 66.5 66.53 -4.72 8.5 120.26 195.3 52.98 71.09 61.85 57.07 -137.69 66.47 62.09 67.13 62.12 146.33 123.19 57.61 -4.06 133 -9.42 137.23 52.18 58.31 -65.97 127.89 -80.75 -81.04 -256.61 -141.5 -110.81 -66.49 4.69 4.69 66.47 -204.08 -52.39 -61.95 -57.5 -142 -61.74 -4.37 -61.59 65.41 -76.31 -8.79 -124.14 195.09 49.1 199.32 -14.07 62.69 -4.45 4.33 61.6 132.93 -9.42 137.97 61.91 190.04 48.47 138.43 -71.68 57.15 57.85 62.2 -66.28 66.32 -4.69 75.65 56.79 0.2 -0.24 -4.38 -61.63 -85.3 -190.4 -142.24 -123.61 -4.44 -62.55 -128.8 -57.57 -208.95 -118.92 -61.67 -53.59 52.6 -74.47 61.53 -76.06 52.45 -132.4 -9.38 -133.03 67.03 -67.63 120.05 -66.39 52.81 -199.29 56.9 -137.54 -4.69 -66.57 137.79 57.15 132.86 -9.39 53.02 -70.62 147.29 123.15 -62.62 4.45 -65.86 138.32 137.86 -9.77 114.44 -74.9 79.98 61.18 124.42 -75.64 -67.31 -62.09 -151.2 -122.87 66.15 -134.37 62.19 -66.29 -71.58 -66.57 -4.09 -57.82 -80.29 -65.97 -4.73 -66.5 -61.91 -57.5 -124.14 8.78 -133 9.39 -14.43 -204.3 -4.09 -57.64 48.05 -140.9 -57.72 4.06 -4.44 -62.55 -69.82 -44.2 -9.42 -133.04 -4.97 -70.31 -70.91 -57.89 -66.29 -62.12 -142.52 -56.8 137.83 -9.73 -4.72 -66.47 128.09 -9.03 194.7 -80.5 62.62 -4.45 70.9 128.52 132.86 -9.38 71.26 61.84 67.28 62.05 128.55 53.8 -52.67 74.4 -129.08 9.1 4.44 62.59 -194.45 84.52 3.46 48.93 9.13 128.94 4.98 70.42 136.91 48.29 129.15 -9.14 129.19 62.62 217.66 118.18 52.89 -70.59 194.87 -80.47 115.11 -79.9 66.43 -62.65 -4.97 -70.42 -9.14 -128.94 -8.43 -119.38 -133.6 -124.07 53.73 -3.81 66.07 -67.56 123.44 -142.41 -75.03 -61.49 -67.21 -61.99 58.14 -66.14 65.93 -67.42 109.93 -279.93 61.52 -4.34 57.79 -128.87 66.36 -75.46 4.97 70.42 66.22 62.19 133.03 -9.38 -147.15 -190.15 -4.69 -66.5 -4.69 -66.39 62.62 -4.41 4.69 66.36 70.42 -4.98 -9.39 -132.85 -70.45 4.97 57.29 -190.67 62.62 66.18 71.33 -5.05 66.5 -4.69 8.15 115.43 62.51 62.44 -53.13 70.42 9.14 129.11 9.67 136.95 113.98 -208.6 62.09 58.53 81.21 65.02 -4.94 -70.42 -4.45 -62.58 109.86 -141.32 -4.69 -66.5 49 -252.98 -4.69 -66.53 137.79 -9.74 194.59 -13.76 53.06 -137.3 -4.69 -66.5 -8.78 -124.11 -4.98 -70.48 57.15 -137.69 57.12 -66.92 66.92 58.14 75.95 128.3 -61.56 75.18 141.85 114.72 127.99 -9.06 124.18 -133.53 -75.25 -65.48 -62.65 4.45 48.82 -199.99 123.83 -137.37 -67.03 -58.18 -132.93 9.42 -67.31 -133.73 -75.14 -61.53 -70.87 -56.87 61.49 -76.16 -12.53 -176.95 -71.86 -70.53 136.95 -9.7 190.54 -13.47 128.94 -67.03 243.24 -159.67 261.93 -18.52 75.22 -5.29 5.29 75.25 -70.49 71.79 79.27 52.35 71.3 132.57 57.57 -4.09 71.47 -5.04 53.31 -65.73 136.95 -9.7 66.32 -4.69 8.78 124.14 70.28 48.12 57.57 -4.09 80.47 66.15 71.65 123.61 57.64 -4.06 52.5 -132.43 71.4 -5.05 74.68 56.63 62.62 -4.45 -53.48 133.53 129.43 66.43 71.72 124.56 13.76 194.59 80.01 185.92 -57.15 137.72 -114.72 141.64 -53.48 133.56 146.65 309.78 18.8 266.03 -47.73 199.81 -62.58 4.45 9.41 132.96 13.48 190.53 18.52 262.08 -65.4 75.28 -132.93 9.42 4.44 62.55 4.98 70.45 132.93 -9.42 78.21 106.54 72.28 132.36 65.58 53.31 9.77 137.83 71.62 123.61 -4.34 -61.56 75.6 123.37 9.14 129.11 70.23 -4.97 90.77 323.67 71.16 61.67 128.83 57.75 4.7 66.5 137.61 57.11 62.09 57.47 84.32 248.53 75.1 61.42 66.96 57.26 76.48 137.05 8.5 120.23 133.85 128.02 70.91 57.86 13.83 195.61 208.77 118.75 75.88 128.34 79.17 243.94 151.62 256.51 76.38 190.14 62.15 -66.28 65.9 57.22 4.41 62.44 71.34 -5.05 71.08 128.66 72.07 61.74 66.15 128.87 8.78 124.28 137.87 -9.73 5.04 71.29 13.76 194.63 4.69 66.32 79.41 110.39 5.05 71.33 -71.26 5.04 -62.16 66.4 -61.99 137.9 151.73 185.87 85.34 194.31 13.76 194.46 -71.26 5.04 -62.13 67.28 70.91 56.97 143.83 200.02 79.87 185.95 128.09 -9.03 252.59 -152.4 66.25 -61.77 57.68 -4.06 129.12 -9.13 61.42 -75.99 70.41 -4.98 5.05 71.3 132.92 47.66 71.09 129.54 -53.17 123.54 -62.16 134.13 4.73 66.5 9.67 136.81 -53.24 66.67 -74.86 -57.61 -70.83 -56.87 -182.42 74.76 -132.4 72.28 13.76 194.52 213 248.25 124.71 -71.72 189.83 -80.25 190.75 -80.15 124.07 -204.37 109.43 -274.95 -4.73 -66.5 61.92 -67.24 9.13 129.08 14.08 199.39 128.9 57.68 71.19 61.84 -52.74 199.14 18.17 257.18 142.74 128.37 4.34 61.6 71.19 61.81 76.05 61.45 3.78 53.69 9.07 128.1 142.48 195.26 137.87 115 119.24 -8.43 62.4 -62.3 132.08 -146.82 62.59 -4.41 57.6 -4.1 76.2 132.12 4.06 57.61 204.47 57.36 66.47 -4.73 124.17 -8.75 190.61 -13.47 132.82 -81.18 62.41 -62.33 61.59 -4.34 141.99 119.66 66.78 123.86 9.39 133 -53.02 70.62 -181.01 204.37 -199.64 80.96 -114.3 79.76 9.07 128.06 4.41 62.59 -71.27 5 -61.52 4.38 -257.92 76.13 -133.06 9.38 -66.08 -116.1 -67.31 -62.12 -137.05 76.59 -62.06 67.24 -48.79 61.34 61.92 124.36 -119.24 8.43 9.38 132.89 -129.04 9.1 -133.07 -61.24 -66.36 75.35 -66.46 4.7 75.95 129.32 -133 9.42 -124.14 8.75 62.34 62.3 4.37 61.7 -57.64 4.1 4.69 66.35 4.69 66.5 -57.43 133.81 -199.25 -52.77 -337.64 -39.02 -57.68 4.09 4.44 62.58 62.34 62.41 9.42 132.89 -62.09 -58.38 -70.42 4.97 -129.01 9.1 -71.58 -65.68 -194.45 13.75 -133.77 -57.39 -70.91 -57.89 -128.06 9.06 -66.39 4.69 -48.68 133.18 4.97 70.41 -147.46 -127.17 -71.33 5.04 -119.42 75.25 -52.31 137.23 -62.55 129.36 -122.73 84.25 -67.91 -70.77 -65.97 -58.25 -71.33 5.05 4.41 62.58 5.32 75.21 -52.81 128.52 -114.83 141.68 -62.9 124.35 -65.9 67.52 -129.08 9.1 19.09 269.84 4.41 62.59 4.69 66.39 -128.06 9.07 -128.66 71.08 137.76 57.96 80.26 189.94 70.7 124.53 4.72 66.57 -118.39 145.94 -67.59 -66 -141.5 -56.8 -66.5 -120.09 -137.97 -61.91 -110.35 204.26 61.6 -4.37 14.11 199.46 -61.6 4.37 -56.8 141.5 74.37 106.82 66.57 65.9 13.48 190.68 -56.59 75.7 66.6 66.04 199.25 40.04 -118.81 208.78 9.38 132.89 13.48 190.64 62.16 -66.29 124.14 -8.75 141.15 51.9 5.36 75.39 9.1 128.9 66.92 57.19 132.79 57.39 57.89 -70.87 -4.34 -61.6 136.81 -9.66 66.28 -76.34 133.6 124.1 270.26 168.56 208.81 118.92 66.36 62.09 -61.67 4.38 -66.99 66.64 -51.79 142.13 137.23 52.18 61.67 -4.34 124.11 -8.79 85.16 190.54 -61.91 137.93 -61.46 -62.51 -58 137.8 -57.57 62.02 -66.64 71.5 -118.67 142.07 -66.96 -57.26 -61.52 4.34 9.03 128.06 -61.56 142.87 12.84 181.93 75.67 56.52 -66.29 76.34 9.07 128.06 -56.94 70.9 4.44 62.55 -48.01 265.68 132.79 57.4 75.99 61.52 56.86 -70.91 -4.69 -66.46 200.06 119.52 137.69 57.08 4.09 57.64 67.38 -4.76 66.47 133.81 9.13 129.12 76.31 65.22 70.63 53.06 18.16 257.04 138.47 123.89 137.55 57.12 194.98 115.81 75.63 56.62 141.5 56.73 191.49 53.3 7.41 2.79 133.91 50.13 57.65 -4.06 76.23 65.37 66.04 58.25 67.28 61.95 84.73 127.67 67.17 62.12 128.24 -9.07 75.35 123.37 124.21 -8.78 133 -9.39 133.1 -76.27 62.34 62.44 4.8 67.42 -129.01 9.1 -63.08 52.56 -56.8 142.53 -62.05 67.27 4.69 66.54 71.19 61.77 4.98 70.34 9.1 129.05 4.37 61.59 -66.5 4.69 75.6 124.39 71.51 65.58 4.41 62.59 9.07 128.06 -57.12 137.72 -9.42 -133 -66.46 4.69 4.69 66.5 4.69 66.5 -52.95 70.59 67.07 128.84 137.72 57.04 -62.76 58.42 71.23 61.84 -261.91 -48.36 -66.32 4.69 -66.71 71.58 -123.96 -58.1 -141.71 -43.96 62.58 -4.41 133.1 -76.24 -4.37 -61.59 -72.18 -133.39 -80.05 -61.17 75.36 -5.32 -9.07 -128.1 -80.05 -61.17 -133.56 -124.07 -71.26 5.01 -48.29 136.95 -136.88 9.7 -53.48 132.47 -57.22 137.72 4.72 66.5 -118.53 141.96 -133.1 76.2 3.77 53.72 4.73 66.54c-14.76,41.79 -29.51,83.59 -44.27,125.38l-4.13 11.67 -128.09 9.07 -128.52 70.94 -57.79 4.06 -137.79 9.77 -195.44 13.8 -66.04 -57.15 -137.94 -62.09 -199.7 -114.62 -3.81 -53.69 -137.62 -57.08 -66.47 4.69 -129.04 9.14 -4.38 -61.63 -75.39 -66.33 -61.41 76.03 -62.62 4.41 -61.6 4.34 -66.46 4.72 -62.58 4.41 -70.42 4.98 -71.43 -66.61 -67.14 -128.9 -4.69 -66.54 48.68 -132.15 -62.16 -58.49 -4.97 -70.27 -199.88 -48.79 -128.1 9.07 -67.52 4.76 -4.69 -66.5 -4.34 -61.6 -70.27 4.98 -133.85 -57.36 -56.83 70.84 -62.58 4.4 -65.97 66.57 -253.23 17.89 -75.42 5.33 -57.57 4.09 4.69 66.5 -66.54 4.69 -4.69 -66.5 -4.34 -61.56 57.4 -133.77 57.61 -4.06 -4.98 -70.34 -62.3 -62.41 -141.99 -119.7 -66.29 -62.01 -83.78 -114.02 -4.76 -67.38 -62.37 -62.45 -129.05 9.11 -61.6 4.37 -9.06 -128.09 -137.8 9.73 -71.54 -66.74 -62.58 4.44 -65.2 76.42 -62.61 4.4 -66.64 -67.09 -66.5 4.72 -62.59 4.41 -207.61 -47.2 -209.19 -248.49 -133.07 9.41 -67.24 -62.08 -66.22 -62.06 -128.97 9.14 -137.37 -52.28 -4.7 -66.36 -132.99 9.38 -70.84 -57.89 -62.12 67.31 -119.28 8.43 -4.41 -62.61 -80.96 -61.11 -127.95 9.04 -57.79 4.09 -142.49 -56.76 -132.78 -57.44 -4.69 -66.42 56.94 -195.58 129.01 -9.14 -9.07 -128.02 -75.74 -57.58 66.6 -71.58 -9.73 -137.79 62.4 -62.34 61.88 53.55 75.32 66.36 52.6 -75.39 -61.74 -53.58 -9.38 -133 62.33 62.48 71.58 -71.93 61.67 -4.38 -200.31 -52.63 -4.34 -61.63 -74.96 -61.39 -195.58 13.83 -62.38 -62.44 -4.69 -66.5 57.65 -4.06 66.92 -67.62 66.46 -4.66 132.5 53.48 129.51 -72 -81 -61.17 -61.98 -57.47 52.95 -70.59 132.89 -81.07 119.77 -70.34 -5.04 -71.44 -7.8 -110.49 -124.14 8.78 -57.58 62.16 -125.16 133.6 -70.28 4.97 -8.74 -124.14 -54.09 56.76 -138.16 41.66 -122.68 48.58z"/>
   <polygon class="fil0 str0" points="29039.07,25344.22 29030.35,25344.85 "/>
   <polygon class="fil0 str0" points="26271.03,25143.06 26351.01,25204.13 26394.86,25005.62 26390.41,24943.04 26514.03,24800.62 26647.02,24791.24 26651.72,24857.74 26775.93,24848.95 26908.78,24839.57 27033.17,24763.93 27028.45,24697.43 26961.17,24635.45 26956.83,24573.93 27019.42,24569.48 27014.37,24498.01 26951.79,24502.45 26814.95,24512.12 26686.99,24592.98 26637.64,24658.31 26575.87,24729.43 26318.73,24747.6 26314.04,24681.21 26234.41,24624.97 26105.76,24695.92 26043.74,24638.45 26038.69,24566.98 25972.23,24571.67 25909.65,24576.11 25905.55,24518.51 25901.46,24460.72 25829.95,24395.14 25750.26,24337.88 25702.07,24474.83 25644.64,24536.92 25640.55,24479.17 25572.96,24413.31 25497.71,24418.63 25493.26,24356.05 25435.55,24360.11 25444.93,24493 25449.03,24550.75 25386.69,24613.08 25263.68,24693.59 25268.01,24755.11 25130.22,24764.89 25068.38,24835.97 25073.07,24902.47 24953.65,24977.75 24958.35,25044.25 25077.76,24968.97 25144.33,24964.28 25210.65,24959.58 25286.82,25021.04 25419.32,25074.59 25481.27,25007.28 25485.71,25069.9 25552.49,25193.83 25499.47,25264.31 25566.29,25389.34 25513.55,25463.81 25517.99,25526.43 25713.57,25512.6 25779.79,25574.62 25974.52,25494.15 26023.28,25294.12 26085.05,25222.93 26138,25152.45 26266.66,25081.4 "/>
   <polygon class="fil0 str0" points="24830.25,7470.1 24962.76,7523.65 24967.73,7594.06 25110.32,7650.86 25238.42,7699.72 25300.89,7637.38 25229.67,7575.54 25286.78,7437.82 25282.09,7371.32 25277.4,7304.96 25202.43,7190.34 25078.4,7199.09 24936.09,7146.28 24865.67,7151.26 24870.08,7213.84 24820.87,7337.24 "/>
   <polygon class="fil0 str0" points="24830.25,7470.1 24962.76,7523.65 24967.73,7594.06 25110.32,7650.86 25238.42,7699.72 25300.89,7637.38 25229.67,7575.54 25286.78,7437.82 25282.09,7371.32 25277.4,7304.96 25202.43,7190.34 25078.4,7199.09 24936.09,7146.28 24865.67,7151.26 24870.08,7213.84 24820.87,7337.24 "/>
   <polygon class="fil0 str0" points="18746.85,16852.29 18818.32,16847.25 18884.82,16914.34 18889.19,16975.9 18956.15,16909.3 18951.11,16837.86 19079.2,16828.8 19141.78,16824.39 19137.72,16766.78 19194.59,16695.87 19265.82,16620.2 19123.61,16567.35 18942.32,16713.72 18861.61,16585.87 18804.6,16652.83 18809.54,16723.07 18814.26,16789.64 18685.25,16856.67 "/>
   <polygon class="fil0 str0" points="18980.46,16376.96 18989.52,16505.05 19051.61,16438.77 19109.5,16367.86 19105.73,16314.13 18971.95,16256.77 18915.05,16327.6 18843.72,16332.65 18847.53,16386.38 18918.86,16381.33 "/>
   <polygon class="fil0 str0" points="9223.65,29818.96 9152.46,29757.29 9147.73,29690.76 9076.68,29628.99 9014.87,29700.14 9019.6,29766.67 8886.57,29776.09 8823.98,29780.5 8757.63,29785.2 8762.32,29851.55 8891.26,29842.45 8961.67,29837.48 9033.68,29966.06 9100.17,29961.34 9104.62,30023.88 9170.98,30019.23 9233.03,29951.95 9228.34,29885.45 9294.84,29880.76 9356.64,29809.54 9290.14,29814.26 "/>
   <polygon class="fil0 str0" points="9875.12,29639.32 9807.74,29644.08 9741.24,29648.81 9670.05,29587.04 9603.55,29591.73 9608.24,29658.2 9679.44,29720.04 9745.93,29715.35 9817.16,29777.01 9884.54,29772.25 9879.85,29705.89 "/>
   <polygon class="fil0 str0" points="8115.25,30093.84 8053.69,30098.18 8058.39,30164.71 7925.39,30174.13 7930.08,30240.49 7934.77,30306.99 8063.08,30231.07 8124.67,30226.73 8119.98,30160.37 8186.59,30088.8 "/>
   <line class="fil0 str0" x1="7180.57" y1="9364.12" x2="7185.26" y2= "9430.62" />
   <line class="fil0 str1" x1="7180.57" y1="9364.12" x2="7185.26" y2= "9430.62" />
   <polygon class="fil0 str1" points="4460.18,10211.74 4526.73,10277.71 4602.72,10339.17 4668.71,10397.41 4735.22,10392.72 4802.6,10387.96 4807.58,10458.26 4811.99,10520.81 4816.69,10587.35 4821.04,10648.91 4887.45,10711.03 5029.79,10835.53 5101.23,10830.48 5162.79,10826.14 5167.76,10896.56 5171.85,10954.2 5305.52,11011.6 5380.66,11073.12 5375.93,11006.62 5437.74,10935.4 5442.47,11001.93 5508.97,10997.2 5628.38,10921.92 5699.71,10916.91 5837.3,10974.03 5894.31,10903.15 5970.29,10964.61 6099.38,10955.47 6104.07,11022 6227.47,10946.44 6294.04,10874.9 6431.8,10931.97 6489.41,10927.92 6555.13,10856.44 6626.21,10918.25 6630.94,10984.75 6692.75,10913.56 6759.25,10908.83 6883.64,10833.2 6936.13,10700.8 7012.43,10766.17 7073.99,10761.79 7211.79,10752.06 7202.41,10619.06 7263.89,10543.07 7325.42,10538.73 7320.73,10472.2 7316.39,10410.64 7379.18,10339.38 7374.77,10276.8 7302.28,10211.28 7297.87,10148.7 7293.18,10082.17 7165.08,10091.23 7160.11,10020.93 7222.58,9958.45 7288.2,10011.86 7284.11,9954.11 7217.86,9891.95 7213.17,9825.56 7208.47,9759.06 7332.83,9683.42 7328.14,9616.96 7265.31,9688.19 7137.25,9697.25 7132.56,9630.79 7128.11,9568.21 7189.95,9497.09 7185.26,9430.62 7047.64,9373.51 7052.37,9440.01 6985.62,9511.55 6928.76,9582.28 6857.42,9587.33 6791.17,9525.27 6786.48,9458.81 6662.09,9534.41 6533.79,9610.19 6467.36,9614.88 6519.67,9410.83 6448.59,9348.99 6453.28,9415.52 6392.29,9553.46 6396.98,9619.85 6343.78,9686.53 6267.86,9628.99 6258.48,9496.13 6325.26,9424.56 6316.12,9295.47 6239.68,9230.21 6183.09,9304.89 6106.82,9239.59 6111.79,9309.94 6054.64,9376.82 5992.84,9448.05 5925.31,9452.85 5920.59,9386.31 5916.18,9323.73 5906.79,9190.84 5840.86,9133.65 5778.35,9262.84 5726.03,9400.07 5654.73,9405.12 5650.32,9342.53 5588.73,9346.91 5517.4,9351.92 5407.12,9556.28 5402.43,9489.82 5335.89,9494.51 5331.2,9427.98 5393.29,9360.7 5388.32,9290.39 5383.91,9227.81 5374.49,9094.81 5440.85,9090.12 5498.63,9086.03 5560.54,8948.09 5489.21,8953.14 5484.87,8891.58 5551.51,8820 5547.07,8757.45 5537.4,8620.65 5399.18,8500.67 5266.33,8510.05 5337.52,8571.89 5413.29,8700.06 5346.94,8704.75 5351.63,8771.28 5356.04,8833.83 5360.73,8900.36 5298.61,8966.61 5227.73,8909.78 5218.63,8780.67 5152.59,8848.19 5143.45,8719.14 5134.07,8586.28 5138.48,8648.83 5075.93,8653.24 5005.13,8595.39 5019.21,8794.74 4881.49,8737.66 4957.65,8799.12 5023.61,8857.32 4895.33,8933.24 4833.75,8937.62 4829.05,8871.08 4824.62,8808.5 4748.64,8747.05 4753.34,8813.54 4757.75,8876.13 4696.05,8880.47 4691.63,8817.92 4628.67,8885.23 4633.37,8951.76 4700.75,8947 4762.46,8942.66 4838.1,8999.14 4971.12,8989.76 5037.73,9056.71 5108.49,9113.62 5113.54,9185.05 5176.09,9180.64 5246.54,9175.67 5255.32,9299.78 5184.87,9304.79 5051.48,9251.31 4918.47,9260.69 4994.33,9318.23 5060.87,9384.2 5131.71,9442.05 5070.01,9513.28 5008.45,9517.65 4932.29,9456.16 4866.3,9397.96 4795,9403 4660.94,9341.79 4528.44,9288.28 4400,9360.24 4404.97,9430.55 4537.84,9421.17 4665.9,9412.14 4737.72,9469.92 4742.43,9536.46 4804.13,9532.08 4808.82,9598.58 4813.52,9665.04 4756.51,9735.81 4765.63,9864.89 4822.64,9794.05 4827.34,9860.52 4770.33,9931.39 4707.64,10002.65 4641.15,10007.34 4579.57,10011.72 4508.27,10016.76 4451.4,10087.5 4375.23,10026.15 4323.1,10163.41 4388.71,10216.82 "/>
   <polygon class="fil0 str0" points="4868.39,19480.45 4842.48,19494.74 4807.14,19498.86 4812.68,19577.43 4598.64,19592.57 4529.79,19597.42 4457.37,19671.73 4462.53,19744.73 4539.82,19739.25 4686.02,19728.93 4764.35,19796.92 4691.19,19802.08 4613.86,19807.55 4545.01,19812.44 4472.86,19891.06 4409.18,19969.09 4482.82,20031.93 4555.34,19958.78 4628.98,20021.6 4565.28,20099.49 4570.45,20172.59 4639.3,20167.74 4716.65,20162.28 4575.62,20245.82 4794.96,20230.3 4799.84,20299.09 4805,20372.24 4941.83,20289.08 5009.55,20284.28 5093.32,20351.87 5239.47,20341.55 5302.02,20263.63 5380.32,20331.58 5522.36,20321.57 5517.2,20248.42 5595.63,20242.87 5658.49,20169.26 5663.34,20238.06 5741.92,20232.51 5804.78,20158.93 5877.82,20153.77 6024.11,20143.41 6170.41,20133.09 6306.96,20123.42 6390.28,20186.67 6531.57,20107.55 6594.28,20029.56 6589.12,19956.44 6667.54,19950.9 6730.1,19873.1 6725.33,19805.38 6799.6,19800.14 6794.44,19726.95 6789.28,19653.8 6784.08,19580.65 6852.1,19502.46 6847.22,19433.62 6841.67,19355.04 6904.62,19282.51 6894.29,19136.33 6889.4,19067.52 6961.31,18985.67 6963.07,18983.64 7025.22,18910.87 7021.72,18904.74 7079.66,18838.97 7142.21,18761.04 7220.64,18755.5 7288.39,18750.68 7278.35,18608.69 7351.76,18530.15 7356.92,18603.14 7362.09,18676.33 7429.81,18671.56 7424.64,18598.38 7419.48,18525.34 7346.61,18457 7273.18,18535.7 7200.31,18467.32 7262.86,18389.4 7341.45,18383.81 7336.63,18316.09 7331.08,18237.63 7242.57,18102.32 7237.41,18029.21 7232.21,17956.02 7164.49,17960.79 7086.06,17966.35 7018.34,17971.12 7013.46,17902.32 6939.19,17907.55 6870.89,17981.56 6812.57,17980.2 6805.8,17974.34 6740.03,17917.3 6807.79,17912.53 6886.21,17906.97 6948.77,17829.17 6876.17,17765.1 6792.2,17692.06 6797.74,17770.65 6730.02,17775.42 6656.87,17780.58 6582.6,17785.86 6430.87,17717.61 6368.55,17800.95 6222.41,17811.32 6148.79,17885.71 6090.43,17963.24 5875.92,18046.4 5954.23,18114.43 6105.92,18182.64 6169.47,18178.14 6110.72,18250.4 5964.59,18260.76 5969.75,18333.87 5974.91,18406.9 5829.11,18486.42 5755.46,18422.43 5609.52,18359.32 5604.35,18286.22 5520.96,18224.01 5447.7,18150.25 5301.4,18160.57 5237.6,18312.14 5164.45,18317.3 5242.8,18385.25 5247.96,18458.28 5252.81,18527.13 5184.83,18605.44 5122.28,18683.39 5043.85,18688.94 4981.26,18766.75 5059.33,18908.23 5064.14,18975.98 5142.57,18970.44 5152.58,19112.38 5215.45,19038.77 5362.75,19028.38 5430.62,19023.6 5435.47,19092.41 5373.08,19174.71 5298.96,19179.94 5084.51,19264.24 4948.5,19420.78 4802.34,19431.14 "/>
   <polygon class="fil0 str0" points="12955.33,28335.03 12945.91,28202.03 12941.5,28139.49 12936.46,28068.19 12905.66,28008.43 12872.29,27979.4 12859.41,27994.04 12800.85,27984.44 12736.54,28020.39 12666.23,28025.36 12635.92,28041.27 12607.74,28087.45 12539.16,28118.78 12486.56,28194.31 12444.68,28241.44 12462.5,28298.1 12453.82,28370.49 12472.48,28439.88 12502.89,28495.72 12507.58,28562.11 12514.15,28584.34 12471.99,28627.55 12517,28695.15 12569.99,28749.33 12574.68,28815.8 12619.1,28875.56 12663.83,28881.2 12731.1,28943.29 12726.41,28876.76 12792.03,28805.43 12787.62,28742.84 12840.75,28605.4 12836.06,28538.9 12831.36,28472.51 12893.52,28406.26 "/>
   <polygon class="fil0 str0" points="12905.98,29528.27 12963.09,29390.68 12958.05,29319.21 12891.55,29323.9 12887.14,29261.46 12820.22,29204.21 12882.76,29199.8 12815.17,29132.87 12740.52,29076.32 12735.83,29009.79 12677.94,29080.73 12607.53,29085.71 12611.87,29147.23 12549.28,29151.68 12482.89,29156.37 12426.23,29232.04 12354.94,29237.08 12221.94,29246.5 12159.89,29312.86 12092.96,29255.61 12097.34,29317.27 12035.25,29384.44 12040.29,29455.91 12044.63,29517.44 12120.55,29645.6 12125.24,29712.14 12134.38,29841.22 12196.93,29836.77 12329.82,29827.39 12268.01,29898.51 12206.31,29969.7 12211,30036.2 12215.73,30102.7 12157.52,30168.7 12091.02,30173.39 12162.21,30235.2 12105.1,30372.78 12176.33,30434.55 12181.02,30501.09 12185.43,30563.71 12319.09,30621.03 12385.59,30616.34 12452.09,30611.65 12447.4,30545.18 12442.99,30482.57 12509.56,30410.99 12642.34,30468.49 12704.93,30464.08 12779.79,30521.69 12837.93,30454.66 12833.23,30388.13 12823.85,30255.27 12814.47,30122.24 12875.71,29989.21 12871.02,29922.71 12866.29,29856.21 12861.6,29789.82 12856.9,29723.35 12852.49,29660.74 12915.04,29656.33 12976.85,29585.1 12972.47,29523.54 "/>
   <polygon class="fil0 str0" points="16262.48,31131.11 16139.08,31206.68 16006.08,31216.1 15944.42,31287.25 15868.29,31225.83 15806.73,31230.21 15740.09,31301.68 15682.34,31305.77 15615.94,31310.47 15549.45,31315.16 15421.14,31391.11 15288.25,31400.49 15150.52,31343.38 15016.89,31286.02 14945.67,31224.18 14812.67,31233.6 14684.51,31309.51 14679.81,31242.98 14613.81,31184.88 14546.82,31252.36 14485.22,31256.7 14494.64,31389.73 14428,31461.31 14432.69,31527.78 14508.4,31584.33 14646.44,31646.27 14708,31641.94 14783.67,31698.42 14982.92,31751.12 15054.15,31812.96 15130.98,31942.11 15263.87,31932.73 15329.91,31989.92 15462.8,31980.5 15600.25,32033.7 15605.22,32104.14 15681.14,32232.27 15809.65,32286.11 15876.58,32218.48 16014.02,32271.68 16004.6,32138.79 16133.05,32066.82 16123.66,31933.79 16057.16,31938.52 16119.32,31872.26 16052.79,31876.96 16047.78,31805.62 16043.33,31743.04 16105.14,31671.82 16100.45,31605.35 16096.11,31543.83 16091.07,31472.46 16153.19,31406.17 16214.78,31401.8 16271.86,31264.11 16267.17,31197.65 "/>
   <polygon class="fil0 str0" points="7495.71,19492.62 7433.12,19497.07 7442.15,19625.12 7504.74,19620.71 7566.3,19616.38 7633.25,19549.74 7557.23,19488.28 "/>
   <polygon class="fil0 str0" points="8415.75,21668.59 8282.75,21678.01 8353.94,21739.82 8420.44,21735.12 8486.94,21730.4 8482.25,21663.9 "/>
   <polygon class="fil0 str0" points="9226.72,15809.83 9222.02,15743.33 9217.61,15680.75 9212.92,15614.36 9147.31,15685.73 9080.77,15690.42 9151.71,15748.31 "/>
   <polygon class="fil0 str0" points="9965.4,15098.42 10036.55,15160.23 10040.93,15221.79 9979.15,15293.01 10107.46,15217.1 10103.09,15155.54 10164.75,15084.31 10160.06,15017.85 10155.37,14951.31 10150.68,14884.96 10141.54,14755.87 10089.01,14956 10093.7,15022.5 9960.7,15031.92 "/>
   <polygon class="fil0 str0" points="7458.52,16202.05 7462.58,16259.66 7524.92,16125.67 7586.93,16059.42 7657.81,16116.29 7662.85,16187.62 7719.37,16111.95 7714.99,16050.36 7777.47,15974.16 7843.97,15969.46 7839.63,15907.87 7896.5,15837.03 7892.09,15774.45 7834.94,15841.41 7768.4,15846.1 7639.36,15855.2 7648.42,15983.29 7577.51,15926.39 7572.82,15859.93 7511.16,15931.08 7515.53,15992.68 7453.48,16130.72 "/>
   <polygon class="fil0 str0" points="7790.98,18946.1 7785.94,18874.77 7715.13,18816.91 7648.11,18884.54 7591.59,18960.21 7657.52,19017.54 "/>
   <polygon class="fil0 str0" points="7672.48,16392.27 7544.18,16468.19 7548.52,16529.75 7553.56,16601.04 7681.51,16520.33 7677.17,16458.77 "/>
   <polygon class="fil0 str0" points="7806.36,16382.81 7748.51,16453.72 7681.51,16520.33 7629.2,16657.59 7695.62,16719.72 7700.32,16786.25 7762.26,16648.21 7757.89,16586.58 7752.84,16515.32 7811.05,16449.31 "/>
   <line class="fil0 str0" x1="7604.33" y1="17319.58" x2="7599.92" y2= "17257" />
   <polygon class="fil0 str1" points="7523.68,17123.89 7592.44,17151.27 7590.18,17119.17 "/>
   <polygon class="fil0 str0" points="7592.44,17151.27 7594.87,17185.67 7533.42,17261.69 7599.92,17257 7671.21,17251.95 7666.24,17181.57 7664.23,17179.85 "/>
   <polygon class="fil0 str0" points="6306.24,21581.91 6435.18,21572.81 6372.64,21577.22 "/>
   <polygon class="fil0 str0" points="7491.82,20259.31 7429.77,20325.53 7368.32,20401.55 7296.77,20334.95 7235.32,20410.97 7172.74,20415.38 7106.38,20420.07 7039.85,20424.77 6968.3,20358.16 6906.85,20434.19 6911.19,20495.74 6849.42,20566.94 6982.41,20557.55 7048.91,20552.86 7053.32,20615.44 6986.82,20620.13 6991.55,20686.67 7124.55,20677.25 7186.21,20606.06 7248.8,20601.61 7315.29,20596.92 7319.99,20663.42 7325.03,20734.72 7329.41,20796.31 7462.4,20786.89 7528.8,20782.2 7467.45,20858.33 7538.21,20915.23 7613.04,20972.84 7670.65,20968.75 7803.68,20959.37 7870.14,20954.67 7933.15,20887.33 8042.65,20865.81 8104.21,20861.47 8047.34,20932.31 7985.61,21004.42 7919.21,21009.11 7852.75,21013.8 7790.56,21080.05 7795.25,21146.58 7728.75,21151.28 7599.81,21160.38 7533.28,21165.11 7466.78,21169.8 7395.59,21107.99 7329.09,21112.68 7324.71,21051.12 7258.36,21055.81 7196.66,21060.15 7130.3,21064.85 7200.99,21121.75 7139.36,21192.94 7067.12,21131.2 7000.62,21135.9 7005.31,21202.39 6948.09,21336.2 6815.09,21345.59 6625.47,21429.65 6629.88,21492.24 6563.49,21496.93 6435.18,21572.81 6444.57,21705.7 6511.07,21701.01 6577.6,21696.32 6572.91,21629.96 6639.3,21625.23 6643.99,21691.63 6705.8,21620.54 6829.17,21544.98 6966.86,21602.09 7099.75,21592.71 7104.44,21659.06 7176.65,21720.8 7304.71,21711.73 7366.38,21640.54 7361.72,21574.19 7356.99,21507.65 7418.8,21436.5 7489.99,21498.23 7556.52,21493.54 7623.02,21488.85 7685.46,21484.44 7751.96,21479.75 7823.19,21541.59 7894.41,21603.22 7899.11,21669.72 7965.57,21665.03 8027.27,21593.84 8155.33,21584.81 8226.55,21646.61 8359.55,21637.19 8354.86,21570.69 8417.55,21499.57 8488.74,21561.24 8555.03,21623.36 8621.53,21618.67 8687.88,21613.98 8692.22,21675.5 8825.25,21666.12 8891.79,21661.43 8958.29,21656.7 9020.73,21652.29 9091.92,21714.13 9158.45,21709.44 9229.64,21771.25 9357.81,21695.37 9424.31,21690.64 9490.59,21752.8 9552.4,21681.61 9614.17,21610.35 9685.5,21605.3 9743.71,21539.37 9805.52,21468.14 9734.33,21406.48 9671.78,21410.92 9605.14,21482.32 9533.95,21420.66 9467.45,21425.35 9401.16,21363.15 9329.97,21301.38 9325.53,21238.8 9392.06,21234.11 9453.62,21229.77 9524.53,21287.66 9586.62,21220.35 9581.65,21150.04 9515.15,21154.73 9577.55,21092.29 9648.88,21087.25 9711.47,21082.8 9777.97,21078.11 9772.92,21006.78 9839.42,21002.09 9900.98,20997.71 9962.79,20926.52 10024.84,20860.27 10020.08,20792.89 10082.45,20659.75 10077.76,20593.25 10068.37,20460.26 9992.21,20398.8 9854.62,20341.79 9726.57,20350.86 9655.62,20293 9597.48,20359.96 9526.15,20365.01 9464.35,20436.09 9393.16,20374.39 9388.75,20311.84 9384.02,20245.34 9450.52,20240.65 9512.32,20169.43 9578.96,20097.92 9574.62,20036.32 9569.58,19965.03 9565.24,19903.43 9489.22,19842.01 9484.49,19775.48 9347.08,19722.31 9285.49,19726.65 9280.51,19656.35 9342.11,19652.01 9408.61,19647.28 9480.08,19712.9 9456.87,19384.46 9452.18,19318.07 9447.48,19251.53 9442.76,19185.07 9371.57,19123.23 9366.87,19056.87 9300.38,19061.56 9234.44,19004.2 9167.94,19008.93 9163.25,18942.53 9153.83,18809.54 9149.14,18743.04 9211.23,18675.73 9206.54,18609.37 9135.66,18552.36 9130.62,18481.1 9126.28,18419.51 9183.36,18281.82 9112.45,18223.89 9036.67,18095.73 9031.7,18107.76 8957.4,17990.35 8886.25,17928.51 8815.41,17870.62 8748.91,17875.31 8620.85,17884.38 8558.27,17888.79 8483.13,17827.26 8416.77,17831.96 8412.43,17770.4 8478.79,17765.7 8553.58,17822.29 8616.13,17817.88 8686.61,17812.91 8682.24,17751.31 8806.38,17742.56 8867.73,17666.57 8801.34,17671.26 8730.11,17609.42 8672.5,17613.52 8668.09,17550.93 8792.2,17542.15 8858.59,17537.46 8929.5,17595.35 8996.53,17527.72 9058.12,17523.38 9053.15,17453.07 9178.1,17386.19 9243.4,17309.91 9239.03,17248.32 9164.03,17186.8 9229.64,17115.29 9292.23,17110.88 9287.53,17044.52 9358.83,17039.48 9415.98,16972.55 9411.29,16906.02 9406.56,16839.52 9345,16843.86 9273.71,16848.9 9211.12,16853.35 9206.43,16786.85 9131.39,16725.29 9068.85,16729.74 8940.79,16738.77 8869.32,16743.81 8736.42,16753.23 8669.93,16757.92 8546.56,16833.49 8484.01,16837.9 8479.32,16771.4 8474.63,16705.04 8469.9,16638.47 8598.56,16567.56 8656.2,16563.47 8651.48,16496.97 8713.28,16425.78 8779.68,16421.09 8846.14,16416.4 8913.2,16348.74 8969.72,16273.07 9098.8,16263.93 9094.11,16197.47 9160.32,16134.85 9085.04,16069.41 9022.49,16073.82 8955.99,16078.51 8951.55,16015.93 8822.93,16087.93 8685.66,16034.73 8680.69,15964.42 8619.16,16039.42 8556.54,15973.17 8614.19,15969.11 8481.68,15915.6 8419.14,15920.04 8423.55,15982.59 8362.48,16120.45 8432.93,16115.48 8367.45,16190.87 8229.62,16129.84 8301.1,16195.56 8234.6,16200.29 8172.19,16262.62 8243.38,16324.39 8248.43,16395.73 8252.84,16458.31 8181.89,16400.42 8119.31,16404.86 8114.27,16333.53 8047.87,16338.22 7981.41,16342.92 7919.92,16418.94 7924.33,16481.56 7929.02,16548.06 7933.75,16614.55 8004.62,16671.39 8009.31,16737.92 7880.23,16747.02 7884.92,16813.42 7889.62,16879.91 7819.17,16884.89 7761.42,16955.8 7766.11,17022.29 7770.84,17088.83 7642.25,17160.8 7664.23,17179.85 7666.24,17181.57 7713.44,17222.46 7784.67,17284.3 7837.69,17147 7908.17,17141.99 7966.28,17075.04 8032.84,17070.31 7970.72,17137.58 7912.83,17208.39 7847.11,17279.89 7917.56,17274.92 7922.25,17341.38 7851.8,17346.36 7789.36,17350.77 7727.2,17417.09 7669.8,17550.83 7674.78,17621.14 7679.22,17683.68 7741.27,17616.44 7798.74,17483.66 7861.18,17479.25 7935.72,17532.02 7940.7,17602.33 7874.66,17669.89 7812.22,17674.3 7816.91,17740.83 7879.35,17736.42 7949.8,17731.45 8017.43,17798.34 8083.96,17793.61 8088.3,17855.2 8021.77,17859.9 8026.46,17926.39 7968.32,17993.39 7902.56,18064.89 7844.85,18135.77 7778.32,18140.46 7783.01,18206.85 7720.88,18273.24 7654.35,18277.94 7659.39,18349.27 7593.04,18353.96 7597.41,18415.56 7606.79,18548.55 7611.49,18614.91 7677.84,18610.22 7673.15,18543.86 7668.46,18477.36 7734.96,18472.63 7806.18,18534.44 7810.88,18600.83 7882.07,18662.64 7877.38,18596.11 7872.68,18529.75 7930.43,18458.84 8005.57,18520.37 8010.27,18586.72 8134.69,18511.23 8139.38,18577.59 8205.85,18572.89 8201.15,18506.54 8267.55,18501.84 8334.82,18563.79 8401.32,18559.07 8463.13,18488.02 8466.27,18532.11 8408.41,18603.8 8341.91,18608.49 8346.29,18670.19 8280.35,18612.83 8218.19,18679.26 8155.51,18750.38 8159.92,18812.96 8169.62,18949.91 8174.03,19012.46 8246.1,19074.05 8312.63,19069.36 8252.45,19135.65 8316.97,19131.09 8449.76,19188.39 8454.45,19254.92 8326.36,19263.99 8331.08,19330.45 8264.55,19335.14 8269.28,19401.68 8273.97,19468.07 8206.59,19472.83 8144.82,19545.01 8149.19,19606.6 8215.69,19601.91 8220.38,19668.38 8224.83,19730.96 8292.21,19726.2 8229.8,19801.3 8163.3,19805.99 8158.33,19735.65 8104.53,19801.23 8048.75,19756.18 8044.06,19689.61 7982.33,19693.99 7915.97,19698.68 7911.63,19637.15 7715.59,19712.83 7649.06,19717.55 7587.25,19788.78 7459.23,19797.84 7397.53,19869 7330.99,19873.69 7335.72,19940.23 7402.22,19935.53 7463.92,19864.31 7539.03,19925.87 7591.94,19855.24 7658.44,19850.55 7663.17,19917.08 7601.08,19984.25 7605.77,20050.72 7610.46,20117.25 7552.86,20121.31 7615.16,20183.71 7562.24,20254.34 "/>
   <line class="fil0 str0" x1="8474.63" y1="16705.04" x2="8537.18" y2= "16700.6" />
   <line class="fil0 str1" x1="8474.63" y1="16705.04" x2="8537.18" y2= "16700.6" />
   <line class="fil0 str1" x1="7933.75" y1="16614.55" x2="7871.17" y2= "16618.96" />
   <line class="fil0 str1" x1="7933.75" y1="16614.55" x2="7871.17" y2= "16618.96" />
   <polygon class="fil0 str0" points="13694.96,17810.65 13623.53,17815.69 13433.03,17829.17 13366.49,17833.86 13300.8,17905.33 13305.21,17967.92 13385.01,18095.83 13380.6,18033.25 13375.63,17962.94 13437.72,17895.67 13495.36,17891.57 13566.66,17886.57 13628.25,17882.19 13699.66,17877.15 13762.27,17872.74 13827.85,17801.26 13894.39,17796.57 14023.43,17787.43 14094.66,17849.24 14165.46,17907.13 14161.02,17844.55 14218.03,17773.68 14284.98,17707.07 14275.6,17574.22 14204.27,17579.26 14199.58,17512.69 14266.22,17441.18 14323.33,17374.26 14261.77,17378.6 14194.85,17446.23 14133.18,17450.6 14066.83,17455.29 14004.98,17526.45 13938.49,17531.14 13880.63,17602.12 13818.82,17673.17 13823.52,17739.67 13757.55,17806.24 "/>
   <polygon class="fil0 str0" points="13850.36,19119.1 13859.75,19252.1 13996.59,19242.43 14000.93,19303.99 14129.97,19294.89 14196.54,19290.16 14192.17,19228.6 14187.48,19162.1 14182.78,19095.61 14178.34,19033.02 14111.81,19037.71 14040.33,18972.1 13982.76,19046.82 13911.29,18981.23 13916.26,19051.54 13845.95,19056.52 "/>
   <polygon class="fil0 str0" points="14336.74,18884.36 14274.61,18950.58 14279.66,19022.05 14350.85,19083.72 14288.69,19150.14 14293.38,19216.47 14364.32,19274.36 14497.32,19264.94 14563.71,19260.25 14568.72,19330.7 14502.3,19335.39 14639.63,19388.55 14706.13,19383.86 14635.19,19326 14696.71,19250.86 14759.29,19246.42 14816.69,19112.82 14745.82,19055.81 14868.97,18908.56 14931.13,18842.35 14855.25,18714.15 14917.3,18646.87 14850.8,18651.6 14912.61,18580.34 14779.72,18589.72 14713.22,18594.41 14655.37,18665.39 14717.91,18660.98 14788.82,18718.84 14727.01,18789.89 14664.47,18794.3 14597.97,18799.02 14602.66,18865.56 14607,18927.08 14540.5,18931.78 14469.77,18874.94 14531.47,18803.72 14526.78,18737.36 14460.39,18742.05 14465.08,18808.41 14403.27,18879.67 "/>
   <polygon class="fil0 str0" points="14383.09,19540.25 14378.44,19473.89 14311.94,19478.62 14245.4,19483.31 14250.09,19549.67 14320.97,19606.53 14392.23,19669.36 14458.73,19664.67 14525.26,19659.94 14520.46,19592.42 14449.63,19535.55 "/>
   <polygon class="fil0 str0" points="14715.51,19516.75 14649.02,19521.48 14577.83,19459.81 14582.52,19526.17 14586.86,19587.73 14658.15,19650.56 14653.39,19583.04 14719.89,19578.35 "/>
   <polygon class="fil0 str0" points="22630.75,32455.44 22484.53,32524.73 22122.82,32517.04 22124.34,32444.68 21979.67,32441.61 21761.12,32509.31 21544.09,32504.69 21547.16,32360.01 21474.81,32358.5 21473.29,32430.82 21328.62,32427.75 21259.33,32281.52 21113.1,32350.81 21110.03,32495.48 21105.41,32712.47 21394.8,32718.65 21758.02,32654.02 22045.85,32732.51 22041.23,32949.54 22552.26,32743.27 22986.28,32752.52 22990.9,32535.49 22772.36,32603.22 "/>
   <polygon class="fil0 str0" points="15749.08,32743.27 15747.53,32815.63 15818.33,32889.5 15963.04,32892.57 15964.56,32820.25 15821.44,32744.82 "/>
   <polygon class="fil0 str0" points="15604.41,32740.2 15676.73,32741.76 15678.28,32669.4 15605.93,32667.85 "/>
   <path class="fil0 str0" d="M27271.37 32047.56l293.97 -210.86c0,0 -218.55,67.74 -366.33,209.34 -147.74,141.61 -512.51,278.59 -512.51,278.59l-289.38 -6.17 -4.63 217.03 -144.67 -3.07c0,0 70.8,73.87 -3.07,144.67 -73.91,70.8 -217.03,-4.62 -217.03,-4.62 135.43,437.13 429.4,226.27 429.4,226.27l215.51 76.94 295.53 -283.21 3.07 -144.67 363.25 -64.63c0,0 -144.67,-3.11 -213.96,-149.33 -69.25,-146.19 150.85,-286.28 150.85,-286.28z"/>
  </g>
  <circle class="fil1" cx="11336" cy="21335.53" r="190.5"/>
  <circle class="fil1" cx="9713.22" cy="23240.53" r="190.5"/>
  <circle class="fil1" cx="15966.22" cy="22859.53" r="190.5"/>
  <circle class="fil1" cx="15022.54" cy="21145.03" r="190.5"/>
  <circle class="fil1" cx="8989.09" cy="21210.63" r="190.5"/>
  <circle class="fil1" cx="16860.65" cy="16256.34" r="190.5"/>
 </g>
</svg>
