<?xml version="1.0" encoding="UTF-8"?>
<!DOCTYPE svg PUBLIC "-//W3C//DTD SVG 1.1//EN" "http://www.w3.org/Graphics/SVG/1.1/DTD/svg11.dtd">
<!-- Creator: CorelDRAW X8 -->
<svg xmlns="http://www.w3.org/2000/svg" xml:space="preserve" width="381mm" height="381mm" version="1.1" style="shape-rendering:geometricPrecision; text-rendering:geometricPrecision; image-rendering:optimizeQuality; fill-rule:evenodd; clip-rule:evenodd"
viewBox="0 0 38100 38100"
 xmlns:xlink="http://www.w3.org/1999/xlink">
 <defs>
  <style type="text/css">
   <![CDATA[
    .str0 {stroke:#DADADA;stroke-width:33.86;stroke-linecap:round;stroke-linejoin:round}
    .str1 {stroke:#DADADA;stroke-width:33.86;stroke-linecap:round;stroke-linejoin:round}
    .fil0 {fill:none;fill-rule:nonzero}
    .fil1 {fill:#DADADA}
   ]]>
  </style>
 </defs>
 <g id="Warstwa_x0020_1">
  <metadata id="CorelCorpID_0Corel-Layer"/>
  <g id="_2455754676480">
   <path class="fil0 str0" d="M27242 23114l4 62 -58 76 -61 4 -67 72 -57 132 -120 72 67 62 -57 71 -142 -57 -62 4 -66 72 -49 70 -129 71 -176 213 -76 5 -9 -133 -128 76 -44 200 -67 4 5 67 -63 4 -4 -66 -200 14 -61 4 -58 71 -80 -61 -58 4 5 67 -57 133 -62 75 -76 -195 -66 72 -67 5 -115 71 -195 142 -128 -49 -138 -61 -4 -62 -5 -67 -5 -66 133 -10 -80 -124 -5 -66 -66 -62 -72 -124 9 128 5 67 9 124 -71 5 -4 -58 -63 4 -123 139 -129 76 -62 -63 -66 5 -62 138 14 191 -62 4 -66 -53 -72 -66 -61 75 -63 4 4 58 133 49 67 -5 67 67 9 128 -62 4 -67 5 -61 71 -124 9 -62 71 -5 -66 -66 5 -62 71 5 66 70 58 5 66 5 63 18 7 96 114 42 -106 18 262 -57 137 -66 5 5 66 -62 72 -62 4 -9 -133 -76 -61 -62 71 5 66 -53 134 5 66 61 -4 67 -5 -62 71 -57 66 5 71 9 129 67 67 -53 132 4 63 -6 25 56 114 -57 70 -133 10 -133 9 9 129 9 133 -66 5 9 128 71 62 -62 67 5 70 -66 5 -58 67 4 67 10 133 57 -71 133 -10 5 67 71 57 66 -5 10 133 4 62 23 -1 70 57 5 66 5 63 128 -9 147 123 61 -4 138 57 67 -5 9 133 -62 71 -66 5 -128 9 -138 10 -62 4 -129 67 -61 76 -62 66 -129 81 -57 66 4 67 -128 75 -62 68 -190 84 -62 67 -71 -58 123 -142 63 -4 -5 -67 -5 -67 -58 71 -66 5 -133 10 -71 -62 4 -5 -62 5 -71 -62 -200 14 -137 -57 -124 9 -67 5 71 61 -62 72 -137 9 -67 -62 -71 -62 -62 72 5 66 5 62 -67 4 -196 14 -66 5 5 66 71 62 67 62 138 57 137 53 67 -4 -62 75 -129 67 -133 9 -9 -128 -62 5 -67 4 72 66 71 125 71 -5 4 66 -204 -52 -71 -67 -66 -53 -76 -65 5 70 4 57 76 67 133 57 4 62 -132 -53 -138 -57 -80 -124 -71 -128 -76 -62 -10 -133 -66 5 -124 76 -57 70 66 63 4 62 5 70 10 130 71 61 133 53 81 128 208 181 72 -5 -62 138 -62 5 -5 -67 -5 -66 -76 -62 -132 10 -67 4 -58 71 72 129 67 -5 4 67 -61 71 -59 67 68 62 138 -10 137 57 138 57 61 -4 76 123 133 54 71 -5 9 133 10 133 4 66 5 67 -138 -57 -75 -125 -67 5 -124 138 -57 71 5 62 67 67 71 -5 123 -81 9 134 -123 76 -128 76 -72 5 -66 -62 -5 -67 -75 -58 -67 5 9 129 71 62 81 123 61 -4 10 133 76 61 5 67 137 53 5 66 -266 19 -72 5 -9 -129 -66 5 -10 -133 -57 71 4 66 5 63 9 133 -66 4 -71 -128 -72 5 -66 -58 -4 -67 -5 -66 -5 -67 -76 -61 -53 70 5 67 62 62 -53 71 -70 5 -67 4 -76 -128 -4 -66 -5 -67 -71 -57 62 -71 -9 -133 -5 -62 -71 -67 -67 -57 -67 4 -71 -128 -4 -63 56 -75 67 -4 63 -5 66 -4 66 -5 63 -67 70 -5 58 -4 71 -5 62 -5 4 63 129 -72 70 58 5 70 67 58 62 -67 72 -5 56 -75 -137 -53 -71 -66 -67 -58 -128 9 4 63 -76 -58 -66 -57 -129 9 -70 5 -67 5 -128 71 -5 -62 -62 5 -67 4 -57 66 -137 -52 -72 5 -4 -66 -5 -67 -66 -62 57 -71 71 -5 133 -9 -4 -63 -5 -66 -72 5 -61 4 -71 5 -57 71 -77 -61 -9 -133 -5 -67 -129 9 -71 -61 -70 -125c106,-8 27,32 -68,-129l-4 -62 -133 10 -67 -62 -133 9 -9 -129 66 -5 -5 -70 -66 5 -5 -63 62 -71 -71 -62 -5 -66 -4 -67 62 -66 -10 -133 -4 -66 -5 -67 -4 -62 -5 -67 -5 -66 67 -5 -5 -67 -5 -62 -20 -19 4 59 -148 4 -67 5 -5 -70 -131 9 -9 -136 -72 5 -63 -60 -5 -76 -76 -60 -68 6 -136 10 -72 -70 -62 4 -78 -126 -67 5 -140 -65 -77 -131 -130 10 -77 -135 -144 -126 -141 -131 -67 5 -131 81 -140 -61 -4 -70 -144 -126 -63 4 -82 -134 -68 -66 -72 -61 204 -15 -78 -69 -67 -56 -68 4 -5 -75 -136 10 -8 -135 -5 -75 58 -140 -77 -132 -67 -66 -72 -65 -72 -65 -68 5 4 70 -57 146 -63 70 -59 146 -68 -66 -5 -69 -72 -62 -9 -140 -5 -70 -72 -66 63 -70 68 -4 59 -76 -5 -71 -5 -70 -4 -70 -59 75 -5 -2 2 30 15 4 -13 18 -63 5 9 128 -75 -62 -4 -61 -63 4 -71 5 4 62 -61 4 -62 71 -67 5 -66 5 -67 4 -133 10 10 129 -63 4 -62 76 67 -4 4 61 68 62 70 -5 5 67 -66 71 -58 67 5 67 4 66 -62 71 76 124 5 71 67 53 5 71 137 53 67 -5 137 57 133 62 72 -5 8 124 68 62 4 66 80 129 72 124 -58 71 9 133 134 124 80 119 142 124 67 67 80 123 133 57 133 -9 196 -14 61 -5 209 49 9 132 -66 72 -62 4 -67 72 72 -5 137 57 71 58 129 -9 67 -5 71 62 66 62 209 52 67 62 70 57 133 -9 134 57 75 61 67 129 143 53 4 70 10 130 9 128 -62 76 -71 5 -58 4 -75 -67 -5 -61 -67 -62 -5 -72 -4 -57 -66 4 -67 5 -66 5 -67 4 -138 -60 -4 -63 -62 4 -71 5 -57 67 -62 75 67 -4 -63 62 5 71 -66 5 -15 108 35 172 74 105 124 -70 75 56 5 67 5 66 9 133 5 67 4 62 5 67 -71 5 -62 4 -67 5 -61 71 -58 71 -62 71 9 124 5 71 -134 72 5 70 -61 5 -67 67 -62 5 -66 4 -63 5 -71 -58 -5 -71 62 -67 58 -75 -4 -62 -5 -62 -5 -66 -4 -67 66 -4 62 -5 66 -71 -13 -196 -86 -194 -75 -191 -71 -57 -5 -72 -67 -57 -141 -57 -63 5 -67 5 -138 -62 -4 -58 -5 -70 -9 -129 -66 -63 -71 5 -143 -123 -61 4 -67 -57 -75 -61 -210 -186 -62 71 -75 -124 -133 9 -72 -128 -71 5 -422 -367 -209 -181 -67 -67 -75 -53 -72 -128 -142 -124 -67 5 -156 -318 -71 -63 -81 -253 -89 -265 -138 -119 62 -67 -71 -62 -5 -66 62 -71 -67 4 -66 5 -62 71 5 67 -209 -119 -57 71 -142 -124 -68 5 -133 9 -61 72 -57 70 4 67 -61 71 -129 71 -66 5 -67 5 -61 76 -57 30 -1 0 -110 124 -5 -67 -62 5 -71 5 5 66 -67 5 -61 4 -67 5 5 66 5 67 -58 71 -71 5 -62 4 -71 5 -66 5 -63 4 -71 -61 -5 -67 -71 -62 -71 -62 -62 72 -4 -67 -5 -62 -66 4 -63 5 -5 -67 -4 -66 -67 5 -62 71 -66 4 -62 72 -9 -133 -133 9 -62 4 -71 -61 -67 -62 -70 4 -62 72 -62 71 -67 5 -62 4 -67 5 -61 71 -67 5 -62 71 5 62 -57 138 71 62 -62 71c70,158 59,10 76,249l4 67 -57 70 4 62 -62 71 -62 71 -66 5 -62 71 -66 5 -133 9 -58 67 -71 5 -124 76 -67 5 -61 4 -72 5 -128 9 -138 10 -124 9 -66 4 -62 75 5 63 -67 5 5 61 -128 81 -57 66 -124 142 -67 72 -66 4 -120 139 -128 75 -57 71 -67 72 10 133 9 129 4 61 5 72 76 56 4 67 67 62 -124 142 -133 10 -61 4 -129 72 5 66 -58 71 -70 5 -59 66 10 133 -124 76 -66 72 -138 -58 -63 5 -133 9 -56 72 -133 9 4 67 -128 71 5 66 4 67 -66 71 -62 5 -5 -67 -62 4 -75 -61 -133 9 -58 71 -138 -57 -66 5 -200 14 -129 9 -70 -124 -138 10 -71 -62 -138 -58 -128 9 -57 139 -67 5 -133 -58 -67 5 -62 71 -133 10 -128 71 4 66 -57 71 -76 -128 -71 -57 -67 5 -71 -62 -9 -134 -71 -57 133 -10 -5 -71 57 -133 -66 5 -67 5 62 -71 -4 -63 -72 -66 -137 -53 -5 -66 -66 -62 -71 -57 -71 -67 -66 5 -183 76 -67 4 -4 -66 -57 71 -76 -62 -138 -57 -67 -62 -67 5 -61 4 -5 -63 -71 -61 -67 71 -61 5 -72 5 -4 -67 66 -71 53 -134 -5 -70 67 -68 66 -4 -4 -67 52 -132 -67 -67 58 -66 -5 -72 62 -62 58 -71 -5 -66 -9 -133 -63 4 -71 -62 -128 9 -5 -66 -4 -62 62 -71 57 -71 -5 -67 -5 -67 -4 -66 62 -66 134 -10 61 -4 62 -138 57 -71 -4 -63 61 -75 63 -62 57 -138 61 -71 -9 -133 58 -71 66 -67 -10 -133 58 -71 62 -66 -9 -134 -5 -67 57 -71 -4 -61 -5 -72 -4 -57 -9 0 -9 -128 62 -67 71 58 62 -67 -5 -71 -67 5 62 -71 -4 -63 61 -75 -4 -58 -133 10 62 -76 -5 -62 -62 66 -4 -61 -71 -62 61 -71 62 -71 71 61 57 -137 68 62 66 -5 67 -4 71 61 5 67 61 -71 62 -71 -71 -62 66 -5 67 -5 62 -4 -4 -63 71 58 66 -5 129 -72 4 63 5 67 66 62 81 128 123 -76 72 62 75 56 128 -9 63 -4 71 67 133 -10 4 58 134 61 71 -5 137 53 63 -4 75 61 67 66 62 -4 71 -5 66 58 72 -5 133 -9 61 -5 71 62 130 -9 75 123 71 62 129 -9 71 -5 62 -4 75 61 138 57 124 -9 89 62 115 -133 124 -143 -5 -67 63 -71 66 -5 -9 -128 62 -4 -5 -67 67 -71 -5 -63 -5 -70 133 -10 54 -66 -134 -58 71 -5 -9 -128 53 -75 -5 -62 -13 -195 65 -72 5 67 71 58 5 66 71 62 4 62 5 71 71 57 -4 -62 -10 -133 -4 -66 -72 -62 -4 -63 -5 -66 -66 5 -5 -67 62 -71 -5 -63 -9 -132 62 -72 -67 5 62 -71 -5 -67 -4 -66 -62 71 -138 -57 -4 -61 -75 -62 -9 -133 -58 4 -81 -124 -4 -66 119 -143 -4 -61 -58 4 -4 -67 -77 -61 -61 4 52 -138 -66 -57 -71 5 66 -72 -133 10 -134 9 -4 -66 -5 -67 -62 5 -4 -67 -71 5 -143 -119 -4 -67 -62 5 5 66 -134 -57 5 66 -76 -128 -71 -57 -66 5 61 -76 67 -5 66 -5 -4 -57 58 -5 -5 -70 -5 -66 -58 4 -66 4 -67 5 -4 -62 66 -5 67 -5 58 -4 66 -75 66 66 72 -5 133 -10 4 63 129 -9 -4 -63 61 -75 138 61 5 62 61 -4 72 -5 9 137 4 58 128 -9 -4 -58 71 53 133 -9 129 -10 -58 76 63 -4 62 -5 75 57 133 -9 -4 -62 -77 -66 -4 -58 -5 -70 67 -72 -81 -128 -4 -62 -9 -128 66 -72 -4 -67 66 -5 71 63 62 -5 67 -5 -62 72 4 61 72 62 -63 67 139 61 -5 -70 138 61 132 53 133 -9 5 66 133 -9 133 -9 134 61 -5 -70 67 -5 -72 -62 -133 -53 -67 4 -5 -70 130 -9 132 -10 129 -71 123 -76 68 -5 62 -66 66 -5 71 -5 -5 -66 -9 -134 -5 -67 58 -70 -5 -62 -4 -67 62 -71 61 -4 67 -5 66 -5 66 -4 133 -10 6 13 124 -71 -5 -71 71 66 62 -76 66 -4 5 71 68 -5 71 57 4 67 62 -5 66 -4 133 -10 -4 -66 62 -67 54 -3 -63 -63 -71 5 -9 -129 -5 -66 -4 -62 71 -5 9 128 123 -75 -4 -62 -66 5 -10 -133 133 -10 58 -71 -5 -66 71 -5 -5 -62 58 -75 -9 -129 61 -138 129 -9 71 61 5 67 -62 71 -62 67 66 -4 -61 75 9 129 66 -5 67 -5 119 -138 -10 -133 -4 -66 -5 -67 -5 -66 -4 -62 62 -71 129 -72 67 -5 61 -4 67 -76 5 71 4 63 129 -72 56 -76 67 -5 66 -4 19 261 62 -4 66 -67 5 -9 -5 -67 -67 5 -4 -67 61 -71 -4 -67 66 -4 133 -10 128 -9 139 57 -58 71 5 67 62 -5 -5 -66 67 -5 5 67 4 67 76 119 -5 -62 62 -66 -4 -68 -10 -133 -5 -66 129 -9 133 -10 0 0 -67 -62 58 -66 -138 -57 -5 -71 -5 -62 -61 4 -5 -66 62 -4 128 -76 -5 -67 -66 -58 -4 -66 -10 -133 14 -59 -9 -128 -5 -63 -5 -70 -71 -58 -4 -67 -67 5 -71 -62 62 -71 -5 -66 -4 -63 -5 -66 -5 -67 -4 -66 -9 -128 -5 -67 62 -71 -5 -67 66 -4 5 66 62 -4 76 61 66 -4 -4 -67 52 -70 71 -5 5 66 4 67 62 -72 72 62 -5 -66 -72 -62 63 -67 62 -5 138 -10 -5 -70 61 -4 67 -5 5 70 71 58 -67 5 -61 71 4 67 67 -5 4 67 67 -5 66 -5 67 57 5 67 5 66 -58 71 -67 5 -4 -67 -67 5 -62 71 71 62 -57 134 -123 75 4 67 -71 5 -57 71 -67 4 4 63 5 70 -66 5 4 62 71 62 -66 5 -66 67 75 61 71 62 -66 5c-61,65 -95,-3 -18,59l71 62 75 57 -66 72 5 66 70 -5 63 -4 5 66 70 -5 63 -4 76 128 56 -76 72 -5 62 -4 5 71 5 67 -63 4 5 62 -72 5 139 57 66 -5 133 -9 67 -5 -5 -66 66 62 129 -76 128 -71 63 -5 70 -5 58 -71 70 -5 5 67 67 57 5 67 70 -5 129 -10 10 133 9 134 199 -14 11 149 1 -56 77 88 98 -7 18 7 -5 -71 -66 -57 57 -66 57 -139 128 -76 67 -4 133 -10 62 -4 -4 -67 66 -4 62 -72 66 -4 62 -67 62 -71 57 -75 71 66 63 -76 66 -5 -4 -61 66 -5 62 -71 133 57 66 -4 62 -72 200 -14 4 67 67 57 5 71 5 67 4 62 75 61 191 -80 67 -5 4 66 67 -4 133 -10 -5 -66 -4 -62 -5 -66 63 -5 61 -76 -4 -61 -119 -32 109 -101 -4 -67 190 -143 5 67 4 62 5 67 128 -9 61 -72 58 -133 -67 4 -4 -61 66 -5 97 -25 58 72 22 52 18 -2 79 -5 129 -9 4 -5 -32 2 -77 -62 -63 4 -63 -63 -4 -59 -141 10 -14 -203 -82 -198 -4 -64 -5 -67 -14 -198 39 -407 64 -127 58 -135 -10 -140 50 -134 63 -5 68 -69 130 -77 130 -9 5 68 68 59 63 -5 144 121 10 140 68 58 145 122 67 -5 59 -68 63 -72 -9 -135 -5 -68 -9 -130 -5 -64 -5 -68 -5 -67 71 -23 -4 -50 -9 -130 64 -136 -78 -63 -62 5 -68 72 4 59 -59 4 -144 -117 -15 -207 -4 -63 67 -5 -4 -67 -4 -55 -135 10 -5 -68 -5 -68 -4 -62 63 -73 67 -5 68 -4 58 -4 -5 -73 -4 -63 72 -5 63 -4 73 -5 130 -9 63 -5 63 -72 72 -5 63 -5 59 -4 135 -10 5 68 130 -77 63 -5 72 63 64 -4 195 7 108 -126 -5 -67 -5 -66 62 -71 76 128 54 -4 -5 -66 -5 -67 -4 -61 66 -72 5 67 62 -5 -5 -66 195 -14 129 -9 137 -10 66 -4 -9 -129 -66 4 -62 -57 -79 5 -130 9 -53 66 -141 -52 -68 -71 -124 9 -5 -66 45 -133 -5 -67 -54 4 -128 76 -128 9 -5 -72 -53 129 -63 68 -59 4 -139 10 -72 -59 -58 136 -131 72 -58 77 -77 -130 -63 67 5 72 5 68 -67 5 -68 4 -193 82 -131 72 -63 68 -63 76 -77 -130 -58 68 -58 140 -67 5 -203 14 -67 -59 -73 -67 -9 -126 -77 -130 -67 5 -135 9 -73 -67 -198 14 -149 -184 -5 -68 -9 -135 130 -77 -10 -135 -13 -193 -10 -140 -5 -63 -139 -58 -5 -63 63 -76 -10 -131 -72 -63 -4 -62 -10 -135 126 -146 -10 -130 68 -5 73 58 125 -72 -9 -134 -5 -68 63 -72 63 -69 130 -80 -5 -64 -4 -62 121 -145 62 -77 59 -135 -5 -63 121 -212 -5 -68 68 -4 62 -5 67 -4 -4 -68 -72 -59 -5 -67 -10 -135 -4 -68 -5 -67 -67 -54 -5 -72 -135 10 -72 -59 -60 13 -57 67 -67 -58 -67 5 -66 5 -72 -66 -123 142 -71 -58 -61 5 4 62 9 128 9 133 -134 10 -61 71 4 66 5 67 -62 67 9 133 10 133 5 66 70 58 -61 71 -57 138 -62 4 -57 138 4 62 5 62 9 133 -128 76 -67 5 -58 71 68 62 -129 76 -67 -62 -57 132 -133 10 71 61 -124 144 72 62 -124 75 -71 5 -57 66 -68 5 -62 71 -137 -57 -62 71 9 129 200 -14 9 133 -62 71 9 128 -61 76 71 57 -67 5 9 129 5 66 9 133 -61 71 -62 5 66 62 5 67 71 57 9 128 72 67 71 62 129 -76 5 66 4 67 66 57 76 58 5 70 4 63 124 -72 9 129 72 66 -120 200 -61 4 -67 72 5 66 137 57 -128 77 -57 66 -58 138 -71 -62 -67 5 -66 4 4 67 5 66 -119 142 -66 5 -138 -61 -61 75 203 48 -128 76 76 124 5 71 4 62 -57 133 4 67 -61 75 4 63 5 66 71 62 -62 66 -57 139 67 -5 4 62 -62 76 -61 71 9 128 -115 205 4 66 9 128 -66 5 -133 9 -67 5 -4 -62 -134 -57 -128 76 -62 66 66 -5 -61 76 -67 5 -66 5 -57 66 9 133 10 133 4 62 -71 5 -62 5 -71 -58 -191 76 -71 -58 -62 67 -71 -57 62 -71 -9 -133 -5 -67 -71 -57 -5 -71 -75 -57 -5 -66 -4 -67 66 -67 -5 -67 67 -5 -5 -66 -5 -66 -141 -52 -14 -200 -63 5 -76 -62 -9 -129 67 -71 -76 -62 -5 -62 -9 -137 -5 -63 -5 -66 -4 -62 62 -138 -76 -61 -53 70 -9 -133 -67 5 -4 -63 -5 -70 -5 -62 -4 -67 -10 -133 -4 -62 -10 -133 5 -1 110 -141 -200 -120 -66 5 -9 -128 66 -5 62 -71 -9 -133 -67 5 -62 75 -61 67 -124 147 71 52 9 133 -118 142 9 134 -129 71 -70 -57 -5 -67 -133 9 -58 72 4 62 -194 80 -67 72 -53 133 -66 76 -120 71 -4 -62 -129 71 -132 10 -200 14 -9 -133 -57 75 -143 -61 129 -139 -204 -52 -138 -119 -5 -67 -9 -133 -5 -67 58 -66 4 62 63 -67 -10 -128 62 -5 -10 -137 -4 -62 -128 9 -119 209 -67 -66 53 -134 -5 -70 62 -129 62 -5 71 57 57 -66 72 -5 66 -5 -147 -123 66 -76 62 -66 124 -139 -128 72 -138 10 -66 -58 -71 -62 -5 -67 66 -4 62 -5 -133 -57 -5 -67 62 -71 66 62 67 -71 -76 -62 -71 -124 -4 -62 -5 -71 138 62 66 -5 -5 -71 -137 9 -71 -123 -5 -67 -4 -62 137 53 -4 -63 -77 -65 -4 -63 138 -9 57 -71 71 -5 -5 -67 -71 5 -66 -57 -5 -66 -4 -67 61 -4 72 -5 66 62 62 -71 62 -5 10 133 61 -138 133 -9 66 -5 -5 -66 -71 -63 62 -71 58 -4 137 57 72 -5 62 -5 -71 -123 -5 -67 62 -4 71 -5 66 -5 58 -71 71 62 67 -5 -5 -66 -71 -62 66 -5 72 62 -10 -133 62 -4 67 -68 56 -75 72 66 61 -75 62 -67 71 58 -9 -125 -5 -71 67 -5 66 -4 49 -137 67 -67 -10 -129 63 -4 71 -5 61 -72 62 -75 71 66 5 66 133 54 62 -67 -4 -67 -5 -70 -67 5 -4 -63 66 -5 62 -71 -9 -129 62 -4 66 -72 -9 -133 -71 5 -5 -66 62 -129 4 57 67 62 61 -71 -4 -57 -71 -66 62 -67 62 -75 66 -5 62 -71 -71 -58 -5 -67 67 -4 134 -10 -9 -128 -63 71 -71 -62 -72 -61 133 -10 63 -71 -72 -66 63 -67 61 -4 -4 -63 -5 -66 62 -71 138 57 61 -71 62 -72 63 -4 66 -5 -9 -129 -129 9 -5 -66 58 -71 67 -5 133 -9 -5 -62 -71 -67 -191 86 58 -76 -10 -133 67 -5 71 67 62 -76 71 67 -5 -72 -70 -57 -67 5 62 -67 66 -5 67 -5 62 -75 5 71 8 124 10 133 52 -138 -5 -61 -9 -133 -4 -63 61 -75 5 71 200 -14 62 -76 -72 -57 -4 -67 63 -66 57 -71 -67 -67 57 -67 71 -5 62 -4 -14 -195 62 -67 9 124 71 62 58 -133 -10 -133 76 128 67 57 -4 -61 -72 -129 -10 -133 58 -71 80 132 53 -141 67 -5 71 62 71 66 -9 -137 -71 -58 -9 -128 61 -76 67 -5 -5 -61 57 -71 67 -5 71 62 -5 -67 67 -4 71 62 62 -72 -4 -66 -5 -63 57 -70 76 124 124 -139 -72 -61 67 -5 -10 -133 62 -71 71 61 191 -80 -133 -57 -5 -63 58 -71 71 62 190 -147 71 62 -63 69 2 2 66 -5 4 63 5 66 5 67 66 62 5 67 71 61 -5 -66 -14 -200 129 -75 -5 -63 125 -142 66 -5 10 133 4 62 -62 71 5 67 76 128 57 -71 -5 -66 124 -142 71 61 133 -9 9 133 124 -76 133 -9 5 66 66 -4 5 66 5 67 -62 71 -66 5 70 57 10 133 -62 67 66 -5 133 -9 12 -10 -34 203 106 -8 71 62 134 -9 -14 -200 62 -4 75 128 67 -5 57 -137 54 -4 80 128 62 -5 80 125 62 -68 62 59 5 70 124 -79 84 64 58 -4 452 -32 137 -80 187 57 214 119 190 -14 141 103 66 62 -4 -67 137 57 72 66 61 54 129 -68 200 44 5 72 70 -5 125 -9 9 133 76 56 53 -65 9 128 67 -5 9 129 71 129 -43 266 -67 5 5 66 4 67 -57 4 -67 71 5 62 -58 62 -129 72 -62 4 -124 143 -133 9 -124 9 -133 9 -4 -66 -67 -62 -62 71 -61 71 -196 -53 -133 9 -133 10 -67 -62 -57 4 -76 5 -133 -53 -128 -49 4 57 -76 6 -61 -54 -142 -118 -58 4 -79 5 -58 4 62 63 80 -6 -71 125 88 123 63 63 133 -10 4 67 58 -4 75 -6 5 62 -76 5 81 66 57 -4 67 -4 204 -15 63 67 65 53 5 62 67 66 9 129 -57 71 4 67 67 58 81 128 4 61 72 67 4 62 5 66 66 -5 9 121 195 53 71 62 57 -138 67 62 67 62 146 123 58 -4 133 -9 137 52 59 -66 127 -81 -81 -256 -141 -111 -67 5 5 66 -204 -52 -62 -58 -142 -62 -4 -61 65 -77 -9 -124 195 49 200 -14 62 -4 5 61 133 -9 138 62 190 48 138 -71 57 58 62 -67 67 -4 75 56 1 0 -5 -61 -85 -191 -142 -123 -5 -63 -129 -58 -208 -118 -62 -54 52 -75 62 -76 52 -132 -9 -133 67 -68 120 -66 53 -199 57 -138 -5 -66 138 57 133 -10 53 -70 147 123 -63 4 -65 139 137 -10 115 -75 80 61 124 -76 -67 -62 -151 -122 66 -135 62 -66 -71 -67 -5 -58 -80 -66 -5 -66 -61 -58 -125 9 -133 10 -14 -205 -4 -57 48 -141 -58 4 -4 -63 -70 -44 -9 -133 -5 -70 -71 -58 -67 -62 -142 -57 138 -10 -5 -66 128 -9 195 -81 62 -4 71 128 133 -9 71 62 68 62 128 54 -52 74 -130 9 5 63 -195 84 4 49 9 129 5 71 137 48 129 -9 129 62 218 118 53 -70 195 -81 115 -79 66 -63 -5 -71 -9 -128 -8 -120 -134 -124 54 -4 66 -67 123 -143 -75 -61 -67 -62 58 -66 66 -68 110 -280 62 -4 57 -129 67 -75 5 70 66 62 133 -9 -147 -190 -5 -67 -5 -66 63 -5 5 67 70 -5 -9 -133 -71 5 58 -191 62 66 72 -5 66 -4 8 115 63 63 -53 70 9 129 9 137 114 -209 62 59 82 65 -5 -70 -5 -63 110 -141 -5 -67 49 -253 -4 -66 138 -10 194 -14 53 -137 -4 -67 -9 -124 -5 -70 57 -138 57 -67 67 58 76 129 -62 75 142 114 128 -9 124 -133 -75 -66 -63 5 49 -200 124 -137 -67 -59 -133 10 -67 -134 -75 -62 -71 -56 61 -77 -12 -176 -72 -71 137 -10 190 -13 129 -67 244 -160 262 -18 75 -6 5 76 -70 71 79 53 71 132 58 -4 71 -5 53 -66 137 -9 67 -5 9 124 70 48 57 -4 81 66 72 124 57 -4 53 -133 71 -5 75 57 62 -4 -53 133 129 67 72 124 14 195 80 186 -57 137 -115 142 -54 134 147 309 19 266 -48 200 -62 5 9 133 13 190 19 262 -65 75 -133 10 4 62 5 71 133 -10 78 107 73 132 65 54 10 137 71 124 -4 -61 76 123 9 129 70 -5 91 324 71 61 129 58 5 67 137 57 62 57 85 249 75 61 67 57 76 137 9 121 133 128 71 58 14 195 209 119 76 128 79 244 152 257 76 190 62 -66 66 57 4 62 72 -5 71 129 72 62 66 128 9 125 138 -10 5 71 14 195 4 66 80 111 5 71 -72 5 -62 66 -62 138 152 186 85 195 14 194 -71 5 -62 67 71 57 144 200 79 186 128 -9 253 -152 66 -62 58 -4 129 -9 62 -76 70 -5 5 71 133 48 71 129 -53 124 -62 134 4 67 10 136 -53 67 -75 -58 -71 -56 -182 74 -133 73 14 194 213 248 125 -71 190 -81 190 -80 124 -204 110 -275 -5 -67 62 -67 9 129 14 200 129 57 71 62 -52 199 18 257 143 129 4 61 71 62 76 62 4 53 9 128 142 196 138 115 120 -9 62 -62 132 -147 63 -4 57 -4 76 132 4 57 205 58 66 -5 125 -9 190 -13 133 -81 62 -63 62 -4 142 120 67 124 9 133 -53 70 -181 204 -199 81 -115 80 9 128 5 63 -72 5 -61 4 -258 76 -133 10 -66 -116 -67 -62 -138 76 -62 67 -48 62 62 124 -120 9 10 132 -129 9 -133 -61 -67 76 -66 4 76 130 -133 9 -124 9 62 62 4 62 -57 4 4 66 5 67 -57 134 -200 -53 -337 -39 -58 4 4 62 63 63 9 133 -62 -59 -70 5 -129 9 -72 -65 -194 13 -134 -57 -71 -58 -128 9 -66 5 -49 133 5 71 -148 -128 -71 5 -119 76 -53 137 -62 129 -123 85 -68 -71 -66 -59 -71 6 4 62 6 75 -53 129 -115 142 -63 124 -66 67 -129 9 19 270 5 63 4 66 -128 9 -129 71 138 58 81 190 70 125 5 66 -118 146 -68 -66 -142 -56 -66 -120 -138 -62 -110 204 61 -5 14 200 -61 4 -57 142 74 107 67 66 13 190 -56 76 66 66 200 40 -119 209 9 133 14 190 62 -66 124 -9 141 52 5 76 10 128 67 58 132 57 58 -71 -4 -61 137 -10 66 -76 134 124 270 168 209 119 66 62 -62 5 -67 66 -51 142 137 53 61 -5 125 -9 85 191 -62 138 -62 -63 -58 138 -57 62 -67 72 -119 142 -67 -57 -61 4 9 128 -62 143 13 182 76 56 -66 77 9 128 -57 71 4 62 -48 266 133 57 76 62 57 -71 -5 -67 200 120 138 57 4 58 67 -5 67 134 9 129 76 65 71 53 18 257 139 124 137 57 195 116 76 57 141 56 192 54 7 2 134 50 58 -4 76 66 66 58 67 62 85 128 67 62 128 -9 76 123 124 -9 133 -9 133 -76 62 62 5 67 -129 10 -63 52 -57 143 -62 67 5 66 71 62 5 71 9 129 5 61 -67 5 76 124 71 66 5 62 9 129 -57 137 -10 -133 -66 5 4 66 5 67 -53 71 67 128 138 57 -63 59 71 62 -262 -49 -66 5 -67 72 -124 -59 -141 -43 62 -5 133 -76 -4 -62 -72 -133 -80 -61 75 -6 -9 -128 -80 -61 -134 -124 -71 5 -48 137 -137 10 -53 132 -58 138 5 66 -118 142 -134 77 4 53 5 67c-15,42 -30,83 -44,125l-4 12 -129 9 -128 71 -58 4 -138 10 -195 14 -66 -58 -138 -62 -200 -114 -4 -54 -137 -57 -67 5 -129 9 -4 -62 -75 -66 -62 76 -63 4 -61 5 -67 4 -62 5 -71 5 -71 -67 -67 -129 -5 -66 49 -133 -62 -58 -5 -70 -200 -49 -128 9 -68 5 -4 -67 -5 -61 -70 5 -134 -58 -57 71 -62 4 -66 67 -254 18 -75 5 -58 4 5 67 -66 5 -5 -67 -4 -61 57 -134 58 -4 -5 -71 -63 -62 -142 -120 -66 -62 -84 -114 -5 -67 -62 -63 -129 9 -62 5 -9 -128 -137 9 -72 -66 -63 4 -65 77 -62 4 -67 -67 -66 5 -63 4 -208 -47 -209 -249 -133 10 -67 -62 -66 -62 -129 9 -138 -53 -4 -66 -133 10 -71 -58 -62 67 -120 8 -4 -62 -81 -61 -128 9 -58 4 -142 -57 -133 -57 -5 -67 57 -195 129 -10 -9 -128 -76 -57 67 -72 -10 -138 63 -62 62 54 75 66 52 -75 -61 -54 -10 -133 63 63 71 -72 62 -5 -200 -52 -5 -62 -75 -61 -195 13 -63 -62 -4 -67 57 -4 67 -67 67 -5 132 54 130 -72 -81 -62 -62 -57 53 -71 133 -81 119 -70 -5 -71 -7 -111 -125 9 -57 62 -125 134 -71 5 -8 -125 -54 57 -139 42 -122 48z"/>
   <polygon class="fil0 str0" points="29039,25344 29030,25345 "/>
   <polygon class="fil0 str0" points="26271,25143 26351,25204 26395,25006 26390,24943 26514,24801 26647,24791 26652,24858 26776,24849 26909,24840 27033,24764 27028,24697 26961,24635 26957,24574 27019,24569 27014,24498 26952,24502 26815,24512 26687,24593 26638,24658 26576,24729 26319,24748 26314,24681 26234,24625 26106,24696 26044,24638 26039,24567 25972,24572 25910,24576 25906,24519 25901,24461 25830,24395 25750,24338 25702,24475 25645,24537 25641,24479 25573,24413 25498,24419 25493,24356 25436,24360 25445,24493 25449,24551 25387,24613 25264,24694 25268,24755 25130,24765 25068,24836 25073,24902 24954,24978 24958,25044 25078,24969 25144,24964 25211,24960 25287,25021 25419,25075 25481,25007 25486,25070 25552,25194 25499,25264 25566,25389 25514,25464 25518,25526 25714,25513 25780,25575 25975,25494 26023,25294 26085,25223 26138,25152 26267,25081 "/>
   <polygon class="fil0 str0" points="24830,7470 24963,7524 24968,7594 25110,7651 25238,7700 25301,7637 25230,7576 25287,7438 25282,7371 25277,7305 25202,7190 25078,7199 24936,7146 24866,7151 24870,7214 24821,7337 "/>
   <polygon class="fil0 str0" points="24830,7470 24963,7524 24968,7594 25110,7651 25238,7700 25301,7637 25230,7576 25287,7438 25282,7371 25277,7305 25202,7190 25078,7199 24936,7146 24866,7151 24870,7214 24821,7337 "/>
   <polygon class="fil0 str0" points="18747,16852 18818,16847 18885,16914 18889,16976 18956,16909 18951,16838 19079,16829 19142,16824 19138,16767 19195,16696 19266,16620 19124,16567 18942,16714 18862,16586 18805,16653 18810,16723 18814,16790 18685,16857 "/>
   <polygon class="fil0 str0" points="18980,16377 18990,16505 19052,16439 19109,16368 19106,16314 18972,16257 18915,16328 18844,16333 18848,16386 18919,16381 "/>
   <polygon class="fil0 str0" points="9224,29819 9152,29757 9148,29691 9077,29629 9015,29700 9020,29767 8887,29776 8824,29780 8758,29785 8762,29852 8891,29842 8962,29837 9034,29966 9100,29961 9105,30024 9171,30019 9233,29952 9228,29885 9295,29881 9357,29810 9290,29814 "/>
   <polygon class="fil0 str0" points="9875,29639 9808,29644 9741,29649 9670,29587 9604,29592 9608,29658 9679,29720 9746,29715 9817,29777 9885,29772 9880,29706 "/>
   <polygon class="fil0 str0" points="8115,30094 8054,30098 8058,30165 7925,30174 7930,30240 7935,30307 8063,30231 8125,30227 8120,30160 8187,30089 "/>
   <line class="fil0 str0" x1="7181" y1="9364" x2="7185" y2= "9431" />
   <line class="fil0 str1" x1="7181" y1="9364" x2="7185" y2= "9431" />
   <polygon class="fil0 str1" points="4460,10212 4527,10278 4603,10339 4669,10397 4735,10393 4803,10388 4808,10458 4812,10521 4817,10587 4821,10649 4887,10711 5030,10836 5101,10830 5163,10826 5168,10897 5172,10954 5306,11012 5381,11073 5376,11007 5438,10935 5442,11002 5509,10997 5628,10922 5700,10917 5837,10974 5894,10903 5970,10965 6099,10955 6104,11022 6227,10946 6294,10875 6432,10932 6489,10928 6555,10856 6626,10918 6631,10985 6693,10914 6759,10909 6884,10833 6936,10701 7012,10766 7074,10762 7212,10752 7202,10619 7264,10543 7325,10539 7321,10472 7316,10411 7379,10339 7375,10277 7302,10211 7298,10149 7293,10082 7165,10091 7160,10021 7223,9958 7288,10012 7284,9954 7218,9892 7213,9826 7208,9759 7333,9683 7328,9617 7265,9688 7137,9697 7133,9631 7128,9568 7190,9497 7185,9431 7048,9374 7052,9440 6986,9512 6929,9582 6857,9587 6791,9525 6786,9459 6662,9534 6534,9610 6467,9615 6520,9411 6449,9349 6453,9416 6392,9553 6397,9620 6344,9687 6268,9629 6258,9496 6325,9425 6316,9295 6240,9230 6183,9305 6107,9240 6112,9310 6055,9377 5993,9448 5925,9453 5921,9386 5916,9324 5907,9191 5841,9134 5778,9263 5726,9400 5655,9405 5650,9343 5589,9347 5517,9352 5407,9556 5402,9490 5336,9495 5331,9428 5393,9361 5388,9290 5384,9228 5374,9095 5441,9090 5499,9086 5561,8948 5489,8953 5485,8892 5552,8820 5547,8757 5537,8621 5399,8501 5266,8510 5338,8572 5413,8700 5347,8705 5352,8771 5356,8834 5361,8900 5299,8967 5228,8910 5219,8781 5153,8848 5143,8719 5134,8586 5138,8649 5076,8653 5005,8595 5019,8795 4881,8738 4958,8799 5024,8857 4895,8933 4834,8938 4829,8871 4825,8809 4749,8747 4753,8814 4758,8876 4696,8880 4692,8818 4629,8885 4633,8952 4701,8947 4762,8943 4838,8999 4971,8990 5038,9057 5108,9114 5114,9185 5176,9181 5247,9176 5255,9300 5185,9305 5051,9251 4918,9261 4994,9318 5061,9384 5132,9442 5070,9513 5008,9518 4932,9456 4866,9398 4795,9403 4661,9342 4528,9288 4400,9360 4405,9431 4538,9421 4666,9412 4738,9470 4742,9536 4804,9532 4809,9599 4814,9665 4757,9736 4766,9865 4823,9794 4827,9861 4770,9931 4708,10003 4641,10007 4580,10012 4508,10017 4451,10088 4375,10026 4323,10163 4389,10217 "/>
   <polygon class="fil0 str0" points="4868,19480 4842,19495 4807,19499 4813,19577 4599,19593 4530,19597 4457,19672 4463,19745 4540,19739 4686,19729 4764,19797 4691,19802 4614,19808 4545,19812 4473,19891 4409,19969 4483,20032 4555,19959 4629,20022 4565,20099 4570,20173 4639,20168 4717,20162 4576,20246 4795,20230 4800,20299 4805,20372 4942,20289 5010,20284 5093,20352 5239,20342 5302,20264 5380,20332 5522,20322 5517,20248 5596,20243 5658,20169 5663,20238 5742,20233 5805,20159 5878,20154 6024,20143 6170,20133 6307,20123 6390,20187 6532,20108 6594,20030 6589,19956 6668,19951 6730,19873 6725,19805 6800,19800 6794,19727 6789,19654 6784,19581 6852,19502 6847,19434 6842,19355 6905,19283 6894,19136 6889,19068 6961,18986 6963,18984 7025,18911 7022,18905 7080,18839 7142,18761 7221,18755 7288,18751 7278,18609 7352,18530 7357,18603 7362,18676 7430,18672 7425,18598 7419,18525 7347,18457 7273,18536 7200,18467 7263,18389 7341,18384 7337,18316 7331,18238 7243,18102 7237,18029 7232,17956 7164,17961 7086,17966 7018,17971 7013,17902 6939,17908 6871,17982 6813,17980 6806,17974 6740,17917 6808,17913 6886,17907 6949,17829 6876,17765 6792,17692 6798,17771 6730,17775 6657,17781 6583,17786 6431,17718 6369,17801 6222,17811 6149,17886 6090,17963 5876,18046 5954,18114 6106,18183 6169,18178 6111,18250 5965,18261 5970,18334 5975,18407 5829,18486 5755,18422 5610,18359 5604,18286 5521,18224 5448,18150 5301,18161 5238,18312 5164,18317 5243,18385 5248,18458 5253,18527 5185,18605 5122,18683 5044,18689 4981,18767 5059,18908 5064,18976 5143,18970 5153,19112 5215,19039 5363,19028 5431,19024 5435,19092 5373,19175 5299,19180 5085,19264 4949,19421 4802,19431 "/>
   <polygon class="fil0 str0" points="12955,28335 12946,28202 12942,28139 12936,28068 12906,28008 12872,27979 12859,27994 12801,27984 12737,28020 12666,28025 12636,28041 12608,28087 12539,28119 12487,28194 12445,28241 12463,28298 12454,28370 12472,28440 12503,28496 12508,28562 12514,28584 12472,28628 12517,28695 12570,28749 12575,28816 12619,28876 12664,28881 12731,28943 12726,28877 12792,28805 12788,28743 12841,28605 12836,28539 12831,28473 12894,28406 "/>
   <polygon class="fil0 str0" points="12906,29528 12963,29391 12958,29319 12892,29324 12887,29261 12820,29204 12883,29200 12815,29133 12741,29076 12736,29010 12678,29081 12608,29086 12612,29147 12549,29152 12483,29156 12426,29232 12355,29237 12222,29246 12160,29313 12093,29256 12097,29317 12035,29384 12040,29456 12045,29517 12121,29646 12125,29712 12134,29841 12197,29837 12330,29827 12268,29899 12206,29970 12211,30036 12216,30103 12158,30169 12091,30173 12162,30235 12105,30373 12176,30435 12181,30501 12185,30564 12319,30621 12386,30616 12452,30612 12447,30545 12443,30483 12510,30411 12642,30468 12705,30464 12780,30522 12838,30455 12833,30388 12824,30255 12814,30122 12876,29989 12871,29923 12866,29856 12862,29790 12857,29723 12852,29661 12915,29656 12977,29585 12972,29524 "/>
   <polygon class="fil0 str0" points="16262,31131 16139,31207 16006,31216 15944,31287 15868,31226 15807,31230 15740,31302 15682,31306 15616,31310 15549,31315 15421,31391 15288,31400 15151,31343 15017,31286 14946,31224 14813,31234 14685,31310 14680,31243 14614,31185 14547,31252 14485,31257 14495,31390 14428,31461 14433,31528 14508,31584 14646,31646 14708,31642 14784,31698 14983,31751 15054,31813 15131,31942 15264,31933 15330,31990 15463,31980 15600,32034 15605,32104 15681,32232 15810,32286 15877,32218 16014,32272 16005,32139 16133,32067 16124,31934 16057,31939 16119,31872 16053,31877 16048,31806 16043,31743 16105,31672 16100,31605 16096,31544 16091,31472 16153,31406 16215,31402 16272,31264 16267,31198 "/>
   <polygon class="fil0 str0" points="7496,19493 7433,19497 7442,19625 7505,19621 7566,19616 7633,19550 7557,19488 "/>
   <polygon class="fil0 str0" points="8416,21669 8283,21678 8354,21740 8420,21735 8487,21730 8482,21664 "/>
   <polygon class="fil0 str0" points="9227,15810 9222,15743 9218,15681 9213,15614 9147,15686 9081,15690 9152,15748 "/>
   <polygon class="fil0 str0" points="9965,15098 10037,15160 10041,15222 9979,15293 10107,15217 10103,15156 10165,15084 10160,15018 10155,14951 10151,14885 10142,14756 10089,14956 10094,15022 9961,15032 "/>
   <polygon class="fil0 str0" points="7459,16202 7463,16260 7525,16126 7587,16059 7658,16116 7663,16188 7719,16112 7715,16050 7777,15974 7844,15969 7840,15908 7897,15837 7892,15774 7835,15841 7768,15846 7639,15855 7648,15983 7578,15926 7573,15860 7511,15931 7516,15993 7453,16131 "/>
   <polygon class="fil0 str0" points="7791,18946 7786,18875 7715,18817 7648,18885 7592,18960 7658,19018 "/>
   <polygon class="fil0 str0" points="7672,16392 7544,16468 7549,16530 7554,16601 7682,16520 7677,16459 "/>
   <polygon class="fil0 str0" points="7806,16383 7749,16454 7682,16520 7629,16658 7696,16720 7700,16786 7762,16648 7758,16587 7753,16515 7811,16449 "/>
   <line class="fil0 str0" x1="7604" y1="17320" x2="7600" y2= "17257" />
   <polygon class="fil0 str1" points="7524,17124 7592,17151 7590,17119 "/>
   <polygon class="fil0 str0" points="7592,17151 7595,17186 7533,17262 7600,17257 7671,17252 7666,17182 7664,17180 "/>
   <polygon class="fil0 str0" points="6306,21582 6435,21573 6373,21577 "/>
   <polygon class="fil0 str0" points="7492,20259 7430,20326 7368,20402 7297,20335 7235,20411 7173,20415 7106,20420 7040,20425 6968,20358 6907,20434 6911,20496 6849,20567 6982,20558 7049,20553 7053,20615 6987,20620 6992,20687 7125,20677 7186,20606 7249,20602 7315,20597 7320,20663 7325,20735 7329,20796 7462,20787 7529,20782 7467,20858 7538,20915 7613,20973 7671,20969 7804,20959 7870,20955 7933,20887 8043,20866 8104,20861 8047,20932 7986,21004 7919,21009 7853,21014 7791,21080 7795,21147 7729,21151 7600,21160 7533,21165 7467,21170 7396,21108 7329,21113 7325,21051 7258,21056 7197,21060 7130,21065 7201,21122 7139,21193 7067,21131 7001,21136 7005,21202 6948,21336 6815,21346 6625,21430 6630,21492 6563,21497 6435,21573 6445,21706 6511,21701 6578,21696 6573,21630 6639,21625 6644,21692 6706,21621 6829,21545 6967,21602 7100,21593 7104,21659 7177,21721 7305,21712 7366,21641 7362,21574 7357,21508 7419,21436 7490,21498 7557,21494 7623,21489 7685,21484 7752,21480 7823,21542 7894,21603 7899,21670 7966,21665 8027,21594 8155,21585 8227,21647 8360,21637 8355,21571 8418,21500 8489,21561 8555,21623 8622,21619 8688,21614 8692,21675 8825,21666 8892,21661 8958,21657 9021,21652 9092,21714 9158,21709 9230,21771 9358,21695 9424,21691 9491,21753 9552,21682 9614,21610 9686,21605 9744,21539 9806,21468 9734,21406 9672,21411 9605,21482 9534,21421 9467,21425 9401,21363 9330,21301 9326,21239 9392,21234 9454,21230 9525,21288 9587,21220 9582,21150 9515,21155 9578,21092 9649,21087 9711,21083 9778,21078 9773,21007 9839,21002 9901,20998 9963,20927 10025,20860 10020,20793 10082,20660 10078,20593 10068,20460 9992,20399 9855,20342 9727,20351 9656,20293 9597,20360 9526,20365 9464,20436 9393,20374 9389,20312 9384,20245 9451,20241 9512,20169 9579,20098 9575,20036 9570,19965 9565,19903 9489,19842 9484,19775 9347,19722 9285,19727 9281,19656 9342,19652 9409,19647 9480,19713 9457,19384 9452,19318 9447,19252 9443,19185 9372,19123 9367,19057 9300,19062 9234,19004 9168,19009 9163,18943 9154,18810 9149,18743 9211,18676 9207,18609 9136,18552 9131,18481 9126,18420 9183,18282 9112,18224 9037,18096 9032,18108 8957,17990 8886,17929 8815,17871 8749,17875 8621,17884 8558,17889 8483,17827 8417,17832 8412,17770 8479,17766 8554,17822 8616,17818 8687,17813 8682,17751 8806,17743 8868,17667 8801,17671 8730,17609 8673,17614 8668,17551 8792,17542 8859,17537 8930,17595 8997,17528 9058,17523 9053,17453 9178,17386 9243,17310 9239,17248 9164,17187 9230,17115 9292,17111 9288,17045 9359,17039 9416,16973 9411,16906 9407,16840 9345,16844 9274,16849 9211,16853 9206,16787 9131,16725 9069,16730 8941,16739 8869,16744 8736,16753 8670,16758 8547,16833 8484,16838 8479,16771 8475,16705 8470,16638 8599,16568 8656,16563 8651,16497 8713,16426 8780,16421 8846,16416 8913,16349 8970,16273 9099,16264 9094,16197 9160,16135 9085,16069 9022,16074 8956,16079 8952,16016 8823,16088 8686,16035 8681,15964 8619,16039 8557,15973 8614,15969 8482,15916 8419,15920 8424,15983 8362,16120 8433,16115 8367,16191 8230,16130 8301,16196 8235,16200 8172,16263 8243,16324 8248,16396 8253,16458 8182,16400 8119,16405 8114,16334 8048,16338 7981,16343 7920,16419 7924,16482 7929,16548 7934,16615 8005,16671 8009,16738 7880,16747 7885,16813 7890,16880 7819,16885 7761,16956 7766,17022 7771,17089 7642,17161 7664,17180 7666,17182 7713,17222 7785,17284 7838,17147 7908,17142 7966,17075 8033,17070 7971,17138 7913,17208 7847,17280 7918,17275 7922,17341 7852,17346 7789,17351 7727,17417 7670,17551 7675,17621 7679,17684 7741,17616 7799,17484 7861,17479 7936,17532 7941,17602 7875,17670 7812,17674 7817,17741 7879,17736 7950,17731 8017,17798 8084,17794 8088,17855 8022,17860 8026,17926 7968,17993 7903,18065 7845,18136 7778,18140 7783,18207 7721,18273 7654,18278 7659,18349 7593,18354 7597,18416 7607,18549 7611,18615 7678,18610 7673,18544 7668,18477 7735,18473 7806,18534 7811,18601 7882,18663 7877,18596 7873,18530 7930,18459 8006,18520 8010,18587 8135,18511 8139,18578 8206,18573 8201,18507 8268,18502 8335,18564 8401,18559 8463,18488 8466,18532 8408,18604 8342,18608 8346,18670 8280,18613 8218,18679 8156,18750 8160,18813 8170,18950 8174,19012 8246,19074 8313,19069 8252,19136 8317,19131 8450,19188 8454,19255 8326,19264 8331,19330 8265,19335 8269,19402 8274,19468 8207,19473 8145,19545 8149,19607 8216,19602 8220,19668 8225,19731 8292,19726 8230,19801 8163,19806 8158,19736 8105,19801 8049,19756 8044,19690 7982,19694 7916,19699 7912,19637 7716,19713 7649,19718 7587,19789 7459,19798 7398,19869 7331,19874 7336,19940 7402,19936 7464,19864 7539,19926 7592,19855 7658,19851 7663,19917 7601,19984 7606,20051 7610,20117 7553,20121 7615,20184 7562,20254 "/>
   <line class="fil0 str0" x1="8475" y1="16705" x2="8537" y2= "16701" />
   <line class="fil0 str1" x1="8475" y1="16705" x2="8537" y2= "16701" />
   <line class="fil0 str1" x1="7934" y1="16615" x2="7871" y2= "16619" />
   <line class="fil0 str1" x1="7934" y1="16615" x2="7871" y2= "16619" />
   <polygon class="fil0 str0" points="13695,17811 13624,17816 13433,17829 13366,17834 13301,17905 13305,17968 13385,18096 13381,18033 13376,17963 13438,17896 13495,17892 13567,17887 13628,17882 13700,17877 13762,17873 13828,17801 13894,17797 14023,17787 14095,17849 14165,17907 14161,17845 14218,17774 14285,17707 14276,17574 14204,17579 14200,17513 14266,17441 14323,17374 14262,17379 14195,17446 14133,17451 14067,17455 14005,17526 13938,17531 13881,17602 13819,17673 13824,17740 13758,17806 "/>
   <polygon class="fil0 str0" points="13850,19119 13860,19252 13997,19242 14001,19304 14130,19295 14197,19290 14192,19229 14187,19162 14183,19096 14178,19033 14112,19038 14040,18972 13983,19047 13911,18981 13916,19052 13846,19057 "/>
   <polygon class="fil0 str0" points="14337,18884 14275,18951 14280,19022 14351,19084 14289,19150 14293,19216 14364,19274 14497,19265 14564,19260 14569,19331 14502,19335 14640,19389 14706,19384 14635,19326 14697,19251 14759,19246 14817,19113 14746,19056 14869,18909 14931,18842 14855,18714 14917,18647 14851,18652 14913,18580 14780,18590 14713,18594 14655,18665 14718,18661 14789,18719 14727,18790 14664,18794 14598,18799 14603,18866 14607,18927 14541,18932 14470,18875 14531,18804 14527,18737 14460,18742 14465,18808 14403,18880 "/>
   <polygon class="fil0 str0" points="14383,19540 14378,19474 14312,19479 14245,19483 14250,19550 14321,19607 14392,19669 14459,19665 14525,19660 14520,19592 14450,19536 "/>
   <polygon class="fil0 str0" points="14716,19517 14649,19521 14578,19460 14583,19526 14587,19588 14658,19651 14653,19583 14720,19578 "/>
   <polygon class="fil0 str0" points="22631,32455 22485,32525 22123,32517 22124,32445 21980,32442 21761,32509 21544,32505 21547,32360 21475,32358 21473,32431 21329,32428 21259,32282 21113,32351 21110,32495 21105,32712 21395,32719 21758,32654 22046,32733 22041,32950 22552,32743 22986,32753 22991,32535 22772,32603 "/>
   <polygon class="fil0 str0" points="15749,32743 15748,32816 15818,32890 15963,32893 15965,32820 15821,32745 "/>
   <polygon class="fil0 str0" points="15604,32740 15677,32742 15678,32669 15606,32668 "/>
   <path class="fil0 str0" d="M27271 32048l294 -211c0,0 -218,67 -366,209 -148,142 -513,279 -513,279l-289 -7 -5 217 -144 -3c0,0 71,74 -3,145 -74,71 -217,-5 -217,-5 135,438 429,227 429,227l216 77 295 -284 3 -144 363 -65c0,0 -144,-3 -213,-149 -70,-146 150,-286 150,-286z"/>
  </g>
  <g id="_2455754679456">
   <circle class="fil1" cx="11336" cy="21336" r="191"/>
   <circle class="fil1" cx="9713" cy="23241" r="191"/>
   <circle class="fil1" cx="15966" cy="22860" r="191"/>
   <circle class="fil1" cx="15023" cy="21145" r="191"/>
  </g>
 </g>
</svg>
