<?xml version="1.0" encoding="UTF-8"?>
<!DOCTYPE svg PUBLIC "-//W3C//DTD SVG 1.1//EN" "http://www.w3.org/Graphics/SVG/1.1/DTD/svg11.dtd">
<!-- Creator: CorelDRAW X8 -->
<svg xmlns="http://www.w3.org/2000/svg" xml:space="preserve" width="220.133mm" height="220.133mm" version="1.1" style="shape-rendering:geometricPrecision; text-rendering:geometricPrecision; image-rendering:optimizeQuality; fill-rule:evenodd; clip-rule:evenodd"
viewBox="0 0 22013 22013"
 xmlns:xlink="http://www.w3.org/1999/xlink">
 <defs>
  <style type="text/css">
   <![CDATA[
    .str1 {stroke:#DADADA;stroke-width:380.99}
    .str0 {stroke:#DADADA;stroke-width:7.62}
    .fil1 {fill:none}
    .fil0 {fill:#DADADA;fill-rule:nonzero}
   ]]>
  </style>
 </defs>
 <g id="Warstwa_x0020_1">
  <metadata id="CorelCorpID_0Corel-Layer"/>
  <g id="_2401655504848">
   <path class="fil0 str0" d="M15545 9003c-5,4 -10,9 -15,14 -35,34 -68,67 -101,96 -839,740 -1741,1536 -2658,2342 -90,79 -130,177 -117,292l526 526c-29,-172 -59,-346 -89,-525 905,-796 1795,-1581 2623,-2311 43,-38 82,-76 119,-113 16,-16 32,-31 48,-47 24,-23 42,-51 54,-83l54 -154c8,-23 13,-47 13,-71 2,-221 -89,-412 -262,-551 -19,-15 -40,-27 -63,-35l-155 -55c-34,-12 -70,-15 -106,-10 -152,25 -304,49 -456,73 -339,54 -689,109 -1035,166 -656,109 -1349,225 -2178,366 -822,-936 -1633,-1857 -2319,-2636 -36,-40 -73,-77 -108,-112 -15,-14 -30,-29 -44,-44 -23,-23 -51,-41 -82,-52l-155 -55c-22,-8 -46,-12 -71,-13 0,0 -3,0 -4,0 -219,0 -408,91 -546,262 -15,19 -27,40 -35,63l-55 155c-12,34 -16,71 -10,106 29,177 57,354 85,531 24,145 47,292 71,439l521 522c-56,-345 -112,-692 -166,-1029 -25,-159 -51,-318 -76,-477l22 -64c45,-45 95,-69 159,-75l69 25c5,4 9,8 13,12 31,32 62,61 88,92 695,788 1518,1722 2350,2670 69,79 154,119 252,119 22,0 43,-2 67,-6 848,-144 1554,-263 2223,-373 344,-57 693,-112 1032,-166 134,-21 268,-43 402,-64l64 23c46,44 70,94 75,157l-24 70zm-2528 4920c55,340 110,681 164,1014 27,164 53,329 80,493l-23 64c-44,46 -94,70 -159,75l-70 -24c-3,-4 -6,-7 -9,-10 -29,-29 -57,-56 -81,-83 -754,-855 -1561,-1771 -2358,-2678 -70,-81 -157,-122 -256,-122 -22,0 -44,2 -68,6 -810,138 -1536,260 -2218,372 -343,57 -692,112 -1029,166 -136,22 -271,43 -407,65l-64 -23c-46,-45 -70,-95 -75,-158l24 -69c5,-5 10,-9 15,-14 35,-34 68,-67 101,-96 987,-871 1817,-1602 2659,-2342 90,-79 129,-178 116,-294l-526 -525c29,170 59,346 89,527 -830,729 -1650,1452 -2623,2310 -42,37 -81,76 -119,112 -16,16 -31,32 -48,47 -24,23 -42,52 -53,83l-55 155c-8,23 -12,47 -13,71 -1,221 89,411 262,550 19,15 40,27 63,36l155 55c34,12 70,15 106,9 154,-24 307,-49 461,-73 338,-54 687,-109 1031,-166 671,-111 1383,-230 2177,-365 788,897 1585,1801 2329,2646 34,38 68,72 102,105 13,13 27,27 40,40 23,24 51,42 82,53l155 55c23,8 47,12 72,12 0,0 1,0 1,0 222,0 411,-91 549,-262 15,-19 26,-40 34,-63l55 -154c13,-35 16,-71 10,-107 -29,-183 -59,-365 -88,-548l-69 -423 -521 -522z"/>
   <path class="fil0 str0" d="M11028 11934c-7,1 -13,1 -20,1 -70,0 -141,-9 -211,-25 -244,-57 -450,-204 -579,-415 -96,-156 -144,-334 -140,-510l-371 -372c-9,29 -17,57 -24,86 -83,342 -22,715 167,1022 191,309 492,526 849,609 101,24 205,36 309,36l0 0c136,0 268,-20 394,-58l-374 -374zm-42 -1855c7,0 14,0 21,0 69,0 138,8 206,24 258,60 472,219 601,448 84,148 125,313 121,477l372 372c110,-349 67,-735 -117,-1062 -189,-335 -502,-568 -880,-655 -99,-23 -201,-35 -303,-35 -137,0 -269,20 -394,58l373 373z"/>
  </g>
  <rect class="fil1" width="22013" height="22013"/>
  <path class="fil1 str1" d="M11007 1693c5143,0 9313,4170 9313,9314 0,5143 -4170,9313 -9313,9313 -5144,0 -9314,-4170 -9314,-9313 0,-5144 4170,-9314 9314,-9314zm-4685 3590l10408 10408c1046,-1275 1673,-2906 1673,-4684 0,-4085 -3311,-7397 -7396,-7397 -1778,0 -3409,628 -4685,1673zm9369 11447l-10408 -10408c-1045,1276 -1673,2907 -1673,4685 0,4085 3312,7396 7397,7396 1777,0 3409,-627 4684,-1673z"/>
 </g>
</svg>
