<?xml version="1.0" encoding="UTF-8"?>
<!DOCTYPE svg PUBLIC "-//W3C//DTD SVG 1.1//EN" "http://www.w3.org/Graphics/SVG/1.1/DTD/svg11.dtd">
<!-- Creator: CorelDRAW X8 -->
<svg xmlns="http://www.w3.org/2000/svg" xml:space="preserve" width="220.133mm" height="220.133mm" version="1.1" style="shape-rendering:geometricPrecision; text-rendering:geometricPrecision; image-rendering:optimizeQuality; fill-rule:evenodd; clip-rule:evenodd"
viewBox="0 0 22013 22013"
 xmlns:xlink="http://www.w3.org/1999/xlink">
 <defs>
  <style type="text/css">
   <![CDATA[
    .str1 {stroke:#DADADA;stroke-width:380.99}
    .str0 {stroke:#DADADA;stroke-width:69.97}
    .fil1 {fill:none}
    .fil0 {fill:#DADADA;fill-rule:nonzero}
   ]]>
  </style>
 </defs>
 <g id="Warstwa_x0020_1">
  <metadata id="CorelCorpID_0Corel-Layer"/>
  <g id="_2401725253584">
   <path class="fil0 str0" d="M12999 10622c0,471 -108,887 -301,1220l163 163c231,-373 361,-845 361,-1383l0 -3508c0,-362 -259,-655 -578,-655 -319,0 -578,293 -578,655l0 739c-98,-77 -220,-125 -355,-125 -199,0 -375,101 -479,254 -106,-153 -269,-254 -454,-254 -135,0 -257,54 -355,142l0 -1203c0,-362 -259,-656 -578,-656 -319,0 -578,294 -578,656l0 1743 223 223 0 -1966c0,-239 159,-433 355,-433 196,0 355,194 355,433l0 2677 758 758c110,-42 204,-121 273,-222 105,154 281,255 480,255 319,0 578,-259 578,-578l0 -2443c0,-239 159,-432 355,-432 196,0 355,193 355,432l0 3508zm-1244 1989c-159,49 -330,75 -511,75 -1406,0 -1939,-1383 -2218,-2423 -14,-53 -16,-108 -3,-156 18,-76 46,-120 81,-147l-158 -158c-66,59 -112,142 -140,250 -21,86 -20,179 4,269 200,742 524,1648 1182,2167l0 757 -253 0c-62,0 -112,50 -112,111l0 1111c0,62 50,112 112,112l253 0 0 1312c0,61 50,111 111,111 62,0 112,-50 112,-111l0 -1312 2138 0 0 1312c0,61 50,111 111,111 62,0 112,-50 112,-111l0 -1312 253 0c61,0 111,-50 111,-112l0 -671 -223 -222 0 782 -2867 0 0 -888 2761 0 -258 -259 0 36 -2138 0 0 -604c285,167 624,268 1029,268 247,0 477,-43 687,-122l-176 -176zm-1892 -1892c-12,22 -17,48 -12,74 65,336 202,523 491,667 16,8 33,12 50,12 41,0 80,-22 100,-61 8,-17 12,-34 11,-51l-145 -145c-88,-56 -151,-118 -197,-198l-298 -298zm915 -2768c196,0 355,194 355,432l0 1097c0,203 -118,376 -275,421 -45,-118 -117,-220 -213,-291 -67,-49 -141,-80 -218,-95 -1,-12 -4,-23 -4,-35l0 -1097c0,-238 159,-432 355,-432zm578 355c0,-196 159,-355 355,-355 196,0 355,159 355,355l0 1251c0,196 -159,355 -355,355 -196,0 -355,-159 -355,-355l0 -1251z"/>
   <path class="fil0 str0" d="M10410 13800l-81 0c-61,0 -111,50 -111,112 0,61 50,111 111,111l81 0c62,0 112,-50 112,-111 0,-62 -50,-112 -112,-112z"/>
   <path class="fil0 str0" d="M10867 13800l-81 0c-61,0 -111,50 -111,112 0,61 50,111 111,111l81 0c62,0 112,-50 112,-111 0,-62 -50,-112 -112,-112z"/>
   <path class="fil0 str0" d="M11324 13800l-81 0c-61,0 -111,50 -111,112 0,61 50,111 111,111l81 0c62,0 112,-50 112,-111 0,-62 -50,-112 -112,-112z"/>
   <path class="fil0 str0" d="M11781 13800l-81 0c-61,0 -111,50 -111,112 0,61 50,111 111,111l81 0c62,0 112,-50 112,-111 0,-62 -50,-112 -112,-112z"/>
   <path class="fil0 str0" d="M12239 13800l-81 0c-62,0 -112,50 -112,112 0,61 50,111 112,111l81 0c61,0 111,-50 111,-111 0,-62 -50,-112 -111,-112z"/>
  </g>
  <rect class="fil1" width="22013" height="22013"/>
  <path class="fil1 str1" d="M11007 1693c5143,0 9313,4170 9313,9314 0,5143 -4170,9313 -9313,9313 -5144,0 -9314,-4170 -9314,-9313 0,-5144 4170,-9314 9314,-9314zm-4685 3590l10408 10408c1046,-1275 1673,-2906 1673,-4684 0,-4085 -3311,-7397 -7396,-7397 -1778,0 -3409,628 -4685,1673zm9369 11447l-10408 -10408c-1045,1276 -1673,2907 -1673,4685 0,4085 3312,7396 7397,7396 1777,0 3409,-627 4684,-1673z"/>
 </g>
</svg>
