<?xml version="1.0" encoding="UTF-8" standalone="no"?>
<!DOCTYPE svg PUBLIC "-//W3C//DTD SVG 1.1//EN" "http://www.w3.org/Graphics/SVG/1.1/DTD/svg11.dtd">
<svg width="100%" height="100%" viewBox="0 0 1800 1080" version="1.1" xmlns="http://www.w3.org/2000/svg" xmlns:xlink="http://www.w3.org/1999/xlink" xml:space="preserve" xmlns:serif="http://www.serif.com/" style="fill-rule:evenodd;clip-rule:evenodd;stroke-linecap:round;stroke-linejoin:round;stroke-miterlimit:22.9256;">
    <g id="Fm137-137-0">
    </g>
    <g id="Fm86-86-0">
    </g>
    <g id="Fm152-152-0">
    </g>
    <g id="Fm167-167-0">
    </g>
    <g id="Fm131-131-0">
    </g>
    <g id="Fm210-210-0">
    </g>
    <g id="Fm194-194-0">
    </g>
    <g id="Fm134-134-0">
    </g>
    <g id="Fm188-188-0">
    </g>
    <g id="Fm128-128-0">
    </g>
    <g id="Fm89-89-0">
    </g>
    <g id="Fm110-110-0">
    </g>
    <g id="Fm161-161-0">
    </g>
    <g id="Fm155-155-0">
    </g>
    <g id="Fm207-207-0">
    </g>
    <g id="Fm222-222-0">
    </g>
    <g id="Fm122-122-0">
    </g>
    <g id="Fm107-107-0">
    </g>
    <g id="Fm125-125-0">
    </g>
    <g id="Fm95-95-0">
    </g>
    <g id="Fm140-140-0">
    </g>
    <g id="Fm179-179-0">
    </g>
    <g id="Fm219-219-0">
    </g>
    <g id="Fm225-225-0">
    </g>
    <g id="Fm149-149-0">
    </g>
    <g id="Fm146-146-0">
    </g>
    <g id="Fm76-76-0">
    </g>
    <g id="Fm116-116-0">
    </g>
    <g id="Fm104-104-0">
    </g>
    <g id="Fm182-182-0">
    </g>
    <g id="Fm216-216-0">
    </g>
    <g id="Fm176-176-0">
    </g>
    <g id="Fm101-101-0">
    </g>
    <g id="Fm113-113-0">
    </g>
    <g id="Fm119-119-0">
    </g>
    <g id="Fm143-143-0">
    </g>
    <g id="Fm92-92-0">
    </g>
    <g id="Fm185-185-0">
    </g>
    <g id="Fm213-213-0">
    </g>
    <g id="Fm164-164-0">
    </g>
    <g id="Fm204-204-0">
    </g>
    <g id="Fm173-173-0">
    </g>
    <g id="Fm191-191-0">
    </g>
    <g id="Fm170-170-0">
    </g>
    <g id="Fm98-98-0">
    </g>
    <g id="Fm158-158-0">
    </g>
    <g id="Warstwa_x0020_1">
        <rect x="-0" y="-0" width="1800" height="1080" style="fill:none;"/>
        <g id="_2528602158032">
            <path id="Fill-4" d="M976.054,967.62L955.701,979.781C955.162,980.093 954.765,980.461 954.765,981.113L954.765,986.414C954.765,987.066 955.191,987.349 955.729,987.038L976.394,974.48C976.932,974.168 977.017,973.573 977.017,972.921L977.017,968.215C977.017,967.563 976.592,967.308 976.054,967.62Z" style="fill:none;stroke:rgb(218,218,218);stroke-width:3.6px;"/>
            <path id="Fill-4_0" d="M932.712,922.804C933.392,922.464 933.931,922.889 933.931,923.74L934.016,930.77C936.964,929.608 939.515,929.296 941.839,929.834C942.321,929.948 942.548,930.656 942.35,931.45L940.791,937.686C940.677,938.168 940.422,938.65 940.082,938.934C939.969,939.075 939.827,939.16 939.685,939.245C939.487,939.359 939.26,939.387 939.09,939.33C938.013,939.104 935.49,938.537 931.55,940.549C927.383,942.647 925.937,946.275 925.965,948.94C925.994,952.143 927.638,953.107 933.307,953.22C940.847,953.334 944.107,956.65 944.192,964.247C944.277,971.702 940.28,979.724 934.186,984.628L934.328,991.601C934.328,992.452 933.789,993.415 933.137,993.727L928.998,996.108C928.346,996.449 927.808,996.052 927.78,995.201L927.723,988.341C924.18,989.815 920.608,990.156 918.312,989.249C917.887,989.078 917.688,988.455 917.858,987.718L919.361,981.425C919.474,980.915 919.757,980.433 920.098,980.121C920.239,979.979 920.353,979.894 920.494,979.838C920.721,979.696 920.948,979.696 921.146,979.752C923.613,980.575 926.787,980.206 929.792,978.675C933.647,976.719 936.227,972.779 936.198,968.896C936.17,965.352 934.243,963.878 929.565,963.85C923.641,963.85 918.113,962.688 918.028,953.957C917.943,946.757 921.685,939.274 927.609,934.54L927.524,927.51C927.524,926.631 928.063,925.696 928.743,925.356L932.712,922.804Z" style="fill:none;stroke:rgb(218,218,218);stroke-width:3.6px;"/>
            <path id="Fill-4_1" d="M997.455,833.173L915.761,784.672C910.885,781.781 905.443,780.335 900,780.335C894.557,780.335 889.115,781.781 884.239,784.672L802.545,833.173C792.794,838.956 786.784,849.671 786.784,861.236L786.784,958.238C786.784,969.803 792.794,980.518 802.545,986.301L884.239,1034.8C889.115,1037.69 894.557,1039.14 900,1039.14C905.443,1039.14 910.885,1037.69 915.761,1034.8L997.455,986.301C1007.21,980.518 1013.22,969.803 1013.22,958.238L1013.22,861.236C1013.22,849.671 1007.21,838.956 997.455,833.173Z" style="fill:none;stroke:rgb(218,218,218);stroke-width:3.6px;"/>
            <path id="Fill-4_2" d="M887.102,1029.84L805.38,981.34C797.414,976.578 792.425,967.734 792.425,958.238L792.425,861.236C792.425,851.74 797.414,842.867 805.38,838.134L887.102,789.633C891.014,787.308 895.465,786.089 900,786.089C904.535,786.089 908.986,787.308 912.898,789.633L994.62,838.134C1001.34,842.13 1005.87,849.047 1007.18,856.814C1004.46,851.031 998.334,849.472 991.219,853.611L913.918,901.375C904.28,907.015 897.194,913.337 897.165,924.959L897.165,1020.2C897.165,1027.15 899.972,1031.65 904.309,1032.96C902.891,1033.21 901.446,1033.38 900,1033.38C895.465,1033.38 891.014,1032.16 887.102,1029.84" style="fill:none;stroke:rgb(218,218,218);stroke-width:3.6px;"/>
        </g>
        <g id="_2302008203824">
            <path d="M956.211,234.751C951.024,243.028 943.767,250.285 935.49,255.472L922.025,223.015C921.317,220.238 922.706,217.488 925.115,216.439C926.164,216.099 927.184,215.759 928.233,215.759L962.759,221.626C961.03,226.474 958.961,230.952 956.211,234.751Z" style="fill:none;stroke:rgb(218,218,218);stroke-width:3.6px;stroke-linecap:butt;stroke-linejoin:miter;"/>
            <path d="M877.465,263.069L894.387,232.341C896.117,230.272 898.866,229.563 901.304,230.952C902.324,231.633 903.005,232.341 904.054,233.362L920.636,263.409C902.948,266.357 895.606,268.512 877.465,263.069Z" style="fill:none;stroke:rgb(218,218,218);stroke-width:3.6px;stroke-linecap:butt;stroke-linejoin:miter;"/>
            <path d="M835.682,221.967L869.868,216.099C872.617,216.099 875.395,217.828 875.735,220.606C876.076,221.626 876.076,223.015 875.395,224.036L862.271,255.812C850.167,247.875 840.501,235.8 835.682,221.967Z" style="fill:none;stroke:rgb(218,218,218);stroke-width:3.6px;stroke-linecap:butt;stroke-linejoin:miter;"/>
            <path d="M841.55,163.601L867.09,186.392C869.528,188.461 869.868,191.919 867.798,194.357C867.09,195.378 866.409,195.718 865.02,196.058L831.515,205.752C830.494,191.239 833.953,176.386 841.55,163.601Z" style="fill:none;stroke:rgb(218,218,218);stroke-width:3.6px;stroke-linecap:butt;stroke-linejoin:miter;"/>
            <path d="M883.672,133.214L890.589,131.825L888.86,166.379C888.86,169.469 886.082,171.907 882.992,171.907C881.943,171.907 881.263,171.538 880.214,171.198L851.556,150.817C860.542,142.2 871.597,135.963 883.672,133.214Z" style="fill:none;stroke:rgb(218,218,218);stroke-width:3.6px;stroke-linecap:butt;stroke-linejoin:miter;"/>
            <path d="M946.205,150.817L917.858,170.858C915.449,172.247 911.991,171.907 910.261,169.469C909.581,168.789 909.241,168.08 909.241,167.06L907.172,132.165C922.365,133.894 935.83,140.471 946.205,150.817Z" style="fill:none;stroke:rgb(218,218,218);stroke-width:3.6px;stroke-linecap:butt;stroke-linejoin:miter;"/>
            <path d="M966.217,205.752L933.42,196.426C930.302,195.718 928.573,192.628 929.254,189.51C929.622,188.461 929.962,187.781 930.643,187.101L956.551,163.601C963.921,175.677 967.578,191.664 966.217,205.752Z" style="fill:none;stroke:rgb(218,218,218);stroke-width:3.6px;stroke-linecap:butt;stroke-linejoin:miter;"/>
            <path d="M908.532,206.433L899.206,210.912L889.909,206.433L887.471,196.426L894.047,188.121L904.394,188.121L910.97,196.426L908.532,206.433Z" style="fill:none;stroke:rgb(218,218,218);stroke-width:3.6px;stroke-linecap:butt;stroke-linejoin:miter;"/>
            <path d="M999.723,215.759C995.924,215.419 991.786,214.71 987.987,213.689C986.939,213.349 985.918,212.301 985.55,211.28C986.202,211.28 983.225,210.685 982.8,210.571C984.189,200.565 983.48,190.19 981.411,180.184C979.002,170.178 974.863,160.483 969.335,151.866L971.405,149.797C971.405,148.634 971.603,147.189 972.454,146.338C975.543,143.56 978.661,141.491 982.12,139.422C982.8,139.082 983.48,138.741 984.189,138.401C985.55,137.693 986.598,137.012 987.987,136.332C990.652,133.639 993.798,129.642 990.397,125.277C989.376,123.888 987.279,122.839 985.55,122.839C982.006,122.839 979.852,125.617 979.342,125.617C978.321,126.638 977.272,127.686 976.592,128.735C976.252,129.415 975.543,129.756 975.203,130.096C972.737,132.93 969.704,135.623 966.557,137.693C965.877,138.033 965.197,138.401 964.488,138.401C963.581,138.401 963.354,138.061 962.759,138.033L960.009,139.762C957.231,137.012 954.142,134.234 951.364,131.485C938.58,121.478 922.706,115.242 906.463,113.513L906.123,111.104C905.102,110.423 904.734,109.375 904.394,108.354C904.394,104.556 904.394,100.757 905.102,96.59C905.102,95.683 905.443,94.946 905.443,94.181C905.783,92.792 905.783,91.431 906.123,90.042L906.123,87.973C906.463,84.515 903.713,81.056 900.255,80.716C898.186,80.376 896.117,81.397 894.387,83.126C892.998,84.515 892.318,86.244 892.318,87.973L892.318,89.702C892.318,91.063 892.658,92.452 892.998,93.841C893.395,94.606 893.339,95.428 893.339,96.25C894.047,100.049 894.047,103.847 894.047,107.986C893.707,109.034 893.339,110.083 892.318,110.763L891.978,114.222C888.18,114.562 884.381,115.242 880.214,115.951C864,119.409 849.146,128.026 837.751,140.13L835.682,138.741L835.313,138.741C834.973,138.741 834.633,139.082 833.953,139.082C833.244,139.082 832.564,138.741 831.883,138.401C828.227,135.567 825.08,132.307 821.849,129.075C820.828,128.026 820.12,127.006 819.099,125.957C818.759,125.617 818.192,125.419 817.71,124.908C816.321,123.888 814.592,123.208 812.863,123.208C810.794,123.208 809.065,123.888 808.044,125.617C803.735,132.08 809.915,136.049 814.592,138.401C815.301,138.741 815.981,139.082 816.661,139.422C820.12,141.491 823.578,143.56 826.356,146.338C827.745,147.727 827.49,149.91 827.376,149.088L829.446,151.157C829.106,151.866 828.765,152.206 828.425,152.886C817.71,169.809 813.231,189.85 816.321,209.551C816.009,209.608 813.26,210.571 813.231,210.571C812.863,211.62 811.843,212.301 810.794,212.981C808.044,213.746 797.981,214.908 796.989,215.419C791.773,215.419 783.978,217.375 785.254,224.404C786.898,231.775 794.58,228.77 799.398,227.154C802.29,225.708 810.057,223.894 813.231,223.356C814.394,223.356 815.471,223.526 816.321,224.404C817.313,224.404 818.05,224.575 819.78,224.404C824.967,240.278 834.633,254.452 848.098,264.798C851.216,267.208 853.965,269.277 857.424,271.006L855.694,273.444C855.694,273.897 857.254,274.663 856.403,277.242C855.014,280.701 852.945,284.13 850.876,287.249C850.876,287.844 846.085,294.165 846.028,294.165C844.384,297.453 845.546,301.677 848.806,303.491C849.487,303.831 850.507,304.171 851.216,304.171C853.965,304.171 856.403,302.442 857.764,300.033C857.764,299.919 859.975,295.781 860.202,294.845L860.882,292.776C861.902,289.006 863.631,285.548 865.361,282.061C866.069,281.041 867.09,280.332 868.139,279.992C868.649,279.992 869.584,277.469 869.868,276.874C879.534,280.701 889.54,282.401 899.915,282.401C906.123,282.401 912.331,281.721 918.567,279.992C922.365,279.312 926.164,277.923 929.622,276.902L930.983,279.312C931.493,279.312 931.096,279.51 931.833,279.85C932.712,280.219 933.534,280.842 934.101,281.721C935.83,285.179 937.559,288.638 938.58,292.436C939.09,294.222 939.713,297.226 940.677,298.644C942.917,300.912 943.455,304.171 948.274,304.171C949.294,304.171 949.975,303.831 951.024,303.491C952.413,302.782 953.802,301.422 954.142,299.693C954.935,295.696 953.093,292.436 950.343,289.658C949.748,288.496 948.954,288.467 948.954,287.249C946.545,284.13 944.816,280.701 943.427,277.242C943.087,276.25 943.087,274.975 943.682,273.954C943.795,273.727 943.824,273.444 944.107,273.444L943.087,270.666C960.69,259.951 974.154,243.397 980.391,223.696L983.14,224.036C983.282,224.036 984.444,222.675 986.598,222.675C990.397,223.356 994.195,224.404 997.654,225.765C998.277,225.765 1001.06,226.956 1001.82,227.296C1003.81,228.146 1006.5,229.223 1007.66,229.223C1010.78,229.223 1013.53,227.154 1014.58,224.376C1014.24,220.776 1011.74,218.112 1008.82,217.261C1006.95,216.723 1006.21,216.354 1004.63,216.212C1003.55,216.099 1000.63,215.759 999.723,215.759Z" style="fill:none;stroke:rgb(218,218,218);stroke-width:3.6px;"/>
            <path d="M1024.58,108.694C1022.85,103.167 1018.72,98.66 1013.53,95.91L908.192,45.482C902.098,42.42 893.197,43.356 887.244,46.219L785.594,95.23C780.406,97.639 776.608,102.118 775.219,107.986L749.339,221.626C748.29,227.494 749.679,233.362 753.137,238.209L825.987,328.351C830.154,332.489 836.022,335.267 841.89,335.608L957.94,335.608C964.148,336.288 970.016,333.538 973.814,328.351L1046.69,238.209C1050.15,233.362 1051.54,227.494 1050.83,221.626L1024.58,108.694Z" style="fill:none;stroke:rgb(218,218,218);stroke-width:3.6px;"/>
        </g>
        <g id="_2302008201488">
            <path d="M899.291,691.214" style="fill:none;stroke:rgb(218,218,218);stroke-width:3.6px;stroke-linecap:butt;stroke-linejoin:miter;"/>
            <path d="M899.291,691.214C888.321,691.214 879.364,692.404 872.476,694.786C868.309,696.231 868.592,695.919 865.701,698.811C860.995,703.516 855.666,705.926 848.636,705.926C843.506,705.926 835.427,703.941 824.542,699.945C813.543,696.175 803.82,693.283 795.345,691.384C794.494,691.157 792.624,690.789 789.591,690.307C786.643,689.825 783.921,689.343 781.512,688.889C779.329,688.408 776.806,687.699 774.085,686.735C771.477,685.913 769.38,684.836 767.792,683.504C766.346,682.2 765.638,680.697 765.638,679.053C765.638,677.381 766.006,675.567 766.715,673.667C767.395,672.534 768.132,671.371 768.841,670.323C769.578,669.16 770.202,668.112 770.627,667.091C771.25,666.127 771.676,665.192 772.101,664.143C772.526,663.208 772.923,662.272 773.15,661.11C773.348,660.061 773.575,659.012 773.575,657.963C773.575,656.915 773.15,653.768 772.299,648.241C771.477,642.798 771.647,642.798 771.647,641.324C771.647,636.704 772.696,633.047 774.992,630.439C777.317,627.803 779.499,626.442 781.795,626.442L795.487,625.847C799.2,625.932 801.808,623.097 802.261,620.121C802.687,617.201 803.083,615.33 805.124,612.978C803.083,610.426 801.468,602.773 802.46,598.861C803.254,595.63 804.898,591.746 807.392,587.097L811.049,580.493C814.082,574.852 816.378,570.656 818.05,566.461C819.836,562.266 821.735,556.001 823.805,547.611C825.477,540.297 829.474,532.956 835.739,525.642L843.591,516.203C849.033,509.938 852.605,504.694 854.589,500.499C856.573,496.332 857.622,491.088 857.622,486.893C857.622,484.795 857.112,478.53 855.95,468.042C854.901,457.582 854.391,447.123 854.391,437.683C854.391,421.186 859.805,400.606 877.323,394.767C884.721,392.301 901.02,390.118 908.731,392.669C911.877,392.669 916.044,393.718 921.288,395.815C939.742,405.056 946.035,417.897 948.501,437.683C949.55,442.927 949.55,448.171 950.598,455.485C950.598,461.778 951.647,465.973 951.647,469.091C952.696,472.238 952.696,476.433 953.745,481.677C954.794,485.844 955.843,490.039 957.94,493.186C960.009,497.381 962.107,501.548 965.254,505.743C968.4,510.987 972.595,516.203 976.762,522.496C986.202,532.956 993.515,544.493 997.71,556.001C1002.95,566.461 1006.1,580.067 1006.1,594.638C1006.1,601.866 1005.93,608.867 1003.83,615.671C1005.93,615.671 1006.1,616.521 1007.12,617.967C1008.17,619.441 1009.22,622.587 1010.27,627.491L1011.32,635.258C1012.37,637.554 1013.41,639.765 1016.56,641.636C1018.66,643.535 1020.76,645.094 1023.87,646.341C1025.97,647.39 1029.12,648.864 1031.22,650.735C1033.31,652.833 1034.36,655.044 1034.36,657.34C1034.36,660.912 1033.31,663.519 1031.22,665.39C1029.12,667.488 1027.02,668.962 1023.87,669.897C1021.81,670.946 1017.61,673.044 1011.32,675.992C1006.1,679.11 1000.86,682.852 995.613,687.302L985.153,696.203C980.957,700.285 976.762,703.233 973.644,705.019C970.498,706.889 966.302,707.825 962.107,707.825L954.794,707.003C946.403,704.792 941.187,700.625 938.041,694.219C921.288,692.206 907.682,691.186 899.291,691.186" style="fill:none;stroke:rgb(218,218,218);stroke-width:3.6px;stroke-linecap:butt;stroke-linejoin:miter;"/>
            <path d="M825.534,592.171C825.534,584.943 826.98,577.148 830.835,567.708C842.712,538.03 838.998,535.875 826.243,566.206C821.849,575.645 820.885,584.631 820.885,591.009C820.885,595.743 822.047,599.825 824.117,603.368C826.441,606.826 831.969,611.844 840.784,618.25L851.868,625.45C863.717,635.712 871.342,642.855 871.342,647.022C871.342,649.233 870.293,651.415 867.146,653.825C865.049,656.348 862.214,657.595 859.833,657.595C859.606,657.595 859.493,657.822 859.493,658.332C859.493,658.445 860.542,660.543 862.753,664.625C867.146,670.578 875.225,673.526 887.783,673.526C908.419,673.526 923.187,665.702 935.83,650.508C937.928,647.986 940.309,644.187 940.592,640.502C940.847,637.412 939.09,635.541 939.09,631.233C939.09,624.43 942.236,616.889 944.306,613.545C946.403,610.2 948.501,608.641 951.647,608.641C953.745,608.641 955.843,609.349 957.94,610.937C958.989,602.858 958.989,598.549 958.989,592.285C958.989,577.8 958.252,565.072 951.647,551.863C946.545,544.209 941.272,537.264 939.09,528.789C937.049,520.88 938.211,521.334 934.157,513.198C930.416,505.771 927.269,498.231 923.613,490.918C899.036,506.792 888.463,516.912 866.835,497.409C866.835,500.556 865.786,504.751 863.717,508.946C859.861,516.288 853.087,528.193 852.293,536.159C851.868,538.256 851.556,540.354 851.357,540.354L843.506,556.058C835.03,571.762 830.863,585.482 830.863,597.529C830.863,599.938 831.09,602.433 831.515,604.956C826.781,601.696 825.534,598.039 825.534,592.171Z" style="fill:none;stroke:rgb(218,218,218);stroke-width:3.6px;stroke-linecap:butt;stroke-linejoin:miter;"/>
            <path d="M867.6,696.912C868.28,695.579 866.126,682.597 865.502,680.442C862.923,671.485 856.772,660.515 847.899,649.233L840.784,639.708C839.31,637.724 837.524,634.691 835.228,630.609C833.017,626.527 831.033,623.381 829.474,621.17C828.113,618.76 825.902,616.351 823.096,613.97C817.909,609.378 809.575,607.053 804.869,613.431" style="fill:none;stroke:rgb(218,218,218);stroke-width:3.6px;stroke-linecap:butt;stroke-linejoin:miter;"/>
            <path d="M1006.27,616.521C1004.34,616.521 999.978,620.263 996.576,623.466C991.219,628.54 986.202,635.882 977.924,635.882C969.562,635.882 965.367,633.586 962.22,629.078C959.074,624.033 959.187,614.735 952.809,614.735C947.565,614.735 945.468,620.178 945.468,631.176L945.468,634.634C945.468,650.593 943.37,666.836 943.37,681.094C943.37,695.381 938.324,695.239 938.324,695.239" style="fill:none;stroke:rgb(218,218,218);stroke-width:3.6px;stroke-linecap:butt;stroke-linejoin:miter;"/>
            <path d="M917.206,481.45C903.6,490.889 893.083,495.34 884.721,495.34C877.38,495.34 870.094,491.938 863.802,486.694C868.025,495.113 878.485,504.496 888.406,504.496C898.583,504.496 912.076,494.773 920.665,488.707C924.321,486.127 927.666,483.009 927.666,479.352C927.666,477.623 926.561,476.801 925.285,475.724C922.989,473.768 918,471.33 909.865,468.893C900.454,464.697 893.112,462.6 888.945,462.6C885.798,462.6 880.554,464.697 873.241,468.893C866.948,473.088 861.307,478.615 861.307,482.811C864.085,485.901 866.438,489.047 869.386,490.918C882.255,499.053 897.846,495.878 915.874,482.386" style="fill:none;stroke:rgb(218,218,218);stroke-width:2.4px;stroke-linecap:butt;stroke-linejoin:miter;"/>
            <path d="M904.45,466.512C902.665,464.726 901.871,446.896 911.962,446.896C918.198,446.896 920.863,453.954 920.863,459.312C920.863,464.556 918.51,468.439 914.315,469.488C918.68,470.565 917.915,469.771 922.45,472.039C923.471,465.746 925.285,461.551 925.285,456.335C925.285,450.042 923.471,445.847 921.402,442.729C918.255,439.582 915.109,438.534 910.913,438.534C903.997,438.534 898.356,442.814 898.356,450.042C898.356,455.286 899.717,460.53 901.786,464.697" style="fill:none;stroke:rgb(218,218,218);stroke-width:2.88px;stroke-linecap:butt;stroke-linejoin:miter;"/>
            <path d="M1001.99,615.16C1001.99,612.836 1001.71,610.115 998.561,607.082C991.843,600.363 985.408,600.534 976.592,599.683C985.748,571.28 972.057,546.335 963.694,540.297C959.528,537.293 955.304,538.682 962.334,545.031C976.025,557.39 973.531,584.971 970.583,601.129C966.416,602.801 961.71,605.352 958.592,611.419C958.592,616.521 988.98,590.782 1001.99,615.415" style="fill:none;stroke:rgb(218,218,218);stroke-width:3.6px;stroke-linecap:butt;stroke-linejoin:miter;"/>
            <path d="M870.236,470.253C866.041,468.156 864.85,463.649 864.85,458.433C864.85,453.841 866.665,447.945 872.192,447.945C877.691,447.945 879.506,456.222 879.506,460.53L879.506,464.981L881.603,463.847L881.603,455.286C881.603,448.682 879.024,440.631 871.143,440.631C860.258,440.943 857.962,461.608 866.381,470.423C866.58,470.622 868.45,471.869 868.649,472.067" style="fill:none;stroke:rgb(218,218,218);stroke-width:2.4px;stroke-linecap:butt;stroke-linejoin:miter;"/>
            <path d="M883.474,470.99L883.701,470.99C885.798,468.893 886.847,467.844 886.847,466.795C886.847,466.795 886.847,465.746 885.798,465.746C885.798,465.746 884.75,466.795 882.652,466.795C881.603,467.844 881.603,468.893 881.603,469.941C881.603,470.792 881.603,470.934 882.142,470.99C882.68,471.019 883.474,470.99 883.474,470.99Z" style="fill:rgb(218,218,218);stroke:rgb(218,218,218);stroke-width:0.24px;"/>
            <path d="M913.153,453.387C914.598,453.982 915.449,455.853 916.299,458.433L918.397,458.433C917.348,457.384 917.348,456.335 917.348,455.286C917.348,454.238 917.348,453.189 916.299,452.14C915.25,451.091 914.202,450.042 913.153,450.042C913.153,450.042 912.104,451.091 911.055,451.091C911.055,451.97 911.764,452.112 912.019,452.707C912.047,452.763 912.047,452.82 912.076,452.877C912.076,452.877 913.039,453.33 913.153,453.387Z" style="fill:rgb(218,218,218);stroke:rgb(218,218,218);stroke-width:0.22px;stroke-linecap:butt;stroke-linejoin:miter;"/>
            <path d="M876.359,457.724C876.189,452.905 874.12,450.042 871.143,450.042C871.143,450.042 871.143,451.091 870.094,451.091L870.094,453.189L873.241,453.189C873.241,455.286 874.29,456.335 874.29,458.433L875.679,458.433L876.189,458.234L876.359,457.724Z" style="fill:rgb(218,218,218);stroke:rgb(218,218,218);stroke-width:0.22px;stroke-linecap:butt;stroke-linejoin:miter;"/>
            <path d="M894.926,467.872C894.529,467.163 893.82,466.455 893.112,465.746L891.043,464.697C889.994,464.697 889.994,464.697 889.994,465.746C889.994,466.795 891.043,467.844 891.043,467.844C892.063,468.893 892.063,469.941 893.112,469.941L894.161,469.941C894.161,469.941 894.983,469.941 895.181,469.233C895.323,468.638 895.181,468.354 894.926,467.872Z" style="fill:rgb(218,218,218);stroke:rgb(218,218,218);stroke-width:0.24px;"/>
        </g>
        <g id="_2528602148624">
            <path d="M1694.51,1037.54L1527.37,1037.43C1516.73,1037.27 1505.27,1031.1 1496.51,1022.38C1487.76,1013.67 1481.66,1002.36 1481.64,991.868C1480.79,936.217 1479.58,879.499 1479.86,823.902C1479.87,813.469 1485.52,803.22 1493.77,795.479C1502.3,787.446 1513.67,782.028 1524.41,781.842C1578.77,781.267 1635.13,782.364 1689.53,783.317C1695.15,783.275 1700.98,784.53 1706.49,786.843C1712.17,789.208 1717.55,792.687 1722.04,796.871C1722.76,797.56 1722.81,798.692 1722.14,799.42C1722.05,799.479 1721.97,799.538 1721.91,799.596L1711.76,808.638C1711.06,809.281 1709.98,809.254 1709.32,808.592C1705.81,805.118 1701.51,802.176 1696.29,800.11C1691.55,798.257 1686.09,797.134 1679.73,797.027C1664.79,796.734 1638.52,796.613 1612.35,796.576C1576.56,796.55 1540.75,796.696 1534.17,796.879L1533.89,796.886C1525.07,797.132 1514.44,799.128 1506.15,805.51C1497.88,811.892 1491.83,822.69 1492.03,840.657L1492.03,840.997L1493.15,914.131C1493.4,930.501 1500.17,947.155 1512.6,958.067C1517.97,962.794 1524.66,966.095 1532.83,966.094C1536.94,966.093 1542.55,966.107 1549.16,966.15C1552.81,967.155 1555.77,968.064 1558.48,969.35C1558.8,969.511 1559.08,969.673 1559.37,969.835C1548.2,969.749 1538.84,969.669 1532.8,969.667C1530.22,969.682 1527.8,969.381 1525.5,968.878L1525.44,968.653L1525.04,968.749C1519.32,967.349 1514.4,964.452 1510.2,960.771C1497.04,949.234 1489.82,931.575 1489.55,914.231L1488.43,841.096L1488.42,840.757C1488.21,821.43 1494.87,809.679 1503.98,802.679C1513.03,795.709 1524.42,793.549 1533.84,793.288L1534.12,793.28C1540.5,793.103 1576.34,792.956 1612.38,793.003C1638.67,793.009 1664.99,793.156 1679.85,793.424C1686.63,793.575 1692.52,794.772 1697.62,796.785C1702.73,798.797 1707.06,801.596 1710.65,804.87L1718.12,798.199C1714.24,794.877 1709.77,792.109 1705.09,790.17C1699.99,788.045 1694.64,786.861 1689.53,786.918L1524.41,785.442C1514.58,785.631 1504.13,790.627 1496.22,798.075C1488.64,805.203 1483.46,814.504 1483.46,823.83L1485.24,991.796C1485.25,1001.32 1490.93,1011.71 1499.06,1019.82C1507.23,1027.95 1517.79,1033.7 1527.46,1033.85L1694.57,1033.97L1694.68,1033.96C1706.02,1033.65 1715.76,1029.13 1722.66,1022.13C1729.81,1014.9 1733.94,1005.04 1733.78,994.411L1733.32,840.898L1728.82,844.85L1728.14,924.946C1728.33,936.677 1723.77,946.243 1717.55,953.531C1708.5,964.158 1695.8,969.897 1689.28,970.39C1688.41,970.443 1686.73,970.489 1684.44,970.553L1684.43,970.185C1684.43,970.157 1684.53,968.963 1684.5,966.951C1686.65,966.92 1688.21,966.877 1689.06,966.796C1694.92,966.35 1706.47,961.068 1714.85,951.225C1720.53,944.547 1724.71,935.785 1724.55,925.046L1725.2,844.1C1725.19,843.505 1725.5,842.93 1725.95,842.605L1733.89,835.694C1734.65,835.021 1735.79,835.103 1736.42,835.851C1736.71,836.183 1736.86,836.576 1736.86,836.972L1737.38,994.311C1737.55,1005.93 1733.01,1016.71 1725.19,1024.64C1717.65,1032.28 1707.07,1037.22 1694.74,1037.56C1694.65,1037.57 1694.6,1037.57 1694.51,1037.54ZM1595.87,966.553L1597.89,966.582C1597.87,967.433 1597.91,968.112 1597.92,968.537L1597.92,968.82C1597.93,969.245 1597.93,969.699 1597.97,970.151L1596.35,970.139C1596.28,968.922 1596.09,967.737 1595.87,966.553Z" style="fill:rgb(218,218,218);fill-rule:nonzero;"/>
            <path d="M1495.67,972.949L1522.97,966.345L1523.57,968.102C1524.13,969.803 1525.69,972.949 1527.59,975.897C1529.01,978.137 1530.6,980.206 1532.04,981.453C1533.57,982.729 1536.58,983.778 1540.06,984.486C1544,985.252 1548.42,985.563 1551.88,985.252C1554.43,984.997 1556.42,983.863 1557.87,982.36C1559.74,980.404 1560.7,977.882 1560.87,975.756C1560.98,973.998 1560.64,972.524 1559.88,971.277C1559.06,969.945 1557.75,968.867 1555.99,967.96C1552.56,966.231 1548.68,965.069 1543.52,963.567L1541.06,962.83C1540.26,962.603 1539.27,962.319 1538.19,962.036C1531.33,960.137 1521.38,957.415 1513.19,951.86L1513.16,951.86C1509.22,949.167 1506.47,945.141 1504.6,940.946C1501.8,934.682 1500.92,927.907 1500.86,924.675C1500.83,921.784 1501.2,918.099 1502.08,914.471C1502.84,911.409 1503.98,908.348 1505.57,905.712C1507.63,902.197 1512.54,896.244 1520.93,892.077C1526.46,889.327 1533.52,887.343 1542.3,887.343C1553.13,887.343 1560.87,889.101 1566.54,891.34C1572.27,893.636 1575.81,896.386 1578.33,898.426C1583.49,902.565 1591.4,916.823 1591.43,916.88L1592.59,918.978L1564.1,929.211L1563.42,927.255C1561.52,921.671 1558.83,917.957 1555.45,915.661C1552.11,913.365 1547.94,912.458 1543.1,912.458C1539.24,912.458 1536.72,913.393 1535.07,914.754C1532.84,916.568 1532.18,919.176 1532.18,921.047C1532.18,922.578 1532.64,924.307 1534.05,925.866C1535.64,927.595 1538.39,929.239 1542.95,930.43L1544.71,930.883C1554.89,933.519 1570.17,937.516 1577.88,942.449C1582.33,945.312 1586.58,949.79 1589.58,955.318C1592.22,960.193 1593.92,965.863 1593.92,971.929C1593.92,978.363 1592.65,983.352 1590.83,987.349C1589.02,991.346 1586.66,994.323 1584.48,996.704L1584.48,996.732C1582.33,999.056 1578.67,1002.94 1572.72,1006.26C1566.79,1009.57 1558.66,1012.29 1547.63,1012.29L1547.63,1012.27C1536.49,1012.24 1525.29,1009.63 1515.4,1003.22C1506.84,997.667 1499.33,989.305 1493.77,977.371C1493.6,977.003 1493.49,976.804 1493.43,976.663C1493.01,975.897 1492.78,975.501 1493.09,974.593C1493.49,973.346 1494.03,973.261 1495.11,973.063C1495.25,973.034 1495.42,973.006 1495.67,972.949ZM1520.39,971.135L1497.91,976.578C1503.07,987.293 1509.9,994.804 1517.61,999.793C1526.77,1005.75 1537.23,1008.18 1547.63,1008.21C1557.87,1008.21 1565.35,1005.72 1570.73,1002.71C1576.12,999.708 1579.52,996.137 1581.48,993.982L1581.51,993.982C1583.43,991.828 1585.53,989.192 1587.12,985.677C1588.73,982.162 1589.84,977.712 1589.84,971.929C1589.84,966.571 1588.37,961.554 1586.01,957.245C1583.35,952.37 1579.61,948.401 1575.67,945.878C1568.49,941.286 1553.61,937.403 1543.69,934.823L1541.93,934.341C1536.52,932.924 1533.12,930.883 1531.05,928.587C1528.81,926.121 1528.1,923.456 1528.1,921.047C1528.1,918.269 1529.12,914.386 1532.49,911.636C1534.79,909.708 1538.19,908.376 1543.1,908.376C1548.71,908.376 1553.61,909.51 1557.75,912.316C1561.44,914.811 1564.38,918.581 1566.57,924.023L1586.66,916.767C1584.37,912.826 1579.24,904.351 1575.78,901.601C1573.48,899.73 1570.19,897.179 1565.04,895.11C1559.79,893.041 1552.56,891.425 1542.3,891.425C1534.22,891.425 1527.76,893.211 1522.74,895.705C1515.23,899.447 1510.89,904.691 1509.05,907.781C1507.69,910.049 1506.7,912.741 1506.05,915.463C1505.23,918.751 1504.88,922.039 1504.94,924.647C1504.97,927.538 1505.76,933.604 1508.32,939.302C1509.9,942.874 1512.23,946.275 1515.46,948.486C1523.14,953.674 1532.69,956.31 1539.24,958.096C1540.26,958.379 1541.23,958.634 1542.19,958.918L1542.22,958.918L1544.65,959.655C1550.01,961.242 1554.07,962.433 1557.81,964.332C1560.25,965.579 1562.12,967.167 1563.34,969.151C1564.55,971.107 1565.09,973.403 1564.92,976.039L1564.92,976.067C1564.7,978.987 1563.36,982.502 1560.81,985.167C1558.74,987.321 1555.91,988.937 1552.22,989.277C1548.37,989.645 1543.55,989.334 1539.27,988.455C1535.19,987.661 1531.5,986.301 1529.4,984.543C1527.62,983.041 1525.78,980.631 1524.16,978.08C1522.6,975.671 1521.24,973.091 1520.39,971.135ZM1677.91,970.115C1678.05,961.327 1676.41,924.76 1637.63,924.76C1599.02,924.76 1599.42,963.538 1599.48,968.187L1599.48,968.527C1599.48,975.727 1602.03,989.73 1611.55,999.595C1617.68,1005.95 1626.72,1010.59 1639.96,1010.59C1667.93,1010.59 1675.59,991.233 1677.37,984.741L1657.16,982.389C1655.63,986.981 1652.2,996.165 1640.98,996.165C1636.19,996.165 1632.59,994.663 1629.92,992.622C1625.64,989.334 1623.86,984.656 1623.26,982.615C1622.3,979.327 1622.52,972.099 1622.52,972.099L1622.58,970.115L1677.91,970.115ZM1637.63,920.678C1686.05,920.678 1681.91,972.127 1681.88,972.297L1681.77,974.197L1626.58,974.168C1626.58,976.351 1626.66,979.752 1627.17,981.482C1627.62,983.097 1629.04,986.811 1632.39,989.39C1634.43,990.949 1637.21,992.083 1640.98,992.083C1649.65,992.083 1652.29,984.231 1653.48,980.66C1653.65,980.149 1653.79,979.696 1653.87,979.441L1654.44,977.967L1682.22,981.226L1681.88,983.324C1681.85,983.409 1676.98,1014.68 1639.96,1014.68C1625.44,1014.68 1615.44,1009.49 1608.63,1002.43C1598.2,991.601 1595.42,976.351 1595.42,968.527L1595.42,968.244C1595.37,963.141 1594.91,920.678 1637.63,920.678ZM1622.32,957.869C1622.32,957.812 1621.59,937.063 1639.9,937.063C1658.24,937.063 1657.02,957.869 1657.02,957.926L1656.93,959.882L1622.38,959.882L1622.32,957.869ZM1639.9,941.145C1628.82,941.145 1626.8,951.378 1626.46,955.8L1652.94,955.8C1652.71,951.406 1650.95,941.145 1639.9,941.145Z" style="fill:rgb(218,218,218);fill-rule:nonzero;stroke:rgb(218,218,218);stroke-width:0.22px;stroke-linecap:butt;stroke-linejoin:miter;"/>
            <path d="M1599.16,850.351L1645.4,908.546L1756.83,815.768L1742.94,787.875L1648.52,868.294L1614.95,830.367L1599.16,850.351ZM1643.5,912.713L1594.01,850.351L1614.78,824.045L1648.91,862.625L1744.27,781.412L1761.9,816.817C1722.87,849.33 1683.84,881.844 1644.78,914.329L1643.5,912.713Z" style="fill:rgb(218,218,218);fill-rule:nonzero;stroke:rgb(218,218,218);stroke-width:0.22px;stroke-linecap:butt;stroke-linejoin:miter;"/>
        </g>
        <g id="_2302008191824">
            <path id="path1948" d="M178.753,444.118C170.135,444.175 161.915,444.912 154.687,446.187C133.342,449.957 129.487,457.838 129.487,472.379L129.487,491.57L179.858,491.57L179.858,497.976L110.58,497.976C95.924,497.976 83.112,506.792 79.087,523.516C74.466,542.735 74.268,554.697 79.087,574.738C82.687,589.649 91.219,600.278 105.874,600.278L123.194,600.278L123.194,577.261C123.194,560.622 137.594,545.967 154.687,545.967L205.002,545.967C219.033,545.967 230.202,534.43 230.202,520.37L230.202,472.379C230.202,458.716 218.693,448.455 205.002,446.187C196.356,444.741 187.37,444.089 178.753,444.118ZM151.512,459.567C156.699,459.567 160.951,463.904 160.951,469.204C160.951,474.505 156.699,478.786 151.512,478.786C146.296,478.786 142.044,474.505 142.044,469.204C142.044,463.904 146.296,459.567 151.512,459.567Z" style="fill:none;stroke:rgb(218,218,218);stroke-width:3.6px;stroke-linecap:butt;stroke-linejoin:miter;"/>
            <path id="path1950" d="M236.494,497.976L236.494,520.37C236.494,537.718 221.783,552.316 205.002,552.316L154.687,552.316C140.882,552.316 129.487,564.108 129.487,577.913L129.487,625.904C129.487,639.538 141.364,647.589 154.687,651.501C170.617,656.178 185.924,657.028 205.002,651.501C217.701,647.815 230.202,640.445 230.202,625.904L230.202,606.685L179.858,606.685L179.858,600.278L255.402,600.278C270.057,600.278 275.499,590.074 280.602,574.738C285.846,558.949 285.619,543.784 280.602,523.516C276.973,508.946 270.057,497.976 255.402,497.976L236.494,497.976ZM208.176,619.497C213.392,619.497 217.644,623.778 217.644,629.05C217.644,634.379 213.392,638.688 208.176,638.688C202.961,638.688 198.737,634.379 198.737,629.05C198.737,623.778 202.961,619.497 208.176,619.497Z" style="fill:none;stroke:rgb(218,218,218);stroke-width:3.6px;stroke-linecap:butt;stroke-linejoin:miter;"/>
        </g>
        <g id="_2528602132928">
            <path id="path20" d="M554.598,44.064L685.587,175.053L683.121,177.519L552.132,46.53L554.598,44.064ZM527.272,46.53L524.806,44.064L525.572,43.327L526.394,42.619L527.244,41.967L528.094,41.371L529.002,40.804L530.816,39.841L531.78,39.444L532.743,39.075L533.707,38.763L534.671,38.508L535.663,38.282L536.683,38.112L537.676,37.998L538.696,37.913L540.709,37.913L541.729,37.998L542.721,38.112L543.713,38.282L544.706,38.508L545.698,38.763L546.661,39.075L547.625,39.444L548.561,39.841L549.496,40.323L550.403,40.804L551.282,41.371L552.161,41.967L552.983,42.619L553.805,43.327L554.598,44.064L552.132,46.53L551.452,45.907L550.772,45.34L550.091,44.801L549.354,44.291L548.617,43.838L547.88,43.412L547.087,43.015L546.321,42.675L545.499,42.392L544.706,42.108L543.061,41.712L542.211,41.57L541.389,41.485L540.539,41.428L539.688,41.4L538.866,41.428L538.016,41.485L537.165,41.57L536.343,41.712L534.699,42.108L533.877,42.392L533.083,42.675L532.29,43.015L531.524,43.412L530.759,43.838L530.022,44.291L529.313,44.801L528.605,45.34L527.924,45.907L527.272,46.53ZM497.594,71.277L524.806,44.064L527.272,46.53L500.06,73.743L497.594,73.743L497.594,71.277ZM497.594,73.743L496.375,72.496L497.594,71.277L497.594,73.743ZM532.091,108.241L497.594,73.743L500.06,71.277L534.586,105.775L533.906,108.666L532.091,108.241ZM533.906,108.666L532.885,109.006L532.091,108.241L533.906,108.666ZM558.17,111.274L555.704,113.74L555.137,113.201L554.57,112.691L553.975,112.181L553.38,111.727L552.756,111.274L551.509,110.48L550.857,110.112L550.205,109.771L548.844,109.148L547.483,108.638L546.775,108.411L546.094,108.212L545.386,108.042L544.649,107.901L543.94,107.787L543.231,107.702L542.494,107.617L541.786,107.56L539.603,107.56L538.894,107.617L538.157,107.702L537.449,107.787L536.712,107.929L536.003,108.071L535.294,108.241L534.586,108.439L533.906,108.666L532.772,105.349L533.594,105.094L534.416,104.867L535.238,104.669L536.06,104.499L536.91,104.357L537.732,104.244L538.583,104.13L539.433,104.074L540.255,104.045L541.106,104.045L541.956,104.074L542.806,104.13L543.628,104.215L544.479,104.329L545.301,104.471L546.123,104.641L546.973,104.839L547.767,105.066L548.589,105.321L549.383,105.604L550.205,105.916L550.97,106.256L551.764,106.625L553.294,107.475L554.031,107.929L554.769,108.411L555.477,108.921L556.186,109.46L556.866,110.055L557.518,110.65L558.17,111.274ZM563.641,135.028L561.146,137.494L560.75,135.68L560.976,135L561.175,134.291L561.345,133.582L561.515,132.845L561.628,132.137L561.742,131.4L561.827,130.691L561.883,129.954L561.912,129.217L561.912,128.508L561.855,127.034L561.77,126.326L561.685,125.589L561.572,124.88L561.402,124.143L561.061,122.726L560.835,122.045L560.58,121.337L560.324,120.656L559.701,119.296L559.361,118.644L558.992,117.992L558.595,117.34L557.745,116.093L556.781,114.902L556.243,114.307L555.704,113.74L558.17,111.274L558.822,111.926L559.417,112.606L559.984,113.286L560.551,113.995L561.061,114.732L561.543,115.469L561.997,116.206L562.847,117.737L563.216,118.53L563.556,119.324L563.868,120.118L564.151,120.94L564.406,121.762L564.633,122.584L564.831,123.406L565.002,124.228L565.143,125.078L565.257,125.929L565.313,126.779L565.37,127.601L565.398,128.452L565.398,129.302L565.37,130.152L565.313,131.003L565.087,132.704L564.945,133.526L564.746,134.376L564.548,135.198L564.321,136.02L564.038,136.842L563.641,135.028ZM561.146,137.494L560.381,136.729L560.75,135.68L561.146,137.494ZM594.425,170.745L561.146,137.494L563.641,135.028L596.891,168.278L596.211,171.17L594.425,170.745ZM596.211,171.17L595.191,171.51L594.425,170.745L596.211,171.17ZM620.646,173.721L618.18,176.215L618.151,176.215L617.613,175.649L617.017,175.138L615.827,174.175L615.203,173.721L614.58,173.324L613.928,172.927L612.624,172.19L611.943,171.878L610.583,171.312L609.874,171.085L609.194,170.858L608.485,170.66L607.748,170.489L607.039,170.348L606.331,170.234L604.857,170.064L604.148,170.036L603.411,170.008L602.674,170.008L601.965,170.036L601.228,170.093L600.491,170.178L599.783,170.263L599.046,170.404L598.337,170.546L596.92,170.943L596.211,171.17L595.077,167.853L595.899,167.598L597.543,167.145L598.365,166.975L600.066,166.691L600.917,166.606L601.739,166.549L603.439,166.493L604.29,166.521L605.14,166.578L605.991,166.663L606.841,166.776L607.663,166.918L608.513,167.088L609.335,167.286L610.157,167.513L610.98,167.768L611.802,168.052L612.595,168.363L613.389,168.704L614.183,169.072L614.948,169.469L615.713,169.894L617.187,170.858L617.924,171.368L618.605,171.907L619.313,172.502L619.994,173.097L620.646,173.721ZM618.18,176.215L618.151,176.215L618.038,176.074L618.18,176.215ZM620.646,208.701L618.18,206.234L618.917,205.441L619.625,204.619L620.277,203.768L620.901,202.918L621.439,202.011L621.95,201.104L622.431,200.168L622.828,199.204L623.197,198.241L623.509,197.277L623.792,196.285L623.991,195.264L624.161,194.272L624.302,193.252L624.359,192.231L624.387,191.211L624.359,190.19L624.302,189.198L624.161,188.178L623.991,187.157L623.792,186.165L623.509,185.173L623.197,184.181L622.828,183.217L622.431,182.282L621.95,181.346L621.439,180.439L620.901,179.532L620.277,178.653L619.625,177.831L618.917,177.009L618.18,176.215L620.646,173.721L621.524,174.656L622.346,175.62L623.112,176.584L623.82,177.604L624.444,178.653L625.039,179.73L625.578,180.808L626.06,181.913L626.485,183.047L626.854,184.181L627.165,185.343L627.42,186.505L627.619,187.667L627.761,188.858L627.846,190.049L627.874,191.211L627.846,192.401L627.761,193.592L627.619,194.782L627.42,195.945L627.165,197.107L626.854,198.269L626.485,199.403L626.06,200.537L625.578,201.642L625.039,202.719L624.444,203.797L623.82,204.845L623.112,205.838L622.346,206.83L621.524,207.793L620.646,208.701ZM585.638,208.701L588.132,206.234L588.926,207L589.748,207.708L590.57,208.36L591.449,208.956L592.356,209.523L593.263,210.033L594.198,210.486L595.162,210.912L596.126,211.28L597.09,211.592L598.082,211.847L599.074,212.074L600.094,212.244L601.115,212.357L602.135,212.442L603.156,212.471L604.176,212.442L605.169,212.357L606.189,212.244L607.209,212.074L608.202,211.847L609.194,211.592L610.186,211.28L611.15,210.912L612.085,210.486L613.02,210.033L613.928,209.523L614.835,208.956L615.713,208.36L616.535,207.708L617.357,207L618.18,206.234L620.646,208.701L619.71,209.579L618.746,210.401L617.783,211.167L616.762,211.875L615.713,212.527L614.636,213.123L613.559,213.661L612.454,214.143L611.32,214.568L610.186,214.937L609.024,215.249L607.861,215.504L606.699,215.702L605.509,215.844L604.318,215.929L603.156,215.957L601.965,215.929L600.775,215.844L599.584,215.702L598.422,215.504L597.26,215.249L596.098,214.937L594.964,214.568L593.83,214.143L592.724,213.661L591.647,213.123L590.57,212.527L589.521,211.875L588.501,211.167L587.537,210.401L586.573,209.579L585.638,208.701ZM580.649,183.699L583.115,181.233L583.483,183.132L582.718,185.343L582.52,186.08L582.35,186.845L582.208,187.582L582.094,188.348L582.009,189.113L581.953,189.878L581.896,191.409L581.924,192.175L582.038,193.705L582.151,194.471L582.435,196.001L582.831,197.475L583.342,198.949L583.965,200.367L584.334,201.075L584.702,201.756L585.099,202.436L585.524,203.116L586.488,204.42L586.998,205.044L587.537,205.639L588.132,206.234L585.638,208.701L584.986,208.02L584.362,207.312L583.739,206.575L583.172,205.838L582.633,205.072L582.151,204.307L581.669,203.513L581.216,202.691L580.819,201.869L580.082,200.225L579.77,199.375L579.487,198.496L579.26,197.645L579.033,196.767L578.693,195.009L578.58,194.13L578.494,193.223L578.438,192.345L578.409,191.438L578.409,190.559L578.466,189.652L578.523,188.773L578.636,187.894L578.778,186.987L578.948,186.108L579.146,185.23L579.373,184.379L579.628,183.501L580.252,181.8L580.649,183.699ZM583.115,181.233L583.937,182.055L583.483,183.132L583.115,181.233ZM552.104,150.222L583.115,181.233L580.649,183.699L549.638,152.688L549.128,151.469L552.104,150.222ZM549.128,151.469L549.128,147.245L552.104,150.222L549.128,151.469ZM549.128,233.078L549.128,151.469L552.614,151.469L552.614,233.078L550.091,234.638L549.128,233.078ZM550.091,234.638L549.128,234.156L549.128,233.078L550.091,234.638ZM558.17,236.197L555.704,238.663L555.562,238.493L555.392,238.351L555.08,238.039L553.72,236.905L553.55,236.792L553.209,236.508L553.039,236.395L552.841,236.282L552.671,236.14L552.501,236.026L552.302,235.913L551.962,235.686L551.764,235.573L551.594,235.46L551.395,235.346L551.225,235.233L551.027,235.119L550.857,235.034L550.658,234.921L550.46,234.836L550.29,234.723L550.091,234.638L551.65,231.491L551.849,231.604L552.302,231.831L552.529,231.973L552.728,232.086L552.954,232.2L553.153,232.313L553.38,232.455L553.578,232.568L553.805,232.71L554.003,232.852L554.23,232.993L554.428,233.107L554.655,233.249L555.052,233.532L555.25,233.702L555.477,233.844L555.676,233.986L555.874,234.156L556.072,234.297L556.469,234.638L556.668,234.779L556.866,234.949L557.036,235.119L557.631,235.63L557.802,235.828L558,235.998L558.17,236.168L558.17,236.197ZM558.17,236.168L558.17,236.197L558.17,236.168ZM558.17,271.176L555.704,268.71L556.469,267.916L557.178,267.094L557.83,266.244L558.425,265.365L558.992,264.458L559.502,263.551L559.956,262.615L560.381,261.68L560.75,260.688L561.061,259.724L561.317,258.732L561.543,257.74L561.713,256.719L561.827,255.699L561.912,254.678L561.94,253.658L561.912,252.666L561.827,251.645L561.713,250.625L561.543,249.604L561.317,248.612L561.061,247.62L560.75,246.656L560.381,245.693L559.956,244.729L559.502,243.793L558.992,242.886L558.425,241.979L557.83,241.129L557.178,240.278L556.469,239.456L555.704,238.663L558.17,236.197L559.049,237.104L559.871,238.067L560.636,239.06L561.345,240.052L561.997,241.101L562.592,242.178L563.131,243.255L563.613,244.36L564.038,245.494L564.406,246.628L564.718,247.79L564.973,248.952L565.172,250.115L565.313,251.305L565.398,252.496L565.427,253.658L565.398,254.849L565.313,256.039L565.172,257.23L564.973,258.392L564.718,259.554L564.406,260.716L564.038,261.85L563.613,262.984L563.131,264.089L562.592,265.167L561.997,266.244L561.345,267.293L560.636,268.313L559.871,269.277L559.049,270.241L558.17,271.176ZM523.191,271.176L525.685,268.71L526.479,269.447L527.301,270.156L528.123,270.808L529.002,271.431L529.909,271.97L530.816,272.48L531.751,272.962L532.687,273.359L533.65,273.727L534.643,274.039L535.635,274.323L536.627,274.521L537.647,274.691L538.639,274.833L539.66,274.889L540.68,274.918L541.701,274.889L542.721,274.833L543.742,274.691L544.734,274.521L545.754,274.323L546.746,274.039L547.71,273.727L548.674,273.359L549.638,272.962L550.573,272.48L551.48,271.97L552.387,271.431L553.238,270.808L554.088,270.156L554.91,269.447L555.704,268.71L558.17,271.176L557.263,272.055L556.299,272.877L555.307,273.642L554.287,274.351L553.266,275.003L552.189,275.598L551.112,276.137L550.006,276.59L548.872,277.015L547.739,277.384L546.576,277.696L545.414,277.951L544.224,278.149L543.061,278.291L541.871,278.376L540.68,278.404L539.49,278.376L538.328,278.291L537.137,278.149L535.975,277.951L534.813,277.696L533.65,277.384L532.517,277.015L531.383,276.59L530.277,276.108L529.172,275.598L528.123,275.003L527.074,274.351L526.054,273.642L525.09,272.877L524.126,272.055L523.191,271.176ZM523.191,236.168L525.685,238.663L524.92,239.456L524.211,240.278L523.559,241.129L522.935,241.979L522.397,242.886L521.887,243.793L521.405,244.729L521.008,245.693L520.639,246.656L520.328,247.62L520.044,248.612L519.846,249.604L519.676,250.625L519.534,251.645L519.477,252.666L519.449,253.658L519.477,254.678L519.534,255.699L519.676,256.719L519.846,257.74L520.044,258.732L520.328,259.724L520.639,260.688L521.008,261.68L521.405,262.615L521.887,263.551L522.397,264.458L522.935,265.365L523.559,266.244L524.211,267.094L524.92,267.916L525.685,268.71L523.191,271.176L522.312,270.241L521.49,269.277L520.753,268.313L520.044,267.293L519.392,266.244L518.797,265.167L518.258,264.089L517.776,262.984L517.351,261.85L516.983,260.716L516.671,259.554L516.416,258.392L516.217,257.23L516.076,256.039L515.991,254.849L515.962,253.658L515.991,252.496L516.076,251.305L516.217,250.115L516.416,248.952L516.671,247.79L516.983,246.628L517.351,245.494L517.776,244.36L518.258,243.255L518.797,242.178L519.392,241.101L520.044,240.052L520.753,239.06L521.518,238.067L522.312,237.104L523.191,236.197L523.191,236.168ZM530.22,232.398L533.707,232.398L532.63,234.014L532.403,234.127L532.148,234.212L531.694,234.439L531.439,234.552L530.532,235.006L530.306,235.148L530.079,235.261L529.398,235.686L529.2,235.828L528.746,236.112L528.548,236.253L528.321,236.395L528.094,236.565L527.896,236.707L527.698,236.877L527.471,237.047L527.074,237.387L526.847,237.557L526.45,237.897L526.252,238.096L526.054,238.266L525.855,238.464L525.685,238.663L523.191,236.168L523.417,235.97L523.871,235.516L524.126,235.318L524.353,235.119L524.58,234.893L524.806,234.694L525.061,234.496L525.288,234.297L525.543,234.127L525.798,233.929L526.025,233.759L526.28,233.56L527.811,232.54L528.321,232.256L528.605,232.086L529.115,231.803L529.398,231.661L529.654,231.519L529.937,231.406L530.192,231.264L530.476,231.151L530.759,231.009L531.014,230.896L531.298,230.782L530.22,232.398ZM533.707,232.398L533.707,233.589L532.63,234.014L533.707,232.398ZM533.707,150.023L533.707,232.398L530.22,232.398L530.22,150.023L532.63,148.408L533.707,150.023ZM532.63,148.408L533.707,148.861L533.707,150.023L532.63,148.408ZM523.191,146.253L525.685,143.787L525.855,143.986L526.054,144.156L526.252,144.354L526.45,144.524L526.649,144.723L526.876,144.893L527.471,145.403L527.698,145.573L527.896,145.715L528.123,145.885L528.321,146.026L528.548,146.197L528.746,146.338L529.2,146.622L529.398,146.763L529.852,147.047L530.079,147.16L530.306,147.302L530.532,147.415L530.759,147.557L531.439,147.897L531.694,148.011L531.921,148.124L532.148,148.209L532.375,148.323L532.63,148.408L531.298,151.639L531.014,151.526L530.759,151.412L530.192,151.186L529.937,151.044L529.654,150.902L529.398,150.789L529.115,150.647L528.605,150.363L528.321,150.193L528.066,150.052L527.811,149.882L527.556,149.74L526.28,148.889L526.025,148.691L525.798,148.521L525.288,148.124L525.061,147.926L524.806,147.727L524.126,147.132L523.871,146.905L523.644,146.707L523.191,146.253ZM518.258,121.11L520.724,118.644L521.093,120.571L520.809,121.28L520.554,122.017L520.328,122.754L520.101,123.519L519.931,124.285L519.789,125.022L519.562,126.552L519.506,127.318L519.477,128.112L519.449,128.877L519.506,130.408L519.591,131.173L519.817,132.704L520.157,134.234L520.611,135.708L521.178,137.182L521.49,137.891L521.858,138.6L522.227,139.28L523.077,140.641L523.531,141.293L524.041,141.945L524.551,142.568L525.09,143.192L525.685,143.787L523.191,146.253L522.539,145.573L521.887,144.836L521.291,144.127L520.724,143.362L520.186,142.597L519.676,141.803L519.194,141.009L518.74,140.215L518.343,139.393L517.975,138.543L517.294,136.842L517.039,135.992L516.784,135.113L516.557,134.234L516.387,133.356L516.246,132.477L516.104,131.57L516.019,130.691L515.962,128.877L515.962,127.998L516.019,127.091L516.104,126.212L516.189,125.305L516.331,124.426L516.529,123.548L516.728,122.641L516.954,121.79L517.238,120.912L517.861,119.211L518.258,121.11ZM520.724,118.644L521.546,119.466L521.093,120.571L520.724,118.644ZM486.709,84.628L520.724,118.644L518.258,121.11L484.243,87.094L484.243,84.628L486.709,84.628ZM484.243,84.628L485.461,83.409L486.709,84.628L484.243,84.628ZM394.413,174.458L484.243,84.628L486.709,87.094L396.907,176.924L394.413,174.458ZM396.907,201.784L394.413,204.25L393.676,203.456L392.967,202.634L392.315,201.812L391.72,200.934L391.181,200.055L390.671,199.148L390.217,198.212L389.792,197.277L389.424,196.313L389.112,195.349L388.857,194.357L388.63,193.365L388.46,192.373L388.346,191.352L388.261,190.36L388.261,188.348L388.346,187.327L388.46,186.335L388.63,185.315L388.857,184.323L389.112,183.359L389.424,182.367L389.792,181.431L390.217,180.467L390.671,179.56L391.181,178.625L391.72,177.746L392.315,176.896L392.967,176.045L393.676,175.223L394.413,174.458L396.907,176.924L396.283,177.576L395.688,178.256L395.15,178.965L394.639,179.674L394.186,180.411L393.761,181.176L393.364,181.941L393.024,182.735L392.74,183.529L392.485,184.351L392.258,185.173L392.06,185.995L391.918,186.817L391.833,187.667L391.776,188.489L391.748,189.34L391.776,190.19L391.833,191.041L391.918,191.863L392.06,192.713L392.258,193.535L392.485,194.357L392.74,195.151L393.024,195.973L393.364,196.738L393.761,197.532L394.186,198.269L394.639,199.006L395.15,199.743L395.688,200.423L396.283,201.104L396.907,201.784ZM525.402,335.239L394.413,204.25L396.907,201.784L527.896,332.745L525.402,335.239ZM552.728,332.745L555.194,335.239L554.428,335.976L553.606,336.685L551.906,337.932L550.998,338.471L550.091,338.981L549.184,339.434L548.22,339.86L547.285,340.228L546.293,340.54L545.329,340.795L544.337,341.022L543.317,341.192L542.324,341.305L541.304,341.362L540.312,341.39L539.291,341.362L538.299,341.305L537.279,341.192L536.287,341.022L535.294,340.795L534.302,340.54L533.339,340.228L532.375,339.86L531.439,339.434L530.504,338.981L529.597,338.471L528.718,337.932L527.839,337.308L527.017,336.656L526.195,335.976L525.402,335.239L527.896,332.745L528.548,333.368L529.228,333.963L529.909,334.502L530.646,335.012L531.383,335.466L532.148,335.891L533.679,336.628L534.501,336.912L535.294,337.167L536.117,337.393L536.939,337.592L537.789,337.734L538.611,337.819L539.461,337.875L540.312,337.904L541.134,337.875L541.984,337.819L542.835,337.734L543.657,337.592L544.479,337.393L545.301,337.167L546.123,336.912L546.917,336.6L547.71,336.26L548.476,335.891L549.241,335.466L549.978,335.012L550.687,334.502L551.395,333.963L552.076,333.368L552.728,332.745ZM685.587,204.845L555.194,335.239L552.728,332.745L683.121,202.379L685.587,204.845ZM683.121,177.519L685.587,175.053L686.324,175.847L687.033,176.641L687.685,177.491L688.28,178.341L688.847,179.249L689.329,180.156L689.811,181.091L690.208,182.026L690.576,182.99L690.888,183.954L691.143,184.946L691.37,185.938L691.54,186.93L691.654,187.923L691.739,188.943L691.739,190.956L691.654,191.976L691.54,192.968L691.37,193.96L691.143,194.952L690.888,195.945L690.576,196.908L690.208,197.872L689.811,198.836L688.847,200.65L688.28,201.557L687.685,202.408L687.033,203.258L686.324,204.08L685.587,204.845L683.121,202.379L683.745,201.727L684.312,201.047L684.85,200.338L685.361,199.63L685.814,198.893L686.239,198.127L686.636,197.362L686.976,196.568L687.26,195.775L687.543,194.952L687.94,193.308L688.082,192.486L688.167,191.636L688.224,190.786L688.252,189.963L688.224,189.113L688.167,188.263L688.082,187.412L687.94,186.59L687.543,184.946L687.26,184.124L686.976,183.33L686.636,182.537L686.239,181.771L685.814,181.006L685.361,180.269L684.85,179.56L684.312,178.852L683.745,178.171L683.121,177.519Z" style="fill:rgb(218,218,218);fill-rule:nonzero;"/>
        </g>
        <g id="Gimp">
            <path d="M449.83,459.963C449.887,460.077 467.433,496.275 508.394,498.231C507.317,499.053 506.268,499.932 505.276,500.896C473.641,498.089 456.066,475.554 449.858,465.775L448.951,504.269C447.817,505.743 446.825,507.33 445.975,509.031C446.4,490.918 446.825,472.833 447.25,454.748L449.83,459.963ZM543.26,495.765C573.25,491.145 592.668,481.082 605.225,470.65C621.354,457.242 626.031,443.267 627.222,439.752C628.072,437.145 629.15,435.472 630.283,434.593C631.077,433.998 631.899,433.743 632.721,433.856C633.543,433.941 634.28,434.367 634.932,435.075C635.868,436.152 636.605,438.023 636.917,440.575L636.917,440.603C645.704,520.228 632.466,568.134 608.655,594.779C607.748,594.354 606.841,593.957 605.906,593.532C629.603,567.623 642.813,520.313 634.082,440.915C633.827,438.987 633.345,437.626 632.75,436.975C632.608,436.804 632.494,436.719 632.409,436.691C632.324,436.691 632.183,436.748 632.013,436.889C631.332,437.4 630.624,438.647 629.943,440.66C628.724,444.345 623.82,458.915 607.039,472.861C594.624,483.179 575.688,493.157 546.917,498.061C545.754,497.211 544.535,496.445 543.26,495.765ZM594.822,607.195C581.811,616.408 566.872,621.226 551.254,622.729C533.934,624.401 515.764,622.02 498.444,617.173C474.888,610.568 452.806,599.286 436.394,587.296C437.528,587.012 438.605,586.672 439.654,586.275C455.556,597.529 476.674,608.074 499.209,614.395C516.246,619.157 534.047,621.51 550.97,619.866C565.682,618.449 579.713,614.026 592.016,605.636C592.951,606.146 593.887,606.656 594.822,607.195ZM445.238,531.793C445.011,531.453 444.784,531.113 444.529,530.801L444.529,530.773L444.387,530.603C444.472,530.461 444.557,530.291 444.614,530.149C444.813,530.716 445.011,531.255 445.238,531.793Z" style="fill:rgb(218,218,218);fill-rule:nonzero;stroke:rgb(218,218,218);stroke-width:0.22px;stroke-linecap:butt;stroke-linejoin:miter;"/>
            <path id="path6480" d="M484.951,580.096C530.702,589.252 554.003,580.748 567.638,570.231C564.038,565.582 557.887,560.48 557.887,560.48C557.887,560.48 573.874,564.93 579.487,572.187C582.945,576.609 582.945,580.011 582.094,584.093C577.417,582.42 573.449,581.116 570.671,580.238C570.302,579.727 570.047,579.217 569.934,578.735C569.65,579.075 569.395,579.415 569.112,579.756C567.298,579.189 566.277,578.905 566.277,578.905C558.907,575.475 556.526,581.91 561.373,586.275C546.066,594.949 519.364,592.256 484.951,580.096Z" style="fill:none;fill-rule:nonzero;stroke:rgb(218,218,218);stroke-width:3.6px;stroke-linecap:butt;stroke-linejoin:miter;"/>
            <path id="path4357" d="M496.261,531.822C492.094,541.8 482.23,548.83 470.75,548.83C455.499,548.83 443.14,536.471 443.14,521.22C443.14,505.97 455.499,493.611 470.75,493.611C483.25,493.611 493.824,501.945 497.225,513.368C496.006,516.741 495.354,520.398 495.354,524.225C495.354,526.833 495.666,529.384 496.261,531.822Z" style="fill:none;fill-rule:nonzero;stroke:rgb(218,218,218);stroke-width:3.6px;stroke-linecap:butt;stroke-linejoin:miter;"/>
            <path d="M442.205,532.474L442.205,532.445C435.685,523.431 427.209,517.138 418.791,514.275C410.513,511.469 402.321,511.951 396.113,516.401L396.113,516.43C389.934,520.88 386.901,528.505 386.957,537.236C387.014,546.137 390.331,556.171 396.822,565.186C403.342,574.2 411.817,580.493 420.236,583.356C428.513,586.19 436.734,585.708 442.913,581.23C449.093,576.779 452.126,569.154 452.069,560.395C452.013,551.494 448.696,541.488 442.205,532.474ZM444.529,530.801C451.389,540.297 454.876,550.927 454.932,560.395C455.017,570.033 451.559,578.537 444.586,583.554L444.586,583.582C437.584,588.6 428.457,589.195 419.329,586.105C410.343,583.044 401.386,576.382 394.498,566.858C387.638,557.334 384.151,546.732 384.094,537.264C384.009,527.598 387.468,519.123 394.441,514.077L394.554,514.02C401.528,509.031 410.627,508.464 419.698,511.554C428.683,514.615 437.669,521.249 444.529,530.773L444.529,530.801Z" style="fill:rgb(218,218,218);fill-rule:nonzero;stroke:rgb(218,218,218);stroke-width:0.22px;stroke-linecap:butt;stroke-linejoin:miter;"/>
            <path id="path4359" d="M490.507,525.302C490.507,532.644 484.554,538.597 477.213,538.597C469.871,538.597 463.918,532.644 463.918,525.302C463.918,524.735 463.946,524.168 464.031,523.601C465.591,526.464 468.624,528.392 472.082,528.392C475.88,528.392 479.14,526.067 480.557,522.779C481.55,520.483 481.55,517.875 480.557,515.579C479.962,514.19 479.055,512.971 477.893,512.036C484.923,512.376 490.507,518.187 490.507,525.302Z" style="fill:none;fill-rule:nonzero;stroke:rgb(218,218,218);stroke-width:3.6px;stroke-linecap:butt;stroke-linejoin:miter;"/>
            <path id="path6446" d="M417.231,537.916C415.757,543.869 411.165,548.234 405.723,548.234C400.706,548.234 396.425,544.549 394.639,539.362C393.704,536.726 393.477,533.863 393.931,531.113C394.98,524.452 399.855,519.406 405.723,519.406C411.392,519.406 416.154,524.168 417.402,530.546C417.855,532.956 417.827,535.507 417.231,537.916Z" style="fill:none;fill-rule:nonzero;stroke:rgb(218,218,218);stroke-width:3.6px;stroke-linecap:butt;stroke-linejoin:miter;"/>
            <path id="path4361" d="M480.161,523.573C478.602,526.436 475.569,528.392 472.082,528.392C467.008,528.392 462.898,524.253 462.898,519.179C462.898,514.105 467.008,509.967 472.082,509.967C476.334,509.967 479.877,512.83 480.954,516.713C481.578,519.009 481.323,521.475 480.161,523.573Z" style="fill:rgb(218,218,218);stroke:rgb(218,218,218);stroke-width:3.6px;stroke-linecap:butt;stroke-linejoin:miter;"/>
            <path id="path6462" d="M560.154,524.225C560.154,542.112 545.641,556.625 527.754,556.625C509.868,556.625 495.354,542.112 495.354,524.225C495.354,506.31 509.868,491.797 527.754,491.797C545.641,491.797 560.154,506.31 560.154,524.225Z" style="fill:none;stroke:rgb(218,218,218);stroke-width:3.6px;stroke-linecap:butt;stroke-linejoin:miter;"/>
            <path id="path6464" d="M549.468,535.649C546.973,540.949 541.587,544.634 535.351,544.634C527.613,544.634 521.206,539.022 519.959,531.652C519.704,530.121 519.676,528.562 519.874,527.003C521.688,530.348 525.26,532.615 529.342,532.615C533.991,532.615 537.931,529.696 539.461,525.586C540.255,523.431 540.34,521.078 539.745,518.867C539.121,516.713 537.846,514.814 536.145,513.425C542.211,513.737 547.342,517.507 549.666,522.808C551.424,526.918 551.367,531.623 549.468,535.649Z" style="fill:none;stroke:rgb(218,218,218);stroke-width:3.6px;stroke-linecap:butt;stroke-linejoin:miter;"/>
            <path id="path6466" d="M539.745,524.707C538.498,529.271 534.302,532.615 529.342,532.615C523.361,532.615 518.542,527.797 518.542,521.815C518.542,515.863 523.361,511.015 529.342,511.015C534.728,511.015 539.206,514.984 540,520.171C540.255,521.674 540.142,523.233 539.745,524.707Z" style="fill:rgb(218,218,218);stroke:rgb(218,218,218);stroke-width:3.6px;stroke-linecap:butt;stroke-linejoin:miter;"/>
            <path id="path6937" d="M622.687,619.809C623.197,615.302 625.351,610.767 628.838,606.231C605.452,589.11 566.277,578.905 566.277,578.905C558.794,575.419 556.441,582.137 561.6,586.502C561.6,586.502 594.68,611.759 622.687,619.809Z" style="fill:none;stroke:rgb(218,218,218);stroke-width:2.88px;stroke-linejoin:miter;"/>
            <path id="path6935" d="M648.369,629.56C648.17,627.803 649.332,626.187 650.041,624.6C650.693,623.239 650.92,621.425 652.422,620.489L637.937,611.05C638.079,611.305 638.192,611.589 638.277,611.901C639.043,614.452 637.569,617.116 635.017,617.882C632.466,618.619 629.802,617.173 629.036,614.622C628.413,612.439 629.745,610.653 631.247,609.094C632.58,607.705 632.636,611.249 630.765,605.296C626.967,607.677 621.468,616.493 622.913,621.453L625.748,620.404L627.279,621.878L648.369,629.56Z" style="fill:none;stroke:rgb(218,218,218);stroke-width:2.88px;stroke-linejoin:miter;"/>
            <g>
                <path id="_1" d="M639.581,618.42L650.948,623.239" style="fill:none;stroke:rgb(218,218,218);stroke-width:2.4px;"/>
            </g>
            <path id="path6933" d="M694.488,664.2C686.324,636.562 683.433,614.622 662.173,616.549C645.024,618.137 643.805,642.713 661.521,649.488C678.614,656.036 694.488,664.2 694.488,664.2ZM665.461,618.59C669.345,618.59 672.52,621.737 672.52,625.649C672.52,629.56 669.345,632.707 665.461,632.707C661.55,632.707 658.403,629.56 658.403,625.649C658.403,621.737 661.55,618.59 665.461,618.59Z" style="fill:none;stroke:rgb(218,218,218);stroke-width:2.88px;stroke-linecap:butt;stroke-linejoin:miter;"/>
            <path id="path6983" d="M634.677,608.556C636.35,608.896 637.767,610.143 638.277,611.901C639.043,614.452 637.569,617.116 635.017,617.882C632.466,618.619 629.802,617.173 629.036,614.622C628.639,613.261 628.866,611.844 629.575,610.71C630.652,608.981 632.693,608.13 634.677,608.556Z" style="fill:none;stroke:rgb(218,218,218);stroke-width:3.6px;stroke-linecap:butt;stroke-linejoin:miter;"/>
            <path d="M684.255,647.674C684.255,647.674 681.591,637.724 675.751,632.565C673.682,630.751 676.29,628.058 678.246,630.411C682.469,635.513 684.255,647.674 684.255,647.674Z" style="fill:none;stroke:rgb(218,218,218);stroke-width:2.4px;stroke-linecap:butt;stroke-linejoin:miter;"/>
            <circle cx="665.461" cy="625.649" r="7.058" style="fill:none;stroke:rgb(218,218,218);stroke-width:3.6px;stroke-linecap:butt;stroke-linejoin:miter;"/>
        </g>
        <g id="Latex">
            <path d="M444.643,906.874L441.241,906.874C439.88,920.792 437.953,937.686 413.943,937.686L402.888,937.686C396.482,937.686 396.198,936.751 396.198,932.244L396.198,859.79C396.198,855.17 396.198,853.242 409.039,853.242L413.546,853.242L413.546,849.16C408.614,849.557 396.34,849.557 390.756,849.557C385.427,849.557 374.797,849.557 370.148,849.16L370.148,853.242L373.294,853.242C383.811,853.242 384.066,854.745 384.066,859.677L384.066,931.28C384.066,936.184 383.811,937.686 373.294,937.686L370.148,937.686L370.148,941.938L440.957,941.938L444.643,906.874Z" style="fill:none;stroke:rgb(218,218,218);stroke-width:3.6px;stroke-linecap:butt;stroke-linejoin:miter;"/>
            <path d="M442.318,849.019C441.78,847.375 441.496,846.836 439.739,846.836C437.953,846.836 437.556,847.375 436.989,849.019L415.049,904.691C414.085,907.015 412.441,911.239 403.994,911.239L403.994,914.641L425.14,914.641L425.14,911.239C420.917,911.239 418.309,909.312 418.309,906.59C418.309,905.91 418.45,905.626 418.734,904.691L423.354,892.956L450.369,892.956L455.839,906.874C456.094,907.412 456.378,908.093 456.378,908.518C456.378,911.239 451.191,911.239 448.611,911.239L448.611,914.641L475.483,914.641L475.483,911.239L473.556,911.239C467.15,911.239 466.469,910.275 465.506,907.554L442.318,849.019ZM436.876,858.713L449.008,889.554L424.715,889.554L436.876,858.713Z" style="fill:none;stroke:rgb(218,218,218);stroke-width:3.6px;stroke-linecap:butt;stroke-linejoin:miter;"/>
            <path d="M551.594,849.982L468.51,849.982L466.072,880.54L469.332,880.54C471.231,858.571 473.301,854.064 493.88,854.064C496.346,854.064 499.89,854.064 501.25,854.348C504.113,854.886 504.113,856.389 504.113,859.535L504.113,931.138C504.113,935.787 504.113,937.686 489.798,937.686L484.328,937.686L484.328,941.938C489.94,941.513 503.717,941.513 509.981,941.513C516.274,941.513 530.306,941.513 535.918,941.938L535.918,937.686L530.447,937.686C516.132,937.686 516.132,935.787 516.132,931.138L516.132,859.535C516.132,856.814 516.132,854.886 518.57,854.348C520.072,854.064 523.757,854.064 526.365,854.064C546.831,854.064 548.872,858.571 550.772,880.54L554.202,880.54L551.594,849.982Z" style="fill:none;stroke:rgb(218,218,218);stroke-width:3.6px;stroke-linecap:butt;stroke-linejoin:miter;"/>
            <path d="M624.728,937.573L621.298,937.573C617.896,958.436 614.75,968.386 591.42,968.386L573.42,968.386C567.014,968.386 566.731,967.45 566.731,962.943L566.731,926.66L578.891,926.66C592.101,926.66 593.603,931.025 593.603,942.619L597.033,942.619L597.033,906.59L593.603,906.59C593.603,918.184 592.101,922.408 578.891,922.408L566.731,922.408L566.731,889.809C566.731,885.302 567.014,884.367 573.42,884.367L590.882,884.367C611.745,884.367 615.317,891.85 617.499,910.814L620.901,910.814L617.074,880.256L540.68,880.256L540.68,884.367L543.827,884.367C554.315,884.367 554.598,885.869 554.598,890.773L554.598,961.979C554.598,966.883 554.315,968.386 543.827,968.386L540.68,968.386L540.68,972.609L619.002,972.609L624.728,937.573Z" style="fill:none;stroke:rgb(218,218,218);stroke-width:3.6px;stroke-linecap:butt;stroke-linejoin:miter;"/>
            <path d="M665.773,889.412L684.482,862.115C687.345,857.749 691.965,853.384 704.126,853.242L704.126,849.16L671.641,849.16L671.641,853.242C677.112,853.384 680.117,856.389 680.117,859.535C680.117,860.896 679.833,861.179 678.869,862.653L663.335,885.586L645.874,859.393C645.591,858.997 644.91,857.891 644.91,857.352C644.91,855.708 647.915,853.384 653.641,853.242L653.641,849.16C648.992,849.557 639.043,849.557 633.855,849.557C629.631,849.557 621.184,849.444 616.139,849.16L616.139,853.242L618.718,853.242C626.23,853.242 628.809,854.206 631.417,858.033L656.362,895.819L634.139,928.701C632.211,931.422 628.129,937.686 614.494,937.686L614.494,941.938L646.951,941.938L646.951,937.686C640.687,937.573 638.362,933.888 638.362,931.422C638.362,930.203 638.759,929.636 639.723,928.162L658.97,899.645L680.513,932.102C680.797,932.641 681.194,933.208 681.194,933.604C681.194,935.249 678.189,937.573 672.321,937.686L672.321,941.938C677.112,941.513 687.061,941.513 692.107,941.513C697.833,941.513 704.126,941.655 709.852,941.938L709.852,937.686L707.244,937.686C700.157,937.686 697.294,937.006 694.431,932.782L665.773,889.412Z" style="fill:none;stroke:rgb(218,218,218);stroke-width:3.6px;stroke-linecap:butt;stroke-linejoin:miter;"/>
        </g>
        <path id="Helm" d="M95.839,960.704C95.953,960.874 99.411,965.494 99.524,965.664C103.323,970.568 107.461,974.99 111.883,978.959C108.85,981.595 105.732,985.082 102.898,989.163C94.904,1000.59 91.956,1012.29 96.293,1015.33C100.63,1018.36 110.636,1011.59 118.602,1000.19C121.351,996.278 123.506,992.338 124.951,988.71C138.189,996.902 152.986,1001.44 168.038,1002.23C166.904,1006.34 166.252,1011.42 166.252,1016.89C166.252,1030.8 170.561,1042.09 175.861,1042.09C181.162,1042.09 185.443,1030.8 185.443,1016.89C185.443,1011.19 184.734,1005.95 183.515,1001.75C198.227,1000.02 212.712,994.748 225.78,985.904C227.169,990.184 229.663,995.145 233.093,1000.05C241.058,1011.44 251.065,1018.22 255.402,1015.19C259.739,1012.12 256.791,1000.42 248.825,989.022C245.14,983.806 241.058,979.554 237.288,976.748C241.058,973.318 244.63,969.519 248.031,965.352L251.972,960.704L233.065,960.704C233.008,960.704 233.036,960.732 233.008,960.789C229.38,964.701 225.524,968.215 221.471,971.305C206.589,982.615 190.12,987.321 173.027,987.179C155.962,987.038 138.302,982.049 124.299,970.653C120.728,967.762 117.326,964.474 114.151,960.845C114.123,960.817 114.066,960.704 114.038,960.704L95.839,960.704ZM62.419,881.815L77.244,881.815L77.244,901.913L95.187,901.913L95.187,881.815L110.013,881.815L110.013,938.253L95.187,938.253L95.187,916.738L77.244,916.738L77.244,938.253L62.419,938.253L62.419,881.815ZM127.049,938.253L127.049,881.815L162.142,881.815L162.142,894.089L141.874,894.089L141.874,903.274L159.817,903.274L159.817,915.775L141.874,915.775L141.874,926.149L162.142,926.149L162.142,938.253L127.049,938.253ZM178.413,938.253L178.413,881.815L193.238,881.815L193.238,923.371L213.591,923.371L213.591,938.253L178.413,938.253ZM236.551,881.815L259.625,902.735L282.586,881.815L289.304,881.815L289.304,938.253L274.365,938.253L274.365,909.283L259.625,922.748L244.772,909.368L244.772,938.253L229.861,938.253L229.861,881.815L236.551,881.815ZM95.839,859.365C95.953,859.223 99.411,854.575 99.524,854.404C103.323,849.501 107.461,845.078 111.883,841.138C108.85,838.474 105.732,834.987 102.898,830.905C94.904,819.51 91.956,807.803 96.293,804.77C100.63,801.708 110.636,808.483 118.602,819.907C121.351,823.79 123.506,827.759 124.951,831.359C138.189,823.167 152.986,818.66 168.038,817.866C166.904,813.727 166.252,808.682 166.252,803.211C166.252,789.293 170.561,778.011 175.861,778.011C181.162,778.011 185.443,789.293 185.443,803.211C185.443,808.88 184.734,814.124 183.515,818.348C198.227,820.049 212.712,825.321 225.78,834.193C227.169,829.885 229.663,824.952 233.093,820.049C241.058,808.653 251.065,801.878 255.402,804.912C259.739,807.945 256.791,819.652 248.825,831.047C245.14,836.291 241.058,840.543 237.288,843.321C241.058,846.779 244.63,850.578 248.031,854.716L251.972,859.365L233.065,859.365C233.008,859.365 233.036,859.337 233.008,859.308C229.38,855.368 225.524,851.882 221.471,848.792C206.589,837.453 190.12,832.748 173.027,832.889C155.962,833.06 138.302,838.049 124.299,849.415C120.728,852.307 117.326,855.623 114.151,859.252C114.123,859.28 114.066,859.365 114.038,859.365L95.839,859.365Z" style="fill:none;stroke:rgb(218,218,218);stroke-width:3.6px;stroke-linecap:butt;stroke-linejoin:miter;"/>
        <g id="_2528429611872">
            <path d="M1344.27,498.997L1344.22,498.997C1343.57,498.997 1342.97,498.656 1342.66,498.089L1314.48,449.22C1314.11,448.653 1313.52,448.313 1312.84,448.313L1197.84,448.313C1197.18,448.313 1196.59,448.653 1196.28,449.22L1166.97,499.932L1138.79,548.773C1138.62,549.056 1138.54,549.397 1138.54,549.708C1138.54,550.049 1138.62,550.36 1138.79,550.644L1166.97,599.485L1196.25,650.225C1196.56,650.792 1197.16,651.16 1197.81,651.16L1312.84,651.16C1313.52,651.16 1314.11,650.792 1314.48,650.225L1342.66,601.384C1342.97,600.817 1343.57,600.477 1344.22,600.477L1379.37,600.477C1380.53,600.477 1381.46,599.513 1381.46,598.351L1381.46,501.123C1381.46,499.96 1380.53,499.025 1379.37,499.025L1344.27,499.025L1344.27,498.997Z" style="fill:none;stroke:rgb(218,218,218);stroke-width:3.6px;stroke-linecap:butt;stroke-linejoin:miter;"/>
            <path d="M1313.97,549.737L1275.02,617.173C1274.77,617.031 1274.57,616.861 1274.43,616.606L1265.58,601.327C1265.44,601.101 1265.39,600.817 1265.39,600.534C1265.39,600.278 1265.44,599.995 1265.58,599.768L1293.9,550.672C1294.07,550.417 1294.13,550.105 1294.13,549.822L1313.97,549.822L1313.97,549.737Z" style="fill:none;stroke:rgb(218,218,218);stroke-width:3.6px;"/>
            <path d="M1245.09,499.875L1216.77,548.971C1216.63,549.198 1216.57,549.453 1216.57,549.737L1196.79,549.737L1235.74,482.329C1235.99,482.471 1236.19,482.669 1236.33,482.896L1245.17,498.231C1245.29,498.458 1245.35,498.713 1245.35,498.968C1245.35,499.28 1245.26,499.62 1245.09,499.875Z" style="fill:none;stroke:rgb(218,218,218);stroke-width:3.6px;"/>
            <path d="M1245.06,601.356L1236.22,616.606C1236.05,616.861 1235.85,617.06 1235.59,617.173L1196.76,549.737L1216.57,549.737C1216.57,549.992 1216.63,550.247 1216.77,550.474L1245.09,599.541C1245.26,599.797 1245.35,600.108 1245.35,600.42C1245.35,600.76 1245.26,601.101 1245.06,601.356Z" style="fill:none;stroke:rgb(218,218,218);stroke-width:3.6px;"/>
            <path d="M1235.65,482.414L1196.79,549.737L1187.04,566.631L1177.6,550.53C1177.48,550.304 1177.4,550.049 1177.4,549.793L1177.4,549.765C1177.4,549.51 1177.48,549.226 1177.62,548.971L1187.07,532.644L1215.72,483.038C1216.01,482.527 1216.57,482.187 1217.17,482.187L1234.77,482.187C1235.08,482.187 1235.39,482.272 1235.65,482.414Z" style="fill:none;stroke:rgb(218,218,218);stroke-width:3.6px;"/>
            <path d="M1235.65,617.173C1235.39,617.315 1235.11,617.4 1234.83,617.428L1217.23,617.428C1216.63,617.428 1216.09,617.088 1215.78,616.578L1189.59,571.195L1187.01,566.688L1196.76,549.737L1235.65,617.173Z" style="fill:none;stroke:rgb(218,218,218);stroke-width:3.6px;"/>
            <path d="M1333.16,549.737C1333.16,550.02 1333.08,550.332 1332.93,550.587L1294.81,616.578C1294.5,617.06 1293.99,617.343 1293.39,617.343L1275.82,617.343C1275.53,617.343 1275.22,617.258 1274.97,617.116L1313.97,549.737L1323.72,532.842L1332.99,548.886C1333.11,549.113 1333.16,549.368 1333.16,549.595L1333.16,549.737Z" style="fill:none;stroke:rgb(218,218,218);stroke-width:3.6px;"/>
            <path d="M1313.97,549.737L1294.1,549.737C1294.1,549.425 1294.02,549.141 1293.87,548.886L1265.53,499.847C1265.36,499.592 1265.27,499.28 1265.27,498.968C1265.27,498.656 1265.36,498.345 1265.53,498.089L1274.4,482.811C1274.57,482.641 1274.77,482.499 1275.02,482.414L1313.97,549.737Z" style="fill:none;stroke:rgb(218,218,218);stroke-width:3.6px;"/>
            <path d="M1323.64,532.871L1313.97,549.737L1275.02,482.414C1275.28,482.272 1275.56,482.187 1275.87,482.187L1293.45,482.187C1294.02,482.187 1294.55,482.499 1294.84,482.981L1323.64,532.871Z" style="fill:none;stroke:rgb(218,218,218);stroke-width:3.6px;"/>
            <g>
                <path d="M1167.96,600.449L1205.97,600.449" style="fill:none;stroke:rgb(218,218,218);stroke-width:3.6px;stroke-linejoin:miter;"/>
                <path d="M1246.39,600.449L1265.39,600.449" style="fill:none;stroke:rgb(218,218,218);stroke-width:3.6px;stroke-linejoin:miter;"/>
                <path d="M1304.65,600.449L1344.13,600.449" style="fill:none;stroke:rgb(218,218,218);stroke-width:3.6px;stroke-linejoin:miter;"/>
            </g>
            <g>
                <path d="M1167.96,498.912L1205.97,498.912" style="fill:none;stroke:rgb(218,218,218);stroke-width:3.6px;stroke-linejoin:miter;"/>
                <path d="M1246.39,498.912L1265.39,498.912" style="fill:none;stroke:rgb(218,218,218);stroke-width:3.6px;stroke-linejoin:miter;"/>
                <path d="M1304.65,499.025L1344.13,499.025" style="fill:none;stroke:rgb(218,218,218);stroke-width:3.6px;stroke-linejoin:miter;"/>
            </g>
        </g>
        <g id="_2528429612208">
            <path d="M1286.19,154.701L1316.21,154.701L1316.21,185.4L1331.4,185.4C1338.41,185.4 1345.61,184.152 1352.24,181.913C1355.5,180.808 1359.18,179.249 1362.39,177.321C1358.16,171.793 1355.98,164.792 1355.36,157.904C1354.48,148.549 1356.38,136.36 1362.73,129.019L1365.87,125.39L1369.64,128.395C1379.08,136.02 1387.05,146.65 1388.47,158.754C1399.86,155.409 1413.24,156.203 1423.28,161.986L1427.41,164.367L1425.23,168.59C1416.76,185.173 1398.98,190.332 1381.61,189.425C1355.61,254.14 1299.03,284.782 1230.43,284.782C1195,284.782 1162.49,271.545 1143.98,240.08L1143.67,239.57L1140.97,234.099C1134.71,220.238 1132.64,205.072 1134.03,189.935L1134.45,185.4L1160.13,185.4L1160.13,154.701L1190.15,154.701L1190.15,124.682L1250.19,124.682L1250.19,94.691L1286.19,94.691L1286.19,154.701ZM1195.14,129.699L1221.16,129.699L1221.16,155.721L1195.14,155.721L1195.14,129.699ZM1225.16,129.699L1251.18,129.699L1251.18,155.721L1225.16,155.721L1225.16,129.699ZM1255.18,129.699L1281.2,129.699L1281.2,155.721L1255.18,155.721L1255.18,129.699ZM1255.18,99.68L1281.2,99.68L1281.2,125.702L1255.18,125.702L1255.18,99.68ZM1255.18,159.718L1281.2,159.718L1281.2,185.74L1255.18,185.74L1255.18,159.718ZM1225.16,159.718L1251.18,159.718L1251.18,185.74L1225.16,185.74L1225.16,159.718ZM1195.14,159.718L1221.16,159.718L1221.16,185.74L1195.14,185.74L1195.14,159.718ZM1165.12,159.718L1191.15,159.718L1191.15,185.74L1165.12,185.74L1165.12,159.718ZM1285.2,159.718L1311.22,159.718L1311.22,185.74L1285.2,185.74L1285.2,159.718ZM1383.45,166.067C1385.46,150.42 1373.75,138.146 1366.5,132.307C1358.13,141.973 1356.83,167.315 1369.96,178.001C1362.64,184.493 1347.19,190.389 1331.4,190.389L1139.02,190.389C1137.49,206.886 1140.38,222.08 1147.01,235.091L1149.19,239.088C1150.58,241.441 1152.09,243.708 1153.73,245.891C1161.64,246.401 1168.92,246.571 1175.58,246.43C1188.71,246.146 1199.39,244.587 1207.5,241.781C1208.72,241.356 1210.03,242.008 1210.45,243.226C1210.88,244.417 1210.22,245.749 1209.03,246.146C1207.96,246.515 1206.82,246.883 1205.66,247.223C1199.28,249.038 1192.42,250.256 1183.61,250.795C1184.12,250.823 1183.04,250.88 1183.04,250.88C1182.76,250.908 1182.36,250.937 1182.08,250.965C1178.59,251.163 1174.85,251.192 1170.99,251.192C1166.8,251.192 1162.69,251.107 1158.07,250.88L1157.95,250.965C1173.97,268.965 1199.03,279.793 1230.43,279.793C1296.93,279.793 1353.32,250.313 1378.29,184.152C1396.01,185.967 1413.04,181.431 1420.78,166.323C1408.45,159.208 1392.58,161.475 1383.45,166.067Z" style="fill:rgb(218,218,218);"/>
            <path d="M1219.55,227.919C1223.49,227.919 1226.72,231.123 1226.72,235.091C1226.72,239.06 1223.49,242.263 1219.55,242.263C1215.58,242.263 1212.35,239.06 1212.35,235.091C1212.35,231.123 1215.58,227.919 1219.55,227.919Z" style="fill:none;stroke:rgb(218,218,218);stroke-width:0.89px;stroke-linecap:butt;stroke-linejoin:miter;"/>
            <path d="M1219.55,229.932C1220.2,229.932 1220.83,230.074 1221.39,230.301C1220.77,230.669 1220.34,231.321 1220.34,232.115C1220.34,233.277 1221.28,234.212 1222.44,234.212C1223.24,234.212 1223.91,233.759 1224.28,233.107C1224.54,233.73 1224.68,234.382 1224.68,235.091C1224.68,237.926 1222.38,240.222 1219.55,240.222C1216.69,240.222 1214.39,237.926 1214.39,235.091C1214.39,232.256 1216.69,229.932 1219.55,229.932Z" style="fill:rgb(218,218,218);stroke:rgb(218,218,218);stroke-width:0.22px;stroke-linecap:butt;stroke-linejoin:miter;"/>
            <g>
                <g>
                    <rect x="1169.21" y="162.411" width="2.475" height="20.618" style="fill:rgb(218,218,218);"/>
                    <rect x="1184.51" y="162.411" width="2.475" height="20.618" style="fill:rgb(218,218,218);"/>
                </g>
                <rect x="1176.86" y="162.411" width="2.475" height="20.618" style="fill:rgb(218,218,218);"/>
            </g>
            <rect x="1165.24" y="159.831" width="25.909" height="25.795" style="fill:none;"/>
            <g>
                <g>
                    <rect x="1199.2" y="162.411" width="2.475" height="20.618" style="fill:rgb(218,218,218);"/>
                    <rect x="1214.5" y="162.411" width="2.475" height="20.618" style="fill:rgb(218,218,218);"/>
                </g>
                <rect x="1206.85" y="162.411" width="2.475" height="20.618" style="fill:rgb(218,218,218);"/>
            </g>
            <g>
                <g>
                    <rect x="1229.19" y="162.411" width="2.475" height="20.618" style="fill:rgb(218,218,218);"/>
                    <rect x="1244.49" y="162.411" width="2.475" height="20.618" style="fill:rgb(218,218,218);"/>
                </g>
                <rect x="1236.84" y="162.411" width="2.475" height="20.618" style="fill:rgb(218,218,218);"/>
            </g>
            <g>
                <g>
                    <rect x="1259.35" y="162.411" width="2.475" height="20.618" style="fill:rgb(218,218,218);"/>
                    <rect x="1274.65" y="162.411" width="2.475" height="20.618" style="fill:rgb(218,218,218);"/>
                </g>
                <rect x="1267" y="162.411" width="2.475" height="20.618" style="fill:rgb(218,218,218);"/>
            </g>
            <g>
                <g>
                    <rect x="1289.51" y="162.411" width="2.475" height="20.618" style="fill:rgb(218,218,218);"/>
                    <rect x="1304.79" y="162.411" width="2.475" height="20.618" style="fill:rgb(218,218,218);"/>
                </g>
                <rect x="1297.16" y="162.411" width="2.475" height="20.618" style="fill:rgb(218,218,218);"/>
            </g>
            <g>
                <g>
                    <rect x="1199.2" y="132.562" width="2.475" height="20.618" style="fill:rgb(218,218,218);"/>
                    <rect x="1214.5" y="132.562" width="2.475" height="20.618" style="fill:rgb(218,218,218);"/>
                </g>
                <rect x="1206.85" y="132.562" width="2.475" height="20.618" style="fill:rgb(218,218,218);"/>
            </g>
            <g>
                <g>
                    <rect x="1229.19" y="132.562" width="2.475" height="20.618" style="fill:rgb(218,218,218);"/>
                    <rect x="1244.49" y="132.562" width="2.475" height="20.618" style="fill:rgb(218,218,218);"/>
                </g>
                <rect x="1236.84" y="132.562" width="2.475" height="20.618" style="fill:rgb(218,218,218);"/>
            </g>
            <g>
                <g>
                    <rect x="1259.35" y="132.562" width="2.475" height="20.618" style="fill:rgb(218,218,218);"/>
                    <rect x="1274.65" y="132.562" width="2.475" height="20.618" style="fill:rgb(218,218,218);"/>
                </g>
                <rect x="1267" y="132.562" width="2.475" height="20.618" style="fill:rgb(218,218,218);"/>
            </g>
            <g>
                <g>
                    <rect x="1259.35" y="102.345" width="2.475" height="20.618" style="fill:rgb(218,218,218);"/>
                    <rect x="1274.65" y="102.345" width="2.475" height="20.618" style="fill:rgb(218,218,218);"/>
                </g>
                <rect x="1267" y="102.345" width="2.475" height="20.618" style="fill:rgb(218,218,218);"/>
            </g>
        </g>
        <path id="Terraform" d="M1302.89,867.047L1302.89,948.26L1373.22,907.667L1373.22,826.398L1302.89,867.047ZM1146.78,781.072L1146.78,862.285L1217.11,902.905L1217.11,821.693L1146.78,781.072ZM1224.82,997.781L1295.18,1038.4L1295.18,957.16L1224.82,916.54L1224.82,997.781ZM1224.82,826.398L1295.18,867.047L1295.18,948.26L1224.82,907.639L1224.82,826.398Z" style="fill:none;stroke:rgb(218,218,218);stroke-width:3.6px;stroke-linecap:butt;stroke-linejoin:miter;"/>
        <path id="Rust" d="M1762.04,546.199L1749.94,538.714C1749.84,537.537 1749.73,536.361 1749.6,535.192L1759.99,525.501C1761.05,524.515 1761.52,523.057 1761.23,521.646C1760.96,520.229 1759.96,519.062 1758.61,518.558L1745.33,513.591C1745,512.442 1744.65,511.299 1744.29,510.163L1752.58,498.655C1753.42,497.485 1753.59,495.964 1753.04,494.629C1752.49,493.3 1751.29,492.348 1749.87,492.114L1735.86,489.836C1735.32,488.774 1734.75,487.729 1734.18,486.691L1740.06,473.773C1740.66,472.457 1740.54,470.927 1739.74,469.734C1738.94,468.534 1737.58,467.832 1736.13,467.887L1721.92,468.383C1721.18,467.463 1720.44,466.553 1719.67,465.659L1722.94,451.812C1723.27,450.406 1722.86,448.934 1721.83,447.914C1720.82,446.895 1719.34,446.475 1717.93,446.805L1704.09,450.068C1703.19,449.308 1702.28,448.557 1701.36,447.822L1701.86,433.608C1701.91,432.169 1701.21,430.802 1700.01,430.003C1698.81,429.199 1697.29,429.078 1695.98,429.676L1683.06,435.564C1682.02,434.991 1680.97,434.425 1679.91,433.877L1677.63,419.869C1677.4,418.449 1676.45,417.244 1675.12,416.693C1673.79,416.141 1672.26,416.319 1671.09,417.161L1659.58,425.447C1658.44,425.086 1657.31,424.739 1656.16,424.409L1651.19,411.125C1650.68,409.772 1649.52,408.778 1648.1,408.497C1646.69,408.219 1645.23,408.69 1644.25,409.741L1634.56,420.139C1633.39,420.01 1632.21,419.892 1631.04,419.795L1623.55,407.702C1622.8,406.478 1621.45,405.732 1620.01,405.732C1618.57,405.732 1617.23,406.477 1616.48,407.702L1608.99,419.795C1607.82,419.892 1606.64,420.01 1605.47,420.139L1595.77,409.741C1594.79,408.69 1593.33,408.219 1591.92,408.497C1590.51,408.78 1589.34,409.771 1588.83,411.125L1583.87,424.409C1582.72,424.739 1581.58,425.089 1580.44,425.447L1568.93,417.161C1567.76,416.317 1566.24,416.138 1564.9,416.693C1563.57,417.244 1562.62,418.449 1562.39,419.869L1560.11,433.877C1559.05,434.425 1558,434.989 1556.96,435.564L1544.04,429.676C1542.73,429.075 1541.2,429.199 1540.01,430.003C1538.81,430.801 1538.11,432.169 1538.16,433.608L1538.66,447.822C1537.74,448.557 1536.83,449.308 1535.93,450.068L1522.08,446.805C1520.68,446.477 1519.2,446.895 1518.18,447.914C1517.16,448.935 1516.74,450.406 1517.07,451.812L1520.34,465.659C1519.58,466.556 1518.83,467.464 1518.1,468.383L1503.88,467.887C1502.45,467.846 1501.08,468.534 1500.28,469.734C1499.47,470.928 1499.35,472.457 1499.95,473.773L1505.84,486.691C1505.26,487.729 1504.7,488.774 1504.15,489.836L1490.14,492.114C1488.72,492.345 1487.52,493.298 1486.97,494.629C1486.42,495.963 1486.6,497.485 1487.44,498.655L1495.72,510.163C1495.36,511.299 1495.01,512.441 1494.68,513.591L1481.4,518.558C1480.05,519.062 1479.06,520.229 1478.78,521.646C1478.49,523.06 1478.96,524.515 1480.02,525.501L1490.41,535.192C1490.28,536.361 1490.17,537.539 1490.07,538.714L1477.98,546.199C1476.75,546.955 1476.01,548.292 1476.01,549.737C1476.01,551.182 1476.75,552.519 1477.98,553.273L1490.07,560.758C1490.17,561.935 1490.28,563.11 1490.41,564.28L1480.02,573.974C1478.96,574.956 1478.5,576.414 1478.78,577.826C1479.06,579.243 1480.05,580.407 1481.4,580.914L1494.68,585.88C1495.01,587.03 1495.36,588.172 1495.72,589.309L1487.44,600.819C1486.59,601.991 1486.41,603.513 1486.97,604.842C1487.52,606.176 1488.72,607.129 1490.15,607.357L1504.15,609.635C1504.7,610.697 1505.26,611.742 1505.84,612.786L1499.95,625.699C1499.35,627.012 1499.47,628.538 1500.28,629.738C1501.08,630.941 1502.45,631.642 1503.88,631.584L1518.09,631.086C1518.83,632.011 1519.58,632.916 1520.34,633.816L1517.07,647.664C1516.74,649.068 1517.16,650.534 1518.18,651.555C1519.2,652.582 1520.68,652.991 1522.08,652.661L1535.93,649.401C1536.83,650.165 1537.74,650.909 1538.66,651.641L1538.16,665.858C1538.11,667.297 1538.81,668.662 1540.01,669.465C1541.2,670.266 1542.73,670.387 1544.04,669.788L1556.96,663.902C1558,664.48 1559.05,665.041 1560.11,665.589L1562.39,679.589C1562.62,681.014 1563.57,682.219 1564.9,682.767C1566.23,683.319 1567.76,683.141 1568.93,682.302L1580.44,674.011C1581.57,674.372 1582.71,674.724 1583.87,675.054L1588.83,688.333C1589.34,689.681 1590.5,690.68 1591.92,690.955C1593.33,691.241 1594.79,690.768 1595.77,689.711L1605.47,679.318C1606.63,679.453 1607.81,679.565 1608.99,679.67L1616.48,691.761C1617.23,692.98 1618.57,693.731 1620.01,693.731C1621.45,693.731 1622.79,692.983 1623.55,691.761L1631.03,679.67C1632.21,679.565 1633.39,679.453 1634.56,679.318L1644.25,689.711C1645.23,690.767 1646.69,691.241 1648.1,690.955C1649.52,690.677 1650.68,689.681 1651.19,688.333L1656.15,675.054C1657.3,674.724 1658.44,674.372 1659.58,674.011L1671.09,682.302C1672.26,683.141 1673.79,683.32 1675.12,682.767C1676.45,682.219 1677.4,681.011 1677.63,679.589L1679.91,665.589C1680.97,665.041 1682.02,664.472 1683.06,663.902L1695.97,669.788C1697.29,670.388 1698.81,670.266 1700.01,669.465C1701.21,668.662 1701.91,667.3 1701.86,665.858L1701.36,651.641C1702.28,650.906 1703.19,650.165 1704.09,649.401L1717.93,652.661C1719.34,652.991 1720.81,652.582 1721.83,651.555C1722.85,650.534 1723.27,649.068 1722.94,647.664L1719.68,633.816C1720.44,632.916 1721.19,632.011 1721.92,631.086L1736.13,631.584C1737.57,631.642 1738.94,630.941 1739.74,629.738C1740.54,628.538 1740.66,627.011 1740.06,625.699L1734.18,612.786C1734.75,611.743 1735.32,610.697 1735.86,609.635L1749.87,607.357C1751.29,607.129 1752.49,606.176 1753.04,604.842C1753.59,603.513 1753.42,601.991 1752.57,600.819L1744.29,589.309C1744.65,588.173 1745,587.031 1745.33,585.88L1758.61,580.914C1759.96,580.408 1760.96,579.243 1761.23,577.826C1761.52,576.412 1761.05,574.956 1759.99,573.974L1749.6,564.28C1749.73,563.11 1749.84,561.933 1749.94,560.758L1762.03,553.273C1763.26,552.519 1764,551.179 1764,549.737C1764,548.296 1763.26,546.955 1762.04,546.199L1762.04,546.199ZM1681.11,646.497C1676.5,645.501 1673.56,640.95 1674.55,636.319C1675.54,631.694 1680.09,628.75 1684.7,629.745C1689.32,630.733 1692.26,635.293 1691.27,639.916C1690.28,644.538 1685.73,647.485 1681.11,646.498L1681.11,646.497ZM1677.01,618.711C1672.79,617.808 1668.65,620.489 1667.75,624.71L1663.45,644.742C1650.21,650.754 1635.5,654.094 1620.01,654.094C1604.16,654.094 1589.13,650.589 1575.65,644.321L1571.36,624.289C1570.45,620.073 1566.31,617.388 1562.1,618.293L1544.42,622.09C1541.13,618.711 1538.08,615.112 1535.27,611.312L1621.32,611.312C1622.29,611.312 1622.94,611.136 1622.94,610.25L1622.94,579.812C1622.94,578.926 1622.3,578.75 1621.32,578.75L1596.15,578.75L1596.15,559.456L1623.37,559.456C1625.86,559.456 1636.66,560.165 1640.11,573.97C1641.19,578.216 1643.57,592.026 1645.19,596.448C1646.81,601.406 1653.39,611.312 1660.41,611.312L1703.29,611.312C1703.78,611.312 1704.3,611.257 1704.85,611.158C1701.87,615.2 1698.61,619.025 1695.1,622.599L1677,618.711L1677.01,618.711ZM1557.99,646.079C1553.38,647.075 1548.83,644.131 1547.84,639.505C1546.85,634.872 1549.78,630.323 1554.4,629.328C1559.02,628.34 1563.57,631.284 1564.56,635.91C1565.55,640.532 1562.61,645.089 1557.99,646.08L1557.99,646.079ZM1525.35,513.713C1527.27,518.036 1525.32,523.102 1521,525.014C1516.68,526.932 1511.63,524.981 1509.72,520.656C1507.8,516.33 1509.75,511.273 1514.07,509.355C1518.39,507.44 1523.44,509.388 1525.35,513.713ZM1515.32,537.495L1533.74,529.309C1537.67,527.562 1539.45,522.95 1537.7,519.007L1533.91,510.428L1548.83,510.428L1548.83,577.688L1518.73,577.688C1516.12,568.509 1514.71,558.821 1514.71,548.808C1514.71,544.985 1514.92,541.207 1515.32,537.496L1515.32,537.495ZM1596.16,530.963L1596.16,511.138L1631.69,511.138C1633.53,511.138 1644.65,513.259 1644.65,521.577C1644.65,528.484 1636.12,530.961 1629.1,530.961L1596.16,530.961L1596.16,530.963ZM1725.3,548.807C1725.3,551.437 1725.2,554.04 1725.01,556.625L1714.21,556.625C1713.12,556.625 1712.69,557.334 1712.69,558.394L1712.69,563.355C1712.69,575.033 1706.11,577.573 1700.34,578.22C1694.84,578.839 1688.75,575.919 1688,572.557C1684.76,554.325 1679.36,550.431 1670.83,543.704C1681.41,536.982 1692.43,527.065 1692.43,513.791C1692.43,499.458 1682.6,490.43 1675.9,486.003C1666.51,479.809 1656.1,478.568 1653.3,478.568L1541.57,478.568C1556.72,461.66 1577.26,449.682 1600.48,445.323L1613.65,459.139C1616.63,462.256 1621.56,462.372 1624.67,459.392L1639.41,445.298C1670.28,451.047 1696.42,470.267 1711.49,496.636L1701.4,519.419C1699.66,523.362 1701.44,527.973 1705.37,529.72L1724.79,538.347C1725.12,541.795 1725.3,545.278 1725.3,548.808L1725.3,548.807ZM1613.65,433.57C1617.06,430.301 1622.48,430.43 1625.74,433.848C1629,437.274 1628.88,442.691 1625.46,445.958C1622.05,449.226 1616.64,449.1 1613.37,445.677C1610.11,442.256 1610.24,436.839 1613.65,433.57ZM1713.76,514.129C1715.67,509.806 1720.72,507.855 1725.04,509.773C1729.36,511.688 1731.3,516.751 1729.39,521.074C1727.48,525.399 1722.42,527.35 1718.1,525.432C1713.79,523.517 1711.84,518.456 1713.76,514.128L1713.76,514.129Z" style="fill:none;stroke:rgb(218,218,218);stroke-width:3.6px;"/>
        <g id="Google_x0020_Cloud">
            <path d="M261.098,93.345C210.017,48.245 131.866,53.263 86.767,104.343C74.238,118.516 65.167,135.411 60.178,153.694C76.307,140.853 113.214,135.099 128.975,139.719C153.381,112.875 194.767,109.502 222.972,132.321L261.098,93.345Z" style="fill:none;stroke:rgb(218,218,218);stroke-width:3.6px;stroke-linecap:butt;stroke-linejoin:miter;"/>
            <path d="M298.685,153.694C292.364,130.45 279.41,109.559 261.41,93.6L222.887,132.123C239.158,145.389 248.427,165.43 248.03,186.434L248.03,193.294C266.966,193.294 282.329,208.63 282.329,227.565C282.329,246.501 266.966,261.864 248.03,261.864L179.432,261.864L179.432,316.771L248.03,316.771C297.268,317.168 337.52,277.54 337.888,228.302C338.115,198.368 323.403,170.39 298.685,153.694Z" style="fill:none;stroke:rgb(218,218,218);stroke-width:3.6px;stroke-linecap:butt;stroke-linejoin:miter;"/>
            <path d="M110.777,316.346L179.347,316.771L179.347,261.893L110.777,261.439C105.873,261.439 101.054,260.39 96.603,258.349L56.918,298.148C72.424,309.855 91.331,316.431 110.777,316.346Z" style="fill:none;stroke:rgb(218,218,218);stroke-width:3.6px;stroke-linecap:butt;stroke-linejoin:miter;"/>
            <path d="M110.777,138.274C61.482,138.557 21.825,178.724 22.109,227.99C22.279,255.486 35.12,281.395 56.918,298.148L96.688,258.378C79.454,250.582 71.772,230.258 79.567,213.023C87.362,195.76 107.687,188.078 124.921,195.874C132.518,199.304 138.613,205.426 142.071,213.023L181.841,173.253C164.918,151.115 138.613,138.16 110.777,138.274Z" style="fill:none;stroke:rgb(218,218,218);stroke-width:3.6px;stroke-linecap:butt;stroke-linejoin:miter;"/>
        </g>
        <path id="Skaffold" d="M1560.29,279.255L1752.74,279.255L1752.74,321.693L1560.29,321.693L1560.29,279.255ZM1679.71,100.129L1487.26,100.129L1487.26,57.693L1679.71,57.693L1679.71,100.129ZM1710.3,174.148L1560.29,174.148L1560.29,131.71L1752.74,131.71L1752.74,248.168L1710.3,248.168L1710.3,174.148ZM1529.7,205.237L1679.71,205.237L1679.71,247.675L1487.26,247.675L1487.26,131.218L1529.7,131.218L1529.7,205.237Z" style="fill:none;stroke:rgb(218,218,218);stroke-width:3.6px;stroke-linecap:butt;stroke-linejoin:miter;stroke-miterlimit:10;"/>
    </g>
</svg>
