<?xml version="1.0" encoding="UTF-8"?>
<!DOCTYPE svg PUBLIC "-//W3C//DTD SVG 1.1//EN" "http://www.w3.org/Graphics/SVG/1.1/DTD/svg11.dtd">
<!-- Creator: CorelDRAW 2020 (64-Bit) -->
<svg xmlns="http://www.w3.org/2000/svg" xml:space="preserve" width="7500px" height="4500px" version="1.1" style="shape-rendering:geometricPrecision; text-rendering:geometricPrecision; image-rendering:optimizeQuality; fill-rule:evenodd; clip-rule:evenodd"
viewBox="0 0 7500 4500"
 xmlns:xlink="http://www.w3.org/1999/xlink"
 xmlns:xodm="http://www.corel.com/coreldraw/odm/2003">
 <defs>
  <style type="text/css">
   <![CDATA[
    .str3 {stroke:#DADADA;stroke-width:10;stroke-miterlimit:22.9256}
    .str7 {stroke:#DADADA;stroke-width:3.72;stroke-miterlimit:22.9256}
    .str2 {stroke:#DADADA;stroke-width:15;stroke-miterlimit:22.9256}
    .str9 {stroke:#DADADA;stroke-width:15;stroke-miterlimit:22.9256}
    .str11 {stroke:#DADADA;stroke-width:15;stroke-miterlimit:22.9256}
    .str4 {stroke:#DADADA;stroke-width:12;stroke-miterlimit:22.9256}
    .str6 {stroke:#DADADA;stroke-width:0.9;stroke-miterlimit:22.9256}
    .str10 {stroke:#DADADA;stroke-width:15;stroke-linejoin:round;stroke-miterlimit:22.9256}
    .str5 {stroke:#DADADA;stroke-linecap:round;stroke-linejoin:round;stroke-miterlimit:22.9256}
    .str1 {stroke:#DADADA;stroke-width:15;stroke-linecap:round;stroke-linejoin:round;stroke-miterlimit:22.9256}
    .str8 {stroke:#DADADA;stroke-width:15;stroke-linecap:round;stroke-linejoin:round;stroke-miterlimit:22.9256}
    .str13 {stroke:#DADADA;stroke-width:15;stroke-linecap:round;stroke-linejoin:round;stroke-miterlimit:22.9256}
    .str0 {stroke:#2B2A29;stroke-width:18.57;stroke-miterlimit:22.9256}
    .str12 {stroke:#DADADA;stroke-width:15;stroke-linecap:round;stroke-linejoin:round;stroke-miterlimit:22.9256}
    .fil26 {fill:none}
    .fil29 {fill:none;fill-rule:nonzero}
    .fil15 {fill:#00546B}
    .fil19 {fill:#079948}
    .fil12 {fill:#1A1918}
    .fil1 {fill:#1D91B4}
    .fil16 {fill:#256EA5}
    .fil6 {fill:#264970}
    .fil8 {fill:#2EB67D}
    .fil13 {fill:#326DE6}
    .fil9 {fill:#40BE46}
    .fil14 {fill:#4285F4}
    .fil17 {fill:#499CD2}
    .fil24 {fill:#727272}
    .fil2 {fill:#81B5A1}
    .fil4 {fill:#952225}
    .fil20 {fill:#BE2742}
    .fil3 {fill:#CC0000}
    .fil7 {fill:#D1D1D1}
    .fil5 {fill:#D33833}
    .fil27 {fill:#DADADA}
    .fil10 {fill:#DFDFDF}
    .fil21 {fill:#E24329}
    .fil0 {fill:#E2685D}
    .fil25 {fill:#E8E8E8}
    .fil22 {fill:#EF9325}
    .fil11 {fill:#F04E98}
    .fil18 {fill:#F583B7}
    .fil23 {fill:#F8A6CC}
    .fil28 {fill:#DADADA;fill-rule:nonzero}
    .fil30 {fill:#DADADA;fill-rule:nonzero}
   ]]>
  </style>
 </defs>
<symbol id="Fm98-98-0" viewBox="53551.8 -19583.27 4499.07 4500">
 <polygon class="fil0 str0" points="53561.08,-19573.98 58041.58,-19573.98 58041.58,-15092.55 53561.08,-15092.55 "/>
</symbol>
<symbol id="Fm158-158-0" viewBox="44600.08 -24064.69 4499.07 4500">
 <polygon class="fil1 str0" points="44609.37,-24055.41 49089.87,-24055.41 49089.87,-19573.98 44609.37,-19573.98 "/>
</symbol>
<symbol id="Fm137-137-0" viewBox="53551.8 -77837.19 4499.07 4499.07">
 <polygon class="fil2 str0" points="53561.08,-77827.9 58041.58,-77827.9 58041.58,-73347.4 53561.08,-73347.4 "/>
</symbol>
<symbol id="Fm167-167-0" viewBox="44600.08 -37507.12 4499.07 4499.07">
 <polygon class="fil3 str0" points="44609.37,-37497.83 49089.87,-37497.83 49089.87,-33017.34 44609.37,-33017.34 "/>
</symbol>
<symbol id="Fm152-152-0" viewBox="44600.08 -15101.84 4499.07 4499.07">
 <polygon class="fil4 str0" points="44609.37,-15092.55 49089.87,-15092.55 49089.87,-10612.05 44609.37,-10612.05 "/>
</symbol>
<symbol id="Fm86-86-0" viewBox="53551.8 -1658.48 4499.07 4499.07">
 <polygon class="fil5 str0" points="53561.08,-1649.2 58041.58,-1649.2 58041.58,2831.3 53561.08,2831.3 "/>
</symbol>
<symbol id="Fm134-134-0" viewBox="53551.8 -73356.69 4499.07 4500">
 <polygon class="fil6 str0" points="53561.08,-73347.4 58041.58,-73347.4 58041.58,-68865.97 53561.08,-68865.97 "/>
</symbol>
<symbol id="Fm210-210-0" viewBox="66995.15 7303.45 4499.07 4500">
 <polygon class="fil7 str0" points="67004.44,7312.73 71484.94,7312.73 71484.94,11794.16 67004.44,11794.16 "/>
</symbol>
<symbol id="Fm131-131-0" viewBox="53551.8 -68875.26 4499.07 4500">
 <polygon class="fil8 str0" points="53561.08,-68865.97 58041.58,-68865.97 58041.58,-64384.54 53561.08,-64384.54 "/>
</symbol>
<symbol id="Fm89-89-0" viewBox="53551.8 -6139.91 4499.07 4500">
 <polygon class="fil9 str0" points="53561.08,-6130.62 58041.58,-6130.62 58041.58,-1649.2 53561.08,-1649.2 "/>
</symbol>
<symbol id="Fm110-110-0" viewBox="53551.8 -37507.12 4499.07 4499.07">
 <polygon class="fil3 str0" points="53561.08,-37497.83 58041.58,-37497.83 58041.58,-33017.34 53561.08,-33017.34 "/>
</symbol>
<symbol id="Fm194-194-0" viewBox="44600.08 -77837.19 4499.07 4499.07">
 <polygon class="fil2 str0" points="44609.37,-77827.9 49089.87,-77827.9 49089.87,-73347.4 44609.37,-73347.4 "/>
</symbol>
<symbol id="Fm207-207-0" viewBox="44600.08 7303.45 4499.07 4500">
 <polygon class="fil10 str0" points="44609.37,7312.73 49089.87,7312.73 49089.87,11794.16 44609.37,11794.16 "/>
</symbol>
<symbol id="Fm222-222-0" viewBox="66995.15 11784.87 4499.07 4499.07">
 <polygon class="fil11 str0" points="67004.44,11794.16 71484.94,11794.16 71484.94,16274.66 67004.44,16274.66 "/>
</symbol>
<symbol id="Fm188-188-0" viewBox="44600.08 -68875.26 4499.07 4500">
 <polygon class="fil8 str0" points="44609.37,-68865.97 49089.87,-68865.97 49089.87,-64384.54 44609.37,-64384.54 "/>
</symbol>
<symbol id="Fm161-161-0" viewBox="44600.08 -28545.19 4499.07 4499.07">
 <polygon class="fil12 str0" points="44609.37,-28535.91 49089.87,-28535.91 49089.87,-24055.41 44609.37,-24055.41 "/>
</symbol>
<symbol id="Fm128-128-0" viewBox="53551.8 -64393.83 4499.07 4499.07">
 <polygon class="fil13 str0" points="53561.08,-64384.54 58041.58,-64384.54 58041.58,-59904.05 53561.08,-59904.05 "/>
</symbol>
<symbol id="Fm125-125-0" viewBox="53551.8 -59913.33 4499.07 4500">
 <polygon class="fil14 str0" points="53561.08,-59904.05 58041.58,-59904.05 58041.58,-55422.62 53561.08,-55422.62 "/>
</symbol>
<symbol id="Fm107-107-0" viewBox="53551.8 -33026.62 4499.07 4500">
 <polygon class="fil15 str0" points="53561.08,-33017.34 58041.58,-33017.34 58041.58,-28535.91 53561.08,-28535.91 "/>
</symbol>
<symbol id="Fm155-155-0" viewBox="44600.08 -19583.27 4499.07 4500">
 <polygon class="fil0 str0" points="44609.37,-19573.98 49089.87,-19573.98 49089.87,-15092.55 44609.37,-15092.55 "/>
</symbol>
<symbol id="Fm95-95-0" viewBox="53551.8 -15101.84 4499.07 4499.07">
 <polygon class="fil4 str0" points="53561.08,-15092.55 58041.58,-15092.55 58041.58,-10612.05 53561.08,-10612.05 "/>
</symbol>
<symbol id="Fm122-122-0" viewBox="53551.8 -55431.9 4499.07 4500">
 <polygon class="fil16 str0" points="53561.08,-55422.62 58041.58,-55422.62 58041.58,-50941.19 53561.08,-50941.19 "/>
</symbol>
<symbol id="Fm140-140-0" viewBox="44600.08 2822.02 4499.07 4500">
 <polygon class="fil17 str0" points="44609.37,2831.3 49089.87,2831.3 49089.87,7312.73 44609.37,7312.73 "/>
</symbol>
<symbol id="Fm219-219-0" viewBox="44600.08 11784.87 4499.07 4499.07">
 <polygon class="fil18 str0" points="44609.37,11794.16 49089.87,11794.16 49089.87,16274.66 44609.37,16274.66 "/>
</symbol>
<symbol id="Fm179-179-0" viewBox="44600.08 -55431.9 4499.07 4500">
 <polygon class="fil16 str0" points="44609.37,-55422.62 49089.87,-55422.62 49089.87,-50941.19 44609.37,-50941.19 "/>
</symbol>
<symbol id="Fm225-225-0" viewBox="80446.86 11784.87 4499.07 4499.07">
 <polygon class="fil11 str0" points="80456.15,11794.16 84936.65,11794.16 84936.65,16274.66 80456.15,16274.66 "/>
</symbol>
<symbol id="Fm116-116-0" viewBox="53551.8 -46469.98 4499.07 4500">
 <polygon class="fil19 str0" points="53561.08,-46460.69 58041.58,-46460.69 58041.58,-41979.26 53561.08,-41979.26 "/>
</symbol>
<symbol id="Fm149-149-0" viewBox="44600.08 -10621.34 4499.07 4500">
 <polygon class="fil20 str0" points="44609.37,-10612.05 49089.87,-10612.05 49089.87,-6130.62 44609.37,-6130.62 "/>
</symbol>
<symbol id="Fm76-76-0" viewBox="53551.8 2822.02 4499.07 4500">
 <polygon class="fil17 str0" points="53561.08,2831.3 58041.58,2831.3 58041.58,7312.73 53561.08,7312.73 "/>
</symbol>
<symbol id="Fm146-146-0" viewBox="44600.08 -6139.91 4499.07 4500">
 <polygon class="fil9 str0" points="44609.37,-6130.62 49089.87,-6130.62 49089.87,-1649.2 44609.37,-1649.2 "/>
</symbol>
<symbol id="Fm104-104-0" viewBox="53551.8 -28545.19 4499.07 4499.07">
 <polygon class="fil12 str0" points="53561.08,-28535.91 58041.58,-28535.91 58041.58,-24055.41 53561.08,-24055.41 "/>
</symbol>
<symbol id="Fm101-101-0" viewBox="53551.8 -24064.69 4499.07 4500">
 <polygon class="fil1 str0" points="53561.08,-24055.41 58041.58,-24055.41 58041.58,-19573.98 53561.08,-19573.98 "/>
</symbol>
<symbol id="Fm113-113-0" viewBox="53551.8 -41988.55 4499.07 4500">
 <polygon class="fil21 str0" points="53561.08,-41979.26 58041.58,-41979.26 58041.58,-37497.83 53561.08,-37497.83 "/>
</symbol>
<symbol id="Fm176-176-0" viewBox="44600.08 -50950.48 4499.07 4499.07">
 <polygon class="fil22 str0" points="44609.37,-50941.19 49089.87,-50941.19 49089.87,-46460.69 44609.37,-46460.69 "/>
</symbol>
<symbol id="Fm216-216-0" viewBox="53551.8 11784.87 4499.07 4499.07">
 <polygon class="fil23 str0" points="53561.08,11794.16 58041.58,11794.16 58041.58,16274.66 53561.08,16274.66 "/>
</symbol>
<symbol id="Fm119-119-0" viewBox="53551.8 -50950.48 4499.07 4499.07">
 <polygon class="fil22 str0" points="53561.08,-50941.19 58041.58,-50941.19 58041.58,-46460.69 53561.08,-46460.69 "/>
</symbol>
<symbol id="Fm182-182-0" viewBox="44600.08 -59913.33 4499.07 4500">
 <polygon class="fil14 str0" points="44609.37,-59904.05 49089.87,-59904.05 49089.87,-55422.62 44609.37,-55422.62 "/>
</symbol>
<symbol id="Fm92-92-0" viewBox="53551.8 -10621.34 4499.07 4500">
 <polygon class="fil20 str0" points="53561.08,-10612.05 58041.58,-10612.05 58041.58,-6130.62 53561.08,-6130.62 "/>
</symbol>
<symbol id="Fm143-143-0" viewBox="44600.08 -1658.48 4499.07 4499.07">
 <polygon class="fil5 str0" points="44609.37,-1649.2 49089.87,-1649.2 49089.87,2831.3 44609.37,2831.3 "/>
</symbol>
<symbol id="Fm191-191-0" viewBox="44600.08 -73356.69 4499.07 4500">
 <polygon class="fil6 str0" points="44609.37,-73347.4 49089.87,-73347.4 49089.87,-68865.97 44609.37,-68865.97 "/>
</symbol>
<symbol id="Fm213-213-0" viewBox="80446.86 7303.45 4499.07 4500">
 <polygon class="fil24 str0" points="80456.15,7312.73 84936.65,7312.73 84936.65,11794.16 80456.15,11794.16 "/>
</symbol>
<symbol id="Fm173-173-0" viewBox="44600.08 -46469.98 4499.07 4500">
 <polygon class="fil19 str0" points="44609.37,-46460.69 49089.87,-46460.69 49089.87,-41979.26 44609.37,-41979.26 "/>
</symbol>
<symbol id="Fm170-170-0" viewBox="44600.08 -41988.55 4499.07 4500">
 <polygon class="fil21 str0" points="44609.37,-41979.26 49089.87,-41979.26 49089.87,-37497.83 44609.37,-37497.83 "/>
</symbol>
<symbol id="Fm185-185-0" viewBox="44600.08 -64393.83 4499.07 4499.07">
 <polygon class="fil13 str0" points="44609.37,-64384.54 49089.87,-64384.54 49089.87,-59904.05 44609.37,-59904.05 "/>
</symbol>
<symbol id="Fm164-164-0" viewBox="44600.08 -33026.62 4499.07 4500">
 <polygon class="fil15 str0" points="44609.37,-33017.34 49089.87,-33017.34 49089.87,-28535.91 44609.37,-28535.91 "/>
</symbol>
<symbol id="Fm204-204-0" viewBox="53551.8 7303.45 4499.07 4500">
 <polygon class="fil25 str0" points="53561.08,7312.73 58041.58,7312.73 58041.58,11794.16 53561.08,11794.16 "/>
</symbol>
 <g id="Warstwa_x0020_1">
  <metadata id="CorelCorpID_0Corel-Layer"/>
  <rect class="fil26" width="7500" height="4500"/>
  <g id="Bash">
   <path id="Fill-4" class="fil26 str1" d="M4066.89 4031.75l-84.8 50.67c-2.25,1.3 -3.9,2.83 -3.9,5.55l0 22.09c0,2.71 1.77,3.89 4.01,2.6l86.11 -52.33c2.24,-1.3 2.6,-3.78 2.6,-6.49l0 -19.61c0,-2.72 -1.78,-3.78 -4.02,-2.48z"/>
   <path id="Fill-4_0" class="fil26 str1" d="M3886.3 3845.02c2.83,-1.42 5.08,0.35 5.08,3.89l0.35 29.3c12.29,-4.85 22.92,-6.15 32.6,-3.9 2.01,0.47 2.95,3.42 2.13,6.73l-6.5 25.99c-0.47,2 -1.53,4.01 -2.95,5.19 -0.47,0.59 -1.07,0.95 -1.66,1.3 -0.82,0.47 -1.77,0.59 -2.48,0.36 -4.48,-0.95 -15,-3.31 -31.41,5.07 -17.37,8.74 -23.39,23.86 -23.27,34.96 0.12,13.35 6.97,17.37 30.59,17.84 31.42,0.47 45,14.29 45.35,45.94 0.36,31.07 -16.3,64.49 -41.69,84.93l0.59 29.05c0,3.54 -2.24,7.56 -4.96,8.86l-17.24 9.92c-2.72,1.42 -4.96,-0.24 -5.08,-3.78l-0.24 -28.58c-14.76,6.14 -29.64,7.56 -39.21,3.78 -1.77,-0.71 -2.6,-3.31 -1.89,-6.38l6.26 -26.22c0.47,-2.13 1.65,-4.13 3.07,-5.43 0.59,-0.59 1.06,-0.95 1.65,-1.18 0.95,-0.6 1.89,-0.6 2.72,-0.36 10.28,3.43 23.5,1.89 36.02,-4.49 16.07,-8.15 26.81,-24.56 26.7,-40.75 -0.12,-14.76 -8.15,-20.9 -27.64,-21.02 -24.69,0 -47.72,-4.84 -48.07,-41.22 -0.36,-30 15.23,-61.18 39.92,-80.91l-0.35 -29.29c0,-3.66 2.24,-7.56 5.07,-8.97l16.54 -10.63z"/>
   <path id="Fill-4_1" class="fil26 str1" d="M4156.06 3471.55l-340.39 -202.08c-20.32,-12.05 -42.99,-18.07 -65.67,-18.07 -22.68,0 -45.35,6.02 -65.67,18.07l-340.39 202.08c-40.63,24.1 -65.67,68.74 -65.67,116.93l0 404.18c0,48.18 25.04,92.83 65.67,116.92l340.39 202.09c20.32,12.05 42.99,18.07 65.67,18.07 22.68,0 45.35,-6.02 65.67,-18.07l340.39 -202.09c40.63,-24.09 65.67,-68.74 65.67,-116.92l0 -404.18c0,-48.19 -25.04,-92.83 -65.67,-116.93z"/>
   <path id="Fill-4_2" class="fil26 str1" d="M3696.26 4291l-340.51 -202.09c-33.19,-19.84 -53.98,-56.69 -53.98,-96.25l0 -404.18c0,-39.57 20.79,-76.53 53.98,-96.26l340.51 -202.08c16.3,-9.69 34.84,-14.77 53.74,-14.77 18.9,0 37.44,5.08 53.74,14.77l340.51 202.08c27.99,16.66 46.89,45.47 52.32,77.84 -11.33,-24.1 -36.85,-30.59 -66.49,-13.35l-322.09 199.02c-40.16,23.5 -69.68,49.84 -69.8,98.26l0 396.85c0,28.94 11.69,47.72 29.76,53.15 -5.9,1.07 -11.93,1.78 -17.95,1.78 -18.9,0 -37.44,-5.08 -53.74,-14.77"/>
  </g>
  <g id="Kubernetes">
   <path class="fil26 str2" d="M3984.21 978.13c-21.61,34.49 -51.85,64.72 -86.34,86.34l-56.1 -135.24c-2.95,-11.57 2.84,-23.03 12.88,-27.4 4.37,-1.42 8.62,-2.84 12.99,-2.84l143.86 24.45c-7.21,20.2 -15.83,38.86 -27.29,54.69z"/>
   <path class="fil26 str2" d="M3656.1 1096.12l70.51 -128.03c7.21,-8.62 18.67,-11.58 28.82,-5.79 4.26,2.84 7.09,5.79 11.46,10.04l0 0 69.09 125.2c-73.7,12.28 -104.29,21.26 -179.88,-1.42z"/>
   <path class="fil26 str2" d="M3482.01 924.86l142.44 -24.45c11.46,0 23.03,7.21 24.45,18.78 1.41,4.25 1.41,10.04 -1.42,14.29l0 0 -54.68 132.4c-50.44,-33.07 -90.71,-83.38 -110.79,-141.02z"/>
   <path class="fil26 str2" d="M3506.46 681.67l106.41 94.96 0 0c10.16,8.62 11.58,23.03 2.96,33.19 -2.96,4.25 -5.79,5.67 -11.58,7.09l-139.6 40.39c-4.26,-60.47 10.15,-122.36 41.81,-175.63z"/>
   <path class="fil26 str2" d="M3681.97 555.06l28.82 -5.79 -7.21 143.98 0 0c0,12.87 -11.57,23.03 -24.45,23.03 -4.37,0 -7.2,-1.54 -11.57,-2.96l-119.41 -84.92c37.44,-35.9 83.5,-61.89 133.82,-73.34z"/>
   <path class="fil26 str2" d="M3942.52 628.4l-118.11 83.51c-10.04,5.78 -24.45,4.37 -31.65,-5.79 -2.84,-2.83 -4.26,-5.79 -4.26,-10.04l-8.62 -145.39c63.31,7.2 119.41,34.6 162.64,77.71l0 0z"/>
   <path class="fil26 str2" d="M4025.91 857.3l-136.66 -38.86 0 0c-12.99,-2.95 -20.19,-15.82 -17.36,-28.82 1.54,-4.37 2.95,-7.2 5.79,-10.04l107.95 -97.91c30.71,50.32 45.94,116.93 40.28,175.63z"/>
   <polygon class="fil26 str2" points="3785.55,860.14 3746.69,878.8 3707.95,860.14 3697.8,818.44 3725.2,783.84 3768.31,783.84 3795.71,818.44 "/>
   <path class="fil26 str1" d="M4165.51 898.99c-15.82,-1.41 -33.07,-4.37 -48.9,-8.62 -4.37,-1.42 -8.62,-5.79 -10.15,-10.04 2.71,0 -9.69,-2.48 -11.46,-2.95 5.79,-41.69 2.83,-84.92 -5.79,-126.61 -10.04,-41.7 -27.28,-82.09 -50.31,-118l8.62 -8.62c0,-4.84 0.83,-10.86 4.37,-14.41 12.87,-11.57 25.87,-20.2 40.28,-28.82 2.83,-1.41 5.66,-2.83 8.62,-4.25 5.67,-2.95 10.04,-5.79 15.82,-8.62 11.11,-11.22 24.22,-27.88 10.04,-46.06 -4.25,-5.79 -12.99,-10.16 -20.19,-10.16 -14.77,0 -23.74,11.57 -25.87,11.57 -4.25,4.26 -8.62,8.63 -11.46,13 -1.41,2.83 -4.37,4.25 -5.78,5.66 -10.28,11.82 -22.92,23.04 -36.03,31.66 -2.83,1.42 -5.67,2.95 -8.62,2.95 -3.78,0 -4.72,-1.42 -7.2,-1.53l-11.46 7.2c-11.58,-11.46 -24.45,-23.03 -36.02,-34.49 -53.27,-41.69 -119.41,-67.68 -187.09,-74.88l-1.42 -10.04c-4.25,-2.83 -5.79,-7.2 -7.2,-11.46 0,-15.82 0,-31.65 2.95,-49.01 0,-3.78 1.42,-6.85 1.42,-10.04 1.41,-5.79 1.41,-11.46 2.83,-17.25l0 -8.62c1.42,-14.41 -10.04,-28.82 -24.45,-30.23 -8.62,-1.42 -17.24,2.83 -24.45,10.04 -5.78,5.78 -8.62,12.99 -8.62,20.19l0 7.21c0,5.67 1.42,11.45 2.84,17.24 1.65,3.19 1.41,6.62 1.41,10.04 2.96,15.83 2.96,31.65 2.96,48.9 -1.42,4.37 -2.96,8.74 -7.21,11.57l-1.42 14.41c-15.82,1.42 -31.65,4.25 -49.01,7.21 -67.56,14.41 -129.45,50.31 -176.93,100.75l-8.62 -5.79 -1.54 0c-1.41,0 -2.83,1.42 -5.67,1.42 -2.95,0 -5.78,-1.42 -8.62,-2.84 -15.24,-11.81 -28.35,-25.39 -41.81,-38.86 -4.25,-4.37 -7.2,-8.62 -11.46,-12.99 -1.41,-1.42 -3.78,-2.24 -5.78,-4.37 -5.79,-4.25 -13,-7.09 -20.2,-7.09 -8.62,0 -15.83,2.84 -20.08,10.04 -17.95,26.93 7.8,43.47 27.28,53.27 2.96,1.42 5.79,2.84 8.63,4.25l0 0c14.41,8.62 28.81,17.25 40.39,28.82 5.79,5.79 4.72,14.88 4.25,11.46l0 0 8.62 8.62c-1.41,2.95 -2.83,4.37 -4.25,7.21 -44.64,70.51 -63.31,154.01 -50.43,236.1 -1.3,0.23 -12.76,4.25 -12.88,4.25 -1.53,4.37 -5.78,7.2 -10.15,10.04 -11.46,3.19 -53.39,8.03 -57.52,10.16 -21.73,0 -54.22,8.15 -48.9,37.44 6.85,30.71 38.86,18.19 58.94,11.45 12.04,-6.02 44.41,-13.58 57.63,-15.82 4.85,0 9.34,0.71 12.88,4.37 4.13,0 7.2,0.71 14.41,0 21.61,66.14 61.89,125.19 117.99,168.3 12.99,10.04 24.45,18.67 38.86,25.87l-7.21 10.16c0,1.89 6.5,5.08 2.96,15.82 -5.79,14.41 -14.41,28.71 -23.04,41.7 0,2.48 -19.96,28.82 -20.19,28.82 -6.85,13.7 -2.01,31.3 11.57,38.85 2.84,1.42 7.09,2.84 10.04,2.84 11.46,0 21.62,-7.21 27.29,-17.24 0,-0.48 9.21,-17.72 10.15,-21.62l2.84 -8.62c4.25,-15.71 11.45,-30.12 18.66,-44.65 2.95,-4.25 7.2,-7.2 11.57,-8.62 2.13,0 6.03,-10.51 7.21,-12.99 40.27,15.94 81.97,23.03 125.2,23.03 25.86,0 51.73,-2.83 77.71,-10.04 15.83,-2.83 31.66,-8.62 46.07,-12.87l5.66 10.04c2.13,0 0.48,0.82 3.55,2.24 3.66,1.54 7.08,4.13 9.45,7.8 7.2,14.41 14.41,28.82 18.66,44.64 2.12,7.44 4.72,19.96 8.74,25.87 9.33,9.45 11.57,23.03 31.65,23.03 4.25,0 7.09,-1.42 11.46,-2.84 5.79,-2.95 11.57,-8.62 12.99,-15.82 3.31,-16.66 -4.37,-30.24 -15.83,-41.81 -2.48,-4.85 -5.78,-4.96 -5.78,-10.04 -10.04,-12.99 -17.25,-27.29 -23.04,-41.7 -1.41,-4.13 -1.41,-9.44 1.07,-13.7 0.47,-0.94 0.59,-2.12 1.77,-2.12l-4.25 -11.58c73.34,-44.64 129.45,-113.62 155.43,-195.71l11.46 1.42c0.59,0 5.43,-5.67 14.41,-5.67 15.82,2.84 31.65,7.21 46.06,12.88 2.6,0 14.17,4.96 17.36,6.37 8.27,3.55 19.49,8.04 24.33,8.04 12.99,0 24.45,-8.63 28.82,-20.2 -1.42,-15 -11.81,-26.1 -23.97,-29.65 -7.8,-2.24 -10.87,-3.78 -17.49,-4.37 -4.48,-0.47 -16.65,-1.89 -20.43,-1.89z"/>
   <path class="fil26 str1" d="M4269.09 452.89c-7.2,-23.03 -24.44,-41.81 -46.06,-53.27l-438.9 -210.11c-25.39,-12.76 -62.48,-8.86 -87.28,3.07l-423.54 204.21c-21.62,10.04 -37.44,28.7 -43.23,53.15l-107.84 473.5c-4.37,24.45 1.42,48.9 15.83,69.1l303.54 375.59c17.37,17.24 41.82,28.82 66.26,30.23l483.55 0c25.86,2.84 50.31,-8.62 66.14,-30.23l303.66 -375.59c14.41,-20.2 20.2,-44.65 17.24,-69.1l-109.37 -470.55 0 0z"/>
  </g>
  <g id="Linux">
   <line class="fil26 str2" x1="3747.05" y1="2880.06" x2="3747.05" y2= "2880.06" />
   <path class="fil26 str2" d="M3747.05 2880.06c-45.71,0 -83.03,4.96 -111.74,14.88 -17.36,6.02 -16.18,4.72 -28.22,16.77 -19.61,19.61 -41.81,29.65 -71.11,29.65 -21.37,0 -55.04,-8.27 -100.39,-24.93 -45.83,-15.7 -86.34,-27.75 -121.65,-35.66 -3.55,-0.95 -11.34,-2.48 -23.98,-4.49 -12.28,-2.01 -23.62,-4.02 -33.66,-5.91 -9.1,-2.01 -19.61,-4.96 -30.95,-8.97 -10.86,-3.43 -19.6,-7.92 -26.22,-13.47 -6.02,-5.43 -8.97,-11.69 -8.97,-18.54 0,-6.97 1.53,-14.53 4.49,-22.44 2.83,-4.73 5.9,-9.57 8.85,-13.94 3.07,-4.84 5.67,-9.21 7.44,-13.47 2.6,-4.01 4.37,-7.91 6.15,-12.28 1.77,-3.9 3.42,-7.79 4.37,-12.64 0.82,-4.37 1.77,-8.74 1.77,-13.11 0,-4.37 -1.77,-17.48 -5.32,-40.51 -3.42,-22.68 -2.71,-22.68 -2.71,-28.82 0,-19.25 4.37,-34.49 13.93,-45.35 9.69,-10.99 18.78,-16.66 28.35,-16.66l57.05 -2.48c15.47,0.36 26.34,-11.45 28.23,-23.85 1.77,-12.17 3.42,-19.96 11.93,-29.77 -8.51,-10.63 -15.24,-42.52 -11.11,-58.82 3.31,-13.46 10.16,-29.64 20.55,-49.01l15.24 -27.52c12.64,-23.51 22.2,-40.99 29.17,-58.47 7.44,-17.48 15.36,-43.58 23.98,-78.54 6.97,-30.47 23.62,-61.06 49.72,-91.54l32.72 -39.33c22.68,-26.1 37.56,-47.95 45.83,-65.43 8.27,-17.36 12.64,-39.21 12.64,-56.69 0,-8.74 -2.13,-34.84 -6.97,-78.55 -4.37,-43.58 -6.5,-87.16 -6.5,-126.49 0,-68.74 22.56,-154.49 95.55,-178.82 30.83,-10.28 98.74,-19.37 130.87,-8.74 13.11,0 30.47,4.37 52.32,13.11 76.89,38.5 103.11,92.01 113.39,174.45 4.37,21.85 4.37,43.7 8.74,74.17 0,26.22 4.37,43.7 4.37,56.69 4.37,13.12 4.37,30.6 8.74,52.45 4.37,17.36 8.74,34.84 17.48,47.95 8.62,17.48 17.36,34.84 30.47,52.32 13.11,21.85 30.59,43.58 47.95,69.8 39.33,43.59 69.81,91.66 87.29,139.61 21.85,43.58 34.96,100.28 34.96,160.99 0,30.11 -0.71,59.29 -9.45,87.63 8.74,0 9.45,3.55 13.7,9.57 4.37,6.14 8.74,19.25 13.11,39.68l4.37 32.37c4.37,9.56 8.74,18.78 21.85,26.57 8.74,7.92 17.48,14.41 30.47,19.61 8.74,4.37 21.85,10.51 30.59,18.31 8.74,8.74 13.11,17.95 13.11,27.51 0,14.89 -4.37,25.75 -13.11,33.55 -8.74,8.74 -17.48,14.88 -30.59,18.78 -8.62,4.37 -26.1,13.11 -52.32,25.39 -21.73,12.99 -43.58,28.58 -65.43,47.13l-43.59 37.08c-17.48,17.01 -34.96,29.3 -47.95,36.74 -13.11,7.79 -30.59,11.69 -48.07,11.69l-30.47 -3.43c-34.96,-9.21 -56.7,-26.57 -69.81,-53.26 -69.8,-8.39 -126.49,-12.64 -161.45,-12.64"/>
   <path class="fil26 str2" d="M3439.72 2467.38c0,-30.12 6.03,-62.6 22.09,-101.93 49.49,-123.66 34.02,-132.64 -19.13,-6.26 -18.31,39.33 -22.33,76.77 -22.33,103.35 0,19.72 4.85,36.73 13.47,51.49 9.68,14.41 32.72,35.32 69.45,62.01l46.18 30c49.37,42.76 81.14,72.52 81.14,89.88 0,9.22 -4.37,18.31 -17.48,28.35 -8.74,10.51 -20.55,15.71 -30.47,15.71 -0.95,0 -1.42,0.94 -1.42,3.07 0,0.47 4.37,9.21 13.58,26.22 18.31,24.8 51.97,37.09 104.29,37.09 85.99,0 147.52,-32.6 200.2,-95.91 8.74,-10.51 18.66,-26.34 19.84,-41.69 1.07,-12.88 -6.26,-20.67 -6.26,-38.62 0,-28.35 13.11,-59.77 21.74,-73.71 8.74,-13.93 17.48,-20.43 30.59,-20.43 8.74,0 17.48,2.95 26.22,9.57 4.37,-33.66 4.37,-51.62 4.37,-77.72 0,-60.35 -3.07,-113.38 -30.59,-168.42 -21.26,-31.89 -43.23,-60.83 -52.33,-96.14 -8.5,-32.96 -3.66,-31.07 -20.55,-64.97 -15.59,-30.94 -28.7,-62.36 -43.93,-92.83 -102.41,66.14 -146.46,108.31 -236.58,27.05 0,13.11 -4.37,30.59 -12.99,48.07 -16.06,30.59 -44.29,80.19 -47.6,113.38 -1.77,8.74 -3.07,17.48 -3.9,17.48l-32.71 65.44c-35.32,65.43 -52.68,122.6 -52.68,172.79 0,10.04 0.94,20.44 2.72,30.95 -19.73,-13.59 -24.93,-28.82 -24.93,-53.27z"/>
   <path class="fil26 str2" d="M3615 2903.8c2.83,-5.55 -6.14,-59.65 -8.74,-68.63 -10.75,-37.32 -36.38,-83.03 -73.35,-130.03l-29.64 -39.69c-6.14,-8.27 -13.58,-20.91 -23.15,-37.91 -9.21,-17.01 -17.48,-30.12 -23.98,-39.33 -5.67,-10.04 -14.88,-20.08 -26.57,-30 -21.62,-19.14 -56.34,-28.82 -75.95,-2.25"/>
   <path class="fil26 str2" d="M4192.8 2568.84c-8.04,0 -26.23,15.59 -40.4,28.93 -22.32,21.14 -43.23,51.74 -77.71,51.74 -34.85,0 -52.33,-9.57 -65.44,-28.35 -13.11,-21.02 -12.64,-59.76 -39.21,-59.76 -21.85,0 -30.59,22.67 -30.59,68.5l0 14.41c0,66.49 -8.74,134.17 -8.74,193.58 0,59.53 -21.02,58.94 -21.02,58.94"/>
   <path class="fil26 str3" d="M3821.69 2006.04c-56.69,39.33 -100.51,57.87 -135.35,57.87 -30.59,0 -60.95,-14.17 -87.17,-36.02 17.6,35.08 61.18,74.17 102.52,74.17 42.4,0 98.62,-40.51 134.41,-65.78 15.24,-10.75 29.18,-23.74 29.18,-38.98 0,-7.2 -4.61,-10.63 -9.93,-15.12 -9.56,-8.15 -30.35,-18.3 -64.25,-28.46 -39.21,-17.48 -69.8,-26.22 -87.16,-26.22 -13.11,0 -34.96,8.74 -65.44,26.22 -26.22,17.48 -49.72,40.51 -49.72,57.99 11.57,12.87 21.38,25.98 33.66,33.78 53.62,33.9 118.58,20.67 193.7,-35.55"/>
   <path class="fil26 str4" d="M3768.54 1943.8c-7.44,-7.44 -10.74,-81.74 31.3,-81.74 25.99,0 37.09,29.41 37.09,51.74 0,21.85 -9.8,38.03 -27.28,42.4 18.18,4.49 15,1.18 33.89,10.63 4.26,-26.22 11.81,-43.7 11.81,-65.43 0,-26.23 -7.55,-43.71 -16.18,-56.7 -13.11,-13.11 -26.22,-17.48 -43.7,-17.48 -28.82,0 -52.32,17.84 -52.32,47.95 0,21.86 5.67,43.71 14.29,61.07"/>
   <path class="fil26 str2" d="M4174.96 2563.17c0,-9.69 -1.18,-21.03 -14.29,-33.66 -27.99,-28 -54.8,-27.29 -91.54,-30.83 38.15,-118.35 -18.89,-222.28 -53.74,-247.44 -17.36,-12.52 -34.96,-6.73 -5.67,19.72 57.05,51.5 46.66,166.42 34.37,233.74 -17.36,6.97 -36.96,17.6 -49.96,42.88 0,21.26 126.62,-85.99 180.83,16.65"/>
   <path class="fil26 str3" d="M3625.98 1959.39c-17.48,-8.74 -22.44,-27.52 -22.44,-49.25 0,-19.14 7.56,-43.71 30.59,-43.71 22.92,0 30.48,34.49 30.48,52.45l0 18.54 8.74 -4.73c0,-6.37 0,-20.31 0,-35.66 0,-27.52 -10.75,-61.07 -43.59,-61.07 -45.35,1.3 -54.92,87.4 -19.84,124.14 0.83,0.82 8.62,6.02 9.45,6.85"/>
   <path class="fil27 str5" d="M3681.14 1962.46l0.95 0c8.74,-8.74 13.11,-13.11 13.11,-17.48 0,0 0,-4.37 -4.37,-4.37 0,0 -4.37,4.37 -13.11,4.37 -4.37,4.37 -4.37,8.74 -4.37,13.11 0,3.54 0,4.13 2.24,4.37 2.24,0.12 5.55,0 5.55,0z"/>
   <path class="fil27 str6" d="M3804.8 1889.11c6.03,2.48 9.57,10.28 13.11,21.03l8.74 0c-4.37,-4.37 -4.37,-8.74 -4.37,-13.11 0,-4.37 0,-8.74 -4.37,-13.12 -4.37,-4.37 -8.74,-8.74 -13.11,-8.74 0,0 -4.37,4.37 -8.74,4.37 0,3.67 2.96,4.26 4.02,6.74 0.12,0.23 0.12,0.47 0.23,0.71 0,0 4.02,1.89 4.49,2.12z"/>
   <path class="fil27 str6" d="M3651.5 1907.18c-0.71,-20.08 -9.33,-32.01 -21.74,-32.01 0,0 0,4.37 -4.37,4.37l0 8.75 13.11 0c0,8.74 4.37,13.11 4.37,21.85l5.79 0 2.13 -0.83 0.71 -2.13z"/>
   <path class="fil27 str5" d="M3728.86 1949.47c-1.66,-2.96 -4.61,-5.91 -7.56,-8.86l-8.62 -4.37c-4.37,0 -4.37,0 -4.37,4.37 0,4.37 4.37,8.74 4.37,8.74 4.25,4.37 4.25,8.74 8.62,8.74l4.37 0c0,0 3.42,0 4.25,-2.95 0.59,-2.48 0,-3.67 -1.06,-5.67z"/>
  </g>
  <g id="Selenium">
   <path class="fil28" d="M7060.46 4323.09l-696.42 -0.48c-44.32,-0.66 -92.09,-26.38 -128.57,-62.69 -36.47,-36.31 -61.89,-83.44 -61.97,-127.14 -3.56,-231.88 -8.6,-468.2 -7.43,-699.86 0.05,-43.47 23.61,-86.17 57.97,-118.43 35.53,-33.46 82.92,-56.04 127.69,-56.81 226.47,-2.4 461.31,2.17 688,6.14 23.39,-0.18 47.69,5.05 70.64,14.69 23.67,9.86 46.1,24.35 64.8,41.78 3,2.87 3.19,7.59 0.4,10.62 -0.35,0.25 -0.7,0.5 -0.93,0.74l-42.32 37.67c-2.91,2.68 -7.4,2.57 -10.16,-0.19l0 0c-14.64,-14.47 -32.55,-26.73 -54.3,-35.34 -19.74,-7.72 -42.49,-12.4 -68.97,-12.85 -62.28,-1.22 -171.7,-1.72 -280.77,-1.87 -149.11,-0.11 -298.33,0.49 -325.73,1.26l0 0 -1.18 0.03 0 0c-36.73,1.02 -81.03,9.34 -115.6,35.93 -34.45,26.59 -59.63,71.58 -58.84,146.45l0.02 1.41 0 0 4.68 304.73c1.04,68.21 29.26,137.6 81.02,183.07 22.4,19.69 50.26,33.44 84.29,33.44 17.13,0 40.53,0.06 68.06,0.24 15.19,4.18 27.53,7.97 38.84,13.33 1.31,0.67 2.5,1.34 3.7,2.02 -46.56,-0.36 -85.56,-0.69 -110.73,-0.7 -10.75,0.06 -20.81,-1.19 -30.41,-3.29l-0.25 -0.94 -1.65 0.4c-23.84,-5.83 -44.35,-17.9 -61.84,-33.24 -54.84,-48.07 -84.92,-121.65 -86.03,-193.92l-4.68 -304.72 0 0 -0.02 -1.42c-0.88,-80.53 26.85,-129.49 64.8,-158.66 37.72,-29.04 85.2,-38.04 124.41,-39.13l0 0 1.18 -0.03 0 0c26.57,-0.74 175.91,-1.35 326.09,-1.15 109.53,0.02 219.19,0.64 281.12,1.75 28.25,0.63 52.78,5.62 74.06,14 21.28,8.39 39.3,20.05 54.28,33.69l31.12 -27.79c-16.16,-13.84 -34.77,-25.38 -54.27,-33.46 -21.29,-8.85 -43.58,-13.78 -64.84,-13.55l-688 -6.14c-40.99,0.78 -84.5,21.6 -117.47,52.63 -31.56,29.7 -53.18,68.45 -53.17,107.31l7.42 699.86c0.02,39.69 23.72,82.97 57.56,116.75 34.08,33.9 78.04,57.84 118.35,58.49l696.3 0.48 0.47 -0.01c47.24,-1.32 87.83,-20.16 116.57,-49.31 29.79,-30.12 47,-71.23 46.32,-115.5l-1.89 -639.64 -18.78 16.47 -2.79 333.73c0.75,48.88 -18.26,88.74 -44.14,119.11 -37.72,44.27 -90.64,68.19 -117.79,70.24 -3.66,0.22 -10.62,0.41 -20.19,0.68l-0.03 -1.53c0,-0.12 0.4,-5.09 0.27,-13.48 8.98,-0.13 15.48,-0.31 19.01,-0.64 24.43,-1.86 72.54,-23.87 107.48,-64.88 23.67,-27.83 41.07,-64.34 40.39,-109.08l2.74 -337.28c-0.04,-2.48 1.23,-4.87 3.1,-6.23l33.11 -28.79c3.15,-2.81 7.88,-2.47 10.53,0.65 1.2,1.38 1.81,3.02 1.84,4.67l0 0 2.14 655.58c0.74,48.41 -18.18,93.34 -50.76,126.38 -31.42,31.82 -75.53,52.41 -126.9,53.84 -0.36,0.01 -0.59,0.02 -0.95,-0.09zm-410.99 -295.79l8.39 0.12c-0.06,3.55 0.1,6.38 0.12,8.15l0.02 1.18 0 0c0.03,1.77 0.06,3.66 0.21,5.55l-6.74 -0.05c-0.31,-5.07 -1.1,-10.01 -2,-14.95z"/>
   <path class="fil28 str6" d="M6231.97 4053.95l113.74 -27.52 2.48 7.33c2.36,7.08 8.86,20.19 16.77,32.48 5.91,9.33 12.52,17.95 18.54,23.15 6.38,5.31 18.9,9.68 33.43,12.64 16.42,3.18 34.84,4.48 49.25,3.18 10.63,-1.06 18.9,-5.78 24.92,-12.04 7.8,-8.15 11.81,-18.66 12.52,-27.52 0.47,-7.33 -0.94,-13.47 -4.13,-18.66 -3.43,-5.56 -8.86,-10.04 -16.18,-13.82 -14.29,-7.21 -30.48,-12.05 -51.97,-18.31l-10.28 -3.07 0 0c-3.3,-0.95 -7.44,-2.13 -11.93,-3.31 -28.58,-7.91 -70.04,-19.25 -104.17,-42.4l-0.12 0c-16.41,-11.22 -27.87,-27.99 -35.67,-45.47 -11.69,-26.1 -15.35,-54.33 -15.59,-67.8 -0.12,-12.04 1.42,-27.4 5.08,-42.52 3.19,-12.75 7.91,-25.51 14.53,-36.49 8.62,-14.65 29.05,-39.45 64.01,-56.81 23.04,-11.46 52.45,-19.73 89.06,-19.73 45.12,0 77.36,7.32 100.98,16.65 23.86,9.57 38.63,21.03 49.14,29.53 21.49,17.25 54.45,76.66 54.56,76.89l4.85 8.74 -118.7 42.64 -2.84 -8.15c-7.91,-23.27 -19.13,-38.74 -33.19,-48.31 -13.93,-9.56 -31.3,-13.34 -51.49,-13.34 -16.07,0 -26.58,3.89 -33.43,9.56 -9.33,7.56 -12.05,18.43 -12.05,26.22 0,6.38 1.89,13.59 7.8,20.08 6.61,7.21 18.07,14.06 37.09,19.02l7.32 1.89c42.4,10.98 106.06,27.64 138.19,48.19 18.54,11.93 36.26,30.59 48.78,53.62 10.98,20.31 18.07,43.94 18.07,69.21 0,26.81 -5.32,47.6 -12.88,64.25 -7.55,16.66 -17.36,29.06 -26.45,38.98l0 0.12c-8.98,9.68 -24.21,25.86 -49.02,39.68 -24.68,13.82 -58.58,25.16 -104.53,25.16l0 -0.12c-46.41,-0.11 -93.07,-10.98 -134.29,-37.67 -35.67,-23.15 -66.97,-58 -90.11,-107.72l0 0c-0.71,-1.54 -1.19,-2.36 -1.42,-2.95 -1.77,-3.19 -2.72,-4.85 -1.42,-8.63 1.65,-5.19 3.9,-5.55 8.39,-6.37 0.59,-0.12 1.3,-0.24 2.36,-0.48zm102.99 -7.55l-93.66 22.67c21.5,44.65 49.96,75.95 82.09,96.73 38.15,24.81 81.73,34.97 125.07,35.08l0 0c42.64,0 73.82,-10.39 96.26,-22.91 22.45,-12.52 36.62,-27.4 44.77,-36.38l0.12 0c8.03,-8.97 16.77,-19.96 23.38,-34.6 6.73,-14.65 11.34,-33.19 11.34,-57.29 0,-22.32 -6.14,-43.23 -15.94,-61.18 -11.11,-20.31 -26.7,-36.85 -43.11,-47.36 -29.89,-19.13 -91.89,-35.32 -133.23,-46.06l-7.33 -2.01c-22.55,-5.91 -36.73,-14.41 -45.35,-23.98 -9.33,-10.27 -12.28,-21.38 -12.28,-31.42 0,-11.57 4.25,-27.75 18.3,-39.21 9.57,-8.03 23.74,-13.58 44.18,-13.58 23.38,0 43.82,4.72 61.06,16.42 15.35,10.39 27.64,26.1 36.73,48.78l83.74 -30.24c-9.56,-16.42 -30.94,-51.73 -45.35,-63.19 -9.57,-7.79 -23.27,-18.42 -44.77,-27.05 -21.85,-8.62 -51.96,-15.35 -94.72,-15.35 -33.66,0 -60.59,7.44 -81.5,17.83 -31.3,15.59 -49.37,37.44 -57.04,50.32l0 0c-5.67,9.45 -9.81,20.67 -12.52,32.01 -3.43,13.7 -4.85,27.4 -4.61,38.26 0.12,12.05 3.43,37.33 14.06,61.07 6.61,14.88 16.29,29.05 29.76,38.27 32.01,21.61 71.81,32.59 99.09,40.03 4.26,1.19 8.27,2.25 12.29,3.43l0.12 0 10.15 3.07c22.33,6.61 39.22,11.58 54.81,19.49 10.15,5.2 17.95,11.81 23.03,20.08 5.08,8.15 7.32,17.71 6.61,28.7l0 0.12c-0.94,12.16 -6.49,26.81 -17.12,37.91 -8.63,8.98 -20.44,15.71 -35.79,17.13 -16.06,1.53 -36.14,0.23 -53.98,-3.43 -17.01,-3.31 -32.36,-8.98 -41.1,-16.3 -7.44,-6.26 -15.12,-16.3 -21.85,-26.93 -6.5,-10.04 -12.17,-20.79 -15.71,-28.93zm656.34 -4.26c0.59,-36.61 -6.26,-188.97 -167.84,-188.97 -160.86,0 -159.21,161.57 -158.97,180.94l0 1.42 0 0c0,30 10.63,88.35 50.31,129.45 25.51,26.45 63.19,45.82 118.35,45.82 116.57,0 148.46,-80.66 155.91,-107.71l-84.22 -9.8c-6.38,19.13 -20.67,57.4 -67.44,57.4 -19.96,0 -34.96,-6.26 -46.06,-14.77 -17.84,-13.7 -25.28,-33.19 -27.76,-41.69 -4.01,-13.7 -3.07,-43.82 -3.07,-43.82l0.24 -8.27 230.55 0zm-167.84 -205.98c201.74,0 184.49,214.37 184.37,215.08l-0.47 7.91 -229.96 -0.12c0,9.1 0.36,23.27 2.48,30.48 1.89,6.73 7.8,22.2 21.73,32.95 8.51,6.49 20.08,11.22 35.79,11.22 36.14,0 47.13,-32.72 52.09,-47.6 0.71,-2.13 1.3,-4.02 1.65,-5.08l2.36 -6.14 115.75 13.58 -1.42 8.74c-0.11,0.36 -20.43,130.63 -174.68,130.63 -60.47,0 -102.17,-21.61 -130.51,-51.02 -43.47,-45.12 -55.04,-108.66 -55.04,-141.26l0 0 0 -1.18c-0.24,-21.26 -2.13,-198.19 175.86,-198.19zm-63.77 154.96c0,-0.24 -3.08,-86.69 73.22,-86.69 76.42,0 71.34,86.69 71.34,86.93l-0.35 8.15 -143.98 0 -0.23 -8.39zm73.22 -69.69c-46.18,0 -54.56,42.64 -55.98,61.07l110.31 0c-0.94,-18.31 -8.26,-61.07 -54.33,-61.07z"/>
   <path class="fil28 str6" d="M6663.19 3543.13l192.64 242.48 464.29 -386.58 -57.88 -116.22 -393.42 335.08 -139.84 -158.03 -65.79 83.27zm184.72 259.84l-206.22 -259.84 86.58 -109.61 142.2 160.75 397.33 -338.39 73.46 147.52c-162.64,135.48 -325.28,270.95 -488.03,406.3l-5.32 -6.73z"/>
  </g>
  <g id="_2302008191824">
   <path id="path1948" class="fil26 str2" d="M744.8 1850.49c-35.9,0.24 -70.15,3.31 -100.27,8.62 -88.94,15.71 -105,48.55 -105,109.14l0 79.96 209.88 0 0 26.69 -209.88 0 -78.78 0c-61.06,0 -114.45,36.73 -131.22,106.42 -19.25,80.08 -20.08,129.92 0,213.42 15,62.13 50.55,106.42 111.61,106.42l72.17 0 0 -95.91c0,-69.33 60,-130.39 131.22,-130.39l209.64 0c58.47,0 105,-48.07 105,-106.65l0 -199.96c0,-56.93 -47.95,-99.69 -105,-109.14 -36.02,-6.02 -73.46,-8.74 -109.37,-8.62zm-113.5 64.37c21.61,0 39.33,18.07 39.33,40.16 0,22.08 -17.72,39.92 -39.33,39.92 -21.73,0 -39.45,-17.84 -39.45,-39.92 0,-22.09 17.72,-40.16 39.45,-40.16z"/>
   <path id="path1950" class="fil26 str2" d="M985.39 2074.9l0 93.31c0,72.28 -61.3,133.11 -131.22,133.11l-209.64 0c-57.52,0 -105,49.13 -105,106.65l0 199.96c0,56.81 49.49,90.36 105,106.65 66.38,19.49 130.16,23.04 209.64,0 52.92,-15.35 105,-46.06 105,-106.65l0 -80.08 -209.76 0 0 -26.69 209.76 0 105 0c61.07,0 83.74,-42.52 105,-106.42 21.85,-65.79 20.91,-128.97 0,-213.42 -15.11,-60.71 -43.93,-106.42 -105,-106.42l-78.78 0zm-117.99 506.34c21.73,0 39.45,17.83 39.45,39.8 0,22.21 -17.72,40.16 -39.45,40.16 -21.73,0 -39.33,-17.95 -39.33,-40.16 0,-21.97 17.6,-39.8 39.33,-39.8z"/>
  </g>
  <g id="_2492160823776">
   <path id="path20" class="fil28" d="M2310.83 183.6l545.78 545.79 -10.27 10.27 -545.79 -545.78 0 0 10.28 -10.28zm-113.86 10.28l-10.28 -10.28 0 0 3.19 -3.07 3.43 -2.95 3.54 -2.72 3.54 -2.48 3.78 -2.36 3.78 -2.01 3.78 -2.01 4.02 -1.65 4.01 -1.54 4.02 -1.3 4.02 -1.06 4.13 -0.94 4.25 -0.71 4.13 -0.48 4.26 -0.35 4.13 0 4.25 0 4.25 0.35 4.14 0.48 4.13 0.71 4.14 0.94 4.13 1.06 4.02 1.3 4.01 1.54 3.9 1.65 3.9 2.01 3.78 2.01 3.66 2.36 3.66 2.48 3.42 2.72 3.43 2.95 3.31 3.07 -10.28 10.28 -2.83 -2.6 -2.84 -2.37 -2.83 -2.24 -3.07 -2.13 -3.07 -1.88 -3.08 -1.78 -3.3 -1.65 -3.19 -1.42 -3.43 -1.18 -3.3 -1.18 -3.43 -0.83 -3.42 -0.82 -3.55 -0.59 -3.42 -0.36 -3.55 -0.23 -3.54 -0.12 -3.42 0.12 -3.55 0.23 -3.54 0.36 -3.43 0.59 -3.42 0.82 -3.43 0.83 -3.42 1.18 -3.31 1.18 -3.31 1.42 -3.18 1.65 -3.19 1.78 -3.07 1.88 -2.96 2.13 -2.95 2.24 -2.83 2.37 -2.72 2.6 0 0zm-123.66 103.11l113.38 -113.39 10.28 10.28 -113.39 113.38 -10.27 0 0 -10.27zm0 10.27l-5.08 -5.2 5.08 -5.07 0 10.27zm143.74 143.74l-143.74 -143.74 10.27 -10.27 143.86 143.74 -2.83 12.04 -7.56 -1.77zm7.56 1.77l-4.26 1.42 -3.3 -3.19 7.56 1.77zm101.1 10.87l-10.28 10.27 0 0 -2.36 -2.24 -2.36 -2.13 -2.48 -2.12 -2.48 -1.89 -2.6 -1.89 -2.6 -1.65 -2.6 -1.66 -2.71 -1.53 -2.72 -1.42 -2.83 -1.3 -2.84 -1.3 -2.83 -1.06 -2.84 -1.06 -2.95 -0.95 -2.84 -0.83 -2.95 -0.71 -3.07 -0.59 -2.95 -0.47 -2.96 -0.35 -3.07 -0.36 -2.95 -0.23 -3.07 0 -2.95 0 -3.07 0 -2.96 0.23 -3.07 0.36 -2.95 0.35 -3.07 0.59 -2.95 0.59 -2.96 0.71 -2.95 0.83 -2.83 0.94 -4.73 -13.82 3.43 -1.06 3.42 -0.94 3.43 -0.83 3.42 -0.71 3.55 -0.59 3.42 -0.47 3.54 -0.47 3.55 -0.24 3.42 -0.12 3.55 0 3.54 0.12 3.54 0.24 3.43 0.35 3.54 0.47 3.43 0.59 3.42 0.71 3.55 0.83 3.3 0.94 3.43 1.07 3.3 1.18 3.43 1.3 3.19 1.41 3.31 1.54 3.18 1.77 3.19 1.77 3.07 1.89 3.08 2.01 2.95 2.13 2.95 2.24 2.84 2.48 2.71 2.48 2.72 2.6 0 0zm22.79 98.98l-10.39 10.27 -1.65 -7.56 0.94 -2.83 0.83 -2.96 0.71 -2.95 0.71 -3.07 0.47 -2.95 0.47 -3.07 0.35 -2.96 0.24 -3.07 0.12 -3.07 0 -2.95 -0.12 -3.07 -0.12 -3.07 -0.35 -2.95 -0.36 -3.07 -0.47 -2.96 -0.71 -3.07 -0.71 -2.95 -0.7 -2.95 -0.95 -2.84 -1.06 -2.95 -1.06 -2.84 -1.3 -2.83 -1.3 -2.84 -1.42 -2.71 -1.54 -2.72 -1.65 -2.72 -1.77 -2.59 -1.77 -2.6 -2.01 -2.48 -2.01 -2.48 -2.24 -2.48 -2.25 -2.37 10.28 -10.27 2.72 2.72 2.48 2.83 2.36 2.84 2.36 2.95 2.13 3.07 2 3.07 1.89 3.07 1.78 3.19 1.77 3.19 1.53 3.31 1.42 3.3 1.3 3.31 1.18 3.42 1.06 3.43 0.95 3.43 0.82 3.42 0.71 3.43 0.59 3.54 0.48 3.54 0.23 3.55 0.24 3.42 0.12 3.54 0 3.55 -0.12 3.54 -0.24 3.54 -0.47 3.55 -0.47 3.54 -0.59 3.43 -0.83 3.54 -0.83 3.42 -0.94 3.43 -1.18 3.42 -1.66 -7.55zm-10.39 10.27l-3.19 -3.19 1.54 -4.37 1.65 7.56zm138.66 138.54l-138.66 -138.54 10.39 -10.27 138.55 138.54 -2.84 12.05 -7.44 -1.78zm7.44 1.78l-4.25 1.41 -3.19 -3.19 7.44 1.78zm101.81 10.63l-10.27 10.39 -0.12 0 -2.24 -2.36 -2.48 -2.13 -2.48 -2.01 -2.49 -2 -2.59 -1.89 -2.6 -1.66 -2.72 -1.65 -2.72 -1.54 -2.71 -1.53 -2.84 -1.3 -2.83 -1.18 -2.84 -1.18 -2.95 -0.95 -2.83 -0.94 -2.96 -0.83 -3.07 -0.71 -2.95 -0.59 -2.95 -0.47 -3.07 -0.36 -3.07 -0.35 -2.96 -0.12 -3.07 -0.12 -3.07 0 -2.95 0.12 -3.07 0.24 -3.07 0.35 -2.96 0.36 -3.07 0.59 -2.95 0.59 -2.95 0.82 -2.95 0.83 -2.96 0.95 -4.72 -13.82 3.42 -1.07 3.43 -0.94 3.42 -0.95 3.43 -0.7 3.54 -0.59 3.55 -0.6 3.54 -0.35 3.42 -0.24 3.55 -0.11 3.54 -0.12 3.54 0.12 3.55 0.23 3.54 0.36 3.54 0.47 3.43 0.59 3.54 0.71 3.43 0.83 3.42 0.94 3.43 1.06 3.42 1.18 3.31 1.3 3.31 1.42 3.3 1.54 3.19 1.65 3.19 1.77 3.07 2.01 3.07 2.01 3.08 2.12 2.83 2.25 2.95 2.48 2.84 2.48 2.71 2.6 0 0zm-10.27 10.39l-0.12 0 -0.47 -0.59 0.59 0.59zm10.27 135.35l-10.27 -10.27 0 0 3.07 -3.31 2.95 -3.42 2.72 -3.55 2.6 -3.54 2.24 -3.78 2.13 -3.78 2 -3.9 1.66 -4.01 1.53 -4.02 1.3 -4.01 1.18 -4.14 0.83 -4.25 0.71 -4.13 0.59 -4.26 0.24 -4.25 0.11 -4.25 -0.11 -4.25 -0.24 -4.14 -0.59 -4.25 -0.71 -4.25 -0.83 -4.13 -1.18 -4.14 -1.3 -4.13 -1.53 -4.02 -1.66 -3.89 -2 -3.9 -2.13 -3.78 -2.24 -3.78 -2.6 -3.66 -2.72 -3.43 -2.95 -3.42 -3.07 -3.31 10.27 -10.39 3.67 3.89 3.42 4.02 3.19 4.02 2.95 4.25 2.6 4.37 2.48 4.49 2.24 4.48 2.01 4.61 1.77 4.72 1.54 4.73 1.3 4.84 1.06 4.84 0.83 4.85 0.59 4.96 0.35 4.96 0.12 4.84 -0.12 4.96 -0.35 4.96 -0.59 4.96 -0.83 4.84 -1.06 4.85 -1.3 4.84 -1.54 4.72 -1.77 4.73 -2.01 4.6 -2.24 4.49 -2.48 4.49 -2.6 4.37 -2.95 4.14 -3.19 4.13 -3.42 4.01 -3.67 3.78 0 0zm-145.86 0l10.39 -10.27 0 0 3.31 3.19 3.42 2.95 3.43 2.72 3.66 2.48 3.78 2.36 3.78 2.13 3.9 1.89 4.01 1.77 4.02 1.53 4.01 1.3 4.14 1.06 4.13 0.95 4.25 0.71 4.26 0.47 4.25 0.35 4.25 0.12 4.25 -0.12 4.14 -0.35 4.25 -0.47 4.25 -0.71 4.13 -0.95 4.14 -1.06 4.13 -1.3 4.02 -1.53 3.89 -1.77 3.9 -1.89 3.78 -2.13 3.78 -2.36 3.66 -2.48 3.43 -2.72 3.42 -2.95 3.43 -3.19 10.27 10.27 -3.89 3.67 -4.02 3.42 -4.02 3.19 -4.25 2.95 -4.37 2.72 -4.49 2.48 -4.48 2.24 -4.61 2.01 -4.72 1.77 -4.73 1.54 -4.84 1.3 -4.84 1.06 -4.85 0.83 -4.96 0.59 -4.96 0.35 -4.84 0.12 -4.96 -0.12 -4.96 -0.35 -4.96 -0.59 -4.84 -0.83 -4.85 -1.06 -4.84 -1.3 -4.72 -1.54 -4.73 -1.77 -4.6 -2.01 -4.49 -2.24 -4.49 -2.48 -4.37 -2.72 -4.25 -2.95 -4.02 -3.19 -4.01 -3.42 -3.9 -3.67 0 0zm-20.79 -104.17l10.28 -10.27 1.53 7.91 -1.06 3.07 -1.06 3.07 -1.07 3.07 -0.82 3.07 -0.71 3.19 -0.59 3.07 -0.48 3.19 -0.35 3.19 -0.24 3.19 -0.11 3.19 -0.12 3.19 0.12 3.19 0.23 3.18 0.24 3.19 0.47 3.19 0.59 3.19 0.59 3.19 0.83 3.07 0.82 3.07 1.07 3.07 1.06 3.07 1.3 2.96 1.3 2.95 1.53 2.95 1.54 2.84 1.65 2.83 1.78 2.84 2 2.71 2.01 2.72 2.13 2.6 2.24 2.48 2.48 2.48 -10.39 10.27 -2.72 -2.83 -2.6 -2.95 -2.6 -3.07 -2.36 -3.07 -2.24 -3.19 -2.01 -3.19 -2.01 -3.31 -1.89 -3.43 -1.65 -3.42 -1.54 -3.43 -1.53 -3.42 -1.3 -3.54 -1.18 -3.67 -0.95 -3.54 -0.94 -3.66 -0.71 -3.66 -0.71 -3.66 -0.47 -3.66 -0.36 -3.78 -0.23 -3.67 -0.12 -3.77 0 -3.67 0.24 -3.78 0.23 -3.66 0.47 -3.66 0.59 -3.78 0.71 -3.66 0.83 -3.66 0.95 -3.54 1.06 -3.67 1.3 -3.54 1.3 -3.54 1.65 7.91zm10.28 -10.27l3.42 3.42 -1.89 4.49 -1.53 -7.91zm-129.22 -129.22l129.22 129.22 -10.28 10.27 -129.21 -129.21 -2.13 -5.08 12.4 -5.2zm-12.4 5.2l0 -17.6 12.4 12.4 -12.4 5.2zm0 340.04l0 -340.04 14.53 0 0 340.04 -10.51 6.5 -4.02 -6.5zm4.02 6.5l-4.02 -2.01 0 -4.49 4.02 6.5zm33.66 6.49l-10.28 10.28 0 0 -0.59 -0.71 -0.71 -0.59 -0.7 -0.71 -0.6 -0.59 -0.7 -0.59 -0.71 -0.59 -0.71 -0.59 -0.71 -0.59 -0.71 -0.59 -0.71 -0.59 -0.71 -0.6 -0.7 -0.59 -0.71 -0.47 -0.71 -0.59 -0.71 -0.59 -0.71 -0.47 -0.83 -0.47 -0.7 -0.6 -0.71 -0.47 -0.83 -0.47 -0.71 -0.47 -0.71 -0.47 -0.82 -0.48 -0.71 -0.47 -0.83 -0.47 -0.71 -0.47 -0.83 -0.48 -0.7 -0.35 -0.83 -0.47 -0.83 -0.36 -0.71 -0.47 -0.82 -0.35 6.49 -13.12 0.83 0.48 0.94 0.47 0.95 0.47 0.94 0.59 0.83 0.48 0.95 0.47 0.82 0.47 0.95 0.59 0.82 0.47 0.95 0.59 0.83 0.59 0.94 0.59 0.83 0.48 0.94 0.59 0.83 0.59 0.83 0.59 0.82 0.71 0.95 0.59 0.82 0.59 0.83 0.71 0.83 0.59 0.83 0.71 0.82 0.71 0.83 0.59 0.83 0.7 0.7 0.71 0.83 0.71 0.83 0.71 0.82 0.71 0.71 0.83 0.83 0.7 0.71 0.71 0 0.12zm0 -0.12l0 0 0 0.12 0 -0.12zm0 145.87l-10.28 -10.28 0 0 3.19 -3.3 2.95 -3.43 2.72 -3.54 2.48 -3.66 2.36 -3.78 2.13 -3.78 1.89 -3.9 1.77 -3.9 1.54 -4.13 1.3 -4.02 1.06 -4.13 0.94 -4.14 0.71 -4.25 0.47 -4.25 0.36 -4.25 0.12 -4.25 -0.12 -4.14 -0.36 -4.25 -0.47 -4.25 -0.71 -4.25 -0.94 -4.14 -1.06 -4.13 -1.3 -4.02 -1.54 -4.01 -1.77 -4.02 -1.89 -3.9 -2.13 -3.77 -2.36 -3.78 -2.48 -3.55 -2.72 -3.54 -2.95 -3.43 -3.19 -3.3 10.28 -10.28 3.66 3.78 3.43 4.02 3.18 4.13 2.96 4.13 2.71 4.37 2.48 4.49 2.25 4.49 2.01 4.61 1.77 4.72 1.53 4.73 1.3 4.84 1.07 4.84 0.82 4.84 0.59 4.96 0.36 4.96 0.11 4.85 -0.11 4.96 -0.36 4.96 -0.59 4.96 -0.82 4.84 -1.07 4.84 -1.3 4.85 -1.53 4.72 -1.77 4.73 -2.01 4.6 -2.25 4.49 -2.48 4.49 -2.71 4.37 -2.96 4.25 -3.18 4.02 -3.43 4.01 -3.66 3.9 0 0zm-145.75 0l10.39 -10.28 0 0 3.31 3.07 3.43 2.96 3.42 2.71 3.66 2.6 3.78 2.25 3.78 2.12 3.9 2.01 3.9 1.65 4.01 1.54 4.14 1.3 4.13 1.18 4.13 0.83 4.26 0.7 4.13 0.6 4.25 0.23 4.25 0.12 4.26 -0.12 4.25 -0.23 4.25 -0.6 4.13 -0.7 4.26 -0.83 4.13 -1.18 4.02 -1.3 4.01 -1.54 4.02 -1.65 3.9 -2.01 3.77 -2.12 3.78 -2.25 3.55 -2.6 3.54 -2.71 3.43 -2.96 3.3 -3.07 10.28 10.28 -3.78 3.66 -4.02 3.43 -4.13 3.18 -4.25 2.96 -4.25 2.71 -4.49 2.48 -4.49 2.25 -4.61 1.89 -4.72 1.77 -4.73 1.54 -4.84 1.29 -4.84 1.07 -4.96 0.82 -4.84 0.59 -4.96 0.36 -4.97 0.12 -4.96 -0.12 -4.84 -0.36 -4.96 -0.59 -4.84 -0.82 -4.84 -1.07 -4.85 -1.29 -4.72 -1.54 -4.73 -1.77 -4.6 -2.01 -4.61 -2.13 -4.37 -2.48 -4.37 -2.71 -4.25 -2.96 -4.02 -3.18 -4.01 -3.43 -3.9 -3.66 0 0zm0 -145.87l10.39 10.4 0 0 -3.18 3.3 -2.96 3.43 -2.71 3.54 -2.6 3.55 -2.25 3.78 -2.12 3.77 -2.01 3.9 -1.65 4.02 -1.54 4.01 -1.3 4.02 -1.18 4.13 -0.83 4.14 -0.71 4.25 -0.59 4.25 -0.23 4.25 -0.12 4.14 0.12 4.25 0.23 4.25 0.59 4.25 0.71 4.25 0.83 4.14 1.18 4.13 1.3 4.02 1.54 4.13 1.65 3.9 2.01 3.9 2.12 3.78 2.25 3.78 2.6 3.66 2.71 3.54 2.96 3.43 3.18 3.3 -10.39 10.28 -3.66 -3.9 -3.43 -4.01 -3.07 -4.02 -2.95 -4.25 -2.72 -4.37 -2.48 -4.49 -2.24 -4.49 -2.01 -4.6 -1.77 -4.73 -1.54 -4.72 -1.29 -4.85 -1.07 -4.84 -0.82 -4.84 -0.6 -4.96 -0.35 -4.96 -0.12 -4.96 0.12 -4.85 0.35 -4.96 0.6 -4.96 0.82 -4.84 1.07 -4.84 1.29 -4.84 1.54 -4.73 1.77 -4.72 2.01 -4.61 2.24 -4.49 2.48 -4.49 2.72 -4.37 2.95 -4.13 3.19 -4.13 3.31 -4.02 3.66 -3.78 0 -0.12zm29.29 -15.71l14.53 0 -4.49 6.74 -0.94 0.47 -1.07 0.35 -0.94 0.48 -0.95 0.47 -1.06 0.47 -0.94 0.47 -0.95 0.48 -0.94 0.47 -0.95 0.47 -0.94 0.59 -0.95 0.47 -0.94 0.59 -0.95 0.59 -0.94 0.6 -0.83 0.59 -0.94 0.59 -0.95 0.59 -0.83 0.59 -0.94 0.59 -0.95 0.71 -0.82 0.59 -0.83 0.71 -0.94 0.7 -0.83 0.71 -0.83 0.71 -0.94 0.71 -0.83 0.71 -0.83 0.71 -0.82 0.82 -0.83 0.71 -0.83 0.83 -0.71 0.83 -10.39 -10.4 0.95 -0.82 0.94 -0.95 0.95 -0.94 1.06 -0.83 0.94 -0.83 0.95 -0.94 0.94 -0.83 1.07 -0.83 0.94 -0.82 1.06 -0.71 1.07 -0.83 0.94 -0.71 1.06 -0.82 1.07 -0.71 1.06 -0.71 1.06 -0.71 1.07 -0.71 1.06 -0.71 1.06 -0.71 1.07 -0.59 1.06 -0.59 1.18 -0.7 1.06 -0.6 1.07 -0.59 1.18 -0.59 1.06 -0.59 1.18 -0.47 1.06 -0.59 1.18 -0.47 1.19 -0.59 1.06 -0.48 1.18 -0.47 -4.49 6.73zm14.53 0l0 4.97 -4.49 1.77 4.49 -6.74zm0 -343.22l0 343.22 -14.53 0 0 -343.22 10.04 -6.74 4.49 6.74zm-4.49 -6.74l4.49 1.89 0 4.85 -4.49 -6.74zm-39.33 -8.97l10.39 -10.28 0 0 0.71 0.83 0.83 0.71 0.83 0.82 0.82 0.71 0.83 0.83 0.94 0.71 0.83 0.71 0.83 0.71 0.83 0.7 0.94 0.71 0.83 0.59 0.94 0.71 0.83 0.59 0.94 0.71 0.83 0.59 0.95 0.59 0.94 0.59 0.83 0.59 0.94 0.59 0.95 0.59 0.94 0.48 0.95 0.59 0.94 0.47 0.95 0.59 0.94 0.47 0.95 0.48 0.94 0.47 1.06 0.47 0.95 0.47 0.94 0.36 0.95 0.47 1.06 0.35 -5.55 13.47 -1.18 -0.47 -1.06 -0.48 -1.19 -0.47 -1.18 -0.47 -1.06 -0.59 -1.18 -0.59 -1.06 -0.47 -1.18 -0.6 -1.07 -0.59 -1.06 -0.59 -1.18 -0.71 -1.06 -0.59 -1.07 -0.7 -1.06 -0.6 -1.06 -0.7 -1.07 -0.71 -1.06 -0.71 -1.06 -0.71 -1.07 -0.71 -1.06 -0.83 -0.94 -0.7 -1.07 -0.83 -1.06 -0.83 -0.94 -0.82 -1.07 -0.83 -0.94 -0.83 -0.95 -0.82 -0.94 -0.83 -1.06 -0.95 -0.95 -0.82 -0.94 -0.95 -0.95 -0.94 0 0zm10.39 -10.28l0 0 0 0 0 0zm-30.94 -94.49l10.28 -10.27 1.53 8.03 -1.18 2.95 -1.06 3.07 -0.95 3.07 -0.94 3.19 -0.71 3.19 -0.59 3.07 -0.48 3.19 -0.47 3.19 -0.23 3.19 -0.12 3.31 -0.12 3.19 0.12 3.18 0.12 3.19 0.35 3.19 0.47 3.19 0.48 3.19 0.7 3.19 0.71 3.19 0.95 3.07 0.94 3.07 1.18 3.07 1.18 3.07 1.3 2.95 1.54 2.96 1.53 2.83 1.78 2.84 1.77 2.83 1.89 2.72 2.12 2.71 2.13 2.6 2.24 2.6 2.48 2.48 -10.39 10.28 -2.72 -2.84 -2.71 -3.07 -2.48 -2.95 -2.36 -3.19 -2.25 -3.19 -2.13 -3.31 -2 -3.3 -1.89 -3.31 -1.66 -3.43 -1.53 -3.54 -1.42 -3.54 -1.42 -3.55 -1.06 -3.54 -1.06 -3.66 -0.95 -3.66 -0.71 -3.66 -0.59 -3.66 -0.59 -3.78 -0.35 -3.67 -0.12 -3.77 -0.12 -3.78 0 -3.67 0.24 -3.78 0.35 -3.66 0.36 -3.78 0.59 -3.66 0.82 -3.66 0.83 -3.78 0.95 -3.54 1.18 -3.66 1.3 -3.55 1.3 -3.54 1.65 7.91zm10.28 -10.27l3.42 3.42 -1.89 4.61 -1.53 -8.03zm-141.74 -141.73l141.74 141.73 -10.28 10.27 -141.73 -141.73 0 -10.27 10.27 0zm-10.27 0l5.08 -5.08 5.19 5.08 -10.27 0zm-374.29 374.29l374.29 -374.29 10.27 10.27 -374.17 374.29 -10.39 -10.27 0 0zm10.39 113.86l-10.39 10.27 0 0 -3.08 -3.31 -2.95 -3.42 -2.71 -3.43 -2.48 -3.66 -2.25 -3.66 -2.12 -3.78 -1.89 -3.9 -1.78 -3.89 -1.53 -4.02 -1.3 -4.02 -1.06 -4.13 -0.95 -4.13 -0.71 -4.14 -0.47 -4.25 -0.35 -4.13 0 -4.26 0 -4.13 0.35 -4.25 0.47 -4.13 0.71 -4.26 0.95 -4.13 1.06 -4.02 1.3 -4.13 1.53 -3.9 1.78 -4.01 1.89 -3.78 2.12 -3.9 2.25 -3.66 2.48 -3.55 2.71 -3.54 2.95 -3.42 3.08 -3.19 10.39 10.27 -2.6 2.72 -2.48 2.83 -2.24 2.96 -2.13 2.95 -1.89 3.07 -1.77 3.19 -1.65 3.19 -1.42 3.31 -1.18 3.3 -1.07 3.43 -0.94 3.42 -0.83 3.43 -0.59 3.42 -0.35 3.55 -0.24 3.42 -0.12 3.54 0.12 3.55 0.24 3.54 0.35 3.43 0.59 3.54 0.83 3.43 0.94 3.42 1.07 3.31 1.18 3.42 1.42 3.19 1.65 3.31 1.77 3.07 1.89 3.07 2.13 3.07 2.24 2.84 2.48 2.83 2.6 2.84 0 0zm535.39 556.06l-545.78 -545.79 10.39 -10.27 545.79 545.66 0 0 -10.4 10.4zm113.86 -10.4l10.28 10.4 0 0 -3.19 3.07 -3.43 2.95 -3.54 2.6 -3.54 2.6 -3.78 2.24 -3.78 2.13 -3.78 1.89 -4.02 1.77 -3.9 1.54 -4.13 1.29 -4.02 1.07 -4.13 0.94 -4.25 0.71 -4.13 0.47 -4.26 0.24 -4.13 0.12 -4.25 -0.12 -4.14 -0.24 -4.25 -0.47 -4.13 -0.71 -4.14 -0.94 -4.13 -1.07 -4.02 -1.29 -4.01 -1.54 -3.9 -1.77 -3.9 -1.89 -3.78 -2.13 -3.66 -2.24 -3.66 -2.6 -3.42 -2.72 -3.43 -2.83 -3.31 -3.07 10.4 -10.4 2.71 2.6 2.84 2.48 2.83 2.25 3.07 2.12 3.07 1.89 3.19 1.77 3.19 1.54 3.19 1.54 3.43 1.18 3.3 1.06 3.43 0.94 3.42 0.83 3.55 0.59 3.42 0.36 3.55 0.23 3.54 0.12 3.42 -0.12 3.55 -0.23 3.54 -0.36 3.43 -0.59 3.42 -0.83 3.43 -0.94 3.42 -1.06 3.31 -1.3 3.31 -1.42 3.18 -1.54 3.19 -1.77 3.07 -1.89 2.96 -2.12 2.95 -2.25 2.83 -2.48 2.72 -2.6 0 0zm553.58 -532.91l-543.3 543.31 -10.28 -10.4 543.31 -543.18 10.27 10.27 0 0zm-10.27 -113.86l10.27 -10.27 0 0 3.08 3.3 2.95 3.31 2.71 3.54 2.48 3.55 2.37 3.78 2 3.78 2.01 3.89 1.66 3.9 1.53 4.02 1.3 4.01 1.06 4.14 0.95 4.13 0.71 4.14 0.47 4.13 0.35 4.25 0 4.25 0 4.14 -0.35 4.25 -0.47 4.13 -0.71 4.14 -0.95 4.13 -1.06 4.13 -1.3 4.02 -1.53 4.02 -1.66 4.01 -2.01 3.78 -2 3.78 -2.37 3.78 -2.48 3.54 -2.71 3.55 -2.95 3.42 -3.08 3.19 -10.27 -10.27 2.6 -2.72 2.36 -2.84 2.24 -2.95 2.13 -2.95 1.89 -3.07 1.77 -3.19 1.65 -3.19 1.42 -3.31 1.18 -3.3 1.18 -3.43 0.83 -3.42 0.83 -3.43 0.59 -3.42 0.35 -3.55 0.24 -3.54 0.12 -3.43 -0.12 -3.54 -0.24 -3.54 -0.35 -3.55 -0.59 -3.42 -0.83 -3.43 -0.83 -3.42 -1.18 -3.43 -1.18 -3.3 -1.42 -3.31 -1.65 -3.19 -1.77 -3.19 -1.89 -3.07 -2.13 -2.95 -2.24 -2.96 -2.36 -2.83 -2.6 -2.72 0 0z" inkscape:connector-curvature="0"/>
  </g>
  <path id="Helm" class="fil26 str2" d="M399.33 4002.93c0.47,0.71 14.88,19.96 15.36,20.67 15.82,20.43 33.07,38.86 51.49,55.39 -12.64,10.99 -25.63,25.52 -37.44,42.52 -33.31,47.6 -45.59,96.38 -27.52,109.02 18.07,12.64 59.76,-15.59 92.95,-63.07 11.46,-16.3 20.44,-32.72 26.46,-47.84 55.16,34.14 116.81,53.04 179.53,56.34 -4.73,17.13 -7.44,38.27 -7.44,61.07 0,57.99 17.95,105 40.04,105 22.08,0 39.92,-47.01 39.92,-105 0,-23.74 -2.96,-45.6 -8.03,-63.08 61.29,-7.2 121.65,-29.17 176.1,-66.02 5.79,17.84 16.18,38.5 30.47,58.94 33.19,47.48 74.88,75.71 92.95,63.07 18.07,-12.76 5.79,-61.54 -27.4,-109.02 -15.35,-21.73 -32.36,-39.45 -48.07,-51.14 15.71,-14.29 30.59,-30.12 44.76,-47.48l16.42 -19.37 -78.78 0c-0.23,0 -0.12,0.12 -0.23,0.36 -15.12,16.29 -31.18,30.94 -48.07,43.81 -62.01,47.13 -130.63,66.74 -201.86,66.15 -71.1,-0.59 -144.68,-21.38 -203.03,-68.86 -14.88,-12.05 -29.05,-25.75 -42.28,-40.87 -0.12,-0.12 -0.35,-0.59 -0.47,-0.59l-75.83 0zm-139.25 -328.7l61.77 0 0 83.74 74.76 0 0 -83.74 61.78 0 0 235.16 -61.78 0 0 -89.65 -74.76 0 0 89.65 -61.77 0 0 -235.16zm269.29 235.16l0 -235.16 146.22 0 0 51.14 -84.45 0 0 38.27 74.77 0 0 52.09 -74.77 0 0 43.22 84.45 0 0 50.44 -146.22 0zm214.02 0l0 -235.16 61.77 0 0 173.15 84.8 0 0 62.01 -146.57 0zm242.24 -235.16l96.14 87.17 95.67 -87.17 27.99 0 0 235.16 -62.24 0 0 -120.71 -61.42 56.1 -61.89 -55.75 0 120.36 -62.12 0 0 -235.16 27.87 0zm-586.3 -93.54c0.47,-0.59 14.88,-19.96 15.36,-20.67 15.82,-20.44 33.07,-38.86 51.49,-55.28 -12.64,-11.1 -25.63,-25.63 -37.44,-42.64 -33.31,-47.48 -45.59,-96.26 -27.52,-108.89 18.07,-12.76 59.76,15.47 92.95,63.07 11.46,16.18 20.44,32.71 26.46,47.71 55.16,-34.13 116.81,-52.91 179.53,-56.22 -4.73,-17.24 -7.44,-38.26 -7.44,-61.06 0,-57.99 17.95,-105 40.04,-105 22.08,0 39.92,47.01 39.92,105 0,23.62 -2.96,45.47 -8.03,63.07 61.29,7.09 121.65,29.06 176.1,66.02 5.79,-17.95 16.18,-38.5 30.47,-58.93 33.19,-47.48 74.88,-75.71 92.95,-63.07 18.07,12.63 5.79,61.41 -27.4,108.89 -15.35,21.85 -32.36,39.57 -48.07,51.15 15.71,14.41 30.59,30.23 44.76,47.48l16.42 19.37 -78.78 0c-0.23,0 -0.12,-0.12 -0.23,-0.24 -15.12,-16.42 -31.18,-30.94 -48.07,-43.82 -62.01,-47.24 -130.63,-66.85 -201.86,-66.26 -71.1,0.71 -144.68,21.5 -203.03,68.86 -14.88,12.05 -29.05,25.87 -42.28,40.98 -0.12,0.12 -0.35,0.48 -0.47,0.48l-75.83 0z"/>
  <g id="Docker">
   <path class="fil27" d="M5359.13 644.58l125.08 0 0 127.92 63.31 0c29.17,0 59.17,-5.2 86.81,-14.53 13.58,-4.61 28.94,-11.1 42.28,-19.13 -17.59,-23.04 -26.69,-52.21 -29.29,-80.91 -3.66,-38.98 4.25,-89.76 30.71,-120.35l13.11 -15.12 15.71 12.52c39.33,31.77 72.52,76.06 78.43,126.49 47.48,-13.93 103.22,-10.63 145.03,13.47l17.25 9.92 -9.1 17.6c-35.31,69.09 -109.37,90.59 -181.77,86.81 -108.3,269.64 -344.05,397.32 -629.88,397.32 -147.64,0 -283.11,-55.16 -360.24,-186.26l-1.29 -2.12 -11.22 -22.8c-26.11,-57.75 -34.73,-120.94 -28.94,-184.01l1.77 -18.9 107.01 0 0 -127.92 125.08 0 0 -125.07 250.15 0 0 -124.97 150 0 0 250.04zm-379.37 -104.17l108.43 0 0 108.43 -108.43 0 0 -108.43zm125.08 0l108.43 0 0 108.43 -108.43 0 0 -108.43zm125.08 0l108.43 0 0 108.43 -108.43 0 0 -108.43zm0 -125.08l108.43 0 0 108.43 -108.43 0 0 -108.43zm0 250.16l108.43 0 0 108.42 -108.43 0 0 -108.42zm-125.08 0l108.43 0 0 108.42 -108.43 0 0 -108.42zm-125.08 0l108.43 0 0 108.42 -108.43 0 0 -108.42zm-125.07 0l108.42 0 0 108.42 -108.42 0 0 -108.42zm500.31 0l108.43 0 0 108.42 -108.43 0 0 -108.42zm409.37 26.46c8.39,-65.2 -40.39,-116.34 -70.63,-140.67 -34.84,40.27 -40.28,145.86 14.41,190.39 -30.47,27.05 -94.84,51.62 -160.63,51.62l-801.61 0c-6.38,68.74 5.66,132.04 33.3,186.25l9.1 16.66c5.78,9.8 12.04,19.25 18.89,28.34l0 0c32.96,2.13 63.31,2.84 91.07,2.25l0 0c54.68,-1.18 99.21,-7.68 132.99,-19.37 5.08,-1.77 10.51,0.94 12.28,6.02 1.77,4.96 -0.94,10.51 -5.9,12.17 -4.49,1.53 -9.21,3.07 -14.06,4.49 0,0 0,0 0,0 -26.57,7.56 -55.15,12.63 -91.89,14.88 2.13,0.12 -2.36,0.35 -2.36,0.35 -1.18,0.12 -2.83,0.24 -4.02,0.36 -14.52,0.82 -30.11,0.94 -46.18,0.94 -17.48,0 -34.6,-0.35 -53.85,-1.3l-0.48 0.36c66.74,75 171.14,120.11 302.01,120.11 277.09,0 512.01,-122.83 616.06,-398.5 73.82,7.56 144.81,-11.34 177.05,-74.29 -51.38,-29.65 -117.52,-20.2 -155.55,-1.06z"/>
   <path class="fil26 str7" d="M5081.46 949.66c16.41,0 29.88,13.35 29.88,29.88 0,16.54 -13.47,29.89 -29.88,29.89 -16.54,0 -30,-13.35 -30,-29.89 0,-16.53 13.46,-29.88 30,-29.88z"/>
   <path class="fil27 str6" d="M5081.46 958.05c2.71,0 5.31,0.59 7.67,1.53 -2.59,1.54 -4.37,4.26 -4.37,7.56 0,4.85 3.9,8.74 8.74,8.74 3.31,0 6.15,-1.89 7.68,-4.6 1.06,2.6 1.65,5.31 1.65,8.26 0,11.82 -9.56,21.38 -21.37,21.38 -11.93,0 -21.5,-9.56 -21.5,-21.38 0,-11.81 9.57,-21.49 21.5,-21.49z"/>
   <g>
    <g>
     <rect class="fil27" x="4871.69" y="676.71" width="10.31" height="85.91"/>
     <rect class="fil27" x="4935.47" y="676.71" width="10.31" height="85.91"/>
    </g>
    <rect class="fil27" x="4903.58" y="676.71" width="10.31" height="85.91"/>
   </g>
   <rect class="fil26" x="4855.16" y="665.96" width="107.95" height="107.48"/>
   <g>
    <g>
     <rect class="fil27" x="4996.65" y="676.71" width="10.31" height="85.91"/>
     <rect class="fil27" x="5060.43" y="676.71" width="10.31" height="85.91"/>
    </g>
    <rect class="fil27" x="5028.54" y="676.71" width="10.31" height="85.91"/>
   </g>
   <g>
    <g>
     <rect class="fil27" x="5121.61" y="676.71" width="10.31" height="85.91"/>
     <rect class="fil27" x="5185.39" y="676.71" width="10.31" height="85.91"/>
    </g>
    <rect class="fil27" x="5153.5" y="676.71" width="10.31" height="85.91"/>
   </g>
   <g>
    <g>
     <rect class="fil27" x="5247.28" y="676.71" width="10.31" height="85.91"/>
     <rect class="fil27" x="5311.06" y="676.71" width="10.31" height="85.91"/>
    </g>
    <rect class="fil27" x="5279.17" y="676.71" width="10.31" height="85.91"/>
   </g>
   <g>
    <g>
     <rect class="fil27" x="5372.95" y="676.71" width="10.31" height="85.91"/>
     <rect class="fil27" x="5436.61" y="676.71" width="10.31" height="85.91"/>
    </g>
    <rect class="fil27" x="5404.84" y="676.71" width="10.31" height="85.91"/>
   </g>
   <g>
    <g>
     <rect class="fil27" x="4996.65" y="552.34" width="10.31" height="85.91"/>
     <rect class="fil27" x="5060.43" y="552.34" width="10.31" height="85.91"/>
    </g>
    <rect class="fil27" x="5028.54" y="552.34" width="10.31" height="85.91"/>
   </g>
   <g>
    <g>
     <rect class="fil27" x="5121.61" y="552.34" width="10.31" height="85.91"/>
     <rect class="fil27" x="5185.39" y="552.34" width="10.31" height="85.91"/>
    </g>
    <rect class="fil27" x="5153.5" y="552.34" width="10.31" height="85.91"/>
   </g>
   <g>
    <g>
     <rect class="fil27" x="5247.28" y="552.34" width="10.31" height="85.91"/>
     <rect class="fil27" x="5311.06" y="552.34" width="10.31" height="85.91"/>
    </g>
    <rect class="fil27" x="5279.17" y="552.34" width="10.31" height="85.91"/>
   </g>
   <g>
    <g>
     <rect class="fil27" x="5247.28" y="426.43" width="10.31" height="85.91"/>
     <rect class="fil27" x="5311.06" y="426.43" width="10.31" height="85.91"/>
    </g>
    <rect class="fil27" x="5279.17" y="426.43" width="10.31" height="85.91"/>
   </g>
  </g>
  <path id="Terraform" class="fil26 str2" d="M5428.7 3612.69l0 338.39 293.03 -169.13 0 -338.63 -293.03 169.37zm-650.43 -358.22l0 338.38 293.03 169.25 0 -338.38 -293.03 -169.25zm325.16 902.95l293.14 169.25 0 -338.5 -293.14 -169.26 0 338.51zm0 -714.1l293.14 169.37 0 338.39 -293.14 -169.25 0 -338.51z"/>
  <path id="Rust" class="fil26 str8" d="M7341.81 2275.83l-50.38 -31.19c-0.42,-4.9 -0.9,-9.8 -1.43,-14.68l43.29 -40.37c4.4,-4.11 6.37,-10.19 5.18,-16.07 -1.15,-5.9 -5.29,-10.76 -10.92,-12.86l-55.34 -20.7c-1.39,-4.79 -2.84,-9.55 -4.34,-14.28l34.53 -47.95c3.51,-4.88 4.24,-11.21 1.94,-16.78 -2.29,-5.53 -7.3,-9.5 -13.23,-10.47l-58.35 -9.5c-2.27,-4.42 -4.63,-8.78 -7.02,-13.1l24.52 -53.83c2.51,-5.48 2,-11.85 -1.35,-16.83 -3.34,-5 -8.99,-7.92 -15.02,-7.69l-59.23 2.06c-3.06,-3.83 -6.18,-7.62 -9.35,-11.35l13.6 -57.69c1.38,-5.86 -0.35,-11.99 -4.62,-16.24 -4.23,-4.25 -10.37,-6 -16.23,-4.63l-57.68 13.6c-3.74,-3.16 -7.53,-6.29 -11.38,-9.35l2.08 -59.23c0.23,-6 -2.7,-11.69 -7.69,-15.02 -5.02,-3.35 -11.35,-3.85 -16.82,-1.37l-53.82 24.54c-4.35,-2.39 -8.7,-4.75 -13.11,-7.03l-9.51 -58.37c-0.96,-5.91 -4.93,-10.93 -10.48,-13.23 -5.54,-2.3 -11.89,-1.56 -16.76,1.95l-47.98 34.52c-4.72,-1.5 -9.47,-2.94 -14.26,-4.32l-20.7 -55.35c-2.1,-5.64 -6.96,-9.78 -12.86,-10.95 -5.89,-1.16 -11.96,0.8 -16.05,5.18l-40.38 43.33c-4.87,-0.54 -9.78,-1.03 -14.68,-1.43l-31.18 -50.39c-3.15,-5.1 -8.74,-8.21 -14.75,-8.21 -6,0 -11.59,3.1 -14.73,8.21l-31.18 50.39c-4.91,0.4 -9.82,0.89 -14.69,1.43l-40.39 -43.33c-4.09,-4.38 -10.17,-6.34 -16.05,-5.18 -5.91,1.18 -10.77,5.31 -12.87,10.95l-20.69 55.35c-4.79,1.38 -9.54,2.83 -14.28,4.32l-47.97 -34.52c-4.87,-3.52 -11.22,-4.26 -16.77,-1.95 -5.54,2.3 -9.52,7.32 -10.48,13.23l-9.51 58.37c-4.41,2.28 -8.76,4.63 -13.11,7.03l-53.82 -24.54c-5.47,-2.5 -11.84,-1.98 -16.81,1.37 -5,3.32 -7.93,9.02 -7.7,15.02l2.06 59.23c-3.83,3.06 -7.62,6.19 -11.37,9.35l-57.68 -13.6c-5.86,-1.36 -12,0.38 -16.25,4.63 -4.26,4.25 -5.99,10.38 -4.62,16.24l13.59 57.69c-3.15,3.74 -6.27,7.53 -9.34,11.35l-59.22 -2.06c-5.98,-0.17 -11.69,2.69 -15.02,7.69 -3.35,4.98 -3.86,11.35 -1.37,16.83l24.54 53.83c-2.39,4.32 -4.75,8.68 -7.03,13.1l-58.36 9.5c-5.92,0.96 -10.92,4.93 -13.23,10.47 -2.29,5.56 -1.54,11.9 1.95,16.78l34.53 47.95c-1.51,4.73 -2.96,9.49 -4.34,14.28l-55.35 20.7c-5.62,2.1 -9.76,6.96 -10.93,12.86 -1.17,5.89 0.79,11.96 5.19,16.07l43.3 40.37c-0.54,4.88 -1.02,9.78 -1.43,14.68l-50.38 31.19c-5.1,3.15 -8.21,8.72 -8.21,14.74 0,6.02 3.11,11.59 8.21,14.73l50.38 31.19c0.41,4.9 0.89,9.8 1.43,14.67l-43.3 40.4c-4.4,4.09 -6.35,10.17 -5.19,16.05 1.17,5.9 5.31,10.75 10.93,12.86l55.35 20.7c1.37,4.79 2.83,9.55 4.34,14.28l-34.53 47.96c-3.51,4.89 -4.25,11.23 -1.95,16.76 2.31,5.56 7.32,9.53 13.24,10.48l58.35 9.49c2.28,4.43 4.62,8.79 7.03,13.13l-24.54 53.81c-2.5,5.47 -1.98,11.83 1.37,16.83 3.35,5.01 9.04,7.93 15.02,7.69l59.2 -2.08c3.09,3.86 6.19,7.63 9.36,11.38l-13.59 57.7c-1.37,5.85 0.36,11.96 4.62,16.21 4.23,4.28 10.39,5.98 16.25,4.61l57.68 -13.59c3.75,3.19 7.54,6.29 11.37,9.34l-2.06 59.24c-0.23,5.99 2.7,11.68 7.7,15.03 4.97,3.33 11.34,3.84 16.81,1.34l53.82 -24.52c4.34,2.41 8.69,4.74 13.11,7.03l9.51 58.33c0.96,5.94 4.93,10.96 10.48,13.24 5.54,2.3 11.9,1.56 16.77,-1.94l47.95 -34.54c4.74,1.5 9.49,2.97 14.29,4.34l20.69 55.33c2.1,5.62 6.96,9.78 12.87,10.93 5.89,1.19 11.96,-0.78 16.05,-5.19l40.39 -43.3c4.87,0.56 9.78,1.03 14.68,1.47l31.19 50.38c3.14,5.07 8.73,8.21 14.73,8.21 6.01,0 11.6,-3.12 14.75,-8.21l31.18 -50.38c4.91,-0.44 9.81,-0.91 14.68,-1.47l40.38 43.3c4.09,4.41 10.17,6.38 16.05,5.19 5.9,-1.16 10.76,-5.31 12.86,-10.93l20.7 -55.33c4.79,-1.37 9.55,-2.84 14.29,-4.34l47.95 34.54c4.88,3.5 11.23,4.25 16.77,1.94 5.55,-2.28 9.51,-7.31 10.47,-13.24l9.52 -58.33c4.4,-2.29 8.76,-4.66 13.1,-7.03l53.82 24.52c5.47,2.5 11.83,1.99 16.82,-1.34 5,-3.35 7.91,-9.03 7.69,-15.03l-2.06 -59.24c3.83,-3.06 7.62,-6.15 11.36,-9.34l57.68 13.59c5.86,1.37 12,-0.33 16.24,-4.61 4.26,-4.25 5.99,-10.36 4.62,-16.21l-13.59 -57.7c3.17,-3.75 6.29,-7.52 9.34,-11.38l59.22 2.08c5.98,0.24 11.69,-2.68 15.02,-7.69 3.35,-5 3.87,-11.36 1.36,-16.83l-24.53 -53.81c2.4,-4.34 4.75,-8.7 7.02,-13.13l58.36 -9.49c5.94,-0.95 10.93,-4.92 13.23,-10.48 2.29,-5.53 1.57,-11.87 -1.95,-16.76l-34.52 -47.96c1.49,-4.73 2.94,-9.49 4.33,-14.28l55.34 -20.7c5.63,-2.11 9.78,-6.96 10.93,-12.86 1.19,-5.89 -0.78,-11.96 -5.18,-16.05l-43.3 -40.4c0.53,-4.87 1.01,-9.77 1.44,-14.67l50.38 -31.19c5.1,-3.14 8.21,-8.72 8.21,-14.73 0,-6.01 -3.1,-11.59 -8.2,-14.74l-0.01 0zm-337.17 417.91c-19.24,-4.15 -31.47,-23.12 -27.35,-42.41 4.12,-19.27 23.07,-31.54 42.3,-27.39 19.24,4.11 31.5,23.11 27.37,42.37 -4.13,19.26 -23.09,31.54 -42.32,27.43l0 0zm-17.12 -115.78c-17.55,-3.76 -34.82,7.41 -38.58,25l-17.88 83.46c-55.2,25.05 -116.49,38.97 -181.04,38.97 -66.02,0 -128.65,-14.6 -184.82,-40.72l-17.88 -83.47c-3.76,-17.56 -21.03,-28.75 -38.57,-24.98l-73.68 15.82c-13.68,-14.08 -26.41,-29.07 -38.1,-44.91l358.53 0c4.06,0 6.77,-0.73 6.77,-4.42l0 -126.83c0,-3.69 -2.71,-4.42 -6.77,-4.42l-104.86 0 0 -80.4 113.41 0c10.36,0 55.36,2.96 69.74,60.48 4.51,17.69 14.4,75.23 21.17,93.66 6.74,20.66 34.19,61.93 63.43,61.93l178.66 0c2.03,0 4.2,-0.23 6.48,-0.64 -12.39,16.84 -25.99,32.78 -40.63,47.67l-75.38 -16.2 0 0zm-495.88 114.03c-19.24,4.15 -38.18,-8.11 -42.32,-27.39 -4.12,-19.3 8.11,-38.25 27.35,-42.4 19.24,-4.12 38.19,8.15 42.32,27.42 4.11,19.26 -8.13,38.25 -27.35,42.38l0 -0.01zm-136.01 -551.52c7.98,18.01 -0.14,39.12 -18.13,47.09 -17.99,7.99 -39.04,-0.14 -47.02,-18.16 -7.98,-18.02 0.14,-39.1 18.13,-47.09 18,-7.98 39.04,0.14 47.02,18.16zm-41.8 99.09l76.75 -34.11c16.4,-7.27 23.81,-26.49 16.52,-42.92l-15.81 -35.75 62.18 0 0 280.25 -125.44 0c-10.88,-38.25 -16.72,-78.61 -16.72,-120.33 0,-15.93 0.86,-31.67 2.51,-47.13l0.01 -0.01zm336.84 -27.22l0 -82.6 148.05 0c7.65,0 54,8.84 54,43.5 0,28.78 -35.55,39.09 -64.79,39.09l-137.27 0 0.01 0.01zm538.07 74.35c0,10.96 -0.4,21.81 -1.2,32.58l-45.01 0c-4.51,0 -6.32,2.95 -6.32,7.37l0 20.67c0,48.66 -27.43,59.24 -51.48,61.94 -22.89,2.58 -48.27,-9.59 -51.4,-23.6 -13.51,-75.96 -36.02,-92.19 -71.56,-120.22 44.11,-28.01 90.01,-69.33 90.01,-124.63 0,-59.73 -40.95,-97.34 -68.85,-115.79 -39.16,-25.81 -82.5,-30.98 -94.2,-30.98l-465.51 0c63.12,-70.45 148.67,-120.36 245.44,-138.52l54.88 57.57c12.4,12.98 32.95,13.47 45.92,1.05l61.4 -58.72c128.65,23.95 237.57,104.03 300.34,213.9l-42.03 94.93c-7.26,16.43 0.15,35.65 16.53,42.93l80.92 35.94c1.4,14.37 2.13,28.88 2.13,43.59l-0.01 -0.01zm-465.19 -480.15c14.22,-13.62 36.77,-13.08 50.38,1.16 13.58,14.27 13.07,36.85 -1.18,50.46 -14.22,13.62 -36.77,13.09 -50.38,-1.17 -13.58,-14.26 -13.06,-36.83 1.18,-50.45zm417.1 335.66c7.96,-18.01 29.01,-26.14 47,-18.15 17.99,7.98 26.11,29.08 18.13,47.09 -7.97,18.02 -29.02,26.15 -47.01,18.16 -17.97,-7.98 -26.09,-29.07 -18.12,-47.1l0 0z"/>
  <g id="Google_x0020_Cloud">
   <path class="fil26 str2" d="M1087.91 388.93c-212.84,-187.91 -538.47,-167 -726.38,45.83 -52.21,59.06 -90,129.45 -110.79,205.63 67.21,-53.5 220.99,-77.48 286.66,-58.23 101.69,-111.85 274.13,-125.9 391.65,-30.82l158.86 -162.41z"/>
   <path class="fil26 str2" d="M1244.52 640.39c-26.34,-96.85 -80.31,-183.9 -155.31,-250.39l-160.52 160.51c67.8,55.28 106.42,138.78 104.77,226.3l0 28.58c78.9,0 142.91,63.9 142.91,142.8 0,78.89 -64.01,142.91 -142.91,142.91l-285.83 0 0 228.78 285.83 0c205.16,1.65 372.87,-163.47 374.41,-368.62 0.94,-124.73 -60.36,-241.3 -163.35,-310.87z"/>
   <path class="fil26 str2" d="M461.57 1318.11l285.71 1.77 0 -228.66 -285.71 -1.89c-20.43,0 -40.51,-4.37 -59.06,-12.88l-165.35 165.83c64.61,48.78 143.39,76.18 224.41,75.83z"/>
   <path class="fil26 str2" d="M461.57 576.14c-205.39,1.18 -370.63,168.54 -369.45,373.82 0.71,114.57 54.21,222.52 145.04,292.32l165.71 -165.71c-71.81,-32.48 -103.82,-117.16 -71.34,-188.97 32.48,-71.93 117.16,-103.94 188.98,-71.46 31.65,14.29 57.04,39.8 71.45,71.46l165.71 -165.71c-70.51,-92.25 -180.12,-146.22 -296.1,-145.75z"/>
  </g>
  <path id="WebAssembly" class="fil29 str9" d="M2361.42 1787.56c0,1.77 0,3.53 0,5.39 0,63.34 -51.34,114.66 -114.65,114.66 -63.34,0 -114.66,-51.34 -114.66,-114.66l0 0c0,-1.86 0,-3.62 0,-5.39l-385.07 0 0 1000 1000 0 0 -1000 -385.62 0zm-382.09 538.91l66.28 0 45.24 240.96 0.82 0 54.38 -240.96 61.99 0 49.12 243.92 0.96 0 51.57 -243.92 65 0 -84.46 354.06 -65.77 0 -48.71 -240.96 -1.27 0 -52.14 240.96 -67 0 -76.01 -354.06zm470.08 0l104.48 0 103.76 354.06 -68.37 0 -22.56 -78.79 -119.02 0 -17.42 78.79 -66.59 0 85.72 -354.06zm39.77 87.27l-28.9 129.9 89.97 0 -33.19 -129.9 -27.88 0z"/>
  <g id="Kubeflow">
   <g>
    <path class="fil30" d="M6523.41 1223.57l-24.22 -607.51 13.74 -0.54 24.22 607.5 -1.46 4.51 -12.28 -3.96zm13.74 -0.55c0.15,3.79 -2.81,6.99 -6.6,7.14 -3.79,0.15 -6.99,-2.8 -7.14,-6.59l13.74 -0.55zm437.38 -555.48l-438.84 559.99 -10.82 -8.48 438.84 -559.99 10.83 8.48 -0.01 0zm-10.82 -8.48c2.34,-2.99 6.67,-3.52 9.65,-1.17 2.99,2.34 3.52,6.66 1.17,9.65l-10.82 -8.48zm31.8 -17.81l1.58 13.65 -0.01 0 -0.83 0.11 -0.83 0.13 -0.82 0.15 -0.81 0.16 -0.81 0.19 -0.81 0.21 -0.8 0.22 -0.79 0.25 -0.78 0.26 -0.78 0.29 -0.77 0.3 -0.75 0.32 -0.75 0.34 -0.75 0.36 -0.73 0.37 -0.72 0.4 -0.72 0.41 -0.7 0.43 -0.7 0.45 -0.68 0.46 -0.67 0.48 -0.66 0.5 -0.64 0.51 -0.64 0.53 -0.62 0.54 -0.61 0.57 -0.6 0.57 -0.58 0.6 -0.57 0.61 -0.56 0.62 -0.54 0.64 -0.52 0.66 -10.83 -8.48 0.74 -0.92 0.76 -0.9 0.79 -0.89 0.8 -0.86 0.83 -0.83 0.84 -0.82 0.85 -0.79 0.88 -0.77 0.9 -0.75 0.91 -0.72 0.93 -0.7 0.95 -0.68 0.96 -0.65 0.98 -0.63 0.99 -0.61 1 -0.58 1.03 -0.55 1.03 -0.53 1.05 -0.51 1.05 -0.48 1.08 -0.45 1.08 -0.43 1.1 -0.4 1.1 -0.37 1.12 -0.35 1.12 -0.32 1.14 -0.29 1.14 -0.26 1.15 -0.24 1.16 -0.21 1.17 -0.17 1.17 -0.15 0 0zm0 0c3.77,-0.44 7.18,2.27 7.62,6.04 0.43,3.77 -2.27,7.18 -6.05,7.61l-1.57 -13.65zm35.02 10.08l-8.6 10.73 0 0 -0.66 -0.52 -0.67 -0.5 -0.69 -0.48 -0.69 -0.46 -0.7 -0.45 -0.71 -0.42 -0.73 -0.41 -0.73 -0.39 -0.74 -0.37 -0.74 -0.36 -0.76 -0.33 -0.76 -0.31 -0.77 -0.3 -0.78 -0.27 -0.78 -0.26 -0.78 -0.24 -0.79 -0.22 -0.81 -0.2 -0.8 -0.18 -0.81 -0.15 -0.81 -0.15 -0.82 -0.11 -0.82 -0.1 -0.82 -0.08 -0.83 -0.06 -0.83 -0.04 -0.83 -0.02 -0.84 0.01 -0.83 0.02 -0.84 0.04 -0.83 0.07 -0.84 0.08 -1.58 -13.65 1.18 -0.13 1.17 -0.09 1.18 -0.06 1.18 -0.03 1.18 -0.01 1.17 0.03 1.17 0.05 1.16 0.09 1.16 0.11 1.16 0.14 1.16 0.17 1.14 0.19 1.14 0.23 1.14 0.25 1.12 0.28 1.12 0.31 1.12 0.34 1.1 0.36 1.09 0.39 1.09 0.41 1.07 0.45 1.07 0.47 1.05 0.5 1.05 0.52 1.03 0.55 1.01 0.57 1.01 0.6 0.99 0.63 0.97 0.65 0.97 0.68 0.94 0.71 0.93 0.72 0 0zm0 0c2.96,2.38 3.44,6.71 1.06,9.67 -2.37,2.96 -6.7,3.43 -9.66,1.06l8.6 -10.73zm265.17 230.38l-273.77 -219.65 8.6 -10.73 273.77 219.65 2.41 3.83 -11.01 6.9zm8.6 -10.73c2.97,2.38 3.44,6.7 1.06,9.67 -2.37,2.96 -6.7,3.43 -9.66,1.06l8.6 -10.73zm-86.7 -386.56l89.11 390.39 -13.41 3.06 -89.1 -390.39 5.45 -8.29 7.95 5.23zm-13.4 3.06c-0.85,-3.7 1.47,-7.39 5.17,-8.23 3.7,-0.84 7.39,1.47 8.23,5.17l-13.4 3.06zm-699.39 121.55l704.84 -129.84 2.49 13.52 -704.84 129.84 -8.11 -6.49 5.62 -7.03zm2.49 13.52c-3.73,0.69 -7.31,-1.78 -8,-5.51 -0.69,-3.74 1.78,-7.32 5.51,-8.01l2.49 13.52z"/>
   </g>
   <g>
    <path class="fil30" d="M6934.9 1341.64l-389.28 0 0 -13.75 389.28 0 4.31 1.51 -4.31 12.24zm0 -13.75c3.8,0 6.88,3.08 6.88,6.87 0,3.8 -3.08,6.88 -6.88,6.88l0 -13.75zm-234.71 -190.24l239.02 191.75 -8.61 10.72 -239.01 -191.74 -1.11 -9.6 9.71 -1.13zm-8.6 10.73c-2.96,-2.38 -3.44,-6.71 -1.06,-9.67 2.37,-2.96 6.7,-3.43 9.66,-1.06l-8.6 10.73zm-151.38 182.14l150.27 -191.74 10.82 8.48 -150.27 191.74 -5.41 2.64 -5.41 -11.12zm10.82 8.48c-2.34,2.99 -6.66,3.51 -9.65,1.17 -2.99,-2.34 -3.51,-6.66 -1.17,-9.65l10.82 8.48z"/>
   </g>
   <g>
    <path class="fil30" d="M6740.35 1075.14l261.77 -334.04 10.82 8.48 -261.77 334.04 -9.72 1.13 -1.1 -9.61zm10.82 8.48c-2.34,2.99 -6.67,3.52 -9.65,1.18 -2.99,-2.35 -3.52,-6.67 -1.17,-9.66l10.82 8.48zm269.22 224.9l-278.94 -223.77 8.61 -10.73 278.93 223.78 1.08 9.65 -9.68 1.07zm8.6 -10.72c2.96,2.37 3.44,6.7 1.06,9.66 -2.37,2.96 -6.7,3.44 -9.66,1.06l8.6 -10.72zm265.67 -322.14l-264.59 331.79 -10.75 -8.58 264.59 -331.78 9.67 -1.08 1.08 9.65zm-10.75 -8.57c2.36,-2.97 6.69,-3.46 9.66,-1.09 2.97,2.36 3.45,6.69 1.09,9.66l-10.75 -8.57zm-272.08 -227.12l281.75 226.04 -8.6 10.73 -281.75 -226.04 -1.11 -9.6 9.71 -1.13zm-8.6 10.73c-2.96,-2.38 -3.44,-6.7 -1.06,-9.67 2.37,-2.96 6.7,-3.43 9.66,-1.06l-8.6 10.73z"/>
   </g>
   <g>
    <path class="fil30" d="M6427.36 552.84l10.75 8.57 -0.18 0.21 0.52 -0.68 -0.86 1.05 0 0 0.86 -1.05 -0.86 1.05 0.85 -1.04 -0.86 1.05 0 0 0.86 -1.05 0 0 0 0.01 -0.01 0 -0.86 1.05 0 0 0.86 -1.05 0 0 0 0.01 -0.86 1.04 0 0.01 0.85 -1.05 0.43 -0.74 -0.43 0.75 0 0 -0.22 0.31 -0.64 0.74 0.85 -1.05 0.43 -0.73 0 0 -1.29 1.79 0 0 1.29 -1.79 -0.39 0.68 -11.53 -7.49 -0.38 0.66 1.29 -1.78 0 -0.01 -1.29 1.79 0 0 0.43 -0.75 0.86 -1.04 -0.63 0.73 -0.22 0.31 0 0 -0.43 0.73 0.43 -0.74 0.86 -1.05 0 0 -0.85 1.05 0 0 0 -0.01 0.86 -1.05 0 0 -0.86 1.05 0.01 0 0 0 0 -0.01 0.86 -1.05 0 0 -0.86 1.05 0.86 -1.05 -0.85 1.05 0.85 -1.05 0.01 -0.01 -0.86 1.05 0.53 -0.69 -0.18 0.22zm0.18 -0.22c2.48,-2.87 6.82,-3.18 9.69,-0.69 2.87,2.48 3.18,6.83 0.7,9.69l-10.39 -9zm240.78 -279.89l-230.21 288.68 -10.75 -8.57 230.21 -288.68 2.39 -1.91 8.36 10.48zm-10.75 -8.57c2.37,-2.97 6.69,-3.46 9.66,-1.09 2.97,2.36 3.46,6.69 1.09,9.66l-10.75 -8.57zm-368.86 176.87l371.25 -178.78 5.97 12.39 -371.25 178.78 -9.69 -7.73 3.72 -4.66zm5.97 12.39c-3.42,1.64 -7.53,0.21 -9.18,-3.21 -1.65,-3.42 -0.21,-7.53 3.21,-9.18l5.97 12.39zm-101.38 394.01l91.69 -401.74 13.41 3.06 -91.7 401.74 -1.32 2.75 -12.08 -5.81zm13.4 3.06c-0.84,3.7 -4.53,6.01 -8.23,5.17 -3.7,-0.85 -6.02,-4.53 -5.17,-8.23l13.4 3.06zm231.36 -289.02l-232.68 291.77 -10.75 -8.57 232.68 -291.77 11.14 8.03 -0.39 0.54zm-10.75 -8.57c2.37,-2.97 6.69,-3.46 9.66,-1.09 2.97,2.36 3.46,6.69 1.09,9.66l-10.75 -8.57z"/>
   </g>
   <g>
    <path class="fil30" d="M6446.32 1285.66l-246.58 -309.18 10.75 -8.58 246.58 309.19 1.49 4.01 -12.24 4.56zm10.75 -8.57c2.36,2.97 1.88,7.3 -1.09,9.66 -2.97,2.37 -7.3,1.88 -9.66,-1.09l10.75 -8.57zm-21.98 -584.93l23.47 588.94 -13.74 0.55 -23.47 -588.94 1.49 -4.56 12.25 4.01zm-13.74 0.55c-0.15,-3.79 2.8,-6.99 6.59,-7.14 3.8,-0.15 7,2.8 7.15,6.59l-13.74 0.55zm-221.61 275.19l223.1 -279.75 10.75 8.58 -223.1 279.75 -10.75 0 0 -8.58zm10.75 8.58c-2.36,2.96 -6.69,3.45 -9.66,1.08 -2.96,-2.36 -3.45,-6.69 -1.09,-9.66l10.75 8.58z"/>
   </g>
   <g>
    <path class="fil30" d="M6787.21 239.82l354.99 170.95 -5.96 12.39 -355 -170.96 -2.39 -10.48 8.36 -1.9zm-5.97 12.38c-3.42,-1.64 -4.86,-5.75 -3.21,-9.17 1.65,-3.42 5.76,-4.86 9.18,-3.21l-5.97 12.38zm-223.32 266.57l220.93 -277.05 10.75 8.58 -220.93 277.04 -4.13 2.47 -6.62 -11.04zm10.75 8.57c-2.36,2.97 -6.69,3.45 -9.66,1.09 -2.97,-2.37 -3.45,-6.7 -1.09,-9.66l10.75 8.57zm571.79 -103.62l-575.92 106.09 -2.49 -13.52 575.92 -106.09 4.23 0.57 -1.74 12.95zm-2.49 -13.52c3.74,-0.69 7.32,1.78 8.01,5.52 0.69,3.73 -1.78,7.32 -5.52,8l-2.49 -13.52z"/>
   </g>
  </g>
  <g id="JAX">
   <polygon class="fil29 str10" points="4783.33,2290.55 4716.66,2406.05 4850,2406.05 4916.67,2290.55 "/>
   <polygon class="fil29 str10" points="4650,2521.52 4716.66,2406.05 4850,2406.05 4783.33,2521.52 "/>
   <polygon class="fil29 str10" points="4983.33,2406.05 4850,2406.05 4783.33,2521.52 4916.67,2521.52 "/>
   <polygon class="fil29 str10" points="5116.67,2406.05 4983.33,2406.05 4916.67,2521.52 5050,2521.52 "/>
   <polygon class="fil29 str10" points="5050,2290.55 4983.33,2406.05 5116.67,2406.05 5183.33,2290.55 "/>
   <polygon class="fil29 str10" points="5116.67,2175.09 5050,2290.55 5183.33,2290.55 5250,2175.09 "/>
   <polygon class="fil29 str10" points="5183.33,2059.62 5116.67,2175.09 5250,2175.09 5316.67,2059.62 "/>
   <polygon class="fil29 str10" points="5250,1944.15 5183.33,2059.62 5316.67,2059.62 5383.33,1944.15 "/>
   <polygon class="fil29 str10" points="4650,2521.52 4716.66,2636.98 4850,2636.98 4783.33,2521.52 "/>
   <polygon class="fil29 str10" points="4983.33,2636.98 4850,2636.98 4783.33,2521.52 4916.67,2521.52 "/>
   <polygon class="fil29 str10" points="5116.67,2636.98 4983.33,2636.98 4916.67,2521.52 5050,2521.52 "/>
   <polygon class="fil29 str10" points="5183.33,2521.52 5116.67,2406.05 5050,2521.52 5116.67,2636.98 "/>
   <polygon class="fil29 str10" points="5316.67,2290.55 5250,2175.09 5183.33,2290.55 "/>
   <polygon class="fil29 str10" points="5316.67,2059.62 5250,2175.09 5316.67,2290.55 5383.33,2175.09 "/>
   <polygon class="fil29 str10" points="4983.33,2406.05 4916.67,2290.55 4850,2406.05 "/>
   <polygon class="fil29 str10" points="5316.67,2290.55 5183.33,2290.55 5116.67,2406.05 5250,2406.05 "/>
   <polygon class="fil29 str10" points="5450,2290.55 5316.67,2290.55 5250,2406.05 5383.33,2406.05 "/>
   <polygon class="fil29 str10" points="5583.33,2059.62 5516.67,1944.15 5450,2059.62 5516.67,2175.09 "/>
   <polygon class="fil29 str10" points="5650,2175.09 5583.33,2059.62 5516.67,2175.09 5583.33,2290.55 "/>
   <polygon class="fil29 str10" points="5716.67,2290.55 5650,2175.09 5583.33,2290.55 5650,2406.05 "/>
   <polygon class="fil29 str10" points="5783.34,2406.05 5716.67,2290.55 5650,2406.05 5716.67,2521.52 "/>
   <polygon class="fil29 str10" points="5850,2521.52 5783.34,2406.05 5716.67,2521.52 5783.34,2636.98 "/>
   <polygon class="fil29 str10" points="5783.34,1944.15 5716.67,2059.62 5783.34,2175.09 5850,2059.62 "/>
   <polygon class="fil29 str10" points="5650,2175.09 5716.67,2059.62 5783.34,2175.09 5716.67,2290.55 "/>
   <polygon class="fil29 str10" points="5583.33,2290.55 5516.67,2406.05 5583.33,2521.52 5650,2406.05 "/>
   <polygon class="fil29 str10" points="5516.67,2636.98 5450,2521.52 5516.67,2406.05 5583.33,2521.52 "/>
   <polygon class="fil29 str10" points="5383.33,2636.98 5316.67,2521.52 5450,2521.52 5516.67,2636.98 "/>
   <polygon class="fil29 str10" points="5250,2406.05 5116.67,2406.05 5183.33,2521.52 5316.67,2521.52 "/>
   <polygon class="fil29 str10" points="5383.33,2406.05 5250,2406.05 5316.67,2521.52 "/>
   <polygon class="fil29 str10" points="5383.33,2175.09 5450,2290.55 5583.33,2290.55 5516.67,2175.09 "/>
   <polygon class="fil29 str10" points="5450,2059.62 5316.67,2059.62 5383.33,2175.09 5516.67,2175.09 "/>
   <polygon class="fil29 str10" points="5783.34,2636.98 5716.67,2521.52 5583.33,2521.52 5650,2636.98 "/>
   <polygon class="fil29 str10" points="5650,2406.05 5583.33,2521.52 5716.67,2521.52 "/>
   <polygon class="fil29 str10" points="5516.67,1944.15 5383.33,1944.15 5316.67,2059.62 5450,2059.62 "/>
   <polygon class="fil29 str10" points="5516.67,2406.05 5383.33,2406.05 5316.67,2521.52 5450,2521.52 "/>
   <polygon class="fil29 str10" points="5583.33,2290.55 5450,2290.55 5383.33,2406.05 5516.67,2406.05 "/>
   <polygon class="fil29 str10" points="5783.34,1944.15 5650,1944.15 5583.33,2059.62 5716.67,2059.62 "/>
   <polygon class="fil29 str10" points="5650,2175.09 5583.33,2059.62 5716.67,2059.62 "/>
  </g>
  <g id="Angular">
   <polygon class="fil26 str11" points="2250,3240.51 1737.96,3423.11 1816.05,4100.16 2250,4340.51 2683.95,4100.16 2762.04,3423.11 "/>
   <polygon class="fil29 str12" points="2250,3820.21 2343.5,3820.21 2250,3595.26 2156.5,3820.21 "/>
   <polygon class="fil26 str13" points="2250,3362.06 1929.9,4079.81 2049.25,4079.81 2113.6,3919.21 2385.3,3919.21 2449.65,4079.81 2569,4079.81 "/>
  </g>
 </g>
</svg>
