<?xml version="1.0" encoding="UTF-8" standalone="no"?>
<svg
   xmlns:dc="http://purl.org/dc/elements/1.1/"
   xmlns:cc="http://creativecommons.org/ns#"
   xmlns:rdf="http://www.w3.org/1999/02/22-rdf-syntax-ns#"
   xmlns:svg="http://www.w3.org/2000/svg"
   xmlns="http://www.w3.org/2000/svg"
   xmlns:sodipodi="http://sodipodi.sourceforge.net/DTD/sodipodi-0.dtd"
   xmlns:inkscape="http://www.inkscape.org/namespaces/inkscape"
   id="svg1241"
   sodipodi:docname="software-delivery-toolset.svg"
   inkscape:version="1.0 (4035a4f, 2020-05-01)"
   sodipodi:version="0.32"
   enable-background="new 0 0 2486.4 2292.1"
   viewBox="0 0 63500 38100"
   style="shape-rendering:geometricPrecision; text-rendering:geometricPrecision; image-rendering:optimizeQuality; fill-rule:evenodd; clip-rule:evenodd"
   version="1.1"
   height="381mm"
   width="635mm"
   xml:space="preserve"><metadata
   id="metadata1245"><rdf:RDF><cc:Work
       rdf:about=""><dc:format>image/svg+xml</dc:format><dc:type
         rdf:resource="http://purl.org/dc/dcmitype/StillImage" /><dc:title></dc:title></cc:Work></rdf:RDF></metadata><sodipodi:namedview
   inkscape:current-layer="svg1241"
   inkscape:window-maximized="0"
   inkscape:window-y="80"
   inkscape:window-x="108"
   inkscape:cy="720"
   inkscape:cx="1200"
   inkscape:zoom="0.29666667"
   showgrid="false"
   id="namedview1243"
   inkscape:window-height="480"
   inkscape:window-width="776"
   inkscape:pageshadow="2"
   inkscape:pageopacity="0"
   guidetolerance="10"
   gridtolerance="10"
   objecttolerance="10"
   borderopacity="1"
   bordercolor="#666666"
   pagecolor="#ffffff" />
 <defs
   id="defs835">
  <style
   id="style833"
   type="text/css">
   <![CDATA[
    .str11 {stroke:#DADADA;stroke-width:84.64}
    .str3 {stroke:#DADADA;stroke-width:84.66}
    .str14 {stroke:#DADADA;stroke-width:31.52}
    .str12 {stroke:#DADADA;stroke-width:126.98}
    .str2 {stroke:#DADADA;stroke-width:126.99}
    .str15 {stroke:#DADADA;stroke-width:126.99}
    .str7 {stroke:#DADADA;stroke-width:127.01}
    .str4 {stroke:#DADADA;stroke-width:101.59}
    .str6 {stroke:#DADADA;stroke-width:7.62}
    .str13 {stroke:#DADADA;stroke-width:126.99;stroke-linecap:round}
    .str8 {stroke:#DADADA;stroke-width:101.57;stroke-linecap:round}
    .str9 {stroke:#DADADA;stroke-width:101.59;stroke-linecap:round}
    .str10 {stroke:#DADADA;stroke-width:84.64;stroke-linecap:round;stroke-linejoin:round}
    .str5 {stroke:#DADADA;stroke-width:8.46;stroke-linecap:round;stroke-linejoin:round}
    .str1 {stroke:#DADADA;stroke-width:126.99;stroke-linecap:round;stroke-linejoin:round}
    .str0 {stroke:#2B2A29;stroke-width:157.24}
    .fil26 {fill:none}
    .fil29 {fill:none;fill-rule:nonzero}
    .fil7 {fill:#00546B}
    .fil3 {fill:#079948}
    .fil0 {fill:#1A1918}
    .fil18 {fill:#1D91B4}
    .fil11 {fill:#256EA5}
    .fil13 {fill:#264970}
    .fil12 {fill:#2EB67D}
    .fil15 {fill:#326DE6}
    .fil19 {fill:#40BE46}
    .fil1 {fill:#4285F4}
    .fil22 {fill:#499CD2}
    .fil6 {fill:#727272}
    .fil14 {fill:#81B5A1}
    .fil5 {fill:#952225}
    .fil16 {fill:#BE2742}
    .fil10 {fill:#CC0000}
    .fil20 {fill:#D1D1D1}
    .fil2 {fill:#D33833}
    .fil27 {fill:#DADADA}
    .fil24 {fill:#DFDFDF}
    .fil8 {fill:#E24329}
    .fil17 {fill:#E2685D}
    .fil23 {fill:#E8E8E8}
    .fil25 {fill:#EF9325}
    .fil9 {fill:#F04E98}
    .fil21 {fill:#F583B7}
    .fil4 {fill:#F8A6CC}
    .fil30 {fill:white}
    .fil28 {fill:#DADADA;fill-rule:nonzero}
   ]]>
  </style>
 </defs>
<symbol
   viewBox="453405 -241683 38092 38092"
   id="Fm104-104-0">
 <polygon
   id="polygon837"
   points="453484,-241604 491419,-241604 491419,-203669 453484,-203669 "
   class="fil0 str0" />
</symbol>
<symbol
   viewBox="453405 -507266 38092 38100"
   id="Fm125-125-0">
 <polygon
   id="polygon840"
   points="453484,-507188 491419,-507188 491419,-469245 453484,-469245 "
   class="fil1 str0" />
</symbol>
<symbol
   viewBox="453405 -14042 38092 38092"
   id="Fm86-86-0">
 <polygon
   id="polygon843"
   points="453484,-13963 491419,-13963 491419,23972 453484,23972 "
   class="fil2 str0" />
</symbol>
<symbol
   viewBox="377614 -393446 38092 38100"
   id="Fm173-173-0">
 <polygon
   id="polygon846"
   points="377693,-393367 415628,-393367 415628,-355424 377693,-355424 "
   class="fil3 str0" />
</symbol>
<symbol
   viewBox="453405 99779 38092 38092"
   id="Fm216-216-0">
 <polygon
   id="polygon849"
   points="453484,99857 491419,99857 491419,137792 453484,137792 "
   class="fil4 str0" />
</symbol>
<symbol
   viewBox="453405 -127862 38092 38092"
   id="Fm95-95-0">
 <polygon
   id="polygon852"
   points="453484,-127784 491419,-127784 491419,-89849 453484,-89849 "
   class="fil5 str0" />
</symbol>
<symbol
   viewBox="681117 61836 38092 38100"
   id="Fm213-213-0">
 <polygon
   id="polygon855"
   points="681195,61914 719130,61914 719130,99857 681195,99857 "
   class="fil6 str0" />
</symbol>
<symbol
   viewBox="377614 -279625 38092 38100"
   id="Fm164-164-0">
 <polygon
   id="polygon858"
   points="377693,-279547 415628,-279547 415628,-241604 377693,-241604 "
   class="fil7 str0" />
</symbol>
<symbol
   viewBox="453405 -355503 38092 38100"
   id="Fm113-113-0">
 <polygon
   id="polygon861"
   points="453484,-355424 491419,-355424 491419,-317482 453484,-317482 "
   class="fil8 str0" />
</symbol>
<symbol
   viewBox="567226 99779 38092 38092"
   id="Fm222-222-0">
 <polygon
   id="polygon864"
   points="567304,99857 605239,99857 605239,137792 567304,137792 "
   class="fil9 str0" />
</symbol>
<symbol
   viewBox="377614 -317560 38092 38092"
   id="Fm167-167-0">
 <polygon
   id="polygon867"
   points="377693,-317482 415628,-317482 415628,-279547 377693,-279547 "
   class="fil10 str0" />
</symbol>
<symbol
   viewBox="453405 -393446 38092 38100"
   id="Fm116-116-0">
 <polygon
   id="polygon870"
   points="453484,-393367 491419,-393367 491419,-355424 453484,-355424 "
   class="fil3 str0" />
</symbol>
<symbol
   viewBox="453405 -469323 38092 38100"
   id="Fm122-122-0">
 <polygon
   id="polygon873"
   points="453484,-469245 491419,-469245 491419,-431302 453484,-431302 "
   class="fil11 str0" />
</symbol>
<symbol
   viewBox="377614 -583144 38092 38100"
   id="Fm188-188-0">
 <polygon
   id="polygon876"
   points="377693,-583065 415628,-583065 415628,-545122 377693,-545122 "
   class="fil12 str0" />
</symbol>
<symbol
   viewBox="453405 -621087 38092 38100"
   id="Fm134-134-0">
 <polygon
   id="polygon879"
   points="453484,-621008 491419,-621008 491419,-583065 453484,-583065 "
   class="fil13 str0" />
</symbol>
<symbol
   viewBox="453405 -583144 38092 38100"
   id="Fm131-131-0">
 <polygon
   id="polygon882"
   points="453484,-583065 491419,-583065 491419,-545122 453484,-545122 "
   class="fil12 str0" />
</symbol>
<symbol
   viewBox="453405 -659022 38092 38092"
   id="Fm137-137-0">
 <polygon
   id="polygon885"
   points="453484,-658943 491419,-658943 491419,-621008 453484,-621008 "
   class="fil14 str0" />
</symbol>
<symbol
   viewBox="377614 -14042 38092 38092"
   id="Fm143-143-0">
 <polygon
   id="polygon888"
   points="377693,-13963 415628,-13963 415628,23972 377693,23972 "
   class="fil2 str0" />
</symbol>
<symbol
   viewBox="377614 -469323 38092 38100"
   id="Fm179-179-0">
 <polygon
   id="polygon891"
   points="377693,-469245 415628,-469245 415628,-431302 377693,-431302 "
   class="fil11 str0" />
</symbol>
<symbol
   viewBox="453405 -545201 38092 38092"
   id="Fm128-128-0">
 <polygon
   id="polygon894"
   points="453484,-545122 491419,-545122 491419,-507188 453484,-507188 "
   class="fil15 str0" />
</symbol>
<symbol
   viewBox="377614 -621087 38092 38100"
   id="Fm191-191-0">
 <polygon
   id="polygon897"
   points="377693,-621008 415628,-621008 415628,-583065 377693,-583065 "
   class="fil13 str0" />
</symbol>
<symbol
   viewBox="377614 -355503 38092 38100"
   id="Fm170-170-0">
 <polygon
   id="polygon900"
   points="377693,-355424 415628,-355424 415628,-317482 377693,-317482 "
   class="fil8 str0" />
</symbol>
<symbol
   viewBox="377614 -545201 38092 38092"
   id="Fm185-185-0">
 <polygon
   id="polygon903"
   points="377693,-545122 415628,-545122 415628,-507188 377693,-507188 "
   class="fil15 str0" />
</symbol>
<symbol
   viewBox="453405 -89927 38092 38100"
   id="Fm92-92-0">
 <polygon
   id="polygon906"
   points="453484,-89849 491419,-89849 491419,-51906 453484,-51906 "
   class="fil16 str0" />
</symbol>
<symbol
   viewBox="453405 -165805 38092 38100"
   id="Fm98-98-0">
 <polygon
   id="polygon909"
   points="453484,-165726 491419,-165726 491419,-127784 453484,-127784 "
   class="fil17 str0" />
</symbol>
<symbol
   viewBox="453405 -203748 38092 38100"
   id="Fm101-101-0">
 <polygon
   id="polygon912"
   points="453484,-203669 491419,-203669 491419,-165726 453484,-165726 "
   class="fil18 str0" />
</symbol>
<symbol
   viewBox="377614 -51985 38092 38100"
   id="Fm146-146-0">
 <polygon
   id="polygon915"
   points="377693,-51906 415628,-51906 415628,-13963 377693,-13963 "
   class="fil19 str0" />
</symbol>
<symbol
   viewBox="681117 99779 38092 38092"
   id="Fm225-225-0">
 <polygon
   id="polygon918"
   points="681195,99857 719130,99857 719130,137792 681195,137792 "
   class="fil9 str0" />
</symbol>
<symbol
   viewBox="377614 -241683 38092 38092"
   id="Fm161-161-0">
 <polygon
   id="polygon921"
   points="377693,-241604 415628,-241604 415628,-203669 377693,-203669 "
   class="fil0 str0" />
</symbol>
<symbol
   viewBox="567226 61836 38092 38100"
   id="Fm210-210-0">
 <polygon
   id="polygon924"
   points="567304,61914 605239,61914 605239,99857 567304,99857 "
   class="fil20 str0" />
</symbol>
<symbol
   viewBox="377614 -89927 38092 38100"
   id="Fm149-149-0">
 <polygon
   id="polygon927"
   points="377693,-89849 415628,-89849 415628,-51906 377693,-51906 "
   class="fil16 str0" />
</symbol>
<symbol
   viewBox="377614 99779 38092 38092"
   id="Fm219-219-0">
 <polygon
   id="polygon930"
   points="377693,99857 415628,99857 415628,137792 377693,137792 "
   class="fil21 str0" />
</symbol>
<symbol
   viewBox="377614 -127862 38092 38092"
   id="Fm152-152-0">
 <polygon
   id="polygon933"
   points="377693,-127784 415628,-127784 415628,-89849 377693,-89849 "
   class="fil5 str0" />
</symbol>
<symbol
   viewBox="453405 -279625 38092 38100"
   id="Fm107-107-0">
 <polygon
   id="polygon936"
   points="453484,-279547 491419,-279547 491419,-241604 453484,-241604 "
   class="fil7 str0" />
</symbol>
<symbol
   viewBox="377614 -507266 38092 38100"
   id="Fm182-182-0">
 <polygon
   id="polygon939"
   points="377693,-507188 415628,-507188 415628,-469245 377693,-469245 "
   class="fil1 str0" />
</symbol>
<symbol
   viewBox="377614 -165805 38092 38100"
   id="Fm155-155-0">
 <polygon
   id="polygon942"
   points="377693,-165726 415628,-165726 415628,-127784 377693,-127784 "
   class="fil17 str0" />
</symbol>
<symbol
   viewBox="453405 23893 38092 38100"
   id="Fm76-76-0">
 <polygon
   id="polygon945"
   points="453484,23972 491419,23972 491419,61914 453484,61914 "
   class="fil22 str0" />
</symbol>
<symbol
   viewBox="453405 -317560 38092 38092"
   id="Fm110-110-0">
 <polygon
   id="polygon948"
   points="453484,-317482 491419,-317482 491419,-279547 453484,-279547 "
   class="fil10 str0" />
</symbol>
<symbol
   viewBox="453405 61836 38092 38100"
   id="Fm204-204-0">
 <polygon
   id="polygon951"
   points="453484,61914 491419,61914 491419,99857 453484,99857 "
   class="fil23 str0" />
</symbol>
<symbol
   viewBox="377614 61836 38092 38100"
   id="Fm207-207-0">
 <polygon
   id="polygon954"
   points="377693,61914 415628,61914 415628,99857 377693,99857 "
   class="fil24 str0" />
</symbol>
<symbol
   viewBox="377614 -659022 38092 38092"
   id="Fm194-194-0">
 <polygon
   id="polygon957"
   points="377693,-658943 415628,-658943 415628,-621008 377693,-621008 "
   class="fil14 str0" />
</symbol>
<symbol
   viewBox="377614 -203748 38092 38100"
   id="Fm158-158-0">
 <polygon
   id="polygon960"
   points="377693,-203669 415628,-203669 415628,-165726 377693,-165726 "
   class="fil18 str0" />
</symbol>
<symbol
   viewBox="453405 -431381 38092 38092"
   id="Fm119-119-0">
 <polygon
   id="polygon963"
   points="453484,-431302 491419,-431302 491419,-393367 453484,-393367 "
   class="fil25 str0" />
</symbol>
<symbol
   viewBox="377614 -431381 38092 38092"
   id="Fm176-176-0">
 <polygon
   id="polygon966"
   points="377693,-431302 415628,-431302 415628,-393367 377693,-393367 "
   class="fil25 str0" />
</symbol>
<symbol
   viewBox="377614 23893 38092 38100"
   id="Fm140-140-0">
 <polygon
   id="polygon969"
   points="377693,23972 415628,23972 415628,61914 377693,61914 "
   class="fil22 str0" />
</symbol>
<symbol
   viewBox="453405 -51985 38092 38100"
   id="Fm89-89-0">
 <polygon
   id="polygon972"
   points="453484,-51906 491419,-51906 491419,-13963 453484,-13963 "
   class="fil19 str0" />
</symbol>
 <g
   id="Warstwa_x0020_1">
  <metadata
   id="CorelCorpID_0Corel-Layer" />
  <path
   d="M33722 34135l-718 429c-19,11 -33,24 -33,47l0 187c0,23 15,33 34,22l729 -443c19,-11 22,-32 22,-55l0 -166c0,-23 -15,-32 -34,-21z"
   class="fil26 str1"
   id="Fill-4" />
  <path
   d="M32193 32554c24,-12 43,3 43,33l3 248c104,-41 194,-52 276,-33 17,4 25,29 18,57l-55 220c-4,17 -13,34 -25,44 -4,5 -9,8 -14,11 -7,4 -15,5 -21,3 -38,-8 -127,-28 -266,43 -147,74 -198,202 -197,296 1,113 59,147 259,151 266,4 381,121 384,389 3,263 -138,546 -353,719l5 246c0,30 -19,64 -42,75l-146 84c-23,12 -42,-2 -43,-32l-2 -242c-125,52 -251,64 -332,32 -15,-6 -22,-28 -16,-54l53 -222c4,-18 14,-35 26,-46 5,-5 9,-8 14,-10 8,-5 16,-5 23,-3 87,29 199,16 305,-38 136,-69 227,-208 226,-345 -1,-125 -69,-177 -234,-178 -209,0 -404,-41 -407,-349 -3,-254 129,-518 338,-685l-3 -248c0,-31 19,-64 43,-76l140 -90z"
   class="fil26 str1"
   id="Fill-4_0" />
  <path
   d="M34477 29392l-2882 -1711c-172,-102 -364,-153 -556,-153 -192,0 -384,51 -556,153l-2882 1711c-344,204 -556,582 -556,990l0 3422c0,408 212,786 556,990l2882 1711c172,102 364,153 556,153 192,0 384,-51 556,-153l2882 -1711c344,-204 556,-582 556,-990l0 -3422c0,-408 -212,-786 -556,-990z"
   class="fil26 str1"
   id="Fill-4_1" />
  <path
   d="M30584 36330l-2883 -1711c-281,-168 -457,-480 -457,-815l0 -3422c0,-335 176,-648 457,-815l2883 -1711c138,-82 295,-125 455,-125 160,0 317,43 455,125l2883 1711c237,141 397,385 443,659 -96,-204 -312,-259 -563,-113l-2727 1685c-340,199 -590,422 -591,832l0 3360c0,245 99,404 252,450 -50,9 -101,15 -152,15 -160,0 -317,-43 -455,-125"
   class="fil26 str1"
   id="Fill-4_2" />
 </g>
 <g
   id="Warstwa_x0020_1_0">
  <metadata
   id="CorelCorpID_1Corel-Layer" />
  <g
   id="_2302008203824">
   <path
   id="path982"
   d="M33022 8281c-183,292 -439,548 -731,731l-475 -1145c-25,-98 24,-195 109,-232 37,-12 73,-24 110,-24l1218 207c-61,171 -134,329 -231,463z"
   class="fil26 str2" />
   <path
   id="path984"
   d="M30244 9280l597 -1084c61,-73 158,-98 244,-49 36,24 60,49 97,85l0 0 585 1060c-624,104 -883,180 -1523,-12z"
   class="fil26 str2" />
   <path
   id="path986"
   d="M28770 7830l1206 -207c97,0 195,61 207,159 12,36 12,85 -12,121l0 0 -463 1121c-427,-280 -768,-706 -938,-1194z"
   class="fil26 str2" />
   <path
   id="path988"
   d="M28977 5771l901 804 0 0c86,73 98,195 25,281 -25,36 -49,48 -98,60l-1182 342c-36,-512 86,-1036 354,-1487z"
   class="fil26 str2" />
   <path
   id="path990"
   d="M30463 4699l244 -49 -61 1219 0 0c0,109 -98,195 -207,195 -37,0 -61,-13 -98,-25l-1011 -719c317,-304 707,-524 1133,-621z"
   class="fil26 str2" />
   <path
   id="path992"
   d="M32669 5320l-1000 707c-85,49 -207,37 -268,-49 -24,-24 -36,-49 -36,-85l-73 -1231c536,61 1011,293 1377,658l0 0z"
   class="fil26 str2" />
   <path
   id="path994"
   d="M33375 7258l-1157 -329 0 0c-110,-25 -171,-134 -147,-244 13,-37 25,-61 49,-85l914 -829c260,426 389,990 341,1487z"
   class="fil26 str2" />
   <polygon
   id="polygon996"
   points="31340,7282 31011,7440 30683,7282 30597,6929 30829,6636 31194,6636 31426,6929 "
   class="fil26 str2" />
   <path
   id="path998"
   d="M34557 7611c-134,-12 -280,-37 -414,-73 -37,-12 -73,-49 -86,-85 23,0 -82,-21 -97,-25 49,-353 24,-719 -49,-1072 -85,-353 -231,-695 -426,-999l73 -73c0,-41 7,-92 37,-122 109,-98 219,-171 341,-244 24,-12 48,-24 73,-36 48,-25 85,-49 134,-73 94,-95 205,-236 85,-390 -36,-49 -110,-86 -171,-86 -125,0 -201,98 -219,98 -36,36 -73,73 -97,110 -12,24 -37,36 -49,48 -87,100 -194,195 -305,268 -24,12 -48,25 -73,25 -32,0 -40,-12 -61,-13l-97 61c-98,-97 -207,-195 -305,-292 -451,-353 -1011,-573 -1584,-634l-12 -85c-36,-24 -49,-61 -61,-97 0,-134 0,-268 25,-415 0,-32 12,-58 12,-85 12,-49 12,-97 24,-146l0 -73c12,-122 -85,-244 -207,-256 -73,-12 -146,24 -207,85 -49,49 -73,110 -73,171l0 61c0,48 12,97 24,146 14,27 12,56 12,85 25,134 25,268 25,414 -12,37 -25,74 -61,98l-12 122c-134,12 -268,36 -415,61 -572,122 -1096,426 -1498,853l-73 -49 -13 0c-12,0 -24,12 -48,12 -25,0 -49,-12 -73,-24 -129,-100 -240,-215 -354,-329 -36,-37 -61,-73 -97,-110 -12,-12 -32,-19 -49,-37 -49,-36 -110,-60 -171,-60 -73,0 -134,24 -170,85 -152,228 66,368 231,451 25,12 49,24 73,36l0 0c122,73 244,146 342,244 49,49 40,126 36,97l0 0 73 73c-12,25 -24,37 -36,61 -378,597 -536,1304 -427,1999 -11,2 -108,36 -109,36 -13,37 -49,61 -86,85 -97,27 -452,68 -487,86 -184,0 -459,69 -414,317 58,260 329,154 499,97 102,-51 376,-115 488,-134 41,0 79,6 109,37 35,0 61,6 122,0 183,560 524,1060 999,1425 110,85 207,158 329,219l-61 86c0,16 55,43 25,134 -49,122 -122,243 -195,353 0,21 -169,244 -171,244 -58,116 -17,265 98,329 24,12 60,24 85,24 97,0 183,-61 231,-146 0,-4 78,-150 86,-183l24 -73c36,-133 97,-255 158,-378 25,-36 61,-61 98,-73 18,0 51,-89 61,-110 341,135 694,195 1060,195 219,0 438,-24 658,-85 134,-24 268,-73 390,-109l48 85c18,0 4,7 30,19 31,13 60,35 80,66 61,122 122,244 158,378 18,63 40,169 74,219 79,80 98,195 268,195 36,0 60,-12 97,-24 49,-25 98,-73 110,-134 28,-141 -37,-256 -134,-354 -21,-41 -49,-42 -49,-85 -85,-110 -146,-231 -195,-353 -12,-35 -12,-80 9,-116 4,-8 5,-18 15,-18l-36 -98c621,-378 1096,-962 1316,-1657l97 12c5,0 46,-48 122,-48 134,24 268,61 390,109 22,0 120,42 147,54 70,30 165,68 206,68 110,0 207,-73 244,-171 -12,-127 -100,-221 -203,-251 -66,-19 -92,-32 -148,-37 -38,-4 -141,-16 -173,-16z"
   class="fil26 str1" />
   <path
   id="path1000"
   d="M35434 3834c-61,-195 -207,-354 -390,-451l-3716 -1779c-215,-108 -529,-75 -739,26l-3586 1729c-183,85 -317,243 -366,450l-913 4009c-37,207 12,414 134,585l2570 3180c147,146 354,244 561,256l4094 0c219,24 426,-73 560,-256l2571 -3180c122,-171 171,-378 146,-585l-926 -3984 0 0z"
   class="fil26 str1" />
  </g>
  <g
   id="_2302008201488">
   <line
   id="line1003"
   y2="24384"
   x2="31014"
   y1="24384"
   x1="31014"
   class="fil26 str2" />
   <path
   id="path1005"
   d="M31014 24384c-387,0 -703,42 -946,126 -147,51 -137,40 -239,142 -166,166 -354,251 -602,251 -181,0 -466,-70 -850,-211 -388,-133 -731,-235 -1030,-302 -30,-8 -96,-21 -203,-38 -104,-17 -200,-34 -285,-50 -77,-17 -166,-42 -262,-76 -92,-29 -166,-67 -222,-114 -51,-46 -76,-99 -76,-157 0,-59 13,-123 38,-190 24,-40 50,-81 75,-118 26,-41 48,-78 63,-114 22,-34 37,-67 52,-104 15,-33 29,-66 37,-107 7,-37 15,-74 15,-111 0,-37 -15,-148 -45,-343 -29,-192 -23,-192 -23,-244 0,-163 37,-292 118,-384 82,-93 159,-141 240,-141l483 -21c131,3 223,-97 239,-202 15,-103 29,-169 101,-252 -72,-90 -129,-360 -94,-498 28,-114 86,-251 174,-415l129 -233c107,-199 188,-347 247,-495 63,-148 130,-369 203,-665 59,-258 200,-517 421,-775l277 -333c192,-221 318,-406 388,-554 70,-147 107,-332 107,-480 0,-74 -18,-295 -59,-665 -37,-369 -55,-738 -55,-1071 0,-582 191,-1308 809,-1514 261,-87 836,-164 1108,-74 111,0 258,37 443,111 651,326 873,779 960,1477 37,185 37,370 74,628 0,222 37,370 37,480 37,111 37,259 74,444 37,147 74,295 148,406 73,148 147,295 258,443 111,185 259,369 406,591 333,369 591,776 739,1182 185,369 296,849 296,1363 0,255 -6,502 -80,742 74,0 80,30 116,81 37,52 74,163 111,336l37 274c37,81 74,159 185,225 74,67 148,122 258,166 74,37 185,89 259,155 74,74 111,152 111,233 0,126 -37,218 -111,284 -74,74 -148,126 -259,159 -73,37 -221,111 -443,215 -184,110 -369,242 -554,399l-369 314c-148,144 -296,248 -406,311 -111,66 -259,99 -407,99l-258 -29c-296,-78 -480,-225 -591,-451 -591,-71 -1071,-107 -1367,-107"
   class="fil26 str2" />
   <path
   id="path1007"
   d="M28412 20890c0,-255 51,-530 187,-863 419,-1047 288,-1123 -162,-53 -155,333 -189,650 -189,875 0,167 41,311 114,436 82,122 277,299 588,525l391 254c418,362 687,614 687,761 0,78 -37,155 -148,240 -74,89 -174,133 -258,133 -8,0 -12,8 -12,26 0,4 37,78 115,222 155,210 440,314 883,314 728,0 1249,-276 1695,-812 74,-89 158,-223 168,-353 9,-109 -53,-175 -53,-327 0,-240 111,-506 184,-624 74,-118 148,-173 259,-173 74,0 148,25 222,81 37,-285 37,-437 37,-658 0,-511 -26,-960 -259,-1426 -180,-270 -366,-515 -443,-814 -72,-279 -31,-263 -174,-550 -132,-262 -243,-528 -372,-786 -867,560 -1240,917 -2003,229 0,111 -37,259 -110,407 -136,259 -375,679 -403,960 -15,74 -26,148 -33,148l-277 554c-299,554 -446,1038 -446,1463 0,85 8,173 23,262 -167,-115 -211,-244 -211,-451z"
   class="fil26 str2" />
   <path
   id="path1009"
   d="M29896 24585c24,-47 -52,-505 -74,-581 -91,-316 -308,-703 -621,-1101l-251 -336c-52,-70 -115,-177 -196,-321 -78,-144 -148,-255 -203,-333 -48,-85 -126,-170 -225,-254 -183,-162 -477,-244 -643,-19"
   class="fil26 str2" />
   <path
   id="path1011"
   d="M34788 21749c-68,0 -222,132 -342,245 -189,179 -366,438 -658,438 -295,0 -443,-81 -554,-240 -111,-178 -107,-506 -332,-506 -185,0 -259,192 -259,580l0 122c0,563 -74,1136 -74,1639 0,504 -178,499 -178,499"
   class="fil26 str2" />
   <path
   id="path1013"
   d="M31646 16984c-480,333 -851,490 -1146,490 -259,0 -516,-120 -738,-305 149,297 518,628 868,628 359,0 835,-343 1138,-557 129,-91 247,-201 247,-330 0,-61 -39,-90 -84,-128 -81,-69 -257,-155 -544,-241 -332,-148 -591,-222 -738,-222 -111,0 -296,74 -554,222 -222,148 -421,343 -421,491 98,109 181,220 285,286 454,287 1004,175 1640,-301"
   class="fil26 str3" />
   <path
   id="path1015"
   d="M31196 16457c-63,-63 -91,-692 265,-692 220,0 314,249 314,438 0,185 -83,322 -231,359 154,38 127,10 287,90 36,-222 100,-370 100,-554 0,-222 -64,-370 -137,-480 -111,-111 -222,-148 -370,-148 -244,0 -443,151 -443,406 0,185 48,370 121,517"
   class="fil26 str4" />
   <path
   id="path1017"
   d="M34637 21701c0,-82 -10,-178 -121,-285 -237,-237 -464,-231 -775,-261 323,-1002 -160,-1882 -455,-2095 -147,-106 -296,-57 -48,167 483,436 395,1409 291,1979 -147,59 -313,149 -423,363 0,180 1072,-728 1531,141"
   class="fil26 str2" />
   <path
   id="path1019"
   d="M29989 16589c-148,-74 -190,-233 -190,-417 0,-162 64,-370 259,-370 194,0 258,292 258,444l0 157 74 -40c0,-54 0,-172 0,-302 0,-233 -91,-517 -369,-517 -384,11 -465,740 -168,1051 7,7 73,51 80,58"
   class="fil26 str3" />
   <path
   id="path1021"
   d="M30456 16615l8 0c74,-74 111,-111 111,-148 0,0 0,-37 -37,-37 0,0 -37,37 -111,37 -37,37 -37,74 -37,111 0,30 0,35 19,37 19,1 47,0 47,0z"
   class="fil27 str5" />
   <path
   id="path1023"
   d="M31503 15994c51,21 81,87 111,178l74 0c-37,-37 -37,-74 -37,-111 0,-37 0,-74 -37,-111 -37,-37 -74,-74 -111,-74 0,0 -37,37 -74,37 0,31 25,36 34,57 1,2 1,4 2,6 0,0 34,16 38,18z"
   class="fil27 str6" />
   <path
   id="path1025"
   d="M30205 16147c-6,-170 -79,-271 -184,-271 0,0 0,37 -37,37l0 74 111 0c0,74 37,111 37,185l49 0 18 -7 6 -18z"
   class="fil27 str6" />
   <path
   id="path1027"
   d="M30860 16505c-14,-25 -39,-50 -64,-75l-73 -37c-37,0 -37,0 -37,37 0,37 37,74 37,74 36,37 36,74 73,74l37 0c0,0 29,0 36,-25 5,-21 0,-31 -9,-48z"
   class="fil27 str5" />
  </g>
  <path
   id="path1030"
   d="M58941 36686l-5894 -168c-375,-16 -776,-245 -1080,-561 -304,-316 -513,-721 -508,-1091 0,-1964 -12,-3966 28,-5927 6,-368 211,-724 506,-989 305,-275 709,-455 1088,-451 1917,33 3904,127 5822,214 198,4 403,54 596,141 199,89 387,217 543,369 25,25 26,65 2,90 -3,2 -6,4 -8,6l-363 309c-25,22 -63,20 -86,-4l0 0c-122,-126 -272,-234 -455,-312 -166,-70 -358,-115 -582,-125 -527,-25 -1453,-55 -2376,-82 -1262,-36 -2525,-66 -2757,-66l0 0 -10 0 0 0c-311,0 -687,60 -983,277 -295,217 -514,592 -517,1226l0 12 0 0 0 2581c0,578 230,1172 662,1569 187,172 421,295 709,303 145,4 343,10 576,18 128,39 232,74 327,122 11,6 21,12 31,18 -394,-14 -724,-26 -937,-32 -91,-2 -176,-15 -257,-35l-2 -8 -14 3c-201,-55 -373,-162 -519,-296 -458,-419 -703,-1049 -703,-1662l0 -2581 0 0 0 -12c3,-682 244,-1090 569,-1328 323,-237 726,-302 1058,-302l0 0 10 0 0 0c225,0 1489,30 2760,67 927,26 1855,57 2379,81 239,12 446,60 625,136 179,76 330,179 455,298l267 -228c-135,-121 -291,-223 -455,-296 -179,-80 -367,-127 -547,-130l-5822 -214c-347,-3 -718,163 -1001,418 -271,244 -459,567 -464,896l-28 5927c-5,336 190,708 472,1002 284,295 653,508 994,523l5893 168 4 0c400,0 746,-150 993,-390 256,-248 407,-592 407,-967l0 -5393 -161 135 0 2802c0,414 -166,747 -389,998 -325,366 -776,556 -1006,567 -31,1 -90,1 -171,1l0 -13c0,-1 4,-43 4,-114 76,1 131,1 161,-1 207,-10 617,-185 918,-524 204,-230 356,-535 356,-914l0 -2832c0,-21 11,-41 27,-52l284 -236c27,-23 67,-19 89,8 10,12 15,26 15,40l0 0 0 5528c0,410 -166,786 -446,1058 -270,262 -646,426 -1081,426 -3,0 -5,0 -8,-1zm-3440 -2601l71 3c-1,30 0,54 0,69l0 10 0 0c0,15 0,31 1,47l-57 -2c-2,-43 -8,-85 -15,-127z"
   class="fil28" />
  <path
   id="path1032"
   d="M52053 34323l963 -233 21 62c20,60 75,171 142,275 50,79 106,152 157,196 54,45 160,82 283,107 139,27 295,38 417,27 90,-9 160,-49 211,-102 66,-69 100,-158 106,-233 4,-62 -8,-114 -35,-158 -29,-47 -75,-85 -137,-117 -121,-61 -258,-102 -440,-155l-87 -26 0 0c-28,-8 -63,-18 -101,-28 -242,-67 -593,-163 -882,-359l-1 0c-139,-95 -236,-237 -302,-385 -99,-221 -130,-460 -132,-574 -1,-102 12,-232 43,-360 27,-108 67,-216 123,-309 73,-124 246,-334 542,-481 195,-97 444,-167 754,-167 382,0 655,62 855,141 202,81 327,178 416,250 182,146 461,649 462,651l41 74 -1005 361 -24 -69c-67,-197 -162,-328 -281,-409 -118,-81 -265,-113 -436,-113 -136,0 -225,33 -283,81 -79,64 -102,156 -102,222 0,54 16,115 66,170 56,61 153,119 314,161l62 16c359,93 898,234 1170,408 157,101 307,259 413,454 93,172 153,372 153,586 0,227 -45,403 -109,544 -64,141 -147,246 -224,330l0 1c-76,82 -205,219 -415,336 -209,117 -496,213 -885,213l0 -1c-393,-1 -788,-93 -1137,-319 -302,-196 -567,-491 -763,-912l0 0c-6,-13 -10,-20 -12,-25 -15,-27 -23,-41 -12,-73 14,-44 33,-47 71,-54 5,-1 11,-2 20,-4zm872 -64l-793 192c182,378 423,643 695,819 323,210 692,296 1059,297l0 0c361,0 625,-88 815,-194 190,-106 310,-232 379,-308l1 0c68,-76 142,-169 198,-293 57,-124 96,-281 96,-485 0,-189 -52,-366 -135,-518 -94,-172 -226,-312 -365,-401 -253,-162 -778,-299 -1128,-390l-62 -17c-191,-50 -311,-122 -384,-203 -79,-87 -104,-181 -104,-266 0,-98 36,-235 155,-332 81,-68 201,-115 374,-115 198,0 371,40 517,139 130,88 234,221 311,413l709 -256c-81,-139 -262,-438 -384,-535 -81,-66 -197,-156 -379,-229 -185,-73 -440,-130 -802,-130 -285,0 -513,63 -690,151 -265,132 -418,317 -483,426l0 0c-48,80 -83,175 -106,271 -29,116 -41,232 -39,324 1,102 29,316 119,517 56,126 138,246 252,324 271,183 608,276 839,339 36,10 70,19 104,29l1 0 86 26c189,56 332,98 464,165 86,44 152,100 195,170 43,69 62,150 56,243l0 1c-8,103 -55,227 -145,321 -73,76 -173,133 -303,145 -136,13 -306,2 -457,-29 -144,-28 -274,-76 -348,-138 -63,-53 -128,-138 -185,-228 -55,-85 -103,-176 -133,-245zm5557 -36c5,-310 -53,-1600 -1421,-1600 -1362,0 -1348,1368 -1346,1532l0 12 0 0c0,254 90,748 426,1096 216,224 535,388 1002,388 987,0 1257,-683 1320,-912l-713 -83c-54,162 -175,486 -571,486 -169,0 -296,-53 -390,-125 -151,-116 -214,-281 -235,-353 -34,-116 -26,-371 -26,-371l2 -70 1952 0zm-1421 -1744c1708,0 1562,1815 1561,1821l-4 67 -1947 -1c0,77 3,197 21,258 16,57 66,188 184,279 72,55 170,95 303,95 306,0 399,-277 441,-403 6,-18 11,-34 14,-43l20 -52 980 115 -12 74c-1,3 -173,1106 -1479,1106 -512,0 -865,-183 -1105,-432 -368,-382 -466,-920 -466,-1196l0 0 0 -10c-2,-180 -18,-1678 1489,-1678zm-540 1312c0,-2 -26,-734 620,-734 647,0 604,734 604,736l-3 69 -1219 0 -2 -71zm620 -590c-391,0 -462,361 -474,517l934 0c-8,-155 -70,-517 -460,-517z"
   class="fil28 str6" />
  <path
   id="path1034"
   d="M55704 29998l1631 2053 3931 -3273 -490 -984 -3331 2837 -1184 -1338 -557 705zm1564 2200l-1746 -2200 733 -928 1204 1361 3364 -2865 622 1249c-1377,1147 -2754,2294 -4132,3440l-45 -57z"
   class="fil28 str6" />
  <sodipodi:namedview
   inkscape:current-layer="svg2"
   inkscape:window-y="0"
   inkscape:window-x="0"
   inkscape:cy="71.887497"
   inkscape:cx="243.02499"
   inkscape:zoom="1.4340089"
   id="base"
   pagecolor="#ffffff"
   bordercolor="#666666"
   borderopacity="1.0"
   inkscape:pageopacity="0.0"
   inkscape:pageshadow="2"
   inkscape:window-width="791"
   inkscape:window-height="543" />
  <g
   id="_2302008191824">
   <path
   d="M5595 15667c-304,2 -594,28 -849,73 -753,133 -889,411 -889,924l0 677 1777 0 0 226 -1777 0 -667 0c-517,0 -969,311 -1111,901 -163,678 -170,1100 0,1807 127,526 428,901 945,901l611 0 0 -812c0,-587 508,-1104 1111,-1104l1775 0c495,0 889,-407 889,-903l0 -1693c0,-482 -406,-844 -889,-924 -305,-51 -622,-74 -926,-73zm-961 545c183,0 333,153 333,340 0,187 -150,338 -333,338 -184,0 -334,-151 -334,-338 0,-187 150,-340 334,-340z"
   class="fil26 str2"
   id="path1948" />
   <path
   d="M7632 17567l0 790c0,612 -519,1127 -1111,1127l-1775 0c-487,0 -889,416 -889,903l0 1693c0,481 419,765 889,903 562,165 1102,195 1775,0 448,-130 889,-390 889,-903l0 -678 -1776 0 0 -226 1776 0 889 0c517,0 709,-360 889,-901 185,-557 177,-1092 0,-1807 -128,-514 -372,-901 -889,-901l-667 0zm-999 4287c184,0 334,151 334,337 0,188 -150,340 -334,340 -184,0 -333,-152 -333,-340 0,-186 149,-337 333,-337z"
   class="fil26 str2"
   id="path1950" />
  </g>
  <sodipodi:namedview
   inkscape:current-layer="g10"
   inkscape:window-maximized="1"
   inkscape:window-y="25"
   inkscape:window-x="0"
   inkscape:cy="57.006248"
   inkscape:cx="136.48125"
   inkscape:zoom="2.697486"
   showgrid="false"
   id="namedview4"
   inkscape:window-height="719"
   inkscape:window-width="1366"
   inkscape:pageshadow="2"
   inkscape:pageopacity="0"
   guidetolerance="10"
   gridtolerance="10"
   objecttolerance="10"
   borderopacity="1"
   bordercolor="#666666"
   pagecolor="#ffffff" />
  <g
   id="_2441311183600">
   <path
   inkscape:connector-curvature="0"
   d="M18854 1554l4621 4621 -87 87 -4621 -4621 0 0 87 -87zm-964 87l-87 -87 0 0 27 -26 29 -25 30 -23 30 -21 32 -20 32 -17 32 -17 34 -14 34 -13 34 -11 34 -9 35 -8 36 -6 35 -4 36 -3 35 0 36 0 36 3 35 4 35 6 35 8 35 9 34 11 34 13 33 14 33 17 32 17 31 20 31 21 29 23 29 25 28 26 -87 87 -24 -22 -24 -20 -24 -19 -26 -18 -26 -16 -26 -15 -28 -14 -27 -12 -29 -10 -28 -10 -29 -7 -29 -7 -30 -5 -29 -3 -30 -2 -30 -1 -29 1 -30 2 -30 3 -29 5 -29 7 -29 7 -29 10 -28 10 -28 12 -27 14 -27 15 -26 16 -25 18 -25 19 -24 20 -23 22 0 0zm-1047 873l960 -960 87 87 -960 960 -87 0 0 -87zm0 87l-43 -44 43 -43 0 87zm1217 1217l-1217 -1217 87 -87 1218 1217 -24 102 -64 -15zm64 15l-36 12 -28 -27 64 15zm856 92l-87 87 0 0 -20 -19 -20 -18 -21 -18 -21 -16 -22 -16 -22 -14 -22 -14 -23 -13 -23 -12 -24 -11 -24 -11 -24 -9 -24 -9 -25 -8 -24 -7 -25 -6 -26 -5 -25 -4 -25 -3 -26 -3 -25 -2 -26 0 -25 0 -26 0 -25 2 -26 3 -25 3 -26 5 -25 5 -25 6 -25 7 -24 8 -40 -117 29 -9 29 -8 29 -7 29 -6 30 -5 29 -4 30 -4 30 -2 29 -1 30 0 30 1 30 2 29 3 30 4 29 5 29 6 30 7 28 8 29 9 28 10 29 11 27 12 28 13 27 15 27 15 26 16 26 17 25 18 25 19 24 21 23 21 23 22 0 0zm193 838l-88 87 -14 -64 8 -24 7 -25 6 -25 6 -26 4 -25 4 -26 3 -25 2 -26 1 -26 0 -25 -1 -26 -1 -26 -3 -25 -3 -26 -4 -25 -6 -26 -6 -25 -6 -25 -8 -24 -9 -25 -9 -24 -11 -24 -11 -24 -12 -23 -13 -23 -14 -23 -15 -22 -15 -22 -17 -21 -17 -21 -19 -21 -19 -20 87 -87 23 23 21 24 20 24 20 25 18 26 17 26 16 26 15 27 15 27 13 28 12 28 11 28 10 29 9 29 8 29 7 29 6 29 5 30 4 30 2 30 2 29 1 30 0 30 -1 30 -2 30 -4 30 -4 30 -5 29 -7 30 -7 29 -8 29 -10 29 -14 -64zm-88 87l-27 -27 13 -37 14 64zm1174 1173l-1174 -1173 88 -87 1173 1173 -24 102 -63 -15zm63 15l-36 12 -27 -27 63 15zm862 90l-87 88 -1 0 -19 -20 -21 -18 -21 -17 -21 -17 -22 -16 -22 -14 -23 -14 -23 -13 -23 -13 -24 -11 -24 -10 -24 -10 -25 -8 -24 -8 -25 -7 -26 -6 -25 -5 -25 -4 -26 -3 -26 -3 -25 -1 -26 -1 -26 0 -25 1 -26 2 -26 3 -25 3 -26 5 -25 5 -25 7 -25 7 -25 8 -40 -117 29 -9 29 -8 29 -8 29 -6 30 -5 30 -5 30 -3 29 -2 30 -1 30 -1 30 1 30 2 30 3 30 4 29 5 30 6 29 7 29 8 29 9 29 10 28 11 28 12 28 13 27 14 27 15 26 17 26 17 26 18 24 19 25 21 24 21 23 22 0 0zm-87 88l-1 0 -4 -5 5 5zm87 1146l-87 -87 0 0 26 -28 25 -29 23 -30 22 -30 19 -32 18 -32 17 -33 14 -34 13 -34 11 -34 10 -35 7 -36 6 -35 5 -36 2 -36 1 -36 -1 -36 -2 -35 -5 -36 -6 -36 -7 -35 -10 -35 -11 -35 -13 -34 -14 -33 -17 -33 -18 -32 -19 -32 -22 -31 -23 -29 -25 -29 -26 -28 87 -88 31 33 29 34 27 34 25 36 22 37 21 38 19 38 17 39 15 40 13 40 11 41 9 41 7 41 5 42 3 42 1 41 -1 42 -3 42 -5 42 -7 41 -9 41 -11 41 -13 40 -15 40 -17 39 -19 38 -21 38 -22 37 -25 35 -27 35 -29 34 -31 32 0 0zm-1235 0l88 -87 0 0 28 27 29 25 29 23 31 21 32 20 32 18 33 16 34 15 34 13 34 11 35 9 35 8 36 6 36 4 36 3 36 1 36 -1 35 -3 36 -4 36 -6 35 -8 35 -9 35 -11 34 -13 33 -15 33 -16 32 -18 32 -20 31 -21 29 -23 29 -25 29 -27 87 87 -33 31 -34 29 -34 27 -36 25 -37 23 -38 21 -38 19 -39 17 -40 15 -40 13 -41 11 -41 9 -41 7 -42 5 -42 3 -41 1 -42 -1 -42 -3 -42 -5 -41 -7 -41 -9 -41 -11 -40 -13 -40 -15 -39 -17 -38 -19 -38 -21 -37 -23 -36 -25 -34 -27 -34 -29 -33 -31 0 0zm-176 -882l87 -87 13 67 -9 26 -9 26 -9 26 -7 26 -6 27 -5 26 -4 27 -3 27 -2 27 -1 27 -1 27 1 27 2 27 2 27 4 27 5 27 5 27 7 26 7 26 9 26 9 26 11 25 11 25 13 25 13 24 14 24 15 24 17 23 17 23 18 22 19 21 21 21 -88 87 -23 -24 -22 -25 -22 -26 -20 -26 -19 -27 -17 -27 -17 -28 -16 -29 -14 -29 -13 -29 -13 -29 -11 -30 -10 -31 -8 -30 -8 -31 -6 -31 -6 -31 -4 -31 -3 -32 -2 -31 -1 -32 0 -31 2 -32 2 -31 4 -31 5 -32 6 -31 7 -31 8 -30 9 -31 11 -30 11 -30 14 67zm87 -87l29 29 -16 38 -13 -67zm-1094 -1094l1094 1094 -87 87 -1094 -1094 -18 -43 105 -44zm-105 44l0 -149 105 105 -105 44zm0 2879l0 -2879 123 0 0 2879 -89 55 -34 -55zm34 55l-34 -17 0 -38 34 55zm285 55l-87 87 0 0 -5 -6 -6 -5 -6 -6 -5 -5 -6 -5 -6 -5 -6 -5 -6 -5 -6 -5 -6 -5 -6 -5 -6 -5 -6 -4 -6 -5 -6 -5 -6 -4 -7 -4 -6 -5 -6 -4 -7 -4 -6 -4 -6 -4 -7 -4 -6 -4 -7 -4 -6 -4 -7 -4 -6 -3 -7 -4 -7 -3 -6 -4 -7 -3 55 -111 7 4 8 4 8 4 8 5 7 4 8 4 7 4 8 5 7 4 8 5 7 5 8 5 7 4 8 5 7 5 7 5 7 6 8 5 7 5 7 6 7 5 7 6 7 6 7 5 7 6 6 6 7 6 7 6 7 6 6 7 7 6 6 6 0 1zm0 -1l0 0 0 1 0 -1zm0 1235l-87 -87 0 0 27 -28 25 -29 23 -30 21 -31 20 -32 18 -32 16 -33 15 -33 13 -35 11 -34 9 -35 8 -35 6 -36 4 -36 3 -36 1 -36 -1 -35 -3 -36 -4 -36 -6 -36 -8 -35 -9 -35 -11 -34 -13 -34 -15 -34 -16 -33 -18 -32 -20 -32 -21 -30 -23 -30 -25 -29 -27 -28 87 -87 31 32 29 34 27 35 25 35 23 37 21 38 19 38 17 39 15 40 13 40 11 41 9 41 7 41 5 42 3 42 1 41 -1 42 -3 42 -5 42 -7 41 -9 41 -11 41 -13 40 -15 40 -17 39 -19 38 -21 38 -23 37 -25 36 -27 34 -29 34 -31 33 0 0zm-1234 0l88 -87 0 0 28 26 29 25 29 23 31 22 32 19 32 18 33 17 33 14 34 13 35 11 35 10 35 7 36 6 35 5 36 2 36 1 36 -1 36 -2 36 -5 35 -6 36 -7 35 -10 34 -11 34 -13 34 -14 33 -17 32 -18 32 -19 30 -22 30 -23 29 -25 28 -26 87 87 -32 31 -34 29 -35 27 -36 25 -36 23 -38 21 -38 19 -39 16 -40 15 -40 13 -41 11 -41 9 -42 7 -41 5 -42 3 -42 1 -42 -1 -41 -3 -42 -5 -41 -7 -41 -9 -41 -11 -40 -13 -40 -15 -39 -17 -39 -18 -37 -21 -37 -23 -36 -25 -34 -27 -34 -29 -33 -31 0 0zm0 -1235l88 88 0 0 -27 28 -25 29 -23 30 -22 30 -19 32 -18 32 -17 33 -14 34 -13 34 -11 34 -10 35 -7 35 -6 36 -5 36 -2 36 -1 35 1 36 2 36 5 36 6 36 7 35 10 35 11 34 13 35 14 33 17 33 18 32 19 32 22 31 23 30 25 29 27 28 -88 87 -31 -33 -29 -34 -26 -34 -25 -36 -23 -37 -21 -38 -19 -38 -17 -39 -15 -40 -13 -40 -11 -41 -9 -41 -7 -41 -5 -42 -3 -42 -1 -42 1 -41 3 -42 5 -42 7 -41 9 -41 11 -41 13 -40 15 -40 17 -39 19 -38 21 -38 23 -37 25 -35 27 -35 28 -34 31 -32 0 -1zm248 -133l123 0 -38 57 -8 4 -9 3 -8 4 -8 4 -9 4 -8 4 -8 4 -8 4 -8 4 -8 5 -8 4 -8 5 -8 5 -8 5 -7 5 -8 5 -8 5 -7 5 -8 5 -8 6 -7 5 -7 6 -8 6 -7 6 -7 6 -8 6 -7 6 -7 6 -7 7 -7 6 -7 7 -6 7 -88 -88 8 -7 8 -8 8 -8 9 -7 8 -7 8 -8 8 -7 9 -7 8 -7 9 -6 9 -7 8 -6 9 -7 9 -6 9 -6 9 -6 9 -6 9 -6 9 -6 9 -5 9 -5 10 -6 9 -5 9 -5 10 -5 9 -5 10 -4 9 -5 10 -4 10 -5 9 -4 10 -4 -38 57zm123 0l0 42 -38 15 38 -57zm0 -2906l0 2906 -123 0 0 -2906 85 -57 38 57zm-38 -57l38 16 0 41 -38 -57zm-333 -76l88 -87 0 0 6 7 7 6 7 7 7 6 7 7 8 6 7 6 7 6 7 6 8 6 7 5 8 6 7 5 8 6 7 5 8 5 8 5 7 5 8 5 8 5 8 4 8 5 8 4 8 5 8 4 8 4 8 4 9 4 8 4 8 3 8 4 9 3 -47 114 -10 -4 -9 -4 -10 -4 -10 -4 -9 -5 -10 -5 -9 -4 -10 -5 -9 -5 -9 -5 -10 -6 -9 -5 -9 -6 -9 -5 -9 -6 -9 -6 -9 -6 -9 -6 -9 -6 -9 -7 -8 -6 -9 -7 -9 -7 -8 -7 -9 -7 -8 -7 -8 -7 -8 -7 -9 -8 -8 -7 -8 -8 -8 -8 0 0zm88 -87l0 0 0 0 0 0zm-262 -800l87 -87 13 68 -10 25 -9 26 -8 26 -8 27 -6 27 -5 26 -4 27 -4 27 -2 27 -1 28 -1 27 1 27 1 27 3 27 4 27 4 27 6 27 6 27 8 26 8 26 10 26 10 26 11 25 13 25 13 24 15 24 15 24 16 23 18 23 18 22 19 22 21 21 -88 87 -23 -24 -23 -26 -21 -25 -20 -27 -19 -27 -18 -28 -17 -28 -16 -28 -14 -29 -13 -30 -12 -30 -12 -30 -9 -30 -9 -31 -8 -31 -6 -31 -5 -31 -5 -32 -3 -31 -1 -32 -1 -32 0 -31 2 -32 3 -31 3 -32 5 -31 7 -31 7 -32 8 -30 10 -31 11 -30 11 -30 14 67zm87 -87l29 29 -16 39 -13 -68zm-1200 -1200l1200 1200 -87 87 -1200 -1200 0 -87 87 0zm-87 0l43 -43 44 43 -87 0zm-3169 3169l3169 -3169 87 87 -3168 3169 -88 -87 0 0zm88 964l-88 87 0 0 -26 -28 -25 -29 -23 -29 -21 -31 -19 -31 -18 -32 -16 -33 -15 -33 -13 -34 -11 -34 -9 -35 -8 -35 -6 -35 -4 -36 -3 -35 0 -36 0 -35 3 -36 4 -35 6 -36 8 -35 9 -34 11 -35 13 -33 15 -34 16 -32 18 -33 19 -31 21 -30 23 -30 25 -29 26 -27 88 87 -22 23 -21 24 -19 25 -18 25 -16 26 -15 27 -14 27 -12 28 -10 28 -9 29 -8 29 -7 29 -5 29 -3 30 -2 29 -1 30 1 30 2 30 3 29 5 30 7 29 8 29 9 28 10 29 12 27 14 28 15 26 16 26 18 26 19 24 21 24 22 24 0 0zm4533 4708l-4621 -4621 88 -87 4621 4620 0 0 -88 88zm964 -88l87 88 0 0 -27 26 -29 25 -30 22 -30 22 -32 19 -32 18 -32 16 -34 15 -33 13 -35 11 -34 9 -35 8 -36 6 -35 4 -36 2 -35 1 -36 -1 -35 -2 -36 -4 -35 -6 -35 -8 -35 -9 -34 -11 -34 -13 -33 -15 -33 -16 -32 -18 -31 -19 -31 -22 -29 -23 -29 -24 -28 -26 88 -88 23 22 24 21 24 19 26 18 26 16 27 15 27 13 27 13 29 10 28 9 29 8 29 7 30 5 29 3 30 2 30 1 29 -1 30 -2 30 -3 29 -5 29 -7 29 -8 29 -9 28 -11 28 -12 27 -13 27 -15 26 -16 25 -18 25 -19 24 -21 23 -22 0 0zm4687 -4512l-4600 4600 -87 -88 4600 -4599 87 87 0 0zm-87 -964l87 -87 0 0 26 28 25 28 23 30 21 30 20 32 17 32 17 33 14 33 13 34 11 34 9 35 8 35 6 35 4 35 3 36 0 36 0 35 -3 36 -4 35 -6 35 -8 35 -9 35 -11 34 -13 34 -14 34 -17 32 -17 32 -20 32 -21 30 -23 30 -25 29 -26 27 -87 -87 22 -23 20 -24 19 -25 18 -25 16 -26 15 -27 14 -27 12 -28 10 -28 10 -29 7 -29 7 -29 5 -29 3 -30 2 -30 1 -29 -1 -30 -2 -30 -3 -30 -5 -29 -7 -29 -7 -29 -10 -29 -10 -28 -12 -28 -14 -27 -15 -27 -16 -26 -18 -25 -19 -25 -20 -24 -22 -23 0 0z"
   class="fil28"
   id="path20" />
  </g>
  <g
   id="_2441311177904">
   <path
   id="path1043"
   d="M15158 16226c2,4 621,1281 2066,1350 -38,29 -75,60 -110,94 -1116,-99 -1736,-894 -1955,-1239l-32 1358c-40,52 -75,108 -105,168 15,-639 30,-1277 45,-1915l91 184zm3296 1263c1058,-163 1743,-518 2186,-886 569,-473 734,-966 776,-1090 30,-92 68,-151 108,-182 28,-21 57,-30 86,-26 29,3 55,18 78,43 33,38 59,104 70,194l0 1c310,2809 -157,4499 -997,5439 -32,-15 -64,-29 -97,-44 836,-914 1302,-2583 994,-5384 -9,-68 -26,-116 -47,-139 -5,-6 -9,-9 -12,-10 -3,0 -8,2 -14,7 -24,18 -49,62 -73,133 -43,130 -216,644 -808,1136 -438,364 -1106,716 -2121,889 -41,-30 -84,-57 -129,-81zm1819 3931c-459,325 -986,495 -1537,548 -611,59 -1252,-25 -1863,-196 -831,-233 -1610,-631 -2189,-1054 40,-10 78,-22 115,-36 561,397 1306,769 2101,992 601,168 1229,251 1826,193 519,-50 1014,-206 1448,-502 33,18 66,36 99,55zm-5277 -2660c-8,-12 -16,-24 -25,-35l0 -1 -5 -6c3,-5 6,-11 8,-16 7,20 14,39 22,58z"
   class="fil28 str6" />
   <path
   d="M16397 20464c1614,323 2436,23 2917,-348 -127,-164 -344,-344 -344,-344 0,0 564,157 762,413 122,156 122,276 92,420 -165,-59 -305,-105 -403,-136 -13,-18 -22,-36 -26,-53 -10,12 -19,24 -29,36 -64,-20 -100,-30 -100,-30 -260,-121 -344,106 -173,260 -540,306 -1482,211 -2696,-218z"
   class="fil29 str2"
   id="path6480" />
   <path
   d="M16796 18761c-147,352 -495,600 -900,600 -538,0 -974,-436 -974,-974 0,0 0,0 0,0 0,0 0,0 0,0 0,-538 436,-974 974,-974 441,0 814,294 934,697 -43,119 -66,248 -66,383 0,0 0,0 0,0 0,0 0,0 0,0 0,92 11,182 32,268z"
   class="fil29 str2"
   id="path4357" />
   <path
   id="path1047"
   d="M14889 18784l0 -1c-230,-318 -529,-540 -826,-641 -292,-99 -581,-82 -800,75l0 1c-218,157 -325,426 -323,734 2,314 119,668 348,986l0 0c230,318 529,540 826,641 292,100 582,83 800,-75l0 0c218,-157 325,-426 323,-735 -2,-314 -119,-667 -348,-985zm82 -59c242,335 365,710 367,1044 3,340 -119,640 -365,817l0 1c-247,177 -569,198 -891,89 -317,-108 -633,-343 -876,-679l0 0c-242,-336 -365,-710 -367,-1044 -3,-341 119,-640 365,-818l4 -2c246,-176 567,-196 887,-87 317,108 634,342 876,678l0 1z"
   class="fil28 str6" />
   <path
   d="M16593 18531c0,0 0,0 0,0 0,259 -210,469 -469,469 -259,0 -469,-210 -469,-469 0,0 0,0 0,0 0,0 0,0 0,0 0,-20 1,-40 4,-60 55,101 162,169 284,169 134,0 249,-82 299,-198 35,-81 35,-173 0,-254 -21,-49 -53,-92 -94,-125 248,12 445,217 445,468 0,0 0,0 0,0l0 0z"
   class="fil29 str2"
   id="path4359" />
   <path
   d="M14008 18976c-52,210 -214,364 -406,364 -177,0 -328,-130 -391,-313 -33,-93 -41,-194 -25,-291 37,-235 209,-413 416,-413 200,0 368,168 412,393 16,85 15,175 -6,260z"
   class="fil29 str7"
   id="path6446" />
   <path
   d="M16228 18470c-55,101 -162,170 -285,170 -179,0 -324,-146 -324,-325 0,-179 145,-325 324,-325 150,0 275,101 313,238 22,81 13,168 -28,242z"
   class="fil27 str7"
   id="path4361" />
   <path
   d="M19050 18493c0,0 0,0 0,0 0,631 -512,1143 -1143,1143 -631,0 -1143,-512 -1143,-1143 0,0 0,0 0,0 0,0 0,0 0,0 0,-632 512,-1144 1143,-1144 631,0 1143,512 1143,1144 0,0 0,0 0,0z"
   class="fil26 str7"
   id="path6462" />
   <path
   d="M18673 18896c-88,187 -278,317 -498,317 -273,0 -499,-198 -543,-458 -9,-54 -10,-109 -3,-164 64,118 190,198 334,198 164,0 303,-103 357,-248 28,-76 31,-159 10,-237 -22,-76 -67,-143 -127,-192 214,11 395,144 477,331 62,145 60,311 -7,453z"
   class="fil26 str2"
   id="path6464" />
   <path
   d="M18330 18510c-44,161 -192,279 -367,279 -211,0 -381,-170 -381,-381 0,-210 170,-381 381,-381 190,0 348,140 376,323 9,53 5,108 -9,160z"
   class="fil27 str7"
   id="path6466" />
   <path
   d="M21256 21865c18,-159 94,-319 217,-479 -825,-604 -2207,-964 -2207,-964 -264,-123 -347,114 -165,268 0,0 1167,891 2155,1175z"
   class="fil26 str8"
   id="path6937" />
   <path
   d="M22162 22209c-7,-62 34,-119 59,-175 23,-48 31,-112 84,-145l-511 -333c5,9 9,19 12,30 27,90 -25,184 -115,211 0,0 0,0 0,0 0,0 0,0 0,0 -90,26 -184,-25 -211,-115 -22,-77 25,-140 78,-195 47,-49 49,76 -17,-134 -134,84 -328,395 -277,570l100 -37 54 52 744 271z"
   class="fil26 str9"
   id="path6935" />
   <g
   id="g1059">
    <path
   d="M21852 21816l401 170 -401 -170zm0 0l0 0 0 0z"
   class="fil30"
   id="path6985" />
    <path
   d="M21852 21816l401 170m-401 -170l0 0 0 0z"
   class="fil26 str10"
   id="_1" />
   </g>
   <path
   d="M23789 23431c-288,-975 -390,-1749 -1140,-1681 -605,56 -648,923 -23,1162 603,231 1163,519 1163,519zm-1024 -1609c137,0 249,111 249,249 0,138 -112,249 -249,249 -138,0 -249,-111 -249,-249 0,-138 111,-249 249,-249z"
   class="fil26 str4"
   id="path6933" />
   <path
   d="M21679 21468c59,12 109,56 127,118 27,90 -25,184 -115,211 0,0 0,0 0,0 0,0 0,0 0,0 -90,26 -184,-25 -211,-115 -14,-48 -6,-98 19,-138 38,-61 110,-91 180,-76z"
   class="fil26 str7"
   id="path6983" />
   <path
   id="path1063"
   d="M23428 22848c0,0 -94,-351 -300,-533 -73,-64 19,-159 88,-76 149,180 212,609 212,609z"
   class="fil26 str11" />
   <circle
   id="circle1065"
   r="249"
   cy="22071"
   cx="22765"
   class="fil26 str12" />
  </g>
  <g
   id="_2441311176048">
   <g
   id="g1078">
    <path
   id="path1068"
   d="M14975 31992c0,0 -120,0 -120,0 -48,491 -116,1087 -963,1087 0,0 -390,0 -390,0 -226,0 -236,-33 -236,-192 0,0 0,-2556 0,-2556 0,-163 0,-231 453,-231 0,0 159,0 159,0 0,0 0,-144 0,-144 -174,14 -607,14 -804,14 -188,0 -563,0 -727,-14 0,0 0,144 0,144 0,0 111,0 111,0 371,0 380,53 380,227 0,0 0,2526 0,2526 0,173 -9,226 -380,226 0,0 -111,0 -111,0 0,0 0,150 0,150 0,0 2498,0 2498,0 0,0 130,-1237 130,-1237z"
   class="fil26 str2" />
    <path
   id="path1070"
   d="M14893 29951c-19,-58 -29,-77 -91,-77 -63,0 -77,19 -97,77 0,0 -774,1964 -774,1964 -34,82 -92,231 -390,231 0,0 0,120 0,120 0,0 746,0 746,0 0,0 0,-120 0,-120 -149,0 -241,-68 -241,-164 0,-24 5,-34 15,-67 0,0 163,-414 163,-414 0,0 953,0 953,0 0,0 193,491 193,491 9,19 19,43 19,58 0,96 -183,96 -274,96 0,0 0,120 0,120 0,0 948,0 948,0 0,0 0,-120 0,-120 0,0 -68,0 -68,0 -226,0 -250,-34 -284,-130 0,0 -818,-2065 -818,-2065zm-192 342c0,0 428,1088 428,1088 0,0 -857,0 -857,0 0,0 429,-1088 429,-1088z"
   class="fil26 str2" />
    <path
   id="path1072"
   d="M18748 29985c0,0 -2931,0 -2931,0 0,0 -86,1078 -86,1078 0,0 115,0 115,0 67,-775 140,-934 866,-934 87,0 212,0 260,10 101,19 101,72 101,183 0,0 0,2526 0,2526 0,164 0,231 -505,231 0,0 -193,0 -193,0 0,0 0,150 0,150 198,-15 684,-15 905,-15 222,0 717,0 915,15 0,0 0,-150 0,-150 0,0 -193,0 -193,0 -505,0 -505,-67 -505,-231 0,0 0,-2526 0,-2526 0,-96 0,-164 86,-183 53,-10 183,-10 275,-10 722,0 794,159 861,934 0,0 121,0 121,0 0,0 -92,-1078 -92,-1078z"
   class="fil26 str2" />
    <path
   id="path1074"
   d="M21328 33075c0,0 -121,0 -121,0 -120,736 -231,1087 -1054,1087 0,0 -635,0 -635,0 -226,0 -236,-33 -236,-192 0,0 0,-1280 0,-1280 0,0 429,0 429,0 466,0 519,154 519,563 0,0 121,0 121,0 0,0 0,-1271 0,-1271 0,0 -121,0 -121,0 0,409 -53,558 -519,558 0,0 -429,0 -429,0 0,0 0,-1150 0,-1150 0,-159 10,-192 236,-192 0,0 616,0 616,0 736,0 862,264 939,933 0,0 120,0 120,0 0,0 -135,-1078 -135,-1078 0,0 -2695,0 -2695,0 0,0 0,145 0,145 0,0 111,0 111,0 370,0 380,53 380,226 0,0 0,2512 0,2512 0,173 -10,226 -380,226 0,0 -111,0 -111,0 0,0 0,149 0,149 0,0 2763,0 2763,0 0,0 202,-1236 202,-1236z"
   class="fil26 str2" />
    <path
   id="path1076"
   d="M22776 31376c0,0 660,-963 660,-963 101,-154 264,-308 693,-313 0,0 0,-144 0,-144 0,0 -1146,0 -1146,0 0,0 0,144 0,144 193,5 299,111 299,222 0,48 -10,58 -44,110 0,0 -548,809 -548,809 0,0 -616,-924 -616,-924 -10,-14 -34,-53 -34,-72 0,-58 106,-140 308,-145 0,0 0,-144 0,-144 -164,14 -515,14 -698,14 -149,0 -447,-4 -625,-14 0,0 0,144 0,144 0,0 91,0 91,0 265,0 356,34 448,169 0,0 880,1333 880,1333 0,0 -784,1160 -784,1160 -68,96 -212,317 -693,317 0,0 0,150 0,150 0,0 1145,0 1145,0 0,0 0,-150 0,-150 -221,-4 -303,-134 -303,-221 0,-43 14,-63 48,-115 0,0 679,-1006 679,-1006 0,0 760,1145 760,1145 10,19 24,39 24,53 0,58 -106,140 -313,144 0,0 0,150 0,150 169,-15 520,-15 698,-15 202,0 424,5 626,15 0,0 0,-150 0,-150 0,0 -92,0 -92,0 -250,0 -351,-24 -452,-173 0,0 -1011,-1530 -1011,-1530z"
   class="fil26 str2" />
   </g>
  </g>
  <g
   id="_2441311175568">
   <path
   id="path1081"
   d="M59300 3294c-1802,-1591 -4559,-1414 -6150,388 -442,500 -762,1096 -938,1741 569,-453 1871,-656 2427,-493 861,-947 2321,-1066 3316,-261l1345 -1375z"
   class="fil26 str2" />
   <path
   id="path1083"
   d="M60626 5423c-223,-820 -680,-1557 -1315,-2120l-1359 1359c574,468 901,1175 887,1916l0 242c668,0 1210,541 1210,1209 0,668 -542,1210 -1210,1210l-2420 0 0 1937 2420 0c1737,14 3157,-1384 3170,-3121 8,-1056 -511,-2043 -1383,-2632z"
   class="fil26 str2" />
   <path
   id="path1085"
   d="M53997 11161l2419 15 0 -1936 -2419 -16c-173,0 -343,-37 -500,-109l-1400 1404c547,413 1214,645 1900,642z"
   class="fil26 str2" />
   <path
   id="path1087"
   d="M53997 4879c-1739,10 -3138,1427 -3128,3165 6,970 459,1884 1228,2475l1403 -1403c-608,-275 -879,-992 -604,-1600 275,-609 992,-880 1600,-605 268,121 483,337 605,605l1403 -1403c-597,-781 -1525,-1238 -2507,-1234z"
   class="fil26 str2" />
  </g>
  <g
   id="_2441311173840">
   <path
   id="path1090"
   d="M1491 31108l523 0 0 709 633 0 0 -709 523 0 0 1991 -523 0 0 -759 -633 0 0 759 -523 0 0 -1991zm2280 1991l0 -1991 1238 0 0 433 -715 0 0 324 633 0 0 441 -633 0 0 366 715 0 0 427 -1238 0zm1812 0l0 -1991 523 0 0 1466 718 0 0 525 -1241 0zm2051 -1991l814 738 810 -738 237 0 0 1991 -527 0 0 -1022 -520 475 -524 -472 0 1019 -526 0 0 -1991 236 0z"
   class="fil26 str2" />
   <g
   id="g1096">
    <path
   id="path1092"
   d="M2670 30316c4,-5 126,-169 130,-175 134,-173 280,-329 436,-468 -107,-94 -217,-217 -317,-361 -282,-402 -386,-815 -233,-922 153,-108 506,131 787,534 97,137 173,277 224,404 467,-289 989,-448 1520,-476 -40,-146 -63,-324 -63,-517 0,-491 152,-889 339,-889 187,0 338,398 338,889 0,200 -25,385 -68,534 519,60 1030,246 1491,559 49,-152 137,-326 258,-499 281,-402 634,-641 787,-534 153,107 49,520 -232,922 -130,185 -274,335 -407,433 133,122 259,256 379,402l139 164 -667 0c-2,0 -1,-1 -2,-2 -128,-139 -264,-262 -407,-371 -525,-400 -1106,-566 -1709,-561 -602,6 -1225,182 -1719,583 -126,102 -246,219 -358,347 -1,1 -3,4 -4,4l-642 0z"
   class="fil26 str2" />
    <path
   id="path1094"
   d="M2670 33891c4,6 126,169 130,175 134,173 280,329 436,469 -107,93 -217,216 -317,360 -282,403 -386,816 -233,923 153,107 506,-132 787,-534 97,-138 173,-277 224,-405 467,289 989,449 1520,477 -40,145 -63,324 -63,517 0,491 152,889 339,889 187,0 338,-398 338,-889 0,-201 -25,-386 -68,-534 519,-61 1030,-247 1491,-559 49,151 137,326 258,499 281,402 634,641 787,534 153,-108 49,-521 -232,-923 -130,-184 -274,-334 -407,-433 133,-121 259,-255 379,-402l139 -164 -667 0c-2,0 -1,1 -2,3 -128,138 -264,262 -407,371 -525,399 -1106,565 -1709,560 -602,-5 -1225,-181 -1719,-583 -126,-102 -246,-218 -358,-346 -1,-1 -3,-5 -4,-5l-642 0z"
   class="fil26 str2" />
   </g>
  </g>
  <g
   id="_2441311234544">
   <path
   id="path1099"
   d="M46712 17603c-1,0 -2,0 -2,0 -23,0 -44,-12 -55,-32l-994 -1724c-13,-20 -34,-32 -58,-32 0,0 0,0 0,0l-4055 0c-1,0 -2,0 -2,0 -23,0 -44,12 -55,32l-1034 1789 -994 1723c-6,10 -9,22 -9,33 0,12 3,23 9,33l994 1723 1033 1790c11,20 32,33 55,33 1,0 1,0 2,0l4056 0c0,0 0,0 0,0 24,0 45,-13 58,-33l994 -1723c11,-20 32,-32 55,-32 1,0 2,0 2,0l1238 0c41,0 74,-34 74,-75l0 -3430c0,-41 -33,-74 -74,-74l-1238 0 0 -1z"
   class="fil26 str2" />
   <path
   id="path1101"
   d="M45643 19393l-1374 2379c-9,-5 -16,-11 -21,-20l0 0 -312 -539c-5,-8 -7,-18 -7,-28 0,-9 2,-19 7,-27l999 -1732c6,-9 8,-20 8,-30 0,0 0,0 0,0l700 0 0 -3z"
   class="fil26 str1" />
   <path
   id="path1103"
   d="M43213 17634l-999 1732c-5,8 -7,17 -7,27l-698 0 1374 -2378c9,5 16,12 21,20l0 0 312 541c4,8 6,17 6,26 0,11 -3,23 -9,32l0 0z"
   class="fil26 str1" />
   <path
   id="path1105"
   d="M43212 21214l-312 538c-6,9 -13,16 -22,20l-1370 -2379 699 0c0,0 0,0 0,0 0,9 2,18 7,26l999 1731c6,9 9,20 9,31 0,12 -3,24 -10,33l0 0z"
   class="fil26 str1" />
   <path
   id="path1107"
   d="M42880 17018l-1371 2375 0 0 -344 596 -333 -568c-4,-8 -7,-17 -7,-26 0,0 0,0 0,-1 0,-9 3,-19 8,-28l333 -576 1011 -1750c10,-18 30,-30 51,-30 0,0 0,0 0,0l620 0c1,0 1,0 1,0 11,0 22,3 31,8l0 0z"
   class="fil26 str1" />
   <path
   id="path1109"
   d="M42880 21772c-9,5 -19,8 -29,9l-621 0c0,0 0,0 0,0 -21,0 -40,-12 -51,-30l-924 -1601 -91 -159 344 -598 1372 2379z"
   class="fil26 str1" />
   <path
   id="path1111"
   d="M46320 19393c0,0 0,0 0,0 0,10 -3,21 -8,30l-1345 2328c-11,17 -29,27 -50,27 0,0 0,0 0,0l-620 0c-10,0 -21,-3 -30,-8l1376 -2377 344 -596 327 566c4,8 6,17 6,25 0,2 0,3 0,5l0 0z"
   class="fil26 str1" />
   <path
   id="path1113"
   d="M45643 19393l-701 0c0,-11 -3,-21 -8,-30l-1000 -1730c-6,-9 -9,-20 -9,-31 0,-11 3,-22 9,-31l313 -539c6,-6 13,-11 22,-14l1374 2375z"
   class="fil26 str1" />
   <path
   id="path1115"
   d="M45984 18798l0 0 -341 595 -1374 -2375c9,-5 19,-8 30,-8l619 0c0,0 1,0 1,0 20,0 39,11 49,28l1016 1760z"
   class="fil26 str1" />
   <g
   id="g1123">
    <line
   id="line1117"
   y2="21182"
   x2="41833"
   y1="21182"
   x1="40492"
   class="fil26 str13" />
    <line
   id="line1119"
   y2="21182"
   x2="43929"
   y1="21182"
   x1="43259"
   class="fil26 str13" />
    <line
   id="line1121"
   y2="21182"
   x2="46707"
   y1="21182"
   x1="45314"
   class="fil26 str13" />
   </g>
   <g
   id="g1131">
    <line
   id="line1125"
   y2="17600"
   x2="41833"
   y1="17600"
   x1="40492"
   class="fil26 str13" />
    <line
   id="line1127"
   y2="17600"
   x2="43929"
   y1="17600"
   x1="43259"
   class="fil26 str13" />
    <line
   id="line1129"
   y2="17604"
   x2="46707"
   y1="17604"
   x1="45314"
   class="fil26 str13" />
   </g>
  </g>
  <path
   id="path1134"
   d="M44663 5457l1059 0 0 1083 536 0c247,0 501,-44 735,-123 115,-39 245,-94 358,-162 -149,-195 -226,-442 -248,-685 -31,-330 36,-760 260,-1019l111 -128 133 106c333,269 614,644 664,1071 402,-118 874,-90 1228,114l146 84 -77 149c-299,585 -926,767 -1539,735 -917,2283 -2913,3364 -5333,3364 -1250,0 -2397,-467 -3050,-1577l-11 -18 -95 -193c-221,-489 -294,-1024 -245,-1558l15 -160 906 0 0 -1083 1059 0 0 -1059 2118 0 0 -1058 1270 0 0 2117zm-3212 -882l918 0 0 918 -918 0 0 -918zm1059 0l918 0 0 918 -918 0 0 -918zm1059 0l918 0 0 918 -918 0 0 -918zm0 -1059l918 0 0 918 -918 0 0 -918zm0 2118l918 0 0 918 -918 0 0 -918zm-1059 0l918 0 0 918 -918 0 0 -918zm-1059 0l918 0 0 918 -918 0 0 -918zm-1059 0l918 0 0 918 -918 0 0 -918zm4236 0l918 0 0 918 -918 0 0 -918zm3466 224c71,-552 -342,-985 -598,-1191 -295,341 -341,1235 122,1612 -258,229 -803,437 -1360,437l-6787 0c-54,582 48,1118 282,1577l77 141c49,83 102,163 160,240l0 0c279,18 536,24 771,19l0 0c463,-10 840,-65 1126,-164 43,-15 89,8 104,51 15,42 -8,89 -50,103 -38,13 -78,26 -119,38 0,0 0,0 0,0 -225,64 -467,107 -778,126 18,1 -20,3 -20,3 -10,1 -24,2 -34,3 -123,7 -255,8 -391,8 -148,0 -293,-3 -456,-11l-4 3c565,635 1449,1017 2557,1017 2346,0 4335,-1040 5216,-3374 625,64 1226,-96 1499,-629 -435,-251 -995,-171 -1317,-9z"
   class="fil27" />
  <path
   id="path1136"
   d="M42312 8040c139,0 253,113 253,253 0,140 -114,253 -253,253 -140,0 -254,-113 -254,-253 0,-140 114,-253 254,-253z"
   class="fil26 str14" />
  <path
   id="path1138"
   d="M42312 8111c23,0 45,5 65,13 -22,13 -37,36 -37,64 0,41 33,74 74,74 28,0 52,-16 65,-39 9,22 14,45 14,70 0,100 -81,181 -181,181 -101,0 -182,-81 -182,-181 0,-100 81,-182 182,-182z"
   class="fil27 str6" />
  <g
   id="_2441311227408">
   <g
   id="g1144">
    <rect
   id="rect1140"
   height="727.36"
   width="87.32"
   y="5729"
   x="40536"
   class="fil27" />
    <rect
   id="rect1142"
   height="727.36"
   width="87.32"
   y="5729"
   x="41076"
   class="fil27" />
   </g>
   <rect
   id="rect1146"
   height="727.36"
   width="87.32"
   y="5729"
   x="40806"
   class="fil27" />
  </g>
  <rect
   id="rect1149"
   height="910"
   width="914"
   y="5638"
   x="40396"
   class="fil26" />
  <g
   id="_2441311222832">
   <g
   id="g1155">
    <rect
   id="rect1151"
   height="727.36"
   width="87.32"
   y="5729"
   x="41594"
   class="fil27" />
    <rect
   id="rect1153"
   height="727.36"
   width="87.32"
   y="5729"
   x="42134"
   class="fil27" />
   </g>
   <rect
   id="rect1157"
   height="727.36"
   width="87.32"
   y="5729"
   x="41864"
   class="fil27" />
  </g>
  <g
   id="_2441311222256">
   <g
   id="g1164">
    <rect
   id="rect1160"
   height="727.36"
   width="87.32"
   y="5729"
   x="42652"
   class="fil27" />
    <rect
   id="rect1162"
   height="727.36"
   width="87.32"
   y="5729"
   x="43192"
   class="fil27" />
   </g>
   <rect
   id="rect1166"
   height="727.36"
   width="87.32"
   y="5729"
   x="42922"
   class="fil27" />
  </g>
  <g
   id="_2441311220688">
   <g
   id="g1173">
    <rect
   id="rect1169"
   height="727.36"
   width="87.32"
   y="5729"
   x="43716"
   class="fil27" />
    <rect
   id="rect1171"
   height="727.36"
   width="87.32"
   y="5729"
   x="44256"
   class="fil27" />
   </g>
   <rect
   id="rect1175"
   height="727.36"
   width="87.32"
   y="5729"
   x="43986"
   class="fil27" />
  </g>
  <g
   id="_2441311218704">
   <g
   id="g1182">
    <rect
   id="rect1178"
   height="727.36"
   width="87.32"
   y="5729"
   x="44780"
   class="fil27" />
    <rect
   id="rect1180"
   height="727.36"
   width="87.32"
   y="5729"
   x="45319"
   class="fil27" />
   </g>
   <rect
   id="rect1184"
   height="727.36"
   width="87.32"
   y="5729"
   x="45050"
   class="fil27" />
  </g>
  <g
   id="_2441311218736">
   <g
   id="g1191">
    <rect
   id="rect1187"
   height="727.36"
   width="87.32"
   y="4676"
   x="41594"
   class="fil27" />
    <rect
   id="rect1189"
   height="727.36"
   width="87.32"
   y="4676"
   x="42134"
   class="fil27" />
   </g>
   <rect
   id="rect1193"
   height="727.36"
   width="87.32"
   y="4676"
   x="41864"
   class="fil27" />
  </g>
  <g
   id="_2441311217200">
   <g
   id="g1200">
    <rect
   id="rect1196"
   height="727.36"
   width="87.32"
   y="4676"
   x="42652"
   class="fil27" />
    <rect
   id="rect1198"
   height="727.36"
   width="87.32"
   y="4676"
   x="43192"
   class="fil27" />
   </g>
   <rect
   id="rect1202"
   height="727.36"
   width="87.32"
   y="4676"
   x="42922"
   class="fil27" />
  </g>
  <g
   id="_2441311216496">
   <g
   id="g1209">
    <rect
   id="rect1205"
   height="727.36"
   width="87.32"
   y="4676"
   x="43716"
   class="fil27" />
    <rect
   id="rect1207"
   height="727.36"
   width="87.32"
   y="4676"
   x="44256"
   class="fil27" />
   </g>
   <rect
   id="rect1211"
   height="727.36"
   width="87.32"
   y="4676"
   x="43986"
   class="fil27" />
  </g>
  <g
   id="_2441311214064">
   <g
   id="g1218">
    <rect
   id="rect1214"
   height="727.36"
   width="87.32"
   y="3610"
   x="43716"
   class="fil27" />
    <rect
   id="rect1216"
   height="727.36"
   width="87.32"
   y="3610"
   x="44256"
   class="fil27" />
   </g>
   <rect
   id="rect1220"
   height="727.36"
   width="87.32"
   y="3610"
   x="43986"
   class="fil27" />
  </g>
  <g
   id="_2441311214128">
   <polygon
   id="polygon1223"
   points="42498,29153 44980,30587 44980,33452 42498,32019 "
   class="fil26 str2" />
   <g
   id="g1229">
    <polygon
   id="polygon1225"
   points="45252,30587 45252,33452 47733,32020 47733,29153 "
   class="fil26 str2" />
    <path
   id="path1227"
   d="M39745 27554l0 2865 2481 1433 0 -2865 -2481 -1433zm2753 7645l2482 1433 0 -2866 -2482 -1433 0 2866z"
   class="fil26 str2" />
   </g>
  </g>
  <g
   id="_2441311212752">
   <path
   id="path1232"
   d="M7775 5059l0 -2729c0,-396 324,-720 720,-720l133 0c396,0 720,324 720,720l0 5692 0 2863c0,396 -324,720 -720,720 -455,0 -682,-281 -796,-711 -2573,2199 -5887,-110 -5902,-2872 -15,-2752 3291,-5109 5845,-2963zm-2108 873c1154,0 2090,936 2090,2090 0,1154 -936,2090 -2090,2090 -1154,0 -2090,-936 -2090,-2090 0,-1154 936,-2090 2090,-2090z"
   class="fil26 str2" />
   <circle
   id="circle1234"
   r="1434"
   cy="8006"
   cx="5667"
   class="fil26 str2" />
  </g>
  <rect
   id="rect1237"
   height="38100"
   width="63500"
   class="fil26" />
  <path
   d="M61450 19269l-427 -264c-4,-42 -8,-83 -12,-125l366 -342c38,-34 54,-86 44,-136 -9,-49 -44,-91 -92,-108l-469 -176c-11,-40 -24,-80 -36,-121l292 -406c30,-41 36,-94 16,-142 -19,-46 -61,-80 -112,-88l-494 -81c-19,-37 -39,-74 -59,-111l208 -455c21,-47 16,-101 -12,-143 -28,-42 -76,-67 -127,-65l-502 17c-25,-32 -52,-64 -79,-96l115 -488c12,-50 -3,-102 -39,-138 -36,-36 -88,-50 -137,-39l-489 115c-31,-26 -63,-53 -96,-79l18 -501c2,-51 -23,-99 -65,-127 -43,-29 -96,-33 -143,-12l-455 208c-37,-20 -74,-40 -111,-60l-81 -494c-8,-50 -42,-93 -89,-112 -47,-19 -100,-13 -142,17l-406 292c-40,-13 -80,-25 -121,-37l-175 -468c-18,-48 -59,-83 -109,-93 -50,-10 -101,7 -136,44l-341 367c-42,-5 -83,-9 -125,-13l-264 -426c-26,-43 -74,-70 -125,-70 -50,0 -98,27 -124,70l-264 426c-42,4 -83,8 -125,13l-342 -367c-34,-37 -86,-54 -136,-44 -50,10 -91,45 -109,93l-175 468c-40,12 -80,24 -121,37l-406 -292c-41,-30 -95,-37 -142,-17 -47,19 -80,62 -88,112l-81 494c-37,20 -74,39 -111,60l-456 -208c-46,-21 -100,-17 -142,12 -42,28 -67,76 -65,127l17 501c-32,26 -64,53 -96,79l-488 -115c-50,-11 -102,3 -138,39 -36,36 -51,88 -39,138l115 488c-27,32 -53,64 -79,96l-501 -17c-51,-1 -99,23 -128,65 -28,42 -32,96 -11,143l208 455c-21,37 -41,74 -60,111l-494 81c-50,8 -93,41 -112,88 -20,47 -13,101 16,142l293 406c-13,40 -25,81 -37,121l-469 176c-47,17 -82,59 -92,108 -10,50 7,102 44,136l366 342c-4,42 -8,83 -12,125l-426 264c-43,26 -70,74 -70,124 0,51 27,99 70,125l426 264c4,42 8,83 12,125l-366 342c-37,34 -54,86 -44,135 10,50 45,91 92,109l469 176c12,40 24,80 37,121l-293 406c-29,41 -36,95 -16,141 19,48 62,81 112,89l494 81c19,37 39,74 60,111l-208 455c-21,47 -17,100 11,143 29,42 77,67 128,65l501 -18c26,33 52,65 79,97l-115 488c-12,50 3,101 39,137 36,37 88,51 138,39l488 -115c32,27 64,54 96,79l-17 502c-2,51 23,99 65,127 42,28 96,33 142,12l456 -208c37,20 74,40 111,59l81 494c8,51 41,93 88,112 47,20 101,14 142,-16l406 -292c40,12 81,25 121,36l175 469c18,47 59,83 109,92 50,10 102,-6 136,-44l342 -366c41,5 83,9 125,12l264 427c26,43 73,69 124,69 51,0 98,-26 125,-69l264 -427c42,-3 83,-7 124,-12l342 366c35,38 86,54 136,44 50,-9 91,-45 109,-92l175 -469c41,-11 81,-24 121,-36l406 292c42,30 95,36 142,16 47,-19 81,-61 89,-112l81 -494c37,-19 74,-39 111,-59l455 208c46,21 100,16 143,-12 42,-28 67,-76 65,-127l-18 -502c33,-25 65,-52 96,-79l489 115c49,12 101,-2 137,-39 36,-36 51,-87 39,-137l-115 -488c27,-32 54,-64 79,-97l502 18c50,2 99,-23 127,-65 28,-43 33,-96 11,-143l-207 -455c20,-37 40,-74 59,-111l494 -81c51,-8 93,-41 112,-89 20,-46 14,-100 -16,-141l-292 -406c12,-41 25,-81 36,-121l469 -176c47,-18 83,-59 92,-109 10,-49 -6,-101 -44,-135l-366 -342c4,-42 8,-83 12,-125l427 -264c43,-26 69,-74 69,-125 0,-50 -26,-98 -69,-124l0 0zm-2855 3538c-163,-35 -267,-196 -232,-359 35,-163 196,-267 358,-232 163,35 267,196 232,359 -35,163 -195,267 -358,232l0 0zm-145 -980c-149,-32 -295,62 -327,211l-151 707c-467,212 -986,330 -1533,330 -559,0 -1089,-124 -1565,-345l-151 -706c-32,-149 -178,-244 -327,-212l-623 134c-116,-119 -224,-246 -323,-380l3036 0c34,0 57,-6 57,-38l0 -1074c0,-31 -23,-37 -57,-37l-888 0 0 -681 960 0c88,0 469,25 590,512 39,150 122,637 180,793 57,175 289,525 537,525l1512 0c18,0 36,-2 55,-6 -105,143 -220,278 -344,404l-638 -137 0 0zm-4199 965c-162,35 -323,-69 -358,-232 -35,-163 69,-324 232,-359 163,-35 323,69 358,232 35,164 -69,324 -232,359l0 0zm-1151 -4669c68,152 -1,331 -154,398 -152,68 -330,-1 -398,-153 -67,-153 2,-331 154,-399 152,-68 330,1 398,154zm-354 839l650 -289c139,-62 201,-224 140,-364l-134 -302 526 0 0 2373 -1062 0c-92,-324 -141,-666 -141,-1019 0,-135 7,-268 21,-399l0 0zm2852 -231l0 -699 1253 0c65,0 458,75 458,368 0,244 -301,331 -549,331l-1162 0 0 0zm4556 630c0,92 -4,184 -11,275l-381 0c-38,0 -53,26 -53,63l0 175c0,412 -232,501 -436,524 -194,22 -409,-81 -435,-199 -115,-644 -305,-781 -606,-1018 373,-237 762,-587 762,-1056 0,-505 -347,-824 -583,-980 -331,-218 -698,-262 -797,-262l-3942 0c535,-597 1259,-1019 2078,-1173l465 487c105,110 279,114 389,9l520 -497c1089,203 2011,881 2542,1811l-355 804c-62,139 1,302 140,363l685 305c12,121 18,244 18,369l0 0zm-3939 -4066c120,-115 311,-110 427,10 115,121 110,312 -10,427 -121,116 -312,111 -427,-10 -115,-120 -111,-311 10,-427zm3531 2842c68,-152 246,-221 398,-153 153,67 221,246 154,398 -68,153 -246,222 -398,154 -152,-68 -221,-246 -154,-399l0 0z"
   class="fil26 str15"
   id="path3" />
 </g>
</svg>
