<?xml version="1.0" encoding="UTF-8"?>
<!DOCTYPE svg PUBLIC "-//W3C//DTD SVG 1.1//EN" "http://www.w3.org/Graphics/SVG/1.1/DTD/svg11.dtd">
<!-- Creator: CorelDRAW 2020 (64-Bit) -->
<svg xmlns="http://www.w3.org/2000/svg" xml:space="preserve" width="4500px" height="4500px" version="1.1" style="shape-rendering:geometricPrecision; text-rendering:geometricPrecision; image-rendering:optimizeQuality; fill-rule:evenodd; clip-rule:evenodd"
viewBox="0 0 4500 4500"
 xmlns:xlink="http://www.w3.org/1999/xlink"
 xmlns:xodm="http://www.corel.com/coreldraw/odm/2003">
 <defs>
  <style type="text/css">
   <![CDATA[
    .str0 {stroke:#DADADA;stroke-width:4;stroke-miterlimit:10}
    .fil0 {fill:none;fill-rule:nonzero}
    .fil1 {fill:#DADADA}
   ]]>
  </style>
 </defs>
 <g id="Warstwa_x0020_1">
  <metadata id="CorelCorpID_0Corel-Layer"/>
  <path class="fil0 str0" d="M4278.72 1394.25c-5.55,-0.93 -7.54,-6.35 -7.54,-6.35 -0.27,-0.79 -5.83,-6.87 -5.83,-6.87 -4.21,-3.44 -2.22,-8.2 -2.22,-8.2 2.38,-5.42 -2.26,-10.05 -2.26,-10.05 -4.21,-1.72 -11.38,-11.77 -11.38,-11.77 -0.38,-2.78 -4.36,-7.67 -4.36,-7.67 -3.57,-5.55 -11.38,-2.64 -11.38,-2.64 -7.13,3.17 -12.42,-2.91 -12.42,-2.91 -4.21,-4.36 -15.74,-0.27 -15.74,-0.27 -8.58,1.59 -11.23,-5.55 -11.23,-5.55l-43.52 -114.25c-1.84,-9.25 -8.16,-13.35 -8.16,-13.35 -3.87,-4.23 -10.99,-1.72 -10.99,-1.72 -3.83,0.79 -10.73,-3.97 -10.73,-3.97 -6.74,-5.42 -12.41,-2.78 -12.41,-2.78 -3.33,1.99 -8.58,0.53 -8.58,0.53 -6.63,-1.19 -17.47,-7.93 -17.47,-7.93 1.07,3.17 -1.46,6.34 -1.46,6.34 -4.48,3.05 -0.38,1.59 -13.22,8.47 -12.83,6.88 -16.28,-2.78 -16.28,-2.78 0,0 -2.64,-4.5 -5.67,-8.06 -3.03,-3.58 -5.09,-0.58 -5.09,-0.58l-31 87.63c-5.82,11.64 -1.87,26.4 -1.87,26.4 -0.12,1.45 5.97,26.45 10.07,30.54 4.1,4.1 4.1,12.7 4.33,13.63 0.27,0.92 -1.57,10.7 -4.6,11.24 -3.06,0.52 -3.6,8.19 -0.8,9.52 2.76,1.32 3.29,7.66 2.76,9.91 -0.5,2.25 -7.51,8.07 -11.23,9.13 -3.71,1.05 -2.26,5.02 -0.8,9.12 1.45,4.1 2.26,7.4 0.42,12.17 -1.88,4.76 -5.02,7.53 -9.27,10.05 -4.22,2.51 -9.12,1.53 -9.12,1.53l0.65 2.04c-0.76,-1.72 -1.46,-3.57 -4.48,0 -3.07,3.56 -1.46,2.64 -6.09,1.18 -4.64,-1.45 -5.56,3.18 -5.56,3.18 0,0 -1.07,2.24 -3.83,3.44 -2.76,1.19 -0.27,3.97 -0.27,3.97 0,0 2.53,7.53 0.92,8.32 -1.57,0.8 -1.45,6.62 -1.45,6.62l-125.89 36.1 -87.39 23.53c-5.29,-3.7 -14.94,2.25 -14.94,2.25 -12.68,5.42 -26.86,26.18 -26.86,26.18 -21.41,26.97 -23.79,47.73 -23.79,47.73l-1.61 2.12 -5.78 7.27 -17.32 21.95c-2.8,2.78 0,4.5 0,4.5l7.51 7.54c6.51,-3.18 8.47,3.04 8.47,3.04 1.45,3.57 -5.14,6.21 -5.14,6.21 -4.63,1.59 -1.61,4.5 -1.61,4.5 3.84,3.44 6.9,10.58 6.9,10.58 4.87,8.32 1.95,15.47 1.95,15.47 -1.95,5.55 -10.03,4.76 -10.03,4.76 -2.38,0.27 -5.02,-0.92 -5.02,2.11 0,3.05 -2.64,6.22 -2.64,6.22l-5.02 6.08c-2.11,6.62 -8.93,10.45 -8.93,10.45 -8.54,4.09 -11.99,10.31 -11.99,10.31 -1.73,-4.62 -9.39,-4.23 -9.39,-4.23 -19.27,3.04 -25.63,10.19 -25.63,10.19 -4.1,5.68 -11.76,0.53 -11.76,0.53 -4.25,-5.16 -11.91,-4.9 -11.91,-4.9 -14.14,-2.51 -25.67,2.38 -25.67,2.38 -10.69,4.36 -24.71,4.23 -24.71,4.23l-14.79 4.62c-19.04,7.15 -17.2,13.1 -17.2,13.1l0.15 14.46c-0.34,2.65 2.65,3.52 2.65,3.52 3.71,2.12 2.64,8.11 2.64,8.11 0.73,4.41 4.25,2.47 4.25,2.47 5.1,-3.87 7.59,3.17 7.59,3.17 7.39,9.7 -1.61,16.76 -1.61,16.76 -6.52,5.46 -8.28,12.33 -8.28,12.33 1.07,4.42 -10.92,13.76 -10.92,13.76 -19.77,13.75 -31.22,34.03 -31.22,34.03 0,0 -6.32,2.82 -10.38,7.4 -4.06,4.59 -6.02,8.63 -13.07,10.76 -7.04,2.11 -10.38,6.52 -10.38,6.52l-10.07 5.64 -3.6 0.97c-1.88,-2.39 -11.77,-2.91 -11.77,-2.91 -12.29,-2.25 -24.21,14.28 -24.21,14.28 -7.28,10.97 -18.66,13.22 -18.66,13.22 -9.5,1.72 -21.26,13.58 -21.26,13.58 -7.78,7.59 -13.94,0.71 -13.94,0.71 -8.47,-7.76 -18.36,4.06 -18.36,4.06 -3.86,7.04 -11.45,4.93 -11.45,4.93 -8.27,-0.18 -12.14,9.16 -12.14,9.16 -3.18,6 -8.82,8.29 -8.82,8.29 -11.45,7.58 -23.44,3.53 -23.44,3.53 -10.42,-4.58 8.08,-7.93 8.08,-7.93 3.72,0 11.84,-2.47 8.81,-7.06 -2.99,-4.58 -22.71,0.35 -30.3,1.06 -7.59,0.7 -5.29,-8.37 -5.29,-8.37 0,-4.76 9.5,-16.41 9.5,-16.41 6.36,-5.81 6.1,-15.07 6.1,-15.07 -1.08,-7.92 4.48,-17.71 4.48,-17.71 8.46,-10.85 3.71,-22.22 3.71,-22.22 -5.82,-3.7 -2.91,-11.54 -2.91,-11.54 1.61,-4.93 7.66,-1.41 7.66,-1.41 6.63,4.49 9.54,-3.18 9.54,-3.18l4.22 -17.45c3.18,-16.93 -6.06,-25.13 -6.06,-25.13 -1.87,-2.38 -1.87,-16.92 -1.87,-16.92 -4.22,-25.12 -8.28,-33.24 -16.4,-54.05 -8.08,-20.8 -18.85,-24.68 -18.85,-24.68 -17.28,-6.87 -22.91,6.17 -22.91,6.17 -2.83,6.53 -15.71,4.06 -15.71,4.06 -5.82,-0.71 -2.64,4.76 -2.64,4.76 2.84,8.11 -0.69,15.34 -0.69,15.34 -5.48,1.58 -11.64,9.7 -11.64,9.7l-0.89 5.28 -5.13 2.66c-3.52,0.52 -8.81,-2.83 -8.81,-2.83 -12.15,-3.35 -13.56,-15.16 -13.56,-15.16 -1.96,-7.59 2.29,-13.58 2.29,-13.58 2.11,-9.7 14.1,-9.52 14.1,-9.52 6.36,-0.18 8.28,-3.88 8.28,-3.88 3.18,-2.47 0.73,-8.12 0.73,-8.12 -0.39,-2.81 1.03,-5.64 1.03,-5.64l5.82 -15.33c4.95,-3.35 3.18,-19.75 3.18,-19.75 -2.83,-3.35 -4.4,-15.16 -4.4,-15.16 -0.19,-11.11 -9.89,-25.38 -9.89,-25.38 -3.52,-4.42 -1.76,-9.88 -1.76,-9.88 2.65,-3.53 5.48,2.64 5.48,2.64 2.8,4.77 5.82,2.48 5.82,2.48 3.34,-1.24 0,-8.12 0,-8.12 -3.52,-3.17 -4.06,-8.98 -4.06,-8.98 0.16,-6.01 -3.41,-8.87 -3.41,-8.87 -5.94,-3.56 -9.27,-10.05 -9.27,-10.05 -1.68,-5.42 -9.08,0.27 -9.08,0.27 -5.17,2.91 -14.4,-3.22 -14.4,-3.22 -5.63,-5.46 -24.31,-5.29 -24.31,-5.29 -4.07,-3.17 -9,-3.53 -9,-3.53 -0.89,-0.17 -4.59,0.36 -7.75,-4.05 -3.18,-4.41 -15.35,-14.28 -15.35,-14.28 -3.73,-2.11 -5.51,-0.99 -4.57,2.89 1.76,7.31 -4.95,11.11 -4.95,11.11 -5.94,5.67 1.85,12.13 1.85,12.13 9.23,5.01 0.39,11.74 0.39,11.74l-6.06 3.7c-9.11,3.82 -13.06,10.02 -13.06,10.02 -6.07,7.91 0.79,17.28 0.79,17.28 4.35,7.78 -1.98,19.12 -1.98,19.12 -3.3,11.35 -6.73,9.63 -6.73,9.63 -3.16,-0.66 -1.45,-5.8 -1.45,-5.8 3.16,-4.22 -0.27,-5.01 -0.27,-5.01 -1.58,-1.19 -2.11,4.61 -2.11,4.61 -4.62,3.82 -6.06,-2.5 -6.06,-2.5 -1.85,-3.96 1.97,-12.27 1.97,-12.27 2.77,-3.7 2.33,-14.77 2.33,-14.77 -1.23,-5.27 -5.1,-0.18 -5.1,-0.18l-4.92 10.03 -3.69 3.69c-7.04,5.1 -11.79,14.95 -12.13,16 -2.31,6.93 -13.38,12.84 -13.38,12.84 -8.08,2.99 -17.85,12.22 -17.85,12.22 -5.01,9.5 1.85,17.97 1.85,17.97 5.81,8.19 4.49,14.48 4.49,14.48 1.32,10.82 -8.97,29.55 -8.97,29.55 -9.23,11.61 0.79,23.75 0.79,23.75l0.26 15.3 7.92 19.78 8.44 9.24c0,0 12.4,16.34 12.22,18.29l-1.76 18.64 -0.7 40.45c0.7,30.6 -21.8,53.11 -21.8,53.11l-18.56 20.41c0,0 -19.7,24.08 -39.66,3.87 -2.47,-1.24 -9.85,-15.49 -9.85,-15.49l-21.29 -40.09 -0.96 -6.87c0,0 -3.3,-8.17 1.19,-14.37 4.48,-6.2 0.39,-18.47 0,-20.18 0,0 -1.98,-16.62 -8.05,-32.18 0,0 -11.87,-37.99 -1.31,-67.01l5.01 -23.48c0,0 -1.29,-8.97 6.43,-13.72 0,0 5.79,-2.46 5.61,-11.61 0,0 -0.87,-13.36 2.47,-17.23 0,0 26.64,-51.88 31.13,-86.44 0,0 -1.68,-3.09 -5.2,2.81 0,0 -8.66,14.33 -10.5,16.31 0,0 -9.62,10.29 -10.81,17.68 0,0 -2.17,5.49 -2.17,10.41 0,0 -2.81,9.68 -6.68,11.61 0,0 -18.33,15.57 -22.41,19.65 0,0 -8.54,6.55 -9.59,19.75 0,0 -1.5,10.46 -4.28,12.7 0,0 -3.95,5.81 -7.25,0.28 0,0 -4.35,-10.83 1.98,-16.11 0,0 9.24,-7.9 11.08,-9.5 0,0 3.83,-4.34 3.04,-7.25 0,0 -2.24,-5.4 1.18,-9.5l11.87 -17.53c0,0 4.26,-4.69 2.74,-8.88l0.74 0.67 -0.24 -5.29c-0.15,-3.59 0.15,-8.97 2.49,-14.25l0.11 -0.24 0.04 -0.25c0.54,-2.75 5.5,-27.29 14.65,-40.93 0.52,-0.74 12.63,-18.19 26.51,-28.09 0.05,-0.03 4.38,-3.22 8.72,-3.22 2.37,0 4.39,1 5.86,2.88 0.56,7.69 -0.32,11.9 -1.25,13.17l-0.38 0.53 -0.03 0.64c-0.08,1.29 0.07,3.1 1.17,4.37 0.53,0.63 1.54,1.37 3.35,1.37 0.27,0 0.56,-0.01 0.85,-0.04l0.12 0.06 0.41 0.07c0.1,0.03 0.25,0.05 0.47,0.05 2.5,0 6.21,-2.86 9.66,-16.41l3.06 -10.25 0 -0.3c0.02,-0.45 0.13,-1.31 0.73,-2.01 0.37,-0.42 1.09,-0.95 2.36,-1.04l0.03 0c0.06,0 0.32,0.01 0.75,0.01 5.49,0 33.49,-1.13 46.17,-23.38 0.31,-0.27 2.43,-1.94 7.12,-1.94 2.52,0 5.38,0.48 8.47,1.41 11.9,3.75 25.8,8.35 28.27,9.58 2.69,1.12 1.5,1.09 3.16,-0.55 1.06,-1.04 3.08,-2.48 6.15,-2.48 1.45,0 2.98,0.32 4.55,0.94l0.08 0.04c0.23,0.13 1.49,0.78 3.12,0.78 1.88,0 3.49,-0.84 4.82,-2.53 0.05,-0.05 0.98,-1.28 4.7,-1.28 3.36,0 7.84,1.02 13.37,3.06 1.02,0.31 10.07,3.05 14.13,3.05 0.03,0 0.18,0 0.41,0 7.49,0 5.34,-3.39 8.39,-5.08 -0.79,-2.87 -0.12,-3.63 -2.74,-3.63 -3.31,0 -8.01,-0.6 -11.54,-3.4l-10.98 -9.4 -0.1 -0.07 -0.06 -0.05c-4.04,-2.72 -11.09,-8.62 -11.88,-13.43l-0.01 -0.08c-0.02,-0.33 -0.71,-8.08 -7.37,-14 -0.26,-0.37 -3.3,-4.53 -8.28,-4.53 -2.36,0 -4.79,0.92 -7.19,2.7l-0.04 0.03 -9.79 5.95c-0.45,0.23 -4.15,2 -8.53,2 -3.25,0 -6.04,-1.01 -8.27,-3.01l-0.07 -0.05c-3.43,-2.66 -8.71,-9.29 -4.22,-15.37 0.22,-0.3 5.36,-7.53 -0.75,-13.68l-0.11 -0.12c-0.4,-0.57 -3.21,-4.15 -7.43,-4.15 -1.94,0 -3.91,0.74 -5.85,2.22l-0.28 0.22 -0.21 0.3c-0.54,0.78 -5.4,7.69 -10.82,7.69 -0.19,0 -0.39,-0.01 -0.58,-0.02l-0.28 -0.03 -0.3 0.05c-1.57,0.27 -9.86,1.86 -17.77,6.69l-0.1 0.06c-0.55,0.23 -5.45,2.21 -9.56,2.21 -0.21,0 -0.43,0 -0.65,-0.02 -1.86,-0.1 -3.19,-0.52 -4.59,-0.96 -1.8,-0.58 -4.05,-1.29 -7.88,-1.29 -0.22,0 -0.43,0 -0.66,0.01 -7.89,0.14 -10.66,1.21 -12.57,2.88 -1.99,1.75 -2.93,7.04 -3.15,8.45 -1.67,0.48 -10.06,3.02 -14.41,7.13 -3.15,2.82 -7.31,8.97 -3.05,14.19 0.12,0.47 0.58,2.7 -0.58,4.22 -0.47,0.63 -1.38,1.46 -3.78,1.46 -1.29,0 -2.83,-0.25 -4.58,-0.75l-14.01 -8.25c-0.34,-0.49 -2.63,-3.57 -7.82,-3.57 -1.98,0 -4.18,0.46 -6.53,1.38l-0.09 0.04c-0.57,0.26 -5.66,2.61 -10.92,2.61 -3.33,0 -6,-0.94 -7.88,-2.74l-0.05 -0.05c-0.14,-0.16 -13.74,-16.6 -31.48,-23.25l-0.01 0c-0.09,-0.04 -8.4,-3.89 -16.33,-3.89 -1.86,0 -3.55,0.21 -5.06,0.63 0.18,-3.3 -0.73,-8.31 -5.25,-8.94l-0.17 -0.02 -0.1 0.01c-3.58,0.05 -7.85,1.75 -8.1,6.37l0 0.13c0.1,2.36 1.35,3.99 3.17,4.16 2.23,0.21 5.36,1.58 5.62,2.73 0.11,0.52 -0.52,0.98 -0.91,1.21 -1.07,0.64 -2.05,1.49 -3.18,2.48 -2.52,2.2 -5.93,5.19 -12.69,7.23 -0.12,-10.25 0.33,-28.23 2.8,-33.44l0.1 -0.21 0.04 -0.22c0.39,-1.6 2.57,-9.62 8.57,-11.12l0.18 -0.05 0.1 -0.05c0.58,-0.25 5.8,-2.56 8.09,-4.7 0.73,-0.76 7.31,-7.59 13.11,-11.26l0.1 -0.07c0.17,-0.14 4.41,-3.34 8.99,-3.43l0.3 -0.01 0.31 -0.09c0.84,-0.27 2.9,-1.09 3.8,-3.14 0.79,-1.83 0.47,-4.08 -0.99,-6.7l-0.06 -0.13c-0.34,-0.86 -3.66,-8.98 -10.71,-8.98 -1.87,0 -3.85,0.57 -5.9,1.68l-0.3 0.16 -0.23 0.24c-1.03,1.06 -4.92,4.59 -11.58,5.64 -0.54,0 -9.65,0.12 -13.8,6.56l-0.18 0.29 -0.09 0.32c-0.44,1.61 -3.1,9.83 -12.41,13.32l-0.04 0.02 -14.36 3.85 -0.2 0.11c-0.69,0.35 -3,1.71 -4.05,4.55 -0.97,2.64 -0.6,5.79 1.09,9.35 0.3,2.9 -0.74,8.96 -6.72,11.69 -0.13,0.08 -14.34,7.33 -28.76,7.72 -0.12,0.01 -10.77,0.74 -14.01,4.92 -0.29,0.37 -7.44,9.32 -14.88,9.32 -0.4,0 -0.81,-0.03 -1.34,-0.09 -0.15,-0.02 -0.93,-0.07 -2.06,-0.07 -6.1,0 -10.43,1.45 -12.25,4.16l-0.09 0.16 -0.04 0.1c-0.29,0.66 -2.85,6.49 -3.27,9.7 -0.46,0.78 -3.76,6.53 -3.35,9.46 0.02,0.14 0.06,0.28 0.09,0.42 -1,1.76 -4.23,6.6 -10.23,1.03 -7.41,-6.87 -15.61,0.66 -15.61,0.66l-2.65 0.66 -1.31 -1.72 2.06 -4.85c0.35,-0.36 1.5,-1.73 4.67,-5.72 6.62,-8.33 -3.17,-10.58 -3.17,-10.58l-1.45 -2.78 -2.38 -5.11c-4.41,-3.18 -12,-0.35 -12,-0.35l-8.1 4.05 -13.58 7.41 -7.75 0.35 -6 3.52 -12.17 4.94c0,0 -6.44,0.66 -10.67,2.25 0,0 -15.78,5.82 -19.75,5.29l-2.73 0.44 0.01 -0.93c0,0 0.35,-2.29 5.11,-6.34 4.76,-4.06 4.33,-11.82 4.33,-11.82 3.69,-22.48 26.45,-26.71 26.45,-26.71 12.42,-5.28 18.77,-17.54 18.77,-17.54 9.52,-21.86 18.24,-26.62 18.24,-26.62l40.47 -26.8c0,0 31.2,-13.05 44.78,-18.34 13.57,-5.29 2.82,-10.66 2.82,-10.66 -13.75,-6.62 -31.2,-7.5 -31.2,-7.5 -7.94,-2.11 -30.68,5.82 -30.68,5.82 -9.88,3.7 -23.28,4.58 -23.28,4.58 -12.34,2.65 -34.73,-0.17 -34.73,-0.17 -4.85,-2.47 -5.64,0.17 -5.64,0.17 -2.38,3 -8.11,-0.52 -8.11,-0.52l-14.2 -9.35c-19.82,-9.17 -20.71,0.8 -20.71,0.8 -4.68,6.96 -7.23,-0.62 -7.23,-0.62 -2.11,-6.79 -6.52,-6.17 -6.52,-6.17 -3.79,0 -9.17,3.17 -9.17,3.17 -8.19,-1.15 -3,-7.14 -3,-7.14 7.94,-5.11 6.09,-6.96 6.09,-6.96 -4.33,-18.16 -12.61,-17.63 -12.61,-17.63l-2.55 0 -1.15 0.96 0.17 2.39 1.42 2.99 0 2.74 -2.21 0.35 -7.06 2.82c-7.75,5.55 -9.43,-1.85 -9.43,-1.85 -19.92,-10.4 -51.39,-11.11 -51.39,-11.11 -13.14,-11.02 -26.54,-6.83 -26.54,-6.83 -8.19,3.04 -14.84,0 -14.84,0 -21.96,-6.74 -22.35,-16.79 -22.35,-16.79l-5.21 0 -1.32 -2.74c0,0 -2.37,-2.56 -5.91,-5.64 -3.52,-3.08 -4.49,0.62 -4.49,0.62l-1.24 5.46 -1.58 0.97 -1.41 -1.32 -11.28 -13.75 -116.66 0c-419.89,-25.94 -761.1,-66.74 -1179.75,-159.04 0.37,-0.61 -55.52,-14.17 -61.46,-15.64 -122.46,-24.34 -361.46,-92.21 -361.46,-92.21 -2.31,6.56 4.31,11.42 4.31,11.42 9.26,3.04 2.51,8.46 2.51,8.46l-7.68 7.8c-3.16,5.95 4.25,3.71 4.25,3.71 1.19,-0.54 7.27,-7.14 7.27,-7.14 7.53,-3.31 4.75,5.15 4.75,5.15 -10.83,7.27 -8.46,9.52 -8.46,9.52 6.87,6.22 2.65,7.67 2.65,7.67 -7.68,0.27 -7.02,2.38 -7.02,2.38 6.75,5.69 2.52,8.99 2.52,8.99 -13.23,8.73 -9.92,17.46 -9.92,17.46 3.57,8.6 6.21,0.79 6.21,0.79 5.3,-8.72 6.75,1.86 6.75,1.86 -3.44,9.25 -0.26,14.14 -0.26,14.14 7.92,10.32 5.94,15.74 5.94,15.74 0,10.71 -5.02,9.38 -5.02,9.38 -3.17,-1.98 -4.36,-13.75 -4.36,-13.75 -3.83,-6.74 -9.79,-1.19 -9.79,-1.19 -9.25,7.67 -7.67,9.92 -7.67,9.92 1.86,4.1 -4.24,6.61 -4.24,6.61 -10.83,5.29 -3.56,13.22 -3.56,13.22 7.01,8.6 -0.53,11.25 -0.53,11.25 -10.71,2.24 -7.79,4.36 -7.79,4.36 2.9,5.29 0.13,11.24 0.13,11.24l-6.75 -5.56c-6.74,-8.85 5.03,-22.87 5.03,-22.87 5.02,-3.31 0.12,-8.99 0.12,-8.99 0.8,-4.76 8.21,-8.47 8.21,-8.47 5.28,-21.15 -1.99,-19.7 -1.99,-19.7 -10.71,-0.53 -12.69,24.2 -12.69,24.2 -7.55,7.67 -6.35,-3.57 -6.35,-3.57 0.8,-13.35 6.88,-20.19 6.88,-20.19 15.78,-8.9 12.82,-19.41 12.82,-19.41 9.79,-5.89 -0.04,-10.82 -0.04,-10.82 -8.81,4.05 -1.34,10.82 -1.34,10.82 0.88,7.4 -4.84,5.75 -4.84,5.75 -4.75,-0.7 -5.64,-15.16 -5.64,-15.16 -2.78,-8.95 -4.4,-0.53 -4.4,-0.53 0.88,10.05 -3.53,8.64 -3.53,8.64 -4.94,-0.53 -4.58,-10.76 -4.58,-10.76 -2.12,-7.05 -14.81,-3.52 -14.81,-3.52 -14.82,-6.53 -22.21,-3.35 -22.21,-3.35 -5.65,-11.82 -11.11,-11.29 -11.11,-11.29 -16.76,-2.82 -17.02,-4.49 -17.02,-4.49 -11.37,-9.79 -30.05,-33.06 -30.05,-33.06 -2.13,0.35 -2.61,26.44 -2.61,26.44 -0.92,4.24 -6.48,5.16 -6.48,5.16 -3.44,2.65 -1.05,8.47 -1.05,8.47 1.84,1.05 2.51,3.56 2.51,3.56 1.05,7.28 9.12,15.08 9.12,15.08 -4.36,7.67 -2.91,26.58 -2.91,26.58 -6.74,16.79 -7.47,22.68 -7.47,22.68 -2.51,8.72 -0.33,12.29 -0.2,14.47 0.14,2.19 -1.23,3 -1.23,3 -12.52,9.44 -12.34,14.64 -12.34,14.64 0.27,6.61 5.82,6.17 5.82,6.17 5.11,-0.09 6.17,-8.47 6.17,-8.47 1.93,-2.55 4.41,-0.26 4.41,-0.26 6.08,3.88 9.43,10.22 9.43,10.22 0.18,3.18 -4.15,3 -4.15,3 -18.77,-0.79 -16.48,1.15 -16.48,1.15l11.37 10.49c2.03,0.88 0.88,8.99 0.88,8.99 0.62,2.74 -6.17,3.26 -6.17,3.26 -4.15,1.94 -7.05,6.88 -7.05,6.88 -2.12,2.82 -0.26,6.43 -0.26,6.43 -0.1,6.53 -5.83,7.41 -5.83,7.41 -5.46,-0.09 -3.87,-5.29 -3.87,-5.29 3.25,-12.87 -0.27,-21.47 -0.27,-21.47 2.92,-1.05 4.68,-5.97 4.8,-7.69 0.14,-1.72 -3.6,-5.93 -8.23,-6.46 -4.64,-0.52 -9.39,3.97 -9.26,5.95 0.13,1.99 5.68,7.54 5.68,7.54 3.18,7.41 0.66,15.6 0.66,15.6 -2.5,2.39 -3.57,12.3 -3.57,12.3 -0.65,3.31 1.99,6.48 1.99,6.48 3.44,5.03 10.18,2.91 10.18,2.91 0,0 3.44,-1.32 9.65,-1.72 6.21,-0.39 7.92,2.33 7.92,2.33 9.55,11.49 41.62,24.76 41.62,24.76 11.35,5.67 8.86,18.26 8.86,18.26 -4.56,4.42 -2.66,12.45 -2.66,12.45 -4.31,-0.91 -3.1,-18.26 -3.1,-18.26 -2.13,-8.47 -37.56,-19.31 -37.56,-19.31 -29.36,-8.86 -23.13,-15.33 -30.02,-15.86 -11.24,-0.89 -9.65,19.22 -9.65,19.22 4.49,5.11 1.32,15.68 1.32,15.68 0.35,8.29 -27.69,38.97 -27.69,38.97 -4.22,0.7 -3.17,12.52 -3.17,12.52 -14.1,6.7 -16.56,31.2 -16.56,31.2 -1.24,7.76 -15.7,37.73 -15.7,37.73 -11.46,7.05 -4.23,11.82 -4.23,11.82 7.23,4.93 -1.06,10.57 -1.06,10.57 -9.16,4.06 -10.58,8.64 -10.58,8.64 2.12,9.35 -0.7,13.4 -0.7,13.4 -17.98,2.3 -21.34,28.03 -21.34,28.03 -10.04,0.36 -9.52,7.76 -9.52,7.76 0.36,12.34 -3.87,13.58 -3.87,13.58 -12.7,3.35 -11.11,23.62 -11.11,23.62 -6.35,6.88 -8.11,12.87 -8.11,12.87 -8.11,5.65 -14.81,1.95 -14.81,1.95 -7.41,-4.94 -14.63,-1.59 -14.63,-1.59 -9.17,7.22 -1.77,15.69 -1.77,15.69 4.41,5.64 12.79,14.63 12.79,14.63 3.43,3.7 -0.27,24.33 -0.27,24.33 -4.23,-0.53 -4.76,8.73 -4.76,8.73 -1.85,14.81 1.59,26.18 1.59,26.18l0.12 1.41c0,0 -3.35,6.79 -6.79,1.94 0,0 -6.26,-5.55 -8.29,4.94 0,0 -1.54,3.74 6.13,12.07 0,0 7.01,9.39 0.66,21.56 0,0 -2.77,16.4 -4.89,20.36 0,0 -2.25,9.65 -10.58,11.37 0,0 -1.72,-0.13 -1.85,2.25 0,0 -1.01,22.13 -2.95,26.54 0,0 -30.33,28.74 -33.32,39.48 0,0 -9.17,11.82 7.75,35.97 0,0 0,10.41 3.71,13.58 0,0 7.75,29.62 2.11,40.2 0,0 -1.41,5.99 -7.93,13.75 0,0 -9.7,7.4 -2.29,17.81 0,0 6.52,8.63 -4.42,10.23 0,0 -7.04,0 -5.99,9.69 0,0 1.59,1.94 -8.11,5.82 0,0 -11.99,5.99 -3.35,10.05 0,0 5.82,0 8.82,2.46 0,0 1.94,7.59 5.82,0 0,0 3.52,-6.17 8.28,0.54 0,0 5.82,5.28 4.06,15.86 0,0 -1.06,4.94 6.87,11.29 0,0 6.17,4.06 9.87,19.03 0,0 0.89,4.2 5.38,3.67 0,0 4.1,0.13 5.42,15.47 0,0 0.8,5.16 5.16,8.72 0,0 -7.14,-4.22 -11.37,-3.31 0,0 -11.9,-0.91 -11.77,15.61 0,0 0.66,9.79 4.63,14.15 0,0 3.7,6.49 7.93,1.05 0,0 2.65,-11.36 9.39,-5.55 0,0 1.98,2.91 2.12,9.66 0,0 1.06,11.63 11.63,11.77 0,0 11.37,-0.14 11.77,-13.36 0,0 1.99,-16.13 13.62,-11.76 0,0 17.06,9.11 35.31,3.96 0,0 11.37,-3.71 17.05,-2.65 0,0 13.49,2.13 3.31,13.37 0,0 -10.97,14.67 -22.61,3.56 0,0 -5.56,-8.33 -16.8,-7 0,0 -6.87,1.19 -9.78,-0.8 0,0 -7.67,-3.58 -12.3,1.58 0,0 -3.96,5.29 1.59,8.6 0,0 3.57,1.98 3.17,7.41 0,0 -4.1,13.22 0.53,19.69 0,0 1.06,19.05 4.1,23.54 0,0 8.47,11.38 2.38,14.68 0,0 -5.02,4.5 -6.34,-2.37 0,0 -7.14,-9.13 -8.07,-12.17l0.53 -15.74c0,0 0.4,-12.42 -3.97,-20.5 0,0 -5.95,-1.71 -13.09,4.76 0,0 -4.36,0.8 -5.02,2.25 0,0 -2.38,25 -3.58,29.49 0,0 -0.74,7.41 -1.8,9.16 0,0 -7.76,8.99 -4.76,11.65 0,0 4.94,4.05 3.52,13.4 0,0 -1.23,16.04 -4.76,22.21 0,0 -4.58,8.28 3.18,8.99 0,0 13.75,1.06 16.39,17.98 0,0 1.77,3.89 -4.23,7.41 0,0 -5.29,7.76 2.12,14.63 0,0 15.87,18.87 19.04,32.98 0,0 8.99,19.56 9.7,25.56 0,0 -1.41,16.4 4.76,17.09 0,0 12.16,-0.69 9.87,10.76 0,0 -6.35,7.06 3.7,11.99 0,0 13.4,9.35 12.7,13.4 0,0 -1.59,9.18 -6,15.17 0,0 -5.82,8.1 6.88,10.05 0,0 7.93,12.34 -0.35,21.68 0,0 -7.23,10.23 -0.89,24.68 0,0 -13.92,4.59 -8.28,15.34 0,0 3,20.28 25.56,19.4 0,0 16.93,6.69 27.15,13.21 0,0 2.65,2.65 18.52,1.6 0,0 4.58,-2.12 15.51,10.92 0,0 1.41,3.35 7.76,4.06 0,0 4.76,1.06 7.05,5.29 0,0 8.1,12.52 19.39,21.51 0,0 3.71,1.76 2.29,5.11 0,0 3.35,5.74 7.85,5.12 0,0 7.85,-4.94 12.43,0.04 0,0 17.02,10.88 17.72,12.47 0,0 10.41,7.77 0,16.76 0,0 -9,3.08 -4.14,9.07 0,0 -4.76,10.5 0.53,12.87 0,0 7.67,1.24 14.45,-1.76 0,0 7.14,-2.74 14.46,3.09 0,0 17.63,-0.35 19.93,5.02 0,0 2.2,4.5 -1.15,8.11 0,0 -3.8,4.14 -2.82,9.08 0,0 -0.27,6.7 5.46,11.99 0,0 18.34,22.12 24.07,22.57 0,0 -0.62,5.03 4.31,12.78 0,0 2.92,7.76 -1.4,12.43 0,0 -5.29,8.82 -15.16,20.36 0,0 -6.97,8.28 2.11,11.9 0,0 6.08,-0.44 6.44,-0.44 0,0 -4.05,-3.18 2.55,-7.75 0,0 3.17,-3.53 5.12,0.35 0,0 5.11,5.37 0.09,10.66 0,0 -6.88,5.9 -6.36,8.47 0,0 -0.15,6.7 8.56,5.81l192.78 13.58c0,0 4.04,0.92 7.41,2.32 0,0 -19.78,14.17 -19.13,24.88 0,0 289.24,164.97 292.77,165.68l168.55 28.91 58.18 10.23 8.46 -41.61 141.39 20.8 0.53 4.55c2.25,0.53 2.25,4.22 2.25,4.22 -1.05,4.38 1.19,6.49 1.19,6.49 1.85,1.06 3.31,3.97 3.31,3.97 0.52,3.44 4.36,7.39 4.36,7.39 5.29,7.94 10.75,10.59 10.75,10.59 5.12,1.23 12.78,10.31 12.78,10.31 12.3,10.71 16.15,20.19 16.15,20.19 1.75,8.46 7.92,13.76 8.28,14.45 0,0 15.87,16.4 16.57,17.64 1.88,3.28 4.59,1.76 4.59,1.76 5.46,-0.36 6.87,7.58 6.87,7.58 1.24,4.77 9.69,10.58 9.69,10.58 18.52,10.05 19.05,32.8 19.05,32.8 1.32,14.54 8.46,34.37 8.46,34.37 7.93,15.61 6,21.69 6,21.69 -0.18,11.81 3.12,14.28 3.12,14.28 3.97,2.38 4.81,9.34 4.81,9.34 4.41,8.64 25.34,26.1 25.34,26.1 3.44,4.49 8.33,2.25 8.33,2.25 2.66,-2.12 5.69,2.11 5.69,2.11l8.07 6.74c0,0 5.02,2.78 7.67,3.05 2.64,0.26 6.21,-1.46 6.21,-1.46 0.53,5.29 7.41,7.41 7.41,7.41 4.89,0.39 6.74,2.77 6.74,2.77l9.65 9.91c9.79,12.58 19.04,13.36 19.04,13.36 9.13,0.27 12.7,-10.44 12.7,-10.44l7.67 -12.96c6.35,-6.87 7.8,-19.04 7.8,-19.04 1.58,-19.44 9.52,-20.63 9.52,-20.63 9.13,-1.98 13.49,-13.22 13.49,-13.22 5.29,-10.57 12.96,-8.99 12.96,-8.99 6.6,0.26 12.82,6.61 12.82,6.61 5.03,6.47 8.33,0.8 8.33,0.8 3.58,-3.58 7.54,1.18 7.54,1.18 0,2.51 6.34,3 6.34,3 6.88,-0.03 11.77,2.02 11.77,2.02 6.09,4.63 8.46,1.86 8.46,1.86 2.92,-2.65 7.02,1.72 7.02,1.72 5.16,6.08 5.94,3.96 5.94,3.96 2.65,-5.16 7.41,-1.71 7.41,-1.71 5.03,-0.14 18.25,9.52 18.25,9.52 4.63,5.15 15.34,6.21 15.34,6.21 7.8,-0.53 9.52,7.28 9.52,7.28 0.13,4.49 10.85,14.67 10.85,14.67l16.13 16c3.96,7.66 -4.36,8.6 -4.36,8.6l20.35 15.99c8.21,6.22 4.1,12.57 4.1,12.57 -5.29,4.36 2.78,10.18 2.78,10.18 7.8,8.86 12.16,21.29 12.16,21.29 3.71,11.9 10.98,18.38 10.98,18.38 4.62,2.91 3.18,6.22 3.18,6.22 0.27,5.68 3.69,8.85 3.69,8.85 3.58,5.03 13.63,27.77 13.63,27.77 4.76,12.03 13.62,18.25 13.62,18.25 7.4,2.91 12.69,7.67 12.69,7.67 9.91,5.29 6.35,24.73 6.35,24.73 -0.53,10.18 7.41,20.23 7.41,20.23 5.28,3.56 2.02,17.58 2.02,17.58 -3.35,3 0,5.82 0,5.82 4.93,3.88 7.76,11.29 7.76,11.29 2.47,5.64 5.99,7.4 5.99,7.4l8.11 4.58c7.58,4.58 8.11,17.06 8.11,17.06 0.66,17.72 20.46,22.62 20.46,22.62 5.11,-0.71 8.63,14.62 8.63,14.62 3,5.12 6.35,-0.7 6.35,-0.7 6.88,-5.64 10.94,2.3 10.94,2.3 5.28,9.52 15.15,7.22 15.15,7.22 9.17,0 39.85,-2.12 39.85,-2.12 18.51,-0.35 20.62,7.77 20.62,7.77 4.95,10.92 13.05,15.86 13.05,15.86 4.94,4.77 14.11,1.06 14.11,1.06 5.64,-3.18 2.29,-12.35 2.29,-12.35 -4.59,-8.63 1.24,-14.8 1.24,-14.8 9.34,-5.64 5.64,-19.04 5.64,-19.04 -5.47,-10.94 -3,-17.81 -3,-17.81 1.76,-6.88 -3.53,-21.33 -3.53,-21.33 -3.35,-16.75 -2.99,-28.56 -2.99,-28.56 -2.12,-18.34 9.34,-39.5 9.34,-39.5 0,0 2.12,-4.05 -0.53,-5.47 -2.64,-1.4 -5.29,3.1 -5.29,3.1 -8.99,14.27 -11.64,38.87 -11.64,38.87 -1.05,12.16 4.24,28.03 4.24,28.03 5.03,17.18 4.23,24.06 4.23,24.06 -0.26,9.27 3.35,18.08 3.35,18.08 3.53,4.23 2.64,9.52 2.64,9.52 -1.41,5.81 -5.81,1.76 -5.81,1.76 0.35,-4.4 -4.41,-9.52 -4.41,-9.52 -3.89,-3.88 -7.15,-10.84 -7.15,-10.84 -2.24,-3.17 -0.79,-19.18 -0.79,-19.18 0.4,-14.28 -9.12,-21.29 -9.12,-21.29 -5.95,-7.8 -4.1,-16.39 -4.1,-16.39 3.7,-4.63 -0.13,-10.32 -3.17,-12.56 -3.05,-2.25 -12.3,-7.55 -12.3,-7.55 -5.55,-4.22 -1.59,-9.78 -1.59,-9.78 2.92,-4.62 5.82,1.33 5.82,1.33 2.65,5.42 6.87,-1.86 6.87,-1.86 1.47,-2.24 5.96,-11.76 5.96,-11.76 2.64,-4.5 3.57,1.19 3.57,1.19l-0.53 23.54c0.27,3.96 3.83,3.83 3.83,3.83 3.57,0.53 4.36,-4.63 4.36,-4.63 0.67,-12.3 9.79,-31.07 9.79,-31.07 0,0 3.7,-7.8 2.39,-17.06 -1.33,-9.25 -16.68,-11.24 -16.68,-11.24l-5.28 -1.45 -6.35 -3.58 2.52 0.53 8.32 1.59 5.69 -2.25c0,0 4.64,-2.78 11.25,-2.12 6.61,0.67 8.19,5.56 8.19,5.56l-2.38 1.06 -0.79 2.12 2.91 3.17 3.31 -0.66 3.69 -4.23 2.25 -5.55c5.16,-2.78 10.72,-29.09 10.72,-29.09 0.66,-4.37 4.1,-4.11 4.1,-4.11l4.62 -0.26c6.48,0 7.15,-5.29 7.15,-5.29 2.37,-3.97 3.56,-12.17 3.56,-12.17 3.17,-4.76 7.8,0.66 7.8,0.66l6.61 7.01 11.9 -7.4 -14.15 -20.63c-4.5,-13.49 5.56,-5.82 5.56,-5.82l11.11 11.11 -2.38 -11.5c3.97,-7.41 7.66,0.26 7.66,0.26 0.94,7.01 7.8,-3.04 7.8,-3.04 10.46,-6.35 5.69,4.22 5.69,4.22 0,0 -2.77,5.03 -3.7,5.56 -6.64,3.8 -2.91,9.12 -2.91,9.12l8.86 -2.25c3.3,-8.19 20.23,-12.43 20.23,-12.43 7.14,0.53 2.25,6.09 2.25,6.09 -12.29,9.78 -21.02,7.54 -21.02,7.54 -3.45,-0.65 -7.19,0.37 -10.76,2.16 -8.68,4.35 -16.35,13.18 -16.35,13.18 -3.44,-0.27 -16.66,10.18 -16.66,10.18 -17.85,10.18 -27.9,32.93 -27.9,32.93 -6.48,13.22 5.33,7.35 5.33,7.35 3.7,-2.28 5.29,-12.87 5.29,-12.87 8.46,-13.4 24.51,-22.92 25.91,-23.45 1.42,-0.52 5.3,-5.28 5.3,-5.28l5.81 -7.06c6,0.53 9.35,-1.93 9.35,-1.93l25.56 -12.52c22.92,-10.76 22.05,-13.23 22.05,-13.23l8.99 -9.17c5.81,-5.28 9.64,-4.22 9.64,-4.22 1.85,-0.41 7.81,1.72 7.81,1.72 5.68,0 9.78,-4.24 9.78,-4.24 4.77,-4.76 7.02,-3.44 7.02,-3.44 14.14,-1.19 14.05,-15.38 14.05,-15.38 5.47,1.41 12.17,-7.93 12.17,-7.93 -0.89,2.82 1.59,6.52 1.59,6.52 4.58,6.17 10.22,0 10.22,0l8.82 -11.22c3.87,-12.11 -13.4,-0.95 -13.4,-0.95 -4.77,3 -3.88,-2.11 -3.88,-2.11 0.53,-29.27 -7.23,-32.62 -7.23,-32.62 -5.11,-3.53 -1.41,-6.88 -1.41,-6.88 1.58,-3.52 11.1,-4.4 11.1,-4.4 6.53,-1.06 12.62,-7.49 12.62,-7.49 3.34,-5.91 6.42,-1.85 6.42,-1.85 6.17,4.84 0.62,11.1 0.62,11.1 -5.46,5.3 -0.53,12.09 -0.53,12.09 2.83,7.39 12.61,2.11 12.61,2.11 -6.97,6.17 -18.96,9.61 -18.96,9.61 -5.72,6.34 3,6.43 3,6.43 10.05,0 26.76,-10.85 26.76,-10.85 6.35,-8.19 15.47,-13.35 15.47,-13.35 6.48,-4.1 23.54,0 23.54,0 7,0 10.58,-5.56 10.58,-5.56 8.43,2.25 15.59,-2.63 15.59,-2.63 8.69,-6.09 24.24,-5.56 24.24,-5.56 10.84,-3.17 2.92,-9.52 2.92,-9.52l-6.36 -5.95c-4.88,-6.08 0,-14.28 0,-14.28 4.64,-7.94 8.73,0.13 8.73,0.13 4.37,5.83 2.12,18.65 2.12,18.65 -1.59,2.78 2.25,4.23 2.25,4.23 5.03,2.77 12.03,5.29 12.03,5.29 0,0 3.83,0.79 2.91,3.44 -0.92,2.64 1.85,4.09 1.85,4.09l10.18 4.63c11.11,8.46 23.67,3.04 23.67,3.04 3.71,-4.63 13.62,-0.65 13.62,-0.65l10.31 4.22c12.82,6.49 22.61,-0.26 22.61,-0.26l4.23 -0.26 3.32 1.45 -0.8 2.12c-8.6,9.38 9.12,13.22 9.12,13.22 21.42,-3.84 9.65,-13.75 9.65,-13.75 -4.49,-5.43 -15.07,-2.78 -15.07,-2.78l-2.38 -1.59c1.85,-5.29 -5.95,-7.67 -5.95,-7.67 -5.03,-1.31 -10.58,-5.69 -10.58,-5.69 -6.08,-7.79 1.99,-11.5 1.99,-11.5l9.11 -2.77c12.3,-4.77 20.51,8.99 20.51,8.99 7.67,8.33 7.27,-6.08 7.27,-6.08 1.06,-8.87 9.25,1.45 9.25,1.45 5.02,7.14 -1.31,16.79 -1.31,16.79 -7.94,11.77 9.38,10.71 9.38,10.71 11.9,1.2 10.71,-12.96 10.71,-12.96 2.65,-10.84 8.59,-5.02 8.59,-5.02 2.91,6.47 -0.39,11.24 -0.39,11.24 -5.95,12.04 2.91,16.93 2.91,16.93 -15.6,5.28 -12.04,13.61 -12.04,13.61 0.66,8.34 14.82,2.91 14.82,2.91 9.38,-7.93 17.32,-5.69 17.32,-5.69 10.85,0.93 5.82,7.02 5.82,7.02 -7.81,9.38 3.43,10.84 3.43,10.84l12.17 1.59c0,0 2.64,-0.53 6.22,2.78 3.56,3.3 9.64,2.24 16.52,-3.97 6.88,-6.22 0,-14.41 0,-14.41 0,0 -5.42,-4.9 -6.47,-7.01 -1.06,-2.12 -1.19,-3.05 1.19,-4.23 2.37,-1.19 3.96,1.05 3.96,1.05l3.71 4.37c3.16,5.28 6.21,0.79 6.21,0.79 1.32,-4.49 5.55,-1.98 5.55,-1.98 2.78,2.51 -1.72,5.29 -1.72,5.29 -4.76,1.98 1.06,11.5 1.06,11.5 6.47,8.86 22.09,-1.59 22.09,-1.59 7.66,-5.55 1.45,-13.09 1.45,-13.09l-3.58 -6.61c-2.5,-5.16 -0.39,-9.52 -0.39,-9.52 3.44,-5.42 10.18,-0.4 10.18,-0.4 5.03,5.82 12.3,9.52 12.3,9.52 8.2,2.78 4.23,6.34 4.23,6.34 -6.75,6.75 6.08,9.13 6.08,9.13 7.93,2.78 3.44,10.85 3.44,10.85 -4.62,3.97 -3.04,6.21 -3.04,6.21 3.17,8.06 12.16,-2.51 12.16,-2.51l1.45 0c2.78,6.74 12.18,2.11 12.18,2.11l3.3 1.46c12.3,-0.13 12.3,-10.58 12.3,-10.58 -0.66,-5.68 -10.99,-1.98 -10.99,-1.98l-1.44 -0.93 -12.35 -5.25c-8.28,-2.82 -5.46,-8.99 -5.46,-8.99 1.77,-2.11 8.11,1.94 8.11,1.94 6.17,7.05 22.91,6.18 22.91,6.18 2.3,-1.06 3.01,-3.88 1.6,-6.18 -1.42,-2.29 -9.17,-1.58 -11.81,-2.29 -2.65,-0.71 -4.59,-2.82 -4.59,-2.82 -9.87,-3.53 -20.46,-11.99 -20.46,-11.99 -5.63,-4.94 -8.1,-12.51 -8.1,-12.51 0,-6.7 6.88,-2.82 6.88,-2.82 4.75,1.4 4.75,-2.3 4.75,-2.3 0.35,-3.17 -9.7,-5.29 -9.7,-5.29 -8.1,-5.46 3.71,-7.05 3.71,-7.05 2.46,0 7.58,4.41 7.58,4.41 8.64,6.35 6.53,-5.47 6.53,-5.47 -5.82,-8.99 -0.53,-14.98 -0.53,-14.98 7.92,-3.88 2.47,-10.94 2.47,-10.94 -5.82,-7.75 -12.17,-0.87 -12.17,-0.87 -3.35,1.76 -3.7,16.56 -3.7,16.56 -1.41,7.05 -5.29,2.48 -5.29,2.48 -5.12,-6.88 -9.87,1.58 -9.87,1.58 -4.95,5.12 -10.23,0.71 -10.23,0.71 -8.65,-5.11 -3.88,-12.34 -3.88,-12.34 1.41,-2.13 9,-2.29 9,-2.29 1.05,-3.88 5.64,-4.24 5.64,-4.24 5.64,0.36 11.81,-4.59 11.81,-4.59 8.98,-5.46 -0.53,-5.99 -0.53,-5.99l-26.62 0.36c-9.87,1.41 -22.05,13.93 -22.05,13.93 -6.52,6.34 -11.45,0 -11.45,0l-8.12 -8.99c-5.46,-6.36 -13.74,-0.89 -13.74,-0.89 -4.24,4.05 -10.58,2.12 -10.58,2.12 -6.53,-3.36 -5.3,-12.7 -5.3,-12.7 -0.16,-7.57 10.76,-4.41 10.76,-4.41l13.05 7.76c14.27,0.18 4.75,-10.23 4.75,-10.23 -5.28,-8.1 4.77,-7.92 4.77,-7.92l25.03 0.16c13.22,-1.05 26.27,12 26.27,12 4.77,5.81 20.28,4.06 20.28,4.06l2.82 0c9.87,-2.65 20.28,-12.35 20.28,-12.35 7.58,-4.94 18.51,-0.88 18.51,-0.88 9.16,4.58 18.68,-3.7 18.68,-3.7 2.11,-0.71 8.29,-7.23 16.23,-1.24 7.93,5.99 11.42,2.3 11.42,2.3 0,0 11.37,4.1 13.81,-3.38l0.06 -1.26c0,0 5.76,3.97 8.86,3.72 3.12,-0.28 6.29,-2.32 6.82,-6.68 0.52,-4.38 -1.06,-7.55 -1.79,-7.81 -0.72,-0.26 -0.33,-11.71 -0.33,-11.71l-1.45 -3.17 2.65 -2.91c0,0 1.65,-10.44 -2.32,-13.88 0,0 -3.7,-6.15 -3.7,-14.27 0,0 -0.09,-6.1 3.26,-9.97 3.35,-3.88 4.05,-7.58 4.13,-9.08 0.1,-1.5 3.01,8.98 3.01,8.98 0,0 1.24,8.83 3.17,10.85 0,0 2.56,5.83 3,6.18 0.44,0.34 1.15,3.96 -0.62,5.37 -1.76,1.41 -3.35,7.31 -2.47,9.08 0,0 0.27,5.82 4.58,9.17l3.62 4.94 1.32 4.23 0.09 10.13c0,0 0.36,2.39 2.11,3.18 1.76,0.79 4.15,2.73 4.15,4.06 0,0 2.02,2.9 -5.56,4.75l-13.21 4.32c0,0 -6.7,3.97 -6.01,5.2 0.71,1.24 0.27,2.03 5.21,2.03 0,0 13.58,-3.26 16.22,-3.97 2.64,-0.7 7.84,-2.99 14.54,-2.9 6.7,0.09 14.82,-4.95 13.05,-6.97 0,0 1.26,-3.12 -1.57,-5.24 0.01,0 0.03,-0.01 0.03,-0.01 2.54,1.64 2.3,4.02 2.05,5.03 0.43,-0.19 1.29,-0.44 2.93,-0.75 4.67,-0.89 13.75,-5.29 13.75,-5.29 4.24,-2.2 2.82,-8.63 2.82,-8.63 -1.76,-2.47 -1.76,-8.12 -1.76,-8.12 1.85,-6.17 5.2,2.04 5.2,2.04 2.11,3.78 4.58,0.96 4.58,0.96 3.27,-0.96 4.32,-11.81 4.32,-11.81 2.55,-5.55 7.14,-0.97 7.14,-0.97 3.27,3.88 -1.06,10.31 -1.06,10.31l-8.28 8.9c-5.2,3.53 -1.77,10.41 -1.77,10.41 1.86,6.61 14.02,6.7 14.02,6.7 3.79,0.71 22.83,-3.97 22.83,-3.97 5.03,-1.05 7.68,-4.32 8.03,-5.91 0.35,-1.59 -0.44,-3.7 -5.12,-4.67 -4.68,-0.96 -18.51,2.3 -19.48,2.65 -0.96,0.35 -6.26,1.49 -6.97,-1.5 -0.69,-3 5.74,-3.79 5.74,-3.79 0,0 11.9,-2.47 18.69,-2.03 6.79,0.44 6.52,-5.99 6.52,-5.99 0.97,-6.35 16.66,-7.67 16.66,-7.67 6,-0.09 12.7,3.79 12.7,3.79 5.46,1.24 2.29,5.73 1.93,5.99 -0.35,0.27 -6.52,2.21 -8.46,1.5 -1.93,-0.7 -8.38,-0.7 -11.02,0 -2.64,0.71 -2.29,3.27 -2.29,3.27 -0.26,3.88 11.02,7.39 11.02,7.39 3.79,1.06 15.43,-3.61 15.43,-3.61 0,0 5.9,-2.11 10.92,-3.09 5.03,-0.96 9.45,5.3 9.45,5.3l10.84 9.7c0,0 0.8,3.17 5.55,1.31 4.75,-1.85 1.23,-9.08 1.23,-9.08 -2.49,-6.87 1.22,-10.74 1.22,-10.74 3.45,-4.15 11.04,-1.86 11.04,-1.86 4.94,2.2 2.11,7.94 2.11,7.94 -1.92,0.26 -1.31,6.26 -1.31,6.26 -0.38,4.13 5.37,3.95 5.37,3.95 2.83,-3.43 7.85,0.36 7.85,0.36 1.65,1.06 3.53,3.53 0.61,6.88 -2.91,3.35 -8.2,-0.09 -8.2,-0.09l-5.74 -3.43 -6.71 -4.15 -0.07 3.7c-0.96,3.35 4.94,7.67 4.94,7.67l15.86 14.28c3.87,1.5 4.25,11.9 4.25,11.9 -1.87,2.65 -0.53,10.05 -0.53,10.05 3.33,6.79 11.53,-1.15 11.53,-1.15l9.35 -2.46c4.13,1.59 5.05,-3.44 5.05,-3.44 0,0 5.37,-3.62 7.63,-1.58 2.29,2.02 5.4,-1.06 5.4,-1.06 0,0 3.18,-4.59 8.01,-4.5 4.86,0.08 3.37,4.41 3.37,4.41 0,0 -2.15,5.37 -6.55,6.08 -4.41,0.71 -4.22,4.85 -4.22,4.85 0.15,2.47 4.56,3.18 4.56,3.18 6.13,1.06 10.61,-2.82 10.61,-2.82 0,0 3.07,-3.36 7.05,-7.23 3.95,-3.89 -1.15,-7.06 -1.15,-7.06l-3.87 -0.79 0.81 -1.32 5.09 -1.42c2.57,0.45 4.68,-0.26 3.87,-4.5 -0.8,-4.22 4.06,-3.25 7.51,-4.93 3.41,-1.68 7.32,-0.97 7.32,-0.97 8,4.94 8.69,-4.67 8.69,-4.67 0,0 1.27,-0.62 -1.99,-7.49 -3.29,-6.88 7.93,-6.26 9.16,-6.35 1.23,-0.09 3.06,1.06 2.83,-2.64 -0.26,-3.71 6.06,-3.53 6.06,-3.53 3.37,-0.64 8.2,-0.09 8.92,1.06 0.69,1.14 7.47,3.21 7.47,3.21 0.54,0 3.45,-0.53 7.17,-1.32 3.68,-0.79 4.21,3.45 4.21,3.45 0,0 2.26,10.05 1.19,13.61 -1.03,3.57 5.02,9.26 8.74,7.93 3.71,-1.32 5.4,-0.53 10.19,2.38 4.75,2.92 2.1,0.67 10.03,-0.92 7.93,-1.59 4.26,7.14 4.26,7.14 -6.25,5.42 1.68,13.49 1.68,13.49 1.19,1.74 11.38,10.18 18.66,9.91 7.28,-0.27 5.82,15.08 5.82,15.08 0,0 -2.37,7.67 -1.07,10.84 1.34,3.17 0,1.85 7.16,1.59 7.13,-0.27 16.52,-8.6 16.52,-8.6l5.44 -1.59c3.67,-1.85 5.67,8.34 3.02,9 -2.64,0.66 -1.07,10.18 4.37,12.69 5.4,2.51 8.31,10.32 8.31,10.32l2.65 21.01c3.83,16.93 -8.59,38.49 -8.59,38.49l-5.43 13.36c0,0 -1.04,17.18 -1.19,17.71 -0.12,0.53 0.95,9.39 8.08,8.33 7.13,-1.06 6.9,8.99 9.5,12.04 2.64,3.03 6.09,-1.33 8.08,-3.44 2,-2.11 -1.18,-9.66 -1.18,-9.66l-5.02 -9.65c0,0 -4.64,-4.09 -4.48,-10.76 0.11,-6.65 7.89,-2.32 7.89,-2.32 0,0 5.82,6.74 4.63,8.05 -1.18,1.33 1.34,10.46 3.34,12.96 1.95,2.52 7.12,-1.45 5.28,-3.97 -1.87,-2.5 -0.26,-6.47 -0.26,-6.47 3.56,-3.3 6.05,0.67 6.05,0.67 3.87,0.39 3.72,13.74 3.72,13.74 0,0 -3.95,12.04 -5.02,12.57 -1.08,0.53 -4.26,7.8 3.02,8.06 7.28,0.27 4.91,5.82 4.91,5.82 0,0 -2.22,2.91 -5.67,0.53 -3.45,-2.39 -5.02,-1.33 -5.44,3.7 -0.39,5.02 -5.4,2.65 -5.4,2.65 0,0 0.65,-0.41 -4.37,-2.65 -5.02,-2.25 -6.21,0 -7.17,0.79 -0.92,0.8 0.42,6.36 4.52,8.2 4.1,1.85 3.68,8.6 -0.26,12.84 -3.99,4.22 0.26,7.39 0.26,7.39l6.48 6.49c0,0 1.72,1.84 3.71,1.84 1.96,0 7.28,9.52 7.28,9.52 1.15,3.44 5.14,3.57 8.32,1.33 3.18,-2.25 5.55,1.58 6.59,2.11 1.07,0.53 2.26,5.55 2.26,5.55 6.74,6.88 7.93,-3.03 7.93,-3.03 0,0 -0.39,-4.36 1.99,-8.74 2.37,-4.36 13.1,-4.88 15.86,-2.64 2.8,2.25 2.91,6.22 -4.37,12.43 -7.28,6.22 -0.8,8.73 2.53,9.26 3.3,0.53 8.58,7.27 3.56,11.51 -5.02,4.22 -13.1,0.26 -13.1,0.26 0,0 -4.48,-4.9 -7.78,-7.28 -3.33,-2.37 -6.24,-1.58 -7.66,2.25 -1.49,3.83 3.41,8.73 3.41,8.73 7.66,5.95 4.64,7.01 4.64,7.01 -4.48,3.44 0.92,9.65 3.83,12.3 2.91,2.64 2.53,2.38 8.08,1.05 5.56,-1.31 6.32,-1.41 11.8,2.12 5.48,3.52 6.17,-3 6.17,-3 0,0 0.15,-1.63 1.07,-7.18 0.92,-5.55 4.64,-6.35 9.24,-7.41 4.63,-1.05 4.36,8.33 4.36,8.33l1.84 16.13c0,0 0.69,8.47 4.52,16.54 3.83,8.06 8.24,6.74 8.24,6.74 1.42,0 4.94,-1.76 5.29,3.88 0.34,5.64 4.94,3.17 4.94,3.17 0,0 2.99,-3.7 6.36,-2.29 3.33,1.41 -1.07,6.87 -1.27,7.22 -0.15,0.36 -6.85,5.12 7.44,5.65 14.25,0.52 21.49,-5.82 21.49,-5.82 6.36,-0.88 6.51,5.29 6.51,5.29 0,0 0.54,7.06 1.42,11.99 0.88,4.94 -4.94,7.05 -4.94,7.05 0,0 -10.04,4.77 -13.22,6.53 -3.18,1.75 -3.53,5.63 -1.95,8.11 1.6,2.47 7.58,-0.71 7.58,-0.71 0,0 3.18,-1.59 7.43,-5.65 4.22,-4.04 6.52,-1.22 6.52,-1.22 2.83,0.53 -2.84,5.63 -2.84,5.63 0,0 -7.55,5.29 -7.55,5.82 0,0.53 -5.47,3.53 -0.72,6.17 4.75,2.64 11.45,-2.29 11.45,-2.29l5.63 -4.76 5.33 -1.94c0,0 4.56,2.82 5.44,2.82 0.88,0 4.6,2.12 1.95,7.41 -2.64,5.28 -13.6,4.58 -13.6,4.58 0,0 -9.16,-0.35 -14.63,1.06 -5.44,1.41 -6.17,8.47 -6.17,8.47 0,0 1.26,1.58 6.01,5.46 4.75,3.88 9.5,3.88 9.5,3.88 0,0 6.44,0.18 11.23,-4.59 4.75,-4.75 8.2,-2.37 8.2,-2.37 0,0 5.02,5.28 6.05,5.55 1.07,0.26 6.9,0.26 5.82,-5.82 -1.03,-6.08 4.49,-8.46 7.17,-10.58 2.64,-2.11 10.04,-2.38 10.04,-2.38 0,0 7.93,-8.99 12.14,-11.38 4.25,-2.37 0.8,-6.08 0.8,-6.08 0,0 -6.62,-8.99 -7.93,-11.1 -1.3,-2.12 -2.64,-7.94 0,-18.51 2.65,-10.58 13.38,-26.98 13.38,-26.98 2.22,-6.08 6.59,-2.51 6.59,-2.51 3.17,3.44 4.78,-4.1 4.78,-4.1 2.23,-4.36 -2.14,-15.74 -2.14,-15.74 -4.37,-5.16 -3.03,-17.98 -3.03,-17.98 3.03,-2.9 3.03,-14.67 3.03,-14.67 -1.84,-4.37 -4.48,0.65 -4.48,0.65l-3.95 2.13c-1.99,-1.07 -1.34,-5.3 -1.49,-10.72 -0.12,-5.43 2.91,-5.82 2.91,-5.82 2.26,0.27 3.71,-3.83 3.71,-3.83 2,-3.05 -1.07,-7.14 -1.07,-7.14 -2.22,-3.3 -7.12,-0.4 -7.12,-0.4 -3.03,3.18 -5.56,-0.93 -5.56,-0.93 -3.45,-2.24 -3.56,-11.24 -4.48,-12.68 -0.92,-1.47 -2.38,-17.85 -2.38,-17.85 -0.8,-8.35 -10.19,-16.15 -10.19,-16.15 -3.98,-5.28 0.27,-12.42 0.27,-12.42 1.72,-1.59 4.1,4.36 4.1,4.36l7.51 13.22 5.44 15.35c1.03,6.35 6.2,11.49 6.2,11.49 3.72,1.19 2.92,-5.02 2.92,-5.02 1.45,-4.23 -4.75,-16.13 -4.75,-16.13l-9.01 -17.05c-0.11,-1.07 -10.03,-17.99 -10.03,-17.99 -1.19,-0.8 -8.47,-18.25 -8.47,-18.25 -0.81,-4.23 -4.91,-13.49 -4.91,-13.49 -0.91,-1.98 -3.83,-2.25 -5.28,-0.53 -1.46,1.72 1.34,6.75 2.79,7.8 1.46,1.06 3.84,10.85 3.84,10.85 0.26,7.27 7.39,17.98 7.39,17.98l0.65 2.78c0,0 -1.3,-0.27 -3.95,-2.38 -2.64,-2.11 -6.09,-7.41 -6.89,-8.99 -0.81,-1.59 -2.49,-8.07 -4.37,-10.19 -1.84,-2.11 -6.05,-11.45 -8.35,-13.92 -2.3,-2.47 -4.79,-10.49 -4.79,-10.49l0.81 -0.71c0,0 3.02,1.76 5.28,1.94 2.3,0.17 2.57,-2.38 3.64,-4.85 1.04,-2.46 -3.1,-7.67 -3.1,-7.67 0,0 -1.84,-4.84 -3.53,-10.75 -1.68,-5.91 -5.21,-5.12 -6.36,-5.56 -1.15,-0.44 -1.15,6.53 0.46,8.12 1.57,1.58 3.18,14.8 3.18,14.8l-1.41 0.53 -2.23 -2.11 -2.64 -1.86c0,0 -3.94,-2.78 -5.67,-5.68 -1.72,-2.91 -4.21,-10.71 -5.29,-14.81 -1.07,-4.1 -8.35,-13.75 -8.35,-13.75 0,0 -8.2,-12.96 -9.77,-16.4 -1.57,-3.44 -0.8,-6.61 2.53,-7.27 3.3,-0.66 6.59,4.5 6.59,4.5 0,0 8.35,6.35 12.18,7.67 3.84,1.32 4.1,-3.18 4.1,-3.18 2.11,-2.11 -2.14,-8.59 -2.14,-8.59l-5.94 -7.54c0,0 -8.85,-14.28 -9.77,-15.61 -0.92,-1.32 -3.33,-3.43 -5.98,-1.32 -2.6,2.12 2.8,7.14 2.8,7.94 0,0.79 9.77,13.09 9.77,13.09l4.52 7.8 0 4.23 -3.06 -2.11 -2.11 -1.72 0 -2.78 -3.72 -4.37 -7.77 -9.25 -6.36 -10.58c0,0 -2.23,-1.19 -4.1,-5.02 -1.84,-3.83 -6.1,-3.18 -6.1,-3.18l-3.83 -2.51 -4.36 -4.89c0,0 -2.23,-2.77 0.42,-5.82 2.64,-3.05 5.67,0.13 5.67,0.13 0,0 1.99,0.53 4.63,4.23 2.65,3.71 4.1,1.59 4.75,1.85 4.53,1.8 0,-6.21 0,-6.21 0,0 -7.66,-7.14 -8.73,-8.86 -1.03,-1.72 -3.3,-6.48 -3.3,-6.48 0,0 -7.81,-10.58 -9.77,-13.09 -1.99,-2.51 -6.51,-14.94 -7.54,-26.31 -1.07,-11.38 -7.28,-17.46 -9.54,-21.29 -2.22,-3.83 -2.91,-9.26 -3.14,-17.85 -0.27,-8.6 -6.9,-20.9 -7.21,-23.54 -0.34,-2.65 -4.59,-6.74 -1.26,-12.57 3.3,-5.81 -0.92,-14.8 -0.92,-14.8l-0.38 -0.27c1.88,-1.85 -7.66,-10.57 -7.66,-10.57 -6.59,-8.47 1.61,-20.1 1.61,-20.1 11.33,-6.88 4.21,-15.61 4.21,-15.61 -10.58,-9.25 0.8,-11.64 0.8,-11.64 7.67,-2.64 1.57,-11.1 1.57,-11.1 -7.12,-12.44 7.93,-16.66 7.93,-16.66 13.76,2.11 10.08,-11.11 10.08,-11.11 -5.56,-5.29 -0.27,-13.22 -0.27,-13.22l11.88 -13.76c9.54,-10.84 -1.57,-20.36 -1.57,-20.36 -5.29,-6.08 -22.22,0.27 -22.22,0.27 -3.45,0.26 -3.45,-4.5 -3.45,-4.5 0,0 -1.84,-3.44 -1.3,-19.31 0.11,-3.96 -0.85,-7.47 -2.34,-10.52 0,0 0,0 0,0.01 1.8,0.93 5.86,4.43 5.86,4.43 2.99,2.29 3.26,10.41 3.26,10.41 1.03,6.86 9.34,10.22 9.34,10.22 2.99,3.27 14.18,2.12 14.18,2.12 2.76,0 2.64,-4.77 2.64,-4.77l4.06 4.86c1.42,5.02 6.71,3.43 6.71,3.43 3.79,-0.08 1.69,-4.85 1.69,-4.85 -2.84,-5.11 12.68,-6.61 12.68,-6.61 6.01,-2.56 1.76,-9.08 1.76,-9.08 -1.84,-4.4 -11.11,-5.11 -11.11,-5.11 -9.58,0 -13.83,-3.08 -13.83,-3.08 0,0 -3.53,-3.18 2.03,-6.79 5.55,-3.62 14.63,0.88 14.63,0.88l7.59 5.29c0,0 -4.6,-7.06 -0.12,-10.14 4.52,-3.09 6.63,0.62 6.63,0.62l3.1 4.27c7.4,6.61 24.83,-13.88 24.83,-13.88l26.21 -25.92c4.63,-4.36 2.75,-15.33 2.75,-15.33 -3.29,-7.94 1.88,-11.51 1.88,-11.51 6.32,-3.04 10.04,3.83 10.04,3.83 4.75,5.29 5.82,-1.06 5.82,-1.06 -0.65,-8.06 8.73,-15.99 8.73,-15.99 9.24,-4.5 7.51,-11.77 7.51,-11.77 -5.01,-0.53 -1.68,-8.33 -1.68,-8.33 4.48,-2.52 4.33,-10.98 5.13,-12.43 0.81,-1.47 7.4,-3.84 7.4,-8.33 0,-4.5 14.17,-18.12 14.17,-18.12l16.7 -16.45c0,0 3.91,3.14 10.12,0 6.24,-3.12 3.6,-6.29 3.83,-8.67 0,0 0.69,-7.81 8.89,-6.08l11.76 4.75c0,0 5.29,2.65 7.82,-0.12 0,0 1.3,-4.5 -2.69,-6.88 0,0 -7.89,-10.85 -8.43,-16.93 0,0 -6.89,-20.23 -11.91,-22.48 0,0 4.1,-1.19 6.74,3.3 0,0 2.26,9 5.17,12.96 0,0 5.94,12.04 14.68,18.79 0,0 12.95,11.36 12.95,12.42 0,0 4.56,3.76 3.98,-1.06 -0.15,-1.06 -0.15,-5.28 -3.71,-8.73 0,0 -5.29,-8.73 -4.37,-14.14 0,0 -0.27,-7.81 7.55,-12.96 0,0 7.27,-4.76 7.01,-8.06 0,0 0.11,-4.77 -2,-5.3 0,0 -4.1,-4.1 3.84,-6.08l6.85 -9.25c0,0 5.98,-7.54 9.39,-7.68 0,0 -5.94,0.66 -11.34,3.58 0,0 -3.98,3.44 -6.9,0.13 0,0 -4.21,-4.24 4.52,-12.04 0,0 10.16,-13.88 21.8,-12.96 0,0 16.28,0.41 21.57,-5.02 0,0 9.39,-9.52 17.81,-7.41 0,0 11.27,3.18 17.09,-2.64 0,0 15.98,-12.3 14.94,-22.21 0,0 1.04,-11.24 -8.73,-10.71 0,0 -6.21,-1.33 -13.6,10.31 0,0 -8.2,9.12 -16.67,10.05 0,0 -12.72,1.32 -17.73,-2.51l-10.58 -9.39c0,0 -2.11,-5.39 2.8,-4.02 0,0 10.96,6.14 13.75,9.05 0,0 3.6,3.48 8.08,3.12 0,0 5.14,0.8 11.19,-5.9l10.61 -9.43c0,0 5.1,-4.86 1.73,-8.65 0,0 -3.6,-2.91 -7.55,1.5 0,0 -6.17,7.15 -15.17,5.64 0,0 -9.08,0.36 -13.14,-3.97 0,0 -4.87,-4.49 -7.78,-1.4 0,0 -3.6,4.84 -6.32,-1.06 0,0 -2.84,-5.91 1.84,-9.61 0,0 8.31,-10.22 16.4,-4.06l6.97 6.09c0,0 5.71,3.79 7.24,-1.85 0,0 0.77,-6 -5.48,-7.32 0,0 -5.21,-5.64 -1.42,-9.35 0,0 4.14,-2.55 6.78,0.89 0,0 3.64,5.11 4.18,8.11 0,0 5.44,7.58 11.26,9.26 0,0 9.16,3.44 10.23,-1.77 0,0 1.15,-2.91 -0.26,-4.58 0,0 -1.08,-3.97 4.86,-3.61 0,0 8.2,-0.09 11.88,-6.35 0,0 6.16,-6.7 1.95,-11.73 0,0 -3.6,-3.17 -10.42,-0.44 0,0 -10.99,3.26 -13.91,0.79 0,0 -6.97,-1.15 -3.64,-5.28l6.48 -3.8c0,0 7.89,-0.96 12.41,1.15 0,0 11.8,2.29 17.01,-0.7 0,0 7.59,-6.7 6.09,-17.28 0,0 0,-13.32 -5.21,-19.22 0,0 -5.48,-8.37 -8.92,-6.08 0,0 -8.7,1.93 -5.02,12.6 0,0 4.25,8.65 4.25,14.2 0,0 0.77,8.37 -6.36,7.48 0,0 -5.1,-0.52 -6.71,-5.19 0,0 -2.45,-5.2 1.61,-7.93 0,0 4.41,-2.3 1.77,-8.73 0,0 -0.88,-9.26 -4.18,-9.26 0,0 -3.75,-0.97 -6.93,6.08 0,0 -4.41,9.08 -10.23,5.3 0,0 -2.99,-4.15 -10.58,0 0,0 -8.04,0.87 -11.11,4.58l-7.24 6.96c0,0 -6.17,7.97 -7.58,-0.53 -0.08,-0.53 -2.03,-6.52 0.99,-12.16 0,0 5.79,-6.97 14.1,-5.73 0,0 9.23,1.32 10.92,-2.21 0,0 6.09,-4.67 1.49,-9.52 0,0 -7.47,-1.14 -1.83,-7.31 0,0 3.94,-4.85 8.73,-0.97l9.5 6.61c0,0 6.17,5.73 13.95,-0.35 0,0 6.32,-7.06 1.64,-14.82 0,0 -2.18,-5.02 -8.81,-7.84 0,0 -3.87,-0.88 -3.14,-3.53 0,0 3.33,-14.37 9.16,-7.23 0,0 5.97,14.02 13.14,20.28l10.04 15.78c0,0 2.37,7.76 5.28,12.51 2.91,4.77 6.17,10.06 8.54,12.52 2.38,2.48 3.87,3 3.87,3 0,0 -2.45,-10.22 -6.32,-15.87 0,0 -7.66,-17.54 -7.85,-18.07 0,0 -9,-17.9 -12.68,-23.09 0,0 -2.91,-6.79 -9.35,-15.61l-1.68 -2.55c0,0 3.79,-0.67 2.72,-5.95 -1.04,-5.3 0.69,-15.6 -2.11,-17.46 -2.76,-1.85 -5.83,-6.08 -5.83,-6.08 0,0 1.73,8.33 -3.14,9 -4.9,0.65 -8.88,-2.78 -8.88,-2.78 0,0 -5.02,-4.1 -10.46,-0.14 -5.4,3.97 -7.4,4.89 -7.4,4.89 0,0 -8.2,3.05 -15.97,-2.25 -7.82,-5.28 -14.45,-13.48 -22.87,-18.1 -8.47,-4.63 -10.73,-7.15 -23.41,-6.88 -12.72,0.26 -25.56,-0.67 -25.56,-0.67 0,0 8.24,-9.26 20.92,-8.72 12.68,0.53 14.25,-0.93 23.91,2.51 9.65,3.44 16.66,5.58 22.1,12.05 5.41,6.46 8.05,8.05 10.31,9.1 2.26,1.06 3.72,2.91 9,2.39 0,0 3.3,-0.14 -0.27,-7.41 -3.56,-7.28 -3.56,-10.05 -10.57,-15.33 -7.01,-5.3 -9.81,-7.15 -9.81,-7.15 0,0 13.64,-2.64 3.83,-9.78 0,0 -5.01,-5.02 -19.8,-6.08 0,0 -8.89,-1.19 -11.38,-3.84 0,0 -8.31,-4.9 -1.07,-9.26l6.74 -0.39c0,0 6.47,-2.78 13.22,-0.13l8.62 1.97c0,0 7.12,1.33 4.21,-4.09 0,0 -0.38,-4.77 -12.95,-4.1 0,0 6.63,-5.16 5.44,-9.78 0,0 -0.42,-11.15 -6.13,-18.39l0.04 0.02c0,0 2.64,0.2 8.01,-5.53 0,0 3.37,-1.17 3.1,1.61 -0.27,2.78 -0.73,7.41 4.29,8.99 0,0 4.67,4.77 6.02,-0.59 0,0 0.99,-3.7 -3.26,-6.94 0,0 -7.13,-4.89 -6.78,-7.8 0.31,-2.91 2.22,-8.53 -2.38,-7.4 0,0 -4.33,1.58 -7.28,-0.67l-13.83 -10.51c0,0 -4.75,-3.77 -1.38,-5.82 3.38,-2.05 7.28,1.26 7.28,1.26l8.2 7.54c0,0 2.68,3.9 5.67,2.51 0,0 3.64,-2.45 0.54,-6.02l-11 -10.71c0,0 -5.13,-7.54 -4.59,-13.76 0.49,-6.2 -1.08,-6.87 -1.08,-6.87l-1.84 -2.77c0,0 -1.07,-5.82 1.19,-6.22 2.22,-0.39 2.91,-5.82 -1.61,-5.82 -4.48,0 -4.1,-6.21 -0.53,-7 3.56,-0.8 2.79,-0.27 2.79,-0.27 0,0 5.56,-0.14 1.31,-4.9 -4.22,-4.76 0.53,-3.04 1.99,-3.04 1.45,0 7.81,-1.58 1.07,-5.02l-6.9 -0.79c0,0 -4.36,-2.25 -0.53,-5.82l4.9 -0.79 -12.03 -9.13c0,0 -3.83,-5.55 1.99,-4.88 0,0 8.74,6.6 6.86,-1.73 0,0 0,-9.26 3.6,-8.32l1.73 -2.25 3.14 -0.67c0,0 3.45,1.59 4.25,-1.32 0,0 -1.19,-5.28 5.83,-8.06 0,0 5.93,-3.05 2.49,-6.09 0,0 -2.76,-9.26 3.71,-11.64 0,0 5.9,-4.75 6.55,0l-1.15 4.36c0,0 10.58,-6.47 7.28,2.13l-5.67 3.43c0,0 -2.91,2.77 0.27,4.76 3.14,1.98 0.5,4.89 -1.99,4.63 -2.53,-0.27 -4.48,0.13 -8.74,3.84 -4.21,3.69 -5.82,12.96 -5.82,12.96 0,0 -2.11,8.85 0.92,12.96 3.06,4.09 6.63,3.16 9.54,-0.28l0 12.17c0,0 -5.71,6.74 -0.81,11.64 4.91,4.89 5.56,7.93 5.56,7.93 0,0 0.15,5.16 -5.29,2.38 0,0 -5.17,-7 -9.5,0.27 -4.37,7.27 4.06,8.59 4.06,8.59 0,0 6.74,-1.06 8.09,2.77 0,0 5.28,-0.65 6.36,-4.75 0,0 -2.65,7.53 2.26,8.86 0,0 6.97,2.64 4.86,5.82 0,0 -3.03,3.04 -8.85,-1.07 0,0 -5.02,-3.43 -8.2,0.14 0,0 -1.99,5.69 2.38,7.01 0,0 3.71,1.32 -0.54,6.22 -4.21,4.89 -0.92,8.72 1.34,10.3 0,0 18.89,10.46 20.35,13.88l1.45 -10.43c0,0 5.44,-2.12 5.98,3.43 0,0 3.68,-7.93 6.47,0.4 0,0 6.32,2.38 1.04,6.6 0,0 -5.29,4.64 -0.12,5.57 0,0 13.22,-5.29 8.09,2.9 0,0 -6.25,3.97 -1.61,5.82 0,0 9,-1.45 3.94,4.36 0,0 -8.43,2.78 -5.4,8.07 0,0 2.8,7.53 8.08,2.51 0,0 12.42,-10.44 22.34,-12.3 0,0 13.49,-2.91 14.14,-12.55l2.79 -13.36c0,0 3.68,-7.54 5.4,1.06l-1.57 10.05c0,0 -1.18,7.4 1.57,7.67 0,0 5.94,0.92 6.48,-14.94 0,0 1.07,-20.23 -1.73,-22.22 0,0 -1.18,-4.89 1.96,-6.08 0,0 2.14,-2.92 0,-6.62 0,0 3.87,-11.63 -3.91,-11.23 0,0 -8.85,3.3 -9.92,2.77 0,0 -3.72,0.92 -5.02,-2.11 -1.34,-3.05 0.77,-3.84 0.77,-3.84 0,0 11.11,-0.66 8.88,-4.63 0,0 -0.95,-3.17 -3.56,-3.17 0,0 -2.68,-3.57 0.65,-4.49 0,0 7.67,1.58 5.67,-3.44 0,0 -0.92,-8.07 -5.55,-4.89 0,0 -4.22,2.5 -7.82,-2.39l-10.03 -6.07c0,0 -1.46,-12.73 -9.51,-14.57 0,0 -3.98,-1.17 -3.98,-7.52 0,0 0.92,-13.22 -7.39,-17.46l-13.22 -12.03c0,0 -4.37,-2.64 -2.11,-6.48 0,0 2.76,-8.33 -3.87,-8.2l-5.4 -0.52c0,0 7.01,-1.06 4.75,-5.3l-2.26 -3.03 1.92 2.57c0,0 7.7,1.04 8.5,1.65 0.81,0.62 8.12,7.85 8.89,8.03 0.8,0.18 3.29,-3 5.75,-4.32 2.45,-1.33 7.85,0.17 7.85,0.17 0,0 4.9,-0.17 4.14,4.86 0,0 -3.11,7.23 -2.57,9.52 0,0 0.34,5.81 4.25,5.99 0,0 5.02,2.55 5.9,-13.58 0,0 0.61,-6.61 3.72,-9.87 0,0 5.09,-7.59 0,-11.81 0,0 7.66,0.09 7.2,-4.85 0,0 1.3,-7.32 5.13,-6.44l1.38 -4.84 -0.88 -4.59 2.76 -1.67 2.72 0.44c0,0 1.15,-3.01 -0.69,-3.97 -1.88,-0.97 -1.61,-2.99 -1.61,-2.99 0,0 2.23,-0.89 2.65,-1.68 0.45,-0.8 2.91,-9.35 2.91,-9.35l0 -7.67c0,0 1.22,-1.58 2.37,-1.05 1.15,0.53 2.65,-0.18 2.65,-1.51l-1.77 -20.09 -1.57 -7.23 -0.53 -18.52c0,0 -2.11,-8.28 -8.81,-5.81 -6.71,2.46 -8.66,4.23 -8.66,4.23 0,0 -5.44,2.29 -7.05,-1.24l-3.68 -0.43c0,0 5.09,-4.59 4.56,-10.93 0,0 0.46,-3.18 2.3,-4.95 0,0 1.41,-0.97 2.22,-3.7 0,0 1.49,-6.25 4.29,-10.84l3.45 -8.98 2.57 -3.62 1.53 -1.75c0.73,1.45 0.92,2.62 0.92,2.62 -0.54,4.95 4.4,10.67 4.4,10.67 2.76,1.51 -5.97,10.85 -5.97,10.85 -4.33,5.02 0.07,9.78 0.07,9.78 3.87,5.82 6.78,-1.67 6.78,-1.67 0,0 1.61,-4.94 4.87,-4.41 3.26,0.52 1.49,5.2 0.8,6.43 -0.72,1.24 1.04,1.5 1.04,1.5l9.15 -4.75c0.92,-3.84 10.96,-7.54 10.96,-7.54 8.08,-2.92 17.36,-10.27 17.36,-10.27l3.79 -2.82 11.19 -7.24c7.93,-2.82 18.69,-11.45 18.69,-11.45 7.66,-0.97 2.26,5.2 2.26,5.2 -0.65,2.37 -13.21,8.59 -13.21,8.59 -11.38,4.1 -16.4,9.4 -16.4,9.4 -5.29,6.73 2.64,4.22 2.64,4.22l7.97 -2.64c11.11,-4.23 28.46,-19.75 28.46,-19.75 6.71,-4.41 16.98,-16.08 16.98,-16.08 5.01,-5.69 16.01,-10.85 16.01,-10.85l13.22 -12.02c3.18,-9.93 -6.36,-2.13 -6.36,-2.13l-9.77 6.48c-1.84,0.27 -6.36,-0.4 -6.36,-0.4 -0.27,6.62 -5.82,5.69 -5.82,5.69 -6.21,-1.72 -7.24,5.55 -7.24,5.55l-4.64 8.73c-1.84,5.29 -7.16,0.4 -7.16,0.4 -3.95,-2.38 3.18,-8.07 3.18,-8.07 3.17,-0.13 3.98,-3.96 3.98,-3.96l3.95 -5.69c-2.23,-2.65 3.98,-7.01 3.98,-7.01 5.56,-4.89 0,-5.55 0,-5.55 -5.71,-1.72 -12.18,10.58 -12.18,10.58 -2.11,7.27 -14.52,13.09 -14.52,13.09 -11,6.88 -23.83,9.25 -23.83,9.25 -9.39,-0.92 -7.67,4.63 -7.67,4.63 -1.45,5.82 -11.22,4.36 -11.22,4.36 -11.11,-3.44 -10.57,7.8 -10.57,7.8 -10.73,-6.61 -10.27,8.87 -10.27,8.87 -3.64,-1.19 -4.83,3.7 -4.83,3.7l-2.76 1.05c-3.98,0 -5.4,-4.67 -5.4,-4.67 -2.8,-4.31 7.17,-14.1 7.17,-14.1 2.22,-2.37 2.56,-4.53 2.22,-6.27 0.3,1.34 0,2.17 0,2.17l3.41 0c9.77,-0.13 12.03,-6.49 12.03,-6.49 0.65,-4.49 4.1,-5.41 4.1,-5.41 5.28,1.19 7.66,-3.17 7.66,-3.17 3.06,-5.3 5.29,-3.57 5.29,-3.57 5.97,2.11 5.82,-1.73 5.82,-1.73 0,-1.98 2.91,-5.42 2.91,-5.42 4.64,-1.72 4.79,-9.52 4.79,-9.52 1.57,-3.44 3.68,-0.79 3.68,-0.79 2.26,2.25 6.63,-0.53 6.63,-0.53 0.65,-2.12 8.42,-1.72 8.42,-1.72 1.23,-1.58 8.2,-2.11 8.2,-2.11 6.36,1.05 10.35,-3.7 10.35,-3.7 6.32,1.72 6.97,-6.08 6.97,-6.08 3.45,4.36 8.47,0.12 8.47,0.12 1.49,-3.56 5.44,-3.7 5.44,-3.7 1.72,0.8 5.55,-1.58 5.55,-1.58 5.17,0.39 6.74,-2.25 6.74,-2.25l5.29 -3.58 6.44 -2.91c0,0 18.46,-8.81 19.88,-12.78 0,0 0.88,-2.02 2.18,-1.4 1.34,0.62 2.49,2.37 2.49,2.37 0,0 2.45,-13.66 -0.61,-15.15 0,0 -2.57,-1.95 -2.03,-4.24 0.54,-2.29 -0.88,-9.17 2.37,-9.43 3.26,-0.27 4.95,1.4 5.71,5.11 0.81,3.7 0.31,8.91 2.15,11.11 1.84,2.2 1.3,3.62 5.98,1.94 0,0 1.95,-2.29 0,-3.79 0,0 -2.46,-3.79 1.76,-4.76 0,0 2.22,-0.27 2.83,1.24 0,0 1.96,2.46 3.53,-0.53l1.22 -3.53 2.3 1.85c3.83,3.57 6.75,-0.93 6.75,-0.93 2.91,-1.85 2.25,-4.9 2.25,-4.9 -2.64,-5.7 3.84,-5.94 3.84,-5.94 3.83,-0.27 3.83,-6.87 3.83,-6.87 0,-6.49 5.94,-9.66 5.94,-9.66 5.97,-0.14 3.18,9.79 3.18,9.79 -1.57,5.81 6.62,5.95 6.62,5.95 5.29,1.58 13.49,-8.86 13.49,-8.86l4.75 -4.24c1.72,-1.58 15.86,-8.72 15.86,-8.72 4.64,-1.86 5.29,2.78 5.29,2.78 0,5.02 3.98,5.55 3.98,5.55 3.83,0.92 3.03,-3.83 3.03,-3.83l-0.81 -4.89c0,0 -3.18,-7.81 -3.83,-10.58 -0.65,-2.79 -3.56,-10.32 -3.56,-10.32 0.15,-5.55 -7.24,-10.97 -7.24,-10.97 -4.29,-7.06 -11.72,-8.3 -11.72,-8.3 -5.02,-1.4 -8.28,2.83 -8.28,2.83 -1.57,6 3.6,5.73 3.6,5.73 2.3,1.05 5.9,-1.72 5.9,-1.72 4.18,0.49 4.25,6.3 4.25,6.3 -0.07,0.79 -0.27,2.21 2.23,2.73 2.45,0.53 4.55,6.08 4.55,6.08l0.35 7.33c0.53,3.08 -2.22,3.34 -2.22,3.34 -1.61,-0.39 -5.56,1.86 -5.56,1.86 -5.94,5.42 -10.57,6.34 -10.57,6.34 -6.36,0.93 -14.18,-3.56 -14.18,-3.56 -1.72,-0.4 -5.28,-11.38 -5.28,-11.38 -0.92,-3.97 -5.4,-1.58 -5.4,-1.58 -4.11,1.32 -5.71,-2.12 -5.71,-2.12 -3.18,-4.63 3.18,-5.16 3.18,-5.16 2.26,-0.52 0,-3.7 0,-3.7l-5.29 -5.43 -4.37 -2.77c-1.03,-3.7 -6.82,-6.61 -6.82,-6.61l-10.49 -2.64c0,0 -0.69,-0.71 -0.89,2.55 -0.19,3.26 -3.87,4.06 -3.87,4.06 -3.17,-0.1 -6.62,-5.91 -6.62,-5.91 -3.18,-2.47 -0.54,-5.03 -0.54,-5.03 2.22,-0.53 1.61,-3.97 1.61,-3.97 -1.76,-3.88 2.18,-6.7 2.18,-6.7 5.94,-0.87 5.02,-6.52 5.02,-6.52 -3.41,-2.2 -0.84,-4.49 -0.84,-4.49l5.36 -2.92c9.69,-6.42 -2.64,-9.06 -2.64,-9.06 -4.14,-0.8 -8.81,-9.88 -8.81,-9.88 0,0 -1.65,-3.18 -5.06,-5.54 0.04,0.04 0.08,0.06 0.15,0.1 0,0 3.83,-2.5 3.99,-3.88 0.11,-1.4 3.03,-4.04 3.03,-4.04 0,0 9.65,-12.3 11.76,-15.6 2.1,-3.31 2.37,-12.04 0.26,-15.47 -2.1,-3.44 3.72,-3.96 3.72,-3.96 0,0 8.47,-4.38 11.11,-6.62 2.64,-2.25 1.84,-10.18 1.84,-10.18 0,0 -2.26,1.06 -4.25,2.64 -1.96,1.59 -2.88,3.04 -6.32,-1.19 -3.45,-4.22 2.75,-6.47 2.75,-6.47 0,0 2.15,-0.8 10.2,-5.03 8.08,-4.24 2.52,-10.84 2.52,-10.84l-6.62 -7.67c-4.75,-4.1 -0.81,-8.87 -0.81,-8.87l7.16 -4.62c8.05,-3.31 10.2,2.77 10.2,2.77 0.76,0.4 5.28,10.19 5.55,11.11 1.73,6.14 8.7,0.4 8.7,0.4 5.02,-2.38 -0.39,-8.59 -0.39,-8.59l-5.28 -7.54c-1.61,-3.44 5.4,-13.49 5.4,-13.49 6.9,-5.16 4.52,-11.9 4.52,-11.9 -0.54,-5.16 5.4,-6.22 5.4,-6.22 6.25,0.4 5.71,7.14 5.71,7.14 0.27,5.56 6.21,4.1 6.21,4.1 6.74,-0.79 2.1,-9.65 2.1,-9.65 -3.02,-4.23 1.34,-12.56 1.34,-12.56 2.38,-5.03 -1.07,-22.35 -1.07,-22.35 -2.76,-10.18 -1.72,-22.61 -1.72,-22.61 1.72,-5.55 7.01,-0.53 7.01,-0.53 5.94,4.89 4.9,14.02 4.9,14.02 0.12,6.87 4.22,6.74 4.22,6.74 5.44,0.53 5.82,-6.48 5.82,-6.48 0.27,-5.68 4.1,-9.92 4.1,-9.92 5.44,-4.36 10.46,2.25 10.46,2.25 2.76,2.78 10.69,8.2 10.69,8.2 6.36,0.93 4.36,-6.08 4.36,-6.08l-4.36 -5.82c-0.39,-0.26 -3.3,-1.98 0,-6.22 3.33,-4.23 6.47,2.65 6.47,2.65l6.9 5.29c12.41,5.55 4.75,-4.63 4.75,-4.63 -3.57,-4.89 0.53,-7.4 0.53,-7.4 4.91,-0.14 6.21,4.09 6.21,4.09 4.64,3.31 6.9,-1.98 7.55,-3.43 0.65,-1.46 4.75,-1.19 4.75,-1.19 0,0 -10.54,-4.71 -11.11,-5.03 -2.91,-1.59 -2.91,-2.11 -2.22,-5.69 0.99,-5.45 8.01,0.92 10.42,1.59 7.54,2.12 10.57,-7.93 10.57,-7.93l0.92 -7.01c10.73,0.53 19.84,-9.92 19.84,-9.92 0,0 5.29,-9.65 7.02,-11.1 1.72,-1.46 -0.66,-2.78 -0.66,-2.78z"/>
  <circle class="fil1" cx="2197.5" cy="2537.54" r="22.5"/>
  <circle class="fil1" cx="815.84" cy="2308.79" r="22.5"/>
  <circle class="fil1" cx="2233.75" cy="2826.29" r="22.5"/>
  <circle class="fil1" cx="1617.71" cy="2071.91" r="22.5"/>
  <circle class="fil1" cx="2787.51" cy="2545.66" r="22.5"/>
  <circle class="fil1" cx="3845.63" cy="1966.91" r="22.5"/>
  <circle class="fil1" cx="3890.63" cy="1861.28" r="22.5"/>
  <circle class="fil1" cx="4055.01" cy="1700.03" r="22.5"/>
  <circle class="fil1" cx="4055.01" cy="1646.91" r="22.5"/>
  <circle class="fil1" cx="3997.51" cy="1688.16" r="22.5"/>
  <circle class="fil1" cx="2141.51" cy="3149.18" r="22.5"/>
  <circle class="fil1" cx="2876.91" cy="1921.57" r="22.5"/>
  <circle class="fil1" cx="3944.68" cy="1885.06" r="22.5"/>
  <circle class="fil1" cx="3501.9" cy="2459.08" r="22.5"/>
  <circle class="fil1" cx="342.52" cy="2037.21" r="22.5"/>
 </g>
</svg>
