<?xml version="1.0" encoding="UTF-8"?>
<!DOCTYPE svg PUBLIC "-//W3C//DTD SVG 1.1//EN" "http://www.w3.org/Graphics/SVG/1.1/DTD/svg11.dtd">
<!-- Creator: CorelDRAW 2020 (64-Bit) -->
<svg xmlns="http://www.w3.org/2000/svg" xml:space="preserve" width="381mm" height="381mm" version="1.1" style="shape-rendering:geometricPrecision; text-rendering:geometricPrecision; image-rendering:optimizeQuality; fill-rule:evenodd; clip-rule:evenodd"
viewBox="0 0 38099.98 38099.98"
 xmlns:xlink="http://www.w3.org/1999/xlink"
 xmlns:xodm="http://www.corel.com/coreldraw/odm/2003">
 <defs>
  <style type="text/css">
   <![CDATA[
    .str0 {stroke:#DADADA;stroke-width:33.86;stroke-miterlimit:10}
    .fil0 {fill:none;fill-rule:nonzero}
    .fil1 {fill:#DADADA}
   ]]>
  </style>
 </defs>
 <g id="Warstwa_x0020_1">
  <metadata id="CorelCorpID_0Corel-Layer"/>
  <path class="fil0 str0" d="M36226.51 11804.66c-47.03,-7.85 -63.9,-53.76 -63.9,-53.76 -2.27,-6.71 -49.3,-58.22 -49.3,-58.22 -35.68,-29.09 -18.81,-69.41 -18.81,-69.41 20.11,-45.9 -19.13,-85.08 -19.13,-85.08 -35.69,-14.57 -96.34,-99.64 -96.34,-99.64 -3.25,-23.52 -36.99,-64.94 -36.99,-64.94 -30.16,-47 -96.33,-22.39 -96.33,-22.39 -60.33,26.86 -105.1,-24.61 -105.1,-24.61 -35.67,-36.94 -133.31,-2.24 -133.31,-2.24 -72.66,13.42 -95.04,-47.03 -95.04,-47.03l-368.47 -967.29c-15.57,-78.37 -69.1,-113.08 -69.1,-113.08 -32.76,-35.83 -93.09,-14.56 -93.09,-14.56 -32.43,6.72 -90.81,-33.57 -90.81,-33.57 -57.09,-45.94 -105.1,-23.52 -105.1,-23.52 -28.22,16.8 -72.66,4.48 -72.66,4.48 -56.11,-10.09 -147.91,-67.18 -147.91,-67.18 9.08,26.86 -12.33,53.72 -12.33,53.72 -37.95,25.78 -3.24,13.46 -111.9,71.65 -108.66,58.25 -137.86,-23.48 -137.86,-23.48 0,0 -22.37,-38.09 -48.01,-68.31 -25.62,-30.23 -43.13,-4.84 -43.13,-4.84l-262.41 741.88c-49.3,98.54 -15.89,223.53 -15.89,223.53 -0.98,12.32 50.59,223.93 85.3,258.62 34.71,34.7 34.71,107.49 36.65,115.34 2.27,7.82 -13.3,90.66 -38.92,95.17 -25.95,4.44 -30.49,69.38 -6.82,80.6 23.36,11.19 27.91,64.91 23.36,83.95 -4.21,19.03 -63.58,68.3 -95.04,77.26 -31.45,8.95 -19.13,42.53 -6.8,77.23 12.32,34.71 19.13,62.7 3.56,103.02 -15.89,40.29 -42.49,63.8 -78.5,85.08 -35.68,21.28 -77.19,12.95 -77.19,12.95l5.51 17.28c-6.48,-14.56 -12.33,-30.23 -37.95,0 -25.95,30.19 -12.33,22.39 -51.58,10.06 -39.24,-12.29 -47.03,26.85 -47.03,26.85 0,0 -9.08,19.04 -32.43,29.13 -23.36,10.09 -2.28,33.61 -2.28,33.61 0,0 21.41,63.8 7.78,70.51 -13.29,6.72 -12.32,55.99 -12.32,55.99l-1065.85 305.64 -739.88 199.26c-44.76,-31.33 -126.5,19.04 -126.5,19.04 -107.37,45.9 -227.38,221.67 -227.38,221.67 -181.32,228.36 -201.44,404.13 -201.44,404.13l-13.62 17.9 -48.98 61.57 -146.61 185.89c-23.68,23.49 0,38.05 0,38.05l63.57 63.86c55.15,-26.92 71.69,25.7 71.69,25.7 12.33,30.26 -43.46,52.64 -43.46,52.64 -39.25,13.4 -13.63,38.05 -13.63,38.05 32.44,29.12 58.39,89.56 58.39,89.56 41.19,70.51 16.54,131.04 16.54,131.04 -16.54,47 -84.98,40.25 -84.98,40.25 -20.12,2.3 -42.49,-7.78 -42.49,17.91 0,25.78 -22.38,52.61 -22.38,52.61l-42.49 51.51c-17.85,56.05 -75.59,88.49 -75.59,88.49 -72.33,34.64 -101.52,87.28 -101.52,87.28 -14.6,-39.11 -79.47,-35.78 -79.47,-35.78 -163.15,25.69 -217,86.22 -217,86.22 -34.71,48.14 -99.58,4.47 -99.58,4.47 -36,-43.68 -100.87,-41.42 -100.87,-41.42 -119.69,-21.3 -217.33,20.09 -217.33,20.09 -90.49,36.93 -209.21,35.87 -209.21,35.87l-125.21 39.12c-161.21,60.52 -145.64,110.87 -145.64,110.87l1.3 122.41c-2.93,22.44 22.38,29.87 22.38,29.87 31.46,17.87 22.38,68.61 22.38,68.61 6.16,37.39 36.01,20.95 36.01,20.95 43.13,-32.83 64.22,26.83 64.22,26.83 62.6,82.13 -13.63,141.9 -13.63,141.9 -55.14,46.23 -70.06,104.38 -70.06,104.38 9.08,37.41 -92.44,116.48 -92.44,116.48 -167.38,116.42 -264.36,288.11 -264.36,288.11 0,0 -53.52,23.87 -87.9,62.69 -34.39,38.83 -50.93,73.08 -110.61,91.09 -59.68,17.9 -87.9,55.2 -87.9,55.2l-85.31 47.78 -30.49 8.17c-15.89,-20.17 -99.58,-24.65 -99.58,-24.65 -104.12,-19.04 -205,120.96 -205,120.96 -61.63,92.9 -157.96,111.94 -157.96,111.94 -80.45,14.53 -180.02,114.95 -180.02,114.95 -65.85,64.22 -118.08,6 -118.08,6 -71.68,-65.68 -155.37,34.35 -155.37,34.35 -32.76,59.65 -96.98,41.78 -96.98,41.78 -70.06,-1.52 -102.83,77.56 -102.83,77.56 -26.92,50.82 -74.6,70.21 -74.6,70.21 -96.98,64.16 -198.51,29.82 -198.51,29.82 -88.23,-38.73 68.44,-67.11 68.44,-67.11 31.46,0 100.24,-20.93 74.6,-59.75 -25.3,-38.83 -192.34,2.92 -256.56,8.95 -64.23,5.97 -44.77,-70.9 -44.77,-70.9 0,-40.26 80.44,-138.86 80.44,-138.86 53.85,-49.21 51.58,-127.64 51.58,-127.64 -9.09,-67.08 37.95,-149.95 37.95,-149.95 71.68,-91.87 31.46,-188.08 31.46,-188.08 -49.3,-31.39 -24.65,-97.73 -24.65,-97.73 13.63,-41.77 64.87,-11.99 64.87,-11.99 56.12,38.08 80.77,-26.92 80.77,-26.92l35.68 -147.73c26.92,-143.33 -51.25,-212.78 -51.25,-212.78 -15.9,-20.1 -15.9,-143.23 -15.9,-143.23 -35.67,-212.69 -70.05,-281.42 -138.82,-457.59 -68.44,-176.12 -159.59,-208.98 -159.59,-208.98 -146.29,-58.13 -193.96,52.25 -193.96,52.25 -24.01,55.31 -133,34.35 -133,34.35 -49.3,-5.97 -22.38,40.35 -22.38,40.35 24,68.64 -5.83,129.81 -5.83,129.81 -46.39,13.43 -98.61,82.13 -98.61,82.13l-7.46 44.74 -43.47 22.48c-29.84,4.43 -74.6,-23.91 -74.6,-23.91 -102.83,-28.35 -114.83,-128.39 -114.83,-128.39 -16.54,-64.22 19.46,-114.95 19.46,-114.95 17.85,-82.13 119.37,-80.6 119.37,-80.6 53.85,-1.53 70.07,-32.83 70.07,-32.83 26.91,-20.96 6.15,-68.74 6.15,-68.74 -3.24,-23.87 8.77,-47.75 8.77,-47.75l49.3 -129.81c41.84,-28.37 26.92,-167.2 26.92,-167.2 -24,-28.39 -37.31,-128.42 -37.31,-128.42 -1.62,-94 -83.68,-214.89 -83.68,-214.89 -29.84,-37.37 -14.92,-83.66 -14.92,-83.66 22.38,-29.86 46.39,22.39 46.39,22.39 23.67,40.35 49.3,20.96 49.3,20.96 28.21,-10.49 0,-68.74 0,-68.74 -29.85,-26.82 -34.38,-76.03 -34.38,-76.03 1.29,-50.83 -28.88,-75.1 -28.88,-75.1 -50.27,-30.15 -78.49,-85.07 -78.49,-85.07 -14.27,-45.87 -76.88,2.3 -76.88,2.3 -43.78,24.62 -121.96,-27.25 -121.96,-27.25 -47.68,-46.28 -205.83,-44.83 -205.83,-44.83 -34.39,-26.85 -76.17,-29.83 -76.17,-29.83 -7.49,-1.49 -38.83,2.98 -65.65,-34.33 -26.92,-37.32 -129.91,-120.91 -129.91,-120.91 -31.57,-17.87 -46.63,-8.38 -38.72,24.5 14.89,61.85 -41.9,94.03 -41.9,94.03 -50.31,48.02 15.66,102.7 15.66,102.7 78.14,42.45 3.34,99.4 3.34,99.4l-51.36 31.33c-77.08,32.38 -110.59,84.87 -110.59,84.87 -51.38,66.94 6.73,146.32 6.73,146.32 36.82,65.86 -16.79,161.84 -16.79,161.84 -27.93,96.06 -56.98,81.57 -56.98,81.57 -26.76,-5.59 -12.24,-49.11 -12.24,-49.11 26.76,-35.76 -2.3,-42.43 -2.3,-42.43 -13.35,-10.06 -17.83,39.02 -17.83,39.02 -39.12,32.37 -51.38,-21.15 -51.38,-21.15 -15.66,-33.53 16.74,-103.88 16.74,-103.88 23.45,-31.35 19.74,-125.11 19.74,-125.11 -10.46,-44.63 -43.21,-1.52 -43.21,-1.52l-41.68 84.97 -31.21 31.21c-59.64,43.21 -99.8,126.55 -102.73,135.48 -19.55,58.67 -113.25,108.7 -113.25,108.7 -68.44,25.36 -151.15,103.47 -151.15,103.47 -42.44,80.4 15.67,152.11 15.67,152.11 49.18,69.4 37.99,122.63 37.99,122.63 11.19,91.64 -75.97,250.18 -75.97,250.18 -78.12,98.32 6.75,201.07 6.75,201.07l2.18 129.58 67.04 167.44 71.47 78.24c0,0 104.99,138.39 103.47,154.83l-14.91 157.89 -5.95 342.41c5.95,259.08 -184.57,449.72 -184.57,449.72l-157.11 172.79c0,0 -166.81,203.9 -335.77,32.73 -20.91,-10.45 -83.45,-131.1 -83.45,-131.1l-180.19 -339.48 -8.15 -58.11c0,0 -27.94,-69.19 10.06,-121.71 37.94,-52.48 3.3,-156.34 0,-170.86 0,0 -16.73,-140.7 -68.17,-272.48 0,0 -100.45,-321.63 -11.11,-567.31l42.42 -198.8c0,0 -10.9,-75.94 54.48,-116.19 0,0 48.99,-20.81 47.47,-98.27 0,0 -7.36,-113.15 20.92,-145.89 0,0 225.55,-439.28 263.54,-731.87 0,0 -14.18,-26.12 -43.98,23.84 0,0 -73.29,121.3 -88.94,138.04 0,0 -81.45,87.14 -91.52,149.71 0,0 -18.34,46.5 -18.34,88.18 0,0 -23.81,81.92 -56.59,98.25 0,0 -155.18,131.85 -189.74,166.42 0,0 -72.25,55.45 -81.18,167.18 0,0 -12.72,88.57 -36.18,107.56 0,0 -33.49,49.18 -61.41,2.3 0,0 -36.85,-91.64 16.79,-136.36 0,0 78.15,-66.91 93.8,-80.41 0,0 32.37,-36.81 25.74,-61.4 0,0 -19,-45.76 9.96,-80.42l100.53 -148.48c0,0 36.07,-39.67 23.17,-75.16l6.27 5.66 -2 -44.78c-1.33,-30.39 1.23,-75.97 21.06,-120.66l0.88 -2 0.38 -2.11c4.57,-23.27 46.6,-231.05 124.06,-346.59 4.36,-6.25 106.9,-153.99 224.42,-237.79 0.39,-0.27 37.05,-27.29 73.87,-27.29 20.03,0 37.11,8.46 49.54,24.41 4.76,65.1 -2.66,100.76 -10.52,111.5l-3.24 4.46 -0.29 5.46c-0.64,10.94 0.6,26.22 9.91,37.02 4.53,5.34 13.07,11.61 28.38,11.61 2.26,0 4.72,-0.12 7.21,-0.38l1.04 0.55 3.42 0.58c0.84,0.2 2.17,0.39 3.99,0.39 21.16,0 52.57,-24.23 81.82,-138.9l25.93 -86.82 0 -2.52c0.1,-3.82 1.02,-11.1 6.17,-17.01 3.1,-3.6 9.19,-8.07 19.94,-8.81l0.29 -0.04c0.45,0.04 2.65,0.1 6.34,0.1 46.43,0 283.57,-9.54 390.93,-197.98 2.59,-2.24 20.52,-16.35 60.22,-16.35 21.36,0 45.55,4.01 71.76,11.88 100.69,31.81 218.44,70.73 239.31,81.12 22.83,9.51 12.69,9.27 26.77,-4.62 8.98,-8.87 26.08,-21.04 52.04,-21.04 12.29,0 25.23,2.69 38.54,8.01l0.67 0.32c1.98,1.11 12.66,6.59 26.47,6.59 15.89,0 29.49,-7.1 40.8,-21.41 0.39,-0.45 8.27,-10.89 39.81,-10.89 28.45,0 66.33,8.66 113.14,25.94 8.65,2.66 85.27,25.79 119.62,25.79 0.3,0.03 1.52,0.06 3.53,0.06 63.36,0 45.21,-28.75 71.01,-43.04 -6.65,-24.25 -1.01,-30.72 -23.16,-30.72 -28.06,0 -67.82,-5.06 -97.73,-28.83l-92.96 -79.53 -0.84 -0.65 -0.49 -0.36c-34.26,-23.03 -93.94,-72.98 -100.59,-113.72l-0.13 -0.71c-0.16,-2.77 -5.97,-68.42 -62.41,-118.47 -2.2,-3.14 -27.89,-38.4 -70.06,-38.4 -19.98,0 -40.61,7.78 -60.89,22.9l-0.38 0.23 -82.88 50.4c-3.82,1.89 -35.12,16.93 -72.17,16.93 -27.57,0 -51.18,-8.56 -70.02,-25.49l-0.59 -0.49c-29.03,-22.48 -73.73,-78.59 -35.78,-130.1 1.91,-2.56 45.42,-63.77 -6.36,-115.83l-0.87 -1c-3.4,-4.81 -27.22,-35.14 -62.9,-35.14 -16.48,0 -33.12,6.3 -49.59,18.82l-2.37 1.82 -1.72 2.52c-4.58,6.65 -45.77,65.17 -91.63,65.17 -1.63,0 -3.34,-0.07 -4.96,-0.23l-2.37 -0.19 -2.5 0.42c-13.3,2.28 -83.52,15.7 -150.44,56.66l-0.84 0.49c-4.68,1.92 -46.19,18.72 -80.93,18.72 -1.78,0 -3.7,-0.03 -5.52,-0.16 -15.79,-0.87 -27.01,-4.45 -38.92,-8.2 -15.22,-4.84 -34.25,-10.88 -66.69,-10.88 -1.81,0 -3.63,0 -5.55,0.07 -66.79,1.23 -90.3,10.26 -106.49,24.42 -16.83,14.76 -24.75,59.56 -26.63,71.53 -14.11,4.02 -85.17,25.59 -122.02,60.37 -26.63,23.86 -61.86,75.93 -25.79,120.1 0.98,4 4.86,22.84 -4.93,35.78 -4.02,5.32 -11.71,12.32 -31.98,12.32 -10.96,0 -24.01,-2.1 -38.83,-6.32l-118.58 -69.83c-2.86,-4.16 -22.29,-30.24 -66.24,-30.24 -16.73,0 -35.39,3.9 -55.3,11.62l-0.75 0.36c-4.77,2.23 -47.87,22.11 -92.42,22.11 -28.24,0.03 -50.82,-7.95 -66.72,-23.15l-0.45 -0.46c-1.17,-1.39 -116.31,-140.58 -266.5,-196.86l-0.06 -0.03c-0.78,-0.32 -71.19,-32.92 -138.31,-32.92 -15.7,0 -30.06,1.81 -42.82,5.35 1.53,-27.93 -6.19,-70.36 -44.43,-75.71l-1.43 -0.13 -0.88 0.03c-30.35,0.44 -66.49,14.83 -68.6,54.01l0 1.07c0.84,19.96 11.42,33.74 26.82,35.24 18.94,1.78 45.42,13.32 47.62,23.11 0.94,4.36 -4.41,8.28 -7.72,10.23 -9.05,5.38 -17.32,12.61 -26.95,21.01 -21.31,18.63 -50.14,43.96 -107.43,61.21 -0.98,-86.83 2.85,-239.06 23.7,-283.13l0.86 -1.79 0.39 -1.88c3.24,-13.49 21.69,-81.42 72.49,-94.1l1.53 -0.45 0.87 -0.39c4.92,-2.17 49.11,-21.74 68.5,-39.8 6.2,-6.49 61.86,-64.26 110.97,-95.4l0.88 -0.58c1.42,-1.14 37.3,-28.28 76.12,-29.03l2.57 -0.06 2.56 -0.79c7.13,-2.24 24.55,-9.24 32.18,-26.6 6.74,-15.44 3.98,-34.54 -8.37,-56.73l-0.49 -1.03c-2.85,-7.3 -31.01,-76.03 -90.69,-76.03 -15.8,0 -32.63,4.76 -49.95,14.17l-2.51 1.34 -1.97 2.04c-8.76,8.98 -41.68,38.89 -98.02,47.74 -4.58,0 -81.77,1.07 -116.87,55.57l-1.53 2.43 -0.78 2.75c-3.69,13.66 -26.24,83.2 -105.06,112.75l-0.36 0.17 -121.54 32.59 -1.71 0.91c-5.81,2.99 -25.4,14.5 -34.25,38.57 -8.21,22.38 -5.13,49.01 9.21,79.18 2.49,24.49 -6.27,75.8 -56.9,98.99 -1.13,0.62 -121.44,62.03 -243.53,65.36 -0.97,0.04 -91.18,6.2 -118.59,41.59 -2.46,3.2 -62.98,78.95 -126.01,78.95 -3.41,0 -6.85,-0.23 -11.32,-0.81 -1.24,-0.1 -7.88,-0.55 -17.43,-0.55 -51.66,0 -88.32,12.28 -103.72,35.19l-0.74 1.39 -0.4 0.88c-2.46,5.58 -24.07,54.88 -27.7,82.06 -3.89,6.59 -31.79,55.31 -28.35,80.09 0.2,1.23 0.56,2.36 0.75,3.57 -8.46,14.88 -35.78,55.92 -86.61,8.76 -62.7,-58.23 -132.17,5.6 -132.17,5.6l-22.39 5.58 -11.12 -14.56 17.42 -41.13c3.04,-3.01 12.74,-14.6 39.6,-48.43 56.05,-70.51 -26.86,-89.56 -26.86,-89.56l-12.26 -23.51 -20.18 -43.27c-37.29,-26.89 -101.55,-2.98 -101.55,-2.98l-68.61 34.31 -114.98 62.71 -65.65 2.98 -50.73 29.84 -103.06 41.81c0,0 -54.53,5.61 -90.33,19.04 0,0 -133.6,49.27 -167.21,44.8l-23.12 3.72 0.09 -7.85c0,0 2.95,-19.42 43.21,-53.74 40.35,-34.32 36.64,-100.01 36.64,-100.01 31.31,-190.33 223.95,-226.18 223.95,-226.18 105.16,-44.75 158.91,-148.52 158.91,-148.52 80.64,-185.09 154.49,-225.37 154.49,-225.37l342.6 -226.93c0,0 264.19,-110.44 379.14,-155.24 114.96,-44.79 23.87,-90.3 23.87,-90.3 -116.38,-55.98 -264.16,-63.45 -264.16,-63.45 -67.2,-17.9 -259.71,49.28 -259.71,49.28 -83.65,31.33 -197.12,38.79 -197.12,38.79 -104.48,22.42 -294.07,-1.49 -294.07,-1.49 -41.04,-20.89 -47.77,1.49 -47.77,1.49 -20.09,25.4 -68.61,-4.47 -68.61,-4.47l-120.21 -79.11c-167.85,-77.63 -175.38,6.71 -175.38,6.71 -39.61,58.97 -61.21,-5.22 -61.21,-5.22 -17.87,-57.45 -55.21,-52.25 -55.21,-52.25 -32.05,0 -77.65,26.88 -77.65,26.88 -69.35,-9.73 -25.4,-60.46 -25.4,-60.46 67.21,-43.27 51.57,-58.97 51.57,-58.97 -36.61,-153.75 -106.77,-149.27 -106.77,-149.27l-21.58 0 -9.73 8.2 1.43 20.18 12 25.37 0 23.12 -18.65 2.99 -59.78 23.87c-65.65,47.03 -79.83,-15.66 -79.83,-15.66 -168.67,-88.07 -435.13,-94.04 -435.13,-94.04 -111.22,-93.29 -224.69,-57.84 -224.69,-57.84 -69.38,25.76 -125.69,0 -125.69,0 -185.89,-57.08 -189.24,-142.19 -189.24,-142.19l-44.04 0 -11.23 -23.13c0,0 -20.07,-21.67 -49.98,-47.78 -29.87,-26.11 -38.05,5.22 -38.05,5.22l-10.48 46.29 -13.39 8.2 -11.91 -11.18 -95.56 -116.46 -987.7 0.03c-3555.03,-219.65 -6444,-565.04 -9988.55,-1346.52 3.1,-5.2 -470.08,-119.99 -520.38,-132.48 -1036.77,-206.06 -3060.35,-780.68 -3060.35,-780.68 -19.59,55.57 36.46,96.69 36.46,96.69 78.43,25.76 21.31,71.66 21.31,71.66l-65 66.04c-26.83,50.37 35.9,31.37 35.9,31.37 10.09,-4.52 61.57,-60.47 61.57,-60.47 63.77,-27.99 40.25,43.66 40.25,43.66 -91.73,61.56 -71.65,80.61 -71.65,80.61 58.22,52.61 22.45,64.94 22.45,64.94 -65,2.23 -59.4,20.14 -59.4,20.14 57.12,48.13 21.31,76.13 21.31,76.13 -112,73.89 -84,147.78 -84,147.78 30.26,72.79 52.61,6.72 52.61,6.72 44.83,-73.89 57.12,15.69 57.12,15.69 -29.13,78.37 -2.21,119.78 -2.21,119.78 67.08,87.33 50.34,133.23 50.34,133.23 0,90.69 -42.52,79.47 -42.52,79.47 -26.85,-16.78 -36.95,-116.42 -36.95,-116.42 -32.43,-57.09 -82.87,-10.09 -82.87,-10.09 -78.34,64.94 -64.91,83.98 -64.91,83.98 15.7,34.71 -35.9,55.98 -35.9,55.98 -91.74,44.77 -30.17,111.94 -30.17,111.94 59.32,72.79 -4.48,95.18 -4.48,95.18 -90.69,19.03 -66.01,36.93 -66.01,36.93 24.62,44.8 1.14,95.18 1.14,95.18l-57.12 -47.04c-57.09,-74.99 42.56,-193.68 42.56,-193.68 42.52,-27.99 1.04,-76.12 1.04,-76.12 6.78,-40.29 69.47,-71.66 69.47,-71.66 44.74,-179.14 -16.83,-166.81 -16.83,-166.81 -90.72,-4.48 -107.46,204.9 -107.46,204.9 -63.87,64.94 -53.79,-30.24 -53.79,-30.24 6.79,-113.07 58.27,-170.94 58.27,-170.94 133.6,-75.34 108.59,-164.38 108.59,-164.38 82.87,-49.82 -0.39,-91.6 -0.39,-91.6 -74.6,34.32 -11.31,91.6 -11.31,91.6 7.42,62.7 -40.95,48.72 -40.95,48.72 -40.24,-5.97 -47.77,-128.39 -47.77,-128.39 -23.58,-75.73 -37.3,-4.48 -37.3,-4.48 7.52,85.09 -29.88,73.15 -29.88,73.15 -41.78,-4.48 -38.72,-91.05 -38.72,-91.05 -18.01,-59.71 -125.44,-29.84 -125.44,-29.84 -125.43,-55.24 -188.06,-28.38 -188.06,-28.38 -47.78,-100.03 -94.04,-95.53 -94.04,-95.53 -141.87,-23.91 -144.08,-38.07 -144.08,-38.07 -96.3,-82.86 -254.47,-279.9 -254.47,-279.9 -18,3.02 -22.08,223.91 -22.08,223.91 -7.82,35.84 -54.82,43.69 -54.82,43.69 -29.13,22.38 -8.95,71.65 -8.95,71.65 15.63,8.95 21.24,30.2 21.24,30.2 8.92,61.59 77.27,127.63 77.27,127.63 -36.95,64.94 -24.65,225.02 -24.65,225.02 -57.09,142.2 -63.29,192.02 -63.29,192.02 -21.22,73.9 -2.75,104.13 -1.62,122.58 1.13,18.49 -10.44,25.4 -10.44,25.4 -106.04,79.86 -104.51,123.9 -104.51,123.9 2.27,55.96 49.3,52.23 49.3,52.23 43.3,-0.74 52.25,-71.65 52.25,-71.65 16.35,-21.64 37.31,-2.24 37.31,-2.24 51.47,32.86 79.82,86.57 79.82,86.57 1.53,26.88 -35.13,25.39 -35.13,25.39 -158.9,-6.71 -139.51,9.7 -139.51,9.7l96.24 88.81c17.22,7.46 7.5,76.14 7.5,76.14 5.24,23.16 -52.23,27.63 -52.23,27.63 -35.13,16.41 -59.68,58.19 -59.68,58.19 -18,23.87 -2.27,54.49 -2.27,54.49 -0.78,55.25 -49.3,62.71 -49.3,62.71 -46.26,-0.75 -32.83,-44.77 -32.83,-44.77 27.57,-108.98 -2.21,-181.77 -2.21,-181.77 24.65,-8.95 39.61,-50.57 40.64,-65.1 1.15,-14.57 -30.55,-50.21 -69.76,-54.69 -39.22,-4.47 -79.47,33.6 -78.4,50.37 1.13,16.8 48.13,63.84 48.13,63.84 26.95,62.7 5.62,132.08 5.62,132.08 -21.22,20.18 -30.27,104.15 -30.27,104.15 -5.52,27.97 16.87,54.85 16.87,54.85 29.13,42.53 86.22,24.62 86.22,24.62 0,0 29.12,-11.19 81.64,-14.56 52.64,-3.34 67.11,19.75 67.11,19.75 80.8,97.22 352.38,209.61 352.38,209.61 96.05,48.03 75,154.59 75,154.59 -38.63,37.46 -22.54,105.39 -22.54,105.39 -36.47,-7.72 -26.28,-154.59 -26.28,-154.59 -18,-71.66 -317.93,-163.46 -317.93,-163.46 -248.6,-75.02 -195.86,-129.78 -254.21,-134.31 -95.17,-7.5 -81.74,162.7 -81.74,162.7 38.05,43.27 11.22,132.82 11.22,132.82 2.95,70.17 -234.42,329.92 -234.42,329.92 -35.78,5.97 -26.83,105.97 -26.83,105.97 -119.39,56.73 -140.28,264.22 -140.28,264.22 -10.44,65.66 -132.86,319.44 -132.86,319.44 -97.05,59.71 -35.85,100.03 -35.85,100.03 61.22,41.78 -8.95,89.56 -8.95,89.56 -77.61,34.31 -89.56,73.14 -89.56,73.14 17.91,79.11 -5.97,113.46 -5.97,113.46 -152.25,19.4 -180.63,237.31 -180.63,237.31 -85.08,3.02 -80.61,65.68 -80.61,65.68 3,104.51 -32.82,114.96 -32.82,114.96 -107.49,28.38 -94.06,200.03 -94.06,200.03 -53.72,58.19 -68.64,108.96 -68.64,108.96 -68.66,47.77 -125.4,16.45 -125.4,16.45 -62.7,-41.82 -123.9,-13.47 -123.9,-13.47 -77.63,61.2 -14.92,132.86 -14.92,132.86 37.29,47.78 108.23,123.91 108.23,123.91 29.1,31.33 -2.23,206 -2.23,206 -35.85,-4.48 -40.32,73.92 -40.32,73.92 -15.67,125.33 13.42,221.64 13.42,221.64l1.05 11.91c0,0 -28.39,57.47 -57.49,16.48 0,0 -52.99,-47.04 -70.15,41.77 0,0 -13.08,31.66 51.86,102.21 0,0 59.33,79.53 5.61,182.52 0,0 -23.51,138.86 -41.42,172.43 0,0 -19.04,81.67 -89.59,96.24 0,0 -14.53,-1.07 -15.66,19.04 0,0 -8.56,187.39 -25.01,224.69 0,0 -256.74,243.33 -282.1,334.32 0,0 -77.63,100.04 65.68,304.55 0,0 0,88.1 31.34,114.95 0,0 65.68,250.77 17.9,340.32 0,0 -11.93,50.73 -67.17,116.48 0,0 -82.1,62.64 -19.4,150.77 0,0 55.23,73.08 -37.34,86.6 0,0 -59.68,0 -50.72,82 0,0 13.42,16.48 -68.68,49.31 0,0 -101.52,50.73 -28.37,85.08 0,0 49.27,0 74.63,20.86 0,0 16.44,64.21 49.27,0 0,0 29.84,-52.26 70.16,4.56 0,0 49.27,44.74 34.35,134.3 0,0 -8.98,41.77 58.19,95.55 0,0 52.25,34.35 83.59,161.17 0,0 7.46,35.53 45.54,31.05 0,0 34.7,1.07 45.9,130.94 0,0 6.71,43.7 43.66,73.86 0,0 -60.47,-35.77 -96.27,-27.99 0,0 -100.75,-7.78 -99.65,132.11 0,0 5.61,82.87 39.19,119.82 0,0 31.35,54.92 67.17,8.92 0,0 22.42,-96.21 79.5,-47 0,0 16.77,24.65 17.91,81.77 0,0 8.95,98.48 98.5,99.62 0,0 96.28,-1.14 99.65,-113.04 0,0 16.8,-136.59 115.32,-99.65 0,0 144.43,77.17 298.92,33.61 0,0 96.28,-31.43 144.41,-22.48 0,0 114.21,18 28,113.17 0,0 -92.93,124.2 -191.44,30.16 0,0 -47.04,-70.51 -142.21,-59.29 0,0 -58.19,10.08 -82.84,-6.78 0,0 -64.9,-30.23 -104.12,13.43 0,0 -33.57,44.82 13.46,72.82 0,0 30.2,16.74 26.85,62.7 0,0 -34.7,111.93 4.49,166.75 0,0 8.95,161.31 34.7,199.3 0,0 71.66,96.3 20.15,124.26 0,0 -42.53,38.08 -53.72,-20.08 0,0 -60.46,-77.26 -68.31,-103.05l4.47 -133.25c0,0 3.38,-105.16 -33.57,-173.5 0,0 -50.37,-14.54 -110.83,40.25 0,0 -36.94,6.78 -42.56,19.04 0,0 -20.14,211.68 -30.23,249.73 0,0 -6.32,62.73 -15.3,77.56 0,0 -65.65,76.12 -40.29,98.6 0,0 41.81,34.25 29.83,113.43 0,0 -10.44,135.81 -40.28,188.07 0,0 -38.82,70.13 26.86,76.12 0,0 116.45,8.96 138.83,152.26 0,0 14.92,32.86 -35.82,62.74 0,0 -44.79,65.65 17.92,123.81 0,0 134.34,159.78 161.2,279.24 0,0 76.13,165.66 82.1,216.38 0,0 -11.94,138.86 40.31,144.77 0,0 102.99,-5.91 83.6,91.08 0,0 -53.76,59.74 31.33,101.53 0,0 113.46,79.11 107.49,113.46 0,0 -13.43,77.65 -50.76,128.38 0,0 -49.27,68.61 58.22,85.08 0,0 67.18,104.48 -2.99,183.56 0,0 -61.2,86.61 -7.46,209.02 0,0 -117.93,38.8 -70.15,129.87 0,0 25.37,171.69 216.45,164.19 0,0 143.3,56.7 229.87,111.91 0,0 22.39,22.45 156.73,13.5 0,0 38.83,-17.97 131.34,92.5 0,0 11.97,28.36 65.68,34.38 0,0 40.32,8.92 59.76,44.74 0,0 68.59,106 164.15,182.13 0,0 31.4,14.95 19.4,43.3 0,0 28.38,48.53 66.47,43.3 0,0 66.43,-41.77 105.21,0.39 0,0 144.12,92.12 150.03,105.55 0,0 88.1,65.75 0,141.87 0,0 -76.16,26.09 -35.03,76.82 0,0 -40.35,88.88 4.47,108.95 0,0 64.91,10.48 122.38,-14.91 0,0 60.44,-23.13 122.38,26.17 0,0 149.31,-2.96 168.74,42.52 0,0 18.65,38.09 -9.7,68.7 0,0 -32.17,35.04 -23.9,76.81 0,0 -2.27,56.73 46.25,101.56 0,0 155.24,187.28 203.77,191.08 0,0 -5.26,42.56 36.52,108.21 0,0 24.68,65.68 -11.87,105.26 0,0 -44.83,74.63 -128.39,172.36 0,0 -58.99,70.13 17.87,100.79 0,0 51.52,-3.74 54.57,-3.74 0,0 -34.35,-26.92 21.6,-65.65 0,0 26.82,-29.87 43.3,2.96 0,0 43.3,45.47 0.75,90.3 0,0 -58.26,49.95 -53.79,71.69 0,0 -1.32,56.7 72.43,49.17l1632.24 114.99c0,0 34.16,7.78 62.73,19.68 0,0 -167.5,119.92 -161.98,210.61 0,0 2448.89,1396.78 2478.75,1402.78l1427.05 244.76 492.61 86.61 71.66 -352.33 1197.12 176.17 4.48 38.47c19.04,4.47 19.04,35.77 19.04,35.77 -8.95,37.02 10.05,54.92 10.05,54.92 15.7,8.95 28,33.6 28,33.6 4.47,29.13 36.94,62.61 36.94,62.61 44.8,67.17 91.05,89.65 91.05,89.65 43.31,10.38 108.21,87.26 108.21,87.26 104.12,90.69 136.68,170.94 136.68,170.94 14.83,71.64 67.09,116.48 70.13,122.38 0,0 134.39,138.86 140.29,149.3 15.89,27.8 38.83,14.96 38.83,14.96 46.22,-3.06 58.22,64.16 58.22,64.16 10.48,40.35 82.03,89.55 82.03,89.55 156.77,85.08 161.24,277.69 161.24,277.69 11.23,123.13 71.65,291.02 71.65,291.02 67.18,132.21 50.83,183.68 50.83,183.68 -1.52,100.01 26.44,120.86 26.44,120.86 33.61,20.18 40.65,79.08 40.65,79.08 37.39,73.18 214.59,220.99 214.59,220.99 29.14,38.05 70.52,19.05 70.52,19.05 22.48,-17.91 48.17,17.87 48.17,17.87l68.31 57.09c0,0 42.55,23.51 64.94,25.81 22.35,2.17 52.61,-12.39 52.61,-12.39 4.47,44.83 62.73,62.73 62.73,62.73 41.39,3.32 57.09,23.49 57.09,23.49l81.67 83.94c82.88,106.43 161.18,113.08 161.18,113.08 77.3,2.27 107.56,-88.43 107.56,-88.43l64.9 -109.73c53.78,-58.12 66.05,-161.21 66.05,-161.21 13.42,-164.54 80.61,-174.63 80.61,-174.63 77.29,-16.73 114.2,-111.91 114.2,-111.91 44.82,-89.55 109.73,-76.13 109.73,-76.13 55.95,2.18 108.56,55.95 108.56,55.95 42.57,54.82 70.55,6.75 70.55,6.75 30.27,-30.26 63.84,9.99 63.84,9.99 0,21.31 53.69,25.44 53.69,25.44 58.25,-0.29 99.64,17.12 99.64,17.12 51.57,39.21 71.65,15.7 71.65,15.7 24.65,-22.38 59.39,14.56 59.39,14.56 43.69,51.48 50.34,33.58 50.34,33.58 22.38,-43.67 62.73,-14.53 62.73,-14.53 42.53,-1.14 154.47,80.6 154.47,80.6 39.21,43.66 129.91,52.61 129.91,52.61 66.03,-4.47 80.6,61.6 80.6,61.6 1.13,38.04 91.82,124.26 91.82,124.26l136.56 135.43c33.61,64.9 -36.91,72.82 -36.91,72.82l172.37 135.41c69.44,52.62 34.71,106.39 34.71,106.39 -44.84,36.92 23.51,86.22 23.51,86.22 66.04,74.99 102.96,180.25 102.96,180.25 31.42,100.72 92.99,155.59 92.99,155.59 39.12,24.66 26.85,52.65 26.85,52.65 2.28,48.14 31.31,75 31.31,75 30.26,42.52 115.34,235.06 115.34,235.06 40.35,101.92 115.35,154.56 115.35,154.56 62.69,24.65 107.43,64.91 107.43,64.91 83.94,44.83 53.77,209.38 53.77,209.38 -4.47,86.21 62.7,171.29 62.7,171.29 44.74,30.17 17.16,148.85 17.16,148.85 -28.38,25.4 0,49.27 0,49.27 41.74,32.86 65.65,95.56 65.65,95.56 20.96,47.78 50.74,62.7 50.74,62.7l68.7 38.77c64.16,38.81 68.64,144.43 68.64,144.43 5.6,149.99 173.2,191.51 173.2,191.51 43.27,-6.01 73.08,123.8 73.08,123.8 25.4,43.31 53.78,-5.9 53.78,-5.9 58.23,-47.77 92.58,19.43 92.58,19.43 44.72,80.61 128.28,61.17 128.28,61.17 77.68,0 337.4,-17.96 337.4,-17.96 156.74,-2.95 174.61,65.74 174.61,65.74 41.88,92.52 110.51,134.29 110.51,134.29 41.77,40.36 119.43,8.96 119.43,8.96 47.78,-26.86 19.4,-104.52 19.4,-104.52 -38.82,-73.07 10.48,-125.33 10.48,-125.33 79.07,-47.78 47.78,-161.21 47.78,-161.21 -46.36,-92.61 -25.41,-150.77 -25.41,-150.77 14.93,-58.22 -29.9,-180.6 -29.9,-180.6 -28.35,-141.82 -25.3,-241.85 -25.3,-241.85 -17.97,-155.2 79.08,-334.41 79.08,-334.41 0,0 17.91,-34.25 -4.47,-46.26 -22.35,-11.9 -44.84,26.18 -44.84,26.18 -76.12,120.85 -98.5,329.1 -98.5,329.1 -8.92,102.98 35.91,237.33 35.91,237.33 42.52,145.51 35.77,203.77 35.77,203.77 -2.2,78.43 28.36,153.03 28.36,153.03 29.9,35.79 22.37,80.61 22.37,80.61 -11.9,49.2 -49.21,14.92 -49.21,14.92 2.96,-37.31 -37.29,-80.6 -37.29,-80.6 -32.96,-32.83 -60.53,-91.83 -60.53,-91.83 -19.04,-26.83 -6.69,-162.34 -6.69,-162.34 3.35,-120.9 -77.26,-180.25 -77.26,-180.25 -50.34,-66.05 -34.73,-138.77 -34.73,-138.77 31.39,-39.21 -1.05,-87.38 -26.83,-106.39 -25.82,-19.04 -104.13,-63.86 -104.13,-63.86 -47.02,-35.78 -13.42,-82.82 -13.42,-82.82 24.65,-39.18 49.21,11.26 49.21,11.26 22.44,45.86 58.22,-15.73 58.22,-15.73 12.39,-19.02 50.47,-99.62 50.47,-99.62 22.35,-38.07 30.17,10.1 30.17,10.1l-4.49 199.28c2.28,33.57 32.44,32.44 32.44,32.44 30.27,4.48 36.95,-39.22 36.95,-39.22 5.61,-104.12 82.87,-263.02 82.87,-263.02 0,0 31.31,-66.08 20.19,-144.48 -11.23,-78.33 -141.14,-95.16 -141.14,-95.16l-44.73 -12.3 -53.78 -30.26 21.35 4.48 70.47 13.43 48.17 -19.05c0,0 39.22,-23.51 95.18,-17.9 55.98,5.65 69.38,47.03 69.38,47.03l-20.18 8.96 -6.65 17.96 24.65 26.86 27.96 -5.61 31.31 -35.81 19.03 -47.01c43.69,-23.5 90.73,-246.28 90.73,-246.28 5.61,-37.01 34.7,-34.74 34.7,-34.74l39.12 -2.27c54.92,0 60.53,-44.76 60.53,-44.76 20.08,-33.57 30.16,-103.06 30.16,-103.06 26.87,-40.25 66.08,5.62 66.08,5.62l55.95 59.38 100.78 -62.72 -119.82 -174.61c-38.08,-114.21 47.04,-49.3 47.04,-49.3l94.09 94.03 -20.17 -97.37c33.6,-62.73 64.9,2.2 64.9,2.2 7.92,59.36 66.04,-25.72 66.04,-25.72 88.52,-53.75 48.17,35.78 48.17,35.78 0,0 -23.52,42.55 -31.33,47.03 -56.25,32.18 -24.62,77.27 -24.62,77.27l74.96 -19.05c27.99,-69.37 171.33,-105.25 171.33,-105.25 60.43,4.48 19.04,51.51 19.04,51.51 -104.12,82.87 -177.98,63.83 -177.98,63.83 -29.23,-5.51 -60.92,3.15 -91.08,18.3 -73.56,36.81 -138.47,111.61 -138.47,111.61 -29.13,-2.27 -141.04,86.15 -141.04,86.15 -151.11,86.22 -236.2,278.82 -236.2,278.82 -54.92,111.94 45.12,62.25 45.12,62.25 31.31,-19.33 44.79,-108.95 44.79,-108.95 71.59,-113.46 207.5,-194.07 219.37,-198.55 12.01,-4.44 44.83,-44.72 44.83,-44.72l49.21 -59.76c50.82,4.45 79.18,-16.38 79.18,-16.38l216.41 -106c194.06,-91.08 186.64,-111.94 186.64,-111.94l76.13 -77.65c49.21,-44.73 81.64,-35.78 81.64,-35.78 15.7,-3.43 66.14,14.57 66.14,14.57 48.07,0 82.81,-35.87 82.81,-35.87 40.35,-40.29 59.39,-29.14 59.39,-29.14 119.72,-10.08 118.94,-130.2 118.94,-130.2 46.36,11.91 103.09,-67.17 103.09,-67.17 -7.53,23.87 13.42,55.21 13.42,55.21 38.83,52.22 86.58,0 86.58,0l74.63 -95.01c32.83,-102.5 -113.43,-7.98 -113.43,-7.98 -40.38,25.4 -32.86,-17.9 -32.86,-17.9 4.48,-247.82 -61.17,-276.17 -61.17,-276.17 -43.31,-29.91 -12,-58.25 -12,-58.25 13.4,-29.78 94.03,-37.31 94.03,-37.31 55.28,-8.95 106.79,-63.38 106.79,-63.38 28.34,-50.05 54.43,-15.7 54.43,-15.7 52.21,41 5.21,94.04 5.21,94.04 -46.24,44.82 -4.47,102.31 -4.47,102.31 23.91,62.63 106.78,17.87 106.78,17.87 -59,52.25 -160.53,81.38 -160.53,81.38 -48.46,53.68 25.4,54.42 25.4,54.42 85.08,0 226.5,-91.82 226.5,-91.82 53.78,-69.38 131.04,-113.08 131.04,-113.08 54.82,-34.64 199.3,0 199.3,0 59.29,0 89.56,-47 89.56,-47 71.36,19.05 131.97,-22.34 131.97,-22.34 73.57,-51.51 205.29,-47.04 205.29,-47.04 91.74,-26.82 24.65,-80.6 24.65,-80.6l-53.77 -50.34c-41.39,-51.48 0,-120.96 0,-120.96 39.22,-67.2 73.86,1.14 73.86,1.14 37,49.3 18,157.86 18,157.86 -13.53,23.52 19,35.82 19,35.82 42.57,23.48 101.86,44.79 101.86,44.79 0,0 32.43,6.68 24.62,29.13 -7.79,22.38 15.7,34.64 15.7,34.64l86.15 39.21c94.09,71.66 200.42,25.69 200.42,25.69 31.4,-39.18 115.34,-5.5 115.34,-5.5l87.26 35.77c108.6,54.92 191.47,-2.17 191.47,-2.17l35.81 -2.28 28.06 12.36 -6.74 17.87c-72.83,79.48 77.25,111.95 77.25,111.95 181.33,-32.47 81.68,-116.42 81.68,-116.42 -37.98,-45.96 -127.63,-23.48 -127.63,-23.48l-20.09 -13.53c15.61,-44.73 -50.43,-64.91 -50.43,-64.91 -42.52,-11.12 -89.56,-48.16 -89.56,-48.16 -51.47,-66.01 16.87,-97.35 16.87,-97.35l77.16 -23.52c104.12,-40.31 173.6,76.17 173.6,76.17 64.91,70.51 61.56,-51.51 61.56,-51.51 8.96,-75.06 78.34,12.3 78.34,12.3 42.52,60.42 -11.15,142.16 -11.15,142.16 -67.19,99.65 79.47,90.69 79.47,90.69 100.77,10.1 90.69,-109.73 90.69,-109.73 22.37,-91.82 72.72,-42.52 72.72,-42.52 24.65,54.81 -3.35,95.16 -3.35,95.16 -50.34,101.92 24.66,143.31 24.66,143.31 -132.08,44.73 -101.91,115.28 -101.91,115.28 5.6,70.61 125.42,24.62 125.42,24.62 79.47,-67.18 146.65,-48.14 146.65,-48.14 91.86,7.88 49.3,59.4 49.3,59.4 -66.14,79.43 29.03,91.82 29.03,91.82l103.06 13.43c0,0 22.37,-4.48 52.64,23.49 30.17,27.99 81.64,19.04 139.89,-33.58 58.22,-52.64 0,-121.99 0,-121.99 0,0 -45.86,-41.52 -54.82,-59.39 -8.95,-17.91 -10.08,-25.82 10.1,-35.78 20.07,-10.12 33.51,8.92 33.51,8.92l31.4 36.94c26.82,44.7 52.6,6.75 52.6,6.75 11.16,-38.08 47.04,-16.83 47.04,-16.83 23.48,21.31 -14.57,44.8 -14.57,44.8 -40.35,16.77 8.95,97.37 8.95,97.37 54.82,74.99 187,-13.43 187,-13.43 64.9,-47 12.3,-110.87 12.3,-110.87l-30.3 -55.96c-21.21,-43.68 -3.31,-80.6 -3.31,-80.6 29.12,-45.86 86.21,-3.34 86.21,-3.34 42.57,49.21 104.13,80.61 104.13,80.61 69.38,23.51 35.78,53.68 35.78,53.68 -57.09,57.09 51.47,77.29 51.47,77.29 67.21,23.49 29.12,91.83 29.12,91.83 -39.11,33.58 -25.68,52.62 -25.68,52.62 26.83,68.24 102.95,-21.32 102.95,-21.32l12.3 0c23.48,57.09 103.08,17.9 103.08,17.9l27.96 12.37c104.11,-1.14 104.11,-89.56 104.11,-89.56 -5.6,-48.14 -92.99,-16.83 -92.99,-16.83l-12.25 -7.82 -104.51 -44.44c-70.13,-23.87 -46.26,-76.13 -46.26,-76.13 14.95,-17.9 68.63,16.45 68.63,16.45 52.23,59.68 194.04,52.26 194.04,52.26 19.43,-8.93 25.43,-32.84 13.53,-52.26 -12.01,-19.4 -77.66,-13.4 -100.03,-19.4 -22.45,-6 -38.83,-23.87 -38.83,-23.87 -83.56,-29.91 -173.21,-101.56 -173.21,-101.56 -47.68,-41.78 -68.61,-105.91 -68.61,-105.91 0,-56.73 58.22,-23.9 58.22,-23.9 40.26,11.91 40.26,-19.43 40.26,-19.43 2.99,-26.82 -82.13,-44.83 -82.13,-44.83 -68.6,-46.22 31.43,-59.65 31.43,-59.65 20.83,0 64.13,37.31 64.13,37.31 73.18,53.77 55.31,-46.26 55.31,-46.26 -49.31,-76.12 -4.49,-126.86 -4.49,-126.86 67.08,-32.83 20.87,-92.61 20.87,-92.61 -49.21,-65.65 -102.99,-7.42 -102.99,-7.42 -28.35,14.95 -31.31,140.28 -31.31,140.28 -11.99,59.69 -44.82,20.96 -44.82,20.96 -43.31,-58.26 -83.56,13.39 -83.56,13.39 -41.88,43.31 -86.6,6 -86.6,6 -73.21,-43.3 -32.86,-104.51 -32.86,-104.51 11.9,-17.97 76.16,-19.39 76.16,-19.39 8.95,-32.83 47.78,-35.87 47.78,-35.87 47.75,3.04 100,-38.83 100,-38.83 76.07,-46.26 -4.47,-50.73 -4.47,-50.73l-225.44 3.05c-83.55,11.89 -186.64,117.9 -186.64,117.9 -55.21,53.68 -96.98,0 -96.98,0l-68.7 -76.13c-46.26,-53.78 -116.39,-7.52 -116.39,-7.52 -35.87,34.34 -89.56,18 -89.56,18 -55.3,-28.45 -44.82,-107.56 -44.82,-107.56 -1.43,-64.13 91.08,-37.3 91.08,-37.3l110.47 65.69c120.86,1.49 40.26,-86.61 40.26,-86.61 -44.73,-68.64 40.35,-67.11 40.35,-67.11l211.94 1.42c111.94,-8.91 222.42,101.56 222.42,101.56 40.35,49.2 171.69,34.36 171.69,34.36l23.87 0c83.55,-22.45 171.68,-104.52 171.68,-104.52 64.17,-41.87 156.77,-7.49 156.77,-7.49 77.56,38.83 158.16,-31.33 158.16,-31.33 17.87,-5.98 70.13,-61.18 137.34,-10.48 67.17,50.73 96.69,19.43 96.69,19.43 0,0 96.31,34.73 116.96,-28.54l0.55 -10.68c0,0 48.72,33.6 74.99,31.43 26.38,-2.3 53.2,-19.62 57.69,-56.54 4.47,-37.03 -8.97,-63.86 -15.12,-66.13 -6.1,-2.2 -2.8,-99.09 -2.8,-99.09l-12.25 -26.84 22.38 -24.65c0,0 13.97,-88.41 -19.63,-117.51 0,0 -31.3,-52.05 -31.3,-120.86 0,0 -0.78,-51.6 27.61,-84.43 28.34,-32.82 34.25,-64.12 35,-76.81 0.77,-12.74 25.42,76.04 25.42,76.04 0,0 10.48,74.73 26.83,91.85 0,0 21.7,49.31 25.4,52.26 3.73,2.95 9.73,33.56 -5.22,45.47 -14.93,12 -28.36,61.96 -20.93,76.91 0,0 2.28,49.3 38.83,77.65l30.65 41.78 11.13 35.88 0.74 85.72c0,0 3.05,20.22 17.91,26.96 14.92,6.65 35.1,23.13 35.1,34.35 0,0 17.16,24.56 -47.01,40.26l-111.91 36.55c0,0 -56.72,33.57 -50.82,44.05 6,10.48 2.27,17.13 44.08,17.13 0,0 114.96,-27.61 137.3,-33.61 22.39,-5.87 66.44,-25.3 123.17,-24.56 56.7,0.79 125.43,-41.87 110.47,-58.97 0,0 10.67,-26.46 -13.32,-44.36 0.1,0 0.29,-0.1 0.29,-0.1 21.5,13.91 19.43,33.99 17.32,42.55 3.63,-1.62 10.93,-3.73 24.85,-6.29 39.47,-7.53 116.37,-44.82 116.37,-44.82 35.88,-18.66 23.91,-73.08 23.91,-73.08 -14.95,-20.93 -14.95,-68.74 -14.95,-68.74 15.69,-52.22 44.08,17.25 44.08,17.25 17.87,32.05 38.79,8.18 38.79,8.18 27.61,-8.18 36.56,-100.03 36.56,-100.03 21.6,-47.01 60.42,-8.18 60.42,-8.18 27.71,32.83 -8.95,87.29 -8.95,87.29l-70.12 75.35c-44.05,29.91 -14.95,88.13 -14.95,88.13 15.7,55.96 118.68,56.73 118.68,56.73 32.07,6.01 193.29,-33.6 193.29,-33.6 42.55,-8.95 65,-36.56 67.96,-50.05 2.95,-13.43 -3.74,-31.3 -43.31,-39.51 -39.61,-8.17 -156.73,19.43 -164.94,22.38 -8.17,2.96 -53,12.65 -59,-12.65 -5.87,-25.43 48.56,-32.08 48.56,-32.08 0,0 100.78,-20.96 158.25,-17.22 57.48,3.69 55.21,-50.73 55.21,-50.73 8.18,-53.78 141.03,-64.9 141.03,-64.9 50.8,-0.78 107.53,32.04 107.53,32.04 46.25,10.48 19.43,48.56 16.39,50.76 -2.96,2.27 -55.21,18.65 -71.66,12.65 -16.38,-5.9 -70.91,-5.9 -93.29,0 -22.35,6 -19.39,27.67 -19.39,27.67 -2.21,32.86 93.25,62.63 93.25,62.63 32.17,8.96 130.65,-30.55 130.65,-30.55 0,0 49.99,-17.87 92.51,-26.18 42.56,-8.17 79.96,44.83 79.96,44.83l91.79 82.13c0,0 6.82,26.85 47.04,11.15 40.22,-15.72 10.38,-76.9 10.38,-76.9 -21.09,-58.16 10.37,-90.98 10.37,-90.98 29.2,-35.1 93.42,-15.7 93.42,-15.7 41.85,18.65 17.84,67.17 17.84,67.17 -16.22,2.2 -11.02,53.01 -11.02,53.01 -3.25,35.03 45.4,33.5 45.4,33.5 24.01,-29.03 66.49,3.05 66.49,3.05 13.96,8.95 29.85,29.88 5.2,58.25 -24.65,28.36 -69.42,-0.77 -69.42,-0.77l-48.66 -29.09 -56.75 -35.14 -0.66 31.4c-8.11,28.35 41.86,64.91 41.86,64.91l134.28 120.86c32.76,12.75 36.01,100.8 36.01,100.8 -15.9,22.45 -4.55,85.06 -4.55,85.06 28.22,57.47 97.63,-9.7 97.63,-9.7l79.15 -20.86c35.03,13.43 42.82,-29.09 42.82,-29.09 0,0 45.41,-30.65 64.54,-13.43 19.46,17.12 45.74,-8.95 45.74,-8.95 0,0 26.92,-38.83 67.79,-38.06 41.2,0.65 28.54,37.31 28.54,37.31 0,0 -18.16,45.47 -55.46,51.47 -37.3,6.01 -35.68,41.04 -35.68,41.04 1.29,20.92 38.6,26.91 38.6,26.91 51.89,8.97 89.85,-23.86 89.85,-23.86 0,0 25.95,-28.39 59.68,-61.21 33.42,-32.92 -9.73,-59.78 -9.73,-59.78l-32.76 -6.65 6.81 -11.23 43.14 -11.99c21.73,3.79 39.57,-2.18 32.76,-38.06 -6.8,-35.77 34.39,-27.59 63.58,-41.81 28.87,-14.17 61.95,-8.17 61.95,-8.17 67.79,41.78 73.63,-39.57 73.63,-39.57 0,0 10.7,-5.25 -16.86,-63.42 -27.9,-58.22 67.14,-52.99 77.52,-53.74 10.38,-0.74 25.95,8.95 24,-22.35 -2.27,-31.43 51.25,-29.91 51.25,-29.91 28.54,-5.41 69.41,-0.75 75.58,8.96 5.84,9.7 63.25,27.21 63.25,27.21 4.54,0 29.19,-4.48 60.65,-11.13 31.14,-6.77 35.69,29.13 35.69,29.13 0,0 19.13,85.09 10.05,115.25 -8.76,30.26 42.49,78.4 73.96,67.18 31.46,-11.23 45.74,-4.48 86.28,20.17 40.22,24.65 17.84,5.61 84.98,-7.82 67.14,-13.49 36,60.43 36,60.43 -52.87,45.9 14.27,114.22 14.27,114.22 10.06,14.75 96.34,86.24 157.97,83.94 61.63,-2.27 49.31,127.64 49.31,127.64 0,0 -20.12,64.91 -9.08,91.82 11.34,26.82 0,15.61 60.65,13.43 60.34,-2.31 139.8,-72.81 139.8,-72.81l46.06 -13.44c31.14,-15.7 48.01,70.56 25.62,76.16 -22.38,5.61 -9.08,86.22 36.99,107.44 45.72,21.3 70.37,87.37 70.37,87.37l22.39 177.95c32.43,143.34 -72.66,325.85 -72.66,325.85l-46.05 113.08c0,0 -8.77,145.51 -10.07,149.99 -0.97,4.47 8.11,79.47 68.45,70.51 60.33,-8.95 58.38,76.14 80.44,101.92 22.38,25.69 51.57,-11.22 68.44,-29.13 16.87,-17.87 -10.05,-81.74 -10.05,-81.74l-42.49 -81.74c0,0 -39.25,-34.64 -37.96,-91.08 0.98,-56.34 66.82,-19.68 66.82,-19.68 0,0 49.3,57.08 39.25,68.21 -10.05,11.21 11.35,88.52 28.22,109.73 16.54,21.31 60.33,-12.29 44.76,-33.61 -15.89,-21.21 -2.26,-54.78 -2.26,-54.78 30.15,-28 51.24,5.61 51.24,5.61 32.76,3.31 31.47,116.39 31.47,116.39 0,0 -33.41,101.91 -42.49,106.39 -9.09,4.47 -36.01,66.04 25.62,68.24 61.62,2.27 41.52,49.27 41.52,49.27 0,0 -18.81,24.68 -48.01,4.48 -29.2,-20.18 -42.49,-11.23 -46.06,31.34 -3.24,42.52 -45.73,22.43 -45.73,22.43 0,0 5.51,-3.43 -36.98,-22.43 -42.49,-19.05 -52.55,0 -60.65,6.73 -7.79,6.75 3.56,53.79 38.26,69.39 34.72,15.7 31.14,72.79 -2.26,108.69 -33.74,35.78 2.26,62.6 2.26,62.6l54.82 54.92c0,0 14.6,15.6 31.47,15.6 16.54,0 61.63,80.61 61.63,80.61 9.73,29.12 43.46,30.26 70.38,11.25 26.93,-19.03 47.04,13.4 55.8,17.87 9.07,4.48 19.13,47 19.13,47 57.09,58.26 67.15,-25.68 67.15,-25.68 0,0 -3.25,-36.92 16.86,-73.96 20.11,-36.91 110.93,-41.38 134.29,-22.35 23.68,19.04 24.65,52.65 -36.97,105.26 -61.64,52.64 -6.82,73.86 21.4,78.34 27.9,4.47 72.66,61.55 30.17,97.44 -42.5,35.8 -110.94,2.2 -110.94,2.2 0,0 -37.95,-41.42 -65.85,-61.6 -28.21,-20.08 -52.86,-13.39 -64.87,19.04 -12.64,32.47 28.87,73.96 28.87,73.96 64.88,50.34 39.25,59.29 39.25,59.29 -37.95,29.13 7.79,81.74 32.44,104.12 24.65,22.35 21.4,20.17 68.44,8.92 47.03,-11.12 53.52,-11.9 99.9,18 46.39,29.78 52.23,-25.43 52.23,-25.43 0,0 1.29,-13.79 9.08,-60.78 7.78,-47.04 39.25,-53.78 78.17,-62.73 39.25,-8.96 36.97,70.52 36.97,70.52l15.57 136.58c0,0 5.85,71.65 38.28,140 32.44,68.21 69.74,57.09 69.74,57.09 12,0 41.85,-14.96 44.76,32.82 2.92,47.78 41.84,26.86 41.84,26.86 0,0 25.3,-31.34 53.85,-19.43 28.22,12 -9.08,58.23 -10.71,61.17 -1.29,3.06 -58.06,43.33 62.93,47.82 120.67,4.44 181.98,-49.24 181.98,-49.24 53.83,-7.5 55.13,44.75 55.13,44.75 0,0 4.54,59.76 12.01,101.53 7.46,41.78 -41.85,59.69 -41.85,59.69 0,0 -84.98,40.34 -111.9,55.27 -26.92,14.86 -29.85,47.68 -16.55,68.64 13.63,20.91 64.23,-6.01 64.23,-6.01 0,0 26.92,-13.43 62.93,-47.77 35.67,-34.26 55.13,-10.38 55.13,-10.38 24.01,4.47 -24,47.68 -24,47.68 0,0 -63.9,44.82 -63.9,49.3 0,4.47 -46.38,29.87 -6.16,52.25 40.22,22.35 96.99,-19.42 96.99,-19.42l47.68 -40.26 45.08 -16.44c0,0 38.6,23.87 46.07,23.87 7.46,0 38.92,17.91 16.54,62.73 -22.39,44.7 -115.15,38.79 -115.15,38.79 0,0 -77.53,-3.01 -123.92,8.96 -46.05,11.91 -52.21,71.68 -52.21,71.68 0,0 10.7,13.4 50.92,46.26 40.22,32.82 80.44,32.82 80.44,32.82 0,0 54.5,1.53 95.04,-38.82 40.23,-40.26 69.41,-20.08 69.41,-20.08 0,0 42.5,44.73 51.26,47 9.08,2.21 58.38,2.21 49.3,-49.31 -8.76,-51.47 37.95,-71.65 60.65,-89.55 22.39,-17.87 84.99,-20.17 84.99,-20.17 0,0 67.14,-76.14 102.82,-96.31 36.01,-20.08 6.81,-51.47 6.81,-51.47 0,0 -56.11,-76.14 -67.14,-94.04 -11.02,-17.9 -22.38,-67.17 0,-156.73 22.38,-89.56 113.21,-228.42 113.21,-228.42 18.81,-51.48 55.79,-21.21 55.79,-21.21 26.92,29.13 40.54,-34.74 40.54,-34.74 18.81,-36.92 -18.17,-133.26 -18.17,-133.26 -36.97,-43.65 -25.62,-152.24 -25.62,-152.24 25.62,-24.57 25.62,-124.21 25.62,-124.21 -15.56,-37 -37.94,5.52 -37.94,5.52l-33.41 18c-16.87,-9.05 -11.36,-44.82 -12.65,-90.69 -0.98,-45.97 24.65,-49.31 24.65,-49.31 19.14,2.27 31.46,-32.46 31.46,-32.46 16.87,-25.79 -9.08,-60.44 -9.08,-60.44 -18.81,-27.96 -60.33,-3.4 -60.33,-3.4 -25.63,26.92 -47.03,-7.82 -47.03,-7.82 -29.2,-19.03 -30.17,-95.17 -37.96,-107.42 -7.78,-12.4 -20.1,-151.13 -20.1,-151.13 -6.82,-70.64 -86.29,-136.69 -86.29,-136.69 -33.73,-44.72 2.27,-105.16 2.27,-105.16 14.6,-13.48 34.71,36.95 34.71,36.95l63.57 111.91 46.06 129.91c8.76,53.77 52.55,97.34 52.55,97.34 31.46,10.08 24.66,-42.52 24.66,-42.52 12.32,-35.79 -40.22,-136.6 -40.22,-136.6l-76.24 -144.34c-0.97,-9.05 -84.97,-152.29 -84.97,-152.29 -10.07,-6.75 -71.69,-154.56 -71.69,-154.56 -6.81,-35.77 -41.52,-114.18 -41.52,-114.18 -7.78,-16.76 -32.43,-19.03 -44.76,-4.47 -12.33,14.56 11.35,57.09 23.67,66.04 12.33,8.95 32.44,91.83 32.44,91.83 2.27,61.57 62.61,152.26 62.61,152.26l5.51 23.51c0,0 -11.03,-2.27 -33.41,-20.18 -22.38,-17.87 -51.57,-62.7 -58.39,-76.12 -6.81,-13.43 -21.08,-68.25 -36.97,-86.22 -15.57,-17.9 -51.26,-96.99 -70.71,-117.9 -19.46,-20.86 -40.55,-88.81 -40.55,-88.81l6.81 -6.01c0,0 25.63,14.96 44.76,16.48 19.47,1.43 21.74,-20.18 30.82,-41.1 8.75,-20.86 -26.28,-64.93 -26.28,-64.93 0,0 -15.56,-41 -29.84,-91.05 -14.27,-49.98 -44.11,-43.31 -53.84,-47.04 -9.74,-3.7 -9.74,55.31 3.89,68.73 13.3,13.4 26.92,125.34 26.92,125.34l-12 4.47 -18.81 -17.9 -22.38 -15.7c0,0 -33.41,-23.52 -48.01,-48.07 -14.6,-24.65 -35.67,-90.69 -44.77,-125.43 -9.08,-34.74 -70.7,-116.38 -70.7,-116.38 0,0 -69.42,-109.73 -82.71,-138.87 -13.3,-29.12 -6.81,-55.94 21.4,-61.56 27.9,-5.61 55.79,38.09 55.79,38.09 0,0 70.72,53.74 103.15,64.9 32.44,11.22 34.71,-26.86 34.71,-26.86 17.84,-17.9 -18.16,-72.79 -18.16,-72.79l-50.28 -63.77c0,0 -74.94,-120.95 -82.72,-132.21 -7.78,-11.12 -28.21,-29.02 -50.6,-11.12 -22.06,17.9 23.68,60.42 23.68,67.21 0,6.65 82.71,110.77 82.71,110.77l38.28 66.04 0 35.87 -25.95 -17.9 -17.83 -14.54 0 -23.51 -31.47 -37.01 -65.84 -78.34 -53.85 -89.55c0,0 -18.81,-10.09 -34.71,-42.56 -15.57,-32.43 -51.58,-26.92 -51.58,-26.92l-32.43 -21.21 -36.98 -41.39c0,0 -18.81,-23.52 3.57,-49.3 22.38,-25.79 48,1.13 48,1.13 0,0 16.87,4.47 39.25,35.77 22.39,31.44 34.71,13.43 40.23,15.7 38.28,15.25 0,-52.6 0,-52.6 0,0 -64.88,-60.44 -73.96,-74.99 -8.75,-14.57 -27.9,-54.92 -27.9,-54.92 0,0 -66.17,-89.56 -82.71,-110.78 -16.87,-21.3 -55.14,-126.49 -63.9,-222.8 -9.08,-96.3 -61.62,-147.78 -80.77,-180.25 -18.81,-32.43 -24.65,-78.4 -26.59,-151.12 -2.27,-72.79 -58.39,-176.91 -60.98,-199.29 -2.92,-22.44 -38.93,-57.09 -10.71,-106.4 27.9,-49.2 -7.79,-125.33 -7.79,-125.33l-3.23 -2.26c15.89,-15.73 -64.88,-89.56 -64.88,-89.56 -55.79,-71.69 13.63,-170.16 13.63,-170.16 96,-58.27 35.67,-132.12 35.67,-132.12 -89.52,-78.39 6.82,-98.57 6.82,-98.57 64.87,-22.39 13.29,-94.03 13.29,-94.03 -60.33,-105.26 67.15,-141.04 67.15,-141.04 116.45,17.87 85.3,-94.03 85.3,-94.03 -47.03,-44.83 -2.26,-111.94 -2.26,-111.94l100.55 -116.48c80.76,-91.83 -13.3,-172.44 -13.3,-172.44 -44.76,-51.47 -188.13,2.28 -188.13,2.28 -29.19,2.21 -29.19,-38.05 -29.19,-38.05 0,0 -15.57,-29.13 -11.03,-163.51 0.98,-33.5 -7.13,-63.28 -19.79,-89.07 0,0 0,0 0,0.1 15.25,7.88 49.63,37.49 49.63,37.49 25.3,19.4 27.57,88.13 27.57,88.13 8.76,58.12 79.14,86.51 79.14,86.51 25.31,27.7 120.02,17.97 120.02,17.97 23.35,0 22.38,-40.35 22.38,-40.35l34.38 41.12c12.01,42.53 56.77,29.01 56.77,29.01 32.11,-0.65 14.27,-41 14.27,-41 -24,-43.31 107.36,-55.96 107.36,-55.96 50.93,-21.7 14.93,-76.91 14.93,-76.91 -15.58,-37.29 -94.08,-43.3 -94.08,-43.3 -81.09,0 -117.08,-26.07 -117.08,-26.07 0,0 -29.85,-26.92 17.18,-57.48 47.04,-30.66 123.91,7.43 123.91,7.43l64.22 44.82c0,0 -38.92,-59.78 -0.97,-85.85 38.28,-26.15 56.12,5.24 56.12,5.24l26.27 36.18c62.6,55.95 210.19,-117.56 210.19,-117.56l221.87 -219.43c39.24,-36.94 23.35,-129.81 23.35,-129.81 -27.89,-67.21 15.89,-97.47 15.89,-97.47 53.52,-25.69 84.99,32.47 84.99,32.47 40.22,44.8 49.3,-8.95 49.3,-8.95 -5.52,-68.25 73.95,-135.45 73.95,-135.45 78.18,-38.05 63.58,-99.62 63.58,-99.62 -42.49,-4.47 -14.27,-70.51 -14.27,-70.51 37.95,-21.35 36.66,-93 43.46,-105.26 6.81,-12.4 62.6,-32.47 62.6,-70.52 0,-38.08 120.02,-153.42 120.02,-153.42l141.42 -139.25c0,0 33.09,26.56 85.64,0 52.86,-26.43 30.49,-53.3 32.43,-73.44 0,0 5.84,-66.07 75.25,-51.5l99.58 40.24c0,0 44.77,22.48 66.18,-1.04 0,0 11.03,-38.07 -22.71,-58.25 0,0 -66.81,-91.82 -71.36,-143.3 0,0 -58.38,-171.3 -100.87,-190.34 0,0 34.7,-10.09 57.09,27.96 0,0 19.13,76.16 43.78,109.73 0,0 50.28,101.92 124.23,159.04 0,0 109.64,96.2 109.64,105.16 0,0 38.6,31.88 33.73,-8.96 -1.29,-8.92 -1.29,-44.72 -31.46,-73.86 0,0 -44.76,-73.92 -36.98,-119.78 0,0 -2.27,-66.08 63.9,-109.73 0,0 61.63,-40.26 59.36,-68.25 0,0 0.97,-40.35 -16.86,-44.83 0,0 -34.72,-34.73 32.43,-51.47l58.06 -78.34c0,0 50.6,-63.87 79.47,-65 0,0 -50.28,5.61 -96.01,30.27 0,0 -33.73,29.13 -58.4,1.13 0,0 -35.67,-35.87 38.28,-101.91 0,0 85.96,-117.55 184.57,-109.74 0,0 137.85,3.44 182.61,-42.52 0,0 79.47,-80.61 150.83,-62.74 0,0 95.37,26.96 144.67,-22.35 0,0 135.26,-104.12 126.5,-188.06 0,0 8.76,-95.17 -73.95,-90.69 0,0 -52.55,-11.22 -115.15,87.35 0,0 -69.41,77.2 -141.1,85.08 0,0 -107.69,11.16 -150.18,-21.31l-89.53 -79.47c0,0 -17.83,-45.67 23.68,-34.05 0,0 92.78,51.96 116.45,76.61 0,0 30.49,29.49 68.44,26.43 0,0 43.46,6.78 94.72,-49.95l89.85 -79.86c0,0 43.14,-41.1 14.59,-73.18 0,0 -30.49,-24.65 -63.89,12.66 0,0 -52.23,60.52 -128.45,47.78 0,0 -76.88,3.04 -111.26,-33.61 0,0 -41.2,-38.05 -65.85,-11.87 0,0 -30.49,40.99 -53.52,-8.95 0,0 -24.01,-50.05 15.57,-81.36 0,0 70.39,-86.6 138.82,-34.37l59.05 51.5c0,0 48.33,32.14 61.3,-15.6 0,0 6.48,-50.83 -46.39,-61.98 0,0 -44.11,-47.75 -12,-79.18 0,0 35.03,-21.61 57.41,7.52 0,0 30.82,43.3 35.36,68.64 0,0 46.06,64.22 95.36,78.4 0,0 77.53,29.12 86.61,-14.93 0,0 9.73,-24.68 -2.27,-38.85 0,0 -9.09,-33.58 41.2,-30.53 0,0 69.41,-0.78 100.55,-53.77 0,0 52.21,-56.74 16.54,-99.26 0,0 -30.5,-26.86 -88.23,-3.73 0,0 -93.09,27.6 -117.74,6.68 0,0 -59.04,-9.73 -30.82,-44.74l54.82 -32.16c0,0 66.82,-8.17 105.1,9.7 0,0 99.9,19.42 144.01,-5.88 0,0 64.22,-56.73 51.58,-146.29 0,0 0,-112.78 -44.12,-162.73 0,0 -46.39,-70.91 -75.57,-51.51 0,0 -73.63,16.38 -42.49,106.72 0,0 36,73.18 36,120.18 0,0 6.49,70.9 -53.85,63.37 0,0 -43.14,-4.47 -56.77,-43.98 0,0 -20.75,-44.04 13.63,-67.17 0,0 37.31,-19.44 14.92,-73.86 0,0 -7.46,-78.4 -35.35,-78.4 0,0 -31.79,-8.21 -58.72,51.47 0,0 -37.29,76.91 -86.6,44.83 0,0 -25.29,-35.1 -89.52,0 0,0 -68.12,7.43 -94.07,38.83l-61.3 58.9c0,0 -52.23,67.47 -64.22,-4.48 -0.65,-4.47 -17.19,-55.21 8.43,-102.94 0,0 48.98,-59.01 119.36,-48.56 0,0 78.17,11.25 92.45,-18.66 0,0 51.57,-39.57 12.64,-80.6 0,0 -63.24,-9.7 -15.57,-61.95 0,0 33.42,-41.03 73.97,-8.18l80.43 55.96c0,0 52.23,48.52 118.07,-2.96 0,0 53.53,-59.78 13.95,-125.43 0,0 -18.49,-42.55 -74.6,-66.42 0,0 -32.77,-7.43 -26.6,-29.88 0,0 28.22,-121.64 77.52,-61.21 0,0 50.6,118.69 111.26,171.69l84.98 133.6c0,0 20.11,65.69 44.76,105.94 24.66,40.35 52.23,85.18 72.33,106.03 20.12,20.93 32.76,25.4 32.76,25.4 0,0 -20.75,-86.6 -53.51,-134.38 0,0 -64.87,-148.57 -66.49,-153.04 0,0 -76.23,-151.51 -107.37,-195.46 0,0 -24.66,-57.47 -79.14,-132.2l-14.28 -21.61c0,0 32.12,-5.61 23.03,-50.31 -8.75,-44.86 5.84,-132.12 -17.83,-147.82 -23.36,-15.69 -49.32,-51.47 -49.32,-51.47 0,0 14.6,70.52 -26.59,76.12 -41.52,5.52 -75.25,-23.51 -75.25,-23.51 0,0 -42.49,-34.74 -88.55,-1.14 -45.74,33.61 -62.61,41.4 -62.61,41.4 0,0 -69.41,25.79 -135.25,-19.05 -66.17,-44.72 -122.29,-114.17 -193.65,-153.29 -71.68,-39.21 -90.82,-60.53 -198.19,-58.26 -107.69,2.2 -216.35,-5.61 -216.35,-5.61 0,0 69.74,-78.43 177.11,-73.86 107.36,4.48 120.65,-7.88 202.4,21.22 81.74,29.13 141.1,47.23 187.16,102.05 45.73,54.71 68.11,68.11 87.25,77.06 19.14,8.95 31.46,24.65 76.23,20.18 0,0 27.89,-1.14 -2.28,-62.7 -30.16,-61.6 -30.16,-85.09 -89.52,-129.81 -59.36,-44.83 -83.04,-60.53 -83.04,-60.53 0,0 115.47,-22.38 32.44,-82.81 0,0 -42.49,-42.52 -167.7,-51.47 0,0 -75.25,-10.09 -96.33,-32.47 0,0 -70.39,-41.49 -9.08,-78.4l57.09 -3.34c0,0 54.81,-23.52 111.9,-1.14l72.98 16.74c0,0 60.34,11.22 35.68,-34.65 0,0 -3.25,-40.35 -109.64,-34.7 0,0 56.12,-43.69 46.07,-82.81 0,0 -3.58,-94.43 -51.91,-155.69l0.34 0.19c0,0 22.37,1.68 67.79,-46.84 0,0 28.53,-9.89 26.27,13.63 -2.27,23.48 -6.17,62.69 36.33,76.12 0,0 39.56,40.35 50.92,-5.06 0,0 8.43,-31.3 -27.57,-58.71 0,0 -60.33,-41.39 -57.42,-66.04 2.61,-24.65 18.82,-72.24 -20.1,-62.7 0,0 -36.66,13.4 -61.64,-5.61l-117.09 -89c0,0 -40.22,-31.89 -11.68,-49.3 28.55,-17.33 61.63,10.66 61.63,10.66l69.42 63.87c0,0 22.7,32.99 48.01,21.21 0,0 30.8,-20.75 4.53,-50.93l-93.08 -90.68c0,0 -43.47,-63.87 -38.93,-116.48 4.21,-52.55 -9.08,-58.16 -9.08,-58.16l-15.57 -23.48c0,0 -9.08,-49.31 10.05,-52.65 18.81,-3.34 24.65,-49.3 -13.63,-49.3 -37.94,0 -34.7,-52.61 -4.53,-59.3 30.17,-6.74 23.68,-2.26 23.68,-2.26 0,0 47.02,-1.18 11.03,-41.43 -35.68,-40.32 4.54,-25.79 16.86,-25.79 12.33,0 66.17,-13.39 9.08,-42.52l-58.38 -6.65c0,0 -36.97,-19.04 -4.54,-49.3l41.52 -6.69 -101.86 -77.26c0,0 -32.43,-47 16.87,-41.38 0,0 73.96,55.95 58.06,-14.57 0,0 0,-78.43 30.49,-70.52l14.6 -19.04 26.6 -5.61c0,0 29.19,13.43 36.01,-11.25 0,0 -10.07,-44.7 49.3,-68.22 0,0 50.27,-25.79 21.08,-51.57 0,0 -23.36,-78.34 31.46,-98.51 0,0 49.95,-40.25 55.47,0l-9.73 36.9c0,0 89.53,-54.8 61.63,18.01l-48.01 29.03c0,0 -24.65,23.49 2.28,40.35 26.59,16.74 4.21,41.39 -16.87,39.22 -21.41,-2.3 -37.95,1.04 -73.95,32.44 -35.69,31.3 -49.32,109.73 -49.32,109.73 0,0 -17.84,74.99 7.79,109.73 25.95,34.64 56.11,26.82 80.76,-2.3l0 102.98c0,0 -48.33,57.09 -6.8,98.61 41.52,41.39 47.03,67.08 47.03,67.08 0,0 1.29,43.69 -44.76,20.17 0,0 -43.8,-59.29 -80.44,2.31 -36.99,61.56 34.38,72.69 34.38,72.69 0,0 57.08,-8.96 68.44,23.51 0,0 44.76,-5.51 53.84,-40.24 0,0 -22.38,63.76 19.15,74.99 0,0 59.03,22.34 41.19,49.3 0,0 -25.64,25.69 -74.94,-9.05 0,0 -42.49,-29.04 -69.41,1.13 0,0 -16.86,48.17 20.11,59.39 0,0 31.46,11.13 -4.53,52.62 -35.69,41.42 -7.79,73.86 11.34,87.28 0,0 159.92,88.52 172.24,117.52l12.33 -88.39c0,0 46.06,-17.9 50.6,29.1 0,0 31.14,-67.18 54.82,3.34 0,0 53.51,20.17 8.75,55.95 0,0 -44.76,39.22 -0.97,47.1 0,0 111.91,-44.8 68.44,24.59 0,0 -52.87,33.57 -13.62,49.27 0,0 76.23,-12.27 33.41,36.94 0,0 -71.36,23.48 -45.74,68.31 0,0 23.68,63.77 68.44,21.24 0,0 105.09,-88.42 189.11,-104.12 0,0 114.18,-24.65 119.68,-106.29l23.68 -113.08c0,0 31.15,-63.86 45.74,8.96l-13.3 85.08c0,0 -10.05,62.61 13.3,64.91 0,0 50.28,7.81 54.82,-126.51 0,0 9.08,-171.26 -14.6,-188.13 0,0 -10.05,-41.39 16.55,-51.47 0,0 18.16,-24.65 0,-55.99 0,0 32.76,-98.47 -33.09,-95.14 0,0 -74.92,27.97 -84,23.49 0,0 -31.47,7.81 -42.5,-17.87 -11.35,-25.79 6.49,-32.47 6.49,-32.47 0,0 94.07,-5.62 75.25,-39.22 0,0 -8.11,-26.82 -30.16,-26.82 0,0 -22.71,-30.27 5.5,-38.09 0,0 64.88,13.44 48.01,-29.08 0,0 -7.79,-68.35 -47.03,-41.43 0,0 -35.68,21.21 -66.17,-20.18l-84.98 -51.47c0,0 -12.33,-107.73 -80.44,-123.35 0,0 -33.74,-9.9 -33.74,-63.64 0,0 7.79,-111.95 -62.6,-147.82l-111.91 -101.82c0,0 -36.97,-22.38 -17.84,-54.92 0,0 23.36,-70.51 -32.76,-69.37l-45.73 -4.48c0,0 59.36,-8.96 40.21,-44.83l-19.13 -25.69 16.22 21.8c0,0 65.19,8.76 72.01,13.98 6.81,5.25 68.76,66.43 75.25,67.95 6.81,1.52 27.9,-25.39 48.65,-36.55 20.76,-11.23 66.5,1.43 66.5,1.43 0,0 41.52,-1.43 35.03,41.13 0,0 -26.28,61.2 -21.73,80.6 0,0 2.91,49.21 36,50.73 0,0 42.5,21.6 49.96,-114.95 0,0 5.18,-55.99 31.46,-83.59 0,0 43.14,-64.23 0,-100.01 0,0 64.87,0.75 60.98,-41.03 0,0 11.02,-61.95 43.46,-54.52l11.68 -41 -7.46 -38.86 23.36 -14.18 23.03 3.73c0,0 9.73,-25.43 -5.84,-33.6 -15.9,-8.18 -13.63,-25.3 -13.63,-25.3 0,0 18.82,-7.53 22.38,-14.21 3.89,-6.74 24.66,-79.17 24.66,-79.17l0 -64.91c0,0 10.37,-13.4 20.1,-8.92 9.74,4.47 22.38,-1.53 22.38,-12.78l-14.92 -170.13 -13.29 -61.2 -4.55 -156.77c0,0 -17.83,-70.13 -74.6,-49.18 -56.76,20.83 -73.31,35.79 -73.31,35.79 0,0 -46.06,19.39 -59.67,-10.49l-31.14 -3.69c0,0 43.13,-38.83 38.6,-92.52 0,0 3.89,-26.92 19.45,-41.87 0,0 12,-8.21 18.81,-31.34 0,0 12.66,-52.96 36.34,-91.82l29.19 -76.03 21.73 -30.65 12.98 -14.76c6.16,12.29 7.78,22.19 7.78,22.19 -4.54,41.87 37.3,90.3 37.3,90.3 23.36,12.78 -50.6,91.85 -50.6,91.85 -36.65,42.54 0.65,82.79 0.65,82.79 32.76,49.3 57.41,-14.08 57.41,-14.08 0,0 13.63,-41.87 41.2,-37.4 27.57,4.48 12.65,44.09 6.81,54.52 -6.17,10.48 8.76,12.66 8.76,12.66l77.52 -40.25c7.79,-32.44 92.77,-63.84 92.77,-63.84 68.43,-24.65 146.94,-86.9 146.94,-86.9l32.11 -23.91 94.72 -61.26c67.14,-23.88 158.28,-96.99 158.28,-96.99 64.87,-8.17 19.14,44.08 19.14,44.08 -5.51,20.07 -111.9,72.69 -111.9,72.69 -96.34,34.74 -138.83,79.57 -138.83,79.57 -44.77,57.02 22.37,35.77 22.37,35.77l67.48 -22.35c94.06,-35.87 240.99,-167.2 240.99,-167.2 56.77,-37.34 143.7,-136.21 143.7,-136.21 42.49,-48.13 135.59,-91.82 135.59,-91.82l111.91 -101.82c26.91,-84.04 -53.85,-18 -53.85,-18l-82.72 54.91c-15.56,2.21 -53.84,-3.44 -53.84,-3.44 -2.27,56.05 -49.3,48.17 -49.3,48.17 -52.55,-14.57 -61.3,47 -61.3,47l-39.25 73.95c-15.57,44.74 -60.66,3.35 -60.66,3.35 -33.41,-20.18 26.92,-68.35 26.92,-68.35 26.92,-1.04 33.74,-33.51 33.74,-33.51l33.41 -48.13c-18.82,-22.48 33.73,-59.39 33.73,-59.39 47.03,-41.39 0,-47 0,-47 -48.33,-14.57 -103.15,89.56 -103.15,89.56 -17.84,61.56 -122.94,110.87 -122.94,110.87 -93.09,58.22 -201.75,78.29 -201.75,78.29 -79.47,-7.78 -64.88,39.22 -64.88,39.22 -12.32,49.3 -95.03,36.92 -95.03,36.92 -94.07,-29.1 -89.52,66.07 -89.52,66.07 -90.83,-55.96 -86.93,75.05 -86.93,75.05 -30.82,-10.08 -40.87,31.34 -40.87,31.34l-23.36 8.92c-33.73,0 -45.74,-39.58 -45.74,-39.58 -23.68,-36.51 60.66,-119.33 60.66,-119.33 18.81,-20.08 21.74,-38.43 18.81,-53.1 2.59,11.32 0,18.36 0,18.36l28.87 0c82.72,-1.13 101.85,-54.92 101.85,-54.92 5.52,-38.07 34.72,-45.86 34.72,-45.86 44.75,10.09 64.87,-26.86 64.87,-26.86 25.94,-44.82 44.75,-30.22 44.75,-30.22 50.6,17.87 49.31,-14.6 49.31,-14.6 0,-16.74 24.65,-45.87 24.65,-45.87 39.25,-14.56 40.54,-80.61 40.54,-80.61 13.31,-29.12 31.14,-6.73 31.14,-6.73 19.14,19.03 56.12,-4.48 56.12,-4.48 5.52,-17.91 71.36,-14.57 71.36,-14.57 10.38,-13.39 69.41,-17.87 69.41,-17.87 53.85,8.92 87.58,-31.34 87.58,-31.34 53.53,14.57 59.03,-51.47 59.03,-51.47 29.2,36.91 71.69,1.04 71.69,1.04 12.66,-30.17 46.06,-31.31 46.06,-31.31 14.6,6.75 47.04,-13.43 47.04,-13.43 43.78,3.35 57.09,-19.03 57.09,-19.03l44.75 -30.27 54.5 -24.65c0,0 156.34,-74.6 168.35,-108.21 0,0 7.45,-17.12 18.48,-11.86 11.35,5.21 21.08,20.07 21.08,20.07 0,0 20.76,-115.63 -5.18,-128.29 0,0 -21.74,-16.48 -17.19,-35.87 4.53,-19.43 -7.46,-77.66 20.1,-79.86 27.58,-2.27 41.84,11.9 48.33,43.3 6.82,31.3 2.6,75.39 18.17,94.04 15.57,18.65 11.03,30.65 50.6,16.44 0,0 16.55,-19.4 0,-32.14 0,0 -20.76,-32.08 14.92,-40.26 0,0 18.82,-2.29 24,10.45 0,0 16.54,20.86 29.85,-4.47l10.37 -29.88 19.47 15.7c32.43,30.17 57.09,-7.88 57.09,-7.88 24.65,-15.7 19.13,-41.49 19.13,-41.49 -22.38,-48.26 32.44,-50.27 32.44,-50.27 32.43,-2.28 32.43,-58.22 32.43,-58.22 0,-54.92 50.28,-81.79 50.28,-81.79 50.6,-1.13 26.93,82.92 26.93,82.92 -13.3,49.2 56.1,50.34 56.1,50.34 44.77,13.43 114.19,-74.99 114.19,-74.99l40.21 -35.88c14.6,-13.43 134.29,-73.86 134.29,-73.86 39.25,-15.7 44.77,23.52 44.77,23.52 0,42.52 33.73,47 33.73,47 32.44,7.82 25.63,-32.44 25.63,-32.44l-6.82 -41.39c0,0 -26.92,-66.07 -32.44,-89.55 -5.51,-23.62 -30.16,-87.39 -30.16,-87.39 1.29,-47 -61.3,-92.87 -61.3,-92.87 -36.34,-59.77 -99.26,-70.25 -99.26,-70.25 -42.5,-11.88 -70.06,23.91 -70.06,23.91 -13.31,50.82 30.49,48.52 30.49,48.52 19.46,8.95 49.95,-14.57 49.95,-14.57 35.35,4.18 36,53.4 36,53.4 -0.65,6.67 -2.27,18.65 18.82,23.12 20.75,4.48 38.59,51.48 38.59,51.48l2.93 61.98c4.53,26.15 -18.82,28.36 -18.82,28.36 -13.62,-3.35 -47.03,15.7 -47.03,15.7 -50.28,45.86 -89.52,53.67 -89.52,53.67 -53.85,7.88 -120.02,-30.16 -120.02,-30.16 -14.6,-3.34 -44.76,-96.33 -44.76,-96.33 -7.79,-33.57 -45.73,-13.4 -45.73,-13.4 -34.72,11.23 -48.33,-17.91 -48.33,-17.91 -26.93,-39.21 26.92,-43.65 26.92,-43.65 19.13,-4.48 0,-31.34 0,-31.34l-44.77 -45.96 -36.97 -23.52c-8.76,-31.3 -57.74,-55.95 -57.74,-55.95l-88.88 -22.35c0,0 -5.84,-6 -7.46,21.6 -1.62,27.61 -32.76,34.35 -32.76,34.35 -26.92,-0.78 -56.12,-50.05 -56.12,-50.05 -26.91,-20.85 -4.54,-42.55 -4.54,-42.55 18.82,-4.48 13.63,-33.61 13.63,-33.61 -14.93,-32.82 18.48,-56.7 18.48,-56.7 50.29,-7.42 42.5,-55.2 42.5,-55.2 -28.87,-18.65 -7.14,-38.09 -7.14,-38.09l45.41 -24.65c82.06,-54.42 -22.37,-76.77 -22.37,-76.77 -35.04,-6.78 -74.61,-83.65 -74.61,-83.65 0,0 -13.95,-26.87 -42.82,-46.84 0.32,0.29 0.65,0.48 1.3,0.77 0,0 32.43,-21.11 33.73,-32.82 0.98,-11.81 25.63,-34.19 25.63,-34.19 0,0 81.74,-104.12 99.58,-132.08 17.84,-27.99 20.11,-101.92 2.27,-130.95 -17.84,-29.12 31.46,-33.6 31.46,-33.6 0,0 71.69,-37.01 94.07,-56.05 22.38,-19.04 15.57,-86.12 15.57,-86.12 0,0 -19.14,8.92 -36.01,22.34 -16.54,13.44 -24.32,25.7 -53.52,-10.08 -29.19,-35.77 23.35,-54.82 23.35,-54.82 0,0 18.18,-6.74 86.29,-42.52 68.43,-35.91 21.41,-91.86 21.41,-91.86l-56.12 -64.94c-40.22,-34.7 -6.81,-75.02 -6.81,-75.02l60.65 -39.15c68.13,-28.03 86.29,23.48 86.29,23.48 6.49,3.37 44.75,86.21 47.03,94.03 14.6,51.97 73.63,3.38 73.63,3.38 42.49,-20.15 -3.25,-72.76 -3.25,-72.76l-44.76 -63.83c-13.62,-29.1 45.74,-114.18 45.74,-114.18 58.39,-43.66 38.27,-100.78 38.27,-100.78 -4.53,-43.66 45.74,-52.61 45.74,-52.61 52.87,3.37 48.33,60.46 48.33,60.46 2.27,47 52.54,34.71 52.54,34.71 57.09,-6.72 17.85,-81.74 17.85,-81.74 -25.63,-35.81 11.35,-106.36 11.35,-106.36 20.11,-42.53 -9.08,-189.21 -9.08,-189.21 -23.36,-86.17 -14.6,-191.43 -14.6,-191.43 14.6,-47 59.36,-4.48 59.36,-4.48 50.27,41.42 41.52,118.66 41.52,118.66 0.98,58.22 35.68,57.12 35.68,57.12 46.05,4.47 49.3,-54.86 49.3,-54.86 2.27,-48.13 34.71,-83.97 34.71,-83.97 46.06,-36.95 88.55,19.04 88.55,19.04 23.35,23.51 90.5,69.41 90.5,69.41 53.84,7.82 36.98,-51.51 36.98,-51.51l-36.98 -49.24c-3.24,-2.23 -27.9,-16.8 0,-52.64 28.22,-35.82 54.82,22.41 54.82,22.41l58.38 44.76c105.09,47.04 40.22,-39.18 40.22,-39.18 -30.17,-41.42 4.55,-62.7 4.55,-62.7 41.51,-1.11 52.54,34.71 52.54,34.71 39.25,27.99 58.38,-16.8 63.9,-29.1 5.52,-12.32 40.22,-10.08 40.22,-10.08 0,0 -89.26,-39.85 -94.07,-42.56 -24.65,-13.43 -24.65,-17.91 -18.81,-48.14 8.43,-46.2 67.88,7.77 88.23,13.46 63.9,17.91 89.52,-67.17 89.52,-67.17l7.79 -59.32c90.82,4.43 168.02,-83.99 168.02,-83.99 0,0 44.76,-81.74 59.36,-94.06 14.6,-12.3 -5.52,-23.48 -5.52,-23.48z"/>
  <circle class="fil1" cx="18605.52" cy="21484.47" r="190.5"/>
  <circle class="fil1" cx="6907.42" cy="19547.72" r="190.5"/>
  <circle class="fil1" cx="18912.43" cy="23929.23" r="190.5"/>
  <circle class="fil1" cx="13696.62" cy="17542.18" r="190.5"/>
  <circle class="fil1" cx="23600.87" cy="21553.26" r="190.5"/>
  <circle class="fil1" cx="32559.67" cy="16653.17" r="190.5"/>
  <circle class="fil1" cx="32940.67" cy="15758.87" r="190.5"/>
  <circle class="fil1" cx="34332.39" cy="14393.61" r="190.5"/>
  <circle class="fil1" cx="34332.39" cy="13943.82" r="190.5"/>
  <circle class="fil1" cx="33845.55" cy="14293.08" r="190.5"/>
  <circle class="fil1" cx="18131.4" cy="26663.05" r="190.5"/>
 </g>
</svg>
