<?xml version="1.0" encoding="UTF-8"?>
<!DOCTYPE svg PUBLIC "-//W3C//DTD SVG 1.1//EN" "http://www.w3.org/Graphics/SVG/1.1/DTD/svg11.dtd">
<!-- Creator: CorelDRAW X8 -->
<svg xmlns="http://www.w3.org/2000/svg" xml:space="preserve" width="381mm" height="381mm" version="1.1" style="shape-rendering:geometricPrecision; text-rendering:geometricPrecision; image-rendering:optimizeQuality; fill-rule:evenodd; clip-rule:evenodd"
viewBox="0 0 38100 38100"
 xmlns:xlink="http://www.w3.org/1999/xlink">
 <defs>
  <style type="text/css">
   <![CDATA[
    .str0 {stroke:#DADADA;stroke-width:33.86}
    .fil0 {fill:none;fill-rule:nonzero}
    .fil1 {fill:#DADADA}
   ]]>
  </style>
 </defs>
 <g id="Warstwa_x0020_1">
  <metadata id="CorelCorpID_0Corel-Layer"/>
  <path class="fil0 str0" d="M36227 11805c-48,-8 -64,-54 -64,-54 -3,-7 -50,-58 -50,-58 -35,-29 -18,-70 -18,-70 20,-46 -20,-85 -20,-85 -35,-14 -96,-99 -96,-99 -3,-24 -37,-65 -37,-65 -30,-47 -96,-23 -96,-23 -61,27 -105,-24 -105,-24 -36,-37 -134,-3 -134,-3 -72,14 -95,-47 -95,-47l-368 -967c-16,-78 -69,-113 -69,-113 -33,-36 -93,-15 -93,-15 -33,7 -91,-33 -91,-33 -57,-46 -105,-24 -105,-24 -29,17 -73,5 -73,5 -56,-10 -148,-67 -148,-67 9,26 -12,53 -12,53 -38,26 -3,14 -112,72 -109,58 -138,-23 -138,-23 0,0 -22,-39 -48,-69 -26,-30 -43,-5 -43,-5l-263 742c-49,99 -15,224 -15,224 -1,12 50,224 85,258 35,35 35,108 37,116 2,8 -14,90 -39,95 -26,4 -31,69 -7,81 23,11 28,64 23,83 -4,19 -63,69 -95,78 -31,9 -19,42 -7,77 13,35 19,63 4,103 -16,40 -43,64 -79,85 -35,21 -77,13 -77,13l6 17c-7,-14 -13,-30 -38,0 -26,30 -13,23 -52,10 -39,-12 -47,27 -47,27 0,0 -9,19 -32,29 -24,10 -3,34 -3,34 0,0 22,64 8,70 -13,7 -12,56 -12,56l-1066 306 -740 199c-45,-31 -126,19 -126,19 -108,46 -228,222 -228,222 -181,228 -201,404 -201,404l-14 18 -49 62 -146 186c-24,23 0,38 0,38l63 63c55,-26 72,26 72,26 12,30 -44,53 -44,53 -39,13 -13,38 -13,38 32,29 58,89 58,89 41,71 17,131 17,131 -17,47 -85,41 -85,41 -20,2 -43,-8 -43,18 0,25 -22,52 -22,52l-43 52c-17,56 -75,88 -75,88 -73,35 -102,87 -102,87 -14,-39 -79,-35 -79,-35 -163,25 -217,86 -217,86 -35,48 -100,4 -100,4 -36,-43 -101,-41 -101,-41 -119,-21 -217,20 -217,20 -90,37 -209,36 -209,36l-125 39c-162,61 -146,111 -146,111l1 122c-3,23 23,30 23,30 31,18 22,69 22,69 6,37 36,21 36,21 43,-33 64,27 64,27 63,82 -13,141 -13,141 -56,47 -70,105 -70,105 9,37 -93,116 -93,116 -167,117 -264,288 -264,288 0,0 -54,24 -88,63 -35,39 -51,73 -111,91 -59,18 -88,55 -88,55l-85 48 -30 8c-16,-20 -100,-24 -100,-24 -104,-19 -205,121 -205,121 -62,93 -158,112 -158,112 -80,14 -180,115 -180,115 -66,64 -118,6 -118,6 -72,-66 -155,34 -155,34 -33,60 -97,42 -97,42 -70,-2 -103,77 -103,77 -27,51 -75,70 -75,70 -97,65 -198,30 -198,30 -89,-38 68,-67 68,-67 32,0 100,-21 75,-60 -26,-38 -193,3 -257,9 -64,6 -45,-71 -45,-71 0,-40 81,-138 81,-138 54,-50 51,-128 51,-128 -9,-67 38,-150 38,-150 72,-92 32,-188 32,-188 -50,-31 -25,-98 -25,-98 14,-42 65,-12 65,-12 56,38 81,-27 81,-27l35 -147c27,-144 -51,-213 -51,-213 -16,-20 -16,-143 -16,-143 -35,-213 -70,-282 -139,-458 -68,-176 -159,-209 -159,-209 -146,-58 -194,52 -194,52 -24,56 -133,35 -133,35 -49,-6 -22,40 -22,40 24,69 -6,130 -6,130 -47,13 -99,82 -99,82l-7 45 -44 22c-30,5 -74,-24 -74,-24 -103,-28 -115,-128 -115,-128 -17,-64 19,-115 19,-115 18,-82 120,-81 120,-81 53,-1 70,-33 70,-33 27,-21 6,-68 6,-68 -3,-24 9,-48 9,-48l49 -130c42,-28 27,-167 27,-167 -24,-28 -38,-128 -38,-128 -1,-94 -83,-215 -83,-215 -30,-38 -15,-84 -15,-84 22,-30 46,22 46,22 24,41 50,21 50,21 28,-10 0,-68 0,-68 -30,-27 -35,-76 -35,-76 1,-51 -29,-76 -29,-76 -50,-30 -78,-85 -78,-85 -14,-45 -77,3 -77,3 -44,24 -122,-28 -122,-28 -48,-46 -206,-44 -206,-44 -34,-27 -76,-30 -76,-30 -8,-2 -39,3 -66,-35 -27,-37 -130,-120 -130,-120 -31,-18 -46,-9 -38,24 15,62 -42,94 -42,94 -51,48 15,103 15,103 79,42 4,99 4,99l-52 31c-77,33 -110,85 -110,85 -52,67 7,147 7,147 36,66 -17,162 -17,162 -28,96 -57,81 -57,81 -27,-5 -12,-49 -12,-49 26,-36 -3,-42 -3,-42 -13,-11 -18,39 -18,39 -39,32 -51,-22 -51,-22 -16,-33 17,-103 17,-103 23,-32 20,-126 20,-126 -11,-44 -44,-1 -44,-1l-41 85 -32 31c-59,43 -99,127 -102,136 -20,58 -114,108 -114,108 -68,26 -151,104 -151,104 -42,80 16,152 16,152 49,69 38,122 38,122 11,92 -76,251 -76,251 -78,98 7,201 7,201l2 129 67 168 71 78c0,0 105,138 104,155l-15 158 -6 342c6,259 -185,450 -185,450l-157 173c0,0 -166,204 -335,32 -21,-10 -84,-131 -84,-131l-180 -339 -8 -58c0,0 -28,-70 10,-122 38,-53 3,-156 0,-171 0,0 -17,-141 -68,-272 0,0 -101,-322 -11,-568l42 -198c0,0 -11,-76 54,-117 0,0 49,-20 48,-98 0,0 -7,-113 21,-146 0,0 225,-439 263,-732 0,0 -14,-26 -44,24 0,0 -73,121 -89,138 0,0 -81,87 -91,150 0,0 -18,46 -18,88 0,0 -24,82 -57,98 0,0 -155,132 -190,167 0,0 -72,55 -81,167 0,0 -13,88 -36,107 0,0 -34,50 -61,3 0,0 -37,-92 16,-137 0,0 78,-66 94,-80 0,0 32,-37 26,-61 0,0 -19,-46 10,-81l100 -148c0,0 36,-40 24,-75l6 5 -2 -45c-2,-30 1,-76 21,-120l1 -2 0 -2c5,-24 47,-231 124,-347 5,-6 107,-154 225,-238 0,0 37,-27 73,-27 20,0 38,8 50,24 5,65 -3,101 -11,112l-3 4 0 6c-1,11 1,26 10,37 4,5 13,11 28,11 2,0 5,0 7,0l1 1 4 0c1,0 2,1 4,1 21,0 52,-25 82,-139l26 -87 0 -3c0,-3 1,-11 6,-17 3,-3 9,-8 20,-8l0 -1c0,1 3,1 6,1 47,0 284,-10 391,-198 3,-3 21,-17 61,-17 21,0 45,4 71,12 101,32 219,71 240,81 22,10 12,10 26,-4 9,-9 26,-21 52,-21 13,0 26,2 39,8l1 0c2,1 12,7 26,7 16,0 30,-8 41,-22 0,0 8,-11 40,-11 28,0 66,9 113,26 8,3 85,26 119,26 1,0 2,0 4,0 63,0 45,-29 71,-43 -7,-24 -1,-31 -23,-31 -28,0 -68,-5 -98,-29l-93 -79 -1 -1 0 0c-34,-23 -94,-73 -101,-114l0 -1c0,-2 -6,-68 -62,-118 -3,-3 -28,-38 -70,-38 -20,0 -41,7 -61,22l-1 1 -83 50c-3,2 -35,17 -72,17 -27,0 -51,-9 -70,-25l0 -1c-29,-22 -74,-79 -36,-130 2,-3 45,-64 -6,-116l-1 -1c-4,-5 -28,-35 -63,-35 -17,0 -33,6 -50,19l-2 2 -2 2c-4,7 -46,65 -92,65 -1,0 -3,0 -4,0l-3 0 -2 0c-14,3 -84,16 -151,57l-1 0c-4,2 -46,19 -81,19 -1,0 -3,0 -5,0 -16,-1 -27,-4 -39,-8 -15,-5 -34,-11 -67,-11 -1,0 -3,0 -5,0 -67,1 -91,10 -107,24 -17,15 -24,60 -26,72 -14,4 -86,26 -122,60 -27,24 -62,76 -26,120 1,4 5,23 -5,36 -4,6 -12,13 -32,13 -11,0 -24,-3 -39,-7l-118 -70c-3,-4 -23,-30 -67,-30 -16,0 -35,4 -55,12l-1 0c-5,2 -48,22 -92,22 -28,0 -51,-8 -67,-23l0 0c-2,-2 -117,-141 -267,-197l0 0c-1,-1 -71,-33 -138,-33 -16,0 -30,2 -43,5 1,-28 -6,-70 -44,-76l-2 0 -1 0c-30,1 -66,15 -68,54l0 1c0,20 11,34 26,36 19,1 46,13 48,23 1,4 -4,8 -8,10 -9,5 -17,13 -27,21 -21,19 -50,44 -107,61 -1,-87 3,-239 24,-283l1 -2 0 -2c3,-13 22,-81 72,-94l2 0 1 -1c5,-2 49,-21 68,-39 6,-7 62,-65 111,-96l1 0c2,-1 37,-29 76,-29l3 0 2 -1c8,-2 25,-9 33,-27 6,-15 4,-34 -9,-56l0 -2c-3,-7 -31,-76 -91,-76 -16,0 -33,5 -50,15l-2 1 -2 2c-9,9 -42,39 -98,48 -5,0 -82,1 -117,55l-2 3 -1 2c-3,14 -26,84 -105,113l0 0 -122 33 -1 1c-6,3 -26,14 -35,38 -8,23 -5,49 10,80 2,24 -7,75 -57,99 -1,0 -122,62 -244,65 -1,0 -91,6 -118,42 -3,3 -63,79 -126,79 -4,0 -7,-1 -12,-1 -1,0 -8,-1 -17,-1 -52,0 -88,12 -104,35l-1 2 0 1c-2,5 -24,55 -28,82 -4,6 -31,55 -28,80 0,1 1,2 1,3 -9,15 -36,56 -87,9 -63,-58 -132,6 -132,6l-22 5 -12 -14 18 -41c3,-3 13,-15 39,-49 57,-70 -26,-89 -26,-89l-13 -24 -20 -43c-37,-27 -101,-3 -101,-3l-69 34 -115 63 -66 3 -50 30 -103 42c0,0 -55,5 -91,19 0,0 -133,49 -167,44l-23 4 0 -8c0,0 3,-19 43,-54 41,-34 37,-100 37,-100 31,-190 224,-226 224,-226 105,-44 159,-148 159,-148 80,-185 154,-226 154,-226l343 -227c0,0 264,-110 379,-155 115,-45 24,-90 24,-90 -117,-56 -264,-64 -264,-64 -68,-17 -260,50 -260,50 -84,31 -197,39 -197,39 -105,22 -294,-2 -294,-2 -41,-21 -48,2 -48,2 -20,25 -69,-5 -69,-5l-120 -79c-168,-78 -175,7 -175,7 -40,59 -61,-6 -61,-6 -18,-57 -56,-52 -56,-52 -32,0 -77,27 -77,27 -70,-10 -26,-60 -26,-60 68,-44 52,-59 52,-59 -37,-154 -107,-150 -107,-150l-21 0 -10 9 1 20 12 25 0 23 -18 3 -60 24c-66,47 -80,-16 -80,-16 -169,-88 -435,-94 -435,-94 -111,-93 -225,-57 -225,-57 -69,25 -126,0 -126,0 -185,-57 -189,-143 -189,-143l-44 0 -11 -23c0,0 -20,-21 -50,-48 -30,-26 -38,6 -38,6l-11 46 -13 8 -12 -11 -95 -116 -988 0c-3555,-220 -6444,-565 -9989,-1347 3,-5 -470,-120 -520,-132 -1037,-206 -3060,-781 -3060,-781 -20,55 36,97 36,97 79,25 21,71 21,71l-65 66c-26,51 36,32 36,32 10,-5 62,-61 62,-61 64,-28 40,44 40,44 -92,61 -72,80 -72,80 59,53 23,65 23,65 -65,3 -59,21 -59,21 57,48 21,76 21,76 -112,74 -84,147 -84,147 30,73 52,7 52,7 45,-74 58,16 58,16 -30,78 -3,120 -3,120 67,87 51,133 51,133 0,91 -43,79 -43,79 -27,-16 -37,-116 -37,-116 -32,-57 -83,-10 -83,-10 -78,65 -65,84 -65,84 16,35 -35,56 -35,56 -92,45 -31,112 -31,112 60,73 -4,95 -4,95 -91,19 -66,37 -66,37 24,45 1,95 1,95l-57 -47c-57,-75 42,-194 42,-194 43,-28 1,-76 1,-76 7,-40 70,-71 70,-71 45,-180 -17,-167 -17,-167 -91,-5 -107,205 -107,205 -64,65 -54,-31 -54,-31 7,-113 58,-171 58,-171 134,-75 109,-164 109,-164 83,-50 -1,-92 -1,-92 -74,35 -11,92 -11,92 7,63 -41,49 -41,49 -40,-6 -48,-129 -48,-129 -23,-75 -37,-4 -37,-4 8,85 -30,73 -30,73 -42,-4 -39,-91 -39,-91 -18,-60 -125,-30 -125,-30 -125,-55 -188,-28 -188,-28 -48,-100 -94,-96 -94,-96 -142,-24 -144,-38 -144,-38 -96,-83 -255,-280 -255,-280 -18,3 -22,224 -22,224 -8,36 -55,44 -55,44 -29,22 -9,72 -9,72 16,8 22,30 22,30 9,61 77,127 77,127 -37,65 -25,225 -25,225 -57,143 -63,192 -63,192 -21,74 -3,105 -2,123 2,18 -10,25 -10,25 -106,80 -105,124 -105,124 3,56 50,53 50,53 43,-1 52,-72 52,-72 16,-22 37,-2 37,-2 52,32 80,86 80,86 2,27 -35,26 -35,26 -159,-7 -139,9 -139,9l96 89c17,8 7,76 7,76 6,23 -52,28 -52,28 -35,16 -60,58 -60,58 -18,24 -2,55 -2,55 -1,55 -49,62 -49,62 -46,0 -33,-45 -33,-45 28,-108 -2,-181 -2,-181 24,-9 39,-51 40,-65 2,-15 -30,-51 -69,-55 -40,-5 -80,34 -79,50 1,17 48,64 48,64 27,63 6,132 6,132 -21,20 -30,104 -30,104 -6,28 17,55 17,55 29,43 86,25 86,25 0,0 29,-11 81,-15 53,-3 68,20 68,20 80,97 352,210 352,210 96,48 75,154 75,154 -39,38 -23,106 -23,106 -36,-8 -26,-155 -26,-155 -18,-72 -318,-163 -318,-163 -248,-75 -196,-130 -254,-135 -95,-7 -82,163 -82,163 38,43 11,133 11,133 3,70 -234,330 -234,330 -36,6 -27,106 -27,106 -119,56 -140,264 -140,264 -11,66 -133,319 -133,319 -97,60 -36,100 -36,100 61,42 -9,90 -9,90 -77,34 -89,73 -89,73 18,79 -6,114 -6,114 -153,19 -181,237 -181,237 -85,3 -81,66 -81,66 3,104 -32,114 -32,114 -108,29 -94,200 -94,200 -54,59 -69,109 -69,109 -69,48 -125,17 -125,17 -63,-42 -124,-14 -124,-14 -78,62 -15,133 -15,133 37,48 108,124 108,124 29,32 -2,206 -2,206 -36,-4 -41,74 -41,74 -15,125 14,222 14,222l1 12c0,0 -28,57 -58,16 0,0 -53,-47 -70,42 0,0 -13,32 52,102 0,0 59,80 6,183 0,0 -24,139 -42,172 0,0 -19,82 -89,96 0,0 -15,-1 -16,19 0,0 -9,188 -25,225 0,0 -257,243 -282,334 0,0 -78,100 66,305 0,0 0,88 31,115 0,0 66,251 18,340 0,0 -12,51 -67,117 0,0 -82,62 -20,150 0,0 56,74 -37,87 0,0 -60,0 -51,82 0,0 14,17 -68,49 0,0 -102,51 -29,85 0,0 49,0 75,21 0,0 16,64 49,0 0,0 30,-52 70,5 0,0 50,45 35,134 0,0 -9,42 58,96 0,0 52,34 83,161 0,0 8,35 46,31 0,0 35,1 46,131 0,0 7,44 43,74 0,0 -60,-36 -96,-28 0,0 -101,-8 -99,132 0,0 5,83 39,120 0,0 31,55 67,9 0,0 22,-97 79,-47 0,0 17,24 18,81 0,0 9,99 99,100 0,0 96,-1 99,-113 0,0 17,-137 116,-100 0,0 144,77 299,34 0,0 96,-32 144,-23 0,0 114,18 28,114 0,0 -93,124 -191,30 0,0 -47,-71 -143,-60 0,0 -58,11 -82,-6 0,0 -65,-31 -104,13 0,0 -34,45 13,73 0,0 30,17 27,63 0,0 -35,112 4,166 0,0 9,162 35,200 0,0 72,96 20,124 0,0 -42,38 -54,-20 0,0 -60,-77 -68,-103l5 -133c0,0 3,-106 -34,-174 0,0 -50,-14 -111,40 0,0 -37,7 -42,19 0,0 -20,212 -31,250 0,0 -6,63 -15,78 0,0 -66,76 -40,98 0,0 42,34 30,114 0,0 -11,135 -41,188 0,0 -38,70 27,76 0,0 117,9 139,152 0,0 15,33 -36,63 0,0 -45,65 18,124 0,0 135,159 161,279 0,0 76,166 82,216 0,0 -11,139 41,145 0,0 103,-6 83,91 0,0 -53,60 32,102 0,0 113,79 107,113 0,0 -13,78 -51,128 0,0 -49,69 59,86 0,0 67,104 -3,183 0,0 -62,87 -8,209 0,0 -118,39 -70,130 0,0 25,172 217,164 0,0 143,57 229,112 0,0 23,23 157,14 0,0 39,-18 131,92 0,0 12,28 66,35 0,0 40,8 60,44 0,0 68,106 164,182 0,0 31,15 19,44 0,0 29,48 67,43 0,0 66,-42 105,0 0,0 144,92 150,106 0,0 88,66 0,142 0,0 -76,26 -35,77 0,0 -40,88 5,109 0,0 64,10 122,-15 0,0 60,-23 122,26 0,0 150,-3 169,42 0,0 19,38 -10,69 0,0 -32,35 -24,77 0,0 -2,57 47,101 0,0 155,188 204,191 0,0 -6,43 36,109 0,0 25,65 -12,105 0,0 -45,75 -128,172 0,0 -59,70 18,101 0,0 51,-4 54,-4 0,0 -34,-27 22,-65 0,0 27,-30 43,3 0,0 43,45 1,90 0,0 -58,50 -54,72 0,0 -1,56 72,49l1633 115c0,0 34,8 62,20 0,0 -167,119 -162,210 0,0 2449,1397 2479,1403l1427 245 493 86 72 -352 1197 176 4 39c19,4 19,35 19,35 -9,37 10,55 10,55 16,9 28,34 28,34 5,29 37,62 37,62 45,68 91,90 91,90 44,11 108,87 108,87 105,91 137,171 137,171 15,72 67,117 70,123 0,0 135,139 141,149 15,28 38,15 38,15 47,-3 59,64 59,64 10,40 82,90 82,90 156,85 161,277 161,277 11,123 72,291 72,291 67,133 50,184 50,184 -1,100 27,121 27,121 33,20 40,79 40,79 38,73 215,221 215,221 29,38 71,19 71,19 22,-18 48,18 48,18l68 57c0,0 43,24 65,26 22,2 53,-13 53,-13 4,45 62,63 62,63 42,3 57,24 57,24l82 84c83,106 161,113 161,113 78,2 108,-89 108,-89l65 -109c53,-59 66,-162 66,-162 13,-164 80,-174 80,-174 78,-17 115,-112 115,-112 44,-90 109,-76 109,-76 56,2 109,56 109,56 42,54 70,6 70,6 31,-30 64,10 64,10 0,22 54,26 54,26 58,-1 100,17 100,17 51,39 71,16 71,16 25,-23 60,14 60,14 43,52 50,34 50,34 22,-44 63,-15 63,-15 42,-1 154,81 154,81 39,43 130,52 130,52 66,-4 81,62 81,62 1,38 91,124 91,124l137 136c34,65 -37,73 -37,73l172 135c70,53 35,106 35,106 -45,37 24,87 24,87 66,75 103,180 103,180 31,100 93,155 93,155 39,25 27,53 27,53 2,48 31,75 31,75 30,43 115,235 115,235 41,102 116,155 116,155 62,24 107,65 107,65 84,44 54,209 54,209 -5,86 62,171 62,171 45,30 18,149 18,149 -29,25 0,49 0,49 41,33 65,96 65,96 21,48 51,63 51,63l69 38c64,39 68,145 68,145 6,150 174,191 174,191 43,-6 73,124 73,124 25,43 53,-6 53,-6 59,-48 93,20 93,20 45,80 128,61 128,61 78,0 338,-18 338,-18 156,-3 174,66 174,66 42,92 111,134 111,134 42,40 119,9 119,9 48,-27 20,-105 20,-105 -39,-73 10,-125 10,-125 79,-48 48,-161 48,-161 -47,-93 -26,-151 -26,-151 15,-58 -29,-181 -29,-181 -29,-141 -26,-241 -26,-241 -18,-156 79,-335 79,-335 0,0 18,-34 -4,-46 -23,-12 -45,26 -45,26 -76,121 -99,329 -99,329 -8,103 36,237 36,237 43,146 36,204 36,204 -2,79 29,153 29,153 29,36 22,81 22,81 -12,49 -49,15 -49,15 3,-37 -38,-81 -38,-81 -33,-33 -60,-92 -60,-92 -19,-26 -7,-162 -7,-162 4,-121 -77,-180 -77,-180 -50,-66 -35,-139 -35,-139 32,-39 -1,-87 -27,-106 -25,-19 -104,-64 -104,-64 -47,-36 -13,-83 -13,-83 24,-39 49,11 49,11 22,46 58,-16 58,-16 13,-19 51,-99 51,-99 22,-38 30,10 30,10l-5 199c3,34 33,33 33,33 30,4 37,-40 37,-40 5,-104 83,-263 83,-263 0,0 31,-66 20,-144 -11,-78 -141,-95 -141,-95l-45 -12 -54 -31 22 5 70 13 48 -19c0,0 39,-23 95,-18 56,6 70,47 70,47l-20 9 -7 18 25 27 28 -6 31 -35 19 -47c44,-24 91,-247 91,-247 5,-37 34,-34 34,-34l39 -3c55,0 61,-44 61,-44 20,-34 30,-104 30,-104 27,-40 66,6 66,6l56 59 101 -62 -120 -175c-38,-114 47,-49 47,-49l94 94 -20 -97c34,-63 65,2 65,2 8,59 66,-26 66,-26 89,-54 48,36 48,36 0,0 -23,42 -31,47 -56,32 -25,77 -25,77l75 -19c28,-69 172,-105 172,-105 60,4 19,51 19,51 -105,83 -178,64 -178,64 -30,-5 -61,3 -92,18 -73,37 -138,112 -138,112 -29,-2 -141,86 -141,86 -151,86 -236,279 -236,279 -55,112 45,62 45,62 31,-19 45,-109 45,-109 71,-113 207,-194 219,-198 12,-5 45,-45 45,-45l49 -60c51,5 79,-16 79,-16l217 -106c194,-91 186,-112 186,-112l76 -78c50,-44 82,-35 82,-35 16,-4 66,14 66,14 48,0 83,-36 83,-36 40,-40 59,-29 59,-29 120,-10 119,-130 119,-130 47,12 103,-67 103,-67 -7,24 14,55 14,55 39,52 86,0 86,0l75 -95c33,-103 -113,-8 -113,-8 -41,25 -33,-18 -33,-18 4,-248 -61,-276 -61,-276 -44,-30 -12,-58 -12,-58 13,-30 94,-38 94,-38 55,-9 106,-63 106,-63 29,-50 55,-16 55,-16 52,41 5,94 5,94 -46,45 -4,103 -4,103 24,62 106,17 106,17 -59,53 -160,82 -160,82 -49,53 25,54 25,54 85,0 227,-92 227,-92 54,-69 131,-113 131,-113 55,-34 199,0 199,0 59,0 90,-47 90,-47 71,19 132,-22 132,-22 73,-52 205,-47 205,-47 92,-27 25,-81 25,-81l-54 -50c-42,-51 0,-121 0,-121 39,-67 74,1 74,1 37,49 18,158 18,158 -14,24 19,36 19,36 42,23 102,45 102,45 0,0 32,6 24,29 -8,22 16,34 16,34l86 40c94,71 200,25 200,25 32,-39 116,-5 116,-5l87 36c109,55 191,-3 191,-3l36 -2 28 13 -6 17c-73,80 77,112 77,112 181,-32 82,-116 82,-116 -38,-46 -128,-24 -128,-24l-20 -13c15,-45 -51,-65 -51,-65 -42,-11 -89,-48 -89,-48 -52,-66 17,-98 17,-98l77 -23c104,-40 173,76 173,76 65,71 62,-51 62,-51 9,-75 78,12 78,12 43,60 -11,142 -11,142 -67,100 80,91 80,91 100,10 90,-110 90,-110 23,-92 73,-42 73,-42 25,54 -3,95 -3,95 -51,102 24,143 24,143 -132,45 -101,115 -101,115 5,71 125,25 125,25 79,-67 147,-48 147,-48 91,8 49,59 49,59 -66,80 29,92 29,92l103 13c0,0 22,-4 53,24 30,28 81,19 139,-34 59,-52 0,-122 0,-122 0,0 -45,-41 -54,-59 -9,-18 -10,-26 10,-36 20,-10 33,9 33,9l32 37c27,45 52,7 52,7 11,-38 47,-17 47,-17 24,21 -14,45 -14,45 -41,17 9,97 9,97 55,75 187,-13 187,-13 65,-47 12,-111 12,-111l-30 -56c-22,-44 -4,-81 -4,-81 30,-46 87,-3 87,-3 42,49 104,81 104,81 69,23 36,53 36,53 -58,57 51,77 51,77 67,24 29,92 29,92 -39,34 -26,53 -26,53 27,68 103,-21 103,-21l13 0c23,57 103,18 103,18l28 12c104,-1 104,-90 104,-90 -6,-48 -93,-17 -93,-17l-12 -7 -105 -45c-70,-24 -46,-76 -46,-76 15,-18 68,17 68,17 53,59 194,52 194,52 20,-9 26,-33 14,-52 -12,-20 -78,-14 -100,-20 -22,-6 -39,-24 -39,-24 -83,-30 -173,-101 -173,-101 -48,-42 -69,-106 -69,-106 0,-57 59,-24 59,-24 40,12 40,-20 40,-20 3,-26 -82,-44 -82,-44 -69,-47 31,-60 31,-60 21,0 64,37 64,37 73,54 56,-46 56,-46 -50,-76 -5,-127 -5,-127 67,-33 21,-92 21,-92 -49,-66 -103,-8 -103,-8 -28,15 -31,140 -31,140 -12,60 -45,21 -45,21 -43,-58 -84,14 -84,14 -42,43 -86,6 -86,6 -74,-44 -33,-105 -33,-105 12,-18 76,-19 76,-19 9,-33 48,-36 48,-36 47,3 100,-39 100,-39 76,-46 -5,-51 -5,-51l-225 4c-84,11 -187,117 -187,117 -55,54 -97,0 -97,0l-68 -76c-47,-53 -117,-7 -117,-7 -36,34 -89,18 -89,18 -56,-29 -45,-108 -45,-108 -2,-64 91,-37 91,-37l110 66c121,1 41,-87 41,-87 -45,-69 40,-67 40,-67l212 1c112,-9 222,102 222,102 41,49 172,34 172,34l24 0c83,-22 171,-104 171,-104 65,-42 157,-8 157,-8 78,39 158,-31 158,-31 18,-6 71,-61 138,-11 67,51 96,20 96,20 0,0 97,35 117,-29l1 -10c0,0 49,33 75,31 26,-2 53,-20 58,-57 4,-37 -9,-63 -15,-66 -7,-2 -3,-99 -3,-99l-13 -27 23 -24c0,0 14,-89 -20,-118 0,0 -31,-52 -31,-121 0,0 -1,-51 28,-84 28,-33 34,-64 35,-77 0,-13 25,76 25,76 0,0 10,75 27,92 0,0 21,49 25,52 4,3 10,34 -5,46 -15,12 -28,62 -21,77 0,0 2,49 39,77l31 42 11 36 0 86c0,0 3,20 18,27 15,6 35,23 35,34 0,0 18,25 -47,40l-112 37c0,0 -56,33 -50,44 6,10 2,17 44,17 0,0 115,-28 137,-34 22,-5 66,-25 123,-24 57,1 126,-42 111,-59 0,0 10,-27 -14,-44 0,0 1,-1 1,-1 21,14 19,34 17,43 4,-2 11,-4 25,-6 39,-8 116,-45 116,-45 36,-19 24,-73 24,-73 -15,-21 -15,-69 -15,-69 16,-52 44,17 44,17 18,32 39,8 39,8 28,-8 37,-100 37,-100 21,-47 60,-8 60,-8 28,33 -9,88 -9,88l-70 75c-44,30 -15,88 -15,88 16,56 119,57 119,57 32,6 193,-34 193,-34 42,-9 65,-36 68,-50 3,-13 -4,-31 -43,-39 -40,-9 -157,19 -165,22 -9,3 -53,13 -59,-13 -6,-25 48,-32 48,-32 0,0 101,-21 158,-17 58,4 56,-51 56,-51 8,-53 141,-65 141,-65 51,0 107,32 107,32 46,11 20,49 17,51 -3,2 -56,19 -72,13 -16,-6 -71,-6 -93,0 -23,6 -20,28 -20,28 -2,32 94,62 94,62 32,9 130,-30 130,-30 0,0 50,-18 93,-27 42,-8 80,45 80,45l91 82c0,0 7,27 47,12 41,-16 11,-77 11,-77 -21,-59 10,-91 10,-91 29,-35 94,-16 94,-16 42,19 17,67 17,67 -16,2 -11,53 -11,53 -3,35 46,34 46,34 24,-29 66,3 66,3 14,9 30,30 6,58 -25,28 -70,-1 -70,-1l-49 -29 -56 -35 -1 31c-8,29 42,65 42,65l134 121c33,13 36,101 36,101 -16,22 -4,85 -4,85 28,57 97,-10 97,-10l79 -21c35,14 43,-29 43,-29 0,0 46,-30 65,-13 19,17 46,-9 46,-9 0,0 26,-39 67,-38 42,1 29,37 29,37 0,0 -18,46 -56,52 -37,6 -35,41 -35,41 1,21 38,27 38,27 52,9 90,-24 90,-24 0,0 26,-29 60,-61 33,-33 -10,-60 -10,-60l-33 -7 7 -11 43 -12c22,4 40,-2 33,-38 -7,-36 34,-28 64,-42 29,-14 62,-8 62,-8 67,42 73,-40 73,-40 0,0 11,-5 -17,-63 -28,-58 68,-53 78,-54 10,-1 26,9 24,-22 -2,-32 51,-30 51,-30 29,-6 70,-1 76,9 6,10 63,27 63,27 5,0 29,-4 61,-11 31,-7 35,29 35,29 0,0 19,85 10,115 -8,31 43,79 74,67 32,-11 46,-4 87,21 40,24 17,5 85,-8 67,-14 36,60 36,60 -53,46 14,114 14,114 10,15 96,87 158,84 61,-2 49,128 49,128 0,0 -20,65 -9,92 11,27 0,15 61,13 60,-2 140,-73 140,-73l46 -13c31,-16 48,71 25,76 -22,6 -9,86 37,108 46,21 71,87 71,87l22 178c32,143 -73,326 -73,326l-46 113c0,0 -9,145 -10,150 -1,4 8,79 69,70 60,-9 58,77 80,102 22,26 52,-11 69,-29 16,-18 -11,-82 -11,-82l-42 -81c0,0 -39,-35 -38,-91 1,-57 67,-20 67,-20 0,0 49,57 39,68 -10,11 11,89 28,110 17,21 61,-12 45,-34 -16,-21 -2,-55 -2,-55 30,-28 51,6 51,6 33,3 32,116 32,116 0,0 -34,102 -43,107 -9,4 -36,66 26,68 61,2 41,49 41,49 0,0 -19,25 -48,5 -29,-20 -42,-11 -46,31 -3,43 -46,23 -46,23 0,0 6,-4 -37,-23 -42,-19 -52,0 -60,7 -8,7 3,54 38,69 35,16 31,73 -2,109 -34,36 2,63 2,63l55 55c0,0 14,15 31,15 17,0 62,81 62,81 10,29 43,30 70,11 27,-19 47,13 56,18 9,4 19,47 19,47 57,58 67,-26 67,-26 0,0 -3,-37 17,-74 20,-37 111,-41 135,-22 23,19 24,53 -37,105 -62,53 -7,74 21,78 28,5 73,62 30,98 -42,36 -111,2 -111,2 0,0 -38,-41 -66,-61 -28,-21 -53,-14 -65,19 -12,32 29,74 29,74 65,50 40,59 40,59 -38,29 7,82 32,104 25,22 21,20 68,9 47,-11 54,-12 100,18 47,30 53,-26 53,-26 0,0 1,-13 9,-60 7,-47 39,-54 78,-63 39,-9 37,70 37,70l15 137c0,0 6,72 39,140 32,68 69,57 69,57 12,0 42,-15 45,33 3,48 42,27 42,27 0,0 25,-32 54,-20 28,12 -9,59 -11,62 -1,3 -58,43 63,47 121,5 182,-49 182,-49 54,-7 55,45 55,45 0,0 5,60 12,101 8,42 -42,60 -42,60 0,0 -85,40 -112,55 -26,15 -29,48 -16,69 14,21 64,-6 64,-6 0,0 27,-13 63,-48 36,-34 55,-10 55,-10 24,4 -24,48 -24,48 0,0 -64,44 -64,49 0,4 -46,30 -6,52 40,22 97,-19 97,-19l48 -41 45 -16c0,0 38,24 46,24 7,0 39,18 16,63 -22,44 -115,38 -115,38 0,0 -77,-3 -124,9 -46,12 -52,72 -52,72 0,0 11,13 51,46 40,33 81,33 81,33 0,0 54,2 95,-39 40,-40 69,-20 69,-20 0,0 43,45 51,47 9,2 59,2 50,-49 -9,-52 38,-72 60,-90 23,-18 85,-20 85,-20 0,0 67,-76 103,-96 36,-20 7,-52 7,-52 0,0 -56,-76 -67,-94 -11,-18 -23,-67 0,-156 22,-90 113,-229 113,-229 19,-51 56,-21 56,-21 27,29 40,-35 40,-35 19,-37 -18,-133 -18,-133 -37,-44 -26,-152 -26,-152 26,-25 26,-125 26,-125 -15,-37 -38,6 -38,6l-33 18c-17,-9 -12,-45 -13,-91 -1,-46 25,-49 25,-49 19,2 31,-32 31,-32 17,-26 -9,-61 -9,-61 -19,-28 -60,-3 -60,-3 -26,27 -47,-8 -47,-8 -29,-19 -30,-95 -38,-108 -8,-12 -20,-151 -20,-151 -7,-70 -87,-136 -87,-136 -33,-45 3,-106 3,-106 14,-13 34,37 34,37l64 112 46 130c9,54 53,98 53,98 31,10 24,-43 24,-43 13,-36 -40,-137 -40,-137l-76 -144c-1,-9 -85,-152 -85,-152 -10,-7 -72,-155 -72,-155 -7,-35 -41,-114 -41,-114 -8,-17 -33,-19 -45,-4 -13,14 11,57 23,66 13,9 33,92 33,92 2,61 63,152 63,152l5 23c0,0 -11,-2 -33,-20 -23,-18 -52,-63 -59,-76 -7,-13 -21,-68 -37,-86 -15,-18 -51,-97 -70,-118 -20,-21 -41,-89 -41,-89l7 -6c0,0 25,15 45,17 19,1 21,-21 30,-42 9,-20 -26,-65 -26,-65 0,0 -15,-41 -30,-91 -14,-50 -44,-43 -54,-47 -9,-3 -9,56 4,69 14,14 27,125 27,125l-12 5 -19 -18 -22 -16c0,0 -33,-23 -48,-48 -15,-24 -36,-90 -45,-125 -9,-35 -70,-117 -70,-117 0,0 -70,-109 -83,-138 -13,-30 -7,-56 21,-62 28,-6 56,38 56,38 0,0 71,54 103,65 33,11 35,-27 35,-27 18,-18 -18,-73 -18,-73l-51 -63c0,0 -74,-121 -82,-133 -8,-11 -28,-29 -51,-11 -22,18 24,61 24,67 0,7 83,111 83,111l38 66 0 36 -26 -18 -18 -14 0 -24 -31 -37 -66 -78 -54 -90c0,0 -19,-10 -35,-42 -15,-33 -51,-27 -51,-27l-33 -21 -37 -42c0,0 -19,-23 4,-49 22,-26 48,1 48,1 0,0 17,5 39,36 22,31 35,13 40,16 39,15 0,-53 0,-53 0,0 -65,-61 -74,-75 -8,-15 -28,-55 -28,-55 0,0 -66,-90 -82,-111 -17,-21 -55,-126 -64,-223 -9,-96 -62,-147 -81,-180 -19,-32 -25,-78 -27,-151 -2,-73 -58,-177 -61,-199 -2,-23 -39,-57 -10,-107 28,-49 -8,-125 -8,-125l-3 -2c16,-16 -65,-90 -65,-90 -56,-71 13,-170 13,-170 96,-58 36,-132 36,-132 -89,-78 7,-99 7,-99 65,-22 13,-94 13,-94 -60,-105 67,-141 67,-141 117,18 86,-94 86,-94 -47,-45 -3,-112 -3,-112l101 -116c81,-92 -13,-173 -13,-173 -45,-51 -188,3 -188,3 -30,2 -30,-38 -30,-38 0,0 -15,-29 -11,-164 1,-33 -7,-63 -19,-89 0,0 0,0 0,0 15,8 49,38 49,38 25,19 28,88 28,88 8,58 79,86 79,86 25,28 120,18 120,18 23,0 22,-40 22,-40l35 41c12,43 56,29 56,29 33,-1 15,-41 15,-41 -24,-43 107,-56 107,-56 51,-22 15,-77 15,-77 -16,-37 -94,-43 -94,-43 -81,0 -117,-26 -117,-26 0,0 -30,-27 17,-58 47,-30 124,8 124,8l64 45c0,0 -39,-60 -1,-86 38,-26 56,5 56,5l27 36c62,56 210,-117 210,-117l222 -220c39,-37 23,-130 23,-130 -28,-67 16,-97 16,-97 53,-26 85,32 85,32 40,45 49,-9 49,-9 -5,-68 74,-135 74,-135 78,-38 64,-100 64,-100 -43,-4 -15,-70 -15,-70 38,-22 37,-93 44,-105 7,-13 62,-33 62,-71 0,-38 120,-153 120,-153l142 -140c0,0 33,27 86,0 52,-26 30,-53 32,-73 0,0 6,-66 75,-52l100 41c0,0 45,22 66,-1 0,0 11,-38 -23,-59 0,0 -67,-91 -71,-143 0,0 -58,-171 -101,-190 0,0 35,-10 57,28 0,0 19,76 44,109 0,0 50,102 124,159 0,0 110,97 110,106 0,0 38,32 34,-9 -2,-9 -2,-45 -32,-74 0,0 -45,-74 -37,-120 0,0 -2,-66 64,-110 0,0 62,-40 59,-68 0,0 1,-40 -17,-45 0,0 -34,-35 33,-51l58 -79c0,0 51,-63 79,-65 0,0 -50,6 -96,31 0,0 -33,29 -58,1 0,0 -36,-36 38,-102 0,0 86,-118 185,-110 0,0 138,4 182,-42 0,0 80,-81 151,-63 0,0 96,27 145,-22 0,0 135,-105 126,-189 0,0 9,-95 -73,-90 0,0 -53,-11 -116,87 0,0 -69,77 -141,85 0,0 -107,11 -150,-21l-89 -80c0,0 -18,-45 23,-34 0,0 93,52 117,77 0,0 30,29 68,26 0,0 44,7 95,-50l90 -79c0,0 43,-41 14,-74 0,0 -30,-24 -64,13 0,0 -52,61 -128,48 0,0 -77,3 -111,-34 0,0 -42,-38 -66,-12 0,0 -31,41 -54,-9 0,0 -24,-50 16,-81 0,0 70,-87 139,-34l59 51c0,0 48,32 61,-15 0,0 7,-51 -46,-62 0,0 -44,-48 -12,-80 0,0 35,-21 57,8 0,0 31,43 35,69 0,0 47,64 96,78 0,0 77,29 86,-15 0,0 10,-25 -2,-39 0,0 -9,-33 41,-30 0,0 70,-1 101,-54 0,0 52,-57 16,-99 0,0 -30,-27 -88,-4 0,0 -93,28 -118,7 0,0 -59,-10 -30,-45l54 -32c0,0 67,-8 106,9 0,0 99,20 144,-5 0,0 64,-57 51,-147 0,0 0,-113 -44,-162 0,0 -46,-71 -76,-52 0,0 -73,16 -42,107 0,0 36,73 36,120 0,0 6,71 -54,63 0,0 -43,-4 -57,-44 0,0 -20,-44 14,-67 0,0 37,-19 15,-74 0,0 -8,-78 -35,-78 0,0 -32,-8 -59,51 0,0 -37,77 -87,45 0,0 -25,-35 -89,0 0,0 -68,8 -94,39l-62 59c0,0 -52,67 -64,-5 -1,-4 -17,-55 9,-103 0,0 49,-59 119,-48 0,0 78,11 92,-19 0,0 52,-39 13,-80 0,0 -63,-10 -16,-62 0,0 34,-41 74,-8l81 56c0,0 52,48 118,-3 0,0 53,-60 14,-126 0,0 -19,-42 -75,-66 0,0 -33,-8 -26,-30 0,0 28,-122 77,-61 0,0 51,118 111,171l85 134c0,0 21,66 45,106 25,40 52,85 73,106 20,21 32,25 32,25 0,0 -20,-86 -53,-134 0,0 -65,-149 -67,-153 0,0 -76,-152 -107,-196 0,0 -25,-57 -79,-132l-15 -21c0,0 33,-6 24,-51 -9,-45 5,-132 -18,-148 -24,-15 -50,-51 -50,-51 0,0 15,70 -26,76 -42,6 -75,-23 -75,-23 0,0 -43,-35 -89,-2 -46,34 -63,42 -63,42 0,0 -69,26 -135,-19 -66,-45 -122,-114 -194,-153 -71,-40 -90,-61 -198,-59 -107,2 -216,-5 -216,-5 0,0 70,-79 177,-74 107,4 121,-8 202,21 82,29 142,47 188,102 45,55 68,68 87,77 19,9 31,25 76,20 0,0 28,-1 -2,-62 -30,-62 -30,-86 -90,-130 -59,-45 -83,-61 -83,-61 0,0 116,-22 33,-83 0,0 -43,-42 -168,-51 0,0 -75,-10 -96,-33 0,0 -71,-41 -9,-78l57 -3c0,0 54,-24 112,-1l73 16c0,0 60,12 35,-34 0,0 -3,-41 -109,-35 0,0 56,-44 46,-83 0,0 -4,-94 -52,-155l0 0c0,0 22,1 68,-47 0,0 28,-10 26,13 -2,24 -6,63 36,77 0,0 40,40 51,-5 0,0 9,-32 -27,-59 0,0 -61,-42 -58,-66 3,-25 19,-72 -20,-63 0,0 -36,13 -61,-6l-117 -89c0,0 -41,-31 -12,-49 28,-17 62,11 62,11l69 64c0,0 23,33 48,21 0,0 31,-21 4,-51l-93 -91c0,0 -43,-64 -39,-116 5,-53 -9,-58 -9,-58l-15 -24c0,0 -9,-49 10,-52 19,-4 25,-50 -14,-50 -38,0 -34,-52 -4,-59 30,-7 23,-2 23,-2 0,0 47,-1 11,-42 -35,-40 5,-26 17,-26 13,0 66,-13 9,-42l-58 -7c0,0 -37,-19 -5,-49l42 -7 -102 -77c0,0 -32,-47 17,-41 0,0 74,56 58,-15 0,0 0,-78 31,-70l14 -19 27 -6c0,0 29,13 36,-11 0,0 -10,-45 49,-69 0,0 50,-25 21,-51 0,0 -23,-78 32,-99 0,0 50,-40 55,0l-10 37c0,0 90,-55 62,18l-48 29c0,0 -25,24 2,41 27,16 4,41 -17,39 -21,-2 -38,1 -74,32 -35,32 -49,110 -49,110 0,0 -18,75 8,110 26,34 56,27 81,-3l0 103c0,0 -49,58 -7,99 41,41 47,67 47,67 0,0 1,44 -45,20 0,0 -44,-59 -80,3 -37,61 34,72 34,72 0,0 57,-9 68,24 0,0 45,-6 54,-40 0,0 -22,63 19,75 0,0 59,22 42,49 0,0 -26,26 -75,-9 0,0 -43,-29 -70,1 0,0 -17,48 20,59 0,0 32,11 -4,53 -36,41 -8,74 11,87 0,0 160,89 172,118l13 -89c0,0 46,-18 50,29 0,0 32,-67 55,4 0,0 54,20 9,56 0,0 -45,39 -1,47 0,0 112,-45 68,24 0,0 -52,34 -13,50 0,0 76,-13 33,37 0,0 -71,23 -46,68 0,0 24,64 69,21 0,0 105,-88 189,-104 0,0 114,-25 120,-106l23 -113c0,0 32,-64 46,9l-13 85c0,0 -10,62 13,65 0,0 50,7 55,-127 0,0 9,-171 -15,-188 0,0 -10,-41 17,-51 0,0 18,-25 0,-56 0,0 33,-99 -33,-96 0,0 -75,28 -84,24 0,0 -32,8 -43,-18 -11,-26 7,-32 7,-32 0,0 94,-6 75,-40 0,0 -8,-26 -30,-26 0,0 -23,-31 5,-39 0,0 65,14 48,-29 0,0 -7,-68 -47,-41 0,0 -35,21 -66,-20l-85 -52c0,0 -12,-107 -80,-123 0,0 -34,-10 -34,-64 0,0 8,-112 -63,-147l-111 -102c0,0 -37,-23 -18,-55 0,0 23,-71 -33,-70l-46 -4c0,0 60,-9 40,-45l-19 -26 16 22c0,0 66,9 72,14 7,5 69,67 76,68 7,2 28,-25 48,-36 21,-12 67,1 67,1 0,0 41,-1 35,41 0,0 -26,61 -22,81 0,0 3,49 36,50 0,0 43,22 50,-114 0,0 5,-56 32,-84 0,0 43,-64 0,-100 0,0 64,1 61,-41 0,0 11,-62 43,-55l12 -41 -8 -38 24 -15 23 4c0,0 9,-25 -6,-34 -16,-8 -14,-25 -14,-25 0,0 19,-7 23,-14 3,-7 24,-79 24,-79l0 -65c0,0 11,-14 20,-9 10,4 23,-2 23,-13l-15 -170 -13 -61 -5 -157c0,0 -18,-70 -75,-49 -56,21 -73,36 -73,36 0,0 -46,19 -60,-11l-31 -4c0,0 43,-38 39,-92 0,0 4,-27 19,-42 0,0 12,-8 19,-31 0,0 13,-53 36,-92l30 -76 21 -31 13 -15c7,13 8,23 8,23 -4,42 37,90 37,90 24,13 -50,92 -50,92 -37,42 0,83 0,83 33,49 58,-14 58,-14 0,0 14,-42 41,-38 28,5 13,44 7,55 -6,10 9,12 9,12l77 -40c8,-32 93,-64 93,-64 68,-24 147,-87 147,-87l32 -24 95 -61c67,-24 158,-97 158,-97 65,-8 19,44 19,44 -5,20 -112,73 -112,73 -96,35 -139,80 -139,80 -44,57 23,35 23,35l67 -22c94,-36 241,-167 241,-167 57,-38 144,-136 144,-136 42,-49 136,-92 136,-92l111 -102c27,-84 -53,-18 -53,-18l-83 55c-16,2 -54,-4 -54,-4 -2,56 -49,49 -49,49 -53,-15 -62,47 -62,47l-39 73c-15,45 -60,4 -60,4 -34,-20 26,-69 26,-69 27,-1 34,-33 34,-33l34 -48c-19,-23 33,-60 33,-60 47,-41 0,-47 0,-47 -48,-14 -103,90 -103,90 -18,62 -123,111 -123,111 -93,58 -202,78 -202,78 -79,-8 -64,39 -64,39 -13,50 -95,37 -95,37 -94,-29 -90,66 -90,66 -91,-56 -87,75 -87,75 -31,-10 -41,32 -41,32l-23 9c-34,0 -46,-40 -46,-40 -24,-36 61,-119 61,-119 19,-20 22,-39 19,-53 2,11 0,18 0,18l28 0c83,-1 102,-55 102,-55 6,-38 35,-46 35,-46 45,10 65,-27 65,-27 26,-44 45,-30 45,-30 50,18 49,-14 49,-14 0,-17 25,-46 25,-46 39,-15 40,-81 40,-81 13,-29 31,-7 31,-7 19,19 56,-4 56,-4 6,-18 72,-15 72,-15 10,-13 69,-18 69,-18 54,9 88,-31 88,-31 53,15 59,-51 59,-51 29,37 72,1 72,1 12,-30 46,-32 46,-32 14,7 47,-13 47,-13 43,3 57,-19 57,-19l44 -30 55 -25c0,0 156,-75 168,-108 0,0 8,-17 19,-12 11,5 21,20 21,20 0,0 21,-116 -5,-128 0,0 -22,-17 -18,-36 5,-20 -7,-78 21,-80 27,-2 41,12 48,43 7,32 3,76 18,94 16,19 11,31 51,17 0,0 16,-20 0,-32 0,0 -21,-32 15,-41 0,0 18,-2 24,11 0,0 16,21 29,-5l11 -30 19 16c33,30 57,-8 57,-8 25,-15 20,-41 20,-41 -23,-48 32,-50 32,-50 32,-3 32,-59 32,-59 0,-55 51,-82 51,-82 50,-1 27,83 27,83 -14,50 56,51 56,51 44,13 114,-75 114,-75l40 -36c15,-14 134,-74 134,-74 40,-16 45,24 45,24 0,42 34,47 34,47 32,7 26,-33 26,-33l-7 -41c0,0 -27,-66 -33,-90 -5,-23 -30,-87 -30,-87 1,-47 -61,-93 -61,-93 -37,-60 -99,-70 -99,-70 -43,-12 -71,24 -71,24 -13,50 31,48 31,48 19,9 50,-14 50,-14 35,4 36,53 36,53 -1,7 -2,19 19,23 20,5 38,52 38,52l3 62c5,26 -19,28 -19,28 -13,-3 -47,16 -47,16 -50,45 -89,53 -89,53 -54,8 -120,-30 -120,-30 -15,-3 -45,-96 -45,-96 -8,-34 -46,-14 -46,-14 -34,12 -48,-18 -48,-18 -27,-39 27,-43 27,-43 19,-5 0,-32 0,-32l-45 -46 -37 -23c-9,-31 -58,-56 -58,-56l-88 -22c0,0 -6,-6 -8,21 -1,28 -33,35 -33,35 -27,-1 -56,-50 -56,-50 -27,-21 -4,-43 -4,-43 19,-4 13,-34 13,-34 -15,-32 19,-56 19,-56 50,-8 42,-55 42,-55 -29,-19 -7,-39 -7,-39l46 -24c82,-55 -23,-77 -23,-77 -35,-7 -74,-84 -74,-84 0,0 -14,-27 -43,-46 0,0 0,0 1,0 0,0 33,-21 34,-33 1,-11 25,-34 25,-34 0,0 82,-104 100,-132 18,-28 20,-102 2,-131 -18,-29 32,-33 32,-33 0,0 71,-37 94,-56 22,-19 15,-87 15,-87 0,0 -19,9 -36,23 -16,13 -24,26 -53,-10 -29,-36 23,-55 23,-55 0,0 18,-7 87,-43 68,-36 21,-91 21,-91l-56 -65c-40,-35 -7,-75 -7,-75l61 -40c68,-28 86,24 86,24 6,3 45,86 47,94 15,52 74,3 74,3 42,-20 -4,-72 -4,-72l-44 -64c-14,-29 45,-114 45,-114 59,-44 39,-101 39,-101 -5,-44 45,-53 45,-53 53,4 49,61 49,61 2,47 52,34 52,34 57,-6 18,-81 18,-81 -26,-36 11,-107 11,-107 21,-42 -9,-189 -9,-189 -23,-86 -14,-191 -14,-191 14,-47 59,-5 59,-5 50,42 42,119 42,119 1,58 35,57 35,57 46,4 50,-55 50,-55 2,-48 34,-84 34,-84 46,-37 89,19 89,19 23,24 90,69 90,69 54,8 37,-51 37,-51l-37 -49c-3,-2 -28,-17 0,-53 29,-36 55,23 55,23l59 44c105,47 40,-39 40,-39 -30,-41 4,-63 4,-63 42,-1 53,35 53,35 39,28 58,-17 64,-29 5,-12 40,-10 40,-10 0,0 -89,-40 -94,-43 -25,-13 -25,-18 -19,-48 9,-46 68,8 88,14 64,18 90,-67 90,-67l8 -60c90,5 168,-84 168,-84 0,0 44,-82 59,-94 15,-12 -5,-23 -5,-23z"/>
  <circle class="fil1" cx="18606" cy="21484" r="191"/>
  <circle class="fil1" cx="6907" cy="19548" r="191"/>
  <circle class="fil1" cx="18912" cy="23929" r="191"/>
  <circle class="fil1" cx="13697" cy="17542" r="191"/>
  <circle class="fil1" cx="23601" cy="21553" r="191"/>
  <circle class="fil1" cx="32560" cy="16653" r="191"/>
  <circle class="fil1" cx="32941" cy="15759" r="191"/>
  <circle class="fil1" cx="34332" cy="14394" r="191"/>
  <circle class="fil1" cx="34332" cy="13944" r="191"/>
  <circle class="fil1" cx="33846" cy="14293" r="191"/>
 </g>
</svg>
