<?xml version="1.0" encoding="UTF-8"?>
<!DOCTYPE svg PUBLIC "-//W3C//DTD SVG 1.1//EN" "http://www.w3.org/Graphics/SVG/1.1/DTD/svg11.dtd">
<!-- Creator: CorelDRAW 2020 (64-Bit) -->
<svg xmlns="http://www.w3.org/2000/svg" xml:space="preserve" width="43.3492mm" height="43.3492mm" version="1.1" style="shape-rendering:geometricPrecision; text-rendering:geometricPrecision; image-rendering:optimizeQuality; fill-rule:evenodd; clip-rule:evenodd"
viewBox="0 0 4334.92 4334.92"
 xmlns:xlink="http://www.w3.org/1999/xlink"
 xmlns:xodm="http://www.corel.com/coreldraw/odm/2003">
 <defs>
  <style type="text/css">
   <![CDATA[
    .fil1 {fill:none}
    .fil0 {fill:#DBDADA;fill-rule:nonzero}
   ]]>
  </style>
 </defs>
 <g id="Warstwa_x0020_1">
  <metadata id="CorelCorpID_0Corel-Layer"/>
  <g id="_2855152141200">
   <g>
    <path class="fil0" d="M3860.8 3903.08l-3386.67 0 0 -84.68 3386.67 0 42.34 42.34 -42.34 42.34zm42.34 -42.34l0 42.34 -42.34 0 42.34 -42.34zm0 -3386.54l0 3386.54 -84.68 0 0 -3386.54 42.34 -42.34 42.34 42.34zm-42.34 -42.34l42.34 0 0 42.34 -42.34 -42.34zm-3386.67 0l3386.67 0 0 84.68 -3386.67 0 -42.34 -42.34 42.34 -42.34zm-42.34 42.34l0 -42.34 42.34 0 -42.34 42.34zm0 3386.54l0 -3386.54 84.68 0 0 3386.54 -42.34 42.34 -42.34 -42.34zm42.34 42.34l-42.34 0 0 -42.34 42.34 42.34z"/>
   </g>
   <g>
    <path class="fil0" d="M2357.34 2548.45l-1544.47 0 0 -84.68 1544.47 0 42.34 42.34 -42.34 42.34zm42.34 -42.34l0 42.34 -42.34 0 42.34 -42.34zm0 -1015.95l0 1015.95 -84.68 0 0 -1015.95 42.34 -42.34 42.34 42.34zm-42.34 -42.34l42.34 0 0 42.34 -42.34 -42.34zm-1544.47 0l1544.47 0 0 84.68 -1544.47 0 -42.34 -42.34 42.34 -42.34zm-42.34 42.34l0 -42.34 42.34 0 -42.34 42.34zm0 1015.95l0 -1015.95 84.68 0 0 1015.95 -42.34 42.34 -42.34 -42.34zm42.34 42.34l-42.34 0 0 -42.34 42.34 42.34z"/>
   </g>
   <g>
    <path class="fil0" d="M2696.01 1109.17l0 84.68 -42.34 0 0 -84.68 42.34 0zm826.1 84.68l-826.1 0 0 -84.68 826.1 0 0 84.68zm0 0l0 -84.68 42.34 0 0 84.68 -42.34 0z"/>
   </g>
   <g>
    <path class="fil0" d="M2696.01 1447.82l0 84.68 -42.34 0 0 -84.68 42.34 0zm826.1 84.68l-826.1 0 0 -84.68 826.1 0 0 84.68zm0 0l0 -84.68 42.34 0 0 84.68 -42.34 0z"/>
   </g>
   <g>
    <path class="fil0" d="M2696.01 1786.46l0 84.68 -42.34 0 0 -84.68 42.34 0zm826.1 84.68l-826.1 0 0 -84.68 826.1 0 0 84.68zm0 0l0 -84.68 42.34 0 0 84.68 -42.34 0z"/>
   </g>
   <g>
    <path class="fil0" d="M2696.01 2125.13l0 84.68 -42.34 0 0 -84.68 42.34 0zm826.1 84.68l-826.1 0 0 -84.68 826.1 0 0 84.68zm0 0l0 -84.68 42.34 0 0 84.68 -42.34 0z"/>
   </g>
   <g>
    <path class="fil0" d="M2696.01 2463.77l0 84.68 -42.34 0 0 -84.68 42.34 0zm826.1 84.68l-826.1 0 0 -84.68 826.1 0 0 84.68zm0 0l0 -84.68 42.34 0 0 84.68 -42.34 0z"/>
   </g>
   <g>
    <path class="fil0" d="M812.87 2802.44l0 84.68 -42.34 0 0 -84.68 42.34 0zm1544.47 84.68l-1544.47 0 0 -84.68 1544.47 0 0 84.68zm0 0l0 -84.68 42.34 0 0 84.68 -42.34 0z"/>
   </g>
   <g>
    <path class="fil0" d="M812.87 3141.09l0 84.68 -42.34 0 0 -84.68 42.34 0zm1544.47 84.68l-1544.47 0 0 -84.68 1544.47 0 0 84.68zm0 0l0 -84.68 42.34 0 0 84.68 -42.34 0z"/>
   </g>
   <g>
    <path class="fil0" d="M812.87 3479.73l0 84.68 -42.34 0 0 -84.68 42.34 0zm1544.47 84.68l-1544.47 0 0 -84.68 1544.47 0 0 84.68zm0 0l0 -84.68 42.34 0 0 84.68 -42.34 0z"/>
   </g>
   <g>
    <path class="fil0" d="M3860.8 1193.85l-3386.67 0 0 -84.68 3386.67 0 42.34 42.34 -42.34 42.34zm42.34 -42.34l0 42.34 -42.34 0 42.34 -42.34zm0 -677.34l0 677.34 -84.68 0 0 -677.34 42.34 -42.34 42.34 42.34zm-42.34 -42.34l42.34 0 0 42.34 -42.34 -42.34zm-3386.67 0l3386.67 0 0 84.68 -3386.67 0 -42.34 -42.34 42.34 -42.34zm-42.34 42.34l0 -42.34 42.34 0 -42.34 42.34zm0 677.34l0 -677.34 84.68 0 0 677.34 -42.34 42.34 -42.34 -42.34zm42.34 42.34l-42.34 0 0 -42.34 42.34 42.34z"/>
   </g>
   <g>
    <path class="fil0" d="M3522.13 3564.41l-826.12 0 0 -84.68 826.12 0 42.34 42.34 -42.34 42.34zm42.34 -42.34l0 42.34 -42.34 0 42.34 -42.34zm0 -677.29l0 677.29 -84.68 0 0 -677.29 42.34 -42.34 42.34 42.34zm-42.34 -42.34l42.34 0 0 42.34 -42.34 -42.34zm-826.12 0l826.12 0 0 84.68 -826.12 0 -42.34 -42.34 42.34 -42.34zm-42.34 42.34l0 -42.34 42.34 0 -42.34 42.34zm0 677.29l0 -677.29 84.68 0 0 677.29 -42.34 42.34 -42.34 -42.34zm42.34 42.34l-42.34 0 0 -42.34 42.34 42.34z"/>
   </g>
   <g>
    <polygon class="fil0" points="897.5,855.18 728.17,855.18 728.17,770.5 897.5,770.5 "/>
   </g>
   <g>
    <polygon class="fil0" points="1236.17,855.18 1066.82,855.18 1066.82,770.5 1236.17,770.5 "/>
   </g>
   <g>
    <polygon class="fil0" points="1574.91,855.18 1405.56,855.18 1405.56,770.5 1574.91,770.5 "/>
   </g>
  </g>
  <rect class="fil1" x="0.01" y="-0.01" width="4334.93" height="4334.93"/>
 </g>
</svg>
