<?xml version="1.0" encoding="UTF-8"?>
<!DOCTYPE svg PUBLIC "-//W3C//DTD SVG 1.1//EN" "http://www.w3.org/Graphics/SVG/1.1/DTD/svg11.dtd">
<!-- Creator: CorelDRAW 2020 (64-Bit) -->
<svg xmlns="http://www.w3.org/2000/svg" xml:space="preserve" width="43.3492mm" height="43.3492mm" version="1.1" style="shape-rendering:geometricPrecision; text-rendering:geometricPrecision; image-rendering:optimizeQuality; fill-rule:evenodd; clip-rule:evenodd"
viewBox="0 0 4334.92 4334.92"
 xmlns:xlink="http://www.w3.org/1999/xlink"
 xmlns:xodm="http://www.corel.com/coreldraw/odm/2003">
 <defs>
  <style type="text/css">
   <![CDATA[
    .str0 {stroke:#DBDADA;stroke-width:84.67;stroke-linecap:round;stroke-linejoin:round;stroke-miterlimit:22.9256}
    .str4 {stroke:#DBDADA;stroke-width:84.67;stroke-linecap:round;stroke-linejoin:round;stroke-miterlimit:22.9256}
    .str2 {stroke:#DBDADA;stroke-width:84.67;stroke-linecap:round;stroke-linejoin:round;stroke-miterlimit:22.9256}
    .str1 {stroke:#DBDADA;stroke-width:84.67;stroke-linecap:round;stroke-linejoin:round;stroke-miterlimit:22.9256}
    .str3 {stroke:#DBDADA;stroke-width:93.3;stroke-linecap:round;stroke-linejoin:round;stroke-miterlimit:22.9256}
    .fil0 {fill:none}
    .fil1 {fill:#DBDADA;fill-rule:nonzero}
   ]]>
  </style>
 </defs>
 <g id="Warstwa_x0020_1">
  <metadata id="CorelCorpID_0Corel-Layer"/>
  <rect class="fil0" x="-0.01" y="-0.02" width="4334.93" height="4334.93"/>
  <g id="_2965368653216">
   <g>
    <path class="fil1" d="M3510.48 3374.48l-2902.31 0 0 -84.68 2902.31 0 39.37 42.34 -39.37 42.34zm0 -84.68c21.74,0 39.37,18.96 39.37,42.34 0,23.38 -17.63,42.34 -39.37,42.34l0 -84.68zm-39.37 160.03l0 -117.69 78.74 0 0 117.69 0 0 -78.74 0zm-78.31 160.02l0 -84.68 0 0 4.17 -0.1 4.09 -0.31 4.03 -0.52 3.94 -0.71 3.89 -0.9 3.79 -1.08 3.71 -1.27 3.61 -1.42 3.5 -1.6 3.45 -1.77 3.31 -1.91 3.22 -2.07 3.09 -2.2 2.97 -2.34 2.81 -2.43 2.72 -2.6 2.58 -2.7 2.4 -2.77 2.27 -2.89 2.12 -2.98 1.98 -3.07 1.8 -3.12 1.66 -3.24 1.48 -3.24 1.3 -3.3 1.16 -3.38 0.98 -3.43 0.81 -3.5 0.64 -3.53 0.45 -3.6 0.29 -3.64 0.09 -3.72 78.74 0 -0.21 8.34 -0.63 8.28 -1.05 8.14 -1.44 8.03 -1.83 7.86 -2.2 7.73 -2.56 7.54 -2.92 7.38 -3.26 7.16 -3.56 6.92 -3.88 6.72 -4.16 6.49 -4.46 6.26 -4.73 6.01 -5 5.77 -5.24 5.48 -5.46 5.22 -5.73 4.97 -5.93 4.66 -6.15 4.38 -6.34 4.07 -6.53 3.77 -6.71 3.45 -6.9 3.14 -7.07 2.8 -7.21 2.45 -7.37 2.1 -7.47 1.74 -7.62 1.37 -7.71 0.98 -7.83 0.61 -7.89 0.2 0 0zm-2666.94 -84.68l2666.94 0 0 84.68 -2666.94 0 0 0 0 -84.68zm-157.06 -75.34l78.74 0 0 0 0.09 3.72 0.29 3.64 0.45 3.6 0.64 3.53 0.81 3.5 0.98 3.43 1.14 3.34 1.33 3.34 1.48 3.27 1.65 3.21 1.8 3.12 1.98 3.07 2.12 2.98 2.25 2.87 2.43 2.79 2.59 2.72 2.68 2.56 2.82 2.44 2.99 2.35 3.1 2.21 3.2 2.06 3.32 1.91 3.44 1.77 3.5 1.59 3.62 1.43 3.71 1.27 3.79 1.08 3.89 0.9 3.94 0.71 4.03 0.52 4.09 0.31 4.17 0.1 0 84.68 -7.89 -0.2 -7.83 -0.61 -7.71 -0.98 -7.62 -1.37 -7.47 -1.74 -7.37 -2.1 -7.21 -2.45 -7.06 -2.79 -6.92 -3.15 -6.7 -3.45 -6.54 -3.77 -6.34 -4.08 -6.14 -4.37 -5.91 -4.65 -5.74 -4.96 -5.5 -5.26 -5.21 -5.46 -4.99 -5.75 -4.75 -6.03 -4.46 -6.26 -4.16 -6.49 -3.88 -6.72 -3.57 -6.95 -3.24 -7.13 -2.91 -7.34 -2.58 -7.58 -2.2 -7.73 -1.83 -7.86 -1.44 -8.03 -1.05 -8.14 -0.63 -8.28 -0.21 -8.34 0 0zm78.74 -117.69l0 117.69 -78.74 0 0 -117.69 39.37 -42.34 39.37 42.34zm-78.74 0c0,-23.38 17.63,-42.34 39.37,-42.34 21.74,0 39.37,18.96 39.37,42.34l-78.74 0z"/>
   </g>
   <g>
    <path class="fil1" d="M2570.36 3374.48l-1022.06 0 0 -84.68 1022.06 0 39.37 42.34 -39.37 42.34zm0 -84.68c21.74,0 39.37,18.96 39.37,42.34 0,23.38 -17.63,42.34 -39.37,42.34l0 -84.68zm-39.37 99.08l0 -56.74 78.74 0 0 56.74 0 0 -78.74 0zm-17.36 99.07l0 -84.68 0 0 1.07 -0.02 0.94 -0.07 0.99 -0.13 1.05 -0.19 0.89 -0.2 0.85 -0.25 0.91 -0.31 0.91 -0.36 0.83 -0.37 0.73 -0.38 0.79 -0.46 0.72 -0.46 0.72 -0.52 0.69 -0.53 0.56 -0.5 0.61 -0.57 0.56 -0.59 0.46 -0.52 0.47 -0.61 0.44 -0.61 0.36 -0.57 0.35 -0.6 0.26 -0.51 0.25 -0.57 0.26 -0.63 0.2 -0.58 0.13 -0.47 0.12 -0.5 0.11 -0.65 0.08 -0.56 0.04 -0.47 0.01 -0.63 78.74 0 -0.13 5.19 -0.4 5.27 -0.66 5.1 -0.89 4.93 -1.14 4.98 -1.41 4.89 -1.6 4.7 -1.78 4.51 -2.01 4.45 -2.26 4.39 -2.39 4.14 -2.6 4.05 -2.74 3.83 -2.89 3.69 -3.12 3.6 -3.2 3.35 -3.33 3.19 -3.56 3.08 -3.61 2.83 -3.72 2.66 -3.9 2.5 -3.95 2.28 -4.17 2.14 -4.19 1.89 -4.23 1.68 -4.37 1.49 -4.51 1.29 -4.59 1.06 -4.53 0.81 -4.67 0.61 -4.8 0.37 -4.75 0.12 0 0zm-908.6 -84.68l908.6 0 0 84.68 -908.6 0 0 0 0 -84.68zm-96.1 -14.39l78.74 0 0 0 0.01 0.63 0.04 0.47 0.08 0.56 0.11 0.65 0.12 0.5 0.13 0.47 0.2 0.58 0.26 0.63 0.25 0.57 0.26 0.51 0.35 0.6 0.36 0.57 0.44 0.61 0.47 0.61 0.46 0.52 0.56 0.59 0.61 0.57 0.56 0.5 0.69 0.53 0.72 0.52 0.72 0.46 0.79 0.46 0.73 0.38 0.83 0.37 0.91 0.36 0.91 0.31 0.85 0.25 0.89 0.2 1.05 0.19 0.99 0.13 0.94 0.07 1.07 0.02 0 84.68 -4.75 -0.12 -4.8 -0.37 -4.67 -0.61 -4.53 -0.81 -4.59 -1.06 -4.51 -1.29 -4.37 -1.49 -4.23 -1.68 -4.19 -1.89 -4.17 -2.14 -3.95 -2.28 -3.9 -2.5 -3.72 -2.66 -3.61 -2.83 -3.56 -3.08 -3.33 -3.19 -3.2 -3.35 -3.12 -3.6 -2.89 -3.69 -2.74 -3.83 -2.6 -4.05 -2.39 -4.14 -2.26 -4.39 -2.01 -4.45 -1.78 -4.51 -1.6 -4.7 -1.41 -4.89 -1.14 -4.98 -0.89 -4.93 -0.66 -5.1 -0.4 -5.27 -0.13 -5.19 0 0zm78.74 -56.74l0 56.74 -78.74 0 0 -56.74 39.37 -42.34 39.37 42.34zm-78.74 0c0,-23.38 17.63,-42.34 39.37,-42.34 21.74,0 39.37,18.96 39.37,42.34l-78.74 0z"/>
   </g>
   <path class="fil0 str0" d="M3436.71 1664.56c469.12,55.08 576.91,877.48 -74.72,882.07"/>
   <g>
    <path class="fil1" d="M3169.89 2442.72c-0.04,-23.37 17.55,-42.38 39.29,-42.42 21.74,-0.04 39.41,18.87 39.45,42.24l-78.74 0.18zm1.39 727.47l-1.39 -727.47 78.74 -0.18 1.39 727.47 -39.37 42.43 -39.37 -42.25zm78.74 -0.18c0.04,23.37 -17.55,42.38 -39.29,42.42 -21.74,0.04 -39.41,-18.87 -39.45,-42.24l78.74 -0.18zm-2342.02 -42.25l2302.65 0 0 84.68 -2302.65 0 -39.37 -42.35 39.37 -42.33zm0 84.68c-21.74,0 -39.37,-18.96 -39.37,-42.34 0,-23.38 17.63,-42.34 39.37,-42.34l0 84.68zm39.47 -787.07l-0.1 744.74 -78.74 -0.02 0.1 -744.74 78.74 0.02zm-78.74 -0.02c0,-23.37 17.64,-42.32 39.38,-42.32 21.74,0 39.36,18.97 39.36,42.34l-78.74 -0.02z"/>
   </g>
   <path class="fil0 str0" d="M909.94 1822.95c-404.42,32.12 -567.89,723.28 -315.5,723.57l157.89 0.19"/>
   <path class="fil0 str0" d="M909.94 1822.95c172.97,-273.2 327.6,-332.36 541,-256.14"/>
   <path class="fil0 str1" d="M1317.22 1536.96c233.1,-429.47 529.52,-531.59 827.82,-384.98"/>
   <path class="fil0 str1" d="M2084.88 1118.79c279.16,-256.56 787.7,-148.91 770.63,222.24"/>
   <path class="fil0 str0" d="M2843.91 1231.63c349.34,-65.83 583.1,264.32 591.3,498.43"/>
   <path class="fil0 str0" d="M3214.31 2431.61l133 -0.6c258.14,-1.16 424.38,-253.37 206.95,-555.57"/>
   <g>
    <path class="fil1" d="M724.71 2546.73c0,-23.38 17.63,-42.34 39.37,-42.34 21.74,0 39.37,18.96 39.37,42.34l-78.74 0zm0 785.41l0 -785.41 78.74 0 0 785.41 -78.74 0zm78.74 0c0,23.38 -17.63,42.34 -39.37,42.34 -21.74,0 -39.37,-18.96 -39.37,-42.34l78.74 0z"/>
   </g>
   <g>
    <path class="fil1" d="M3317.4 2548.69c0,-23.38 17.63,-42.34 39.37,-42.34 21.74,0 39.37,18.96 39.37,42.34l-78.74 0zm0 783.45l0 -783.45 78.74 0 0 783.45 -78.74 0zm78.74 0c0,23.38 -17.63,42.34 -39.37,42.34 -21.74,0 -39.37,-18.96 -39.37,-42.34l78.74 0z"/>
   </g>
   <path class="fil0 str2" d="M2263.21 1186.88c142.89,-56.52 275.83,-39.36 413.17,42.09"/>
   <path class="fil0 str0" d="M902.56 2421.62l-90.56 0.01c-138.19,0.01 -166.32,-30.89 -119.18,-184.59 60.4,-196.94 199.41,-307.65 347.41,-278.47 33.9,-139.48 147.62,-246.64 284.96,-272.2"/>
   <path class="fil0 str0" d="M3360.07 2745.31c126.43,-59.64 226.34,-44.21 255.57,85.63 84.04,-35.17 190.36,16.81 193.61,111.58 5.94,172.99 -165.04,173.5 -265.34,152.07 -76.75,68.54 -82.37,74.96 -185.23,89.4"/>
   <path class="fil0 str3" d="M679.79 1453.72c-17.16,16.63 -38.74,26.54 -62.19,26.54 -55.89,0 -101.2,-56.28 -101.2,-125.69 0,-66.69 41.81,-121.24 94.65,-125.42 16.53,-36.79 50.96,-62.09 90.76,-62.09 55.89,0 101.19,49.89 101.19,111.43 0,2.57 -0.08,5.12 -0.23,7.64 1.14,0.01 2.28,0.03 3.42,0.06 19.84,-21.39 47.59,-34.68 78.3,-34.68 60.31,0 109.19,54.34 109.19,114.37 0,60.04 -48.21,90.03 -100.17,98.82 -25.11,22.21 -45.6,50.16 -91.84,50.16 -46.24,0 -98.83,-24.78 -121.88,-61.14z"/>
   <ellipse class="fil0 str4" cx="755.04" cy="663.17" rx="104.47" ry="104.4"/>
   <line class="fil0 str4" x1="755.04" y1="767.57" x2="755.04" y2= "1185.15" />
   <ellipse class="fil0 str4" cx="3756.33" cy="3671.72" rx="104.47" ry="104.4"/>
   <line class="fil0 str4" x1="3756.33" y1="3567.32" x2="3756.33" y2= "3066.22" />
  </g>
 </g>
</svg>
