<?xml version="1.0" encoding="UTF-8"?>
<!DOCTYPE svg PUBLIC "-//W3C//DTD SVG 1.1//EN" "http://www.w3.org/Graphics/SVG/1.1/DTD/svg11.dtd">
<!-- Creator: CorelDRAW 2020 (64-Bit) -->
<svg xmlns="http://www.w3.org/2000/svg" xml:space="preserve" width="43.3492mm" height="43.3492mm" version="1.1" style="shape-rendering:geometricPrecision; text-rendering:geometricPrecision; image-rendering:optimizeQuality; fill-rule:evenodd; clip-rule:evenodd"
viewBox="0 0 4334.92 4334.92"
 xmlns:xlink="http://www.w3.org/1999/xlink"
 xmlns:xodm="http://www.corel.com/coreldraw/odm/2003">
 <defs>
  <style type="text/css">
   <![CDATA[
    .fil0 {fill:none}
    .fil1 {fill:#DBDADA;fill-rule:nonzero}
   ]]>
  </style>
 </defs>
 <g id="Warstwa_x0020_1">
  <metadata id="CorelCorpID_0Corel-Layer"/>
  <rect class="fil0" x="-0.01" y="-0.01" width="4334.93" height="4334.94"/>
  <g id="_2855163385744">
   <g>
    <path class="fil1" d="M1891.39 1837.87l1784.35 668.71 -29.72 79.3 -1784.35 -668.71 -15.35 -69.32 45.07 -9.98zm-45.07 9.98l19.29 -19.64 25.78 9.66 -45.07 9.98zm-3.31 3.37l3.31 -3.37 60.42 59.34 -3.31 3.37 -69.86 -14.81 9.44 -44.53zm-9.44 44.53l-9.47 -25.28 18.91 -19.25 -9.44 44.53zm668.33 1783.36l-668.33 -1783.36 79.3 -29.72 668.33 1783.36 -37.9 57.16 -41.4 -27.44zm41.4 27.44l-30.64 1.27 -10.76 -28.71 41.4 27.44zm11.6 -0.48l-11.6 0.48 -3.5 -84.6 11.6 -0.48 38.72 62.94 -35.22 21.66zm35.22 -21.66l-11.54 20.68 -23.68 0.98 35.22 -21.66zm296.35 -530.89l-296.35 530.89 -73.94 -41.28 296.35 -530.89 66.91 -9.3 7.03 50.58zm-73.94 -41.28l27.3 -48.91 39.61 39.61 -66.91 9.3zm734.33 777.8l-727.3 -727.22 59.88 -59.88 727.3 727.22 0 59.88 -59.88 0zm59.88 0l-29.94 29.94 -29.94 -29.94 59.88 0zm283.99 -283.99l-283.99 283.99 -59.88 -59.88 283.99 -283.99 59.88 0 0 59.88zm0 -59.88l29.94 29.94 -29.94 29.94 0 -59.88zm-725.82 -725.91l725.82 725.91 -59.88 59.88 -725.82 -725.91 9.3 -66.91 50.58 7.03zm-59.88 59.88l-39.61 -39.61 48.91 -27.3 -9.3 66.91zm575.48 -285.95l-524.9 292.98 -41.28 -73.94 524.9 -292.98 62.8 40.84 -21.52 33.1zm21.52 -33.1l-2.04 22.23 -19.48 10.87 21.52 -33.1zm1.01 -10.99l-1.01 10.99 -84.32 -7.74 1.01 -10.99 57.02 -35.78 27.3 43.52zm-27.3 -43.52l30.26 11.34 -2.96 32.18 -27.3 -43.52z"/>
   </g>
   <g>
    <path class="fil1" d="M3236.87 1877.36l84.68 0 0 0 -0.01 5.8 -0.05 5.8 -0.07 5.71 -0.1 5.79 -0.13 5.78 -0.16 5.73 -0.18 5.73 -0.21 5.73 -0.24 5.71 -0.26 5.71 -0.29 5.71 -0.31 5.65 -0.33 5.69 -0.36 5.7 -0.38 5.64 -0.4 5.64 -0.42 5.63 -0.45 5.66 -0.47 5.63 -0.49 5.62 -0.51 5.62 -0.53 5.59 -0.55 5.61 -0.56 5.56 -0.59 5.59 -0.6 5.54 -0.61 5.55 -0.64 5.58 -0.66 5.57 -0.68 5.53 -0.68 5.49 -0.69 5.53 -84 -10.76 0.67 -5.27 0.66 -5.33 0.64 -5.29 0.62 -5.25 0.6 -5.26 0.59 -5.31 0.58 -5.32 0.55 -5.27 0.54 -5.32 0.53 -5.29 0.49 -5.29 0.49 -5.3 0.45 -5.3 0.45 -5.31 0.41 -5.28 0.4 -5.31 0.38 -5.34 0.36 -5.32 0.34 -5.3 0.31 -5.31 0.29 -5.35 0.27 -5.31 0.24 -5.33 0.22 -5.33 0.19 -5.33 0.18 -5.35 0.14 -5.35 0.13 -5.32 0.08 -5.33 0.07 -5.41 0.05 -5.34 0.01 -5.34 0 0zm-1360.19 -1360.19l0 -84.68 0 0 74.3 1.87 73.37 5.59 72.31 9.18 71.16 12.71 69.93 16.14 68.57 19.48 67.15 22.72 65.63 25.87 64.02 28.94 62.3 31.91 60.5 34.79 58.63 37.58 56.65 40.28 54.57 42.89 52.42 45.41 50.17 47.83 47.83 50.17 45.41 52.42 42.89 54.58 40.28 56.64 37.58 58.63 34.79 60.5 31.92 62.31 28.93 64.01 25.88 65.64 22.72 67.14 19.47 68.59 16.14 69.91 12.71 71.16 9.18 72.31 5.59 73.37 1.87 74.3 -84.68 0 -1.77 -70.04 -5.25 -69.09 -8.66 -68.07 -11.95 -66.98 -15.2 -65.79 -18.31 -64.53 -21.38 -63.18 -24.36 -61.76 -27.23 -60.23 -30.04 -58.65 -32.75 -56.96 -35.38 -55.19 -37.92 -53.32 -40.39 -51.4 -42.75 -49.36 -45.05 -47.25 -47.25 -45.05 -49.36 -42.75 -51.39 -40.39 -53.33 -37.92 -55.19 -35.38 -56.96 -32.75 -58.64 -30.03 -60.24 -27.24 -61.75 -24.35 -63.19 -21.38 -64.53 -18.32 -65.79 -15.2 -66.98 -11.95 -68.07 -8.66 -69.09 -5.25 -70.04 -1.77 0 0zm-1360.21 1360.19l-84.68 0 0 0 1.88 -74.3 5.58 -73.37 9.18 -72.31 12.72 -71.16 16.13 -69.91 19.48 -68.59 22.72 -67.14 25.87 -65.64 28.94 -64.01 31.91 -62.31 34.79 -60.51 37.6 -58.62 40.27 -56.64 42.89 -54.58 45.41 -52.42 47.83 -50.17 50.17 -47.83 52.42 -45.41 54.57 -42.89 56.65 -40.28 58.63 -37.58 60.5 -34.79 62.32 -31.91 64.01 -28.94 65.63 -25.87 67.15 -22.72 68.57 -19.48 69.93 -16.14 71.16 -12.71 72.31 -9.18 73.37 -5.59 74.3 -1.87 0 84.68 -70.04 1.77 -69.09 5.25 -68.07 8.66 -66.98 11.95 -65.79 15.2 -64.53 18.32 -63.19 21.38 -61.75 24.35 -60.25 27.24 -58.64 30.03 -56.96 32.75 -55.19 35.38 -53.33 37.92 -51.39 40.39 -49.36 42.75 -47.25 45.05 -45.05 47.25 -42.75 49.36 -40.39 51.4 -37.93 53.32 -35.38 55.2 -32.75 56.95 -30.03 58.65 -27.24 60.23 -24.35 61.76 -21.38 63.18 -18.32 64.53 -15.19 65.79 -11.96 66.98 -8.66 68.07 -5.24 69.09 -1.78 70.04 0 0zm1360.21 1360.21l0 84.68 0 0 -74.3 -1.87 -73.37 -5.59 -72.31 -9.18 -71.16 -12.71 -69.92 -16.13 -68.58 -19.48 -67.15 -22.72 -65.63 -25.87 -64.01 -28.94 -62.32 -31.91 -60.5 -34.79 -58.63 -37.58 -56.65 -40.28 -54.57 -42.89 -52.42 -45.41 -50.17 -47.83 -47.83 -50.17 -45.41 -52.42 -42.89 -54.57 -40.27 -56.65 -37.6 -58.61 -34.79 -60.52 -31.91 -62.3 -28.94 -64.02 -25.87 -65.64 -22.72 -67.14 -19.48 -68.59 -16.13 -69.92 -12.72 -71.16 -9.18 -72.32 -5.58 -73.37 -1.88 -74.31 84.68 0 1.78 70.05 5.24 69.09 8.66 68.08 11.96 66.98 15.19 65.8 18.32 64.53 21.38 63.18 24.35 61.76 27.24 60.24 30.03 58.64 32.75 56.96 35.38 55.19 37.93 53.33 40.39 51.39 42.75 49.36 45.05 47.25 47.25 45.05 49.36 42.75 51.39 40.39 53.33 37.92 55.19 35.38 56.96 32.75 58.64 30.03 60.25 27.24 61.75 24.35 63.19 21.38 64.52 18.32 65.8 15.19 66.98 11.95 68.07 8.66 69.09 5.25 70.04 1.77 0 0zm165.69 -11.07l10.26 84.06 -5.35 0.64 -5.38 0.64 -5.43 0.62 -5.35 0.6 -5.41 0.6 -5.39 0.57 -5.45 0.57 -5.41 0.53 -5.42 0.53 -5.46 0.5 -5.42 0.5 -5.48 0.47 -5.48 0.45 -5.48 0.44 -5.45 0.4 -5.49 0.41 -5.54 0.37 -5.5 0.35 -5.51 0.33 -5.52 0.31 -5.52 0.29 -5.57 0.27 -5.57 0.23 -5.54 0.22 -5.54 0.2 -5.59 0.17 -5.63 0.15 -5.61 0.11 -5.56 0.1 -5.62 0.07 -5.65 0.04 -5.63 0.01 0 -84.68 5.23 -0.01 5.19 -0.04 5.22 -0.07 5.26 -0.08 5.21 -0.11 5.15 -0.13 5.21 -0.17 5.22 -0.18 5.22 -0.2 5.17 -0.23 5.17 -0.25 5.2 -0.27 5.2 -0.29 5.19 -0.31 5.18 -0.33 5.14 -0.35 5.17 -0.37 5.21 -0.4 5.16 -0.4 5.16 -0.43 5.14 -0.45 5.18 -0.46 5.14 -0.48 5.18 -0.51 5.17 -0.51 5.11 -0.53 5.17 -0.55 5.15 -0.56 5.19 -0.58 5.09 -0.58 5.14 -0.62 5.17 -0.62z"/>
   </g>
   <g>
    <path class="fil1" d="M2805.4 1877.36l84.68 0 0 0 -0.02 1.32 -0.01 0.93 -0.07 1.72 -0.09 1.33 -0.04 0.55 -0.1 1.31 -0.14 1.31 -0.06 0.55 -0.1 0.93 -0.17 1.35 -0.08 0.54 -0.07 0.55 -0.14 0.92 -0.14 0.92 -0.09 0.6 -0.08 0.48 -0.09 0.55 -0.02 0.17 -0.08 0.55 -0.08 0.54 -0.08 0.55 -0.02 0.16 -0.02 0.13 -0.02 0.17 -0.02 0.17 -0.02 0.17 0.02 -0.21 -0.01 0.17 -0.01 0.14 0.01 -0.21 0.01 -0.2 0 -0.15 -84.68 -0.84 0.02 -1.27 0.05 -1.32 0.07 -1.33 0.07 -0.96 0.07 -0.93 0.12 -1.31 0.1 -0.93 0.1 -0.93 0.12 -0.93 0.12 -0.97 0.14 -0.92 0.08 -0.55 0.08 -0.54 0.08 -0.55 0.14 -0.91 0.09 -0.55 0.08 -0.6 0.09 -0.48 0.02 -0.18 0.02 -0.16 0.07 -0.55 0.08 -0.54 -0.03 0.25 0.02 -0.17 0.06 -0.55 -0.02 0.21 -0.02 0.21 0.04 -0.55 -0.01 0.23 -0.03 0.6 0.01 -0.19 0 0.2 0 0zm-928.72 -928.65l0 -84.68 0 0 52.09 1.31 51.45 3.92 50.71 6.44 49.9 8.92 49.04 11.31 48.11 13.67 47.09 15.94 46.04 18.14 44.9 20.31 43.7 22.38 42.43 24.4 41.12 26.36 39.73 28.25 38.28 30.08 36.76 31.84 35.2 33.55 33.54 35.18 31.85 36.77 30.08 38.27 28.25 39.72 26.36 41.11 24.41 42.45 22.39 43.69 20.31 44.9 18.14 46.04 15.94 47.09 13.67 48.1 11.32 49.03 8.92 49.91 6.44 50.71 3.92 51.45 1.31 52.09 -84.68 0 -1.21 -47.83 -3.58 -47.17 -5.92 -46.47 -8.16 -45.71 -10.38 -44.91 -12.51 -44.06 -14.6 -43.13 -16.62 -42.16 -18.59 -41.12 -20.51 -40.03 -22.37 -38.89 -24.16 -37.67 -25.91 -36.42 -27.58 -35.09 -29.19 -33.71 -30.76 -32.26 -32.26 -30.75 -33.72 -29.2 -35.08 -27.58 -36.43 -25.89 -37.68 -24.16 -38.89 -22.36 -40.04 -20.52 -41.12 -18.59 -42.16 -16.62 -43.13 -14.6 -44.05 -12.51 -44.92 -10.37 -45.72 -8.16 -46.47 -5.92 -47.17 -3.58 -47.83 -1.21 0 0zm-928.56 928.65l-84.68 0 0 0 1.31 -52.09 3.92 -51.45 6.44 -50.71 8.92 -49.9 11.31 -49.03 13.66 -48.11 15.94 -47.09 18.14 -46.03 20.3 -44.91 22.38 -43.69 24.39 -42.44 26.37 -41.11 28.24 -39.72 30.07 -38.28 31.84 -36.76 33.54 -35.19 35.18 -33.54 36.76 -31.84 38.27 -30.09 39.73 -28.24 41.1 -26.36 42.44 -24.4 43.69 -22.39 44.9 -20.31 46.03 -18.14 47.08 -15.94 48.1 -13.67 49.04 -11.31 49.9 -8.92 50.71 -6.44 51.45 -3.92 52.09 -1.31 0 84.68 -47.83 1.21 -47.17 3.58 -46.47 5.92 -45.72 8.16 -44.9 10.37 -44.04 12.51 -43.14 14.6 -42.15 16.62 -41.12 18.59 -40.03 20.51 -38.88 22.36 -37.68 24.16 -36.41 25.9 -35.09 27.57 -33.7 29.2 -32.26 30.76 -30.74 32.25 -29.2 33.72 -27.57 35.08 -25.9 36.42 -24.15 37.67 -22.35 38.9 -20.52 40.03 -18.58 41.11 -16.62 42.17 -14.6 43.13 -12.5 44.05 -10.37 44.91 -8.16 45.72 -5.92 46.47 -3.58 47.17 -1.21 47.83 0 0zm928.56 928.65l0 84.68 0 0 -52.09 -1.31 -51.45 -3.92 -50.71 -6.44 -49.9 -8.92 -49.03 -11.31 -48.1 -13.66 -47.09 -15.94 -46.03 -18.14 -44.9 -20.31 -43.69 -22.37 -42.43 -24.4 -41.11 -26.35 -39.73 -28.25 -38.27 -30.09 -36.76 -31.84 -35.18 -33.54 -33.53 -35.18 -31.85 -36.76 -30.07 -38.28 -28.24 -39.72 -26.37 -41.11 -24.39 -42.44 -22.38 -43.69 -20.3 -44.92 -18.14 -46.02 -15.94 -47.1 -13.66 -48.11 -11.31 -49.03 -8.92 -49.91 -6.44 -50.72 -3.92 -51.45 -1.31 -52.1 84.68 0 1.21 47.84 3.58 47.17 5.92 46.48 8.16 45.73 10.37 44.91 12.5 44.05 14.6 43.14 16.62 42.16 18.58 41.12 20.52 40.03 22.35 38.9 24.15 37.67 25.9 36.42 27.57 35.08 29.19 33.7 30.75 32.26 32.26 30.76 33.7 29.2 35.09 27.57 36.41 25.89 37.67 24.15 38.89 22.36 40.03 20.51 41.12 18.59 42.15 16.62 43.13 14.6 44.04 12.5 44.91 10.37 45.72 8.16 46.47 5.92 47.17 3.58 47.83 1.21 0 0zm12.06 -1.23l1.7 84.66 0.26 -0.01 0.1 0 0.09 -0.01 0.17 -0.01 0.12 -0.01 0.1 0 -0.4 0.04 0.11 -0.02 0.17 -0.02 -0.4 0.05 -0.33 0.05 0.13 -0.02 -0.47 0.07 -0.33 0.04 -0.39 0.06 -0.4 0.05 -0.39 0.06 -0.47 0.06 -0.33 0.05 -0.91 0.12 -0.47 0.05 -0.4 0.05 -0.92 0.11 -0.92 0.1 -0.96 0.09 -0.93 0.07 -0.4 0.03 -0.96 0.07 -0.93 0.05 -0.92 0.04 -1.45 0.04 -0.93 0 0 -84.68 -0.09 0 -0.63 0.02 -0.1 0 -0.11 0.01 -0.14 0.01 0.4 -0.03 -0.11 0.01 -0.16 0.01 -0.12 0.02 -0.12 0.01 0.4 -0.05 0.33 -0.05 -0.13 0.02 0.47 -0.07 0.33 -0.04 0.39 -0.06 0.4 -0.05 0.39 -0.06 0.47 -0.06 0.33 -0.05 0.91 -0.12 0.47 -0.05 0.4 -0.05 0.97 -0.12 0.93 -0.1 0.4 -0.04 0.92 -0.08 0.92 -0.07 0.99 -0.07 0.93 -0.05 0.92 -0.04 1.1 -0.03z"/>
   </g>
   <g>
    <path class="fil1" d="M1876.68 1380.28l0 -84.68 0 0 24.56 0.52 24.31 1.52 24.04 2.52 23.73 3.5 23.39 4.46 23.05 5.38 22.68 6.3 22.3 7.19 21.88 8.07 21.46 8.9 21.01 9.75 20.52 10.54 20.04 11.34 19.53 12.09 19.01 12.84 18.44 13.56 17.9 14.27 17.29 14.95 16.7 15.61 16.07 16.24 15.44 16.88 14.77 17.47 14.09 18.04 13.4 18.6 12.68 19.15 11.94 19.67 11.19 20.16 10.42 20.64 9.62 21.1 8.81 21.53 7.98 21.95 7.13 22.34 -81.18 24.12 -6.09 -19.12 -6.84 -18.79 -7.53 -18.43 -8.24 -18.04 -8.92 -17.68 -9.57 -17.26 -10.22 -16.81 -10.86 -16.39 -11.46 -15.92 -12.07 -15.46 -12.63 -14.95 -13.2 -14.42 -13.75 -13.9 -14.28 -13.35 -14.79 -12.77 -15.28 -12.19 -15.76 -11.58 -16.21 -10.96 -16.67 -10.33 -17.1 -9.66 -17.5 -9 -17.89 -8.29 -18.28 -7.6 -18.64 -6.87 -18.98 -6.11 -19.32 -5.38 -19.63 -4.58 -19.95 -3.8 -20.23 -2.98 -20.5 -2.16 -20.77 -1.3 -21.04 -0.44 0 0zm-497.02 497.08l-84.68 0 0 0 0.75 -29.88 2.25 -29.53 3.69 -29.1 5.12 -28.66 6.5 -28.14 7.84 -27.62 9.15 -27.05 10.41 -26.42 11.65 -25.79 12.85 -25.09 14.01 -24.36 15.12 -23.6 16.22 -22.81 17.26 -21.98 18.27 -21.09 19.24 -20.2 20.2 -19.26 21.09 -18.28 21.98 -17.27 22.8 -16.22 23.6 -15.13 24.35 -14.01 25.09 -12.86 25.78 -11.66 26.45 -10.43 27.04 -9.15 27.62 -7.85 28.17 -6.5 28.66 -5.12 29.11 -3.69 29.53 -2.26 29.9 -0.75 0 84.68 -25.62 0.65 -25.27 1.92 -24.89 3.17 -24.46 4.36 -24.03 5.56 -23.58 6.69 -23.08 7.81 -22.55 8.89 -22 9.96 -21.43 10.98 -20.81 11.97 -20.18 12.93 -19.48 13.86 -18.78 14.77 -18.05 15.64 -17.26 16.46 -16.46 17.28 -15.63 18.05 -14.76 18.78 -13.86 19.49 -12.92 20.18 -11.97 20.82 -10.97 21.41 -9.95 22.01 -8.89 22.56 -7.81 23.07 -6.68 23.58 -5.56 24.04 -4.36 24.46 -3.17 24.86 -1.91 25.25 -0.65 25.62 0 0zm351.34 472.72l-24.94 80.92 -22.06 -7.28 -21.67 -8.12 -21.25 -8.92 -20.83 -9.73 -20.37 -10.5 -19.88 -11.25 -19.41 -12 -18.89 -12.73 -18.33 -13.41 -17.8 -14.1 -17.22 -14.77 -16.63 -15.43 -16 -16.04 -15.38 -16.65 -14.72 -17.24 -14.06 -17.83 -13.35 -18.38 -12.64 -18.91 -11.91 -19.42 -11.15 -19.93 -10.39 -20.42 -9.58 -20.88 -8.77 -21.31 -7.92 -21.73 -7.08 -22.14 -6.2 -22.53 -5.29 -22.89 -4.37 -23.22 -3.44 -23.55 -2.49 -23.84 -1.49 -24.12 -0.51 -24.37 84.68 0 0.43 20.87 1.29 20.62 2.11 20.34 2.94 20.09 3.73 19.8 4.51 19.49 5.28 19.19 6.02 18.86 6.76 18.51 7.47 18.17 8.16 17.78 8.85 17.4 9.51 16.99 10.17 16.58 10.78 16.15 11.41 15.68 12 15.23 12.58 14.74 13.14 14.23 13.7 13.72 14.23 13.19 14.72 12.63 15.22 12.06 15.71 11.49 16.15 10.89 16.59 10.26 17.02 9.63 17.43 9 17.81 8.31 18.19 7.64 18.55 6.94 18.88 6.24z"/>
   </g>
  </g>
 </g>
</svg>
