<?xml version="1.0" encoding="UTF-8"?>
<!DOCTYPE svg PUBLIC "-//W3C//DTD SVG 1.1//EN" "http://www.w3.org/Graphics/SVG/1.1/DTD/svg11.dtd">
<!-- Creator: CorelDRAW 2020 (64-Bit) -->
<svg xmlns="http://www.w3.org/2000/svg" xml:space="preserve" width="43.3492mm" height="43.3492mm" version="1.1" style="shape-rendering:geometricPrecision; text-rendering:geometricPrecision; image-rendering:optimizeQuality; fill-rule:evenodd; clip-rule:evenodd"
viewBox="0 0 4334.92 4334.92"
 xmlns:xlink="http://www.w3.org/1999/xlink"
 xmlns:xodm="http://www.corel.com/coreldraw/odm/2003">
 <defs>
  <style type="text/css">
   <![CDATA[
    .str2 {stroke:#DBDADA;stroke-width:84.67;stroke-miterlimit:22.9256}
    .str1 {stroke:#DBDADA;stroke-width:84.67;stroke-linecap:round;stroke-linejoin:round;stroke-miterlimit:22.9256}
    .str0 {stroke:#DBDADA;stroke-width:84.67;stroke-linecap:round;stroke-linejoin:round;stroke-miterlimit:10}
    .fil0 {fill:none}
    .fil1 {fill:none;fill-rule:nonzero}
   ]]>
  </style>
 </defs>
 <g id="Warstwa_x0020_1">
  <metadata id="CorelCorpID_0Corel-Layer"/>
  <rect class="fil0" x="-0.01" y="-0.01" width="4334.93" height="4334.94"/>
  <g id="_2965369793184">
   <g>
    <path class="fil1 str0" d="M1911.73 2691.36c82.44,72.67 190.69,116.76 309.23,116.76l0 0c117.94,0 225.67,-43.64 307.95,-115.64"/>
    <path class="fil1 str0" d="M2442.54 2252.49c-54.46,58.21 -131.89,94.75 -217.4,94.75l0 0c-89.99,0 -171.01,-40.46 -225.77,-104.06"/>
    <path class="fil1 str0" d="M1763.06 2152.8c23.36,236.57 222.9,421.37 465.59,421.37l0 0c242.7,0 442.25,-184.8 465.59,-421.37"/>
    <path class="fil1 str0" d="M2054.61 2059.5l-246.06 0c-26.39,0 -47.77,-21.38 -47.77,-47.77l0 -138.41c0,-26.38 21.38,-47.76 47.77,-47.76l278.78 0c26.36,0 47.74,21.38 47.74,47.76l0 105.71c0,44.43 -36.02,80.47 -80.46,80.47z"/>
    <path class="fil1 str0" d="M2648.77 2059.5l-246.08 0c-44.44,0 -80.46,-36.04 -80.46,-80.47l0 -105.71c0,-26.38 21.38,-47.76 47.77,-47.76l278.77 0c26.37,0 47.75,21.38 47.75,47.76l0 138.41c0,26.39 -21.38,47.77 -47.75,47.77z"/>
    <line class="fil1 str0" x1="2135.07" y1="1919.14" x2="2322.23" y2= "1919.14" />
    <path class="fil1 str0" d="M1947.93 2480.59l0 99.02c0,74.53 -60.4,134.92 -134.91,134.92l-145.81 0c-155.03,0 -280.72,125.7 -280.72,280.74"/>
    <path class="fil1 str0" d="M3070.82 2995.27c0,-155.04 -125.69,-280.74 -280.73,-280.74l-145.81 0c-74.51,0 -134.9,-60.39 -134.9,-134.92l0 -99.02"/>
    <line class="fil1 str0" x1="2135.07" y1="2808.12" x2="2135.07" y2= "2995.27" />
    <line class="fil1 str0" x1="2322.23" y1="2808.12" x2="2322.23" y2= "2995.27" />
    <path class="fil1 str0" d="M1760.78 1825.56l-100.91 0c-21.79,0 -39.45,17.65 -39.45,39.44l0 247.8c0,48.08 38.98,87.06 87.07,87.06l53.29 0"/>
    <path class="fil1 str0" d="M2696.52 1825.56l100.92 0c21.79,0 39.44,17.65 39.44,39.44l0 247.8c0,48.08 -38.98,87.06 -87.07,87.06l-53.29 0"/>
    <path class="fil1 str0" d="M1760.78 1919.14l0 -421.09c0,-155.04 125.69,-280.74 280.73,-280.74l374.29 0c155.04,0 280.72,125.7 280.72,280.74l0 421.09"/>
    <path class="fil1 str0" d="M2696.52 1685.2l-561.45 0c-103.34,0 -187.14,-83.8 -187.14,-187.15l0 0"/>
   </g>
   <path class="fil0 str1" d="M3502.76 1820.77c21,93.72 31.6,189.47 31.6,285.52 0,721.14 -584.58,1305.74 -1305.71,1305.74 -721.12,0 -1305.7,-584.6 -1305.7,-1305.74 0,-721.14 584.58,-1305.74 1305.7,-1305.74 149.45,0 297.78,25.66 438.54,75.85"/>
   <path class="fil0 str1" d="M601.09 1984.22c63.88,-851.68 773.52,-1510.1 1627.56,-1510.1 901.41,0 1632.14,730.74 1632.14,1632.17 0,854.07 -658.41,1563.73 -1510.06,1627.61"/>
   <circle class="fil0 str2" cx="3470.46" cy="1702.8" r="122.41"/>
   <circle class="fil0 str2" cx="2780.48" cy="922.88" r="122.41"/>
   <circle class="fil0 str2" cx="2228.66" cy="3738.39" r="122.41"/>
   <circle class="fil0 str2" cx="596.53" cy="2106.29" r="122.41"/>
  </g>
 </g>
</svg>
