<?xml version="1.0" encoding="UTF-8"?>
<!DOCTYPE svg PUBLIC "-//W3C//DTD SVG 1.1//EN" "http://www.w3.org/Graphics/SVG/1.1/DTD/svg11.dtd">
<!-- Creator: CorelDRAW 2020 (64-Bit) -->
<svg xmlns="http://www.w3.org/2000/svg" xml:space="preserve" width="43.3492mm" height="43.3492mm" version="1.1" style="shape-rendering:geometricPrecision; text-rendering:geometricPrecision; image-rendering:optimizeQuality; fill-rule:evenodd; clip-rule:evenodd"
viewBox="0 0 4334.92 4334.92"
 xmlns:xlink="http://www.w3.org/1999/xlink"
 xmlns:xodm="http://www.corel.com/coreldraw/odm/2003">
 <defs>
  <style type="text/css">
   <![CDATA[
    .fil0 {fill:none}
    .fil1 {fill:#DBDADA;fill-rule:nonzero}
   ]]>
  </style>
 </defs>
 <g id="Warstwa_x0020_1">
  <metadata id="CorelCorpID_0Corel-Layer"/>
  <rect class="fil0" x="-0.01" y="-0.01" width="4334.93" height="4334.93"/>
  <g id="_2855051325664">
   <g>
    <path class="fil1" d="M2671.86 1601.8c-23.38,-0.01 -42.32,-18.99 -42.31,-42.37 0.01,-23.38 18.99,-42.32 42.37,-42.31l-0.06 84.68zm587.15 0.44l-587.15 -0.44 0.06 -84.68 587.15 0.44 -0.06 84.68zm0.06 -84.68c23.38,0.01 42.32,18.99 42.31,42.37 -0.01,23.38 -18.99,42.32 -42.37,42.31l0.06 -84.68z"/>
   </g>
   <g>
    <path class="fil1" d="M3564.57 1559.9l-84.68 0 0 0 -0.11 -4.66 -0.35 -4.57 -0.57 -4.49 -0.78 -4.4 -1.01 -4.34 -1.2 -4.25 -1.41 -4.13 -1.59 -4.05 -1.8 -3.96 -1.98 -3.88 -2.15 -3.74 -2.34 -3.65 -2.49 -3.5 -2.67 -3.41 -2.84 -3.27 -2.97 -3.11 -3.11 -2.97 -3.27 -2.84 -3.41 -2.67 -3.5 -2.49 -3.65 -2.34 -3.74 -2.15 -3.88 -1.98 -3.96 -1.8 -4.05 -1.59 -4.13 -1.41 -4.25 -1.2 -4.34 -1.01 -4.4 -0.78 -4.49 -0.57 -4.57 -0.35 -4.66 -0.12 0 -84.66 8.92 0.22 8.85 0.67 8.71 1.11 8.62 1.54 8.42 1.95 8.29 2.34 8.13 2.75 7.95 3.13 7.72 3.5 7.52 3.84 7.3 4.21 7.07 4.52 6.84 4.87 6.57 5.17 6.31 5.46 6.07 5.77 5.77 6.07 5.46 6.31 5.17 6.57 4.87 6.84 4.52 7.07 4.21 7.3 3.84 7.52 3.5 7.72 3.13 7.95 2.75 8.13 2.34 8.29 1.95 8.42 1.54 8.62 1.11 8.71 0.67 8.85 0.23 8.92 0 0zm-174.35 174.34l0 -84.66 0 0 4.66 -0.12 4.57 -0.35 4.49 -0.57 4.4 -0.78 4.34 -1.01 4.25 -1.2 4.13 -1.41 4.05 -1.59 3.96 -1.8 3.88 -1.98 3.74 -2.15 3.65 -2.34 3.5 -2.49 3.41 -2.67 3.27 -2.84 3.11 -2.97 2.97 -3.11 2.84 -3.27 2.67 -3.41 2.49 -3.5 2.34 -3.65 2.15 -3.74 1.98 -3.88 1.8 -3.96 1.59 -4.05 1.41 -4.13 1.2 -4.25 1.01 -4.34 0.78 -4.4 0.57 -4.49 0.35 -4.57 0.11 -4.66 84.68 0 -0.23 8.92 -0.67 8.85 -1.11 8.71 -1.54 8.62 -1.95 8.42 -2.34 8.29 -2.75 8.13 -3.13 7.95 -3.5 7.72 -3.84 7.52 -4.21 7.3 -4.52 7.07 -4.87 6.84 -5.17 6.57 -5.46 6.31 -5.77 6.07 -6.07 5.77 -6.31 5.46 -6.57 5.17 -6.84 4.87 -7.07 4.52 -7.3 4.21 -7.52 3.84 -7.72 3.5 -7.95 3.13 -8.13 2.75 -8.29 2.34 -8.42 1.95 -8.62 1.54 -8.71 1.11 -8.85 0.67 -8.92 0.22 0 0zm-174.35 -174.34l84.68 0 0 0 0.11 4.66 0.35 4.57 0.57 4.49 0.78 4.4 1.01 4.31 1.21 4.28 1.4 4.13 1.6 4.05 1.8 3.99 1.97 3.85 2.14 3.71 2.34 3.66 2.51 3.52 2.67 3.41 2.84 3.27 2.98 3.13 3.11 2.97 3.25 2.82 3.39 2.66 3.53 2.5 3.64 2.34 3.75 2.15 3.87 1.98 3.97 1.8 4.04 1.59 4.14 1.41 4.24 1.2 4.35 1.01 4.4 0.78 4.48 0.57 4.57 0.35 4.66 0.12 0 84.66 -8.92 -0.22 -8.85 -0.67 -8.72 -1.11 -8.6 -1.54 -8.43 -1.95 -8.28 -2.34 -8.14 -2.75 -7.94 -3.13 -7.73 -3.5 -7.51 -3.84 -7.31 -4.21 -7.06 -4.52 -6.83 -4.86 -6.59 -5.18 -6.33 -5.48 -6.05 -5.77 -5.76 -6.05 -5.46 -6.31 -5.17 -6.57 -4.85 -6.82 -4.54 -7.06 -4.22 -7.33 -3.85 -7.55 -3.48 -7.69 -3.14 -7.95 -2.74 -8.13 -2.35 -8.26 -1.95 -8.45 -1.54 -8.62 -1.11 -8.71 -0.67 -8.85 -0.23 -8.92 0 0zm174.35 -174.34l0 84.66 0 0 -4.66 0.12 -4.57 0.35 -4.48 0.57 -4.4 0.78 -4.35 1.01 -4.24 1.2 -4.14 1.41 -4.04 1.59 -3.97 1.8 -3.87 1.98 -3.75 2.15 -3.64 2.34 -3.53 2.5 -3.39 2.66 -3.25 2.82 -3.11 2.97 -2.98 3.13 -2.84 3.27 -2.67 3.41 -2.51 3.52 -2.34 3.66 -2.14 3.71 -1.97 3.85 -1.8 3.99 -1.6 4.05 -1.4 4.13 -1.21 4.28 -1.01 4.31 -0.78 4.4 -0.57 4.49 -0.35 4.57 -0.11 4.66 -84.68 0 0.23 -8.92 0.67 -8.85 1.11 -8.71 1.54 -8.62 1.95 -8.45 2.35 -8.26 2.74 -8.13 3.14 -7.95 3.48 -7.69 3.85 -7.55 4.22 -7.33 4.54 -7.06 4.85 -6.82 5.17 -6.57 5.46 -6.31 5.76 -6.05 6.05 -5.77 6.33 -5.48 6.59 -5.18 6.83 -4.86 7.06 -4.52 7.31 -4.21 7.51 -3.84 7.73 -3.5 7.94 -3.13 8.14 -2.75 8.28 -2.34 8.43 -1.95 8.6 -1.54 8.72 -1.11 8.85 -0.67 8.92 -0.22 0 0z"/>
   </g>
   <g>
    <path class="fil1" d="M2863.98 2182.39c0.4,-23.37 19.7,-41.99 43.07,-41.59 23.37,0.4 41.99,19.7 41.59,43.07l-84.66 -1.48zm-855.2 925.07l0 -84.66 0 0 43.52 -1.09 42.94 -3.23 42.31 -5.31 41.65 -7.36 40.93 -9.32 40.15 -11.27 39.34 -13.14 38.46 -14.98 37.55 -16.75 36.57 -18.49 35.56 -20.15 34.46 -21.8 33.35 -23.36 32.16 -24.89 30.92 -26.35 29.64 -27.78 28.29 -29.14 26.88 -30.46 25.45 -31.72 23.94 -32.93 22.39 -34.08 20.77 -35.2 19.12 -36.25 17.42 -37.25 15.64 -38.2 13.83 -39.1 11.96 -39.96 10.05 -40.75 8.07 -41.51 6.05 -42.21 3.98 -42.88 1.85 -43.5 84.66 1.48 -2.03 47.72 -4.36 47.08 -6.65 46.39 -8.87 45.63 -11.05 44.83 -13.16 43.94 -15.21 43 -17.2 42.02 -19.14 40.95 -21.02 39.85 -22.83 38.68 -24.61 37.46 -26.3 36.19 -27.95 34.84 -29.54 33.46 -31.07 32.02 -32.56 30.5 -33.96 28.95 -35.34 27.35 -36.63 25.66 -37.88 23.94 -39.08 22.17 -40.21 20.31 -41.29 18.43 -42.3 16.46 -43.26 14.46 -44.17 12.39 -45.01 10.26 -45.77 8.08 -46.51 5.83 -47.16 3.55 -47.74 1.19 0 0zm-940.01 -940l84.68 0 0 0 1.12 44.06 3.3 43.45 5.44 42.81 7.52 42.11 9.55 41.37 11.52 40.57 13.44 39.73 15.31 38.83 17.13 37.88 18.88 36.87 20.6 35.81 22.25 34.71 23.85 33.54 25.39 32.32 26.9 31.04 28.32 29.72 29.72 28.32 31.04 26.9 32.32 25.39 33.53 23.85 34.72 22.25 35.81 20.6 36.87 18.88 37.88 17.13 38.82 15.3 39.73 13.44 40.58 11.53 41.36 9.54 42.11 7.53 42.81 5.44 43.45 3.3 44.06 1.12 0 84.66 -48.32 -1.22 -47.73 -3.62 -47.05 -5.98 -46.29 -8.27 -45.5 -10.5 -44.62 -12.67 -43.69 -14.78 -42.7 -16.84 -41.66 -18.83 -40.53 -20.76 -39.37 -22.64 -38.14 -24.45 -36.85 -26.21 -35.5 -27.89 -34.1 -29.54 -32.64 -31.12 -31.12 -32.64 -29.54 -34.1 -27.89 -35.5 -26.21 -36.84 -24.45 -38.15 -22.64 -39.37 -20.76 -40.53 -18.83 -41.66 -16.83 -42.69 -14.78 -43.69 -12.68 -44.63 -10.49 -45.49 -8.28 -46.29 -5.98 -47.05 -3.62 -47.73 -1.22 -48.32 0 0zm940.01 -939.99l0 84.66 0 0 -44.06 1.12 -43.45 3.3 -42.81 5.44 -42.11 7.53 -41.36 9.54 -40.58 11.53 -39.73 13.44 -38.82 15.3 -37.88 17.13 -36.87 18.88 -35.81 20.6 -34.72 22.25 -33.53 23.84 -32.32 25.4 -31.04 26.9 -29.72 28.32 -28.32 29.72 -26.9 31.04 -25.39 32.32 -23.85 33.54 -22.25 34.7 -20.6 35.81 -18.88 36.88 -17.13 37.87 -15.31 38.84 -13.44 39.72 -11.52 40.57 -9.55 41.37 -7.52 42.12 -5.44 42.8 -3.3 43.45 -1.12 44.06 -84.68 0 1.22 -48.32 3.62 -47.73 5.98 -47.04 8.28 -46.3 10.49 -45.49 12.68 -44.63 14.78 -43.68 16.83 -42.7 18.83 -41.65 20.76 -40.54 22.64 -39.37 24.45 -38.14 26.21 -36.84 27.89 -35.5 29.54 -34.1 31.12 -32.64 32.64 -31.12 34.1 -29.54 35.5 -27.9 36.85 -26.2 38.14 -24.45 39.37 -22.64 40.53 -20.76 41.66 -18.83 42.7 -16.84 43.69 -14.78 44.62 -12.67 45.5 -10.5 46.29 -8.27 47.05 -5.98 47.73 -3.62 48.32 -1.22 0 0zm687.48 298.92l-61.94 57.74 -15.35 -16.05 -15.73 -15.59 -16.09 -15.16 -16.42 -14.7 -16.78 -14.24 -17.11 -13.78 -17.41 -13.32 -17.74 -12.84 -18.03 -12.38 -18.33 -11.9 -18.6 -11.41 -18.88 -10.93 -19.14 -10.44 -19.38 -9.94 -19.63 -9.44 -19.86 -8.93 -20.08 -8.43 -20.3 -7.92 -20.49 -7.4 -20.67 -6.88 -20.87 -6.34 -21.04 -5.83 -21.2 -5.29 -21.36 -4.75 -21.47 -4.21 -21.63 -3.66 -21.74 -3.11 -21.86 -2.55 -21.95 -1.99 -22.07 -1.43 -22.13 -0.87 -22.2 -0.29 0 -84.66 24.4 0.31 24.33 0.95 24.23 1.57 24.13 2.19 24.02 2.81 23.9 3.41 23.77 4.02 23.63 4.63 23.46 5.23 23.28 5.81 23.12 6.39 22.93 6.98 22.75 7.56 22.51 8.14 22.3 8.7 22.06 9.25 21.84 9.83 21.57 10.38 21.3 10.92 21.04 11.48 20.74 12.01 20.44 12.53 20.15 13.08 19.81 13.6 19.5 14.12 19.15 14.64 18.79 15.14 18.44 15.66 18.06 16.16 17.67 16.64 17.29 17.15 16.87 17.63zm0 0c15.94,17.09 15,43.89 -2.1,59.83 -17.1,15.94 -43.9,15 -59.84,-2.09l61.94 -57.74z"/>
   </g>
   <g>
    <path class="fil1" d="M3115.69 2838.07c-23.38,0 -42.34,-18.96 -42.34,-42.34 0,-23.38 18.96,-42.34 42.34,-42.34l0 84.68zm481.93 0l-481.93 0 0 -84.68 481.93 0 0 84.68zm0 -84.68c23.38,0 42.34,18.96 42.34,42.34 0,23.38 -18.96,42.34 -42.34,42.34l0 -84.68z"/>
   </g>
   <g>
    <path class="fil1" d="M3903.15 2795.73l-84.68 0 0 0 -0.11 -4.66 -0.35 -4.57 -0.57 -4.48 -0.78 -4.4 -1.01 -4.35 -1.2 -4.24 -1.41 -4.14 -1.59 -4.04 -1.8 -3.97 -1.98 -3.87 -2.15 -3.75 -2.34 -3.64 -2.5 -3.53 -2.66 -3.39 -2.82 -3.25 -2.97 -3.11 -3.13 -2.98 -3.27 -2.84 -3.41 -2.67 -3.52 -2.51 -3.66 -2.34 -3.71 -2.14 -3.85 -1.97 -3.99 -1.8 -4.05 -1.6 -4.13 -1.4 -4.28 -1.21 -4.31 -1.01 -4.4 -0.78 -4.49 -0.57 -4.57 -0.35 -4.66 -0.12 0 -84.66 8.92 0.22 8.85 0.67 8.71 1.11 8.62 1.54 8.45 1.95 8.26 2.35 8.13 2.74 7.95 3.14 7.69 3.48 7.55 3.85 7.33 4.22 7.06 4.54 6.82 4.85 6.57 5.17 6.31 5.46 6.05 5.76 5.77 6.05 5.48 6.33 5.18 6.59 4.86 6.83 4.52 7.06 4.21 7.31 3.84 7.51 3.5 7.73 3.13 7.94 2.75 8.14 2.34 8.28 1.95 8.43 1.54 8.6 1.11 8.72 0.67 8.85 0.23 8.92 0 0zm-174.35 174.34l0 -84.66 0 0 4.66 -0.12 4.57 -0.35 4.49 -0.57 4.4 -0.78 4.34 -1.01 4.25 -1.2 4.13 -1.41 4.05 -1.59 3.96 -1.8 3.88 -1.98 3.74 -2.15 3.65 -2.34 3.5 -2.49 3.41 -2.67 3.27 -2.84 3.11 -2.97 2.97 -3.11 2.84 -3.27 2.67 -3.41 2.49 -3.5 2.34 -3.65 2.15 -3.74 1.98 -3.88 1.8 -3.96 1.59 -4.05 1.41 -4.13 1.2 -4.25 1.01 -4.34 0.78 -4.4 0.57 -4.49 0.35 -4.57 0.11 -4.66 84.68 0 -0.23 8.92 -0.67 8.85 -1.11 8.71 -1.54 8.62 -1.95 8.42 -2.34 8.29 -2.75 8.13 -3.13 7.95 -3.5 7.72 -3.84 7.52 -4.21 7.3 -4.52 7.07 -4.87 6.84 -5.17 6.57 -5.46 6.31 -5.77 6.07 -6.07 5.77 -6.31 5.46 -6.57 5.17 -6.84 4.87 -7.07 4.52 -7.3 4.21 -7.52 3.84 -7.72 3.5 -7.95 3.13 -8.13 2.75 -8.29 2.34 -8.42 1.95 -8.62 1.54 -8.71 1.11 -8.85 0.67 -8.92 0.22 0 0zm-174.35 -174.34l84.68 0 0 0 0.11 4.66 0.35 4.57 0.57 4.49 0.78 4.4 1.01 4.34 1.2 4.25 1.41 4.13 1.59 4.05 1.8 3.96 1.98 3.88 2.15 3.74 2.34 3.65 2.49 3.5 2.67 3.41 2.84 3.27 2.97 3.11 3.11 2.97 3.27 2.84 3.41 2.67 3.5 2.49 3.65 2.34 3.74 2.15 3.88 1.98 3.96 1.8 4.05 1.59 4.13 1.41 4.25 1.2 4.34 1.01 4.4 0.78 4.49 0.57 4.57 0.35 4.66 0.12 0 84.66 -8.92 -0.22 -8.85 -0.67 -8.71 -1.11 -8.62 -1.54 -8.42 -1.95 -8.29 -2.34 -8.13 -2.75 -7.95 -3.13 -7.72 -3.5 -7.52 -3.84 -7.3 -4.21 -7.07 -4.52 -6.84 -4.87 -6.57 -5.17 -6.31 -5.46 -6.07 -5.77 -5.77 -6.07 -5.46 -6.31 -5.17 -6.57 -4.87 -6.84 -4.52 -7.07 -4.21 -7.3 -3.84 -7.52 -3.5 -7.72 -3.13 -7.95 -2.75 -8.13 -2.34 -8.29 -1.95 -8.42 -1.54 -8.62 -1.11 -8.71 -0.67 -8.85 -0.23 -8.92 0 0zm174.35 -174.34l0 84.66 0 0 -4.66 0.12 -4.57 0.35 -4.49 0.57 -4.4 0.78 -4.31 1.01 -4.28 1.21 -4.13 1.4 -4.05 1.6 -3.99 1.8 -3.85 1.97 -3.71 2.14 -3.66 2.34 -3.52 2.51 -3.41 2.67 -3.27 2.84 -3.13 2.98 -2.97 3.11 -2.82 3.25 -2.66 3.39 -2.5 3.53 -2.34 3.64 -2.15 3.75 -1.98 3.87 -1.8 3.97 -1.59 4.04 -1.41 4.14 -1.2 4.24 -1.01 4.35 -0.78 4.4 -0.57 4.48 -0.35 4.57 -0.11 4.66 -84.68 0 0.23 -8.92 0.67 -8.85 1.11 -8.72 1.54 -8.6 1.95 -8.43 2.34 -8.28 2.75 -8.14 3.13 -7.94 3.5 -7.73 3.84 -7.51 4.21 -7.31 4.52 -7.06 4.86 -6.83 5.18 -6.59 5.48 -6.33 5.77 -6.05 6.05 -5.76 6.31 -5.46 6.57 -5.17 6.82 -4.85 7.06 -4.54 7.33 -4.22 7.55 -3.85 7.69 -3.48 7.95 -3.14 8.13 -2.74 8.26 -2.35 8.45 -1.95 8.62 -1.54 8.71 -1.11 8.85 -0.67 8.92 -0.22 0 0z"/>
   </g>
   <g>
    <path class="fil1" d="M2354.01 984.57c-23.38,0 -42.34,-18.96 -42.34,-42.34 0,-23.38 18.96,-42.34 42.34,-42.34l0 84.68zm746.96 0l-746.96 0 0 -84.68 746.96 0 0 84.68zm0 -84.68c23.38,0 42.34,18.96 42.34,42.34 0,23.38 -18.96,42.34 -42.34,42.34l0 -84.68z"/>
   </g>
   <g>
    <path class="fil1" d="M3406.5 942.23l-84.68 0 0 0 -0.11 -4.66 -0.35 -4.57 -0.57 -4.49 -0.78 -4.4 -1.01 -4.34 -1.2 -4.25 -1.41 -4.13 -1.59 -4.05 -1.8 -3.96 -1.98 -3.88 -2.15 -3.74 -2.34 -3.65 -2.49 -3.5 -2.67 -3.41 -2.84 -3.27 -2.97 -3.11 -3.11 -2.97 -3.27 -2.84 -3.41 -2.67 -3.5 -2.49 -3.65 -2.34 -3.74 -2.15 -3.88 -1.98 -3.96 -1.8 -4.05 -1.59 -4.13 -1.41 -4.25 -1.2 -4.34 -1.01 -4.4 -0.78 -4.49 -0.57 -4.57 -0.35 -4.66 -0.12 0 -84.66 8.92 0.22 8.85 0.67 8.71 1.11 8.62 1.54 8.42 1.95 8.29 2.34 8.13 2.75 7.95 3.13 7.72 3.5 7.52 3.84 7.3 4.21 7.07 4.52 6.84 4.87 6.57 5.17 6.31 5.46 6.07 5.77 5.77 6.07 5.46 6.31 5.17 6.57 4.87 6.84 4.52 7.07 4.21 7.3 3.84 7.52 3.5 7.72 3.13 7.95 2.75 8.13 2.34 8.29 1.95 8.42 1.54 8.62 1.11 8.71 0.67 8.85 0.23 8.92 0 0zm-174.35 174.34l0 -84.66 0 0 4.66 -0.12 4.57 -0.35 4.49 -0.57 4.4 -0.78 4.34 -1.01 4.25 -1.2 4.13 -1.41 4.05 -1.59 3.96 -1.8 3.88 -1.98 3.74 -2.15 3.65 -2.34 3.5 -2.49 3.41 -2.67 3.27 -2.84 3.11 -2.97 2.97 -3.11 2.84 -3.27 2.67 -3.41 2.49 -3.5 2.34 -3.65 2.15 -3.74 1.98 -3.88 1.8 -3.96 1.59 -4.05 1.41 -4.13 1.2 -4.25 1.01 -4.34 0.78 -4.4 0.57 -4.49 0.35 -4.57 0.11 -4.66 84.68 0 -0.23 8.92 -0.67 8.85 -1.11 8.71 -1.54 8.62 -1.95 8.42 -2.34 8.29 -2.75 8.13 -3.13 7.95 -3.5 7.72 -3.84 7.52 -4.21 7.3 -4.52 7.07 -4.87 6.84 -5.17 6.57 -5.46 6.31 -5.77 6.07 -6.07 5.77 -6.31 5.46 -6.57 5.17 -6.84 4.87 -7.07 4.52 -7.3 4.21 -7.52 3.84 -7.72 3.5 -7.95 3.13 -8.13 2.75 -8.29 2.34 -8.42 1.95 -8.62 1.54 -8.71 1.11 -8.85 0.67 -8.92 0.22 0 0zm-174.35 -174.34l84.68 0 0 0 0.11 4.66 0.35 4.57 0.57 4.49 0.78 4.4 1.01 4.34 1.2 4.25 1.41 4.13 1.59 4.05 1.8 3.96 1.98 3.88 2.15 3.74 2.34 3.65 2.49 3.5 2.67 3.41 2.84 3.27 2.97 3.11 3.11 2.97 3.27 2.84 3.41 2.67 3.5 2.49 3.65 2.34 3.74 2.15 3.88 1.98 3.96 1.8 4.05 1.59 4.13 1.41 4.25 1.2 4.34 1.01 4.4 0.78 4.49 0.57 4.57 0.35 4.66 0.12 0 84.66 -8.92 -0.22 -8.85 -0.67 -8.71 -1.11 -8.62 -1.54 -8.42 -1.95 -8.29 -2.34 -8.13 -2.75 -7.95 -3.13 -7.72 -3.5 -7.52 -3.84 -7.3 -4.21 -7.07 -4.52 -6.84 -4.87 -6.57 -5.17 -6.31 -5.46 -6.07 -5.77 -5.77 -6.07 -5.46 -6.31 -5.17 -6.57 -4.87 -6.84 -4.52 -7.07 -4.21 -7.3 -3.84 -7.52 -3.5 -7.72 -3.13 -7.95 -2.75 -8.13 -2.34 -8.29 -1.95 -8.42 -1.54 -8.62 -1.11 -8.71 -0.67 -8.85 -0.23 -8.92 0 0zm174.35 -174.34l0 84.66 0 0 -4.66 0.12 -4.57 0.35 -4.49 0.57 -4.4 0.78 -4.34 1.01 -4.25 1.2 -4.13 1.41 -4.05 1.59 -3.96 1.8 -3.88 1.98 -3.74 2.15 -3.65 2.34 -3.5 2.49 -3.41 2.67 -3.27 2.84 -3.11 2.97 -2.97 3.11 -2.84 3.27 -2.67 3.41 -2.49 3.5 -2.34 3.65 -2.15 3.74 -1.98 3.88 -1.8 3.96 -1.59 4.05 -1.41 4.13 -1.2 4.25 -1.01 4.34 -0.78 4.4 -0.57 4.49 -0.35 4.57 -0.11 4.66 -84.68 0 0.23 -8.92 0.67 -8.85 1.11 -8.71 1.54 -8.62 1.95 -8.42 2.34 -8.29 2.75 -8.13 3.13 -7.95 3.5 -7.72 3.84 -7.52 4.21 -7.3 4.52 -7.07 4.87 -6.84 5.17 -6.57 5.46 -6.31 5.77 -6.07 6.07 -5.77 6.31 -5.46 6.57 -5.17 6.84 -4.87 7.07 -4.52 7.3 -4.21 7.52 -3.84 7.72 -3.5 7.95 -3.13 8.13 -2.75 8.29 -2.34 8.42 -1.95 8.62 -1.54 8.71 -1.11 8.85 -0.67 8.92 -0.22 0 0z"/>
   </g>
   <g>
    <path class="fil1" d="M2907 2220.7c-23.38,0 -42.35,-18.95 -42.35,-42.33 0,-23.38 18.95,-42.35 42.33,-42.35l0.02 84.68zm543.22 -0.07l-543.22 0.07 -0.02 -84.68 543.22 -0.07 0.02 84.68zm-0.02 -84.68c23.38,0 42.35,18.95 42.35,42.33 0,23.38 -18.95,42.35 -42.33,42.35l-0.02 -84.68z"/>
   </g>
   <g>
    <path class="fil1" d="M3755.74 2178.33l-84.68 0 0 0 -0.11 -4.66 -0.35 -4.57 -0.57 -4.49 -0.78 -4.4 -1.01 -4.34 -1.2 -4.25 -1.41 -4.13 -1.59 -4.05 -1.8 -3.96 -1.98 -3.88 -2.15 -3.74 -2.34 -3.65 -2.49 -3.5 -2.67 -3.41 -2.84 -3.27 -2.97 -3.11 -3.11 -2.97 -3.27 -2.84 -3.41 -2.67 -3.5 -2.49 -3.65 -2.34 -3.74 -2.15 -3.88 -1.98 -3.96 -1.8 -4.05 -1.59 -4.13 -1.41 -4.25 -1.2 -4.34 -1.01 -4.4 -0.78 -4.49 -0.57 -4.57 -0.35 -4.66 -0.12 0 -84.66 8.92 0.22 8.85 0.67 8.71 1.11 8.62 1.54 8.42 1.95 8.29 2.34 8.13 2.75 7.95 3.13 7.72 3.5 7.52 3.84 7.3 4.21 7.07 4.52 6.84 4.87 6.57 5.17 6.31 5.46 6.07 5.77 5.77 6.07 5.46 6.31 5.17 6.57 4.87 6.84 4.52 7.07 4.21 7.3 3.84 7.52 3.5 7.72 3.13 7.95 2.75 8.13 2.34 8.29 1.95 8.42 1.54 8.62 1.11 8.71 0.67 8.85 0.23 8.92 0 0zm-174.35 174.34l0 -84.66 0 0 4.66 -0.12 4.57 -0.35 4.49 -0.57 4.4 -0.78 4.31 -1.01 4.28 -1.21 4.16 -1.41 4.02 -1.58 3.96 -1.8 3.88 -1.98 3.71 -2.14 3.66 -2.34 3.52 -2.51 3.41 -2.67 3.27 -2.84 3.13 -2.98 2.97 -3.11 2.82 -3.25 2.66 -3.39 2.5 -3.53 2.34 -3.64 2.15 -3.75 1.98 -3.87 1.8 -3.97 1.59 -4.04 1.41 -4.14 1.2 -4.24 1.01 -4.35 0.78 -4.4 0.57 -4.48 0.35 -4.57 0.11 -4.66 84.68 0 -0.23 8.92 -0.67 8.85 -1.11 8.72 -1.54 8.6 -1.95 8.43 -2.34 8.28 -2.75 8.14 -3.13 7.94 -3.5 7.73 -3.84 7.51 -4.21 7.31 -4.52 7.06 -4.86 6.83 -5.18 6.59 -5.48 6.33 -5.77 6.05 -6.05 5.76 -6.31 5.46 -6.57 5.17 -6.82 4.85 -7.06 4.54 -7.33 4.22 -7.52 3.84 -7.72 3.5 -7.98 3.14 -8.1 2.73 -8.26 2.35 -8.45 1.95 -8.62 1.54 -8.71 1.11 -8.85 0.67 -8.92 0.22 0 0zm-174.35 -174.34l84.68 0 0 0 0.11 4.66 0.35 4.57 0.57 4.48 0.78 4.4 1.01 4.32 1.21 4.27 1.4 4.14 1.6 4.04 1.8 4 1.97 3.84 2.14 3.72 2.34 3.65 2.52 3.55 2.66 3.39 2.82 3.25 2.99 3.12 3.12 2.99 3.25 2.82 3.39 2.66 3.55 2.52 3.65 2.34 3.72 2.14 3.87 1.98 3.97 1.8 4.01 1.58 4.17 1.41 4.27 1.21 4.32 1.01 4.4 0.78 4.48 0.57 4.57 0.35 4.66 0.12 0 84.66 -8.92 -0.22 -8.85 -0.67 -8.72 -1.11 -8.6 -1.54 -8.46 -1.95 -8.25 -2.35 -8.11 -2.73 -7.97 -3.14 -7.73 -3.5 -7.51 -3.84 -7.34 -4.22 -7.05 -4.54 -6.81 -4.84 -6.59 -5.18 -6.33 -5.48 -6.04 -5.75 -5.75 -6.04 -5.48 -6.33 -5.18 -6.59 -4.84 -6.81 -4.54 -7.05 -4.22 -7.34 -3.85 -7.54 -3.48 -7.7 -3.14 -7.94 -2.74 -8.14 -2.35 -8.25 -1.95 -8.46 -1.54 -8.6 -1.11 -8.72 -0.67 -8.85 -0.23 -8.92 0 0zm174.35 -174.34l0 84.66 0 0 -4.66 0.12 -4.57 0.35 -4.48 0.57 -4.4 0.78 -4.35 1.01 -4.24 1.2 -4.14 1.41 -4.04 1.59 -3.97 1.8 -3.87 1.98 -3.75 2.15 -3.64 2.34 -3.53 2.5 -3.39 2.66 -3.25 2.82 -3.11 2.97 -2.98 3.13 -2.84 3.27 -2.67 3.41 -2.51 3.52 -2.34 3.66 -2.14 3.71 -1.97 3.85 -1.8 3.99 -1.6 4.05 -1.4 4.13 -1.21 4.28 -1.01 4.31 -0.78 4.4 -0.57 4.49 -0.35 4.57 -0.11 4.66 -84.68 0 0.23 -8.92 0.67 -8.85 1.11 -8.71 1.54 -8.62 1.95 -8.45 2.35 -8.26 2.74 -8.13 3.14 -7.95 3.48 -7.69 3.85 -7.55 4.22 -7.33 4.54 -7.06 4.85 -6.82 5.17 -6.57 5.46 -6.31 5.76 -6.05 6.05 -5.77 6.33 -5.48 6.59 -5.18 6.83 -4.86 7.06 -4.52 7.31 -4.21 7.51 -3.84 7.73 -3.5 7.94 -3.13 8.14 -2.75 8.28 -2.34 8.43 -1.95 8.6 -1.54 8.72 -1.11 8.85 -0.67 8.92 -0.22 0 0z"/>
   </g>
   <g>
    <path class="fil1" d="M949.12 2767.26c11.61,20.29 4.57,46.17 -15.72,57.78 -20.29,11.61 -46.17,4.57 -57.78,-15.72l73.5 -42.06zm-188.67 -250.92l81.66 -22.36 2.62 9.47 2.63 9.39 2.64 9.3 2.67 9.21 2.68 9.11 2.73 9.06 2.75 8.99 2.78 8.88 2.81 8.82 2.86 8.74 2.91 8.69 2.96 8.66 3 8.56 3.06 8.53 3.1 8.45 3.17 8.41 3.24 8.4 3.29 8.31 3.38 8.3 3.45 8.28 3.51 8.23 3.6 8.19 3.67 8.16 3.78 8.16 3.87 8.16 3.95 8.14 4.05 8.11 4.15 8.11 4.25 8.1 4.37 8.11 4.48 8.13 4.6 8.12 -73.5 42.06 -5.02 -8.9 -4.9 -8.87 -4.79 -8.89 -4.67 -8.9 -4.55 -8.89 -4.43 -8.89 -4.33 -8.9 -4.21 -8.88 -4.12 -8.9 -4.03 -8.94 -3.92 -8.95 -3.83 -8.95 -3.73 -8.96 -3.66 -9 -3.57 -9.03 -3.48 -9.02 -3.43 -9.07 -3.34 -9.11 -3.28 -9.13 -3.2 -9.18 -3.14 -9.18 -3.09 -9.23 -3.04 -9.3 -2.99 -9.34 -2.94 -9.4 -2.87 -9.41 -2.85 -9.46 -2.82 -9.55 -2.77 -9.59 -2.76 -9.66 -2.71 -9.71 -2.7 -9.79zm0 0c-6.17,-22.54 7.11,-45.84 29.65,-52.01 22.54,-6.17 45.84,7.11 52.01,29.65l-81.66 22.36zm79.42 -678.13c-6.23,22.53 -29.56,35.74 -52.09,29.51 -22.53,-6.23 -35.74,-29.56 -29.51,-52.09l81.6 22.58zm30.95 -313.03l73.58 41.9 -4.47 7.95 -4.36 7.97 -4.24 7.96 -4.14 7.97 -4.02 8 -3.95 8.04 -3.84 8.04 -3.75 8.07 -3.68 8.11 -3.57 8.1 -3.5 8.18 -3.43 8.19 -3.34 8.22 -3.29 8.3 -3.22 8.31 -3.15 8.35 -3.09 8.4 -3.03 8.46 -3 8.52 -2.92 8.52 -2.88 8.62 -2.86 8.68 -2.8 8.72 -2.77 8.78 -2.73 8.84 -2.7 8.92 -2.68 8.99 -2.66 9.04 -2.64 9.12 -2.61 9.16 -2.61 9.26 -2.6 9.34 -81.6 -22.58 2.66 -9.56 2.67 -9.52 2.71 -9.5 2.74 -9.42 2.74 -9.38 2.8 -9.35 2.82 -9.3 2.87 -9.28 2.91 -9.24 2.96 -9.2 3 -9.16 3.06 -9.14 3.14 -9.14 3.18 -9.06 3.25 -9.06 3.33 -9.04 3.39 -9.01 3.48 -8.99 3.55 -8.94 3.64 -8.96 3.73 -8.93 3.82 -8.9 3.93 -8.92 4.02 -8.87 4.11 -8.85 4.24 -8.86 4.33 -8.82 4.46 -8.84 4.58 -8.83 4.68 -8.8 4.82 -8.79 4.93 -8.79zm0 0c11.57,-20.31 37.43,-27.41 57.74,-15.84 20.31,11.57 27.41,37.43 15.84,57.74l-73.58 -41.9zm814.07 1818.57c22.54,6.19 35.81,29.5 29.62,52.04 -6.19,22.54 -29.5,35.81 -52.04,29.62l22.42 -81.66zm-312.09 -40.5l41.44 -73.84 8.06 4.5 8.06 4.43 8.09 4.39 8.12 4.34 8.15 4.28 8.18 4.24 8.2 4.19 8.21 4.13 8.24 4.07 8.28 4.02 8.28 3.95 8.33 3.9 8.35 3.84 8.36 3.77 8.42 3.72 8.41 3.65 8.46 3.58 8.49 3.52 8.51 3.45 8.55 3.39 8.56 3.31 8.61 3.25 8.63 3.18 8.67 3.11 8.68 3.03 8.73 2.96 8.77 2.88 8.78 2.82 8.81 2.72 8.86 2.66 8.87 2.57 8.93 2.49 -22.42 81.66 -9.67 -2.71 -9.65 -2.79 -9.6 -2.88 -9.55 -2.96 -9.52 -3.04 -9.45 -3.12 -9.43 -3.2 -9.38 -3.27 -9.35 -3.35 -9.29 -3.42 -9.25 -3.49 -9.22 -3.57 -9.17 -3.63 -9.15 -3.71 -9.09 -3.78 -9.06 -3.84 -9.03 -3.91 -8.96 -3.96 -8.96 -4.03 -8.89 -4.1 -8.87 -4.14 -8.84 -4.23 -8.78 -4.26 -8.76 -4.33 -8.71 -4.37 -8.68 -4.43 -8.64 -4.48 -8.61 -4.54 -8.58 -4.58 -8.55 -4.63 -8.52 -4.69 -8.46 -4.72zm0 0c-20.39,-11.44 -27.64,-37.25 -16.2,-57.64 11.44,-20.39 37.25,-27.64 57.64,-16.2l-41.44 73.84zm1239.9 -72.15c20.32,-11.56 46.18,-4.46 57.74,15.86 11.56,20.32 4.46,46.18 -15.86,57.74l-41.88 -73.6zm-249.28 192.02l-22.98 -81.5 9.02 -2.57 8.98 -2.62 8.97 -2.67 8.97 -2.73 8.89 -2.77 8.88 -2.83 8.86 -2.89 8.84 -2.95 8.8 -2.98 8.76 -3.06 8.73 -3.1 8.69 -3.16 8.69 -3.23 8.63 -3.28 8.62 -3.34 8.55 -3.39 8.5 -3.45 8.49 -3.53 8.47 -3.59 8.4 -3.63 8.35 -3.71 8.36 -3.78 8.28 -3.82 8.22 -3.89 8.21 -3.96 8.14 -4.03 8.12 -4.09 8.07 -4.16 8.01 -4.22 7.96 -4.29 7.93 -4.37 7.87 -4.43 41.88 73.6 -8.57 4.81 -8.59 4.73 -8.66 4.67 -8.69 4.58 -8.73 4.5 -8.76 4.43 -8.82 4.35 -8.85 4.28 -8.9 4.21 -8.94 4.12 -8.92 4.04 -9.01 3.99 -9.04 3.91 -9.03 3.83 -9.09 3.77 -9.14 3.71 -9.17 3.63 -9.16 3.56 -9.21 3.5 -9.23 3.43 -9.27 3.38 -9.29 3.3 -9.32 3.24 -9.34 3.18 -9.34 3.11 -9.38 3.05 -9.42 3.01 -9.43 2.93 -9.43 2.87 -9.45 2.83 -9.48 2.76 -9.5 2.71zm0 0c-22.5,6.34 -45.9,-6.76 -52.24,-29.26 -6.34,-22.5 6.76,-45.9 29.26,-52.24l22.98 81.5zm-954.1 -2317.88c-20.39,11.43 -46.2,4.18 -57.63,-16.21 -11.43,-20.39 -4.18,-46.2 16.21,-57.63l41.42 73.84zm249.59 -193.4l22.42 81.64 -8.98 2.51 -8.95 2.57 -8.92 2.64 -8.89 2.69 -8.86 2.77 -8.84 2.84 -8.81 2.89 -8.75 2.96 -8.75 3.04 -8.75 3.1 -8.67 3.15 -8.64 3.22 -8.63 3.29 -8.6 3.34 -8.54 3.41 -8.53 3.47 -8.51 3.55 -8.47 3.59 -8.43 3.66 -8.38 3.71 -8.38 3.8 -8.35 3.84 -8.25 3.89 -8.28 3.98 -8.24 4.02 -8.18 4.08 -8.16 4.15 -8.14 4.21 -8.08 4.26 -8.05 4.32 -8.02 4.38 -7.98 4.43 -41.42 -73.84 8.54 -4.75 8.56 -4.68 8.61 -4.62 8.66 -4.56 8.68 -4.49 8.72 -4.43 8.78 -4.38 8.8 -4.3 8.82 -4.24 8.91 -4.19 8.91 -4.1 8.92 -4.04 9 -3.99 9.03 -3.92 9.05 -3.85 9.07 -3.77 9.13 -3.73 9.18 -3.65 9.18 -3.58 9.21 -3.51 9.28 -3.46 9.31 -3.37 9.29 -3.3 9.35 -3.24 9.41 -3.18 9.43 -3.11 9.44 -3.02 9.5 -2.97 9.51 -2.89 9.54 -2.82 9.59 -2.75 9.6 -2.67zm0 0c22.54,-6.19 45.85,7.07 52.04,29.61 6.19,22.54 -7.08,45.84 -29.62,52.03l-22.42 -81.64z"/>
   </g>
   <g>
    <path class="fil1" d="M1710.18 966.38c-7.56,22.18 -31.63,34.02 -53.75,26.45 -22.12,-7.57 -33.93,-31.71 -26.37,-53.89l80.12 27.44zm111.5 -327.27l-111.5 327.27 -80.12 -27.44 111.5 -327.27 40.06 -28.73 40.06 56.17zm-80.12 -27.44c7.56,-22.18 31.63,-34.02 53.75,-26.45 22.12,7.57 33.93,31.71 26.37,53.89l-80.12 -27.44zm512.05 56.17l-471.99 0 0 -84.9 471.99 0 40.35 29.6 -40.35 55.3zm0 -84.9c23.38,0 42.34,19.01 42.34,42.45 0,23.44 -18.96,42.45 -42.34,42.45l0 -84.9zm60.04 372.14l-100.39 -316.84 80.7 -25.7 100.39 316.84 -80.7 25.7zm80.7 -25.7c7.08,22.34 -5.25,46.22 -27.53,53.31 -22.28,7.09 -46.09,-5.27 -53.17,-27.61l80.7 -25.7z"/>
   </g>
   <g>
    <path class="fil1" d="M1713.85 3371.17l-80.34 26.82c-7.38,-22.24 4.61,-46.28 26.79,-53.68 22.18,-7.4 46.17,4.62 53.55,26.86zm107.94 324.93l-40.17 55.86 -40.17 -29.04 -107.94 -324.93 80.34 -26.82 107.94 324.93zm-80.34 26.82l80.34 -26.82c7.38,22.24 -4.61,46.28 -26.79,53.68 -22.18,7.4 -46.17,-4.62 -53.55,-26.86zm512.16 -55.86l40.54 54.7 -40.54 30.2 -471.99 0 0 -84.9 471.99 0zm0 84.9l0 -84.9c23.38,0 42.34,19.01 42.34,42.45 0,23.44 -18.96,42.45 -42.34,42.45zm57.78 -381.84l81.08 24.5 -98.32 327.14 -81.08 -24.5 98.32 -327.14zm81.08 24.5l-81.08 -24.5c6.74,-22.44 30.38,-35.15 52.76,-28.39 22.38,6.76 35.06,30.45 28.32,52.89z"/>
   </g>
   <g>
    <path class="fil1" d="M945.71 1527.67c10.25,21.07 1.49,46.43 -19.55,56.62 -21.04,10.19 -46.42,1.37 -56.67,-19.7l76.22 -36.92zm-148.67 -305.6l148.67 305.6 -76.22 36.92 -148.67 -305.6 8.09 -48.48 68.13 11.56zm-76.22 36.92c-10.25,-21.07 -1.49,-46.43 19.55,-56.62 21.04,-10.19 46.42,-1.37 56.67,19.7l-76.22 36.92zm401.87 -322.18l-333.74 333.74 -60.04 -60.04 333.74 -333.74 50.25 -7.18 9.79 67.22zm-60.04 -60.04c16.53,-16.53 43.39,-16.49 59.96,0.08 16.57,16.57 16.61,43.43 0.08,59.96l-60.04 -60.04zm305.72 228.75l-295.93 -161.53 40.46 -74.4 295.93 161.53 -40.46 74.4zm40.46 -74.4c20.57,11.22 28.19,36.99 17.02,57.53 -11.17,20.54 -36.91,28.09 -57.48,16.87l40.46 -74.4z"/>
   </g>
   <g>
    <path class="fil1" d="M2652.56 3230.01l-37.84 75.78c-20.95,-10.5 -29.46,-35.99 -19.02,-56.91 10.44,-20.92 35.91,-29.37 56.86,-18.87zm306.09 153.43l11.1 67.91 -48.94 7.87 -306.09 -153.43 37.84 -75.78 306.09 153.43zm-37.84 75.78l37.84 -75.78c20.95,10.5 29.46,35.99 19.02,56.91 -10.44,20.92 -35.91,29.37 -56.86,18.87zm322.65 -401.65l67.3 9.93 -7.26 50.11 -333.75 333.74 -60.04 -60.04 333.75 -333.74zm60.04 60.04l-60.04 -60.04c16.53,-16.53 43.39,-16.49 59.96,0.08 16.57,16.57 16.61,43.43 0.08,59.96zm-225.09 -301.78l74.56 -40.18 157.79 291.85 -74.56 40.18 -157.79 -291.85zm74.56 -40.18l-74.56 40.18c-11.14,-20.61 -3.48,-46.33 17.1,-57.42 20.58,-11.09 46.32,-3.37 57.46,17.24z"/>
   </g>
   <g>
    <path class="fil1" d="M950.26 2807.22l-75.78 -37.84c10.5,-20.95 35.99,-29.46 56.91,-19.02 20.92,10.44 29.37,35.91 18.87,56.86zm-153.44 306.08l-67.91 11.1 -7.87 -48.94 153.44 -306.08 75.78 37.84 -153.44 306.08zm-75.78 -37.84l75.78 37.84c-10.5,20.95 -35.99,29.46 -56.91,19.02 -20.92,-10.44 -29.37,-35.91 -18.87,-56.86zm401.66 322.65l-10.02 67.34 -50.02 -7.3 -333.75 -333.75 60.04 -60.04 333.75 333.75zm-60.04 60.04l60.04 -60.04c16.53,16.53 16.49,43.39 -0.08,59.96 -16.57,16.57 -43.43,16.61 -59.96,0.08zm310.86 -229.14l40 74.64 -300.84 161.8 -40 -74.64 300.84 -161.8zm40 74.64l-40 -74.64c20.64,-11.1 46.34,-3.39 57.38,17.22 11.04,20.61 3.26,46.32 -17.38,57.42z"/>
   </g>
   <g>
    <path class="fil1" d="M812.49 1867.09l-26.82 -80.34c22.24,-7.38 46.28,4.61 53.68,26.79 7.4,22.18 -4.62,46.17 -26.86,53.55zm-324.94 107.94l-55.86 -40.17 29.04 -40.17 324.94 -107.94 26.82 80.34 -324.94 107.94zm-26.82 -80.34l26.82 80.34c-22.24,7.38 -46.28,-4.61 -53.68,-26.79 -7.4,-22.18 4.62,-46.17 26.86,-53.55zm55.86 512.16l-54.7 40.54 -30.2 -40.54 0 -471.99 84.9 0 0 471.99zm-84.9 0l84.9 0c0,23.38 -19.01,42.34 -42.45,42.34 -23.44,0 -42.45,-18.96 -42.45,-42.34zm381.84 57.78l-24.5 81.08 -327.14 -98.32 24.5 -81.08 327.14 98.32zm-24.5 81.08l24.5 -81.08c22.44,6.74 35.15,30.38 28.39,52.76 -6.76,22.38 -30.45,35.06 -52.89,28.32z"/>
   </g>
  </g>
 </g>
</svg>
