<?xml version="1.0" encoding="UTF-8"?>
<!DOCTYPE svg PUBLIC "-//W3C//DTD SVG 1.1//EN" "http://www.w3.org/Graphics/SVG/1.1/DTD/svg11.dtd">
<!-- Creator: CorelDRAW 2020 (64-Bit) -->
<svg xmlns="http://www.w3.org/2000/svg" xml:space="preserve" width="43.3492mm" height="43.3492mm" version="1.1" style="shape-rendering:geometricPrecision; text-rendering:geometricPrecision; image-rendering:optimizeQuality; fill-rule:evenodd; clip-rule:evenodd"
viewBox="0 0 4334.92 4334.92"
 xmlns:xlink="http://www.w3.org/1999/xlink"
 xmlns:xodm="http://www.corel.com/coreldraw/odm/2003">
 <defs>
  <style type="text/css">
   <![CDATA[
    .fil0 {fill:none}
    .fil1 {fill:#DBDADA;fill-rule:nonzero}
   ]]>
  </style>
 </defs>
 <g id="Warstwa_x0020_1">
  <metadata id="CorelCorpID_0Corel-Layer"/>
  <rect class="fil0" x="-0.01" y="-0.01" width="4334.93" height="4334.94"/>
  <g id="_2855152332592">
   <g>
    <path class="fil1" d="M3692.19 3860.8l0 -2019.4 84.68 0 0 2019.4 -42.34 42.34 -42.34 -42.34zm84.68 0l0 42.34 -42.34 0 42.34 -42.34zm-3176.48 -42.34l3134.14 0 0 84.68 -3134.14 0 -42.34 -42.34 42.34 -42.34zm0 84.68l-42.34 0 0 -42.34 42.34 42.34zm42.34 -3429.02l0 3386.68 -84.68 0 0 -3386.68 42.34 -42.34 42.34 42.34zm-84.68 0l0 -42.34 42.34 0 -42.34 42.34zm3176.48 42.34l-3134.14 0 0 -84.68 3134.14 0 42.34 42.34 -42.34 42.34zm0 -84.68l42.34 0 0 42.34 -42.34 -42.34zm-42.34 1409.62l0 -1367.28 84.68 0 0 1367.28 0 0 -84.68 0z"/>
   </g>
   <g>
    <path class="fil1" d="M3354.14 2924.96l-2373.46 0 0 -84.68 2373.46 0 42.34 42.34 -42.34 42.34zm42.34 -42.34l0 42.34 -42.34 0 42.34 -42.34zm0 -2028.11l0 2028.11 -84.68 0 0 -2028.11 42.34 -42.34 42.34 42.34zm-42.34 -42.34l42.34 0 0 42.34 -42.34 -42.34zm-2373.46 0l2373.46 0 0 84.68 -2373.46 0 -42.34 -42.34 42.34 -42.34zm-42.34 42.34l0 -42.34 42.34 0 -42.34 42.34zm0 2028.11l0 -2028.11 84.68 0 0 2028.11 -42.34 42.34 -42.34 -42.34zm42.34 42.34l-42.34 0 0 -42.34 42.34 42.34z"/>
   </g>
   <g>
    <path class="fil1" d="M1171.99 3354.1l0 84.68 -42.34 0 0 -84.68 42.34 0zm1990.84 84.68l-1990.84 0 0 -84.68 1990.84 0 0 84.68zm0 0l0 -84.68 42.34 0 0 84.68 -42.34 0z"/>
   </g>
   <g>
    <path class="fil1" d="M1778.34 1347.19l0 1042.73 -84.68 0 0 -1042.73 64.24 -36.23 20.44 36.23zm-84.68 0c0,-23.38 18.96,-42.34 42.34,-42.34 23.38,0 42.34,18.96 42.34,42.34l-84.68 0zm883.26 557.68l-862.82 -521.45 43.8 -72.46 862.82 521.45 -0.01 72.47 -43.79 -0.01zm43.8 -72.46c20,12.09 26.42,38.13 14.33,58.13 -12.09,20 -38.13,26.42 -58.13,14.33l43.8 -72.46zm-906.61 521.27l862.82 -521.28 43.78 72.48 -862.82 521.28 -64.23 -36.24 20.45 -36.24zm43.78 72.48c-20.01,12.08 -46.05,5.66 -58.13,-14.35 -12.08,-20.01 -5.66,-46.05 14.35,-58.13l43.78 72.48z"/>
   </g>
  </g>
 </g>
</svg>
